<svg xmlns="http://www.w3.org/2000/svg" width="1302" height="394" viewBox="0 0 1302 394"><defs><style>.a{fill:#fff;}</style></defs><g transform="translate(-8 -66)"><circle class="a" cx="2.5" cy="2.5" r="2.5" transform="translate(291 347)"/><circle class="a" cx="2.5" cy="2.5" r="2.5" transform="translate(386 347)"/><circle class="a" cx="2.5" cy="2.5" r="2.5" transform="translate(599 364)"/><circle class="a" cx="2.5" cy="2.5" r="2.5" transform="translate(296 144)"/><circle class="a" cx="2.5" cy="2.5" r="2.5" transform="translate(423 103)"/><circle class="a" cx="2.5" cy="2.5" r="2.5" transform="translate(1181 333)"/><circle class="a" cx="2.5" cy="2.5" r="2.5" transform="translate(1104 419)"/><circle class="a" cx="2.5" cy="2.5" r="2.5" transform="translate(793 455)"/><circle class="a" cx="2.5" cy="2.5" r="2.5" transform="translate(770 134)"/><circle class="a" cx="2.5" cy="2.5" r="2.5" transform="translate(400 279)"/><circle class="a" cx="2.5" cy="2.5" r="2.5" transform="translate(966 139)"/><circle class="a" cx="2.5" cy="2.5" r="2.5" transform="translate(1305 257)"/><circle class="a" cx="2.5" cy="2.5" r="2.5" transform="translate(1214 87)"/><circle class="a" cx="2.5" cy="2.5" r="2.5" transform="translate(613 202)"/><circle class="a" cx="2.5" cy="2.5" r="2.5" transform="translate(197 274)"/><circle class="a" cx="2.5" cy="2.5" r="2.5" transform="translate(104 290)"/><circle class="a" cx="2.5" cy="2.5" r="2.5" transform="translate(317 233)"/><circle class="a" cx="2.5" cy="2.5" r="2.5" transform="translate(461 164)"/><circle class="a" cx="2.5" cy="2.5" r="2.5" transform="translate(688 178)"/><circle class="a" cx="2.5" cy="2.5" r="2.5" transform="translate(339 84)"/><circle class="a" cx="2.5" cy="2.5" r="2.5" transform="translate(97 188)"/><circle class="a" cx="2.5" cy="2.5" r="2.5" transform="translate(8 103)"/><circle class="a" cx="2.5" cy="2.5" r="2.5" transform="translate(714 84)"/><circle class="a" cx="2.5" cy="2.5" r="2.5" transform="translate(228 110)"/><circle class="a" cx="2.5" cy="2.5" r="2.5" transform="translate(697 426)"/><circle class="a" cx="2.5" cy="2.5" r="2.5" transform="translate(230 369)"/><circle class="a" cx="2.5" cy="2.5" r="2.5" transform="translate(261 444)"/><circle class="a" cx="1.5" cy="1.5" r="1.5" transform="translate(344 392)"/><circle class="a" cx="1.5" cy="1.5" r="1.5" transform="translate(610 113)"/><circle class="a" cx="1.5" cy="1.5" r="1.5" transform="translate(23 210)"/><circle class="a" cx="1.5" cy="1.5" r="1.5" transform="translate(182 185)"/><circle class="a" cx="1.5" cy="1.5" r="1.5" transform="translate(1023 272)"/><circle class="a" cx="1.5" cy="1.5" r="1.5" transform="translate(104 90)"/><circle class="a" cx="1.5" cy="1.5" r="1.5" transform="translate(849 419)"/><circle class="a" cx="1.5" cy="1.5" r="1.5" transform="translate(816 269)"/><circle class="a" cx="1.5" cy="1.5" r="1.5" transform="translate(975 223)"/><circle class="a" cx="1.5" cy="1.5" r="1.5" transform="translate(1223 171)"/><circle class="a" cx="1.5" cy="1.5" r="1.5" transform="translate(397 171)"/><circle class="a" cx="1.5" cy="1.5" r="1.5" transform="translate(727 284)"/><circle class="a" cx="1.5" cy="1.5" r="1.5" transform="translate(860 87)"/><circle class="a" cx="1.5" cy="1.5" r="1.5" transform="translate(514 115)"/><circle class="a" cx="1.5" cy="1.5" r="1.5" transform="translate(556 66)"/><circle class="a" cx="1.5" cy="1.5" r="1.5" transform="translate(508 317)"/><circle class="a" cx="1.5" cy="1.5" r="1.5" transform="translate(568 272)"/><circle class="a" cx="1.5" cy="1.5" r="1.5" transform="translate(767 388)"/><circle class="a" cx="1.5" cy="1.5" r="1.5" transform="translate(994 443)"/><circle class="a" cx="1.5" cy="1.5" r="1.5" transform="translate(47 437)"/><circle class="a" cx="1.5" cy="1.5" r="1.5" transform="translate(76 378)"/><circle class="a" cx="1.5" cy="1.5" r="1.5" transform="translate(13 288)"/><circle class="a" cx="1.5" cy="1.5" r="1.5" transform="translate(939 388)"/><circle class="a" cx="1.5" cy="1.5" r="1.5" transform="translate(160 402)"/></g></svg>