<svg xmlns="http://www.w3.org/2000/svg" xmlns:xlink="http://www.w3.org/1999/xlink" width="423.43" height="276.398" viewBox="0 0 423.43 276.398">
  <defs>
    <clipPath id="clip-path">
      <path id="Path_15136" data-name="Path 15136" d="M94.38,117.288H91.4a2.811,2.811,0,0,0-2.56,1.982L65.081,184.508H120.7L96.94,119.27A2.811,2.811,0,0,0,94.38,117.288Z" transform="translate(-65.081 -117.288)" fill="none"/>
    </clipPath>
    <clipPath id="clip-path-2">
      <path id="Path_15138" data-name="Path 15138" d="M125.619,125h-1.81a1.707,1.707,0,0,0-1.555,1.2l-14.443,39.654H141.62L127.174,126.2A1.705,1.705,0,0,0,125.619,125Z" transform="translate(-107.811 -125)" fill="none"/>
    </clipPath>
    <clipPath id="clip-path-3">
      <path id="Path_15142" data-name="Path 15142" d="M246.274,128.092h-1.961a1.849,1.849,0,0,0-1.685,1.305L226.975,172.37h36.638L247.96,129.4A1.849,1.849,0,0,0,246.274,128.092Z" transform="translate(-226.975 -128.092)" fill="none"/>
    </clipPath>
  </defs>
  <g id="Group_5754" data-name="Group 5754" transform="translate(-44.456 -32.315)">
    <g id="Group_3986" data-name="Group 3986" transform="translate(47.189 126.18)">
      <path id="Path_8378" data-name="Path 8378" d="M49.209,98.4l7.486,14.67-8.02-8.943q-.009.681.008,1.377c.337,13.629,10.787,28.023,10.787,28.023L46.129,120.493a52.637,52.637,0,0,0,2.3,21.478l18.1,12.678-15.3-5.419c6.191,14.3,13.52,19.715,13.52,19.715l-8.066-.142a73.187,73.187,0,0,0,6.97,15.876c4.424,7.1,12.731,11.121,12.731,11.121l-4.823,1.047A27.82,27.82,0,0,0,93.529,212.8L56.026,81.706A42.009,42.009,0,0,0,49.209,98.4Z" transform="translate(-45.865 -79.78)" fill="#244854"/>
      <path id="Path_8379" data-name="Path 8379" d="M51.1,82.639l37.5,131.094s9.961-6.885,13.6-14.247.859-11.833.859-11.833l-5.88,4.864s5.622-12.007,7.25-22.073-3.024-19.823-3.024-19.823l-9.358,9.21s4.769-16.158,4.267-26.77-7.467-21.578-7.467-21.578l-7.411,9.1s1.292-11.811-1.232-21.02-5.578-12.618-5.578-12.618l-4.143,8.631s-3.024-7.94-6.87-12.686S51.1,82.639,51.1,82.639Z" transform="translate(-40.943 -80.713)" fill="#1c3742"/>
      <g id="Group_3984" data-name="Group 3984" transform="translate(6.878 17.935)">
        <line id="Line_1" data-name="Line 1" x2="7.064" y2="12.841" transform="translate(1.233)" fill="none" stroke="#1f6152" stroke-miterlimit="10" stroke-width="1"/>
        <line id="Line_2" data-name="Line 2" x2="6.298" y2="7.023" transform="translate(6.484 19.604)" fill="none" stroke="#1f6152" stroke-miterlimit="10" stroke-width="1"/>
        <line id="Line_3" data-name="Line 3" x2="12.085" y2="13.476" transform="translate(3.448 22.327)" fill="none" stroke="#1f6152" stroke-miterlimit="10" stroke-width="1"/>
        <line id="Line_4" data-name="Line 4" x2="8.249" y2="7.67" transform="translate(8.745 37.781)" fill="none" stroke="#1f6152" stroke-miterlimit="10" stroke-width="1"/>
        <line id="Line_5" data-name="Line 5" x2="20.045" y2="18.152" transform="translate(0 37.576)" fill="none" stroke="#1f6152" stroke-miterlimit="10" stroke-width="1"/>
        <line id="Line_6" data-name="Line 6" x2="8.878" y2="7.062" transform="translate(13.786 56.933)" fill="none" stroke="#1f6152" stroke-miterlimit="10" stroke-width="1"/>
        <line id="Line_7" data-name="Line 7" x2="21.297" y2="15.831" transform="translate(5.108 58.164)" fill="none" stroke="#1f6152" stroke-miterlimit="10" stroke-width="1"/>
        <line id="Line_8" data-name="Line 8" x2="13.551" y2="9.764" transform="translate(14.876 74.404)" fill="none" stroke="#1f6152" stroke-miterlimit="10" stroke-width="1"/>
        <line id="Line_9" data-name="Line 9" x2="17.753" y2="12.16" transform="translate(11.682 80.007)" fill="none" stroke="#1f6152" stroke-miterlimit="10" stroke-width="1"/>
        <line id="Line_10" data-name="Line 10" x2="11.33" y2="7.419" transform="translate(20.561 91.305)" fill="none" stroke="#1f6152" stroke-miterlimit="10" stroke-width="1"/>
        <line id="Line_11" data-name="Line 11" x2="10.089" y2="5.417" transform="translate(25.815 100.39)" fill="none" stroke="#1f6152" stroke-miterlimit="10" stroke-width="1"/>
        <line id="Line_12" data-name="Line 12" x2="9.019" y2="3.594" transform="translate(27.189 106.389)" fill="none" stroke="#1f6152" stroke-miterlimit="10" stroke-width="1"/>
      </g>
      <g id="Group_3985" data-name="Group 3985" transform="translate(24.465 26.463)">
        <line id="Line_13" data-name="Line 13" x1="1.736" y2="9.272" fill="none" stroke="#1f6152" stroke-miterlimit="10" stroke-width="1"/>
        <line id="Line_14" data-name="Line 14" x1="3.331" y2="17.792" transform="translate(2.415 0.751)" fill="none" stroke="#1f6152" stroke-miterlimit="10" stroke-width="1"/>
        <line id="Line_15" data-name="Line 15" x1="3.067" y2="10.838" transform="translate(6.175 16.708)" fill="none" stroke="#1f6152" stroke-miterlimit="10" stroke-width="1"/>
        <line id="Line_16" data-name="Line 16" x1="7.706" y2="25.921" transform="translate(8.903 11.992)" fill="none" stroke="#1f6152" stroke-miterlimit="10" stroke-width="1"/>
        <line id="Line_17" data-name="Line 17" x1="3.921" y2="10.644" transform="translate(10.958 35.694)" fill="none" stroke="#1f6152" stroke-miterlimit="10" stroke-width="1"/>
        <line id="Line_18" data-name="Line 18" x1="9.981" y2="24.588" transform="translate(12.953 32.24)" fill="none" stroke="#1f6152" stroke-miterlimit="10" stroke-width="1"/>
        <line id="Line_19" data-name="Line 19" x1="6.511" y2="15.381" transform="translate(16.507 51.19)" fill="none" stroke="#1f6152" stroke-miterlimit="10" stroke-width="1"/>
        <line id="Line_20" data-name="Line 20" x1="8.859" y2="19.61" transform="translate(19.798 54.321)" fill="none" stroke="#1f6152" stroke-miterlimit="10" stroke-width="1"/>
        <line id="Line_21" data-name="Line 21" x1="5.83" y2="12.223" transform="translate(21.104 68.588)" fill="none" stroke="#1f6152" stroke-miterlimit="10" stroke-width="1"/>
        <line id="Line_22" data-name="Line 22" x1="5.81" y2="9.867" transform="translate(21.351 79.079)" fill="none" stroke="#1f6152" stroke-miterlimit="10" stroke-width="1"/>
        <line id="Line_23" data-name="Line 23" x1="5.842" y2="7.755" transform="translate(23.259 84.92)" fill="none" stroke="#1f6152" stroke-miterlimit="10" stroke-width="1"/>
      </g>
    </g>
    <g id="Group_3986-2" data-name="Group 3986" transform="translate(401.315 126.18)">
      <path id="Path_8378-2" data-name="Path 8378" d="M281.115,98.4l-7.486,14.67,8.02-8.943q.009.681-.006,1.377c-.339,13.629-10.789,28.023-10.789,28.023L284.2,120.493a52.639,52.639,0,0,1-2.3,21.478l-18.1,12.678,15.3-5.419c-6.191,14.3-13.52,19.715-13.52,19.715l8.066-.142a73.186,73.186,0,0,1-6.97,15.876c-4.424,7.1-12.731,11.121-12.731,11.121l4.825,1.047A27.825,27.825,0,0,1,236.795,212.8L274.3,81.706A42.007,42.007,0,0,1,281.115,98.4Z" transform="translate(-220.621 -79.78)" fill="#244854"/>
      <path id="Path_8379-2" data-name="Path 8379" d="M282.133,82.639l-37.5,131.094s-9.961-6.885-13.6-14.247-.859-11.833-.859-11.833l5.88,4.864s-5.622-12.007-7.25-22.073,3.026-19.823,3.026-19.823l9.356,9.21s-4.769-16.158-4.267-26.77,7.467-21.578,7.467-21.578l7.411,9.1s-1.292-11.811,1.232-21.02S258.6,86.944,258.6,86.944l4.143,8.631s3.024-7.94,6.87-12.686S282.133,82.639,282.133,82.639Z" transform="translate(-228.456 -80.713)" fill="#1c3742"/>
      <g id="Group_3984-2" data-name="Group 3984" transform="translate(20.751 17.935)">
        <line id="Line_1-2" data-name="Line 1" x1="7.064" y2="12.841" transform="translate(27.912)" fill="none" stroke="#1f6152" stroke-miterlimit="10" stroke-width="1"/>
        <line id="Line_2-2" data-name="Line 2" x1="6.298" y2="7.023" transform="translate(23.427 19.604)" fill="none" stroke="#1f6152" stroke-miterlimit="10" stroke-width="1"/>
        <line id="Line_3-2" data-name="Line 3" x1="12.085" y2="13.476" transform="translate(20.676 22.327)" fill="none" stroke="#1f6152" stroke-miterlimit="10" stroke-width="1"/>
        <line id="Line_4-2" data-name="Line 4" x1="8.249" y2="7.67" transform="translate(19.215 37.781)" fill="none" stroke="#1f6152" stroke-miterlimit="10" stroke-width="1"/>
        <line id="Line_5-2" data-name="Line 5" x1="20.045" y2="18.152" transform="translate(16.164 37.576)" fill="none" stroke="#1f6152" stroke-miterlimit="10" stroke-width="1"/>
        <line id="Line_6-2" data-name="Line 6" x1="8.878" y2="7.062" transform="translate(13.546 56.933)" fill="none" stroke="#1f6152" stroke-miterlimit="10" stroke-width="1"/>
        <line id="Line_7-2" data-name="Line 7" x1="21.297" y2="15.831" transform="translate(9.804 58.164)" fill="none" stroke="#1f6152" stroke-miterlimit="10" stroke-width="1"/>
        <line id="Line_8-2" data-name="Line 8" x1="13.551" y2="9.764" transform="translate(7.783 74.404)" fill="none" stroke="#1f6152" stroke-miterlimit="10" stroke-width="1"/>
        <line id="Line_9-2" data-name="Line 9" x1="17.753" y2="12.16" transform="translate(6.774 80.007)" fill="none" stroke="#1f6152" stroke-miterlimit="10" stroke-width="1"/>
        <line id="Line_10-2" data-name="Line 10" x1="11.33" y2="7.419" transform="translate(4.318 91.305)" fill="none" stroke="#1f6152" stroke-miterlimit="10" stroke-width="1"/>
        <line id="Line_11-2" data-name="Line 11" x1="10.089" y2="5.417" transform="translate(0.306 100.39)" fill="none" stroke="#1f6152" stroke-miterlimit="10" stroke-width="1"/>
        <line id="Line_12-2" data-name="Line 12" x1="9.019" y2="3.594" transform="translate(0 106.389)" fill="none" stroke="#1f6152" stroke-miterlimit="10" stroke-width="1"/>
      </g>
      <g id="Group_3985-2" data-name="Group 3985" transform="translate(10.272 26.463)">
        <line id="Line_13-2" data-name="Line 13" x2="1.736" y2="9.272" transform="translate(27.365)" fill="none" stroke="#1f6152" stroke-miterlimit="10" stroke-width="1"/>
        <line id="Line_14-2" data-name="Line 14" x2="3.331" y2="17.792" transform="translate(23.356 0.751)" fill="none" stroke="#1f6152" stroke-miterlimit="10" stroke-width="1"/>
        <line id="Line_15-2" data-name="Line 15" x2="3.067" y2="10.838" transform="translate(19.859 16.708)" fill="none" stroke="#1f6152" stroke-miterlimit="10" stroke-width="1"/>
        <line id="Line_16-2" data-name="Line 16" x2="7.706" y2="25.921" transform="translate(12.492 11.992)" fill="none" stroke="#1f6152" stroke-miterlimit="10" stroke-width="1"/>
        <line id="Line_17-2" data-name="Line 17" x2="3.921" y2="10.644" transform="translate(14.223 35.694)" fill="none" stroke="#1f6152" stroke-miterlimit="10" stroke-width="1"/>
        <line id="Line_18-2" data-name="Line 18" x2="9.981" y2="24.588" transform="translate(6.167 32.24)" fill="none" stroke="#1f6152" stroke-miterlimit="10" stroke-width="1"/>
        <line id="Line_19-2" data-name="Line 19" x2="6.511" y2="15.381" transform="translate(6.083 51.19)" fill="none" stroke="#1f6152" stroke-miterlimit="10" stroke-width="1"/>
        <line id="Line_20-2" data-name="Line 20" x2="8.859" y2="19.61" transform="translate(0.445 54.321)" fill="none" stroke="#1f6152" stroke-miterlimit="10" stroke-width="1"/>
        <line id="Line_21-2" data-name="Line 21" x2="5.83" y2="12.223" transform="translate(2.167 68.588)" fill="none" stroke="#1f6152" stroke-miterlimit="10" stroke-width="1"/>
        <line id="Line_22-2" data-name="Line 22" x2="5.81" y2="9.867" transform="translate(1.94 79.079)" fill="none" stroke="#1f6152" stroke-miterlimit="10" stroke-width="1"/>
        <line id="Line_23-2" data-name="Line 23" x2="5.842" y2="7.755" transform="translate(0 84.92)" fill="none" stroke="#1f6152" stroke-miterlimit="10" stroke-width="1"/>
      </g>
    </g>
    <g id="Group_5719" data-name="Group 5719" transform="translate(78.922 32.315)">
      <rect id="Rectangle_1618" data-name="Rectangle 1618" width="341.548" height="213.713" rx="4.372" transform="translate(0.645)" fill="#2b8d7b"/>
      <path id="Path_15131" data-name="Path 15131" d="M202.189,185.15h-69.5l7.549-29.678,1.711-6.731,3.322-13.034h44.335l3.321,13.034,1.711,6.731Z" transform="translate(3.972 64.816)" fill="#2b8d7b"/>
      <path id="Path_15132" data-name="Path 15132" d="M190.984,149.158h-54.4l1.711-6.731h50.978Z" transform="translate(7.629 71.13)" fill="#26715f"/>
      <path id="Path_15133" data-name="Path 15133" d="M244.364,170.6H121.524a5.337,5.337,0,0,1-5.337-5.337h0a5.337,5.337,0,0,1,5.337-5.337H244.364a5.337,5.337,0,0,1,5.337,5.337h0A5.337,5.337,0,0,1,244.364,170.6Z" transform="translate(-11.534 87.567)" fill="#26715f"/>
      <rect id="Rectangle_1619" data-name="Rectangle 1619" width="342.185" height="149.294" transform="translate(0 30.374)" fill="#73c6bf" opacity="0.2"/>
      <path id="Path_15134" data-name="Path 15134" d="M154.413,145.135h0a7.9,7.9,0,0,1-7.874-7.874h0a7.9,7.9,0,0,1,7.874-7.874h0a7.9,7.9,0,0,1,7.874,7.874h0A7.9,7.9,0,0,1,154.413,145.135Z" transform="translate(16.981 58.879)" fill="#26715f"/>
    </g>
    <g id="Group_5723" data-name="Group 5723" transform="translate(78.174 197.116)">
      <g id="Group_5722" data-name="Group 5722" transform="translate(6.284)">
        <path id="Path_15135" data-name="Path 15135" d="M94.38,117.288H91.4a2.811,2.811,0,0,0-2.56,1.982L65.081,184.508H120.7L96.94,119.27A2.811,2.811,0,0,0,94.38,117.288Z" transform="translate(-65.081 -117.288)" fill="#e0583d"/>
        <g id="Group_5721" data-name="Group 5721">
          <g id="Group_5720" data-name="Group 5720" clip-path="url(#clip-path)">
            <rect id="Rectangle_1620" data-name="Rectangle 1620" width="50.823" height="13.474" transform="translate(1.953 16.319)" fill="#fff"/>
            <rect id="Rectangle_1621" data-name="Rectangle 1621" width="50.823" height="13.474" transform="translate(1.953 42.668)" fill="#fff"/>
          </g>
        </g>
      </g>
      <rect id="Rectangle_1622" data-name="Rectangle 1622" width="68.189" height="6.288" rx="1.621" transform="translate(0 66.471)" fill="#dc442b"/>
    </g>
    <g id="Group_5727" data-name="Group 5727" transform="translate(163.51 212.073)">
      <g id="Group_5726" data-name="Group 5726" transform="translate(3.821)">
        <path id="Path_15137" data-name="Path 15137" d="M125.619,125h-1.81a1.707,1.707,0,0,0-1.555,1.2l-14.443,39.654H141.62L127.174,126.2A1.705,1.705,0,0,0,125.619,125Z" transform="translate(-107.811 -125)" fill="#e0583d"/>
        <g id="Group_5725" data-name="Group 5725">
          <g id="Group_5724" data-name="Group 5724" clip-path="url(#clip-path-2)">
            <rect id="Rectangle_1623" data-name="Rectangle 1623" width="30.892" height="8.19" transform="translate(1.186 9.919)" fill="#fff"/>
            <rect id="Rectangle_1624" data-name="Rectangle 1624" width="30.892" height="8.19" transform="translate(1.186 25.935)" fill="#fff"/>
          </g>
        </g>
      </g>
      <rect id="Rectangle_1625" data-name="Rectangle 1625" width="41.448" height="3.822" rx="0.985" transform="translate(0 40.404)" fill="#dc442b"/>
    </g>
    <path id="Path_15139" data-name="Path 15139" d="M270.627,55.419l5.919-4.408a36.735,36.735,0,0,0-11.3-11.3l-4.408,5.919a29.031,29.031,0,0,0-8.243-3.415l1.071-7.314a35.858,35.858,0,0,0-15.983,0l1.069,7.314a29.043,29.043,0,0,0-8.241,3.415L226.1,39.712a36.692,36.692,0,0,0-11.3,11.3l5.919,4.408a29.037,29.037,0,0,0-3.417,8.243l-7.312-1.071a35.859,35.859,0,0,0,0,15.983l7.312-1.071a29.036,29.036,0,0,0,3.417,8.243L214.8,90.155a36.692,36.692,0,0,0,11.3,11.3l4.408-5.919a29.019,29.019,0,0,0,8.241,3.415l-1.069,7.314a35.859,35.859,0,0,0,15.983,0L252.6,98.95a29.031,29.031,0,0,0,8.243-3.415l4.408,5.919a36.713,36.713,0,0,0,11.3-11.3l-5.919-4.408a29.034,29.034,0,0,0,3.415-8.243l7.314,1.071a35.859,35.859,0,0,0,0-15.983l-7.314,1.071A29.034,29.034,0,0,0,270.627,55.419ZM245.674,90a19.417,19.417,0,1,1,19.418-19.416A19.416,19.416,0,0,1,245.674,90Z" transform="translate(154.668 1.583)" fill="#e0583d"/>
    <path id="Path_15140" data-name="Path 15140" d="M114.9,117.373l1.763-1.311A10.953,10.953,0,0,0,113.3,112.7l-1.311,1.763a8.634,8.634,0,0,0-2.453-1.018l.318-2.176a10.7,10.7,0,0,0-4.756,0l.318,2.176a8.623,8.623,0,0,0-2.451,1.018l-1.311-1.763a10.954,10.954,0,0,0-3.363,3.363l1.761,1.311a8.607,8.607,0,0,0-1.016,2.453l-2.176-.32a10.7,10.7,0,0,0,0,4.757l2.176-.32a8.607,8.607,0,0,0,1.016,2.453l-1.761,1.311a10.953,10.953,0,0,0,3.363,3.363l1.311-1.761a8.674,8.674,0,0,0,2.451,1.016L105.1,132.5a10.7,10.7,0,0,0,4.756,0l-.318-2.176a8.685,8.685,0,0,0,2.453-1.016l1.311,1.761a10.953,10.953,0,0,0,3.363-3.363L114.9,126.4a8.607,8.607,0,0,0,1.016-2.453l2.176.32a10.63,10.63,0,0,0,0-4.757l-2.176.32A8.607,8.607,0,0,0,114.9,117.373Zm-7.424,10.289a5.777,5.777,0,1,1,5.778-5.776A5.777,5.777,0,0,1,107.476,127.662Z" transform="translate(48.979 73.921)" fill="#1c3742"/>
    <g id="Group_3979" data-name="Group 3979" transform="translate(415.551 178.619)">
      <path id="Path_8338" data-name="Path 8338" d="M269.271,114.558a31.855,31.855,0,0,1,.919,5.227,56.989,56.989,0,0,1-.13,13.309,62.476,62.476,0,0,1-5.44,18.729,46.34,46.34,0,0,1-5.665,9.521,47.047,47.047,0,0,1-7.938,7.626,60.968,60.968,0,0,1-11.984,7.37c-.147.068-.547-.39-.368-.471a60.03,60.03,0,0,0,10.017-5.927A52.672,52.672,0,0,0,256.7,163,40.662,40.662,0,0,0,263,153.806a61.065,61.065,0,0,0,6.842-33.267,34.209,34.209,0,0,0-1.022-6.278c-.056-.2.413.138.458.295Z" transform="translate(-233.143 -101.693)" fill="#eab54e"/>
      <path id="Path_8339" data-name="Path 8339" d="M254.974,123.385c7.971,1.4,15.139-9.437,15.139-9.437s-8.053.066-11.326,3.526S254.974,123.385,254.974,123.385Z" transform="translate(-217.779 -101.929)" fill="#eab54e"/>
      <path id="Path_8340" data-name="Path 8340" d="M255.922,121.232c3.433-5.136-1.932-13.481-1.932-13.481s-2.43,5.644-1.024,9S255.922,121.232,255.922,121.232Z" transform="translate(-220.077 -107.751)" fill="#eab54e"/>
      <path id="Path_8341" data-name="Path 8341" d="M254.812,125.9c8.757.838,15.364-7.971,15.364-7.971s-6.808.1-9.963,1.938S254.812,125.9,254.812,125.9Z" transform="translate(-217.931 -98.185)" fill="#eab54e"/>
      <path id="Path_8342" data-name="Path 8342" d="M254.478,129.487c8.757.838,15.364-7.971,15.364-7.971s-6.807.1-9.963,1.938S254.478,129.487,254.478,129.487Z" transform="translate(-218.245 -94.819)" fill="#eab54e"/>
      <path id="Path_8343" data-name="Path 8343" d="M254.01,129.5c7.531,3.66,15.574-2.389,15.574-2.389s-6.043-2.149-9.294-1.468S254.01,129.5,254.01,129.5Z" transform="translate(-218.685 -91.065)" fill="#eab54e"/>
      <path id="Path_8344" data-name="Path 8344" d="M253.18,132.805c7.473,3.495,15.543-2.475,15.543-2.475s-6-2.038-9.247-1.342S253.18,132.805,253.18,132.805Z" transform="translate(-219.464 -87.936)" fill="#eab54e"/>
      <path id="Path_8345" data-name="Path 8345" d="M251.651,135.206c6.625,4.917,15.723.673,15.723.673s-5.475-3.192-8.794-3.159S251.651,135.206,251.651,135.206Z" transform="translate(-220.901 -84.294)" fill="#eab54e"/>
      <path id="Path_8346" data-name="Path 8346" d="M250.2,138.583c6.625,4.917,15.723.673,15.723.673s-5.473-3.194-8.793-3.159S250.2,138.583,250.2,138.583Z" transform="translate(-222.262 -81.121)" fill="#eab54e"/>
      <path id="Path_8347" data-name="Path 8347" d="M247.844,141.309c5.522,6.129,15.279,3.772,15.279,3.772s-4.734-4.214-7.994-4.837S247.844,141.309,247.844,141.309Z" transform="translate(-224.477 -77.355)" fill="#eab54e"/>
      <path id="Path_8348" data-name="Path 8348" d="M244.7,143.587c4.583,6.86,14.577,5.929,14.577,5.929s-4.079-4.851-7.215-5.935S244.7,143.587,244.7,143.587Z" transform="translate(-227.428 -74.542)" fill="#eab54e"/>
      <path id="Path_8349" data-name="Path 8349" d="M242.112,145.4c3.507,7.467,13.53,8.039,13.53,8.039s-3.313-5.407-6.249-6.945S242.112,145.4,242.112,145.4Z" transform="translate(-229.862 -72.442)" fill="#eab54e"/>
      <path id="Path_8350" data-name="Path 8350" d="M254.846,122.7c7.4-2.762,7.89-13.233,7.89-13.233s-4.643,3.19-6.33,6.487A15.254,15.254,0,0,0,254.846,122.7Z" transform="translate(-217.899 -106.135)" fill="#eab54e"/>
      <path id="Path_8351" data-name="Path 8351" d="M260.187,122.968c-.976-7.839-11.047-10.735-11.047-10.735s2.025,5.256,4.845,7.659A15.3,15.3,0,0,0,260.187,122.968Z" transform="translate(-223.26 -103.54)" fill="#eab54e"/>
      <path id="Path_8352" data-name="Path 8352" d="M260.817,127.79c-1.094-8.764-12.35-12-12.35-12s2.265,5.877,5.417,8.563A17.05,17.05,0,0,0,260.817,127.79Z" transform="translate(-223.892 -100.2)" fill="#eab54e"/>
      <path id="Path_8353" data-name="Path 8353" d="M260.409,131.273c-1.094-8.762-12.35-12-12.35-12s2.265,5.877,5.417,8.563A17.071,17.071,0,0,0,260.409,131.273Z" transform="translate(-224.275 -96.926)" fill="#eab54e"/>
      <path id="Path_8354" data-name="Path 8354" d="M259.509,135.406c-.857-8.79-12.027-12.327-12.027-12.327s2.108,5.937,5.188,8.7A17.091,17.091,0,0,0,259.509,135.406Z" transform="translate(-224.817 -93.351)" fill="#eab54e"/>
      <path id="Path_8355" data-name="Path 8355" d="M257.638,139.118c-.857-8.788-12.028-12.325-12.028-12.325s2.108,5.935,5.19,8.7A17.088,17.088,0,0,0,257.638,139.118Z" transform="translate(-226.576 -89.862)" fill="#eab54e"/>
      <path id="Path_8356" data-name="Path 8356" d="M255.772,142.246c-.857-8.788-12.027-12.325-12.027-12.325s2.108,5.935,5.188,8.7A17.076,17.076,0,0,0,255.772,142.246Z" transform="translate(-228.328 -86.923)" fill="#eab54e"/>
      <path id="Path_8357" data-name="Path 8357" d="M253.193,144.914c-.857-8.788-12.027-12.325-12.027-12.325s2.106,5.937,5.188,8.7A17.062,17.062,0,0,0,253.193,144.914Z" transform="translate(-230.751 -84.417)" fill="#eab54e"/>
      <path id="Path_8358" data-name="Path 8358" d="M250.388,147.243c-.857-8.788-12.027-12.325-12.027-12.325s2.106,5.937,5.188,8.7A17.064,17.064,0,0,0,250.388,147.243Z" transform="translate(-233.386 -82.229)" fill="#eab54e"/>
      <path id="Path_8359" data-name="Path 8359" d="M247.823,149.291c-.855-8.788-12.027-12.323-12.027-12.323s2.108,5.935,5.188,8.7A17.076,17.076,0,0,0,247.823,149.291Z" transform="translate(-235.796 -80.303)" fill="#eab54e"/>
    </g>
    <g id="Group_3979-2" data-name="Group 3979" transform="translate(44.456 178.619)">
      <path id="Path_8338-2" data-name="Path 8338" d="M53.416,114.558a31.854,31.854,0,0,0-.919,5.227,57.1,57.1,0,0,0,.13,13.309,62.476,62.476,0,0,0,5.44,18.729,46.427,46.427,0,0,0,5.665,9.521,47.123,47.123,0,0,0,7.938,7.626,60.969,60.969,0,0,0,11.984,7.37c.149.068.547-.39.368-.471A60.029,60.029,0,0,1,74,169.941,52.763,52.763,0,0,1,65.985,163a40.723,40.723,0,0,1-6.294-9.195,61.064,61.064,0,0,1-6.84-33.267,33.884,33.884,0,0,1,1.022-6.278c.054-.2-.415.138-.46.295Z" transform="translate(-37.21 -101.693)" fill="#eab54e"/>
      <path id="Path_8339-2" data-name="Path 8339" d="M59.6,123.385c-7.971,1.4-15.139-9.437-15.139-9.437s8.053.066,11.326,3.526S59.6,123.385,59.6,123.385Z" transform="translate(-44.456 -101.929)" fill="#eab54e"/>
      <path id="Path_8340-2" data-name="Path 8340" d="M53.514,121.232c-3.433-5.136,1.932-13.481,1.932-13.481s2.43,5.644,1.024,9S53.514,121.232,53.514,121.232Z" transform="translate(-37.025 -107.751)" fill="#eab54e"/>
      <path id="Path_8341-2" data-name="Path 8341" d="M59.866,125.9c-8.757.838-15.364-7.971-15.364-7.971s6.807.1,9.963,1.938S59.866,125.9,59.866,125.9Z" transform="translate(-44.413 -98.185)" fill="#eab54e"/>
      <path id="Path_8342-2" data-name="Path 8342" d="M60.2,129.487c-8.759.838-15.366-7.971-15.366-7.971s6.809.1,9.965,1.938S60.2,129.487,60.2,129.487Z" transform="translate(-44.099 -94.819)" fill="#eab54e"/>
      <path id="Path_8343-2" data-name="Path 8343" d="M60.769,129.5c-7.531,3.66-15.572-2.389-15.572-2.389s6.041-2.149,9.292-1.468S60.769,129.5,60.769,129.5Z" transform="translate(-43.76 -91.065)" fill="#eab54e"/>
      <path id="Path_8344-2" data-name="Path 8344" d="M61.585,132.805c-7.473,3.495-15.543-2.475-15.543-2.475s6-2.038,9.247-1.342S61.585,132.805,61.585,132.805Z" transform="translate(-42.966 -87.936)" fill="#eab54e"/>
      <path id="Path_8345-2" data-name="Path 8345" d="M63.2,135.206c-6.625,4.917-15.723.673-15.723.673s5.475-3.192,8.793-3.159S63.2,135.206,63.2,135.206Z" transform="translate(-41.617 -84.294)" fill="#eab54e"/>
      <path id="Path_8346-2" data-name="Path 8346" d="M64.65,138.583c-6.625,4.917-15.723.673-15.723.673s5.475-3.194,8.793-3.159S64.65,138.583,64.65,138.583Z" transform="translate(-40.256 -81.121)" fill="#eab54e"/>
      <path id="Path_8347-2" data-name="Path 8347" d="M66.793,141.309c-5.52,6.129-15.279,3.772-15.279,3.772s4.734-4.214,7.994-4.837S66.793,141.309,66.793,141.309Z" transform="translate(-37.825 -77.355)" fill="#eab54e"/>
      <path id="Path_8348-2" data-name="Path 8348" d="M69.594,143.587c-4.581,6.86-14.577,5.929-14.577,5.929s4.079-4.851,7.215-5.935S69.594,143.587,69.594,143.587Z" transform="translate(-34.534 -74.542)" fill="#eab54e"/>
      <path id="Path_8349-2" data-name="Path 8349" d="M71.68,145.4c-3.508,7.467-13.532,8.039-13.532,8.039s3.313-5.407,6.249-6.945S71.68,145.4,71.68,145.4Z" transform="translate(-31.593 -72.442)" fill="#eab54e"/>
      <path id="Path_8350-2" data-name="Path 8350" d="M56.212,122.7c-7.4-2.762-7.89-13.233-7.89-13.233s4.643,3.19,6.33,6.487A15.253,15.253,0,0,1,56.212,122.7Z" transform="translate(-40.824 -106.135)" fill="#eab54e"/>
      <path id="Path_8351-2" data-name="Path 8351" d="M52.4,122.968c.976-7.839,11.049-10.735,11.049-10.735s-2.027,5.256-4.847,7.659A15.285,15.285,0,0,1,52.4,122.968Z" transform="translate(-36.993 -103.54)" fill="#eab54e"/>
      <path id="Path_8352-2" data-name="Path 8352" d="M52.4,127.79c1.094-8.764,12.352-12,12.352-12s-2.267,5.877-5.419,8.563A17.05,17.05,0,0,1,52.4,127.79Z" transform="translate(-36.992 -100.2)" fill="#eab54e"/>
      <path id="Path_8353-2" data-name="Path 8353" d="M52.809,131.273c1.094-8.762,12.352-12,12.352-12s-2.265,5.877-5.419,8.563A17.071,17.071,0,0,1,52.809,131.273Z" transform="translate(-36.609 -96.926)" fill="#eab54e"/>
      <path id="Path_8354-2" data-name="Path 8354" d="M53.553,135.406c.857-8.79,12.029-12.327,12.029-12.327s-2.108,5.937-5.19,8.7A17.091,17.091,0,0,1,53.553,135.406Z" transform="translate(-35.91 -93.351)" fill="#eab54e"/>
      <path id="Path_8355-2" data-name="Path 8355" d="M55.425,139.118c.855-8.788,12.027-12.325,12.027-12.325s-2.108,5.935-5.19,8.7A17.094,17.094,0,0,1,55.425,139.118Z" transform="translate(-34.151 -89.862)" fill="#eab54e"/>
      <path id="Path_8356-2" data-name="Path 8356" d="M57.29,142.246c.857-8.788,12.027-12.325,12.027-12.325s-2.108,5.935-5.188,8.7A17.076,17.076,0,0,1,57.29,142.246Z" transform="translate(-32.399 -86.923)" fill="#eab54e"/>
      <path id="Path_8357-2" data-name="Path 8357" d="M59.869,144.914c.857-8.788,12.027-12.325,12.027-12.325s-2.106,5.937-5.188,8.7A17.063,17.063,0,0,1,59.869,144.914Z" transform="translate(-29.976 -84.417)" fill="#eab54e"/>
      <path id="Path_8358-2" data-name="Path 8358" d="M62.674,147.243c.857-8.788,12.029-12.325,12.029-12.325s-2.108,5.937-5.19,8.7A17.064,17.064,0,0,1,62.674,147.243Z" transform="translate(-27.341 -82.229)" fill="#eab54e"/>
      <path id="Path_8359-2" data-name="Path 8359" d="M65.239,149.291c.857-8.788,12.027-12.323,12.027-12.323s-2.108,5.935-5.188,8.7A17.076,17.076,0,0,1,65.239,149.291Z" transform="translate(-24.931 -80.303)" fill="#eab54e"/>
    </g>
    <g id="Group_5731" data-name="Group 5731" transform="translate(394.305 218.07)">
      <g id="Group_5730" data-name="Group 5730" transform="translate(4.139)">
        <path id="Path_15141" data-name="Path 15141" d="M246.274,128.092h-1.961a1.849,1.849,0,0,0-1.685,1.305L226.975,172.37h36.638L247.96,129.4A1.849,1.849,0,0,0,246.274,128.092Z" transform="translate(-226.975 -128.092)" fill="#e0583d"/>
        <g id="Group_5729" data-name="Group 5729">
          <g id="Group_5728" data-name="Group 5728" clip-path="url(#clip-path-3)">
            <rect id="Rectangle_1626" data-name="Rectangle 1626" width="33.476" height="8.875" transform="translate(1.287 10.75)" fill="#fff"/>
            <rect id="Rectangle_1627" data-name="Rectangle 1627" width="33.476" height="8.875" transform="translate(1.287 28.105)" fill="#fff"/>
          </g>
        </g>
      </g>
      <rect id="Rectangle_1628" data-name="Rectangle 1628" width="44.916" height="4.142" rx="1.068" transform="translate(0 43.785)" fill="#dc442b"/>
    </g>
    <g id="Group_5736" data-name="Group 5736" transform="translate(118.465 76.311)">
      <g id="Group_5732" data-name="Group 5732" transform="translate(0.2)">
        <rect id="Rectangle_1629" data-name="Rectangle 1629" width="146.637" height="93.714" rx="2.461" transform="translate(0 1.674)" fill="#c8c8c7"/>
        <rect id="Rectangle_1630" data-name="Rectangle 1630" width="146.637" height="93.714" rx="2.461" fill="#fff"/>
      </g>
      <g id="Group_5733" data-name="Group 5733" transform="translate(6.707 6.734)">
        <path id="Path_15143" data-name="Path 15143" d="M94.065,62.467a4,4,0,1,1-4-4A4,4,0,0,1,94.065,62.467Z" transform="translate(-86.074 -58.472)" fill="#c8c8c7" opacity="0.5"/>
        <path id="Path_15144" data-name="Path 15144" d="M100.351,62.467a4,4,0,1,1-4-4A4,4,0,0,1,100.351,62.467Z" transform="translate(-80.169 -58.472)" fill="#c8c8c7" opacity="0.5"/>
        <path id="Path_15145" data-name="Path 15145" d="M106.743,62.467a4,4,0,1,1-4-4A3.994,3.994,0,0,1,106.743,62.467Z" transform="translate(-74.164 -58.472)" fill="#c8c8c7" opacity="0.5"/>
      </g>
      <g id="Group_5734" data-name="Group 5734" transform="translate(0 24.409)">
        <circle id="Ellipse_196" data-name="Ellipse 196" cx="22.178" cy="22.178" r="22.178" transform="translate(0 31.365) rotate(-45)" fill="#df573d"/>
        <path id="Path_15146" data-name="Path 15146" d="M113.338,87.846,97.218,78.538a1.649,1.649,0,0,0-2.475,1.427V98.583a1.65,1.65,0,0,0,2.475,1.427L113.338,90.7A1.649,1.649,0,0,0,113.338,87.846Z" transform="translate(-71.223 -57.506)" fill="#fff"/>
      </g>
      <g id="Group_5735" data-name="Group 5735" transform="translate(64.013 40.574)" opacity="0.5">
        <rect id="Rectangle_1631" data-name="Rectangle 1631" width="76.316" height="4.684" fill="#c8c8c7"/>
        <rect id="Rectangle_1632" data-name="Rectangle 1632" width="76.316" height="4.684" transform="translate(0 13.261)" fill="#c8c8c7"/>
        <rect id="Rectangle_1633" data-name="Rectangle 1633" width="76.316" height="4.684" transform="translate(0 26.523)" fill="#c8c8c7"/>
      </g>
    </g>
    <g id="Group_5740" data-name="Group 5740" transform="translate(78.482 132.791)">
      <g id="Group_5739" data-name="Group 5739">
        <rect id="Rectangle_1634" data-name="Rectangle 1634" width="343.284" height="44.371" fill="#eab54e"/>
        <g id="Group_5738" data-name="Group 5738" transform="translate(0)">
          <path id="Path_15147" data-name="Path 15147" d="M96.245,84.122,62,118.367v10.126H77l44.371-44.371Z" transform="translate(-62 -84.122)" fill="none"/>
          <path id="Path_15148" data-name="Path 15148" d="M128.7,84.122,84.326,128.493h25.13l44.371-44.371Z" transform="translate(-41.026 -84.122)" fill="none"/>
          <path id="Path_15149" data-name="Path 15149" d="M211.338,84.122l-44.371,44.371H192.1l44.372-44.371Z" transform="translate(36.611 -84.122)" fill="none"/>
          <path id="Path_15150" data-name="Path 15150" d="M238.885,84.122l-44.371,44.371h25.13l44.371-44.371Z" transform="translate(62.49 -84.122)" fill="none"/>
          <path id="Path_15151" data-name="Path 15151" d="M183.791,84.122,139.42,128.493h25.13l44.371-44.371Z" transform="translate(10.732 -84.122)" fill="none"/>
          <path id="Path_15152" data-name="Path 15152" d="M254.914,90.06,222.06,122.914h25.13l7.724-7.724Z" transform="translate(88.369 -78.543)" fill="none"/>
          <path id="Path_15153" data-name="Path 15153" d="M156.244,84.122l-44.371,44.371H137l44.372-44.371Z" transform="translate(-15.147 -84.122)" fill="none"/>
          <g id="Group_5737" data-name="Group 5737">
            <path id="Path_15154" data-name="Path 15154" d="M96.245,84.122H62v34.245Z" transform="translate(-62 -84.122)" fill="#1d1c1c"/>
          </g>
          <path id="Path_15155" data-name="Path 15155" d="M114.108,84.122,69.736,128.493h28.3L142.4,84.122Z" transform="translate(-54.732 -84.122)" fill="#1d1c1c"/>
          <path id="Path_15156" data-name="Path 15156" d="M141.654,84.122,97.283,128.493h28.3L169.95,84.122Z" transform="translate(-28.853 -84.122)" fill="#1d1c1c"/>
          <path id="Path_15157" data-name="Path 15157" d="M169.2,84.122,124.83,128.493h28.3L197.5,84.122Z" transform="translate(-2.974 -84.122)" fill="#1d1c1c"/>
          <path id="Path_15158" data-name="Path 15158" d="M196.748,84.122l-44.371,44.371h28.3l44.371-44.371Z" transform="translate(22.905 -84.122)" fill="#1d1c1c"/>
          <path id="Path_15159" data-name="Path 15159" d="M224.3,84.122l-44.372,44.371h28.3l44.371-44.371Z" transform="translate(48.784 -84.122)" fill="#1d1c1c"/>
          <path id="Path_15160" data-name="Path 15160" d="M268.62,84.122H251.842l-44.371,44.371h28.3L268.62,95.639Z" transform="translate(74.663 -84.122)" fill="#1d1c1c"/>
        </g>
      </g>
    </g>
    <g id="Group_5753" data-name="Group 5753" transform="translate(347.073 120.766)">
      <g id="Group_5752" data-name="Group 5752">
        <path id="Path_15161" data-name="Path 15161" d="M200.529,79.864c.052-.462.646-.233.8.149a2.935,2.935,0,0,1,.081.33c-.049-.76-.08-1.381-.062-1.534.05-.436.6-.27.785.076-.01-.306-.012-.537,0-.636.054-.562.652-.324.8.142a6.766,6.766,0,0,1,.13.778,3.264,3.264,0,0,1,0-.425c.052-.462.584-.339.733.043a5.547,5.547,0,0,1,.153.9c.068.465.2.964.256,1.429.052.425.549,2.42,1.538,2.634,1.519.324.557-2.316,1.627-2.909.336-.186.692,1.862.718,3.02a12.876,12.876,0,0,1-.078,2.42,16.06,16.06,0,0,0-.419,2.06,8.557,8.557,0,0,0,.861,2.031l-3.834.873a15.454,15.454,0,0,0-1.369-2.6,8.771,8.771,0,0,1-2.322-4.106,16.91,16.91,0,0,1-.436-3.105S200.511,80.015,200.529,79.864Z" transform="translate(-200.488 -77.921)" fill="#ffc8a4"/>
        <path id="Path_15162" data-name="Path 15162" d="M234.966,106.981s-12.158-.107-18.76-7.506c-5.268-7.38-10.355-15.543-10.735-16.3-1.036.4-3.264,1.416-3.264,1.416s6.959,15.568,9.668,19.123,8.043,9.379,19.311,12.271C236.584,109.785,234.966,106.981,234.966,106.981Z" transform="translate(-198.873 -72.986)" fill="#ffc8a4"/>
        <g id="Group_5746" data-name="Group 5746" transform="translate(18.258 77.811)">
          <g id="Group_5741" data-name="Group 5741" transform="translate(0 99.325)">
            <path id="Path_15163" data-name="Path 15163" d="M215.334,171.269a8,8,0,0,0-.663,2.667c.035,1.073,3.433,1.292,3.852.754s.818-5.436.818-5.436" transform="translate(-205.423 -169.254)" fill="#ffd9ae"/>
            <path id="Path_15164" data-name="Path 15164" d="M223.862,173.878a22.806,22.806,0,0,1-.431,2.915l-3.922-.161-.165-.661a6.188,6.188,0,0,1-2.3.56l-3.309-.136c-2.422-.1-3.784-.465-3.828-.894-.182-1.792,2.707-1.592,3.462-1.561,2.163.089,4.548-.828,5.1-1.9.4-.782.248-.991.69-.822a1.118,1.118,0,0,1,.648.607,1.988,1.988,0,0,0,2,1.2,2.365,2.365,0,0,0,1.352-.586A1.433,1.433,0,0,1,223.862,173.878Z" transform="translate(-209.902 -167.464)" fill="#003c7f"/>
          </g>
          <g id="Group_5742" data-name="Group 5742" transform="translate(41.781 97.017)">
            <path id="Path_15165" data-name="Path 15165" d="M234.757,170.259a31.85,31.85,0,0,0,1.038,3.883c.429.981,3.667-.074,3.858-.727s-1.253-5.351-1.253-5.351" transform="translate(-228.332 -168.064)" fill="#ffd9ae"/>
            <path id="Path_15166" data-name="Path 15166" d="M243.926,171.652c.369,1.051.9,3.08.9,3.08l-3.045,1.65-.564-.464a5.825,5.825,0,0,1-1.631,1.569,12.769,12.769,0,0,1-2.993,1.1c-2.74.508-4.825.122-5.023-.26-.834-1.6,2.8-2.306,3.51-2.556a4.86,4.86,0,0,0,3.161-3.836c.085-.875-.138-1.01.336-1.018a1.118,1.118,0,0,1,.826.324,1.989,1.989,0,0,0,2.3.374,2.361,2.361,0,0,0,1.04-1.043A1.434,1.434,0,0,1,243.926,171.652Z" transform="translate(-231.444 -165.71)" fill="#003c7f"/>
          </g>
          <g id="Group_5745" data-name="Group 5745" transform="translate(8.598)">
            <path id="Path_15167" data-name="Path 15167" d="M242.124,140.223s5.851-12.537-3.059-22.182c0,0-8.076,3.223-14.441,3.39a31.411,31.411,0,0,1-7.531-.491,162.166,162.166,0,0,0-1.49,23.82Z" transform="translate(-213.143 -118.041)" fill="#003c7f"/>
            <path id="Path_15168" data-name="Path 15168" d="M219.981,196.585c-.161,0-.322,0-.471-.01a26.9,26.9,0,0,1-5.174-.568l.039-.952c.785-14.6,0-38.537-.033-46.093a8.29,8.29,0,0,1,.1-1.445c.8-5.5,6.478-4.54,8.667.632a20.351,20.351,0,0,1,1.195,3.958,35.717,35.717,0,0,1,.657,5.549C225.559,170.307,221.344,187.21,219.981,196.585Z" transform="translate(-214.335 -93.833)" fill="#003c7f"/>
            <path id="Path_15169" data-name="Path 15169" d="M232.936,139.842c-.029.147-.072.306-.112.465-1.536,6.6-6.375,24.394-8.567,30.145v.012a3.507,3.507,0,0,1-2.589,1.734c-2.9.663-7.141-.582-7.273-6.325a13.872,13.872,0,0,1,.109-2.065c.57-4.635,2.649-30.287,2.958-32.757s.894-6.069,2.223-6.474C226.308,122.583,235.028,130.612,232.936,139.842Z" transform="translate(-214.284 -112.189)" fill="#003c7f"/>
            <path id="Path_15170" data-name="Path 15170" d="M221.711,145.806a32.043,32.043,0,0,0-.836,9.975c.493,4.965-2.186-4.441-2.186-4.441l1.763-3.282Z" transform="translate(-210.245 -91.957)" fill="#453a4e"/>
            <path id="Path_15171" data-name="Path 15171" d="M217,214.517s1.429-14.878,3.186-25.157a41.015,41.015,0,0,0-.977-17.577c-.231-.815-.4-1.259-.4-1.259l1.792-4.434c2.033-5.781,2.642-19.441,2.642-19.441-3.966-9.8-4.077-21.937-4.077-21.937l3.71.671,6.352,8.287,1.135,6.222c-1.245,5.345-4.659,18.047-7.073,25.733v0a32.035,32.035,0,0,0-.836,9.973,5.177,5.177,0,0,1,.031,1.317c.266,12.488-3.7,28.558-5.015,37.614C217.313,214.53,217.152,214.524,217,214.517Z" transform="translate(-211.828 -111.774)" fill="#00335f"/>
            <path id="Path_15172" data-name="Path 15172" d="M234.21,147.476c-4.251-4.342-10.485-2.626-7.876,3.949,2.789,7.029,11.5,26.586,16.088,40.459l.318.9a28.065,28.065,0,0,0,5.463-1.524c-2.085-8.968-3.239-24.325-7.894-35.184A28.846,28.846,0,0,0,234.21,147.476Z" transform="translate(-203.643 -92.636)" fill="#003c7f"/>
            <g id="Group_5744" data-name="Group 5744" transform="translate(7.326 7.669)">
              <g id="Group_5743" data-name="Group 5743">
                <path id="Path_15173" data-name="Path 15173" d="M218.123,127.268c-.434-10.306,12.085-2.958,18.085.687,2.525,1.532,3.353,4.428,3.588,7.129s2.417,30.515,2.874,35.593c1.034,11.445-8.654,4.812-9.463,1.617C231.164,164.234,218.362,132.883,218.123,127.268Z" transform="translate(-218.112 -121.995)" fill="#003c7f"/>
              </g>
            </g>
            <path id="Path_15174" data-name="Path 15174" d="M232.646,143.439s.18,5.465,4.48,12.37c0,0-7.345-3.766-7.688-4.288a28.194,28.194,0,0,1-1.265-6.408C228.342,144.56,232.646,143.439,232.646,143.439Z" transform="translate(-201.351 -94.181)" fill="#003c7f"/>
          </g>
        </g>
        <g id="Group_5748" data-name="Group 5748" transform="translate(33.731 8.393)">
          <g id="Group_5747" data-name="Group 5747">
            <path id="Path_15175" data-name="Path 15175" d="M219.23,98.293c-.025.776-.056,3.809,1.555,4.534s2.647,1.043,2.6,1.294c-.019.112-.178.646-.349,1.17a2.426,2.426,0,0,1-.933,1.462l-.233,3.883,2.9,2.888.946.943,1.422-1.3,4.633-4.222a4.729,4.729,0,0,1-.59-4.874c.188-.355,2.3-2.694,3.984-5.05a12.573,12.573,0,0,0,2.034-3.751c.605-2.7,1.113-5.533-.434-7.226s-12.147-8.656-14.271-.487c0,0-2.434,4.484-3.227,5.19a1.232,1.232,0,0,0,.114,2.083C220.08,95.229,219.258,97.517,219.23,98.293Z" transform="translate(-217.064 -80.92)" fill="#ffc8a4"/>
            <path id="Path_15176" data-name="Path 15176" d="M220.359,104.426l2.9,2.888.882.427,1.486-.785,4.633-4.222a4.729,4.729,0,0,1-.59-4.874c.188-.355,2.3-2.694,3.984-5.05l.2-1.623s-3.291-.908-3.427-.913a11.588,11.588,0,0,0-1.629,1.757c-.017.1.246,2.013.246,2.013s-.432,2.5-.954,4.395a2.659,2.659,0,0,1-2.38,1.821,8.758,8.758,0,0,1-2.011-.058,3.8,3.8,0,0,1-2.166-1.119,2.426,2.426,0,0,1-.933,1.462Z" transform="translate(-215.551 -74.711)" fill="#ffc8a4"/>
            <path id="Path_15177" data-name="Path 15177" d="M232.6,97.265s.252,5.529-3.656,7.808-9.278-.246-9.946-1.014-2.4-5.634.535-7.25,5.735,1.166,5.735,1.166,1.631,1.837,2.292,1.848c.642.014,2.49-1.639,2.752-5.1a.413.413,0,0,0-.32-.417c-.747-.221-2.391-1.094-1.553-4.434a.5.5,0,0,0-.448-.6,37.311,37.311,0,0,0-3.813-.39,4.8,4.8,0,0,0-.727.06.384.384,0,0,0-.277.184c-.173.31-.568,1.016-.663,1.183-.124.217-1.049,1.784-1.049,1.784a1.12,1.12,0,0,1-.386-1.016,15.988,15.988,0,0,0,.617-2.188c-.064-.32-.97-.694-.976-1.412-.016-1.623.619-7.835,5.545-4.017a8.557,8.557,0,0,0,1.786,1.311c.745.273,1.588-.254,3.21-.14,2.265.159,12,2.436,8.885,11.1s-8.247,9.9-8.247,9.9S233.576,98.366,232.6,97.265Z" transform="translate(-217.88 -82.248)" fill="#003c7f"/>
          </g>
          <path id="Path_15178" data-name="Path 15178" d="M225.659,90.542s.483-1.49,1.728-1.059c1.672.576,1.521,4.773-2.12,4.22A11.1,11.1,0,0,0,225.659,90.542Z" transform="translate(-210.941 -75.525)" fill="#ffc8a4"/>
        </g>
        <path id="Path_15179" data-name="Path 15179" d="M214.77,144.895a77.766,77.766,0,0,0,29.726.163,189.247,189.247,0,0,1-1.4-19.051l-.023-.6c-.132-3.724-.2-6.383-.283-6.491-.165-.229.423-12.112-.553-16.77a3.224,3.224,0,0,0-.716-1.713,35.338,35.338,0,0,0-6.757-4.56s-5.923,6.371-8.945-.679c-3.324-.3-5.017.37-5.979,3.7C214.514,117.386,214.77,144.895,214.77,144.895Z" transform="translate(-187.073 -61.751)" fill="#4c9ad5"/>
        <path id="Path_15180" data-name="Path 15180" d="M227.01,96.351a29.406,29.406,0,0,1-11.125-2.4c-3.134,3.687-5.029,10.4-5.029,10.4s7.577,4.818,13.118,5.281A77.433,77.433,0,0,1,227.01,96.351Z" transform="translate(-190.748 -62.859)" fill="#4c9ad5"/>
        <path id="Path_15181" data-name="Path 15181" d="M225.943,95.787a26.623,26.623,0,0,0-4.536,11.664,33.779,33.779,0,0,1-10.551-4.816c1.682.545,8.859,3.214,9.843,1A34.191,34.191,0,0,1,225.943,95.787Z" transform="translate(-190.748 -61.137)" fill="#3f4b9a" opacity="0.5"/>
        <g id="Group_5749" data-name="Group 5749" transform="translate(11.677 38.775)">
          <path id="Path_15182" data-name="Path 15182" d="M231.079,97.924,206.9,100.437l4.412,9.732,20.894-9.693a1.017,1.017,0,0,0,.6-1.4l-.266-.5A1.471,1.471,0,0,0,231.079,97.924Z" transform="translate(-206.145 -97.914)" fill="#ff9e14"/>
          <path id="Path_15183" data-name="Path 15183" d="M231.079,97.924,206.9,100.437l4.412,9.732,20.894-9.693a1.017,1.017,0,0,0,.6-1.4l-.266-.5A1.471,1.471,0,0,0,231.079,97.924Z" transform="translate(-206.145 -97.914)" fill="#1c3742"/>
          <path id="Path_15184" data-name="Path 15184" d="M207.626,104.658c1.29,2.663,3.173,4.558,4.209,4.236s.832-2.744-.458-5.407-3.173-4.558-4.209-4.234S206.339,102,207.626,104.658Z" transform="translate(-206.509 -96.691)" fill="#ff9e14"/>
          <path id="Path_15185" data-name="Path 15185" d="M207.626,104.658c1.29,2.663,3.173,4.558,4.209,4.236s.832-2.744-.458-5.407-3.173-4.558-4.209-4.234S206.339,102,207.626,104.658Z" transform="translate(-206.509 -96.691)" fill="#ff9e14" opacity="0.5"/>
          <path id="Path_15186" data-name="Path 15186" d="M207.626,104.658c1.29,2.663,3.173,4.558,4.209,4.236s.832-2.744-.458-5.407-3.173-4.558-4.209-4.234S206.339,102,207.626,104.658Z" transform="translate(-206.509 -96.691)" fill="#132328"/>
        </g>
        <g id="Group_5750" data-name="Group 5750" transform="translate(26.015 37.626)">
          <path id="Path_15187" data-name="Path 15187" d="M242.823,112.346s-2.548,8.794-9.177,12.934a4.626,4.626,0,0,1-5.871-1.166c-4.538-5.074-9.075-16.507-10.525-20.822,2.661-1.414,3.51-1.193,3.51-1.193s6.435,8.933,10.128,14.912l2.758-4.81" transform="translate(-210.757 -92.844)" fill="#ffc8a4"/>
          <path id="Path_15188" data-name="Path 15188" d="M224.094,106.911a8.843,8.843,0,0,1-1.239-3.361c-.056-1.449.63-3.953-.776-5.256a6.011,6.011,0,0,0-4.42-.886c-3.07.508-3.9,1.414-3.737,2.062s2.292.875,2.849,1.976.246,1.792.386,3c.209,1.817,2.742,2.587,3.293,3.493C220.841,108.583,224.094,106.911,224.094,106.911Z" transform="translate(-213.902 -97.321)" fill="#f99c70"/>
        </g>
        <path id="Path_15189" data-name="Path 15189" d="M241.855,137.834c-.766-2.645-1.133-11.957-1.214-14.269a12.2,12.2,0,0,1-8.409-5.481c.865-1.484,3.022-6.621,7.019-10.987l2.308-8.652s.266.2.673.592c.976,4.659.388,16.542.553,16.77.083.109.151,2.768.283,6.491l.023.6h0a191.014,191.014,0,0,0,1.406,19.051,77.766,77.766,0,0,1-29.726-.163C231.289,143.2,242.711,140.846,241.855,137.834Z" transform="translate(-187.072 -58.639)" fill="#3f4b9a" opacity="0.5"/>
        <g id="Group_5751" data-name="Group 5751" transform="translate(46.076 37.47)">
          <path id="Path_15190" data-name="Path 15190" d="M231.1,97.241s6.831,4.474,7.122,12.093c.227,5.888-3.668,14.482-3.668,14.482s-6.757.747-10.3-4.777a42.092,42.092,0,0,1,3.988-8.233" transform="translate(-224.245 -97.241)" fill="#4c9ad5"/>
        </g>
      </g>
      <path id="Path_15191" data-name="Path 15191" d="M219.721,87.048c-.037.18-.025.357-.052.535,6.567,2.861,15.2,5.407,21.669,8.607a17.557,17.557,0,0,0,1.569-4.674c1.237-6.109-3.776-12.052-9.885-13.289a11.284,11.284,0,0,0-13.3,8.821" transform="translate(-182.468 -77.847)" fill="#ffc617"/>
      <path id="Path_15192" data-name="Path 15192" d="M221.216,82.109a6.909,6.909,0,0,0-3.6,1.418l25.413,9.546.607-1.552Z" transform="translate(-184.393 -73.987)" fill="#ffc617"/>
    </g>
    <path id="Path_15193" data-name="Path 15193" d="M223.774,76.108l3.673-2.737a22.8,22.8,0,0,0-7.013-7.011L217.7,70.034a18,18,0,0,0-5.114-2.12l.665-4.536a22.219,22.219,0,0,0-9.918,0L204,67.914a18.006,18.006,0,0,0-5.112,2.12l-2.737-3.673a22.815,22.815,0,0,0-7.011,7.011l3.673,2.737a18,18,0,0,0-2.12,5.112l-4.538-.663a22.294,22.294,0,0,0,0,9.918l4.538-.665a17.993,17.993,0,0,0,2.12,5.114l-3.673,2.737a22.815,22.815,0,0,0,7.011,7.011L198.883,101a18.062,18.062,0,0,0,5.112,2.12l-.663,4.536a22.219,22.219,0,0,0,9.918,0l-.665-4.536A18.051,18.051,0,0,0,217.7,101l2.735,3.673a22.8,22.8,0,0,0,7.013-7.011l-3.673-2.737a18.05,18.05,0,0,0,2.12-5.114l4.536.665a22.219,22.219,0,0,0,0-9.918l-4.536.663A18.062,18.062,0,0,0,223.774,76.108ZM208.291,97.564a12.048,12.048,0,1,1,12.048-12.048A12.047,12.047,0,0,1,208.291,97.564Z" transform="translate(132.591 28.655)" fill="#f28f48"/>
    <path id="Path_15194" data-name="Path 15194" d="M100.056,52.212l2.547-1.9a15.785,15.785,0,0,0-4.86-4.858L95.847,48A12.529,12.529,0,0,0,92.3,46.534l.462-3.146a15.427,15.427,0,0,0-6.875,0l.46,3.146A12.493,12.493,0,0,0,82.8,48l-1.9-2.545a15.786,15.786,0,0,0-4.86,4.858l2.547,1.9a12.509,12.509,0,0,0-1.47,3.545L73.98,55.3a15.428,15.428,0,0,0,0,6.875l3.144-.462a12.509,12.509,0,0,0,1.47,3.545l-2.547,1.9a15.785,15.785,0,0,0,4.86,4.858l1.9-2.545a12.493,12.493,0,0,0,3.543,1.468l-.46,3.146a15.428,15.428,0,0,0,6.875,0L92.3,70.934a12.529,12.529,0,0,0,3.545-1.468l1.895,2.545a15.785,15.785,0,0,0,4.86-4.858l-2.547-1.9a12.453,12.453,0,0,0,1.47-3.545l3.146.462a15.427,15.427,0,0,0,0-6.875l-3.146.462A12.453,12.453,0,0,0,100.056,52.212ZM89.325,67.084a8.35,8.35,0,1,1,8.351-8.349A8.35,8.35,0,0,1,89.325,67.084Z" transform="translate(27.372 10.038)" fill="#f28f48"/>
  </g>
</svg>
