<svg xmlns="http://www.w3.org/2000/svg" xmlns:xlink="http://www.w3.org/1999/xlink" width="115" height="117" viewBox="0 0 115 117">
  <defs>
    <clipPath id="clip-path">
      <rect id="Rectangle_1742" data-name="Rectangle 1742" width="115" height="117" transform="translate(0 0.162)" fill="#ff4e00"/>
    </clipPath>
  </defs>
  <g id="Group_6190" data-name="Group 6190" transform="translate(-437.01 -326.787)">
    <g id="Group_6189" data-name="Group 6189" transform="translate(437.011 326.625)">
      <g id="Group_6188" data-name="Group 6188" transform="translate(0 0)" clip-path="url(#clip-path)">
        <path id="Path_15865" data-name="Path 15865" d="M167.043,190.8a8.329,8.329,0,0,0-5.157-3.549,8.373,8.373,0,0,0-5.585-12.071,8.384,8.384,0,0,0-5.589-12.08,8.383,8.383,0,0,0-12.051-10.888l-8.346,5.527a52.146,52.146,0,0,0-14.091-4.768,38.725,38.725,0,0,0-5.377-6.506l-3.452-3.347a7.555,7.555,0,0,0-11.558,9.6c.091.138.179.276.268.414a52.584,52.584,0,1,0,59.937,69.4,1.807,1.807,0,1,0-3.4-1.228,49.035,49.035,0,0,1-61.532,29.843l14.706-9.739,0,0,0,0,12.222-8.094h0a4.929,4.929,0,0,0,1.389-6.832l-.161-.245,2.375-1.572a8.045,8.045,0,0,1,5.737-1.24,11.658,11.658,0,0,0,8.306-1.8L155.38,208.58a49.018,49.018,0,0,1-.666,5.077,1.806,1.806,0,0,0,1.448,2.107,1.764,1.764,0,0,0,.331.031,1.808,1.808,0,0,0,1.775-1.478,52.869,52.869,0,0,0,.864-8.221l5.549-3.676a8.385,8.385,0,0,0,2.361-11.62Zm-40.238-30.737-5.523,3.658-1.087-2.93a38.777,38.777,0,0,0-1.552-3.593,48.575,48.575,0,0,1,8.161,2.865ZM69.567,172.595a48.975,48.975,0,0,1,28.266-16.116A22.329,22.329,0,0,1,98.959,170l-4.407,19.039a4.919,4.919,0,0,0-6.309-.735l-12.483,8.266h0l-18,11.922c-.1-1.27-.15-2.55-.15-3.828a48.956,48.956,0,0,1,11.964-32.075Zm47.043,56.862a1.308,1.308,0,0,1-.564.835h0L105.311,237.4,85.386,207.687a1.807,1.807,0,0,0-3,2.014L102.3,239.4,86.972,249.547a49.117,49.117,0,0,1-28.746-37.095l18.025-11.9,2.075,3.1a1.807,1.807,0,0,0,1.5.8,1.787,1.787,0,0,0,1-.306,1.806,1.806,0,0,0,.5-2.508l-2.06-3.074,10.971-7.242a1.317,1.317,0,0,1,1.822.371l24.356,36.778a1.306,1.306,0,0,1,.192.986Zm48.116-33.077a4.737,4.737,0,0,1-2.041,3.027l-6.344,4.2-.006,0-22.643,15a8.042,8.042,0,0,1-5.737,1.24,11.664,11.664,0,0,0-8.306,1.8l-2.374,1.573L97.325,193.094l5.157-22.275a25.972,25.972,0,0,0-1.9-17.048c-.023-.055-.048-.108-.076-.161a25.643,25.643,0,0,0-1.654-2.892,3.94,3.94,0,0,1,6.027-5l3.453,3.347a35.31,35.31,0,0,1,8.475,12.989l1.88,5.065.011.026.014.036c.013.031.026.06.039.084a1.772,1.772,0,0,0,.124.224,1.807,1.807,0,0,0,2.5.509l19.279-12.766a4.769,4.769,0,1,1,5.266,7.952l-1.673,1.109h0l-3.733,2.472a.105.105,0,0,1-.014.01c-.021.015-.042.029-.058.044a1.807,1.807,0,0,0,2.07,2.961l3.735-2.475a4.77,4.77,0,0,1,5.264,7.955l-5.408,3.582a1.807,1.807,0,1,0,2,3.013l.837-.554,2.9-1.918a4.769,4.769,0,1,1,5.266,7.952l-2.7,1.789-.042.028-2.665,1.764a1.808,1.808,0,1,0,2,3.014l.837-.553h0l2.9-1.918a4.768,4.768,0,0,1,7.306,4.925Zm0,0" transform="translate(-53.705 -140.463)" fill="#ff4e00"/>
      </g>
    </g>
  </g>
</svg>
