<svg xmlns="http://www.w3.org/2000/svg" xmlns:xlink="http://www.w3.org/1999/xlink" width="105" height="105" viewBox="0 0 105 105">
  <defs>
    <clipPath id="clip-path">
      <rect id="Rectangle_1739" data-name="Rectangle 1739" width="105" height="105" transform="translate(0.1 0.1)" fill="#ff4e00"/>
    </clipPath>
  </defs>
  <g id="Group_6184" data-name="Group 6184" transform="translate(-64.763 -154.718)">
    <g id="Group_6181" data-name="Group 6181" transform="translate(64.663 154.618)">
      <g id="Group_6180" data-name="Group 6180" transform="translate(0 0)" clip-path="url(#clip-path)">
        <path id="Path_15836" data-name="Path 15836" d="M106.265,273.123a5.163,5.163,0,0,0-8.095,6.287l-4.431,9.367-4.828,10.192L76,326.207l-3.034,6.4v.014l-7.279,15.364a1.724,1.724,0,0,0,2.3,2.3L103.627,333.4l11.659-5.518.019-.014,7.3-3.461,2.656-1.258,11.291-5.346a5.165,5.165,0,0,0,6.286-8.095Zm-6.517,18.291a6.9,6.9,0,0,1-6.714,6.9L98.3,287.19a6.845,6.845,0,0,1,1.445,4.224ZM82.64,320.26q.236.2.457.418a6.9,6.9,0,0,1-6.179,11.651l1.716-3.621ZM75.416,335.5A10.339,10.339,0,0,0,85.537,318.24a10.587,10.587,0,0,0-1.394-1.165l7.3-15.41a10.344,10.344,0,0,0,8.722-17.562c-.089-.088-.188-.172-.281-.258l.792-1.672L133.8,315.29l-1.947.921a6.881,6.881,0,0,0-12.42,5.885l-4.164,1.973a12.05,12.05,0,0,0-21.64,10.252L70.869,345.1Zm47.121-14.87a3.449,3.449,0,0,1,5.691-3.609,3.485,3.485,0,0,1,.517.668l-2.8,1.329Zm-23.97,11.349-1.808.862a8.622,8.622,0,0,1,15.388-7.29Zm41.841-17.4a1.763,1.763,0,0,1-2.437,0L101.389,278a1.725,1.725,0,0,1,2.438-2.44l36.58,36.583a1.725,1.725,0,0,1,0,2.437Zm0,0" transform="translate(-65.117 -246.179)" fill="#ff4e00"/>
      </g>
    </g>
    <path id="Path_15837" data-name="Path 15837" d="M257.52,413.066a6.9,6.9,0,1,0-4.876-2.02,6.9,6.9,0,0,0,4.876,2.02Zm-2.44-9.338a3.449,3.449,0,1,1,4.876,4.877,3.532,3.532,0,0,1-4.876,0,3.448,3.448,0,0,1,0-4.877Zm0,0" transform="translate(-145.612 -191.681)" fill="#ff4e00"/>
    <g id="Group_6183" data-name="Group 6183" transform="translate(64.663 154.618)">
      <g id="Group_6182" data-name="Group 6182" transform="translate(0 0)" clip-path="url(#clip-path)">
        <path id="Path_15838" data-name="Path 15838" d="M182.676,444.346a5.173,5.173,0,1,0-3.658,1.514,5.175,5.175,0,0,0,3.658-1.514Zm-5.382-3.66a1.725,1.725,0,1,1,.506,1.22,1.709,1.709,0,0,1-.506-1.22Zm0,0" transform="translate(-150.065 -374.722)" fill="#ff4e00"/>
        <path id="Path_15839" data-name="Path 15839" d="M376.374,175.782h-3.115a15.447,15.447,0,0,0-14.409,9.756l-3.43,8.572a1.726,1.726,0,1,0,3.2,1.283l3.428-8.574a12.013,12.013,0,0,1,11.209-7.587h3.115a15.518,15.518,0,0,0,13.7-8.235l6.436-13.438a1.724,1.724,0,1,0-3.1-1.489L387,169.435a12.056,12.056,0,0,1-10.629,6.347Zm0,0" transform="translate(-292.36 -154.74)" fill="#ff4e00"/>
        <path id="Path_15840" data-name="Path 15840" d="M300.462,184.392a1.724,1.724,0,0,0,1.643,1.8h.081a1.725,1.725,0,0,0,1.725-1.645l.374-8.125a12.061,12.061,0,0,1,6.428-10.581l2.76-1.455a15.457,15.457,0,0,0,6.489-6.509,1.725,1.725,0,1,0-3.054-1.6,12.02,12.02,0,0,1-5.048,5.063l-2.76,1.455a15.475,15.475,0,0,0-8.265,13.536Zm0,0" transform="translate(-249.357 -155.004)" fill="#ff4e00"/>
        <path id="Path_15841" data-name="Path 15841" d="M438.833,323.234H435.54a10.289,10.289,0,0,0-9.254,5.72l-2.133,4.263a6.852,6.852,0,0,1-6.169,3.813h-5.019a1.725,1.725,0,0,0,0,3.449h5.019a10.288,10.288,0,0,0,9.254-5.72l2.133-4.263a6.855,6.855,0,0,1,6.169-3.813h3.293a1.725,1.725,0,0,0,0-3.449Zm0,0" transform="translate(-336.233 -286.671)" fill="#ff4e00"/>
      </g>
    </g>
    <path id="Path_15842" data-name="Path 15842" d="M424.4,189.738a5.173,5.173,0,1,0-5.174-5.173,5.173,5.173,0,0,0,5.174,5.173Zm0-6.9a1.724,1.724,0,1,1-1.725,1.725,1.725,1.725,0,0,1,1.725-1.725Zm0,0" transform="translate(-277.834 -19.25)" fill="#ff4e00"/>
    <path id="Path_15843" data-name="Path 15843" d="M403.25,320.416a5.173,5.173,0,1,0,5.173-5.174,5.173,5.173,0,0,0-5.173,5.174Zm6.9,0a1.725,1.725,0,1,1-1.725-1.725,1.724,1.724,0,0,1,1.725,1.725Zm0,0" transform="translate(-265.302 -125.786)" fill="#ff4e00"/>
    <path id="Path_15844" data-name="Path 15844" d="M264.579,181.745a5.174,5.174,0,1,0-5.173-5.173,5.173,5.173,0,0,0,5.173,5.173Zm0-6.9a1.725,1.725,0,1,1-1.724,1.725,1.725,1.725,0,0,1,1.724-1.725Zm0,0" transform="translate(-152.498 -12.982)" fill="#ff4e00"/>
    <path id="Path_15845" data-name="Path 15845" d="M351.9,246.344a1.724,1.724,0,0,0-2.438-2.439l-1.725,1.725a1.724,1.724,0,1,0,2.439,2.438Zm0,0" transform="translate(-221.357 -69.464)" fill="#ff4e00"/>
    <path id="Path_15846" data-name="Path 15846" d="M448.38,427.121h-3.449a1.725,1.725,0,0,0,0,3.449h3.449a1.725,1.725,0,1,0,0-3.449Zm0,0" transform="translate(-296.637 -213.523)" fill="#ff4e00"/>
    <path id="Path_15847" data-name="Path 15847" d="M501.3,403.73l-1.724,1.725a1.724,1.724,0,1,0,2.438,2.439l1.725-1.725a1.725,1.725,0,0,0-2.438-2.439Zm0,0" transform="translate(-340.427 -194.799)" fill="#ff4e00"/>
    <path id="Path_15848" data-name="Path 15848" d="M471.58,291.448l-3.448,1.725a1.725,1.725,0,1,0,1.542,3.087l3.449-1.725a1.725,1.725,0,0,0-1.542-3.087Zm0,0" transform="translate(-315.434 -106.984)" fill="#ff4e00"/>
    <path id="Path_15849" data-name="Path 15849" d="M267.4,237.056v1.725a1.724,1.724,0,1,0,3.449,0v-1.725a1.724,1.724,0,0,0-3.449,0Zm0,0" transform="translate(-158.766 -63.12)" fill="#ff4e00"/>
    <path id="Path_15850" data-name="Path 15850" d="M379.74,211.833a1.724,1.724,0,0,0,1.224,2.949,2.036,2.036,0,0,0,.326-.035,1.042,1.042,0,0,0,.331-.1,1.349,1.349,0,0,0,.309-.155,2.88,2.88,0,0,0,.259-.207,1.731,1.731,0,0,0-2.449-2.449Zm0,0" transform="translate(-246.466 -44.294)" fill="#ff4e00"/>
    <path id="Path_15851" data-name="Path 15851" d="M332.085,158.559a1.352,1.352,0,0,0,.313.155.992.992,0,0,0,.327.1,2.025,2.025,0,0,0,.328.035,1.976,1.976,0,0,0,.325-.035,1.009,1.009,0,0,0,.33-.1.98.98,0,0,0,.293-.155,1.826,1.826,0,0,0,.258-.207,1.678,1.678,0,0,0,.379-1.879,1.566,1.566,0,0,0-.379-.57A1.9,1.9,0,0,0,334,155.7a1,1,0,0,0-.293-.155,1.049,1.049,0,0,0-.33-.1,1.4,1.4,0,0,0-.653,0,1.031,1.031,0,0,0-.327.1,1.351,1.351,0,0,0-.313.155l-.257.207a1.749,1.749,0,0,0,0,2.449Zm0,0" transform="translate(-208.9 -0.436)" fill="#ff4e00"/>
    <path id="Path_15852" data-name="Path 15852" d="M334,299.54a1.018,1.018,0,0,0-.293-.154,1.056,1.056,0,0,0-.33-.1,1.4,1.4,0,0,0-.653,0,1.038,1.038,0,0,0-.327.1,1.382,1.382,0,0,0-.313.154,3.189,3.189,0,0,0-.257.207,1.749,1.749,0,0,0,0,2.449l.257.207a1.343,1.343,0,0,0,.313.155,1.009,1.009,0,0,0,.327.1,2.053,2.053,0,0,0,.328.034,2,2,0,0,0,.325-.034,1.027,1.027,0,0,0,.33-.1A.979.979,0,0,0,334,302.4a1.841,1.841,0,0,0,.258-.207,1.749,1.749,0,0,0,.517-1.224,1.719,1.719,0,0,0-.138-.656,1.568,1.568,0,0,0-.379-.569,1.955,1.955,0,0,0-.258-.207Zm0,0" transform="translate(-208.9 -113.24)" fill="#ff4e00"/>
    <path id="Path_15853" data-name="Path 15853" d="M523.622,275.866a1.984,1.984,0,0,0-.363.569,1.634,1.634,0,0,0,0,1.311,1.981,1.981,0,0,0,.363.569,1.774,1.774,0,0,0,1.224.5,1.817,1.817,0,0,0,1.225-.5,1.962,1.962,0,0,0,.362-.569,1.621,1.621,0,0,0,0-1.311,1.966,1.966,0,0,0-.362-.569,1.805,1.805,0,0,0-2.449,0Zm0,0" transform="translate(-359.307 -94.531)" fill="#ff4e00"/>
    <path id="Path_15854" data-name="Path 15854" d="M484.887,166.936a1.7,1.7,0,0,0,1.725-1.725,1.724,1.724,0,0,0-2.949-1.224,1.749,1.749,0,0,0,0,2.449,1.81,1.81,0,0,0,1.224.5Zm0,0" transform="translate(-327.971 -6.796)" fill="#ff4e00"/>
    <path id="Path_15855" data-name="Path 15855" d="M379.74,355.677a1.724,1.724,0,0,0,1.224,2.949,2.01,2.01,0,0,0,.326-.035,1.036,1.036,0,0,0,.331-.1,1.351,1.351,0,0,0,.309-.155l.259-.207a1.731,1.731,0,0,0-2.449-2.448Zm0,0" transform="translate(-246.466 -157.098)" fill="#ff4e00"/>
    <path id="Path_15856" data-name="Path 15856" d="M526.07,363.769a1.805,1.805,0,0,0-2.449,0,1.986,1.986,0,0,0-.363.57,1.634,1.634,0,0,0,0,1.311,1.978,1.978,0,0,0,.363.568,1.771,1.771,0,0,0,1.224.5,1.812,1.812,0,0,0,1.225-.5,1.959,1.959,0,0,0,.362-.568,1.622,1.622,0,0,0,0-1.311,1.968,1.968,0,0,0-.362-.57Zm0,0" transform="translate(-359.307 -163.466)" fill="#ff4e00"/>
  </g>
</svg>
