<svg xmlns="http://www.w3.org/2000/svg" width="114" height="117.22" viewBox="0 0 114 117.22">
  <g id="Group_6191" data-name="Group 6191" transform="translate(-119.737 -203.999)">
    <path id="Path_15866" data-name="Path 15866" d="M189.533,340.9a5.02,5.02,0,0,0-7.038.865,1.717,1.717,0,0,0,2.706,2.114,1.58,1.58,0,0,1,2.216-.272,1.718,1.718,0,0,0,2.115-2.707Zm0,0" transform="translate(-43.206 -94.376)" fill="#ff4e00"/>
    <path id="Path_15867" data-name="Path 15867" d="M247.277,333.813a5.018,5.018,0,0,0-7.036.865,1.717,1.717,0,0,0,2.706,2.114,1.58,1.58,0,0,1,2.216-.272,1.717,1.717,0,0,0,2.114-2.707Zm0,0" transform="translate(-83.324 -89.45)" fill="#ff4e00"/>
    <path id="Path_15868" data-name="Path 15868" d="M222.928,370.629l-.2-1.6a2.6,2.6,0,0,0-2.9-2.267l-9.86,1.21a2.6,2.6,0,0,0-2.267,2.9l.2,1.6a7.57,7.57,0,1,0,15.028-1.846Zm-7.009,5.029a4.141,4.141,0,0,1-4.61-3.6l-.1-.772,8.212-1.009.094.771a4.141,4.141,0,0,1-3.6,4.61Zm0,0" transform="translate(-60.959 -113.068)" fill="#ff4e00"/>
    <path id="Path_15869" data-name="Path 15869" d="M174.8,211.915a15.168,15.168,0,0,0-8.293-7.794,1.717,1.717,0,0,0-2.162.811c-1.847,3.6-6.31,6.154-11.937,6.845L142.475,213a1.717,1.717,0,1,0,.419,3.409l9.929-1.22c6.042-.742,11.037-3.416,13.72-7.268,5.6,2.988,6.954,9.252,6.347,13.962-.629,4.895-3.2,8.576-6.258,8.95l-33.41,4.1a5.072,5.072,0,0,0-4.411,5.646l.41,3.343-2.6.32L124.01,223a4.243,4.243,0,0,1,3.7-4.729l8.334-1.023a1.717,1.717,0,0,0-.419-3.409l-8.334,1.023a7.686,7.686,0,0,0-6.685,8.555l2.7,21.958a5.933,5.933,0,0,0,3.435,10.767,6.24,6.24,0,0,0,.73-.044l3.2-.395.315,2.558a20.228,20.228,0,0,0,20.03,17.762,20.606,20.606,0,0,0,2.5-.154,20.167,20.167,0,0,0,13.022-7.069,1.717,1.717,0,1,0-2.63-2.207,16.787,16.787,0,0,1-29.517-8.751l-.524-4.263a1.719,1.719,0,0,0-1.914-1.5l-4.9.6a2.758,2.758,0,0,1-.318.02,2.5,2.5,0,0,1-.943-4.816l.006,0a2.41,2.41,0,0,1,.638-.166l4.909-.6a1.717,1.717,0,0,0,1.5-1.914l-.62-5.047a1.635,1.635,0,0,1,1.421-1.82l31.705-3.893,2.37,19.3a16.625,16.625,0,0,1-.748,7.4,1.717,1.717,0,0,0,1.079,2.175,1.683,1.683,0,0,0,.549.091,1.716,1.716,0,0,0,1.626-1.169,20,20,0,0,0,.9-8.917L168.73,233.84c3.876-1.381,6.826-5.772,7.567-11.521a19.121,19.121,0,0,0-1.5-10.4Zm0,0" transform="translate(-0.419 0)" fill="#ff4e00"/>
    <rect id="Rectangle_1743" data-name="Rectangle 1743" width="114" height="116" transform="translate(119.737 204.608)" fill="none"/>
    <path id="Path_15870" data-name="Path 15870" d="M411.156,489.822a5.02,5.02,0,0,0-7.038-.865,1.717,1.717,0,1,0,2.114,2.707,1.581,1.581,0,0,1,2.217.272,1.717,1.717,0,0,0,2.707-2.114Zm0,0" transform="translate(-196.971 -197.236)" fill="#ff4e00"/>
    <path id="Path_15871" data-name="Path 15871" d="M353.412,482.733a5.017,5.017,0,0,0-7.036-.863,1.717,1.717,0,1,0,2.114,2.705,1.581,1.581,0,0,1,2.216.272,1.717,1.717,0,0,0,2.706-2.114Zm0,0" transform="translate(-156.855 -192.311)" fill="#ff4e00"/>
    <path id="Path_15872" data-name="Path 15872" d="M367.194,516.035l-9.861-1.212a2.6,2.6,0,0,0-1.92.533c-1.233.964-.944,2.26-1.177,3.33a7.581,7.581,0,0,0,12.176,6.889c3.16-2.47,2.843-5.874,3.049-6.639a2.606,2.606,0,0,0-2.267-2.9Zm-2.9,6.834a4.136,4.136,0,0,1-6.652-3.763l.094-.772,8.212,1.008a4.649,4.649,0,0,1-1.654,3.527Zm0,0" transform="translate(-162.732 -215.929)" fill="#ff4e00"/>
    <path id="Path_15873" data-name="Path 15873" d="M354.082,367.011a7.631,7.631,0,0,0-5.114-2.894l-23.594-2.9a3.218,3.218,0,0,1-2.209-1.313,14.934,14.934,0,0,0-6.425-5.087A1.717,1.717,0,1,0,315.43,358a11.513,11.513,0,0,1,4.949,3.918,6.656,6.656,0,0,0,4.576,2.714l23.594,2.9a4.247,4.247,0,0,1,3.694,4.729L349.635,393.5l-2.6-.32.41-3.343a5.072,5.072,0,0,0-4.412-5.646l-33.409-4.1a11.525,11.525,0,0,1-9.969-13.3,11.58,11.58,0,0,1,10.014-9.585,1.717,1.717,0,0,0-.41-3.409,15.028,15.028,0,0,0-12.994,12.444,14.956,14.956,0,0,0,11.248,16.948l-2.382,19.4a20.119,20.119,0,0,0,.523,7.661,1.717,1.717,0,0,0,3.318-.884,16.7,16.7,0,0,1-.434-6.359l2.372-19.3,31.7,3.892a1.635,1.635,0,0,1,1.421,1.82l-.62,5.049a1.716,1.716,0,0,0,1.5,1.912l4.909.6a2.453,2.453,0,0,1,.6.154,2.5,2.5,0,0,1-.9,4.83,2.734,2.734,0,0,1-.31-.019l-4.909-.6a1.716,1.716,0,0,0-1.914,1.494l-.525,4.263a16.784,16.784,0,0,1-30.194,7.892,1.717,1.717,0,1,0-2.768,2.032,20.179,20.179,0,0,0,13.837,8.1,20.611,20.611,0,0,0,2.505.154,20.229,20.229,0,0,0,20.029-17.761l.315-2.559c3.066.364,3.3.439,3.934.439a5.938,5.938,0,0,0,3.437-10.773l2.7-21.952a7.624,7.624,0,0,0-1.571-5.662Zm0,0" transform="translate(-122.361 -104.061)" fill="#ff4e00"/>
    <rect id="Rectangle_1744" data-name="Rectangle 1744" width="114" height="116" transform="translate(119.737 204.608)" fill="none"/>
    <path id="Path_15874" data-name="Path 15874" d="M402.58,251.184a1.717,1.717,0,0,0-1.717,1.717v4.2a1.717,1.717,0,0,0,3.434,0v-4.2a1.717,1.717,0,0,0-1.717-1.717Zm0,0" transform="translate(-195.168 -32.781)" fill="#ff4e00"/>
    <path id="Path_15875" data-name="Path 15875" d="M402.58,293.512a1.717,1.717,0,0,0-1.717,1.717v4.2a1.717,1.717,0,0,0,3.434,0v-4.2a1.717,1.717,0,0,0-1.717-1.717Zm0,0" transform="translate(-195.168 -62.188)" fill="#ff4e00"/>
    <path id="Path_15876" data-name="Path 15876" d="M421.061,279.234h-4.2a1.717,1.717,0,1,0,0,3.434h4.2a1.717,1.717,0,1,0,0-3.434Zm0,0" transform="translate(-205.088 -52.269)" fill="#ff4e00"/>
    <path id="Path_15877" data-name="Path 15877" d="M378.732,279.234h-4.2a1.717,1.717,0,1,0,0,3.434h4.2a1.717,1.717,0,0,0,0-3.434Zm0,0" transform="translate(-175.68 -52.269)" fill="#ff4e00"/>
    <path id="Path_15878" data-name="Path 15878" d="M201.6,473.465a1.717,1.717,0,0,0-1.717,1.717v4.2a1.717,1.717,0,0,0,3.434,0v-4.2a1.717,1.717,0,0,0-1.717-1.717Zm0,0" transform="translate(-55.541 -187.209)" fill="#ff4e00"/>
    <path id="Path_15879" data-name="Path 15879" d="M201.6,515.793a1.717,1.717,0,0,0-1.717,1.717v4.2a1.717,1.717,0,0,0,3.434,0v-4.2a1.716,1.716,0,0,0-1.717-1.717Zm0,0" transform="translate(-55.541 -216.616)" fill="#ff4e00"/>
    <path id="Path_15880" data-name="Path 15880" d="M220.087,501.512h-4.2a1.717,1.717,0,0,0,0,3.434h4.2a1.717,1.717,0,0,0,0-3.434Zm0,0" transform="translate(-65.463 -206.695)" fill="#ff4e00"/>
    <path id="Path_15881" data-name="Path 15881" d="M177.76,501.512h-4.2a1.717,1.717,0,0,0,0,3.434h4.2a1.717,1.717,0,0,0,0-3.434Zm0,0" transform="translate(-36.056 -206.695)" fill="#ff4e00"/>
  </g>
</svg>
