<svg xmlns="http://www.w3.org/2000/svg" width="104.967" height="104.967" viewBox="0 0 104.967 104.967">
  <g id="Group_6185" data-name="Group 6185" transform="translate(-66 -156)">
    <path id="Path_15857" data-name="Path 15857" d="M411.494,164.747a8.747,8.747,0,1,0-8.747,8.747,8.748,8.748,0,0,0,8.747-8.747ZM402.747,170A5.248,5.248,0,1,1,408,164.747,5.249,5.249,0,0,1,402.747,170Zm0,0" transform="translate(-256.273)" fill="#ff4e00"/>
    <path id="Path_15858" data-name="Path 15858" d="M371.987,179.745H340.5v-10.5a5.248,5.248,0,0,0-10.5,0v15.745a5.249,5.249,0,0,0,5.248,5.248H340.5v8.166l-5.948,7.96a5.273,5.273,0,0,0-1.05,3.15V228.73a1.75,1.75,0,0,0,1.749,1.749h7A1.75,1.75,0,0,0,344,228.73V211.305a1.746,1.746,0,0,1,.462-1.186l3.8-4.132h4.482V228.73a1.75,1.75,0,0,0,1.749,1.749h7a1.75,1.75,0,0,0,1.749-1.749V190.242h3.5v7a5.248,5.248,0,0,0,10.5,0V184.993a5.249,5.249,0,0,0-5.248-5.248Zm1.749,17.494a1.749,1.749,0,0,1-3.5,0v-8.747a1.75,1.75,0,0,0-1.749-1.749h-7a1.75,1.75,0,0,0-1.749,1.749V226.98h-3.5V204.237a1.75,1.75,0,0,0-1.749-1.749h-7a1.748,1.748,0,0,0-1.286.566l-4.325,4.7a5.224,5.224,0,0,0-1.387,3.555V226.98H337V209.512a1.753,1.753,0,0,1,.349-1.05l6.3-8.423a1.75,1.75,0,0,0,.35-1.05v-10.5a1.75,1.75,0,0,0-1.749-1.749h-7a1.75,1.75,0,0,1-1.749-1.749V169.248a1.749,1.749,0,1,1,3.5,0v12.246a1.75,1.75,0,0,0,1.749,1.749h33.239a1.75,1.75,0,0,1,1.749,1.749Zm0,0" transform="translate(-206.268 -6.251)" fill="#ff4e00"/>
    <path id="Path_15859" data-name="Path 15859" d="M187.494,316.747a8.747,8.747,0,1,0-8.747,8.747,8.748,8.748,0,0,0,8.747-8.747ZM178.747,322A5.248,5.248,0,1,1,184,316.747,5.249,5.249,0,0,1,178.747,322Zm0,0" transform="translate(-81.257 -118.761)" fill="#ff4e00"/>
    <path id="Path_15860" data-name="Path 15860" d="M141.279,316.234a5.26,5.26,0,0,0-6.541,5.073v10.5H106.747A8.757,8.757,0,0,0,98,340.551V349.3a5.249,5.249,0,0,0,5.248,5.248H112v5.2a1.737,1.737,0,0,0,.067.477l3.3,11.592-6.632,11.6a1.749,1.749,0,0,0,1.519,2.624h7a1.751,1.751,0,0,0,1.519-.875l7-12.246a1.75,1.75,0,0,0,.164-1.347l-2.863-10.024h3.417l2.974,8.922-1.7,13.6a1.749,1.749,0,0,0,1.736,1.968h7a1.748,1.748,0,0,0,1.735-1.533l1.749-14a1.73,1.73,0,0,0-.047-.677l-5.187-19.018V342.3h5.248a5.249,5.249,0,0,0,5.248-5.248V321.5a5.364,5.364,0,0,0-3.956-5.265Zm.457,20.818a1.75,1.75,0,0,1-1.749,1.749h-7a1.749,1.749,0,0,0-1.749,1.749v10.5a1.752,1.752,0,0,0,.061.46l5.157,18.909-1.515,12.121h-3.471l1.5-12.029a1.705,1.705,0,0,0-.077-.77l-3.5-10.5a1.749,1.749,0,0,0-1.658-1.2h-7a1.749,1.749,0,0,0-1.683,2.229l3.3,11.547-6.128,10.717h-2.974l5.5-9.622a1.75,1.75,0,0,0,.165-1.345L115.494,359.5v-4.951a5.248,5.248,0,1,0,0-10.5v-3.5a1.75,1.75,0,0,0-1.749-1.749H108.5a3.5,3.5,0,0,0-3.5,3.5v3.5a1.75,1.75,0,0,0,1.749,1.749h8.747a1.75,1.75,0,0,1,1.749,1.749,1.71,1.71,0,0,1-.537,1.247,1.676,1.676,0,0,1-1.212.5H103.248A1.75,1.75,0,0,1,101.5,349.3v-8.747a5.249,5.249,0,0,1,5.248-5.248h29.741a1.75,1.75,0,0,0,1.749-1.749V321.307a1.706,1.706,0,0,1,.536-1.245,1.658,1.658,0,0,1,1.65-.444,1.9,1.9,0,0,1,1.314,1.882Zm-29.741,7h-3.5V342.3H112Zm0,0" transform="translate(-25.002 -125.07)" fill="#ff4e00"/>
    <rect id="Rectangle_1741" data-name="Rectangle 1741" width="104" height="104" transform="translate(66.483 156.483)" fill="none"/>
    <path id="Path_15861" data-name="Path 15861" d="M78.37,182.891a1.749,1.749,0,0,0,3.25,0l3.221-8.048,8.048-3.221a1.75,1.75,0,0,0,0-3.251l-8.048-3.222L81.62,157.1a1.749,1.749,0,0,0-3.25,0l-3.22,8.048L67.1,168.37a1.75,1.75,0,0,0,0,3.251l8.048,3.22Zm-1.224-14.769a1.754,1.754,0,0,0,.976-.976L80,162.459l1.873,4.687a1.755,1.755,0,0,0,.976.976L87.532,170l-4.687,1.873a1.755,1.755,0,0,0-.976.976L80,177.532l-1.874-4.687a1.754,1.754,0,0,0-.976-.976L72.459,170Zm0,0" fill="#ff4e00"/>
    <path id="Path_15862" data-name="Path 15862" d="M380.9,520.37l-8.048-3.22-3.221-8.048a1.75,1.75,0,0,0-3.25,0l-3.22,8.048-8.048,3.22a1.75,1.75,0,0,0,0,3.251l8.048,3.22,3.22,8.048a1.75,1.75,0,0,0,3.25,0l3.221-8.048,8.048-3.22a1.75,1.75,0,0,0,0-3.251Zm-10.046,3.5a1.755,1.755,0,0,0-.976.976L368,529.532l-1.874-4.687a1.754,1.754,0,0,0-.976-.976L360.465,522l4.687-1.873a1.754,1.754,0,0,0,.976-.976L368,514.459l1.873,4.687a1.755,1.755,0,0,0,.976.976L375.539,522Zm0,0" transform="translate(-225.026 -275.024)" fill="#ff4e00"/>
    <path id="Path_15863" data-name="Path 15863" d="M242.075,226.772a1.75,1.75,0,0,1-1.237-.513l-4.948-4.948a1.75,1.75,0,0,1,0-2.474l4.948-4.948a1.75,1.75,0,0,1,2.474,0l4.948,4.948a1.75,1.75,0,0,1,0,2.474l-4.948,4.948a1.75,1.75,0,0,1-1.237.513Zm-2.474-6.7,2.474,2.474,2.474-2.474-2.474-2.474Zm0,0" transform="translate(-132.338 -44.831)" fill="#ff4e00"/>
    <path id="Path_15864" data-name="Path 15864" d="M490.075,498.772a1.75,1.75,0,0,1-1.237-.513l-4.948-4.948a1.75,1.75,0,0,1,0-2.474l4.948-4.948a1.75,1.75,0,0,1,2.474,0l4.948,4.948a1.75,1.75,0,0,1,0,2.474l-4.948,4.948a1.75,1.75,0,0,1-1.237.513Zm-2.474-6.7,2.474,2.474,2.474-2.474-2.474-2.474Zm0,0" transform="translate(-326.106 -257.349)" fill="#ff4e00"/>
  </g>
</svg>
