<svg xmlns="http://www.w3.org/2000/svg" width="157.281" height="250.785" viewBox="0 0 157.281 250.785">
  <g id="fern" transform="translate(-4.089 0)">
    <g id="Group_3980" data-name="Group 3980" transform="translate(12.118)">
      <path id="Path_8360" data-name="Path 8360" d="M1394.548-590.335c-11.359-8.958-40.991-2.261-44.189-18.817s30.918-2.811,26.73-8.751-38.94-5.436-38.754-22.057c.155-13.769,19.439-6.76,22.624-7.662s-24.247-6.873-23.877-14.811,12.1-6.916,17.364-5.107-22.57-15.306-19.953-25.034,23.043,8.379,19.994.438-22.649-20.7-17.041-27.9,13.422,3.494,18.684,5.3-5.671-16.221-4.689-33.378,13.471-30.933,17.045-16.861-4.408,41.721.923,42.931,12.534-22,16.991-6.447-17.181,29.524-8.645,32,15.4-9,18.231-.885S1376.9-676.243,1382-673.755s8.3.224,20.733-7.163c11.953-7.1,17.229,11.375,3.755,20.477s-19.971,18.647-12.97,16.342,14.536-5.547,21.6-7.393c16-4.178,19.949,9.208,4.791,21.29s-24.768,23.016-15.863,17.557,31.316-14.044,19.728-.987S1394.548-590.335,1394.548-590.335Z" transform="translate(-1334.32 770.784)" fill="#2a9d8e"/>
      <path id="Path_8361" data-name="Path 8361" d="M1413.106-574.375C1378.386-662.849,1379.423-732,1379.423-732" transform="translate(-1352.878 754.824)" fill="none" stroke="#1f7264" stroke-miterlimit="10" stroke-width="1"/>
      <path id="Path_8362" data-name="Path 8362" d="M1347.939-677.37c13.8,1.077,24.2,25.263,24.2,25.263" transform="translate(-1339.924 732.346)" fill="none" stroke="#1f7264" stroke-miterlimit="10" stroke-width="1"/>
      <path id="Path_8363" data-name="Path 8363" d="M1348.96-632.417c17.281-1.787,28.8,24.93,28.8,24.93" transform="translate(-1340.344 713.884)" fill="none" stroke="#1f7264" stroke-miterlimit="10" stroke-width="1"/>
      <path id="Path_8364" data-name="Path 8364" d="M1352.8-586.832c15.856-3.649,31.318,17.251,31.318,17.251" transform="translate(-1341.922 695.267)" fill="none" stroke="#1f7264" stroke-miterlimit="10" stroke-width="1"/>
      <path id="Path_8365" data-name="Path 8365" d="M1356.864-544.825c18.842-9.024,33.146,6.807,35.474,13.953" transform="translate(-1343.597 678.92)" fill="none" stroke="#1f7264" stroke-miterlimit="10" stroke-width="1"/>
      <path id="Path_8366" data-name="Path 8366" d="M1377.575-498.721c17.313-8.656,27.969.856,30.46,7.528" transform="translate(-1352.119 660.259)" fill="none" stroke="#1f7264" stroke-miterlimit="10" stroke-width="1"/>
      <path id="Path_8367" data-name="Path 8367" d="M1403.03-690.791c-12.563,20.1-14.6,28.97-12.491,39.727" transform="translate(-1357.156 737.868)" fill="none" stroke="#1f7264" stroke-miterlimit="10" stroke-width="1"/>
      <path id="Path_8368" data-name="Path 8368" d="M1415.2-638.359c-22.986,18.25-16.092,33.25-16.092,33.25" transform="translate(-1360.58 716.293)" fill="none" stroke="#1f7264" stroke-miterlimit="10" stroke-width="1"/>
      <path id="Path_8369" data-name="Path 8369" d="M1436.242-606.37c-21.747,17.334-31.044,24.2-28.123,34.234" transform="translate(-1364.472 703.131)" fill="none" stroke="#1f7264" stroke-miterlimit="10" stroke-width="1"/>
      <path id="Path_8370" data-name="Path 8370" d="M1457.359-558.716c-31.366,21.358-35.029,30.2-33.7,35.119" transform="translate(-1370.988 683.522)" fill="none" stroke="#1f7264" stroke-miterlimit="10" stroke-width="1"/>
      <path id="Path_8371" data-name="Path 8371" d="M1460.343-507.443c-24.226,13.681-29.828,14.629-28.288,18.671" transform="translate(-1374.439 662.424)" fill="none" stroke="#1f7264" stroke-miterlimit="10" stroke-width="1"/>
    </g>
    <g id="Group_3979" data-name="Group 3979" transform="translate(0 197.167) rotate(-68)">
      <path id="Path_8338" data-name="Path 8338" d="M37.993.008A33.912,33.912,0,0,0,32.8,2.254a60.838,60.838,0,0,0-11.779,7.92A66.632,66.632,0,0,0,7.523,26a49.436,49.436,0,0,0-5.16,10.63A50.137,50.137,0,0,0,.225,48.174a65.042,65.042,0,0,0,.461,15c.027.172.669.258.636.051a64.023,64.023,0,0,1-.593-12.4A56.272,56.272,0,0,1,2.208,39.61a43.5,43.5,0,0,1,4.5-11,65.139,65.139,0,0,1,25.625-25.6A36.282,36.282,0,0,1,38.526.244c.209-.065-.365-.288-.533-.236Z" transform="translate(16.63 14.925)" fill="#e9c464"/>
      <path id="Path_8339" data-name="Path 8339" d="M2.759,19.021C-3.163,12.743,2.291,0,2.291,0s4.66,7.213,3.5,12.158S2.759,19.021,2.759,19.021Z" transform="translate(43.583 0)" fill="#e9c464"/>
      <path id="Path_8340" data-name="Path 8340" d="M0,6.183C2.562.114,13.142,0,13.142,0s-3.6,5.475-7.414,6.187S0,6.183,0,6.183Z" transform="translate(54.239 9.364)" fill="#e9c464"/>
      <path id="Path_8341" data-name="Path 8341" d="M3.22,18.361C-2.66,11.051,1.312,0,1.312,0S5.219,6.12,5.429,10.011,3.22,18.361,3.22,18.361Z" transform="translate(37.728 4.612)" fill="#e9c464"/>
      <path id="Path_8342" data-name="Path 8342" d="M3.22,18.361C-2.66,11.051,1.311,0,1.311,0S5.219,6.12,5.429,10.011,3.22,18.361,3.22,18.361Z" transform="translate(31.919 9.264)" fill="#e9c464"/>
      <path id="Path_8343" data-name="Path 8343" d="M7.018,15.274C-.658,10.71.015,0,.015,0S5.472,4.123,6.771,7.417,7.018,15.274,7.018,15.274Z" transform="translate(25.294 15.37)" fill="#e9c464"/>
      <path id="Path_8344" data-name="Path 8344" d="M6.919,15.3C-.575,10.69.011,0,.011,0S5.345,4.151,6.629,7.449,6.919,15.3,6.919,15.3Z" transform="translate(20.607 20.552)" fill="#e9c464"/>
      <path id="Path_8345" data-name="Path 8345" d="M9.819,13.611C1.557,10.592,0,0,0,0S6.055,3,7.97,5.98,9.819,13.611,9.819,13.611Z" transform="translate(14.063 28.422)" fill="#e9c464"/>
      <path id="Path_8346" data-name="Path 8346" d="M9.819,13.612C1.557,10.592,0,0,0,0S6.055,3,7.97,5.981,9.819,13.612,9.819,13.612Z" transform="translate(9.876 34.765)" fill="#e9c464"/>
      <path id="Path_8347" data-name="Path 8347" d="M12.319,11.4C3.622,10.075,0,0,0,0S6.53,1.747,9,4.285,12.319,11.4,12.319,11.4Z" transform="translate(4.276 44.858)" fill="#e9c464"/>
      <path id="Path_8348" data-name="Path 8348" d="M13.829,9.51C5.032,9.449,0,0,0,0S6.713.79,9.518,2.948,13.829,9.51,13.829,9.51Z" transform="translate(1.802 55.159)" fill="#e9c464"/>
      <path id="Path_8349" data-name="Path 8349" d="M15.094,7.35C6.386,8.6,0,.009,0,.009S6.756-.211,9.851,1.5,15.094,7.35,15.094,7.35Z" transform="translate(0 64.09)" fill="#e9c464"/>
      <path id="Path_8350" data-name="Path 8350" d="M.257,14.787C-1.622,6.575,7.417,0,7.417,0S7.3,6.008,5.351,9.444A16.29,16.29,0,0,1,.257,14.787Z" transform="translate(50.587 1.589)" fill="#e9c464"/>
      <path id="Path_8351" data-name="Path 8351" d="M0,1.062C7.554-2.664,16.041,4.61,16.041,4.61s-5.871,1.277-9.665.174A16.291,16.291,0,0,1,0,1.062Z" transform="translate(48.308 17.007)" fill="#e9c464"/>
      <path id="Path_8352" data-name="Path 8352" d="M0,1.188C8.445-2.978,17.933,5.153,17.933,5.153S11.369,6.58,7.128,5.348A18.219,18.219,0,0,1,0,1.188Z" transform="translate(41.037 21.671)" fill="#e9c464"/>
      <path id="Path_8353" data-name="Path 8353" d="M0,1.188C8.445-2.978,17.933,5.153,17.933,5.153s-6.564,1.428-10.805.195A18.218,18.218,0,0,1,0,1.188Z" transform="translate(35.482 26.338)" fill="#e9c464"/>
      <path id="Path_8354" data-name="Path 8354" d="M0,1.331C8.331-3.059,18.032,4.817,18.032,4.817s-6.523,1.6-10.8.481A18.216,18.216,0,0,1,0,1.331Z" transform="translate(29.462 31.998)" fill="#e9c464"/>
      <path id="Path_8355" data-name="Path 8355" d="M0,1.33C8.331-3.059,18.032,4.817,18.032,4.817s-6.523,1.6-10.8.482A18.213,18.213,0,0,1,0,1.33Z" transform="translate(25.175 39.454)" fill="#e9c464"/>
      <path id="Path_8356" data-name="Path 8356" d="M0,1.33C8.331-3.058,18.032,4.818,18.032,4.818s-6.523,1.6-10.8.481A18.212,18.212,0,0,1,0,1.33Z" transform="translate(21.892 46.235)" fill="#e9c464"/>
      <path id="Path_8357" data-name="Path 8357" d="M0,1.33C8.331-3.059,18.032,4.817,18.032,4.817s-6.523,1.6-10.8.481A18.213,18.213,0,0,1,0,1.33Z" transform="translate(20.214 53.725)" fill="#e9c464"/>
      <path id="Path_8358" data-name="Path 8358" d="M0,1.33C8.331-3.059,18.032,4.817,18.032,4.817s-6.523,1.6-10.8.482A18.212,18.212,0,0,1,0,1.33Z" transform="translate(19.38 61.22)" fill="#e9c464"/>
      <path id="Path_8359" data-name="Path 8359" d="M0,1.33C8.331-3.059,18.031,4.817,18.031,4.817s-6.523,1.6-10.8.482A18.221,18.221,0,0,1,0,1.33Z" transform="translate(18.757 67.981)" fill="#e9c464"/>
    </g>
    <g id="Group_3986" data-name="Group 3986" transform="translate(72.56 96.856) rotate(41)">
      <path id="Path_8378" data-name="Path 8378" d="M4.589,18.673l15.657,7.958L7.72,23.947q.42.595.87,1.185c8.84,11.543,26.881,17.405,26.881,17.405L15.79,39.665A56.131,56.131,0,0,0,31.24,56.75l23.568-.42-16.594,4.92c14.307,8.445,24.027,8.525,24.027,8.525l-7.047,4.937a78.069,78.069,0,0,0,15.969,9.322c8.267,3.346,17.956,1.608,17.956,1.608l-3.5,3.93a29.675,29.675,0,0,0,28.951-.016L0,0A44.807,44.807,0,0,0,4.589,18.673Z" transform="translate(0 11.044)" fill="#305966"/>
      <path id="Path_8379" data-name="Path 8379" d="M0,11.044,114.566,100.6s4.274-12.185,2.8-20.819-6.68-10.748-6.68-10.748l-2.022,7.885s-2.681-13.884-7.59-23.586-15.043-15.2-15.043-15.2l-2.3,13.815S77.711,35.016,70.622,26.177,50.649,12.248,50.649,12.248l-.682,12.5s-6.294-11-14.247-17.36S23,0,23,0l1.84,10.044S17.247,5.09,10.952,3.409,0,11.044,0,11.044Z" transform="translate(0.001 0)" fill="#264653"/>
      <g id="Group_3984" data-name="Group 3984" transform="translate(8.273 26.137)">
        <line id="Line_1" data-name="Line 1" x2="14.147" y2="6.646" fill="none" stroke="#1f7264" stroke-miterlimit="10" stroke-width="1"/>
        <line id="Line_2" data-name="Line 2" x2="9.837" y2="2.108" transform="translate(16.825 13.616)" fill="none" stroke="#1f7264" stroke-miterlimit="10" stroke-width="1"/>
        <line id="Line_3" data-name="Line 3" x2="18.876" y2="4.045" transform="translate(15.914 17.869)" fill="none" stroke="#1f7264" stroke-miterlimit="10" stroke-width="1"/>
        <line id="Line_4" data-name="Line 4" x2="11.926" y2="1.443" transform="translate(30.175 27.877)" fill="none" stroke="#1f7264" stroke-miterlimit="10" stroke-width="1"/>
        <line id="Line_5" data-name="Line 5" x2="28.675" y2="3.086" transform="translate(22.503 33.185)" fill="none" stroke="#1f7264" stroke-miterlimit="10" stroke-width="1"/>
        <line id="Line_6" data-name="Line 6" x2="12.087" y2="0.523" transform="translate(46.535 41.235)" fill="none" stroke="#1f7264" stroke-miterlimit="10" stroke-width="1"/>
        <line id="Line_7" data-name="Line 7" x2="28.299" y2="0.298" transform="translate(39.822 47.74)" fill="none" stroke="#1f7264" stroke-miterlimit="10" stroke-width="1"/>
        <line id="Line_8" data-name="Line 8" y1="0.076" x2="17.812" transform="translate(58.432 55.545)" fill="none" stroke="#1f7264" stroke-miterlimit="10" stroke-width="1"/>
        <line id="Line_9" data-name="Line 9" y1="0.646" x2="22.94" transform="translate(59.191 61.811)" fill="none" stroke="#1f7264" stroke-miterlimit="10" stroke-width="1"/>
        <line id="Line_10" data-name="Line 10" y1="0.706" x2="14.425" transform="translate(73.936 65.927)" fill="none" stroke="#1f7264" stroke-miterlimit="10" stroke-width="1"/>
        <line id="Line_11" data-name="Line 11" y1="1.655" x2="12.099" transform="translate(84.166 69.519)" fill="none" stroke="#1f7264" stroke-miterlimit="10" stroke-width="1"/>
        <line id="Line_12" data-name="Line 12" y1="2.557" x2="10.034" transform="translate(89.114 72.93)" fill="none" stroke="#1f7264" stroke-miterlimit="10" stroke-width="1"/>
      </g>
      <g id="Group_3985" data-name="Group 3985" transform="translate(29.225 20.282)">
        <line id="Line_13" data-name="Line 13" x2="4.318" y2="9.086" transform="translate(0 1.867)" fill="none" stroke="#1f7264" stroke-miterlimit="10" stroke-width="1"/>
        <line id="Line_14" data-name="Line 14" x2="8.286" y2="17.436" transform="translate(3.929 0)" fill="none" stroke="#1f7264" stroke-miterlimit="10" stroke-width="1"/>
        <line id="Line_15" data-name="Line 15" x2="4.152" y2="11.272" transform="translate(16.954 11.571)" fill="none" stroke="#1f7264" stroke-miterlimit="10" stroke-width="1"/>
        <line id="Line_16" data-name="Line 16" x2="9.61" y2="27.192" transform="translate(20.351 2.883)" fill="none" stroke="#1f7264" stroke-miterlimit="10" stroke-width="1"/>
        <line id="Line_17" data-name="Line 17" x2="3.294" y2="11.641" transform="translate(33.723 24.413)" fill="none" stroke="#1f7264" stroke-miterlimit="10" stroke-width="1"/>
        <line id="Line_18" data-name="Line 18" x2="6.811" y2="27.468" transform="translate(38.505 16.381)" fill="none" stroke="#1f7264" stroke-miterlimit="10" stroke-width="1"/>
        <line id="Line_19" data-name="Line 19" x2="4.031" y2="17.351" transform="translate(50.462 32.674)" fill="none" stroke="#1f7264" stroke-miterlimit="10" stroke-width="1"/>
        <line id="Line_20" data-name="Line 20" x2="4.658" y2="22.471" transform="translate(57.29 31.838)" fill="none" stroke="#1f7264" stroke-miterlimit="10" stroke-width="1"/>
        <line id="Line_21" data-name="Line 21" x2="2.637" y2="14.2" transform="translate(64.752 45.224)" fill="none" stroke="#1f7264" stroke-miterlimit="10" stroke-width="1"/>
        <line id="Line_22" data-name="Line 22" x2="1.178" y2="12.155" transform="translate(71.528 54.132)" fill="none" stroke="#1f7264" stroke-miterlimit="10" stroke-width="1"/>
        <line id="Line_23" data-name="Line 23" x1="0.176" y2="10.353" transform="translate(76.689 57.953)" fill="none" stroke="#1f7264" stroke-miterlimit="10" stroke-width="1"/>
      </g>
    </g>
  </g>
</svg>
