<svg xmlns="http://www.w3.org/2000/svg" width="100.735" height="133.831" viewBox="0 0 100.735 133.831">
  <g id="decor-04" transform="matrix(-0.946, -0.326, 0.326, -0.946, 8.424, 67.888)">
    <g id="Group_4926" data-name="Group 4926" transform="translate(-80.265 -58.03)">
      <path id="Path_10504" data-name="Path 10504" d="M.012,48.573c3.646-13.9,11.65-26.059,22.009-35.9A80.121,80.121,0,0,1,38.585.162c.993-.538.605.41-.013.745A76.152,76.152,0,0,0,23.268,12.4C12.9,22.09,4.98,34.212,1.362,48c-.106.406-1.5,1.152-1.35.569Z" transform="translate(2.483 57)" fill="#e0583d"/>
      <path id="Path_10505" data-name="Path 10505" d="M6.229,4A3.169,3.169,0,1,0,2.343,6.229,3.169,3.169,0,0,0,6.229,4Z" transform="translate(0 102.119)" fill="#e0583d"/>
      <path id="Path_10506" data-name="Path 10506" d="M6.23,4A3.169,3.169,0,1,0,2.344,6.23,3.171,3.171,0,0,0,6.23,4Z" transform="translate(9.128 111.114)" fill="#e0583d"/>
      <path id="Path_10507" data-name="Path 10507" d="M6.229,4A3.169,3.169,0,1,0,2.343,6.229,3.169,3.169,0,0,0,6.229,4Z" transform="translate(16.478 118.36)" fill="#e0583d"/>
      <path id="Path_10508" data-name="Path 10508" d="M6.229,4A3.169,3.169,0,1,0,2.343,6.23,3.169,3.169,0,0,0,6.229,4Z" transform="translate(38.344 112.484)" fill="#e0583d"/>
      <path id="Path_10509" data-name="Path 10509" d="M6.228,4A3.169,3.169,0,1,0,2.343,6.229,3.168,3.168,0,0,0,6.228,4Z" transform="translate(76.184 122.713)" fill="#e0583d"/>
      <path id="Path_10510" data-name="Path 10510" d="M6.229,4A3.169,3.169,0,1,0,2.343,6.229,3.168,3.168,0,0,0,6.229,4Z" transform="translate(64.043 119.431)" fill="#e0583d"/>
      <path id="Path_10511" data-name="Path 10511" d="M6.229,4A3.169,3.169,0,1,0,2.343,6.229,3.17,3.17,0,0,0,6.229,4Z" transform="translate(24.115 110.564)" fill="#e0583d"/>
      <path id="Path_10512" data-name="Path 10512" d="M6.229,4A3.169,3.169,0,1,0,2.343,6.229,3.169,3.169,0,0,0,6.229,4Z" transform="translate(31.99 106.127)" fill="#e0583d"/>
      <path id="Path_10513" data-name="Path 10513" d="M6.229,4A3.169,3.169,0,1,0,2.343,6.229,3.168,3.168,0,0,0,6.229,4Z" transform="translate(52.458 113.016)" fill="#e0583d"/>
      <path id="Path_10514" data-name="Path 10514" d="M.024,56.679A117.79,117.79,0,0,1,18.653,15.538,95.591,95.591,0,0,1,31.486.269c.657-.608,1.8-.1,1,.649A93.569,93.569,0,0,0,19.909,15.864,116.674,116.674,0,0,0,1.45,56.665c-.169.723-1.655,1.006-1.426.013Z" transform="translate(11.561 57.612)" fill="#e0583d"/>
      <path id="Path_10515" data-name="Path 10515" d="M0,55.531c1.507-14.285,4.8-28.51,11.073-41.493,2.277-4.713,4.907-9.685,8.461-13.6.36-.4,1.76-.765,1.042.025-3.347,3.684-5.831,8.366-8,12.794-6.344,12.946-9.654,27.229-11.16,41.5-.054.518-1.461,1.205-1.415.766Z" transform="translate(26.43 58.547)" fill="#e0583d"/>
      <path id="Path_10516" data-name="Path 10516" d="M15.785,51.431A354.437,354.437,0,0,0,24.3,13.984,130.722,130.722,0,0,0,25.98.922L26.8.7c-2.125,1.559-4.963,5.085-6.791,7.645-6.036,8.453-10.1,18.27-13.07,28.173A170.855,170.855,0,0,0,1.376,63.531c-.056.433-1.4,1.024-1.376.823C1.932,49.5,5.312,34.614,11.749,21.014,14.855,14.453,18.7,8,23.809,2.783A22.606,22.606,0,0,1,26.535.324c.045-.034.839-.531.82-.225a130.4,130.4,0,0,1-1.684,13.062,354.152,354.152,0,0,1-8.51,37.446c-.123.441-1.413.955-1.376.824Z" transform="translate(18.862 57.562)" fill="#e0583d"/>
      <path id="Path_10517" data-name="Path 10517" d="M13.763,58.11c3.685-14.486,5.6-30.9-.409-45.074C11.509,8.691,8.684,3.717,4.641,1L5.994.045C7.985,1.4,9.172,4.155,9.912,6.323c2.719,7.973,1.546,17.06-.191,25.1a149.411,149.411,0,0,1-8.373,25.55c-.151.364-1.524,1.07-1.329.6C5.161,45.179,9.955,31.738,10.06,18.151c.039-5.187-.6-11.1-3.782-15.416A7.281,7.281,0,0,0,4.641,1c-.2-.134.939-1.234,1.353-.956a23.067,23.067,0,0,1,6.261,7.23c4.533,7.448,6.194,16.368,6.29,24.987a97.5,97.5,0,0,1-3.392,25.044c-.117.46-1.447,1.028-1.391.8Z" transform="translate(41.17 58.477)" fill="#e0583d"/>
      <path id="Path_10518" data-name="Path 10518" d="M20.236,122.811c3.127-21.323.815-47.182-16.863-62.036A22.336,22.336,0,0,0,.155,58.422a.342.342,0,0,1-.15-.357c1.9-11.491,2.3-23.284,2.787-34.9.31-7.441.548-14.888.665-22.335C3.467.219,4.926-.45,4.912.407,4.641,17.76,4.229,35.289,2.178,52.533c-.127,1.066-.264,2.13-.418,3.192a11.02,11.02,0,0,1-.414,1.583c.076.185.74.472.9.584a33.313,33.313,0,0,1,4.216,3.488,50.644,50.644,0,0,1,11.87,18.252c5.3,13.559,5.443,28.527,3.356,42.758-.088.6-1.576,1.248-1.455.421Z" transform="translate(46.25 0)" fill="#e0583d"/>
      <path id="Path_10519" data-name="Path 10519" d="M28.845,67.908c2.44-13.809,1.2-28.035-5.065-40.7A65.51,65.51,0,0,0,6.637,5.765a49.231,49.231,0,0,0-6.491-4.6C-.421.834.814-.241,1.317.049c15.027,8.687,25.944,25.165,29.114,42.04a70.667,70.667,0,0,1-.162,25.354c-.1.538-1.559,1.229-1.424.465Z" transform="translate(49.314 58.077)" fill="#e0583d"/>
    </g>
    <path id="Path_10520" data-name="Path 10520" d="M18.585,0c-19.27,8.4-29.824,16.7.2,21.2s16.341-9.722,8.807-14.409S18.585,0,18.585,0Z" transform="translate(-51.227 -4.64)" fill="#e0583d"/>
  </g>
</svg>
