<svg xmlns="http://www.w3.org/2000/svg" width="232.724" height="331.41" viewBox="0 0 232.724 331.41">
  <g id="SUBTLE_ELEMENTS" data-name="SUBTLE ELEMENTS" transform="translate(-6.05)">
    <g id="Group_3980" data-name="Group 3980" transform="translate(17.931 0)">
      <path id="Path_8360" data-name="Path 8360" d="M1423.438-503.779c-16.808-13.255-60.654-3.346-65.385-27.842s45.749-4.159,39.551-12.948-57.619-8.044-57.343-32.637c.229-20.373,28.763-10,33.477-11.337s-35.878-10.17-35.33-21.915,17.906-10.233,25.693-7.556-33.4-22.647-29.524-37.042,34.1,12.4,29.585.649-33.513-30.631-25.215-41.283,19.86,5.17,27.647,7.847-8.391-24-6.939-49.389,19.933-45.771,25.221-24.949-6.522,61.734,1.365,63.523,18.547-32.551,25.141-9.54-25.422,43.685-12.792,47.348,22.79-13.318,26.975-1.309-28.236,31.266-20.695,34.947,12.279.331,30.678-10.6c17.687-10.506,25.494,16.832,5.557,30.3s-29.55,27.592-19.191,24.181,21.509-8.208,31.963-10.939c23.675-6.183,29.518,13.625,7.089,31.5s-36.648,34.057-23.473,25.978,46.337-20.78,29.19-1.46S1423.438-503.779,1423.438-503.779Z" transform="translate(-1334.32 770.784)" fill="#2a9d8e"/>
      <path id="Path_8361" data-name="Path 8361" d="M1429.265-498.769C1377.89-629.68,1379.425-732,1379.425-732" transform="translate(-1340.147 765.773)" fill="none" stroke="#1f7264" stroke-miterlimit="10" stroke-width="1"/>
      <path id="Path_8362" data-name="Path 8362" d="M1347.939-677.37c20.414,1.594,35.814,37.38,35.814,37.38" transform="translate(-1336.079 758.716)" fill="none" stroke="#1f7264" stroke-miterlimit="10" stroke-width="1"/>
      <path id="Path_8363" data-name="Path 8363" d="M1348.96-632.376c25.569-2.645,42.614,36.888,42.614,36.888" transform="translate(-1336.212 752.919)" fill="none" stroke="#1f7264" stroke-miterlimit="10" stroke-width="1"/>
      <path id="Path_8364" data-name="Path 8364" d="M1352.8-586.627c23.462-5.4,46.341,25.525,46.341,25.525" transform="translate(-1336.707 747.075)" fill="none" stroke="#1f7264" stroke-miterlimit="10" stroke-width="1"/>
      <path id="Path_8365" data-name="Path 8365" d="M1356.864-543.526c27.88-13.353,49.045,10.072,52.489,20.646" transform="translate(-1337.233 741.942)" fill="none" stroke="#1f7264" stroke-miterlimit="10" stroke-width="1"/>
      <path id="Path_8366" data-name="Path 8366" d="M1377.575-497.062c25.618-12.808,41.384,1.266,45.071,11.139" transform="translate(-1339.908 736.083)" fill="none" stroke="#1f7264" stroke-miterlimit="10" stroke-width="1"/>
      <path id="Path_8367" data-name="Path 8367" d="M1409.368-690.791c-18.589,29.741-21.607,42.867-18.482,58.782" transform="translate(-1341.49 760.45)" fill="none" stroke="#1f7264" stroke-miterlimit="10" stroke-width="1"/>
      <path id="Path_8368" data-name="Path 8368" d="M1423.382-638.359c-34.011,27-23.81,49.2-23.81,49.2" transform="translate(-1342.565 753.676)" fill="none" stroke="#1f7264" stroke-miterlimit="10" stroke-width="1"/>
      <path id="Path_8369" data-name="Path 8369" d="M1449.983-606.37c-32.178,25.648-45.934,35.8-41.612,50.654" transform="translate(-1343.787 749.544)" fill="none" stroke="#1f7264" stroke-miterlimit="10" stroke-width="1"/>
      <path id="Path_8370" data-name="Path 8370" d="M1473.632-558.716c-46.412,31.6-51.831,44.683-49.864,51.965" transform="translate(-1345.833 743.387)" fill="none" stroke="#1f7264" stroke-miterlimit="10" stroke-width="1"/>
      <path id="Path_8371" data-name="Path 8371" d="M1474.025-507.443c-35.847,20.243-44.136,21.647-41.857,27.626" transform="translate(-1346.916 736.763)" fill="none" stroke="#1f7264" stroke-miterlimit="10" stroke-width="1"/>
    </g>
    <g id="Group_3979" data-name="Group 3979" transform="translate(0 291.742) rotate(-68)">
      <path id="Path_8338" data-name="Path 8338" d="M56.217.012a50.179,50.179,0,0,0-7.685,3.323A90.02,90.02,0,0,0,31.1,15.054,98.593,98.593,0,0,0,11.132,38.473,73.149,73.149,0,0,0,3.5,54.2,74.186,74.186,0,0,0,.334,71.281a96.241,96.241,0,0,0,.682,22.19c.04.254.99.382.941.076A94.733,94.733,0,0,1,1.079,75.2a83.264,83.264,0,0,1,2.188-16.59A64.367,64.367,0,0,1,9.927,42.337c8.836-15.762,21.938-29.309,37.916-37.88a53.685,53.685,0,0,1,9.163-4.1c.309-.1-.541-.427-.789-.349Z" transform="translate(24.606 22.084)" fill="#e9c464"/>
      <path id="Path_8339" data-name="Path 8339" d="M4.082,28.145C-4.68,18.855,3.389,0,3.389,0s6.9,10.673,5.179,17.989S4.082,28.145,4.082,28.145Z" transform="translate(64.489 0)" fill="#e9c464"/>
      <path id="Path_8340" data-name="Path 8340" d="M0,9.149C3.792.169,19.445,0,19.445,0S14.114,8.1,8.475,9.155,0,9.149,0,9.149Z" transform="translate(80.256 13.855)" fill="#e9c464"/>
      <path id="Path_8341" data-name="Path 8341" d="M4.765,27.168C-3.936,16.352,1.941,0,1.941,0S7.723,9.056,8.033,14.812,4.765,27.168,4.765,27.168Z" transform="translate(55.826 6.825)" fill="#e9c464"/>
      <path id="Path_8342" data-name="Path 8342" d="M4.765,27.168C-3.936,16.352,1.941,0,1.941,0S7.723,9.056,8.033,14.813,4.765,27.168,4.765,27.168Z" transform="translate(47.229 13.708)" fill="#e9c464"/>
      <path id="Path_8343" data-name="Path 8343" d="M10.384,22.6C-.973,15.847.022,0,.022,0s8.075,6.1,10,10.975S10.384,22.6,10.384,22.6Z" transform="translate(37.427 22.743)" fill="#e9c464"/>
      <path id="Path_8344" data-name="Path 8344" d="M10.238,22.633C-.851,15.817.016,0,.016,0S7.909,6.143,9.808,11.023,10.238,22.633,10.238,22.633Z" transform="translate(30.492 30.41)" fill="#e9c464"/>
      <path id="Path_8345" data-name="Path 8345" d="M14.53,20.14C2.3,15.672,0,0,0,0S8.959,4.445,11.793,8.848,14.53,20.14,14.53,20.14Z" transform="translate(20.809 42.056)" fill="#e9c464"/>
      <path id="Path_8346" data-name="Path 8346" d="M14.53,20.141C2.3,15.673,0,0,0,0S8.959,4.446,11.793,8.849,14.53,20.141,14.53,20.141Z" transform="translate(14.614 51.441)" fill="#e9c464"/>
      <path id="Path_8347" data-name="Path 8347" d="M18.228,16.868C5.36,14.907,0,0,0,0S9.662,2.585,13.311,6.34,18.228,16.868,18.228,16.868Z" transform="translate(6.326 66.375)" fill="#e9c464"/>
      <path id="Path_8348" data-name="Path 8348" d="M20.462,14.072C7.446,13.982,0,0,0,0S9.932,1.169,14.084,4.362,20.462,14.072,20.462,14.072Z" transform="translate(2.666 81.618)" fill="#e9c464"/>
      <path id="Path_8349" data-name="Path 8349" d="M22.334,10.875C9.449,12.728,0,.014,0,.014S10-.312,14.577,2.225,22.334,10.875,22.334,10.875Z" transform="translate(0 94.832)" fill="#e9c464"/>
      <path id="Path_8350" data-name="Path 8350" d="M.38,21.88C-2.4,9.73,10.975,0,10.975,0S10.8,8.889,7.918,13.974A24.1,24.1,0,0,1,.38,21.88Z" transform="translate(74.852 2.351)" fill="#e9c464"/>
      <path id="Path_8351" data-name="Path 8351" d="M0,1.572C11.178-3.942,23.736,6.821,23.736,6.821s-8.687,1.89-14.3.258A24.106,24.106,0,0,1,0,1.572Z" transform="translate(71.48 25.165)" fill="#e9c464"/>
      <path id="Path_8352" data-name="Path 8352" d="M0,1.757C12.5-4.406,26.535,7.625,26.535,7.625s-9.712,2.112-15.988.288A26.958,26.958,0,0,1,0,1.757Z" transform="translate(60.721 32.066)" fill="#e9c464"/>
      <path id="Path_8353" data-name="Path 8353" d="M0,1.757C12.5-4.406,26.534,7.625,26.534,7.625s-9.712,2.113-15.988.288A26.957,26.957,0,0,1,0,1.757Z" transform="translate(52.501 38.971)" fill="#e9c464"/>
      <path id="Path_8354" data-name="Path 8354" d="M0,1.969C12.327-4.526,26.681,7.128,26.681,7.128s-9.652,2.37-15.975.712A26.953,26.953,0,0,1,0,1.969Z" transform="translate(43.595 47.347)" fill="#e9c464"/>
      <path id="Path_8355" data-name="Path 8355" d="M0,1.969c12.327-6.495,26.681,5.16,26.681,5.16S17.029,9.5,10.706,7.841A26.949,26.949,0,0,1,0,1.969Z" transform="translate(37.251 58.379)" fill="#e9c464"/>
      <path id="Path_8356" data-name="Path 8356" d="M0,1.968c12.327-6.494,26.681,5.16,26.681,5.16s-9.652,2.37-15.974.712A26.947,26.947,0,0,1,0,1.968Z" transform="translate(32.393 68.412)" fill="#e9c464"/>
      <path id="Path_8357" data-name="Path 8357" d="M0,1.969c12.327-6.495,26.681,5.16,26.681,5.16S17.029,9.5,10.707,7.841A26.95,26.95,0,0,1,0,1.969Z" transform="translate(29.911 79.495)" fill="#e9c464"/>
      <path id="Path_8358" data-name="Path 8358" d="M0,1.969c12.327-6.495,26.681,5.16,26.681,5.16S17.029,9.5,10.707,7.841A26.947,26.947,0,0,1,0,1.969Z" transform="translate(28.677 90.585)" fill="#e9c464"/>
      <path id="Path_8359" data-name="Path 8359" d="M0,1.969c12.327-6.495,26.68,5.16,26.68,5.16S17.028,9.5,10.706,7.841A26.961,26.961,0,0,1,0,1.969Z" transform="translate(27.754 100.589)" fill="#e9c464"/>
    </g>
    <g id="Group_3986" data-name="Group 3986" transform="translate(107.365 94.314) rotate(41)">
      <path id="Path_8378" data-name="Path 8378" d="M6.79,27.63,29.958,39.405,11.423,35.433q.622.88,1.287,1.753C25.789,54.265,52.485,62.94,52.485,62.94l-29.121-4.25a83.056,83.056,0,0,0,22.861,25.28L81.1,83.349l-24.553,7.28c21.169,12.5,35.552,12.615,35.552,12.615l-10.427,7.305s11.4,8.843,23.63,13.794,26.568,2.379,26.568,2.379l-5.185,5.814s19.474,12.509,42.838-.023L0,0A66.3,66.3,0,0,0,6.79,27.63Z" transform="translate(0 16.341)" fill="#305966"/>
      <path id="Path_8379" data-name="Path 8379" d="M0,16.341,169.519,148.853s6.325-18.03,4.139-30.806-9.885-15.9-9.885-15.9l-2.992,11.667s-3.967-20.543-11.23-34.9-22.258-22.494-22.258-22.494L123.9,76.86s-8.91-25.048-19.4-38.127-29.554-20.61-29.554-20.61L73.934,36.614s-9.313-16.273-21.08-25.687S34.025,0,34.025,0l2.723,14.861S25.519,7.532,16.206,5.044,0,16.341,0,16.341Z" transform="translate(0.001 0)" fill="#264653"/>
      <g id="Group_3984" data-name="Group 3984" transform="translate(12.241 38.675)">
        <line id="Line_1" data-name="Line 1" x2="20.933" y2="9.834" transform="translate(0 0)" fill="none" stroke="#1f7264" stroke-miterlimit="10" stroke-width="1"/>
        <line id="Line_2" data-name="Line 2" x2="14.555" y2="3.119" transform="translate(24.895 20.147)" fill="none" stroke="#1f7264" stroke-miterlimit="10" stroke-width="1"/>
        <line id="Line_3" data-name="Line 3" x2="27.93" y2="5.985" transform="translate(23.547 26.441)" fill="none" stroke="#1f7264" stroke-miterlimit="10" stroke-width="1"/>
        <line id="Line_4" data-name="Line 4" x2="17.646" y2="2.135" transform="translate(44.649 41.249)" fill="none" stroke="#1f7264" stroke-miterlimit="10" stroke-width="1"/>
        <line id="Line_5" data-name="Line 5" x2="42.429" y2="4.566" transform="translate(33.297 49.102)" fill="none" stroke="#1f7264" stroke-miterlimit="10" stroke-width="1"/>
        <line id="Line_6" data-name="Line 6" x2="17.884" y2="0.774" transform="translate(68.856 61.015)" fill="none" stroke="#1f7264" stroke-miterlimit="10" stroke-width="1"/>
        <line id="Line_7" data-name="Line 7" x2="41.873" y2="0.441" transform="translate(58.923 70.639)" fill="none" stroke="#1f7264" stroke-miterlimit="10" stroke-width="1"/>
        <line id="Line_8" data-name="Line 8" y1="0.113" x2="26.356" transform="translate(86.46 82.188)" fill="none" stroke="#1f7264" stroke-miterlimit="10" stroke-width="1"/>
        <line id="Line_9" data-name="Line 9" y1="0.955" x2="33.943" transform="translate(87.583 91.46)" fill="none" stroke="#1f7264" stroke-miterlimit="10" stroke-width="1"/>
        <line id="Line_10" data-name="Line 10" y1="1.045" x2="21.345" transform="translate(109.401 97.55)" fill="none" stroke="#1f7264" stroke-miterlimit="10" stroke-width="1"/>
        <line id="Line_11" data-name="Line 11" y1="2.449" x2="17.903" transform="translate(124.537 102.866)" fill="none" stroke="#1f7264" stroke-miterlimit="10" stroke-width="1"/>
        <line id="Line_12" data-name="Line 12" y1="3.783" x2="14.847" transform="translate(131.859 107.913)" fill="none" stroke="#1f7264" stroke-miterlimit="10" stroke-width="1"/>
      </g>
      <g id="Group_3985" data-name="Group 3985" transform="translate(43.243 30.01)">
        <line id="Line_13" data-name="Line 13" x2="6.389" y2="13.445" transform="translate(0 2.763)" fill="none" stroke="#1f7264" stroke-miterlimit="10" stroke-width="1"/>
        <line id="Line_14" data-name="Line 14" x2="12.26" y2="25.799" transform="translate(5.814 0)" fill="none" stroke="#1f7264" stroke-miterlimit="10" stroke-width="1"/>
        <line id="Line_15" data-name="Line 15" x2="6.144" y2="16.679" transform="translate(25.086 17.122)" fill="none" stroke="#1f7264" stroke-miterlimit="10" stroke-width="1"/>
        <line id="Line_16" data-name="Line 16" x2="14.22" y2="40.235" transform="translate(30.112 4.266)" fill="none" stroke="#1f7264" stroke-miterlimit="10" stroke-width="1"/>
        <line id="Line_17" data-name="Line 17" x2="4.874" y2="17.224" transform="translate(49.899 36.123)" fill="none" stroke="#1f7264" stroke-miterlimit="10" stroke-width="1"/>
        <line id="Line_18" data-name="Line 18" x2="10.079" y2="40.644" transform="translate(56.975 24.239)" fill="none" stroke="#1f7264" stroke-miterlimit="10" stroke-width="1"/>
        <line id="Line_19" data-name="Line 19" x2="5.964" y2="25.673" transform="translate(74.668 48.347)" fill="none" stroke="#1f7264" stroke-miterlimit="10" stroke-width="1"/>
        <line id="Line_20" data-name="Line 20" x2="6.892" y2="33.25" transform="translate(84.77 47.11)" fill="none" stroke="#1f7264" stroke-miterlimit="10" stroke-width="1"/>
        <line id="Line_21" data-name="Line 21" x2="3.902" y2="21.011" transform="translate(95.811 66.917)" fill="none" stroke="#1f7264" stroke-miterlimit="10" stroke-width="1"/>
        <line id="Line_22" data-name="Line 22" x2="1.742" y2="17.985" transform="translate(105.837 80.097)" fill="none" stroke="#1f7264" stroke-miterlimit="10" stroke-width="1"/>
        <line id="Line_23" data-name="Line 23" x1="0.26" y2="15.319" transform="translate(113.474 85.751)" fill="none" stroke="#1f7264" stroke-miterlimit="10" stroke-width="1"/>
      </g>
    </g>
  </g>
</svg>
