<svg xmlns="http://www.w3.org/2000/svg" width="109.988" height="163.064" viewBox="0 0 109.988 163.064">
  <g id="decor-06" transform="translate(82.501 174.785) rotate(-168)">
    <g id="Group_4926" data-name="Group 4926" transform="translate(0 0)">
      <path id="Path_10504" data-name="Path 10504" d="M.015,59.208c4.444-16.945,14.2-31.765,26.829-43.761A97.663,97.663,0,0,1,47.033.2c1.21-.656.738.5-.015.908A92.826,92.826,0,0,0,28.363,15.116C15.725,26.927,6.07,41.7,1.66,58.515c-.129.495-1.832,1.4-1.646.693Z" transform="translate(3.027 69.48)" fill="#e0583d"/>
      <path id="Path_10505" data-name="Path 10505" d="M7.593,4.872A3.863,3.863,0,1,0,2.856,7.593,3.863,3.863,0,0,0,7.593,4.872Z" transform="translate(0 124.478)" fill="#e0583d"/>
      <path id="Path_10506" data-name="Path 10506" d="M7.594,4.873A3.863,3.863,0,1,0,2.857,7.594,3.866,3.866,0,0,0,7.594,4.873Z" transform="translate(11.127 135.443)" fill="#e0583d"/>
      <path id="Path_10507" data-name="Path 10507" d="M7.593,4.872A3.863,3.863,0,1,0,2.856,7.593,3.862,3.862,0,0,0,7.593,4.872Z" transform="translate(20.086 144.275)" fill="#e0583d"/>
      <path id="Path_10508" data-name="Path 10508" d="M7.593,4.873A3.863,3.863,0,1,0,2.856,7.594,3.863,3.863,0,0,0,7.593,4.873Z" transform="translate(46.739 137.112)" fill="#e0583d"/>
      <path id="Path_10509" data-name="Path 10509" d="M7.592,4.872A3.863,3.863,0,1,0,2.856,7.593,3.862,3.862,0,0,0,7.592,4.872Z" transform="translate(92.864 149.581)" fill="#e0583d"/>
      <path id="Path_10510" data-name="Path 10510" d="M7.593,4.872A3.863,3.863,0,1,0,2.855,7.593,3.862,3.862,0,0,0,7.593,4.872Z" transform="translate(78.066 145.58)" fill="#e0583d"/>
      <path id="Path_10511" data-name="Path 10511" d="M7.593,4.872A3.863,3.863,0,1,0,2.856,7.592,3.864,3.864,0,0,0,7.593,4.872Z" transform="translate(29.396 134.772)" fill="#e0583d"/>
      <path id="Path_10512" data-name="Path 10512" d="M7.593,4.872A3.863,3.863,0,1,0,2.856,7.593,3.863,3.863,0,0,0,7.593,4.872Z" transform="translate(38.994 129.364)" fill="#e0583d"/>
      <path id="Path_10513" data-name="Path 10513" d="M7.593,4.872A3.863,3.863,0,1,0,2.856,7.593,3.862,3.862,0,0,0,7.593,4.872Z" transform="translate(63.943 137.761)" fill="#e0583d"/>
      <path id="Path_10514" data-name="Path 10514" d="M.029,69.089A143.58,143.58,0,0,1,22.738,18.94,116.521,116.521,0,0,1,38.38.328c.8-.741,2.2-.117,1.216.791A114.056,114.056,0,0,0,24.268,19.337a142.22,142.22,0,0,0-22.5,49.735c-.206.882-2.017,1.227-1.738.016Z" transform="translate(14.093 70.227)" fill="#e0583d"/>
      <path id="Path_10515" data-name="Path 10515" d="M0,67.69C1.838,50.276,5.854,32.937,13.5,17.111,16.275,11.367,19.481,5.305,23.813.538c.439-.483,2.145-.932,1.27.031-4.08,4.491-7.108,10.2-9.753,15.6C7.6,31.944,3.563,49.355,1.727,66.756c-.065.631-1.781,1.469-1.725.934Z" transform="translate(32.217 71.366)" fill="#e0583d"/>
      <path id="Path_10516" data-name="Path 10516" d="M19.241,62.692A432.041,432.041,0,0,0,29.616,17.046,159.343,159.343,0,0,0,31.668,1.124l1-.274c-2.59,1.9-6.049,6.2-8.278,9.318C17.032,20.472,12.073,32.439,8.458,44.51A208.264,208.264,0,0,0,1.677,77.441c-.069.528-1.709,1.248-1.677,1C2.354,60.336,6.475,42.192,14.322,25.616c3.786-8,8.478-15.864,14.7-22.224a27.555,27.555,0,0,1,3.323-3c.055-.041,1.023-.647,1-.274a158.957,158.957,0,0,1-2.052,15.922A431.7,431.7,0,0,1,20.918,61.688c-.15.537-1.722,1.165-1.677,1Z" transform="translate(22.991 70.166)" fill="#e0583d"/>
      <path id="Path_10517" data-name="Path 10517" d="M16.776,70.834c4.492-17.658,6.832-37.671-.5-54.943-2.249-5.3-5.692-11.359-10.621-14.67L7.307.055c2.426,1.651,3.874,5.01,4.776,7.653,3.314,9.719,1.884,20.8-.233,30.59A182.125,182.125,0,0,1,1.643,69.441c-.184.443-1.858,1.3-1.62.731,6.268-15.1,12.112-31.485,12.239-48.047.048-6.323-.73-13.532-4.61-18.791A8.875,8.875,0,0,0,5.657,1.22C5.414,1.056,6.8-.284,7.307.055c3.176,2.133,5.678,5.6,7.631,8.814,5.525,9.079,7.551,19.951,7.667,30.458a118.85,118.85,0,0,1-4.134,30.527c-.143.561-1.764,1.253-1.7.98Z" transform="translate(50.184 71.281)" fill="#e0583d"/>
      <path id="Path_10518" data-name="Path 10518" d="M24.666,149.7c3.812-25.992.994-57.513-20.555-75.619A27.226,27.226,0,0,0,.189,71.214a.417.417,0,0,1-.183-.435C2.324,56.772,2.813,42.4,3.4,28.235c.378-9.071.669-18.147.81-27.225C4.226.267,6-.548,5.988.5c-.331,21.153-.833,42.519-3.333,63.539-.155,1.3-.321,2.6-.509,3.89a13.432,13.432,0,0,1-.505,1.929c.092.225.9.576,1.1.712a40.606,40.606,0,0,1,5.14,4.251A61.733,61.733,0,0,1,22.349,97.066c6.462,16.528,6.635,34.773,4.09,52.12-.108.734-1.921,1.521-1.773.514Z" transform="translate(56.377 0)" fill="#e0583d"/>
      <path id="Path_10519" data-name="Path 10519" d="M35.16,82.776c2.974-16.833,1.462-34.174-6.174-49.61A79.854,79.854,0,0,0,8.091,7.028,60.01,60.01,0,0,0,.178,1.416C-.513,1.017.993-.294,1.605.06,19.922,10.65,33.23,30.735,37.094,51.3a86.14,86.14,0,0,1-.2,30.905c-.116.655-1.9,1.5-1.736.566Z" transform="translate(60.111 70.793)" fill="#e0583d"/>
    </g>
    <path id="Path_10520" data-name="Path 10520" d="M22.654,0C-.835,10.241-13.7,20.352,22.9,25.84S42.818,13.99,33.635,8.276,22.654,0,22.654,0Z" transform="translate(35.396 65.08)" fill="#e0583d"/>
  </g>
</svg>
