<svg xmlns="http://www.w3.org/2000/svg" width="181.444" height="233.972" viewBox="0 0 181.444 233.972">
  <g id="Left" transform="translate(-72.598 -459.505) rotate(7)">
    <g id="Group_4877" data-name="Group 4877" transform="translate(198.437 588.961)">
      <path id="Path_10336" data-name="Path 10336" d="M337.76,661.875l-16.379,2.043,11.929,1.621q-.561.392-1.147.77c-11.494,7.386-29.312,6.817-29.312,6.817l18.314,3.736a52.742,52.742,0,0,1-19.1,10.177l-20.7-7.885,13.1,9.64c-15.339,2.9-23.958-.124-23.958-.124l4.655,6.611a73.353,73.353,0,0,1-17.089,3.15c-8.375.322-16.386-4.3-16.386-4.3l1.845,4.591a27.885,27.885,0,0,1-25.587-9.243L347.769,646.83A42.118,42.118,0,0,1,337.76,661.875Z" transform="translate(-217.941 -629.686)" fill="#244854"/>
      <path id="Path_10337" data-name="Path 10337" d="M347.769,629.763,217.941,672.407s.106-12.135,4.164-19.3,9.332-7.372,9.332-7.372l-.726,7.615s6.8-11.419,14.228-18.431,18.144-8.643,18.144-8.643l-2.376,12.945s10.72-13.045,19.805-18.6,22.1-5.946,22.1-5.946l-3.382,11.265s9.07-7.715,18.129-10.8,13.6-2.471,13.6-2.471l-4.829,8.292s8.288-1.959,14.389-1.439S347.769,629.763,347.769,629.763Z" transform="translate(-217.941 -612.62)" fill="#1c3742"/>
      <g id="Group_4875" data-name="Group 4875" transform="translate(6.805 27.85)">
        <line id="Line_96" data-name="Line 96" x1="14.625" y2="1.365" transform="translate(96.272 0)" fill="none" stroke="#1f6152" stroke-miterlimit="10" stroke-width="1"/>
        <line id="Line_97" data-name="Line 97" x1="9.368" y1="1.273" transform="translate(82.316 5.4)" fill="none" stroke="#1f6152" stroke-miterlimit="10" stroke-width="1"/>
        <line id="Line_98" data-name="Line 98" x1="17.976" y1="2.442" transform="translate(73.157 8.281)" fill="none" stroke="#1f6152" stroke-miterlimit="10" stroke-width="1"/>
        <line id="Line_99" data-name="Line 99" x1="11.002" y1="2.526" transform="translate(64.333 12.497)" fill="none" stroke="#1f6152" stroke-miterlimit="10" stroke-width="1"/>
        <line id="Line_100" data-name="Line 100" x1="26.332" y1="6.414" transform="translate(54.093 15.748)" fill="none" stroke="#1f6152" stroke-miterlimit="10" stroke-width="1"/>
        <line id="Line_101" data-name="Line 101" x1="10.851" y1="3.391" transform="translate(45.763 18.226)" fill="none" stroke="#1f6152" stroke-miterlimit="10" stroke-width="1"/>
        <line id="Line_102" data-name="Line 102" x1="25.111" y1="8.758" transform="translate(35.364 20.749)" fill="none" stroke="#1f6152" stroke-miterlimit="10" stroke-width="1"/>
        <line id="Line_103" data-name="Line 103" x1="15.722" y1="5.746" transform="translate(25.789 24.795)" fill="none" stroke="#1f6152" stroke-miterlimit="10" stroke-width="1"/>
        <line id="Line_104" data-name="Line 104" x1="20.073" y1="7.884" transform="translate(18.588 28.458)" fill="none" stroke="#1f6152" stroke-miterlimit="10" stroke-width="1"/>
        <line id="Line_105" data-name="Line 105" x1="12.527" y1="5.223" transform="translate(11.767 30.11)" fill="none" stroke="#1f6152" stroke-miterlimit="10" stroke-width="1"/>
        <line id="Line_106" data-name="Line 106" x1="10.168" y1="5.32" transform="translate(3.636 30.766)" fill="none" stroke="#1f6152" stroke-miterlimit="10" stroke-width="1"/>
        <line id="Line_107" data-name="Line 107" x1="8.055" y1="5.459" transform="translate(0 32.862)" fill="none" stroke="#1f6152" stroke-miterlimit="10" stroke-width="1"/>
      </g>
      <g id="Group_4876" data-name="Group 4876" transform="translate(11.478 11.404)">
        <line id="Line_108" data-name="Line 108" x1="12.5" y2="7.715" transform="translate(95.834)" fill="none" stroke="#1f6152" stroke-miterlimit="10" stroke-width="1"/>
        <line id="Line_109" data-name="Line 109" x1="6.714" y2="6.656" transform="translate(82.261 6.24)" fill="none" stroke="#1f6152" stroke-miterlimit="10" stroke-width="1"/>
        <line id="Line_110" data-name="Line 110" x1="12.883" y2="12.772" transform="translate(73.213 3.336)" fill="none" stroke="#1f6152" stroke-miterlimit="10" stroke-width="1"/>
        <line id="Line_111" data-name="Line 111" x1="7.264" y2="8.641" transform="translate(63.629 9.413)" fill="none" stroke="#1f6152" stroke-miterlimit="10" stroke-width="1"/>
        <line id="Line_112" data-name="Line 112" x1="17.165" y2="20.974" transform="translate(53.496 0.65)" fill="none" stroke="#1f6152" stroke-miterlimit="10" stroke-width="1"/>
        <line id="Line_113" data-name="Line 113" x1="6.623" y2="9.24" transform="translate(45.352 15.419)" fill="none" stroke="#1f6152" stroke-miterlimit="10" stroke-width="1"/>
        <line id="Line_114" data-name="Line 114" x1="14.778" y2="22.111" transform="translate(35.53 6.795)" fill="none" stroke="#1f6152" stroke-miterlimit="10" stroke-width="1"/>
        <line id="Line_115" data-name="Line 115" x1="9.095" y2="14.053" transform="translate(25.449 17.386)" fill="none" stroke="#1f6152" stroke-miterlimit="10" stroke-width="1"/>
        <line id="Line_116" data-name="Line 116" x1="11.281" y2="18.38" transform="translate(17.493 14.47)" fill="none" stroke="#1f6152" stroke-miterlimit="10" stroke-width="1"/>
        <line id="Line_117" data-name="Line 117" x1="6.858" y2="11.712" transform="translate(11.053 23.924)" fill="none" stroke="#1f6152" stroke-miterlimit="10" stroke-width="1"/>
        <line id="Line_118" data-name="Line 118" x1="4.916" y2="10.37" transform="translate(4.165 29.639)" fill="none" stroke="#1f6152" stroke-miterlimit="10" stroke-width="1"/>
        <line id="Line_119" data-name="Line 119" x1="3.145" y2="9.208" transform="translate(0 31.315)" fill="none" stroke="#1f6152" stroke-miterlimit="10" stroke-width="1"/>
      </g>
    </g>
    <g id="Group_4879" data-name="Group 4879" transform="translate(239.654 543.023)">
      <g id="Group_4878" data-name="Group 4878" transform="translate(0 0)">
        <path id="Path_10338" data-name="Path 10338" d="M344.32,576.589a47.336,47.336,0,0,1-20.75,15.593,49.4,49.4,0,0,1-12.33,3.42c-.691.083-.254-.372.176-.425a46.9,46.9,0,0,0,11.377-3.121,46.358,46.358,0,0,0,20.624-15.446c.153-.209,1.123-.32.9-.02Z" transform="translate(-292.568 -545.581)" fill="#e0583d"/>
        <path id="Path_10339" data-name="Path 10339" d="M363.6,574.224a1.953,1.953,0,1,0,2.733-.4A1.953,1.953,0,0,0,363.6,574.224Z" transform="translate(-313.864 -544.373)" fill="#e0583d"/>
        <path id="Path_10340" data-name="Path 10340" d="M358.211,562.042a1.953,1.953,0,1,0,2.733-.4A1.953,1.953,0,0,0,358.211,562.042Z" transform="translate(-311.672 -539.416)" fill="#e0583d"/>
        <path id="Path_10341" data-name="Path 10341" d="M353.875,552.231a1.953,1.953,0,1,0,2.733-.4A1.954,1.954,0,0,0,353.875,552.231Z" transform="translate(-309.908 -535.423)" fill="#e0583d"/>
        <path id="Path_10342" data-name="Path 10342" d="M330.5,549.558a1.953,1.953,0,1,0,2.733-.4A1.953,1.953,0,0,0,330.5,549.558Z" transform="translate(-300.393 -534.335)" fill="#e0583d"/>
        <path id="Path_10343" data-name="Path 10343" d="M297.828,525.215a1.954,1.954,0,1,0,2.733-.4A1.954,1.954,0,0,0,297.828,525.215Z" transform="translate(-287.099 -524.429)" fill="#e0583d"/>
        <path id="Path_10344" data-name="Path 10344" d="M308.309,533.025a1.954,1.954,0,1,0,2.734-.4A1.954,1.954,0,0,0,308.309,533.025Z" transform="translate(-291.365 -527.607)" fill="#e0583d"/>
        <path id="Path_10345" data-name="Path 10345" d="M343.515,556.849a1.953,1.953,0,1,0,2.733-.4A1.953,1.953,0,0,0,343.515,556.849Z" transform="translate(-305.692 -537.302)" fill="#e0583d"/>
        <path id="Path_10346" data-name="Path 10346" d="M334.209,558.13a1.953,1.953,0,1,0,2.733-.4A1.953,1.953,0,0,0,334.209,558.13Z" transform="translate(-301.905 -537.823)" fill="#e0583d"/>
        <path id="Path_10347" data-name="Path 10347" d="M317.057,543.651a1.954,1.954,0,1,0,2.734-.4A1.954,1.954,0,0,0,317.057,543.651Z" transform="translate(-294.925 -531.932)" fill="#e0583d"/>
        <path id="Path_10348" data-name="Path 10348" d="M340.178,564.46a72.6,72.6,0,0,1-20,19.363,58.951,58.951,0,0,1-10.814,5.845c-.515.2-1.056-.353-.425-.6a57.722,57.722,0,0,0,10.594-5.719,71.93,71.93,0,0,0,19.825-19.207c.26-.377,1.177-.2.82.315Z" transform="translate(-291.662 -540.509)" fill="#e0583d"/>
        <path id="Path_10349" data-name="Path 10349" d="M330.588,559.252a77.282,77.282,0,0,1-15.748,21.276,35.114,35.114,0,0,1-7.93,5.877c-.3.146-1.183.04-.592-.25a33.774,33.774,0,0,0,7.485-5.521,76.207,76.207,0,0,0,15.8-21.263c.149-.284,1.111-.36.985-.118Z" transform="translate(-290.631 -538.541)" fill="#e0583d"/>
        <path id="Path_10350" data-name="Path 10350" d="M324.959,558.457A218.263,218.263,0,0,0,311.6,577.994a80.638,80.638,0,0,0-3.925,7.106l-.521-.056a24.326,24.326,0,0,0,5.625-2.844,58.738,58.738,0,0,0,13.875-13.189,105.27,105.27,0,0,0,9.309-14.225c.13-.236,1.035-.27.975-.161-4.473,8.078-9.782,15.845-16.554,22.181a41.047,41.047,0,0,1-11.043,7.719,13.948,13.948,0,0,1-2.12.791c-.034.009-.6.115-.521-.056a80.483,80.483,0,0,1,3.925-7.106,218.3,218.3,0,0,1,13.363-19.538,1.286,1.286,0,0,1,.975-.16Z" transform="translate(-290.863 -536.693)" fill="#e0583d"/>
        <path id="Path_10351" data-name="Path 10351" d="M313.253,545.991c-5.394,7.469-10.215,16.445-9.978,25.93.073,2.909.565,6.4,2.268,8.873l-.993.242a7.705,7.705,0,0,1-.824-4.486c.248-5.187,2.978-10.13,5.795-14.342a92.12,92.12,0,0,1,10.588-12.75c.169-.174,1.116-.268.9-.043-5.754,5.937-11.547,12.555-14.686,20.32-1.2,2.964-2.172,6.5-1.324,9.693a4.469,4.469,0,0,0,.546,1.365c.083.122-.818.5-.993.242a14.211,14.211,0,0,1-1.951-5.563c-.911-5.3.158-10.786,2.056-15.749a60.084,60.084,0,0,1,7.619-13.588c.171-.237,1.062-.262.979-.145Z" transform="translate(-289.065 -533.176)" fill="#e0583d"/>
        <path id="Path_10352" data-name="Path 10352" d="M298.979,535.378c-6.624,11.515-11.157,26.862-4.389,39.382a13.751,13.751,0,0,0,1.311,2.078.21.21,0,0,1,.005.238,177.3,177.3,0,0,0-9.505,19.376c-1.863,4.195-3.688,8.409-5.441,12.652-.144.347-1.131.4-.929-.088a314.053,314.053,0,0,1,13.377-29.261q.471-.873.963-1.735a6.745,6.745,0,0,1,.6-.813c0-.123-.317-.439-.385-.539a20.5,20.5,0,0,1-1.627-2.955,31.221,31.221,0,0,1-2.669-13.152c.033-8.973,3.343-17.585,7.764-25.271.187-.326,1.186-.359.929.088Z" transform="translate(-280.003 -528.749)" fill="#e0583d"/>
        <path id="Path_10353" data-name="Path 10353" d="M296.83,527.883a38.874,38.874,0,0,0-1.348,40.653,30.2,30.2,0,0,0,2.678,4.109c.25.316-.7.653-.923.372-6.646-8.384-9.171-20.3-7.165-30.694a43.547,43.547,0,0,1,5.837-14.5c.176-.288,1.172-.352.921.056Z" transform="translate(-283.828 -525.717)" fill="#e0583d"/>
      </g>
      <path id="Path_10354" data-name="Path 10354" d="M299.024,599.053c12.949-.45,20.878-2.814,4.688-12.2s-11.57,1.87-8.313,6.264S299.024,599.053,299.024,599.053Z" transform="translate(-284.964 -548.355)" fill="#e0583d"/>
    </g>
    <g id="Group_4880" data-name="Group 4880" transform="translate(153.391 444.121)">
      <path id="Path_10355" data-name="Path 10355" d="M210.018,653.563c9.637-13.575,44.526-15.792,42.686-35.109s-35.049,6.926-32.35-.992,41.231-18.633,35.634-36.923c-4.637-15.152-23.655-1.159-27.465-1.121s24.541-15.454,21.558-24.1-15.6-3.711-20.828-.006,19.955-24.22,13.91-34.112-22.724,16.726-21.934,6.969,18.292-30.2,9.765-36.332-13.686,8.211-18.91,11.916,1-19.75-5.648-38.375-24.907-29.784-24.289-13.088,18.4,44.635,12.907,47.7-20.975-20.223-20.852-1.607,28.546,27.024,19.925,32.526-19.925-4.942-20.416,4.936,27.923,17.141,23.1,21.541-9.09,2.939-25.214-1.183c-15.5-3.962-15.334,18.148,2.5,23.828s28.1,14.11,19.62,13.836-17.848-1.41-26.248-1.156c-19.021.576-19.039,16.638,1.616,25.061s34.812,17.379,23.209,14.238-39.131-5.348-22.1,5.31S210.018,653.563,210.018,653.563Z" transform="translate(-153.391 -444.121)" fill="#2b8d7b"/>
      <path id="Path_10356" data-name="Path 10356" d="M228.5,664.163C238.139,555.217,214.565,479.2,214.565,479.2" transform="translate(-171.874 -454.722)" fill="none" stroke="#1f6152" stroke-miterlimit="10" stroke-width="1"/>
      <path id="Path_10357" data-name="Path 10357" d="M250.8,521.458c-14.884,5.664-18.529,35.743-18.529,35.743" transform="translate(-177.225 -467.488)" fill="none" stroke="#1f6152" stroke-miterlimit="10" stroke-width="1"/>
      <path id="Path_10358" data-name="Path 10358" d="M259.921,563.65c-19.659,3.632-23.712,36.867-23.712,36.867" transform="translate(-178.414 -480.236)" fill="none" stroke="#1f6152" stroke-miterlimit="10" stroke-width="1"/>
      <path id="Path_10359" data-name="Path 10359" d="M266.6,607.367c-18.691,1.115-28.984,29.205-28.984,29.205" transform="translate(-178.84 -493.445)" fill="none" stroke="#1f6152" stroke-miterlimit="10" stroke-width="1"/>
      <path id="Path_10360" data-name="Path 10360" d="M272.292,648.885c-23.73-3.853-34.39,18.267-34.641,26.911" transform="translate(-178.85 -505.855)" fill="none" stroke="#1f6152" stroke-miterlimit="10" stroke-width="1"/>
      <path id="Path_10361" data-name="Path 10361" d="M267.256,697.864c-21.922-3.941-30.6,10.017-31.189,18.192" transform="translate(-178.371 -520.581)" fill="none" stroke="#1f6152" stroke-miterlimit="10" stroke-width="1"/>
      <path id="Path_10362" data-name="Path 10362" d="M195.255,526.558c20.391,18.118,25.519,27.25,26.677,39.811" transform="translate(-166.04 -469.029)" fill="none" stroke="#1f6152" stroke-miterlimit="10" stroke-width="1"/>
      <path id="Path_10363" data-name="Path 10363" d="M195.762,579.443c31.3,12.695,28.553,31.491,28.553,31.491" transform="translate(-166.193 -485.008)" fill="none" stroke="#1f6152" stroke-miterlimit="10" stroke-width="1"/>
      <path id="Path_10364" data-name="Path 10364" d="M177.376,617.2c29.634,12.085,42.125,16.647,42.155,28.675" transform="translate(-160.638 -496.417)" fill="none" stroke="#1f6152" stroke-miterlimit="10" stroke-width="1"/>
      <path id="Path_10365" data-name="Path 10365" d="M167.312,668.359c41.559,13.407,48.471,21.98,48.6,27.844" transform="translate(-157.597 -511.874)" fill="none" stroke="#1f6152" stroke-miterlimit="10" stroke-width="1"/>
      <path id="Path_10366" data-name="Path 10366" d="M182.075,715.884c31.186,7.247,37.68,6.477,37.29,11.439" transform="translate(-162.058 -526.233)" fill="none" stroke="#1f6152" stroke-miterlimit="10" stroke-width="1"/>
    </g>
  </g>
</svg>
