<svg xmlns="http://www.w3.org/2000/svg" width="212.765" height="229.982" viewBox="0 0 212.765 229.982">
  <g id="decor-07" transform="translate(48.426 234.156) rotate(-157)">
    <g id="Group_4877" data-name="Group 4877" transform="translate(-30.853 0)">
      <path id="Path_10336" data-name="Path 10336" d="M88.884,34.4l-14.043,5.93,8.792-6.805q-.629-.054-1.272-.086c-12.6-.6-26.592,8.083-26.592,8.083L68.692,30.075a48.71,48.71,0,0,0-19.979.682L35.8,46.622l6.026-13.759c-13.609,4.761-19.1,11.162-19.1,11.162l.671-7.437A67.75,67.75,0,0,0,8.268,41.96C1.421,45.569-2.85,52.968-2.85,52.968l-.645-4.523a25.753,25.753,0,0,0-16.2,19.208L103.836,41.809A38.9,38.9,0,0,0,88.884,34.4Z" transform="translate(-7.916)" fill="#244854"/>
      <path id="Path_10337" data-name="Path 10337" d="M95.92,34.107-27.608,59.95s5.688,9.656,12.241,13.511S-4.5,75.047-4.5,75.047l-4.1-5.755s10.708,5.994,19.891,8.171S29.8,76,29.8,76L21.92,66.741s14.6,5.483,24.429,5.73,20.419-5.448,20.419-5.448l-7.906-7.448s10.817,1.982,19.489.27,12.021-4.3,12.021-4.3l-7.691-4.4s7.534-2.26,12.173-5.493S95.92,34.107,95.92,34.107Z" transform="translate(0 7.702)" fill="#1c3742"/>
      <g id="Group_4875" data-name="Group 4875" transform="translate(-7.417 8.196)">
        <line id="Line_96" data-name="Line 96" x1="12.328" y2="5.662" transform="translate(76.368 30.649)" fill="none" stroke="#1f6152" stroke-miterlimit="10" stroke-width="1"/>
        <line id="Line_97" data-name="Line 97" x1="6.905" y2="5.344" transform="translate(63.343 34.185)" fill="none" stroke="#1f6152" stroke-miterlimit="10" stroke-width="1"/>
        <line id="Line_98" data-name="Line 98" x1="13.249" y2="10.254" transform="translate(54.687 31.199)" fill="none" stroke="#1f6152" stroke-miterlimit="10" stroke-width="1"/>
        <line id="Line_99" data-name="Line 99" x1="7.633" y2="7.101" transform="translate(45.683 35.055)" fill="none" stroke="#1f6152" stroke-miterlimit="10" stroke-width="1"/>
        <line id="Line_100" data-name="Line 100" x1="18.099" y2="17.289" transform="translate(35.992 26.996)" fill="none" stroke="#1f6152" stroke-miterlimit="10" stroke-width="1"/>
        <line id="Line_101" data-name="Line 101" x1="7.113" y2="7.723" transform="translate(28.185 38.426)" fill="none" stroke="#1f6152" stroke-miterlimit="10" stroke-width="1"/>
        <line id="Line_102" data-name="Line 102" x1="16.04" y2="18.6" transform="translate(18.703 30.333)" fill="none" stroke="#1f6152" stroke-miterlimit="10" stroke-width="1"/>
        <line id="Line_103" data-name="Line 103" x1="9.921" y2="11.855" transform="translate(9.177 38.263)" fill="none" stroke="#1f6152" stroke-miterlimit="10" stroke-width="1"/>
        <line id="Line_104" data-name="Line 104" x1="12.414" y2="15.575" transform="translate(1.725 34.94)" fill="none" stroke="#1f6152" stroke-miterlimit="10" stroke-width="1"/>
        <line id="Line_105" data-name="Line 105" x1="7.607" y2="9.962" transform="translate(-4.492 42.38)" fill="none" stroke="#1f6152" stroke-miterlimit="10" stroke-width="1"/>
        <line id="Line_106" data-name="Line 106" x1="5.676" y2="8.95" transform="translate(-11.299 46.622)" fill="none" stroke="#1f6152" stroke-miterlimit="10" stroke-width="1"/>
        <line id="Line_107" data-name="Line 107" x1="3.922" y2="8.085" transform="translate(-15.175 47.489)" fill="none" stroke="#1f6152" stroke-miterlimit="10" stroke-width="1"/>
      </g>
      <g id="Group_4876" data-name="Group 4876" transform="translate(3.914 18.614)">
        <line id="Line_108" data-name="Line 108" x1="13.56" y1="0.398" transform="translate(73.085 32.012)" fill="none" stroke="#1f6152" stroke-miterlimit="10" stroke-width="1"/>
        <line id="Line_109" data-name="Line 109" x1="8.443" y1="2.223" transform="translate(59.838 34.136)" fill="none" stroke="#1f6152" stroke-miterlimit="10" stroke-width="1"/>
        <line id="Line_110" data-name="Line 110" x1="16.202" y1="4.266" transform="translate(51.118 35.744)" fill="none" stroke="#1f6152" stroke-miterlimit="10" stroke-width="1"/>
        <line id="Line_111" data-name="Line 111" x1="9.8" y1="3.556" transform="translate(42.554 38.614)" fill="none" stroke="#1f6152" stroke-miterlimit="10" stroke-width="1"/>
        <line id="Line_112" data-name="Line 112" x1="23.413" y1="8.849" transform="translate(32.801 40.438)" fill="none" stroke="#1f6152" stroke-miterlimit="10" stroke-width="1"/>
        <line id="Line_113" data-name="Line 113" x1="9.564" y1="4.332" transform="translate(24.886 41.77)" fill="none" stroke="#1f6152" stroke-miterlimit="10" stroke-width="1"/>
        <line id="Line_114" data-name="Line 114" x1="22.03" y1="10.86" transform="translate(15.069 42.91)" fill="none" stroke="#1f6152" stroke-miterlimit="10" stroke-width="1"/>
        <line id="Line_115" data-name="Line 115" x1="13.763" y1="7.04" transform="translate(5.837 45.539)" fill="none" stroke="#1f6152" stroke-miterlimit="10" stroke-width="1"/>
        <line id="Line_116" data-name="Line 116" x1="17.51" y1="9.491" transform="translate(-1.178 48.084)" fill="none" stroke="#1f6152" stroke-miterlimit="10" stroke-width="1"/>
        <line id="Line_117" data-name="Line 117" x1="10.893" y1="6.201" transform="translate(-7.616 48.829)" fill="none" stroke="#1f6152" stroke-miterlimit="10" stroke-width="1"/>
        <line id="Line_118" data-name="Line 118" x1="8.72" y1="6.024" transform="translate(-15.143 48.513)" fill="none" stroke="#1f6152" stroke-miterlimit="10" stroke-width="1"/>
        <line id="Line_119" data-name="Line 119" x1="6.767" y1="5.912" transform="translate(-18.712 50.025)" fill="none" stroke="#1f6152" stroke-miterlimit="10" stroke-width="1"/>
      </g>
    </g>
    <g id="Group_4879" data-name="Group 4879" transform="translate(23.324 44.105)">
      <g id="Group_4878" data-name="Group 4878" transform="translate(0 0)">
        <path id="Path_10338" data-name="Path 10338" d="M26.661,15.229a43.716,43.716,0,0,0-23.8-2.889A45.616,45.616,0,0,0-8.575,15.3c-.591.253-.031.415.337.258A43.315,43.315,0,0,1,2.3,12.8,42.813,42.813,0,0,1,25.929,15.63c.219.1,1.046-.263.732-.4Z" transform="translate(0.411 25.147)" fill="#e0583d"/>
        <path id="Path_10339" data-name="Path 10339" d="M-.053,4.121a1.8,1.8,0,1,1,2.37-.943A1.8,1.8,0,0,1-.053,4.121Z" transform="translate(26.046 38.112)" fill="#e0583d"/>
        <path id="Path_10340" data-name="Path 10340" d="M-.053,4.121a1.8,1.8,0,1,1,2.37-.943A1.8,1.8,0,0,1-.053,4.121Z" transform="translate(26.827 45.366)" fill="#e0583d"/>
        <path id="Path_10341" data-name="Path 10341" d="M-.053,4.121a1.8,1.8,0,1,1,2.37-.943A1.8,1.8,0,0,1-.053,4.121Z" transform="translate(27.457 51.207)" fill="#e0583d"/>
        <path id="Path_10342" data-name="Path 10342" d="M-.053,4.121a1.8,1.8,0,1,1,2.371-.943A1.8,1.8,0,0,1-.053,4.121Z" transform="translate(17.1 58.877)" fill="#e0583d"/>
        <path id="Path_10343" data-name="Path 10343" d="M-.054,4.121a1.8,1.8,0,1,1,2.37-.943A1.8,1.8,0,0,1-.054,4.121Z" transform="translate(8.271 79.37)" fill="#e0583d"/>
        <path id="Path_10344" data-name="Path 10344" d="M-.054,4.121a1.8,1.8,0,1,1,2.371-.943A1.8,1.8,0,0,1-.054,4.121Z" transform="translate(11.104 72.795)" fill="#e0583d"/>
        <path id="Path_10345" data-name="Path 10345" d="M-.053,4.121a1.8,1.8,0,1,1,2.37-.943A1.8,1.8,0,0,1-.053,4.121Z" transform="translate(21.279 51.853)" fill="#e0583d"/>
        <path id="Path_10346" data-name="Path 10346" d="M-.053,4.121a1.8,1.8,0,1,1,2.371-.943A1.8,1.8,0,0,1-.053,4.121Z" transform="translate(16.514 53.795)" fill="#e0583d"/>
        <path id="Path_10347" data-name="Path 10347" d="M-.054,4.121a1.8,1.8,0,1,1,2.371-.943A1.8,1.8,0,0,1-.054,4.121Z" transform="translate(12.343 65.359)" fill="#e0583d"/>
        <path id="Path_10348" data-name="Path 10348" d="M24.975,20.233A67.048,67.048,0,0,0,.037,13.982a54.439,54.439,0,0,0-11.348.319c-.5.078-.682.77-.064.674A53.313,53.313,0,0,1-.261,14.657a66.429,66.429,0,0,1,24.725,6.207c.382.182,1.034-.382.511-.631Z" transform="translate(2.769 27.282)" fill="#e0583d"/>
        <path id="Path_10349" data-name="Path 10349" d="M19.5,21.774a71.37,71.37,0,0,0-22.42-9.745,32.428,32.428,0,0,0-9.056-1.038c-.3.02-.964.514-.358.474a31.189,31.189,0,0,1,8.536.96,70.382,70.382,0,0,1,22.456,9.711c.25.158,1.055-.225.842-.36Z" transform="translate(2.891 32.284)" fill="#e0583d"/>
        <path id="Path_10350" data-name="Path 10350" d="M12.816,27.046A201.606,201.606,0,0,1-6.893,17.591a74.489,74.489,0,0,1-6.42-3.871l-.39.286a22.465,22.465,0,0,1,5.812-.323A54.249,54.249,0,0,1,9.3,17.824,97.214,97.214,0,0,1,23.309,24.9c.213.129.953-.262.854-.322-7.307-4.4-15.141-8.155-23.482-10.1a37.905,37.905,0,0,0-12.4-1.074,12.877,12.877,0,0,0-2.061.346c-.031.008-.534.186-.391.286a74.317,74.317,0,0,0,6.42,3.871,201.582,201.582,0,0,0,19.709,9.456,1.188,1.188,0,0,0,.854-.322Z" transform="translate(4.405 28.876)" fill="#e0583d"/>
        <path id="Path_10351" data-name="Path 10351" d="M40.02,31.694c-7.763-3.483-15.764-8.436-19.954-16.132-1.285-2.36-2.5-5.379-2.283-8.144l-.906.265a7.116,7.116,0,0,0,1.413,3.969c2.593,4.034,7.06,6.727,11.257,8.795A85.074,85.074,0,0,0,43.9,25.755c.216.061,1.016-.3.738-.38C37.3,23.283,29.608,20.665,23.512,15.9c-2.327-1.818-4.739-4.2-5.535-7.141a4.126,4.126,0,0,1-.194-1.343c.01-.136-.883-.018-.906.265a13.125,13.125,0,0,0,1.008,5.351A27.945,27.945,0,0,0,26.8,24.68,55.49,55.49,0,0,0,39.17,32.03c.246.111.97-.281.85-.336Z" transform="translate(-26.591 35.961)" fill="#e0583d"/>
        <path id="Path_10352" data-name="Path 10352" d="M64.554,59.2c-10.615-6.151-21.327-16.332-21.7-29.471a12.7,12.7,0,0,1,.089-2.267.194.194,0,0,0-.106-.193,163.76,163.76,0,0,1-16.55-11.108Q21.152,12.42,16.1,8.555c-.275-.211-1.089.2-.7.5A290.058,290.058,0,0,0,39.607,26.281c.52.32,1.043.636,1.571.943a6.231,6.231,0,0,0,.852.375c.055.1-.051.5-.059.609a18.926,18.926,0,0,0,.063,3.114,28.833,28.833,0,0,0,3.938,11.752c4.17,7.161,10.794,12.521,17.879,16.627.3.174,1.114-.261.7-.5Z" transform="translate(-52.439 15.809)" fill="#e0583d"/>
        <path id="Path_10353" data-name="Path 10353" d="M33.871,36.816a37.293,37.293,0,0,1-16.355-16.66,37.287,37.287,0,0,1-3.5-15.232A27.9,27.9,0,0,1,14.265.4c.054-.368-.863-.2-.91.128C11.91,10.3,15.395,21,21.8,28.387a40.218,40.218,0,0,0,11.363,8.9c.274.149,1.1-.259.711-.47Z" transform="translate(-24.471 44.521)" fill="#e0583d"/>
      </g>
      <path id="Path_10354" data-name="Path 10354" d="M-1.846,6.355c10.565-5.62,18-7.39,9.381,7.59s-10.117,3.847-9.542-1.171S-1.846,6.355-1.846,6.355Z" transform="translate(-10.319 35.679)" fill="#e0583d"/>
    </g>
    <g id="Group_4880" data-name="Group 4880" transform="translate(-179.213 36.971)">
      <path id="Path_10355" data-name="Path 10355" d="M127.791,21.483c13.976,6.408,42.9-7.93,50.352,8.369S146.913,40.5,152.727,45.584s41.58-4.136,45.55,13.077c3.288,14.259-18.384,11.85-21.449,13.579s26.764,1.028,28.37,9.318-10.767,10.173-16.655,9.623,27.144,10.156,26.877,20.859-25.9-2.884-20.761,4.554,28.577,15.71,24.587,24.549-14.737-.248-20.626-.8,9.92,15.334,13.2,33.3-6.168,35.322-13.383,21.683-5.9-44.2-11.7-44.11-7.437,25.86-15.935,10.914,10.352-34.8.917-35.215-13.654,13.154-18.608,5.479,14.418-26.6,8.531-27.9-8.627,1.847-19.62,12.589c-10.568,10.327-20.644-7.434-9.007-20.21s15.957-24.26,9.3-20.126-13.624,9.369-20.46,13.045c-15.48,8.322-22.91-4.515-10.279-20.79S131.4,39.035,123.566,46.9s-28.827,22.346-20.128,5.959S127.791,21.483,127.791,21.483Z" transform="translate(0 0)" fill="#2b8d7b"/>
      <path id="Path_10356" data-name="Path 10356" d="M24.145,1.069C82.16,83.754,98.405,155.434,98.405,155.434" transform="translate(103.647 20.414)" fill="none" stroke="#1f6152" stroke-miterlimit="10" stroke-width="1"/>
      <path id="Path_10357" data-name="Path 10357" d="M46.145,28.588C31.625,30.93,14.82,8.556,14.82,8.556" transform="translate(166.995 109.415)" fill="none" stroke="#1f6152" stroke-miterlimit="10" stroke-width="1"/>
      <path id="Path_10358" data-name="Path 10358" d="M18.965,29.486C1.565,35.66-17.024,10.95-17.024,10.95" transform="translate(186.921 81.306)" fill="none" stroke="#1f6152" stroke-miterlimit="10" stroke-width="1"/>
      <path id="Path_10359" data-name="Path 10359" d="M23.181,23.358C7.717,31.1-13.486,13.384-13.486,13.384" transform="translate(173.62 60.145)" fill="none" stroke="#1f6152" stroke-miterlimit="10" stroke-width="1"/>
      <path id="Path_10360" data-name="Path 10360" d="M27.5,21.524C10.3,35.563-8.44,22.794-12.633,16" transform="translate(160.403 36.076)" fill="none" stroke="#1f6152" stroke-miterlimit="10" stroke-width="1"/>
      <path id="Path_10361" data-name="Path 10361" d="M24.628,14.55C8.915,27.826-4.474,20.67-8.718,14.4" transform="translate(143.813 17.758)" fill="none" stroke="#1f6152" stroke-miterlimit="10" stroke-width="1"/>
      <path id="Path_10362" data-name="Path 10362" d="M0,44.159C7.942,20.253,7.827,10.581,2.953,0" transform="translate(176.015 111.482)" fill="none" stroke="#1f6152" stroke-miterlimit="10" stroke-width="1"/>
      <path id="Path_10363" data-name="Path 10363" d="M0,38.4C19.171,13.794,8.295.028,8.295.028" transform="translate(159.256 87.561)" fill="none" stroke="#1f6152" stroke-miterlimit="10" stroke-width="1"/>
      <path id="Path_10364" data-name="Path 10364" d="M0,42.4C18.121,19.051,26,9.635,20.475,0" transform="translate(136.827 68.41)" fill="none" stroke="#1f6152" stroke-miterlimit="10" stroke-width="1"/>
      <path id="Path_10365" data-name="Path 10365" d="M0,44.711C27.048,14.8,28.618,4.75,26.012,0" transform="translate(114.724 40.789)" fill="none" stroke="#1f6152" stroke-miterlimit="10" stroke-width="1"/>
      <path id="Path_10366" data-name="Path 10366" d="M0,26.375C21.6,6.179,27.146,3.8,24.543.008" transform="translate(107.649 27.842)" fill="none" stroke="#1f6152" stroke-miterlimit="10" stroke-width="1"/>
    </g>
  </g>
</svg>
