<svg xmlns="http://www.w3.org/2000/svg" width="166.281" height="196.274" viewBox="0 0 166.281 196.274">
  <g id="Right" transform="translate(-636.384 -122.213) rotate(-19)">
    <g id="Group_4883" data-name="Group 4883" transform="translate(563.903 414.106)">
      <g id="Group_4882" data-name="Group 4882" transform="translate(0)">
        <path id="Path_10367" data-name="Path 10367" d="M586.065,461.565a30.071,30.071,0,0,0,7.94,14.448,31.363,31.363,0,0,0,6.245,5.2c.378.229.244-.149.009-.292a29.8,29.8,0,0,1-5.771-4.779,29.447,29.447,0,0,1-7.9-14.33c-.034-.16-.567-.478-.518-.248Z" transform="translate(-585.083 -453.81)" fill="#eab54e"/>
        <path id="Path_10368" data-name="Path 10368" d="M586.922,460.773a1.241,1.241,0,1,1-1.478-.945A1.241,1.241,0,0,1,586.922,460.773Z" transform="translate(-584.469 -453.161)" fill="#eab54e"/>
        <path id="Path_10369" data-name="Path 10369" d="M593,455.326a1.241,1.241,0,1,1-1.478-.945A1.24,1.24,0,0,1,593,455.326Z" transform="translate(-586.812 -451.062)" fill="#eab54e"/>
        <path id="Path_10370" data-name="Path 10370" d="M597.9,450.938a1.241,1.241,0,1,1-1.478-.945A1.24,1.24,0,0,1,597.9,450.938Z" transform="translate(-588.698 -449.372)" fill="#eab54e"/>
        <path id="Path_10371" data-name="Path 10371" d="M611.629,455.338a1.241,1.241,0,1,1-1.478-.945A1.241,1.241,0,0,1,611.629,455.338Z" transform="translate(-593.989 -451.067)" fill="#eab54e"/>
        <path id="Path_10372" data-name="Path 10372" d="M636.012,449.974a1.241,1.241,0,1,1-1.478-.945A1.24,1.24,0,0,1,636.012,449.974Z" transform="translate(-603.384 -449)" fill="#eab54e"/>
        <path id="Path_10373" data-name="Path 10373" d="M628.189,451.7a1.241,1.241,0,1,1-1.478-.945A1.241,1.241,0,0,1,628.189,451.7Z" transform="translate(-600.37 -449.663)" fill="#eab54e"/>
        <path id="Path_10374" data-name="Path 10374" d="M602.519,456.129a1.241,1.241,0,1,1-1.478-.945A1.24,1.24,0,0,1,602.519,456.129Z" transform="translate(-590.479 -451.372)" fill="#eab54e"/>
        <path id="Path_10375" data-name="Path 10375" d="M607.395,459.19a1.241,1.241,0,1,1-1.478-.945A1.241,1.241,0,0,1,607.395,459.19Z" transform="translate(-592.357 -452.551)" fill="#eab54e"/>
        <path id="Path_10376" data-name="Path 10376" d="M620.625,455.426a1.241,1.241,0,1,1-1.478-.945A1.241,1.241,0,0,1,620.625,455.426Z" transform="translate(-597.455 -451.101)" fill="#eab54e"/>
        <path id="Path_10377" data-name="Path 10377" d="M592.11,456.192a46.127,46.127,0,0,0,6.521,16.436,37.488,37.488,0,0,0,4.734,6.21c.246.25.7.071.4-.235a36.624,36.624,0,0,1-4.64-6.079,45.689,45.689,0,0,1-6.461-16.3c-.052-.286-.628-.424-.557-.032Z" transform="translate(-587.411 -451.678)" fill="#eab54e"/>
        <path id="Path_10378" data-name="Path 10378" d="M601.552,456.9a49.084,49.084,0,0,0,3.56,16.433,22.305,22.305,0,0,0,3.056,5.474c.133.162.674.332.408.009a21.436,21.436,0,0,1-2.892-5.152,48.417,48.417,0,0,1-3.593-16.439c-.012-.2-.55-.5-.54-.326Z" transform="translate(-591.051 -452.023)" fill="#eab54e"/>
        <path id="Path_10379" data-name="Path 10379" d="M602.906,457.051a138.708,138.708,0,0,1,2.633,14.8,51.018,51.018,0,0,1,.416,5.139l.317.1a15.462,15.462,0,0,1-2.513-3.115,37.332,37.332,0,0,1-4.588-11.261,66.889,66.889,0,0,1-1.673-10.668c-.014-.17-.529-.426-.522-.347a56.591,56.591,0,0,0,3.79,17.167,26.049,26.049,0,0,0,4.377,7.354,8.807,8.807,0,0,0,1.02,1.012c.017.014.318.223.317.1a51.235,51.235,0,0,0-.416-5.139,138.618,138.618,0,0,0-2.633-14.8c-.039-.174-.534-.4-.523-.347Z" transform="translate(-589.287 -450.037)" fill="#eab54e"/>
        <path id="Path_10380" data-name="Path 10380" d="M616.382,456.129c1.172,5.733,1.617,12.19-1,17.62a10.73,10.73,0,0,1-3.631,4.544l.511.4a4.9,4.9,0,0,0,1.649-2.382c1.211-3.068.922-6.643.392-9.818a58.476,58.476,0,0,0-2.8-10.147c-.052-.145-.576-.447-.508-.259,1.78,4.94,3.406,10.286,3.194,15.6a10.094,10.094,0,0,1-1.765,5.958,2.865,2.865,0,0,1-.672.648c-.081.049.344.5.511.4a9.027,9.027,0,0,0,2.583-2.711,19.216,19.216,0,0,0,2.924-9.655,38.165,38.165,0,0,0-.861-9.857c-.037-.182-.547-.429-.529-.34Z" transform="translate(-594.688 -451.708)" fill="#eab54e"/>
        <path id="Path_10381" data-name="Path 10381" d="M621.585,452.491c.827,8.4-.557,18.467-7.747,23.947a8.723,8.723,0,0,1-1.3.86.133.133,0,0,0-.065.136,112.746,112.746,0,0,1,.441,13.7c-.017,2.915-.062,5.832-.155,8.746-.007.239.55.527.561.192a199.279,199.279,0,0,0-.1-20.436c-.03-.419-.063-.838-.1-1.256a4.208,4.208,0,0,0-.133-.627c.033-.07.3-.171.364-.211a13.022,13.022,0,0,0,1.714-1.285,19.841,19.841,0,0,0,4.982-6.917c2.325-5.2,2.659-11.055,2.107-16.659-.023-.237-.593-.518-.561-.192Z" transform="translate(-595.258 -450.288)" fill="#eab54e"/>
        <path id="Path_10382" data-name="Path 10382" d="M626.971,450.838a24.695,24.695,0,0,1-9.84,23.89,19.219,19.219,0,0,1-2.624,1.679c-.227.117.235.561.438.457a24.743,24.743,0,0,0,12.167-15.9,27.654,27.654,0,0,0,.408-9.918c-.027-.213-.586-.51-.548-.208Z" transform="translate(-596.019 -449.659)" fill="#eab54e"/>
      </g>
      <path id="Path_10383" data-name="Path 10383" d="M608.8,490.875c-7.379-3.643-11.353-7.083.473-8.286s6.21,4.106,3.177,5.8S608.8,490.875,608.8,490.875Z" transform="translate(-591.136 -461.875)" fill="#eab54e"/>
    </g>
    <g id="Group_4884" data-name="Group 4884" transform="translate(567.947 358.438)">
      <path id="Path_10384" data-name="Path 10384" d="M620.617,532.4c-5.281-13.68-34.584-23.144-28.821-39.235s28.417,13.518,27.832,6.174-31.155-24.854-22.408-39.254c7.246-11.929,20.446,4.144,23.69,5s-17.6-18.519-13.175-25.25,14.126.218,17.782,4.514-11.78-25.007-4.473-32.139,15.769,19.21,17.212,10.709-9.061-29.753-.452-33.136,9.9,9.98,13.557,14.276,3.432-17.078,13.15-31.535,27.726-20.021,23.576-5.9-25.394,34.111-21.369,37.92,22.294-12.713,18.149,3.153-30.234,16.875-24.068,23.443,18.082.1,16.357,8.644-27.557,8.573-24.4,13.375,7.122,4.482,21.782,4.461c14.092-.018,9.152,18.821-7.3,19.8s-27.049,5.948-19.753,7.554,15.543,2.67,22.659,4.709c16.114,4.62,12.643,18.335-6.818,21.043s-33.49,7.282-22.9,7.119,34.566,3.926,17.716,9.329S620.617,532.4,620.617,532.4Z" transform="translate(-591.049 -358.438)" fill="#2b8d7b"/>
      <path id="Path_10385" data-name="Path 10385" d="M639.151,544.362c15.415-95.1,52.035-154.872,52.035-154.872" transform="translate(-609.583 -370.403)" fill="none" stroke="#1f6152" stroke-miterlimit="10" stroke-width="1"/>
      <path id="Path_10386" data-name="Path 10386" d="M670.5,419.537c11.477,8.065,8.062,34.535,8.062,34.535" transform="translate(-621.66 -381.98)" fill="none" stroke="#1f6152" stroke-miterlimit="10" stroke-width="1"/>
      <path id="Path_10387" data-name="Path 10387" d="M649.09,457.628c15.994,7.367,12.242,36.619,12.242,36.619" transform="translate(-613.412 -396.656)" fill="none" stroke="#1f6152" stroke-miterlimit="10" stroke-width="1"/>
      <path id="Path_10388" data-name="Path 10388" d="M629.632,497.79c15.714,5.007,18.405,31.222,18.405,31.222" transform="translate(-605.915 -412.131)" fill="none" stroke="#1f6152" stroke-miterlimit="10" stroke-width="1"/>
      <path id="Path_10389" data-name="Path 10389" d="M611.469,536.21c21.094,1.861,25.393,23.057,23.732,30.491" transform="translate(-598.917 -426.934)" fill="none" stroke="#1f6152" stroke-miterlimit="10" stroke-width="1"/>
      <path id="Path_10390" data-name="Path 10390" d="M605.705,585.39c19.57,1.392,23.952,15.192,22.678,22.3" transform="translate(-596.696 -445.884)" fill="none" stroke="#1f6152" stroke-miterlimit="10" stroke-width="1"/>
      <path id="Path_10391" data-name="Path 10391" d="M711.161,440.141c-21.339,11.042-27.7,17.725-31.413,28.2" transform="translate(-625.225 -389.919)" fill="none" stroke="#1f6152" stroke-miterlimit="10" stroke-width="1"/>
      <path id="Path_10392" data-name="Path 10392" d="M697.768,491.271c-29.474,4.045-31.209,20.688-31.209,20.688" transform="translate(-620.143 -409.619)" fill="none" stroke="#1f6152" stroke-miterlimit="10" stroke-width="1"/>
      <path id="Path_10393" data-name="Path 10393" d="M699.389,532.4c-27.92,3.885-39.573,5.069-42.21,15.332" transform="translate(-616.529 -425.465)" fill="none" stroke="#1f6152" stroke-miterlimit="10" stroke-width="1"/>
      <path id="Path_10394" data-name="Path 10394" d="M693.2,584.455c-38.388,2.427-46.149,8.246-47.531,13.225" transform="translate(-612.096 -445.523)" fill="none" stroke="#1f6152" stroke-miterlimit="10" stroke-width="1"/>
      <path id="Path_10395" data-name="Path 10395" d="M675.472,626.248c-28.2-.581-33.572-2.647-34.316,1.673" transform="translate(-610.355 -461.24)" fill="none" stroke="#1f6152" stroke-miterlimit="10" stroke-width="1"/>
    </g>
    <path id="Path_10396" data-name="Path 10396" d="M588.615,511.773c.025-.106.05-.213.072-.32l.01-.049q.032-.155.06-.309l.007-.037q.028-.161.054-.323l.01-.065c.016-.106.031-.211.044-.317l.007-.057c.013-.109.026-.217.036-.324v-.007c.01-.11.02-.219.028-.328l0-.057c.007-.1.013-.209.018-.313l0-.058c0-.107.008-.213.01-.32v-.019c0-.1,0-.208,0-.312v-.041c0-.1,0-.207-.007-.309l0-.053c0-.1-.009-.206-.015-.308l0-.03c-.006-.1-.014-.2-.023-.306V507.5c-.009-.1-.02-.2-.031-.3l-.005-.044c-.012-.1-.024-.2-.038-.3l0-.034c-.029-.2-.063-.4-.1-.594l-.006-.031q-.029-.142-.061-.28l-.007-.031q-.067-.288-.147-.56l0-.014c-.026-.089-.054-.177-.082-.263l-.008-.025c-.029-.087-.059-.173-.09-.256v0q-.1-.259-.2-.5l-.008-.017c-.035-.078-.071-.154-.108-.228l0-.008c-.076-.152-.156-.3-.239-.433l0-.009c-.041-.068-.083-.133-.125-.2l-.006-.009a4.16,4.16,0,0,0-.414-.521l-.007-.007a2.922,2.922,0,0,0-.455-.395l-.006,0c-.052-.036-.105-.069-.159-.1h0a2.041,2.041,0,0,0-.331-.154h0c-.055-.02-.111-.037-.168-.051H586.1c-.77-.191-1.626.141-2.481,1.186-3.909,4.775-2.378,12.552-1.64,15.382q-1.363-1.261-2.772-2.477-.959-.83-1.93-1.647l-.9-.758c-2.4-2-4.817-3.979-7.183-6.018.042-.023.081-.047.122-.071.111-.063.222-.127.329-.192.063-.038.125-.077.186-.117.1-.06.193-.121.287-.183.064-.042.127-.085.19-.129.089-.061.178-.122.264-.184l.187-.137c.084-.062.167-.125.249-.188.06-.047.12-.094.179-.142q.121-.1.239-.2l.17-.144c.079-.068.156-.138.232-.207.052-.047.105-.094.157-.143.079-.074.156-.149.232-.224.046-.045.092-.089.137-.135.085-.086.168-.173.251-.261.033-.036.068-.071.1-.106q.172-.186.336-.377l.021-.025q.151-.178.3-.358l.1-.125c.068-.089.136-.176.2-.266l.108-.151c.059-.082.117-.165.174-.248.037-.053.072-.108.108-.162q.08-.121.158-.242l.1-.168c.049-.081.1-.161.145-.243.033-.056.066-.113.1-.169q.07-.124.136-.247c.03-.056.06-.112.09-.168q.066-.127.13-.256c.027-.054.054-.108.08-.162.044-.091.085-.183.127-.274l.067-.147c.047-.107.092-.214.136-.322.014-.034.029-.067.042-.1q.086-.214.164-.428c.007-.017.012-.035.019-.053.044-.124.088-.248.128-.372.016-.047.03-.093.045-.14.03-.1.06-.19.089-.285.016-.055.031-.109.047-.164.025-.087.049-.174.073-.261.015-.058.029-.116.044-.174q.031-.125.061-.251c.014-.059.026-.119.04-.178.018-.082.035-.164.051-.245.012-.06.024-.12.035-.18.015-.081.03-.162.043-.243.01-.059.02-.119.029-.178.013-.082.025-.164.036-.245.008-.057.017-.114.024-.171.01-.085.02-.169.029-.253.005-.053.012-.106.017-.159.009-.1.017-.19.024-.285,0-.041.007-.082.01-.124.009-.133.016-.266.021-.4,0-.044,0-.087,0-.13,0-.089,0-.178.005-.265,0-.057,0-.113,0-.169,0-.074,0-.147,0-.22s0-.119-.006-.179,0-.136-.009-.2-.007-.121-.011-.182-.009-.129-.014-.192-.011-.122-.017-.183-.012-.122-.019-.182-.014-.122-.022-.183-.016-.116-.025-.173-.018-.121-.028-.181-.019-.11-.029-.164-.021-.121-.033-.181-.021-.1-.033-.152-.026-.122-.04-.183c-.01-.044-.021-.086-.033-.129q-.088-.351-.2-.676c-.012-.035-.023-.071-.036-.105-.021-.059-.044-.117-.066-.175-.014-.036-.028-.074-.042-.109-.023-.056-.046-.111-.07-.165-.015-.036-.031-.071-.047-.106-.025-.053-.049-.105-.075-.156l-.05-.1c-.026-.051-.053-.1-.08-.149l-.052-.092c-.028-.049-.057-.1-.086-.143l-.054-.082c-.03-.046-.061-.092-.093-.136-.017-.024-.034-.047-.052-.07-.033-.045-.067-.09-.1-.132-.015-.018-.03-.035-.044-.052-.038-.046-.077-.091-.116-.133l-.007-.007a2.939,2.939,0,0,0-.461-.4c-.012-.008-.023-.017-.034-.025-.043-.029-.087-.055-.131-.081l-.055-.033c-.042-.023-.085-.043-.127-.063l-.064-.03c-.042-.018-.085-.034-.128-.049l-.069-.023c-.043-.014-.086-.025-.13-.036l-.071-.015c-.044-.009-.089-.017-.133-.023l-.072-.007c-.045,0-.092-.008-.138-.009h-.07c-.048,0-.1,0-.145.006l-.058.007a3.084,3.084,0,0,0-1.61.773c-4.587,3.849-3.347,13.884-2.837,16.975-1.622-1.415-3.214-2.864-4.749-4.379h0l-.061-.061-.139-.136,0-.006-.873-.881a63.639,63.639,0,0,1-5.271-6.191c.246-.205.569-.483.941-.826l.12-.111c.162-.151.334-.314.511-.488l.135-.132q.15-.149.305-.308c.074-.075.148-.152.224-.231l.175-.184c.193-.206.39-.422.589-.647q.149-.17.3-.345a20.371,20.371,0,0,0,3.382-5.369l0,0c.041-.1.079-.2.118-.3l.034-.089c.029-.076.057-.152.085-.228.009-.027.02-.054.029-.081.035-.1.069-.2.1-.3l.017-.052c.027-.082.053-.164.078-.246l.028-.089c.023-.078.046-.156.068-.233.006-.021.012-.041.018-.062.027-.1.053-.191.077-.286l.017-.066c.019-.075.037-.15.055-.224l.018-.081c.02-.087.039-.173.056-.258l0-.021q.028-.14.052-.277l.012-.069c.012-.073.024-.144.035-.215l.01-.065c.013-.09.025-.18.036-.269v-.009c.01-.085.019-.168.026-.251l.005-.062c.007-.072.012-.143.017-.214l0-.042c0-.085.009-.169.011-.252v-.027c0-.073,0-.145,0-.216v-.05c0-.076,0-.151-.006-.225v-.007c0-.079-.009-.156-.015-.233l0-.029c-.006-.066-.013-.131-.021-.195l0-.033q-.029-.218-.073-.415l-.006-.026c-.014-.061-.029-.12-.046-.178l0-.015a3.018,3.018,0,0,0-.127-.357l-.008-.019a2.349,2.349,0,0,0-.164-.312h0c-.03-.047-.06-.091-.092-.134l-.009-.012a1.634,1.634,0,0,0-.215-.234l-.007-.005c-.037-.033-.076-.063-.116-.092l-.007,0a1.415,1.415,0,0,0-.267-.148l-.012,0c-.77-.311-1.9.036-3.381,1.335-3.52,3.09-3.739,10.855-3.686,13.842a63.043,63.043,0,0,1-3.953-6.194l-.688-1.264q-.332-.628-.652-1.264-1.272-2.543-2.309-5.194l.258-.175.156-.106.354-.245c.38-.266.843-.6,1.381-.99q.269-.2.563-.417l.3-.225c1.021-.77,2.246-1.725,3.647-2.876.066-.055.132-.111.2-.167l.065-.057.129-.115.074-.068.116-.108.076-.074.109-.108.076-.076.106-.109c.025-.026.049-.051.073-.077l.106-.113.069-.076.109-.123.061-.07c.044-.051.087-.1.13-.154l.035-.041c.054-.066.107-.132.16-.2L557.6,474c.037-.048.074-.1.111-.144.02-.026.039-.052.058-.079l.093-.126.061-.086c.029-.04.057-.081.085-.121s.041-.06.061-.09l.08-.12.06-.092.077-.121.057-.092.076-.125.053-.089.079-.137.044-.078c.039-.07.078-.141.116-.211l.036-.07.076-.146.047-.095c.02-.041.041-.082.06-.123s.032-.068.048-.1l.053-.116.047-.106.049-.112q.024-.054.046-.109c.015-.036.03-.073.045-.109l.044-.109.041-.108.042-.111.037-.105c.013-.038.027-.076.04-.113l.032-.1c.026-.081.052-.162.076-.243.008-.026.016-.052.023-.078.012-.042.023-.084.035-.126s.017-.058.024-.088.021-.083.031-.124.015-.059.021-.088.019-.082.028-.124.013-.058.019-.087.017-.083.025-.124.01-.056.015-.084.015-.084.022-.126c.005-.026.009-.052.013-.078.007-.043.013-.087.019-.13,0-.022.006-.045.009-.067.006-.046.012-.092.017-.138l0-.038c.018-.173.029-.343.033-.51v-.028c0-.047,0-.095,0-.142v-.05c0-.045,0-.089,0-.133,0-.018,0-.037,0-.055,0-.044,0-.087-.008-.13l0-.054c0-.043-.008-.086-.012-.128,0-.017,0-.034-.006-.05-.006-.044-.011-.087-.017-.13l-.007-.04c-.007-.046-.015-.092-.024-.137l0-.014a3.853,3.853,0,0,0-.17-.605l-.007-.018c-.016-.041-.033-.082-.05-.122l-.013-.031c-.017-.039-.035-.076-.053-.114l-.017-.034c-.018-.037-.038-.073-.058-.109l-.018-.031c-.021-.036-.042-.072-.064-.107l-.017-.026c-.024-.036-.048-.073-.073-.108l-.009-.012a2.652,2.652,0,0,0-.4-.443h0c-.034-.029-.068-.057-.1-.085l-.022-.017c-.033-.026-.068-.05-.1-.074l-.031-.022c-.034-.023-.07-.045-.105-.067l-.035-.021-.11-.062-.035-.018c-.039-.02-.078-.039-.119-.058l-.028-.012a3.87,3.87,0,0,0-1.561-.3c-5.7-.038-7.355,11.191-7.759,15.111a62.693,62.693,0,0,1-2.569-8.828l.005-.017-.235-1.118q-.513-2.655-.79-5.344l.036-.042q.113-.132.221-.267l.026-.033c.069-.09.138-.18.2-.272l.021-.028c.068-.095.133-.191.2-.288l.036-.055q.094-.144.182-.291l.031-.052c.061-.1.12-.206.178-.311l.006-.012c.057-.1.111-.208.164-.313l.025-.05q.077-.156.149-.315l.028-.062c.048-.107.094-.215.139-.323l.018-.047q.066-.161.127-.326l.01-.027c.042-.113.081-.227.12-.342l.021-.062c.038-.112.073-.224.107-.338l.018-.063c.035-.117.068-.234.1-.352l.007-.025c.03-.115.06-.231.087-.347l.012-.052q.041-.176.077-.353l.015-.069q.036-.177.068-.355l.009-.055c.022-.12.041-.24.06-.361l0-.018c.018-.124.036-.248.051-.371l.009-.065q.022-.18.041-.36l.007-.069q.018-.184.033-.369l0-.036c.009-.12.017-.24.023-.36l0-.047c.007-.122.012-.244.016-.366l0-.071c0-.121.006-.242.007-.363v-.061c0-.125,0-.251,0-.376v0c0-.126,0-.252-.009-.378l0-.06c0-.121-.009-.24-.016-.36l0-.069c-.007-.121-.015-.242-.024-.362l0-.041c-.009-.119-.019-.237-.03-.354l0-.036c-.012-.12-.025-.24-.038-.358l-.007-.066q-.021-.175-.044-.349l-.009-.058c-.017-.121-.034-.24-.053-.359v-.006c-.018-.118-.039-.235-.059-.353l-.009-.051c-.02-.113-.042-.226-.064-.337l-.012-.06c-.023-.113-.046-.224-.071-.334l-.009-.039c-.025-.11-.05-.219-.076-.327l-.006-.023c-.027-.11-.055-.219-.084-.326l-.015-.054q-.042-.157-.087-.311l-.015-.05c-.031-.106-.063-.21-.1-.313l0-.01q-.049-.154-.1-.3l-.012-.036q-.051-.147-.1-.29l-.018-.048c-.036-.095-.072-.189-.109-.28l-.013-.034q-.057-.141-.116-.278l0-.006c-.04-.092-.081-.181-.122-.269l-.018-.038q-.06-.127-.122-.249l-.019-.037c-.042-.083-.085-.165-.129-.244l-.006-.011q-.065-.119-.133-.232l-.012-.02c-.044-.074-.09-.147-.135-.217l-.021-.032q-.068-.1-.138-.2l-.017-.023c-.1-.135-.2-.261-.3-.377l-.019-.022c-.049-.056-.1-.109-.147-.16l-.022-.022c-.05-.052-.1-.1-.152-.147l-.009-.009c-.052-.047-.1-.091-.156-.133l-.01-.008c-.052-.041-.1-.079-.157-.115l-.023-.016c-.052-.034-.1-.067-.156-.1l-.02-.011a2.006,2.006,0,0,0-.331-.147l-.018-.007c-.054-.017-.108-.031-.162-.044l-.024,0a1.663,1.663,0,0,0-.165-.025h-.013c-.056,0-.112-.007-.168-.006h-.007a1.589,1.589,0,0,0-.168.015l-.024,0a1.6,1.6,0,0,0-.165.034l-.022.006a1.716,1.716,0,0,0-.172.057h0a4.162,4.162,0,0,0-1.908,2.161c-3.577,7.126,1.017,13.795,2.818,16q.275,2.762.795,5.491l.2,1.01a64.273,64.273,0,0,0,2.607,9.134c-2.614-2.823-9.469-9.462-14.329-7.277a3.38,3.38,0,0,0-2.149,2.132l0,.015a2.315,2.315,0,0,0-.05.731v.009a2.983,2.983,0,0,0,.175.757l0,.009a4.314,4.314,0,0,0,.377.764l.009.014c.03.049.062.1.095.148h0a6.479,6.479,0,0,0,.455.6l.022.025c.039.046.078.09.118.135l.017.018q.193.213.409.422l.018.018c.042.041.086.082.13.122l.044.04c.042.039.085.078.129.117l.044.038q.214.187.445.369l.052.041.131.1.073.055.13.1.079.057.132.093.066.045q.125.086.253.17l.1.064.124.077.108.067.122.074.118.07.117.068.175.1.146.08.148.08.112.058.14.072.113.056.151.073.1.049.247.114.066.029.2.085.1.042.167.069.105.042.176.068.092.035c.088.033.176.065.265.1l.039.014.232.079.092.03.184.058.1.03.191.056.085.025c.091.025.182.05.274.073l.021,0c.085.022.169.042.254.062l.089.02.191.042.1.02.194.038.084.015c.092.017.184.032.275.046h.008c.089.014.177.026.266.037l.085.01.191.022.095.009.189.016.085.006q.135.009.269.015a33.876,33.876,0,0,0,3.413-.018q.395-.024.741-.058c.232-.022.447-.047.648-.074.3-.041.57-.087.81-.135.08-.016.157-.033.23-.049a7.231,7.231,0,0,0,.735-.2c.05-.017.1-.034.141-.05.074-.028.14-.054.2-.081q1.059,2.68,2.353,5.262l.69,1.333a64.24,64.24,0,0,0,4.346,7.041c-3.421-1.965-13.46-7.167-16.178-2.269a6.543,6.543,0,0,0-.3.606l0,0c-.021.049-.041.1-.06.144l0,.009c-.018.046-.036.092-.052.138l0,.011c-.016.045-.031.09-.046.134l0,.013c-.014.044-.027.087-.039.129l0,.015q-.017.064-.033.125l0,.016c-.01.041-.019.082-.028.122l0,.017c-.008.04-.015.08-.022.119l0,.017c-.007.039-.012.077-.017.116l0,.017c0,.038-.009.076-.012.113l0,.017c0,.038,0,.074-.007.111v.017c0,.037,0,.073,0,.109v.017c0,.036,0,.071,0,.106v.016c0,.035,0,.07.007.1v.015c0,.034.007.068.012.1l0,.015c0,.034.01.068.017.1l0,.014c.006.033.014.066.022.1l0,.013c.009.033.017.065.026.1l0,.012q.015.048.031.1l0,.01c.012.032.023.063.036.095l0,.009c.014.032.027.063.042.094l0,.007c.015.031.031.062.047.093l0,0,.052.093,0,0c.019.031.038.062.058.092h0a4.294,4.294,0,0,0,2.5,1.548h0l.146.04.005,0,.145.037.011,0,.143.034.015,0,.143.032.017,0,.142.029.021,0,.141.027.025,0,.141.025.028,0,.141.023.03,0,.141.021.032,0,.141.019.034,0,.141.017.036,0,.142.016.038,0,.142.014.04,0,.142.012.042,0,.143.01.042,0,.143.009.045,0,.144.008.045,0,.145.007.046,0,.146,0h.047l.146,0h.048l.148,0h.439l.152,0h.048l.152,0h.044l.157,0,.044,0,.159-.006.042,0,.162-.007.036,0,.168-.009.03,0,.175-.01h.018l.188-.012h0c.476-.034.956-.081,1.438-.139h0l.172-.021.037,0,.153-.02.057-.007.144-.02.065-.009.136-.02.073-.01.13-.02.079-.012.125-.02.084-.014.122-.02.087-.015.12-.021.087-.015.119-.022.09-.017.114-.022.092-.017.114-.023.093-.018.111-.023.095-.02.108-.023.1-.021.1-.023.1-.022.1-.024.1-.023.1-.024.1-.023.1-.025.1-.025.1-.025.1-.025.1-.026.1-.026.1-.026.1-.026.1-.027.1-.027.1-.028.1-.028.1-.028.1-.028.094-.028.1-.03.093-.029.1-.03.091-.029.1-.031.091-.03.094-.031.089-.03.1-.033.085-.03.094-.033.085-.03.092-.034.085-.031.09-.034.084-.032.091-.035.081-.031.09-.036.08-.032.089-.036.079-.033.087-.037.077-.033.087-.037.076-.033.087-.039.073-.033.088-.041.069-.033.092-.044.027-.013q1.791,2.426,3.81,4.676.569.633,1.155,1.249l.726.755c1.552,1.589,3.176,3.1,4.837,4.578-3.356-1.314-10.591-3.228-15.686,1.985a4.693,4.693,0,0,0-1.539,2.561v.008a1.652,1.652,0,0,0-.007.183v.011a1.485,1.485,0,0,0,.014.176v0a1.388,1.388,0,0,0,.089.335v0a1.346,1.346,0,0,0,.072.151l.005.009a1.425,1.425,0,0,0,.091.142l0,0a1.865,1.865,0,0,0,.386.386l.009.006q.076.056.159.109l.008,0a3.283,3.283,0,0,0,.581.285l.012.005c.07.026.142.052.216.076l.013,0a6.125,6.125,0,0,0,.749.185l.016,0c.087.016.175.03.265.044l.022,0c.091.013.184.026.279.036h.007c.194.022.4.039.6.05h.02c.1,0,.2.009.3.012h.03c.1,0,.207,0,.313,0h.021c.218,0,.441,0,.67-.013h.023c.109,0,.221-.01.333-.018l.041,0c.111-.007.223-.015.336-.025l.035,0q.354-.03.72-.075l.025,0c.117-.015.235-.03.354-.047l.05-.007c.117-.017.234-.034.352-.054l.049-.007.365-.062.02,0q.184-.033.371-.07l.025,0c.122-.024.245-.05.368-.076l.055-.012q.18-.039.361-.081l.058-.013c.122-.028.245-.058.368-.089l.039-.01c.124-.031.248-.063.373-.1l.02,0c.125-.033.25-.068.375-.1l.058-.017c.121-.034.242-.071.363-.107l.065-.02q.183-.056.366-.115l.05-.016c.126-.041.252-.083.378-.126l.007,0c.127-.043.253-.088.378-.133l.056-.02c.121-.044.24-.089.36-.134l.068-.026c.119-.046.239-.093.358-.141l.057-.023q.186-.076.372-.154l.012-.006q.184-.077.365-.159l.049-.022q.177-.079.353-.161l.065-.031q.173-.082.346-.167l.06-.03c.118-.058.235-.117.352-.178l.026-.013q.172-.09.342-.183l.041-.022q.17-.093.337-.189l.061-.035q.164-.095.326-.192l.059-.036q.165-.1.327-.2l.034-.022q.16-.1.319-.209l.028-.018q.16-.108.316-.218l.053-.037q.151-.108.3-.218l.055-.042c.1-.075.2-.151.3-.228l.037-.03c.1-.078.2-.157.292-.238l.014-.012c.1-.081.192-.164.286-.247l.045-.04q.135-.121.266-.245l.049-.047c.049-.046.1-.092.144-.139,2.52,2.178,5.107,4.284,7.658,6.427l1.2,1.013c1.406,1.2,2.8,2.408,4.151,3.656-3.7.07-15.133.559-17.254,3.91a2.485,2.485,0,0,0-.09,2.8l.021.032a3.244,3.244,0,0,0,.314.409l.028.03a4.03,4.03,0,0,0,.4.377l.032.027c.074.06.149.119.229.176l.007.005c.076.055.156.109.237.161l.036.023c.085.053.171.105.261.156l.023.013q.126.07.259.136l.038.018c.094.047.19.091.288.134l.039.017q.137.059.279.114l.036.013q.153.058.312.111l.052.017c.1.032.2.063.3.092l.03.009q.163.046.331.087l.064.015c.108.025.216.05.326.072l.017,0c.115.023.231.043.348.062l.072.011q.352.054.715.084l.078.006c.12.009.242.017.363.021h.021c.116,0,.232.006.348.007h.082c.121,0,.243,0,.366-.007l.047,0c.11,0,.221-.012.332-.02l.081-.006c.122-.01.244-.022.366-.037l.064-.009q.161-.02.323-.046l.076-.012q.183-.03.363-.068l.074-.017c.107-.023.213-.047.32-.074l.066-.016q.18-.047.359-.1l.08-.025q.16-.05.319-.106l.052-.018c.117-.042.234-.088.35-.135l.082-.034c.108-.046.216-.093.323-.143l.031-.014c.114-.055.227-.112.339-.172l.081-.044c.113-.062.226-.125.336-.193h0a22.257,22.257,0,0,0,6.571-6.04c.309-.435.547-.811.724-1.108a68.055,68.055,0,0,1,6.229,6.609h0l.034.044.078.095h0l.616.78.006,0,.132.171.022.028h0q.608.789,1.188,1.607a54.614,54.614,0,0,1,9.164,22.018c.134.762,1.268.46,1.135-.3a55.5,55.5,0,0,0-7.583-19.748q-1.3-2.078-2.779-4l-.795-1.015a71.257,71.257,0,0,0-6.621-7.124c.094-.052.187-.105.279-.159l.068-.041c.12-.071.237-.143.353-.217l.031-.02q.167-.108.327-.219l.049-.033q.162-.114.319-.232l.063-.047c.1-.079.206-.159.305-.241l.044-.036c.1-.08.192-.16.285-.243l.028-.025c.1-.085.19-.171.282-.259l.055-.052c.089-.086.177-.173.262-.261l.047-.05q.132-.136.258-.275l0,0c.085-.094.167-.189.247-.285l.044-.053c.077-.092.151-.185.224-.279l.045-.058c.074-.1.146-.193.216-.29l.021-.03q.1-.141.2-.283l.033-.048q.1-.146.189-.3l.039-.064c.06-.1.12-.2.177-.3l.028-.048q.082-.146.16-.292l.02-.036c.054-.1.106-.206.157-.31l.031-.065c.049-.1.1-.2.143-.307l.027-.06q.069-.158.134-.315l0-.012q.065-.161.126-.324c.008-.021.016-.042.023-.063q.058-.156.111-.313l.022-.067c.036-.107.071-.214.1-.321l.01-.033q.046-.154.089-.309l.015-.054c.028-.106.055-.212.081-.318Z" transform="translate(0 -33.753)" fill="#e0583d"/>
  </g>
</svg>
