<svg xmlns="http://www.w3.org/2000/svg" width="210.548" height="200.689" viewBox="0 0 210.548 200.689">
  <g id="decor-08" transform="translate(59.646 184.122) rotate(-131)">
    <g id="Group_4883" data-name="Group 4883" transform="translate(0.568 91.699)">
      <g id="Group_4882" data-name="Group 4882" transform="translate(0 0)">
        <path id="Path_10367" data-name="Path 10367" d="M-.037,23.768A29.424,29.424,0,0,1-.377,7.639,30.689,30.689,0,0,1,2.37.177c.208-.379.28.007.15.243A29.156,29.156,0,0,0-.032,7.293,28.814,28.814,0,0,0,.28,23.3c.049.153-.246.683-.317.463Z" transform="translate(-2.925 27.476)" fill="#eab54e"/>
        <path id="Path_10368" data-name="Path 10368" d="M1.6,1.292a1.214,1.214,0,1,0-.79,1.524A1.214,1.214,0,0,0,1.6,1.292Z" transform="translate(-3.247 49.354)" fill="#eab54e"/>
        <path id="Path_10369" data-name="Path 10369" d="M1.6,1.292a1.214,1.214,0,1,0-.79,1.524A1.213,1.213,0,0,0,1.6,1.292Z" transform="translate(1.557 50.363)" fill="#eab54e"/>
        <path id="Path_10370" data-name="Path 10370" d="M1.6,1.292a1.214,1.214,0,1,0-.79,1.524A1.214,1.214,0,0,0,1.6,1.292Z" transform="translate(5.426 51.176)" fill="#eab54e"/>
        <path id="Path_10371" data-name="Path 10371" d="M1.6,1.292a1.214,1.214,0,1,0-.79,1.524A1.214,1.214,0,0,0,1.6,1.292Z" transform="translate(11.257 44.754)" fill="#eab54e"/>
        <path id="Path_10372" data-name="Path 10372" d="M1.6,1.292a1.214,1.214,0,1,0-.79,1.524A1.213,1.213,0,0,0,1.6,1.292Z" transform="translate(25.571 40.215)" fill="#eab54e"/>
        <path id="Path_10373" data-name="Path 10373" d="M1.6,1.292a1.214,1.214,0,1,0-.79,1.524A1.214,1.214,0,0,0,1.6,1.292Z" transform="translate(20.979 41.672)" fill="#eab54e"/>
        <path id="Path_10374" data-name="Path 10374" d="M1.6,1.292a1.214,1.214,0,1,0-.79,1.524A1.214,1.214,0,0,0,1.6,1.292Z" transform="translate(6.274 47.082)" fill="#eab54e"/>
        <path id="Path_10375" data-name="Path 10375" d="M1.6,1.292a1.214,1.214,0,1,0-.79,1.524A1.214,1.214,0,0,0,1.6,1.292Z" transform="translate(7.893 44.021)" fill="#eab54e"/>
        <path id="Path_10376" data-name="Path 10376" d="M1.6,1.292a1.214,1.214,0,1,0-.79,1.524A1.214,1.214,0,0,0,1.6,1.292Z" transform="translate(15.916 42.003)" fill="#eab54e"/>
        <path id="Path_10377" data-name="Path 10377" d="M21.11,25.042A45.135,45.135,0,0,1,18.595,7.924,36.679,36.679,0,0,1,19.568.345c.086-.332.562-.4.456,0a35.838,35.838,0,0,0-.958,7.421,44.706,44.706,0,0,0,2.5,16.973c.1.267-.325.667-.456.3Z" transform="translate(-19.337 27.13)" fill="#eab54e"/>
        <path id="Path_10378" data-name="Path 10378" d="M16.826,22.2A48.025,48.025,0,0,1,11.8,6.532,21.82,21.82,0,0,1,11.715.4c.034-.2.409-.611.341-.208a20.967,20.967,0,0,0,.07,5.78,47.375,47.375,0,0,0,5,15.688c.09.178-.222.691-.3.54Z" transform="translate(-10.312 26.83)" fill="#eab54e"/>
        <path id="Path_10379" data-name="Path 10379" d="M23.025,18.972A135.74,135.74,0,0,0,18.014,5.14,49.909,49.909,0,0,0,15.852.582L16.07.339a15.131,15.131,0,0,0-.606,3.87A36.53,36.53,0,0,0,17.086,16a65.444,65.444,0,0,0,3.8,9.859c.071.151-.24.62-.273.55A55.373,55.373,0,0,1,15.427,10a25.49,25.49,0,0,1,.111-8.374A8.624,8.624,0,0,1,15.907.273c.008-.02.16-.345.218-.242A50.1,50.1,0,0,1,18.287,4.59,135.592,135.592,0,0,1,23.3,18.422c.052.167-.257.6-.273.55Z" transform="translate(-14.917 26.717)" fill="#eab54e"/>
        <path id="Path_10380" data-name="Path 10380" d="M21.4,19.837C19.59,14.405,16.809,8.716,11.936,5.394a10.5,10.5,0,0,0-5.3-2.074l.238-.588A4.79,4.79,0,0,1,9.437,3.943c2.527,2.007,4.031,5.179,5.135,8.128a57.211,57.211,0,0,1,2.592,9.969c.027.148-.269.661-.3.468-.908-5.057-2.146-10.382-4.926-14.783A9.877,9.877,0,0,0,7.523,3.539a2.8,2.8,0,0,0-.887-.22c-.092,0,.047-.592.238-.588a8.834,8.834,0,0,1,3.515,1.033,18.8,18.8,0,0,1,7.2,6.751,37.357,37.357,0,0,1,4.093,8.774c.057.173-.254.631-.282.547Z" transform="translate(-5.182 24.099)" fill="#eab54e"/>
        <path id="Path_10381" data-name="Path 10381" d="M39.475,40.839c-3.408-7.52-9.507-15.376-18.281-16.5a8.536,8.536,0,0,0-1.524-.092.13.13,0,0,1-.122-.084,110.327,110.327,0,0,0-6.329-11.827Q11.057,8.641,8.808,5c-.123-.2.209-.716.381-.437A195,195,0,0,1,19.1,21.928c.18.37.356.741.526,1.115a4.117,4.117,0,0,1,.194.6c.062.043.336,0,.412,0a12.741,12.741,0,0,1,2.081.251,19.414,19.414,0,0,1,7.606,3.424c4.516,3.272,7.662,8.068,9.936,13.087.1.213-.249.729-.382.437Z" transform="translate(-18.243 2.709)" fill="#eab54e"/>
        <path id="Path_10382" data-name="Path 10382" d="M34.655,22.464A25.1,25.1,0,0,0,24.594,10.4a25.1,25.1,0,0,0-9.965-3.362,18.809,18.809,0,0,0-3.045-.139c-.25.012-.075-.591.147-.6a24.212,24.212,0,0,1,18.089,7.52,27.061,27.061,0,0,1,5.2,8.205c.081.193-.247.719-.362.445Z" transform="translate(-9.004 19.69)" fill="#eab54e"/>
      </g>
      <path id="Path_10383" data-name="Path 10383" d="M1.812,3.752c-4.471,6.7-6.155,11.557,4.455,6.79s3.254-6.517-.145-6.468S1.812,3.752,1.812,3.752Z" transform="translate(-1.035 21.328)" fill="#eab54e"/>
    </g>
    <g id="Group_4884" data-name="Group 4884" transform="translate(-136.627 0)">
      <path id="Path_10384" data-name="Path 10384" d="M107.805,33.309c2.218,14.176-17.984,36.532-5.228,47.348S120.045,55.3,123.142,61.809s-14.241,36.3.216,44.227c11.977,6.563,15.3-13.515,17.627-15.83s-5.852,24.3,1.189,27.843,11.864-7.1,12.86-12.525,2.252,26.955,11.934,29.423,3.965-23.994,9.346-17.5,6.878,29.646,15.829,28.3,3.508-13.3,4.5-18.731,11.264,12.792,26.571,20.289,33.291,3.4,22.866-6.533-38.208-16.482-36.661-21.679,25.112-.134,13.837-11.551-33.876.492-31.865-8.091,15.272-8.935,9.632-15.328-27.547,6.217-27.218.6,3.843-7.283,16.276-14.438c11.951-6.879-1.452-20.427-15.874-13.206s-25.832,8.193-20.434,3.263,11.865-9.867,16.9-15.077c11.394-11.8,1.744-21.722-16.073-14.5S122.659,40.99,131.71,35.948s27.371-20.238,10.448-16.573S107.805,33.309,107.805,33.309Z" fill="#2b8d7b"/>
      <path id="Path_10385" data-name="Path 10385" d="M44.094,25.458C103.683,98.5,163.96,131.239,163.96,131.239" transform="translate(63.711 7.851)" fill="none" stroke="#1f6152" stroke-miterlimit="10" stroke-width="1"/>
      <path id="Path_10386" data-name="Path 10386" d="M24.131,33.442C29.91,20.992,14.066.233,14.066.233" transform="translate(166.737 106.029)" fill="none" stroke="#1f6152" stroke-miterlimit="10" stroke-width="1"/>
      <path id="Path_10387" data-name="Path 10387" d="M28.614,37.208C38.563,23.139,21.073.187,21.073.187" transform="translate(139.647 88.859)" fill="none" stroke="#1f6152" stroke-miterlimit="10" stroke-width="1"/>
      <path id="Path_10388" data-name="Path 10388" d="M0,35.462C10.866,23.531.322,0,.322,0" transform="translate(146.048 75.536)" fill="none" stroke="#1f6152" stroke-miterlimit="10" stroke-width="1"/>
      <path id="Path_10389" data-name="Path 10389" d="M0,37.607C16.965,25.71,10.237,5.645,5.193.158" transform="translate(125.032 58.84)" fill="none" stroke="#1f6152" stroke-miterlimit="10" stroke-width="1"/>
      <path id="Path_10390" data-name="Path 10390" d="M0,30.091C15.9,19.336,12.864,5.5,8.308.1" transform="translate(107.239 42.473)" fill="none" stroke="#1f6152" stroke-miterlimit="10" stroke-width="1"/>
      <path id="Path_10391" data-name="Path 10391" d="M26.619,23.894C3.134,24.978-5.525,22.426-13.8,15.369" transform="translate(189.49 86.692)" fill="none" stroke="#1f6152" stroke-miterlimit="10" stroke-width="1"/>
      <path id="Path_10392" data-name="Path 10392" d="M26.446,17.531C-.509,28.523-10.121,15.269-10.121,15.269" transform="translate(167.243 70.489)" fill="none" stroke="#1f6152" stroke-miterlimit="10" stroke-width="1"/>
      <path id="Path_10393" data-name="Path 10393" d="M35.769,12.992C10.208,23.359-.246,28.057-7.5,20.651" transform="translate(149.99 51.045)" fill="none" stroke="#1f6152" stroke-miterlimit="10" stroke-width="1"/>
      <path id="Path_10394" data-name="Path 10394" d="M40.278,11.206C6.56,27.931-2.863,26.8-6.47,23.254" transform="translate(128.34 26.569)" fill="none" stroke="#1f6152" stroke-miterlimit="10" stroke-width="1"/>
      <path id="Path_10395" data-name="Path 10395" d="M28.588,1.418C4.979,15.706,1.434,20.086-1.31,16.789" transform="translate(113.72 22.084)" fill="none" stroke="#1f6152" stroke-miterlimit="10" stroke-width="1"/>
    </g>
    <path id="Path_10396" data-name="Path 10396" d="M16.585,40.058c.074.078.146.156.217.236l.033.036c.069.077.136.155.2.233l.024.028q.1.123.2.247l.04.05q.1.123.192.247l.033.045c.064.086.128.171.189.257l0,.005c.063.088.124.176.184.264l.031.046c.057.085.113.171.168.256l.03.048c.056.089.111.177.165.266l.01.016q.078.132.154.263l.02.034c.05.089.1.177.145.265l.025.046c.047.09.093.179.138.268l.013.027c.045.09.088.18.13.27l.008.016c.042.091.083.182.122.273l.017.04c.039.09.077.18.112.269l.012.031c.074.185.142.37.2.553l.01.029q.045.134.086.267l.009.029c.056.185.106.367.149.546l0,.014c.021.088.041.177.059.263l.006.025c.018.088.035.175.049.261v0q.046.266.072.522l0,.018c.008.083.015.165.02.246v.009c.01.166.013.327.01.483v.01c0,.077-.005.153-.01.228v.01a4.07,4.07,0,0,1-.1.644l0,.009a2.857,2.857,0,0,1-.192.557l0,.007c-.027.056-.055.11-.085.163h0a2.01,2.01,0,0,1-.205.293l0,0c-.037.044-.076.086-.117.125l0,0a2.433,2.433,0,0,1-2.683.208C10.838,47.537,8.331,40.2,7.572,37.439q-.538,1.735-1.137,3.455-.407,1.172-.829,2.339l-.394,1.084c-1.049,2.871-2.135,5.729-3.143,8.615.047,0,.092,0,.138,0,.125,0,.25,0,.373,0,.072,0,.144,0,.215.008.111,0,.223.008.333.015.075,0,.15.01.224.016.105.008.21.016.314.026l.225.024c.1.012.2.024.3.037.074.011.148.021.222.033q.15.023.3.049l.214.039c.1.019.2.04.3.062.067.015.135.028.2.044.1.024.2.05.306.076.061.015.122.03.182.047.115.031.228.064.34.1l.137.041q.237.073.469.156l.03.011q.215.077.425.159l.143.059c.1.042.2.083.3.126l.165.075c.09.041.18.082.269.125.057.027.114.056.17.084.085.042.169.084.252.128l.17.091c.081.044.162.089.242.135l.165.1q.12.07.237.143l.159.1q.118.076.235.153l.147.1c.082.056.162.113.242.17l.129.092c.092.068.182.136.272.206l.085.064q.177.139.349.283l.042.035c.1.083.2.167.291.252.036.032.071.064.107.1.072.066.144.131.214.2l.12.116c.063.061.127.123.189.186l.123.126.174.183.121.131c.055.061.11.121.163.183l.118.135q.079.092.156.185l.112.136c.051.063.1.127.15.19.035.045.07.089.1.134.05.067.1.134.148.2.031.043.062.084.092.127.054.076.107.153.16.229l.069.1c.073.109.143.217.212.326.023.036.044.073.066.109.045.074.091.148.134.222.028.048.055.1.082.143s.072.125.106.187.055.1.083.154.062.117.092.177.054.106.08.16.056.113.082.169.051.109.076.163.049.109.073.163.048.111.071.166.043.106.064.159.044.111.065.167.038.1.056.153.041.113.06.169.031.1.047.144.038.116.055.174c.013.042.024.083.036.125q.1.34.162.669c.007.035.015.071.021.107.011.06.02.12.03.18.006.038.013.076.018.113.008.059.015.116.021.174,0,.038.008.075.012.112.005.057.01.113.013.169q0,.055.007.109c0,.056,0,.111.005.166,0,.034,0,.069,0,.1,0,.055,0,.109,0,.163,0,.032,0,.064-.005.1,0,.054-.006.108-.012.161,0,.028-.006.056-.009.085-.006.054-.013.109-.021.161,0,.023-.008.044-.012.066-.01.057-.021.115-.033.17l0,.01a2.871,2.871,0,0,1-.194.566c-.006.012-.011.026-.017.038-.022.046-.046.089-.072.132l-.03.054c-.024.04-.051.078-.077.116-.013.019-.026.038-.04.056-.027.036-.055.07-.085.1-.015.018-.031.036-.047.053s-.061.063-.092.094l-.053.048c-.033.029-.067.057-.1.085l-.058.041c-.036.026-.074.052-.112.075l-.06.033c-.041.023-.082.046-.126.066l-.053.022a3.018,3.018,0,0,1-1.742.132c-5.77-1.018-9.629-10.127-10.709-13-.682,1.993-1.322,4-1.881,6.034h0l-.022.081c-.017.062-.034.122-.051.184v.006L-.5,61.293a62.271,62.271,0,0,0-1.438,7.825c.309.053.718.131,1.2.239l.157.035c.212.049.437.1.672.163l.179.046q.2.053.41.112l.3.086.239.07c.264.08.537.166.816.26q.21.071.423.146a19.934,19.934,0,0,1,5.493,2.9l0,0c.083.065.164.13.246.194l.072.059.183.152.064.054c.078.067.155.133.231.2l.04.035c.063.057.125.113.186.17l.067.061.172.164.045.044q.1.1.206.2l.047.048.156.163.055.059c.059.064.117.128.174.191l.014.015q.093.1.18.209l.044.052.135.165.04.05c.055.07.109.14.162.21l0,.007q.075.1.145.2l.035.05c.041.058.08.116.119.173l.023.035c.046.07.09.139.133.208l.014.023c.037.061.072.122.107.182l.024.042c.037.065.072.129.1.194l0,.006q.053.1.1.2l.012.026c.027.059.053.117.078.175l.013.03q.082.2.141.388l.007.025c.018.058.034.116.048.173l0,.015a2.924,2.924,0,0,1,.067.365l0,.02a2.294,2.294,0,0,1,.014.344h0c0,.054-.007.107-.013.159l0,.014a1.6,1.6,0,0,1-.068.3l0,.008c-.015.046-.033.091-.053.135l0,.007a1.38,1.38,0,0,1-.154.256l-.007.01c-.5.64-1.629.9-3.518.523-4.494-.9-8.48-7.37-9.9-9.927a61.684,61.684,0,0,0-.32,7.183l.035,1.408c.017.463.038.927.066,1.391q.166,2.778.584,5.531l.3.022.184.014.419.034c.452.039,1.005.092,1.655.163q.325.035.681.078l.365.044c1.242.153,2.747.363,4.5.653q.124.021.249.045l.082.016.166.034.1.021.151.035.1.025.145.038.1.027.144.041.1.03.145.044.1.031.152.051.086.03.186.067.05.018c.078.029.155.06.233.091l.065.027.164.068c.03.012.059.025.088.038l.14.061.094.043.131.061.1.046.126.062.1.049.124.065.093.05.126.069.088.049.134.077.076.045.2.122.065.042.136.087.086.057.111.075.09.062.1.072.092.067.1.071.092.07.092.071.091.071.087.071.09.074.083.071.089.076.075.068c.062.056.124.112.183.168l.058.055.091.09.063.063.087.09.062.064.084.091.059.064.082.093.054.063.08.1.049.06c.027.033.054.067.08.1l.04.053c.028.036.055.072.082.109l.022.03c.1.138.192.276.277.416l.015.023.07.12.025.043c.022.038.042.077.062.115l.025.048.057.114.023.048c.018.038.035.077.052.115l.019.046c.017.04.033.079.049.118l.014.037c.016.043.033.085.047.128l0,.013a3.757,3.757,0,0,1,.152.6l0,.018c.007.043.012.085.017.128l0,.032c0,.041.008.082.01.123l0,.037c0,.04,0,.08,0,.12v.035c0,.041,0,.082,0,.122l0,.03c0,.042-.005.085-.009.127l0,.014a2.6,2.6,0,0,1-.125.573v0c-.015.041-.03.082-.046.123l-.01.025c-.016.038-.033.076-.05.113l-.016.033c-.018.036-.037.073-.056.108l-.019.035c-.02.035-.041.071-.063.106l-.021.032c-.023.036-.047.072-.072.107l-.018.024a3.785,3.785,0,0,1-1.174,1.022C7.645,98.436.752,89.729-1.508,86.6A61.353,61.353,0,0,0,.634,95.343l.013.011.348,1.063q.864,2.5,1.945,4.915l.051.018q.16.057.318.119l.038.016c.1.042.2.085.306.131l.032.014c.1.047.207.1.309.147l.057.029q.15.076.3.158l.052.029c.1.057.2.116.3.177l.011.007c.1.06.2.122.292.186l.045.03q.142.094.281.194l.054.039c.093.067.185.136.276.206l.039.031q.135.1.267.214l.022.018c.091.075.18.153.269.231l.048.042c.087.076.171.155.256.234l.047.045c.087.082.172.165.256.249l.018.018c.082.083.164.167.244.252l.036.038q.121.129.238.261l.046.052q.117.132.232.268l.035.042q.115.137.227.276l.012.014c.076.1.151.192.225.29l.039.051q.107.142.211.285l.039.055q.106.147.209.3l.02.03c.067.1.131.2.2.293l.025.039q.1.15.193.3l.036.059q.093.151.184.3l.03.051c.062.106.123.212.183.319l0,0q.091.161.178.325l.028.052c.055.1.11.208.163.313l.031.06q.08.159.157.318l.017.036q.075.158.148.315l.015.033c.049.107.1.215.143.322l.026.059q.068.159.133.317l.021.053c.045.11.089.22.131.33l0,.006c.042.109.082.218.123.328l.017.048q.057.159.111.317l.019.057c.036.106.07.212.1.318l.011.037c.033.105.065.21.1.314l.006.022c.031.107.06.213.089.318l.014.053c.027.1.053.2.078.306l.012.05c.026.1.05.209.073.312l0,.011c.023.1.044.205.063.307l.007.037c.019.1.037.2.054.3l.008.049c.016.1.031.2.045.291l.005.035q.021.148.038.292v.006c.011.1.02.193.028.287l0,.041q.011.137.019.271l0,.041c0,.091.008.181.01.27v.012q0,.133,0,.262v.023c0,.085,0,.168-.008.25l0,.037c0,.081-.011.161-.017.239l0,.027c-.016.162-.038.317-.066.465l-.006.028c-.014.071-.029.14-.046.208l-.007.029c-.017.068-.036.136-.057.2l0,.012c-.021.065-.043.128-.067.189l0,.012c-.024.061-.05.118-.077.174l-.012.025c-.027.054-.055.108-.085.158l-.012.019a1.967,1.967,0,0,1-.208.286l-.012.015c-.038.041-.076.079-.116.116l-.018.016a1.616,1.616,0,0,1-.127.1l-.01.007c-.045.031-.092.061-.14.088l-.006,0a1.547,1.547,0,0,1-.15.07l-.022.009a1.555,1.555,0,0,1-.156.052l-.022.006a1.661,1.661,0,0,1-.174.036h0a4.071,4.071,0,0,1-2.674-.9c-6.518-4.289-5.887-12.188-5.439-14.934Q.905,99.616.011,97.048l-.324-.954a62.889,62.889,0,0,1-2.259-9.016c-.834,3.671-3.4,12.651-8.582,13.177a3.307,3.307,0,0,1-2.864-.756l-.01-.011a2.268,2.268,0,0,1-.4-.6l0-.008a2.917,2.917,0,0,1-.222-.727l0-.009a4.214,4.214,0,0,1-.054-.832V97.3c0-.056,0-.114.008-.172h0a6.363,6.363,0,0,1,.092-.731l.006-.032c.011-.057.021-.115.034-.172l.005-.024q.059-.275.141-.558l.006-.024c.016-.056.033-.111.05-.167l.017-.055c.017-.054.034-.108.052-.162l.019-.054q.09-.263.2-.53l.024-.06c.02-.05.041-.1.062-.15l.035-.082c.021-.048.042-.1.063-.144l.039-.087c.022-.048.044-.1.067-.143.011-.024.022-.047.034-.07q.064-.134.132-.268c.018-.034.034-.068.052-.1l.067-.126.059-.11.067-.123.066-.117.066-.115c.033-.056.066-.113.1-.169l.085-.139.086-.14.067-.1.084-.13.068-.1.092-.136.063-.092c.05-.073.1-.146.153-.218l.042-.057.125-.169.064-.085.107-.14.069-.087c.038-.048.077-.1.116-.144l.06-.074c.058-.071.118-.142.177-.211l.026-.03.158-.181.064-.07c.042-.047.084-.093.127-.139l.069-.074.134-.141.06-.063c.065-.066.13-.131.2-.2l.015-.014c.061-.06.122-.119.185-.177l.065-.06.141-.129.072-.064c.048-.043.1-.085.146-.127l.063-.054c.07-.059.14-.117.211-.174l.006,0q.1-.082.207-.162l.067-.05.151-.112.076-.054.153-.106.069-.047q.109-.074.221-.144a33.164,33.164,0,0,1,2.9-1.655q.346-.173.657-.313c.207-.095.4-.179.586-.254.276-.113.526-.206.752-.282.076-.026.149-.049.219-.071a7.069,7.069,0,0,1,.722-.188c.05-.01.1-.019.145-.026.077-.013.145-.023.21-.03q-.413-2.79-.58-5.61l-.068-1.467a62.855,62.855,0,0,1,.238-8.093c-1.938,3.338-7.9,12.658-12.6,9.838a6.406,6.406,0,0,1-.55-.367l0,0-.121-.093-.007-.006c-.038-.03-.075-.061-.112-.092l-.009-.007c-.035-.03-.07-.061-.1-.091l-.01-.009q-.05-.045-.1-.09l-.011-.01-.09-.09-.011-.011-.083-.09-.011-.012-.077-.09-.011-.013c-.025-.03-.048-.06-.071-.09l-.011-.013c-.022-.03-.044-.06-.065-.09l-.01-.013c-.021-.03-.041-.061-.06-.091l-.009-.014c-.02-.03-.038-.061-.055-.091l-.008-.014c-.017-.03-.034-.061-.049-.092l-.007-.014c-.016-.031-.031-.061-.045-.092l-.006-.014c-.013-.03-.027-.061-.04-.093l-.005-.014c-.012-.031-.024-.062-.035-.094l0-.013c-.011-.031-.021-.063-.03-.094l0-.012q-.013-.048-.025-.1l0-.012c-.007-.032-.014-.064-.02-.1l0-.011c-.006-.033-.011-.065-.016-.1v-.01c0-.034-.008-.067-.011-.1v-.008c0-.034,0-.068-.006-.1v-.005c0-.035,0-.07,0-.1v0c0-.035,0-.071,0-.107h0A4.2,4.2,0,0,1-16.37,74.89h0l.1-.105,0,0,.1-.1.008-.007.1-.1.011-.01.106-.1.013-.011.106-.094.016-.014.107-.092.019-.016.107-.09.021-.018.108-.088.023-.019.109-.087.025-.019.11-.085.027-.02.111-.084.028-.021.113-.083.03-.022.113-.081.032-.023.114-.08.034-.024.116-.079.034-.023.117-.078.037-.025.118-.077.037-.023.119-.076.038-.024.121-.075.039-.024.121-.075.04-.024.124-.075.038-.022.126-.074.041-.023.127-.073.039-.023.13-.073.041-.023.131-.072.038-.021.135-.073.038-.02.137-.073.036-.019.14-.073.032-.016.146-.075.027-.013.154-.077.016-.008.165-.081h0c.42-.2.85-.4,1.287-.586h0l.156-.066.034-.014.14-.058.051-.021.132-.053.06-.024.126-.049.067-.027.12-.046.073-.028.116-.044.078-.03.113-.042.081-.029.112-.041.082-.03.111-.04.084-.03.107-.037.087-.031.107-.036.088-.03.1-.035.09-.03.1-.033.094-.031.1-.031.094-.03.1-.031.095-.029.1-.03.095-.028.1-.029.095-.027.1-.028.1-.028.1-.027.1-.027.1-.026.095-.026.1-.025.1-.025.1-.024.095-.024.1-.024.095-.023.094-.022.1-.022.093-.021.1-.021.091-.02.1-.021.091-.019.095-.019.09-.018.1-.019L-5,69.5l.1-.018.087-.016.095-.016.088-.015.093-.016.087-.014.094-.015.084-.013.094-.013.084-.012.093-.013.083-.011.092-.011.082-.01.092-.011.08-.009.093-.009.077-.008.094-.009.074-.006.1-.008.029,0q.331-2.932.941-5.826Q-2,62.6-1.806,61.8l.246-.995C-1.022,58.7-.388,56.617.3,54.555c-2.2,2.756-7.4,7.917-14.263,5.992a4.592,4.592,0,0,1-2.557-1.417l0-.006a1.633,1.633,0,0,1-.1-.151l-.005-.009a1.452,1.452,0,0,1-.075-.156v0a1.354,1.354,0,0,1-.088-.327v0a1.308,1.308,0,0,1-.013-.163V58.3a1.375,1.375,0,0,1,.008-.165v0a1.821,1.821,0,0,1,.138-.516l0-.01q.036-.085.081-.17l0-.007a3.211,3.211,0,0,1,.354-.526l.008-.01c.047-.057.1-.113.146-.17l.009-.01a6,6,0,0,1,.544-.523l.012-.01c.066-.056.134-.111.2-.167l.017-.013q.106-.084.219-.167l.005,0q.231-.171.487-.338l.016-.011q.123-.079.251-.159l.025-.015c.086-.053.173-.1.263-.157l.018-.01q.276-.161.574-.316l.02-.01c.1-.049.192-.1.291-.148l.036-.018c.1-.048.2-.1.3-.143l.031-.015q.315-.147.647-.289l.022-.009c.106-.045.214-.089.323-.133l.046-.019c.107-.043.215-.085.324-.127l.045-.018.339-.126.018-.006q.172-.062.348-.122l.024-.009c.115-.04.232-.078.348-.116l.052-.017q.171-.055.346-.108l.056-.017q.176-.054.355-.105l.038-.011c.121-.034.241-.068.364-.1l.019-.005c.122-.033.245-.065.369-.1l.057-.014c.12-.03.24-.059.36-.087l.065-.015c.122-.028.244-.055.366-.082l.05-.011c.127-.027.254-.053.382-.078h.007c.128-.026.257-.049.385-.073l.058-.01c.124-.022.247-.042.371-.063l.07-.011.373-.056.059-.008q.195-.027.39-.052h.013q.193-.024.387-.044l.052-.005c.126-.013.252-.025.378-.036l.07-.006.374-.028.065,0c.129-.008.257-.016.386-.021l.029,0,.379-.012h.045c.126,0,.252,0,.378-.005h.069c.124,0,.247,0,.37,0H-2.6q.189,0,.377.012l.04,0q.186.009.373.021l.032,0c.126.009.25.019.375.03l.064.006c.121.012.241.024.361.038l.067.009c.122.015.242.031.363.048l.047.007c.122.018.243.037.364.059l.018,0c.122.021.243.045.364.069l.058.012c.116.024.231.05.345.077l.064.016c.063.015.127.031.19.047,1.07-3.079,2.232-6.13,3.346-9.193l.522-1.446c.607-1.7,1.191-3.409,1.729-5.129-3.17,1.751-13.1,6.93-16.534,5.128a2.432,2.432,0,0,1-1.448-2.333l0-.037a3.171,3.171,0,0,1,.066-.5l.009-.039a3.936,3.936,0,0,1,.152-.514l.014-.039c.033-.087.068-.174.108-.261l0-.008c.038-.084.079-.169.122-.253l.019-.038c.046-.087.093-.173.145-.259l.013-.022q.073-.121.153-.242l.023-.034c.057-.086.116-.17.178-.254l.025-.033c.058-.078.118-.156.181-.233l.024-.029q.1-.124.21-.247l.036-.04c.068-.075.137-.151.21-.225l.021-.022q.116-.119.238-.235l.047-.044c.079-.074.159-.148.241-.221l.013-.011c.086-.076.175-.15.264-.223l.055-.045q.272-.218.565-.421l.063-.043c.1-.066.2-.132.3-.2l.017-.011c.1-.06.193-.119.291-.176l.069-.04c.1-.059.207-.117.314-.173l.04-.021c.1-.05.193-.1.291-.145l.071-.034c.108-.051.218-.1.328-.148l.058-.024q.147-.062.3-.119l.071-.027q.17-.064.341-.12l.071-.022c.1-.033.2-.064.307-.093l.064-.019q.175-.048.354-.09l.08-.018q.16-.036.322-.066l.053-.01c.12-.022.242-.04.363-.057l.087-.011c.114-.014.229-.027.344-.037l.033,0c.124-.01.248-.016.372-.02l.09,0c.126,0,.252,0,.379,0h0a21.777,21.777,0,0,1,8.523,1.9c.474.217.86.42,1.155.585A66.594,66.594,0,0,0,8.84,27.4h0l.008-.054c.006-.04.014-.079.02-.118l0,0,.14-.962,0,0c.01-.07.019-.14.028-.209l0-.035h0c.086-.644.161-1.292.22-1.943A53.44,53.44,0,0,0,6.258.936C6,.225,7.107-.075,7.364.631A54.306,54.306,0,0,1,10.6,21.076c-.056,1.6-.193,3.181-.4,4.752l-.177,1.249A69.745,69.745,0,0,1,7.9,36.354c.105,0,.21,0,.314,0h.078c.136,0,.271.005.405.011l.036,0q.194.01.384.026l.057,0q.193.017.384.041l.076.009c.127.016.252.034.377.055l.055.009c.121.02.242.042.36.066l.036.007c.123.025.245.052.366.082l.072.017c.118.029.235.06.35.093l.064.019c.119.034.237.07.353.107l.006,0c.118.038.234.079.349.12l.063.023c.11.041.219.083.327.127l.066.027c.109.045.218.092.325.14l.033.015q.154.07.3.144l.051.025q.154.077.3.157l.065.035c.1.054.2.11.3.167l.047.028c.094.056.187.112.278.169l.034.021c.1.06.19.123.284.186l.058.04c.092.062.182.126.271.191l.052.038q.136.1.268.2l.01.008q.134.1.265.213l.051.042c.084.069.166.14.247.211l.052.046c.083.073.165.147.245.222l.025.023q.114.108.226.218l.039.038c.076.076.151.153.224.23Z" transform="translate(-26.345 43.686)" fill="#e0583d"/>
  </g>
</svg>
