<svg xmlns="http://www.w3.org/2000/svg" width="172.524" height="225.291" viewBox="0 0 172.524 225.291">
  <g id="decor-05" transform="translate(217.885 174.742) rotate(154)">
    <g id="Group_4926" data-name="Group 4926" transform="translate(0 0)">
      <path id="Path_10504" data-name="Path 10504" d="M.02,80.947C6.1,57.78,19.434,37.519,36.7,21.119,44.967,13.265,54.227,5.728,64.3.27c1.655-.9,1.008.683-.021,1.241-9.3,5.038-17.815,11.97-25.5,19.155C21.5,36.814,8.3,57.014,2.269,80c-.177.676-2.5,1.919-2.25.948Z" transform="translate(4.138 94.991)" fill="#e0583d"/>
      <path id="Path_10505" data-name="Path 10505" d="M10.381,6.661a5.281,5.281,0,1,0-6.476,3.72A5.281,5.281,0,0,0,10.381,6.661Z" transform="translate(0 170.181)" fill="#e0583d"/>
      <path id="Path_10506" data-name="Path 10506" d="M10.381,6.662a5.282,5.282,0,1,0-6.475,3.72A5.285,5.285,0,0,0,10.381,6.662Z" transform="translate(15.212 185.172)" fill="#e0583d"/>
      <path id="Path_10507" data-name="Path 10507" d="M10.381,6.66A5.281,5.281,0,1,0,3.9,10.38,5.281,5.281,0,0,0,10.381,6.66Z" transform="translate(27.46 197.247)" fill="#e0583d"/>
      <path id="Path_10508" data-name="Path 10508" d="M10.38,6.662A5.281,5.281,0,1,0,3.9,10.382,5.281,5.281,0,0,0,10.38,6.662Z" transform="translate(63.9 187.454)" fill="#e0583d"/>
      <path id="Path_10509" data-name="Path 10509" d="M10.38,6.661A5.281,5.281,0,1,0,3.9,10.381,5.28,5.28,0,0,0,10.38,6.661Z" transform="translate(126.96 204.501)" fill="#e0583d"/>
      <path id="Path_10510" data-name="Path 10510" d="M10.38,6.661A5.281,5.281,0,1,0,3.9,10.381,5.28,5.28,0,0,0,10.38,6.661Z" transform="translate(106.728 199.031)" fill="#e0583d"/>
      <path id="Path_10511" data-name="Path 10511" d="M10.381,6.66a5.281,5.281,0,1,0-6.476,3.72A5.282,5.282,0,0,0,10.381,6.66Z" transform="translate(40.188 184.255)" fill="#e0583d"/>
      <path id="Path_10512" data-name="Path 10512" d="M10.381,6.661A5.281,5.281,0,1,0,3.9,10.381,5.282,5.282,0,0,0,10.381,6.661Z" transform="translate(53.311 176.861)" fill="#e0583d"/>
      <path id="Path_10513" data-name="Path 10513" d="M10.381,6.661a5.281,5.281,0,1,0-6.476,3.72A5.28,5.28,0,0,0,10.381,6.661Z" transform="translate(87.421 188.341)" fill="#e0583d"/>
      <path id="Path_10514" data-name="Path 10514" d="M.04,94.455A196.3,196.3,0,0,1,31.086,25.894C37.411,16.914,44.375,7.932,52.471.448c1.095-1.013,3-.16,1.662,1.081C46.2,8.862,39.372,17.643,33.178,26.437a194.437,194.437,0,0,0-30.762,68C2.135,95.638-.342,96.11.04,94.455Z" transform="translate(19.267 96.011)" fill="#e0583d"/>
      <path id="Path_10515" data-name="Path 10515" d="M0,92.542C2.513,68.736,8,45.031,18.456,23.394,22.25,15.54,26.634,7.253,32.556.735c.6-.66,2.933-1.275,1.737.042C28.715,6.917,24.576,14.719,20.959,22.1,10.388,43.673,4.871,67.476,2.361,91.266,2.271,92.128-.075,93.275,0,92.542Z" transform="translate(44.046 97.568)" fill="#e0583d"/>
      <path id="Path_10516" data-name="Path 10516" d="M26.305,85.71A590.669,590.669,0,0,0,40.489,23.3,217.846,217.846,0,0,0,43.3,1.537l1.366-.375c-3.541,2.6-8.271,8.474-11.317,12.74-10.06,14.086-16.839,30.447-21.781,46.95a284.729,284.729,0,0,0-9.27,45.021c-.094.721-2.336,1.706-2.293,1.371C3.219,82.489,8.852,57.684,19.58,35.021c5.176-10.934,11.59-21.688,20.1-30.383A37.673,37.673,0,0,1,44.221.54c.076-.056,1.4-.885,1.366-.375a217.32,217.32,0,0,1-2.806,21.768A590.193,590.193,0,0,1,28.6,84.338c-.205.734-2.354,1.592-2.293,1.373Z" transform="translate(31.433 95.927)" fill="#e0583d"/>
      <path id="Path_10517" data-name="Path 10517" d="M22.935,96.841c6.141-24.142,9.34-51.5-.681-75.116C19.18,14.483,14.472,6.195,7.734,1.668L9.989.075c3.317,2.257,5.3,6.85,6.53,10.462C21.05,23.825,19.1,38.968,16.2,52.358,13.037,66.981,7.972,81.141,2.247,94.937c-.252.606-2.54,1.783-2.215,1C8.6,75.29,16.591,52.892,16.764,30.248c.066-8.644-1-18.5-6.3-25.69A12.133,12.133,0,0,0,7.734,1.668C7.4,1.444,9.3-.389,9.989.075c4.342,2.916,7.762,7.661,10.433,12.05C27.977,24.537,30.745,39.4,30.9,53.766c.157,14.106-2.185,28.1-5.652,41.736-.2.767-2.412,1.713-2.317,1.339Z" transform="translate(68.61 97.453)" fill="#e0583d"/>
      <path id="Path_10518" data-name="Path 10518" d="M33.723,204.664c5.211-35.535,1.358-78.629-28.1-103.383A37.224,37.224,0,0,0,.259,97.36a.569.569,0,0,1-.25-.595c3.168-19.15,3.837-38.8,4.645-58.164.517-12.4.914-24.81,1.108-37.221C5.778.365,8.209-.749,8.186.678,7.734,29.6,7.048,58.809,3.629,87.546c-.212,1.777-.439,3.55-.7,5.319A18.364,18.364,0,0,1,2.242,95.5c.126.308,1.233.787,1.5.973a55.516,55.516,0,0,1,7.027,5.812c8.825,8.44,15.353,19.087,19.782,30.417,8.835,22.6,9.071,47.54,5.592,71.257-.147,1-2.627,2.08-2.424.7Z" transform="translate(77.076 0)" fill="#e0583d"/>
      <path id="Path_10519" data-name="Path 10519" d="M48.07,113.168c4.066-23.013,2-46.721-8.441-67.825A109.173,109.173,0,0,0,11.061,9.608,82.044,82.044,0,0,0,.243,1.936C-.7,1.391,1.357-.4,2.194.082,27.237,14.56,45.43,42.02,50.713,70.141a117.767,117.767,0,0,1-.27,42.252c-.159.9-2.6,2.049-2.373.774Z" transform="translate(82.182 96.785)" fill="#e0583d"/>
    </g>
    <path id="Path_10520" data-name="Path 10520" d="M30.972,0c-32.114,14-49.7,27.825.335,35.327s27.232-16.2,14.678-24.013S30.972,0,30.972,0Z" transform="translate(48.392 88.974)" fill="#e0583d"/>
  </g>
</svg>
