<svg xmlns="http://www.w3.org/2000/svg" width="719.524" height="335.534" viewBox="0 0 719.524 335.534"><defs><style>.a{fill:#a3d7cc;}.b{fill:#74b2b8;}.c{fill:#eab54e;}.d{fill:#297c68;}.e{fill:#1d5041;}.f{fill:#193843;}.g{fill:#142a33;}.h,.i{fill:none;}.h{stroke:#1d5041;stroke-miterlimit:10;}.i{stroke:#707070;stroke-linecap:round;stroke-linejoin:round;stroke-width:2px;}.j{fill:#ec7832;}.k{fill:#d0d5ec;}.l{fill:#f28f48;}.m{fill:#2b8d7b;}.n{fill:#00326a;}.o{fill:#25293c;}.p{fill:#ef7935;}.q{fill:#fdba93;}.r{fill:#8ea6aa;}.s{fill:#f9ac7e;}.t{fill:#d05149;}.u{fill:#4c9ad5;}.v{fill:#d6402c;}.w{fill:#d13122;}.x{fill:#eaa436;}.y{fill:#594519;}.z{fill:#63a7d1;}.aa{fill:#00417d;}</style></defs><g transform="translate(-3083 -2680.199)"><g transform="translate(3158.252 2693.359)"><path class="a" d="M3179.835,2687.719s80.51,122.237,81.592,216.038c.368,31.836-6.373,55.679-15.436,73.287-18.906,36.713-70.17,40.093-93.735,6.18-11.3-16.264-21.112-39.015-24.931-70.621C3116.078,2819.468,3179.835,2687.719,3179.835,2687.719Z" transform="translate(-3125.995 -2687.717)"/><path class="b" d="M3193.224,2935.382q-.622-9.693-1.25-19.389L3126,2886.831c0-.761.019-1.524.033-2.289l65.789,29.081-1.176-18.333q-31.332-14.445-63.845-26.08.087-1.077.179-2.155,32.311,11.523,63.513,25.846l-1.13-17.611-60.51-24.78c.1-.717.2-1.436.3-2.149l60.055,24.6q-.588-9.231-1.184-18.465-27.227-13.98-55.521-25.7.2-1.051.418-2.1,27.976,11.557,54.946,25.354l-1.22-19.015q-24.616-12.226-50.21-22.292.245-1.036.5-2.065,25.238,9.9,49.56,21.927l-.992-15.484q-21.788-11.941-44.581-21.851c.189-.686.376-1.369.567-2.053q22.395,9.724,43.853,21.416l-1.208-18.876a199.984,199.984,0,0,0-37.508-19.962q.313-1.008.628-2.013a202.309,202.309,0,0,1,36.71,19.344l-.413-6.429a1.078,1.078,0,0,1-.072-1.115q-.155-2.328-.3-4.654a103.584,103.584,0,0,0-32.727-17.045q.331-1,.664-1.994a106.018,106.018,0,0,1,31.888,16.263L3182.1,2762a206.835,206.835,0,0,0-26.6-14.75c.238-.667.478-1.332.714-1.992a206.848,206.848,0,0,1,25.722,14.144l-.842-13.153-18.581-8.378c-1.018-.466-2.053-.917-3.078-1.383q.37-.987.738-1.959c1.514.688,3.045,1.346,4.551,2.023l16.218,7.315q-.357-5.559-.712-11.122-7.611-5.159-15.637-9.632.4-1,.786-1.973,7.513,4.185,14.679,8.955l-.835-12.98q-4.828-3.04-9.91-5.6.412-.992.816-1.952,4.565,2.307,8.93,4.984-.252-3.917-.5-7.834l-5.667-3.621q.432-1,.847-1.948l4.656,2.97q-.37-5.849-.751-11.7c1.39-3.047,2.191-4.689,2.191-4.689s.977,1.482,2.714,4.245q.418,6.521.837,13.048a47.611,47.611,0,0,1,4.021-5.168q.554.916,1.138,1.887a45.516,45.516,0,0,0-4.925,6.9q.289,4.555.586,9.112a72,72,0,0,1,7.956-9.917c.362.614.728,1.243,1.1,1.883a68.676,68.676,0,0,0-8.249,10.635,1.07,1.07,0,0,1-.614.471q.538,8.377,1.075,16.755,6.736-8.677,14.065-16.852.538.961,1.085,1.95-7.8,8.751-14.947,18.073.486,7.534.966,15.072,9.446-11.78,19.47-23.072l1.057,1.985q-10.477,11.83-20.32,24.206l1.18,18.471q11.982-16.015,25.167-31.071.514,1.011,1.029,2.036-13.629,15.624-25.988,32.294l.781,12.18,32.026-30.553q.475,1,.949,2l-32.8,31.291q.757,11.809,1.514,23.618a520.7,520.7,0,0,1,36.591-43.354q.467,1.046.931,2.093a520.475,520.475,0,0,0-37.315,44.5q.691,10.813,1.386,21.629,22.484-22.271,44.962-44.544.423,1.069.837,2.135l-45.621,45.2.53,8.247q.321,5.015.643,10.033l50.239-47.77c.256.73.5,1.454.754,2.184l-50.819,48.316.995,15.474,56.085-43.9q.315,1.094.616,2.189-28.113,22.009-56.229,44.018a1.03,1.03,0,0,1-.315.169l1.418,22.116,59.407-49.2q.256,1.158.5,2.312-29.871,24.74-59.742,49.482.533,8.285,1.064,16.569l62.7-41.243c.086.789.165,1.577.24,2.368l-62.786,41.3,1.132,17.644a648.656,648.656,0,0,0,62.476-36.526q-.026,1.3-.07,2.585a648.713,648.713,0,0,1-62.259,36.215l1.834,28.624q28.892-14.7,56.295-32.075-.346,1.5-.715,2.958-26.81,16.865-55.1,31.228a1.171,1.171,0,0,1-.341.109l.772,12.043q23.581-10.729,47.148-21.461c-.448.989-.887,1.965-1.344,2.917l-45.654,20.779q.381,5.96.765,11.919-2.45.239-4.917.268l-.211-3.3-42.358-16.3q-1.278-1.542-2.475-3.2l44.685,17.193-.683-10.656-52.688-20.8q-.719-1.389-1.428-2.827l53.964,21.3-1.061-16.526-60.188-22.524c-.276-.836-.558-1.692-.833-2.552l60.874,22.78-.924-14.415-.025-.4a661.175,661.175,0,0,0-64.128-23.857q-.249-1.171-.493-2.354a664.552,664.552,0,0,1,64.465,23.863l-.117-1.855a.882.882,0,0,1-.028-.389l-.773-12.078q-32.571-17-66.644-30.834c-.07-.779-.134-1.564-.188-2.354Q3160.6,2918.423,3193.224,2935.382Z" transform="translate(-3125.991 -2687.718)"/></g><g transform="translate(3139.745 2715.254)"><path class="c" d="M3171.794,2708.453c-.455,13.726-5.342,26.751-12.912,38.117a76.674,76.674,0,0,1-12.794,15.168c-.813.716-.646-.249-.145-.7a72.766,72.766,0,0,0,11.83-13.95,71.9,71.9,0,0,0,12.88-37.82c.012-.4,1.157-1.391,1.137-.815Z" transform="translate(-3092.836 -2694.187)"/><path class="c" d="M3158.48,2709.789a3.029,3.029,0,1,0,3.15-2.9,3.03,3.03,0,0,0-3.15,2.9Z" transform="translate(-3083.116 -2695.235)"/><path class="c" d="M3152.531,2706.1a3.029,3.029,0,1,0,3.151-2.9h0A3.032,3.032,0,0,0,3152.531,2706.1Z" transform="translate(-3087.58 -2698)"/><path class="c" d="M3147.742,2703.134a3.029,3.029,0,1,0,3.149-2.9h0a3.025,3.025,0,0,0-3.147,2.9Z" transform="translate(-3091.173 -2700.227)"/><path class="c" d="M3136.809,2708.906a2.911,2.911,0,1,0,0-.005Z" transform="translate(-3099.376 -2695.897)"/><path class="c" d="M3115.423,2708.035a3.028,3.028,0,1,0,3.15-2.9h0A3.029,3.029,0,0,0,3115.423,2708.035Z" transform="translate(-3115.42 -2696.549)"/><path class="c" d="M3122.285,2708.314a3.029,3.029,0,1,0,3.151-2.9h0a3.028,3.028,0,0,0-3.149,2.9Z" transform="translate(-3110.272 -2696.34)"/><path class="c" d="M3144.618,2708.208a3.029,3.029,0,1,0,3.149-2.9h0a3.028,3.028,0,0,0-3.147,2.9Z" transform="translate(-3093.517 -2696.42)"/><path class="c" d="M3140.961,2711.521a3.029,3.029,0,1,0,3.152-2.9A3.029,3.029,0,0,0,3140.961,2711.521Z" transform="translate(-3096.26 -2693.934)"/><path class="c" d="M3129.23,2710.329a3.029,3.029,0,1,0,3.149-2.9h0A3.028,3.028,0,0,0,3129.23,2710.329Z" transform="translate(-3105.062 -2694.828)"/><path class="c" d="M3162.618,2705.055a112.563,112.563,0,0,1-8.658,42.289,91.445,91.445,0,0,1-8.727,16.946c-.483.707-1.661.471-1.068-.394a89.41,89.41,0,0,0,8.555-16.593,111.487,111.487,0,0,0,8.576-41.929c0-.71,1.331-1.289,1.331-.312Z" transform="translate(-3093.977 -2696.989)"/><path class="c" d="M3150.036,2706.791c1.619,13.631,1.559,27.588-1.539,41.014a54.418,54.418,0,0,1-5.007,14.462c-.256.448-1.478,1.085-.977.2a52.25,52.25,0,0,0,4.747-13.616c3.173-13.407,3.236-27.419,1.615-41.043-.058-.494,1.11-1.432,1.159-1.013Z" transform="translate(-3095.184 -2695.382)"/><path class="c" d="M3143.688,2717.053a338.687,338.687,0,0,0-.005,36.7,124.271,124.271,0,0,0,1.2,12.53l-.718.382a37.658,37.658,0,0,0,4.71-8.561c3.837-9.155,5.55-19.167,6.217-29.024a163.29,163.29,0,0,0-.534-26.354c-.039-.415,1.089-1.25,1.1-1.061,1.346,14.254,1.346,28.841-1.771,42.873a63.644,63.644,0,0,1-7.379,19.545,21.546,21.546,0,0,1-2.021,2.869c-.035.04-.669.672-.716.383a124.545,124.545,0,0,1-1.194-12.53,338.687,338.687,0,0,1,0-36.7,2.015,2.015,0,0,1,1.106-1.062Z" transform="translate(-3095.417 -2699.168)"/><path class="c" d="M3131.8,2709.94c-.369,14.282,1.318,29.991,9.922,41.922,2.638,3.66,6.324,7.7,10.667,9.373l-1.059,1.179c-2.142-.842-3.832-3.159-4.979-5.021-4.218-6.857-5.055-15.572-5.136-23.427a143.051,143.051,0,0,1,2.393-25.583c.068-.368,1.2-1.322,1.113-.84-2.168,12.635-3.793,26.175-1.012,38.859,1.061,4.843,2.906,10.219,6.786,13.566a7,7,0,0,0,1.892,1.271c.213.084-.609,1.344-1.057,1.178a22.023,22.023,0,0,1-7.367-5.414c-5.8-5.986-9.239-13.94-11.152-21.955a93.171,93.171,0,0,1-2.137-24.059c.011-.453,1.129-1.264,1.125-1.043Z" transform="translate(-3104.039 -2694.839)"/><path class="c" d="M3124.917,2707.071c1.6,20.536,9.23,44.141,28.846,54.248a21.34,21.34,0,0,0,3.5,1.512.324.324,0,0,1,.214.3c.66,11.112,2.782,22.189,4.794,33.122q1.929,10.5,4.106,20.956c.121.569-1.1,1.5-1.266.7-3.422-16.23-6.748-32.655-8.485-49.16-.107-1.019-.207-2.039-.287-3.061a10.607,10.607,0,0,1,.053-1.565c-.11-.154-.793-.283-.966-.354a31.888,31.888,0,0,1-4.666-2.355,48.405,48.405,0,0,1-14.926-14.5c-7.812-11.515-11.112-25.433-12.178-39.138-.049-.584,1.2-1.5,1.265-.7Z" transform="translate(-3109.244 -2695.324)"/><path class="c" d="M3118.3,2706.776c.651,13.388,4.818,26.381,13.34,36.862a62.619,62.619,0,0,0,20.513,16.354,46.965,46.965,0,0,0,7.023,2.916c.6.185-.327,1.449-.855,1.285-15.843-4.915-29.5-17.965-36.033-33.017a67.567,67.567,0,0,1-5.217-23.662c-.024-.522,1.191-1.477,1.229-.735Z" transform="translate(-3114.181 -2695.516)"/><path class="c" d="M3151.978,2750.2c16.181-11.907,24.266-21.876-4.675-19.713s-13.171,12.52-5.156,15.294S3151.978,2750.2,3151.978,2750.2Z" transform="translate(-3104.032 -2677.749)"/></g><g transform="translate(3518.725 2707.034)"><path class="a" d="M3467.3,2695.532s-106.75,100.14-129.637,191.113c-7.768,30.876-6.761,55.634-2.044,74.868,9.842,40.105,58.908,55.325,89.72,27.829,14.776-13.188,29.615-33.029,40.685-62.88C3498.637,2838.5,3467.3,2695.532,3467.3,2695.532Z" transform="translate(-3331.948 -2695.53)"/><path class="b" d="M3396.625,2933.276q2.861-9.283,5.729-18.566l70.95-13c.171-.742.336-1.486.5-2.233l-70.751,12.968,5.41-17.555q33.833-6.755,68.16-10.5c.113-.71.221-1.423.33-2.137q-34.1,3.686-67.784,10.353l5.2-16.864,64.618-10.015q.108-1.082.2-2.162l-64.132,9.941q2.723-8.84,5.449-17.682,29.736-7.258,59.98-12.071.045-1.069.083-2.141-29.9,4.729-59.339,11.867l5.613-18.207q26.787-6.162,54.021-9.994,0-1.063,0-2.123-26.85,3.757-53.3,9.789l4.57-14.829q23.967-6.54,48.442-10.872-.037-1.066-.074-2.128-24.043,4.242-47.635,10.621l5.569-18.077a200.124,200.124,0,0,1,41.125-10.684q-.068-1.055-.142-2.1a202.272,202.272,0,0,0-40.205,10.269l1.9-6.156a1.079,1.079,0,0,0,.329-1.069q.691-2.227,1.374-4.457a103.553,103.553,0,0,1,35.8-8.959q-.089-1.05-.182-2.093a105.994,105.994,0,0,0-34.8,8.395l4.176-13.551a207.018,207.018,0,0,1,29.306-8.151q-.115-1.058-.231-2.1a207.139,207.139,0,0,0-28.309,7.768l3.882-12.595,20.02-3.823c1.1-.215,2.21-.415,3.316-.628q-.13-1.047-.262-2.078c-1.633.316-3.275.6-4.9.91l-17.474,3.337q1.641-5.322,3.282-10.65,8.6-3.245,17.448-5.727-.152-1.063-.3-2.1-8.28,2.321-16.361,5.293l3.834-12.431q5.4-1.833,10.943-3.144c-.116-.707-.228-1.4-.341-2.088q-4.975,1.181-9.843,2.769,1.157-3.749,2.311-7.5l6.353-2.2c-.124-.716-.249-1.413-.369-2.093l-5.22,1.806q1.723-5.605,3.454-11.208c-.641-3.287-1.038-5.071-1.038-5.071s-1.295,1.215-3.628,3.5q-1.927,6.246-3.851,12.494a47.787,47.787,0,0,0-2.708-5.961q-.753.761-1.545,1.57a45.56,45.56,0,0,1,3.186,7.855q-1.342,4.361-2.691,8.726a71.971,71.971,0,0,0-5.43-11.5q-.74.771-1.509,1.577a68.724,68.724,0,0,1,5.546,12.262,1.06,1.06,0,0,0,.487.6q-2.47,8.023-4.944,16.046-4.534-10-9.756-19.662-.749.809-1.509,1.644,5.55,10.328,10.328,21.056l-4.448,14.432q-6.442-13.654-13.562-26.969l-1.491,1.684q7.436,13.943,14.128,28.272l-5.447,17.688q-7.926-18.364-17.244-36.075-.735.864-1.474,1.74,9.615,18.367,17.756,37.458l-3.595,11.662-24.035-37.167q-.694.856-1.388,1.724l24.614,38.066-6.97,22.617a520.985,520.985,0,0,0-25.494-50.68q-.7.908-1.393,1.818a521.37,521.37,0,0,1,25.933,51.962q-3.193,10.357-6.385,20.715-16.679-26.9-33.358-53.788-.658.943-1.311,1.883l33.847,54.575-2.435,7.9q-1.478,4.8-2.959,9.607-18.869-29.076-37.741-58.152c-.417.649-.828,1.3-1.241,1.947l38.175,58.82-4.567,14.817-44.327-55.753c-.373.66-.743,1.324-1.11,1.985l44.439,55.9a1.1,1.1,0,0,0,.268.236l-6.526,21.18-46.323-61.679q-.517,1.066-1.025,2.132,23.292,31.014,46.583,62.028-2.446,7.934-4.89,15.866l-51.379-54.7q-.4,1.121-.784,2.246,25.721,27.388,51.449,54.776l-5.209,16.9a648.515,648.515,0,0,1-52.257-50.064q-.275,1.268-.534,2.529a648.737,648.737,0,0,0,52.119,49.712l-8.446,27.411q-24.676-21.026-47.282-44.3-.013,1.536.007,3.042,22.148,22.644,46.314,43.195a1.127,1.127,0,0,0,.306.184l-3.553,11.534q-20.435-15.923-40.858-31.848c.2,1.068.4,2.12.628,3.152l39.563,30.834q-1.757,5.708-3.518,11.413,2.326.8,4.718,1.4l.975-3.159,44.987-5.991q1.6-1.2,3.152-2.538l-47.458,6.32,3.145-10.2,56.081-7.962q1.023-1.184,2.047-2.417l-57.44,8.16,4.878-15.828,63.776-7.894c.466-.751.938-1.518,1.4-2.288l-64.5,7.985,4.255-13.8.115-.383a661.229,661.229,0,0,1,67.919-8.277q.517-1.08,1.029-2.174a664.349,664.349,0,0,0-68.25,8.2l.546-1.774a.878.878,0,0,0,.118-.373l3.563-11.566q35.635-8.95,71.99-14.477.374-1.113.733-2.246Q3432.3,2924.374,3396.625,2933.276Z" transform="translate(-3331.946 -2695.531)"/></g><g transform="translate(3653.331 2680.199)"><path class="d" d="M3466.682,2740.745a257.373,257.373,0,0,0-47.352,100.272,252.5,252.5,0,0,0-5.114,31.227,2.354,2.354,0,0,1-1.937,2.335,2.3,2.3,0,0,1-2.582-1.595q-.383-1.691-.775-3.379c-.664-2.888,3.754-4.232,4.421-1.332q.386,1.69.775,3.379l-4.518.741a261.36,261.36,0,0,1,53.754-134.847,2.328,2.328,0,0,1,3.268-.063,2.36,2.36,0,0,1,.066,3.268Z" transform="translate(-3408.854 -2637.7)"/><path class="d" d="M3414.023,2746.077c-4.626,23.248,6.639,45.064,39.985,42.208,0,0-5.223,32.9,27.841,40.47s55.406-40.79,55.406-40.79c-16.474,9.577-46.2-.489-46.93-4.616s17.679,5.139,37.4,4.349,24.845-35.792,24.845-35.792c-12.236,9.831-39.568-3.854-41.7-6.208s30.713,9.868,39.519.481c11.45-12.2-1.673-31.966-8.133-42.853s-2.867-22.7-2.867-22.7-35.544-3.326-41.848,8.544-3.243,29.838-8.147,25.947.1-27,3.947-30.167c0,0-16.015,2.837-22.237,9s-.949,45.421-5.414,43.212-10.168-28.042-2.565-41.551C3463.121,2695.615,3418.129,2725.459,3414.023,2746.077Zm110.023,18.423c2.286-.6,3.7,1.522,4.946,3.924.889,1.707-.149,3.341-2.191,2.766a26.4,26.4,0,0,1-6.188-3.938c-.87-.828,1.148-2.146,3.434-2.751Zm-44.834,18.689c1.852-.756,8.462,6.851,13.927,8.545s7.562,3.765,7.778,6.868a4.038,4.038,0,0,1-3.635,3.5c-3.559.094-13.822-7.628-18.052-11.4s-1.868-6.757-.018-7.514Zm27.754-26.76c4.971,1.437,10.2,4.581,9.471,7.51-1.218,4.869-5.338.154-8.765-1.391-2.389-1.08-10.124-5.806-10.236-8.12s4.56.56,9.53,2Zm-5.771-46.091-.025-.049c-.812-1.617,1.269-7.192,2.711-11.466s3.343-.541,4.563,5.282c.623,2.988.2,5-.756,6.5a3.759,3.759,0,0,1-6.493-.264Zm-47.9,32.916c3.252,2.995,2.556,7.025,7.088,12.085s3.2,8.582,3.2,8.582c-1.8,7.531-6.38-.891-13.691-10.852S3450.043,2740.255,3453.293,2743.254Zm-8.5-12.93a12.021,12.021,0,0,1,3.725,5.927,3.744,3.744,0,0,1-1.234,3.679c-1.81,1.486-2.762-.8-6.593-4.172-4.783-4.215,2.441-6.9,4.1-5.435Z" transform="translate(-3405.72 -2680.199)"/><g transform="translate(40.833 0.359)"><path class="d" d="M3463.5,2748.3c2.1.882,4.2,1.712,6.261,2.51.982.38.34,1.883-.639,1.5-2.127-.824-4.292-1.684-6.464-2.6A4.864,4.864,0,0,0,3463.5,2748.3Z" transform="translate(-3409.319 -2629.461)"/><path class="e" d="M3451.482,2773.486c-.026-.079-.054-.157-.083-.238a.857.857,0,0,1-.04-.287q-3.2-3.365-6.131-6.964a5.127,5.127,0,0,0,.748-1.638q3.234,4.022,6.812,7.76c2.131-2.252,4.216-4.543,6.211-6.885,4.588-5.391,8.816-11.039,12.852-16.825a52.635,52.635,0,0,1-10.632-40.4.817.817,0,0,1,1.617.231A51,51,0,0,0,3472.83,2747c5-7.244,9.707-14.691,14.462-22.107a45.283,45.283,0,0,1-1.337-12.87,3.908,3.908,0,0,0,1.608.128,42.82,42.82,0,0,0,.94,10.846c3.961-6.161,7.965-12.289,12.2-18.25a176.486,176.486,0,0,1,20.438-24.341c.506.04.786.064.786.064s-.2.68-.429,1.854c-12.515,12.4-22.381,27.162-31.915,41.99a45.778,45.778,0,0,0,21.813-3.01.818.818,0,0,1,.592,1.523,47.535,47.535,0,0,1-23.3,3.035.713.713,0,0,1-.087-.021q-2.213,3.45-4.413,6.886c-6.206,9.656-12.523,19.265-19.636,28.281a69.392,69.392,0,0,0,35,11.708c1.052.058.81,1.673-.229,1.617a70.964,70.964,0,0,1-35.786-12.047l-.148.194c-3.184,3.954-6.574,7.711-10.061,11.379a32.467,32.467,0,0,0,6.633,10.676,3.359,3.359,0,0,0-.562,1.78,34.162,34.162,0,0,1-7.32-11.147c-4.594,4.776-9.332,9.42-13.976,14.16q-.913.935-1.824,1.883c.051-1.187.137-2.067.2-2.575C3441.451,2783.536,3446.583,2778.586,3451.482,2773.486Z" transform="translate(-3429.106 -2680.404)"/><path class="d" d="M3432.912,2714.592a3.466,3.466,0,0,0,.589-.621c.452.994.92,1.978,1.4,2.96a3.4,3.4,0,0,0-1.423.8q-.664-1.351-1.3-2.725A2.041,2.041,0,0,0,3432.912,2714.592Z" transform="translate(-3432.184 -2655.22)"/><path class="d" d="M3469.292,2689.213a43.571,43.571,0,0,0-1.969,4.81,10.5,10.5,0,0,0-.968-2.118q.651-1.688,1.439-3.331C3468.247,2687.629,3469.752,2688.266,3469.292,2689.213Z" transform="translate(-3406.547 -2674.623)"/></g></g><g transform="translate(3083 2738.57)"><path class="f" d="M3136.55,2732.861l6.87,35,1.7-25.961q.932,1.15,1.833,2.357c17.655,23.664,19.111,62.163,19.111,62.163l5.294-40.043s16.625,16.193,24.817,39.65l-13.88,45.813,18.807-29.693c8.571,32.63,3.343,51.666,3.343,51.666l13.552-11.032s7.407,18.362,9.364,36.365-6.811,35.971-6.811,35.971l9.62-4.668s9.226,30.4-16.073,56.553l-111.481-273.454A91.029,91.029,0,0,1,3136.55,2732.861Z" transform="translate(-3068.285 -2713.549)"/><path class="g" d="M3117.324,2713.549,3228.807,2987s-26.175,1.6-42.225-6.07-17.3-19.006-17.3-19.006l16.524.418s-25.638-12.931-41.875-27.9-21.364-37.813-21.364-37.813l28.262,3.172s-29.737-21.147-43.074-39.894-16.144-46.741-16.144-46.741l24.794,5.594s-18-18.392-26.02-37.455-7.377-28.951-7.377-28.951l18.6,9.159s-5.471-17.571-5.27-30.8S3117.324,2713.549,3117.324,2713.549Z" transform="translate(-3083 -2713.549)"/><g transform="translate(59.229 24.526)"><line class="h" x2="5.145" y2="31.322"/><line class="h" x1="1.332" y2="20.386" transform="translate(15.946 40.415)"/><line class="h" x1="2.557" y2="39.119" transform="translate(23.536 40.992)"/><line class="h" x1="3.789" y2="24.098" transform="translate(33.954 74.4)"/><line class="h" x1="9.86" y2="57.731" transform="translate(42.504 62.352)"/><line class="h" x1="5.675" y2="23.903" transform="translate(49.101 113.765)"/><line class="h" x1="15.098" y2="55.453" transform="translate(56.107 104.254)"/><line class="h" x1="10.019" y2="34.758" transform="translate(66.271 144.979)"/><line class="h" x1="13.972" y2="44.46" transform="translate(75.252 150.251)"/><line class="h" x1="9.374" y2="27.792" transform="translate(79.84 181.373)"/><line class="h" x1="9.938" y2="22.721" transform="translate(82.48 203.874)"/><line class="h" x1="10.555" y2="18.186" transform="translate(87.546 215.931)"/></g><g transform="translate(23.461 22.457)"><line class="h" x2="18.514" y2="25.784"/><line class="h" x2="15.359" y2="13.47" transform="translate(16.368 40.794)"/><line class="h" x2="29.474" y2="25.85" transform="translate(10.541 47.435)"/><line class="h" x2="19.722" y2="14.358" transform="translate(25.931 79.293)"/><line class="h" x2="47.799" y2="33.843" transform="translate(7.076 81.115)"/><line class="h" x2="20.918" y2="12.886" transform="translate(41.729 119.17)"/><line class="h" x2="49.89" y2="28.528" transform="translate(23.388 124.064)"/><line class="h" x2="31.664" y2="17.489" transform="translate(48.595 156.453)"/><line class="h" x2="41.321" y2="21.551" transform="translate(43.177 169.329)"/><line class="h" x2="26.281" y2="13.02" transform="translate(65.195 191.324)"/><line class="h" x2="23.095" y2="9.036" transform="translate(78.843 209.498)"/><line class="h" x2="20.324" y2="5.393" transform="translate(83.351 222.041)"/></g></g><g transform="translate(3194.78 2683.983)"><path class="i" d="M3397.716,2713.25" transform="translate(-2958.66 -2659.186)"/><g transform="translate(199.947 80.022)"><g transform="translate(24.525 46.401)"><path class="j" d="M3282.317,2771.6h-7.2v-17.012h7.2a6.325,6.325,0,0,1,6.32,6.318v4.374A6.325,6.325,0,0,1,3282.317,2771.6Zm-4.731-2.471h4.731a3.853,3.853,0,0,0,3.847-3.849v-4.374a3.851,3.851,0,0,0-3.847-3.847h-4.731Z" transform="translate(-3275.115 -2754.592)"/></g><g transform="translate(12.561)"><path class="k" d="M3279.109,2728.975a6.95,6.95,0,0,0-3.77,2.655,8.318,8.318,0,0,0-1.568,3.781c-.394,2.708.31,5.62,1.25,8.732.226.79.484,1.593.738,2.423.234.833.5,1.684.707,2.569a22.849,22.849,0,0,1,.746,5.618,13.152,13.152,0,0,1-1.316,5.771,8.277,8.277,0,0,1-4.122,4.069l-.376-.438a9.865,9.865,0,0,0,1.445-4.54,14.663,14.663,0,0,0-.362-4.464c-.66-2.957-2.046-5.923-3.114-9.408-.255-.881-.5-1.784-.687-2.715a22.254,22.254,0,0,1-.373-2.885,14.078,14.078,0,0,1,.894-6.038,10.059,10.059,0,0,1,4.031-4.818,8.228,8.228,0,0,1,2.916-1.113,5.9,5.9,0,0,1,2.99.233Z" transform="translate(-3268.28 -2728.081)"/></g><path class="l" d="M3280.153,2751.721H3261.1v21.833a7.14,7.14,0,0,0,7.124,7.125h11.49a7.126,7.126,0,0,0,7.125-7.125v-21.833Z" transform="translate(-3261.103 -2710.345)"/><path class="j" d="M3279.1,2751.721v20.088a7.124,7.124,0,0,1-7.124,7.125h-9.463a7.091,7.091,0,0,0,4.661,1.745h11.49a7.126,7.126,0,0,0,7.125-7.125v-21.833Z" transform="translate(-3260.047 -2710.345)"/></g><g transform="translate(264.332 82.971)"><rect class="d" width="6.934" height="108.665" transform="translate(84.367 133.017)"/><path class="m" d="M3388,2866.1l-76.084-1.032-6.39-109.236a24.3,24.3,0,0,1,24.4-25.612l45.333-.453c19.887,0,30.511,18.327,27.649,38Z" transform="translate(-3292.187 -2729.766)"/><path class="d" d="M14.241,0H81.683A14.241,14.241,0,0,1,95.924,14.241V29.471a0,0,0,0,1,0,0H0a0,0,0,0,1,0,0V14.241A14.241,14.241,0,0,1,14.241,0Z" transform="translate(0 107.014)"/><rect class="d" width="6.934" height="108.665" transform="translate(4.623 133.017)"/></g><g transform="translate(309.193 25.908)"><path class="n" d="M3350.251,2697.2a17.67,17.67,0,0,1,16.986,10.379c5.366,12.49-5.021,27.152-1.11,40.17,1.625,5.407,5.519,9.769,8.86,14.317s6.324,9.92,5.65,15.523c-.725,6.026-5.854,10.992-11.746,12.455s-12.264-.2-17.334-3.539-8.963-8.2-12.112-13.393c-10.911-17.977-15.9-47.276-3.742-65.873C3339.184,2701.913,3343.505,2697.66,3350.251,2697.2Z" transform="translate(-3319.69 -2697.163)"/><path class="o" d="M3344.354,2706.883c6.8-.432,13.673,3.489,16.363,9.336,5.17,11.237-4.838,24.427-1.07,36.138,1.565,4.862,5.316,8.786,8.535,12.878s6.093,8.924,5.443,13.965c-.7,5.42-5.639,9.887-11.313,11.2s-11.816-.182-16.7-3.184a38.115,38.115,0,0,1-11.667-12.047c-10.511-16.173-15.315-42.53-3.606-59.259C3333.693,2711.124,3337.854,2707.3,3344.354,2706.883Z" transform="translate(-3323.52 -2689.895)"/></g><g transform="translate(253.161 85.393)"><path class="p" d="M14.389,0H44.552A14.389,14.389,0,0,1,58.941,14.389V86.238a.44.44,0,0,1-.44.44H.44a.44.44,0,0,1-.44-.44V14.389A14.389,14.389,0,0,1,14.389,0Z" transform="translate(37.753)"/><g transform="translate(58.845 2.2)"><path class="q" d="M3370.777,2744.356s21.381,24.849,16.757,40.451c0,0,0,8.09-33.225-.289l-28.027-4.623-1.156-7.8a215.234,215.234,0,0,1,47.672,3.468c-2.018-2.248-4.064-4.85-6.175-7.728-3.287-4.479-6.971-10.185-8.559-15.1Z" transform="translate(-3325.127 -2723.442)"/><path class="p" d="M3336.748,2732.433s20.592-2.419,37.542,38.8l-18.491,7.319s-11.942-16.181-13.675-30.241S3336.748,2732.433,3336.748,2732.433Z" transform="translate(-3316.408 -2732.407)"/></g><g transform="translate(0 1.705)"><path class="q" d="M3317.681,2744.153s-23.863,23.854-26.175,39.071c0,0,.334,4.531,34.515,2.107h29.436l2.3-5.869a214.984,214.984,0,0,0-47.542-4.944c2.382-1.859,4.852-4.064,7.435-6.527,4.021-3.832,8.648-8.8,11.074-13.362Z" transform="translate(-3291.506 -2723.1)"/><path class="p" d="M3343,2732.127s-21.3-1.069-45.213,36.54l16.922,10.449s14.594-13.835,18.766-27.374S3343,2732.127,3343,2732.127Z" transform="translate(-3286.794 -2732.124)"/></g></g><rect class="r" width="73.966" height="6.645" transform="translate(270.498 143.726)"/><g transform="translate(313.529)"><path class="n" d="M3454.731,2860.123c-4.433,4.29-29.422,10.646-31,13.094a3.085,3.085,0,0,0-.257,2.939c1.248,2.6,5.758,1.323,7.951,1.225,2.683-.119,31.153-1.491,31.172-1.383l.287,1.584,9.511-.439-.644-17.45S3464.457,2859.979,3454.731,2860.123Z" transform="translate(-3253.059 -2549.315)"/><path class="n" d="M3434.015,2856.265c-3.887,4.791-27.936,14.093-29.207,16.713a3.085,3.085,0,0,0,.1,2.947c1.551,2.438,5.876.625,8.041.265,2.65-.439,30.75-5.212,30.782-5.105l.474,1.537,9.39-1.575-2.729-17.247S3443.655,2854.957,3434.015,2856.265Z" transform="translate(-3267.113 -2553.738)"/><path class="s" d="M3405.614,2734.65s-3.2,47.985-3.207,48.1c-.333,4.981-8.127,4.3-11.524,4.86-5.331.881-12.121,2.855-16.206,6.571,1.472.789,4.374.492,6.11.584,2.218.119,4.438.2,6.656.28,4.554.153,9.11.247,13.663.443,0,0,12.285-.772,11.888-8.1s8.924-51.312,8.924-51.312Z" transform="translate(-3289.474 -2643.131)"/><path class="t" d="M3387.645,2765.081l27.144,4.019,4.561-37.207c1.1-7.974,1.445-21.033-6.675-22.577-.147-.028-1.821-.521-1.969-.548-9.119-1.563-21.644,11.373-21.956,20.383Z" transform="translate(-3279.744 -2662.647)"/><path class="u" d="M3440.045,2756.532l-31.559,74.185a27.444,27.444,0,0,0-1.269,17.849l22.739,83.09,19.737-2c-1.188-13.013.553-54.359-6.663-67.572a22.384,22.384,0,0,1,.434-22.685l8.863-14.229,5.151-68.25Z" transform="translate(-3265.758 -2626.713)"/><path class="u" d="M3454.926,2753.834l-4.755-12.724s24.964,22.557,21.4,43.38c-3.079,17.968-8.37,58.768-9.762,69.611a12.217,12.217,0,0,0,.483,5.286l5.819,18.272a39.548,39.548,0,0,1,1.843,13.314L3468,2949.331h-20.208l-16.946-91.731a19.507,19.507,0,0,1-.32-3.19l-1.556-87.079Z" transform="translate(-3248.74 -2638.284)"/><path class="v" d="M3413.973,2706.209c14.932,3.334,48.71,20.159,74.855,72.45,3.469,6.941-6.156,15.169-11.47,17.965a40.668,40.668,0,0,1-13.848,4.076,58.5,58.5,0,0,1-8.207.431c-1.137-.018-8.256.224-8.739-.725a107.112,107.112,0,0,0-7.789-13.424c-3.177-4.537-6.994-9.42-11.628-15.5a167.323,167.323,0,0,0-31.7-31.619,21.257,21.257,0,0,1-4.7-12.238c-.175-4.5,1.157-9.962,5.888-15.912C3400.6,2706.729,3407.651,2704.8,3413.973,2706.209Z" transform="translate(-3277.429 -2664.805)"/><path class="s" d="M3446.392,2720.621l-27.64,27.958a15.909,15.909,0,0,1-5.776,3.73L3368.84,2768.7a13.163,13.163,0,0,1-8.97.07l-5.41-1.915a13.132,13.132,0,0,0-6.487-.583l-21.976,4.1.285,2.431,18.273.261,2.837,5.006a9.428,9.428,0,0,0,10.518,4.4l62.813-15.931a21.39,21.39,0,0,0,8.379-4.256l30.764-25.463Z" transform="translate(-3325.997 -2653.656)"/><path class="s" d="M3375.332,2710.774a2.555,2.555,0,0,0-.3-2.272c-1.888-2.793-5.954-11.12,5.353-19.442,0,0,20.348-12.767,29.368,7.383a16.138,16.138,0,0,1-.286,14.784c-.943,1.743,10.348,9.812,11.706,10.293,1.581.559,4.624,7.437-14.048,16.132-.78-1.258-1.08-1.353-2.353-3.117-4.023-5.569-9.022-8.244-13.426-6.518-2.053.806-5.723,3.462-7.951,2.325-1.194-.609-3.679-6.089-4.356-6.662l-.35-.294a2.931,2.931,0,0,1-1.052-2.2l-.023-1.379-2.823-1.208a2.175,2.175,0,0,1-1.229-2.706Z" transform="translate(-3290.921 -2680.327)"/><path class="n" d="M3400.945,2711.893q1.158-.173,2.316-.348a6.29,6.29,0,0,1-.891-3.339,2.253,2.253,0,0,1,2.387-2.072c1.537.292,1.794,2.261,2.1,3.756.928,4.582,6.009,7.951,10.731,7.118.324-5.554.644-11.175-.446-16.634s-3.763-10.831-8.376-14.116c-4.281-3.049-9.809-4.017-15.114-3.884a41.871,41.871,0,0,0-16.258,3.738,17.825,17.825,0,0,0-6.3,4.346,8.068,8.068,0,0,0-1.969,7.045c.821,3.19,4.117,5.317,7.453,5.86s6.735-.177,10.036-.893c2.62-.569,7.549-2.3,9.617-.14C3397.1,2703.24,3400.1,2712.021,3400.945,2711.893Z" transform="translate(-3293.791 -2682.361)"/><path class="w" d="M3384.823,2740.189l18.227,18.509,23.606-22.39a14.281,14.281,0,0,0,.91-20.009c-.1-.106-.192-.209-.291-.315-5.994-6.379-16.542-5.812-22.256.807Z" transform="translate(-3281.862 -2660.5)"/></g><path class="c" d="M3368.694,2783.987h-60.677l-16.286-35.06a1.15,1.15,0,0,1,1.043-1.635h54.757a6.448,6.448,0,0,1,5.848,3.732Z" transform="translate(-3038.258 -2633.646)"/><path class="x" d="M3547.334,2775.8H3205.745l2.743-7.571h336.1Z" transform="translate(-3102.688 -2617.941)"/><g transform="translate(296.688 34.428)"><g transform="translate(0 1.483)"><path class="q" d="M3319.118,2721.636s1.182,26.435,9.331,27.532c10.015,1.348,16.955-3.7,18.633-12.609.674-3.576-.147-13.917-1.074-20.441-.588-4.125-5.351-8.083-9.46-8.772a17.312,17.312,0,0,0-8.376.711C3317.383,2711.619,3319.118,2721.636,3319.118,2721.636Z" transform="translate(-3314.394 -2699.697)"/><path class="q" d="M3326.007,2732.72s-.288,6.644,0,9.534a8.869,8.869,0,0,0,9.536,4.334c6.548-1.348,5.489-5.634,5.489-5.634l-.962-18.828Z" transform="translate(-3309.245 -2688.438)"/><path class="n" d="M3360.766,2721.03c-1.4-9.033-9.274-16.568-18.316-17.921a23.729,23.729,0,0,0-18.91,5.893,19.933,19.933,0,0,0-6.742,19.564c5.458,1.551,26.961,1.51,31.038,1.285.176,4.365,1.623,8.076,1.743,12.471C3358.129,2739.082,3362.17,2730.063,3360.766,2721.03Z" transform="translate(-3316.375 -2702.878)"/><path class="q" d="M3339.328,2724.028c-.513,2.258-2.1,3.821-3.534,3.494s-2.191-2.421-1.678-4.679,2.1-3.819,3.535-3.492S3339.841,2721.772,3339.328,2724.028Z" transform="translate(-3303.186 -2690.551)"/><path class="v" d="M3348.8,2720.16l-.98-1.2-5.6,4.579a5.592,5.592,0,0,0-5.288-3.136,5.807,5.807,0,0,0-4.973,2.515,5.351,5.351,0,0,0-4.212-.06,2.46,2.46,0,0,0-.223.136,5.8,5.8,0,0,0-5.053-2.592c-3.085,0-5.593,2.044-5.593,4.561s2.508,4.562,5.593,4.562,5.594-2.046,5.594-4.562a.752.752,0,0,1,.42-.744,3.913,3.913,0,0,1,2.925.161,3.563,3.563,0,0,0-.072.583c0,2.515,2.508,4.562,5.594,4.562,2.932,0,5.317-1.855,5.548-4.2Zm-22.281,4.8c0,1.659-1.815,3.013-4.047,3.013s-4.044-1.354-4.044-3.013,1.815-3.014,4.044-3.014c1.87,0,3.529.989,3.947,2.351l.2-.06A2.605,2.605,0,0,0,3326.521,2724.963Zm10.414,3.013c-2.231,0-4.046-1.354-4.046-3.013s1.815-3.014,4.046-3.014,4.044,1.353,4.044,3.014S3339.165,2727.976,3336.935,2727.976Z" transform="translate(-3315.996 -2690.813)"/><path class="s" d="M3325.683,2734.715l.47,4.518s5.211,7.36,10.891-6.068.689-3.443.689-3.443S3332.568,2735.919,3325.683,2734.715Z" transform="translate(-3309.392 -2685.417)"/></g><g transform="translate(28.012)"><path class="c" d="M3345.572,2713.581a7.606,7.606,0,0,0,.908-3.544,8.229,8.229,0,0,0-8.435-8.005,8.62,8.62,0,0,0-5.666,2.111A22.689,22.689,0,0,1,3345.572,2713.581Z" transform="translate(-3332.38 -2702.031)"/></g></g><rect class="y" width="8.263" height="170.847" transform="translate(389.409 157.593)"/><g transform="translate(19.139 158.024)"><path class="q" d="M3208.845,2841.7l-4.906,17.558-10.586-3.1,5.422-17.816Z" transform="translate(-3131.125 -2723.356)"/><path class="z" d="M3173.008,2801.6l53.043,9.917a2.281,2.281,0,0,1,1.156,3.595c-4.318,5.489-13.216,21.964-18.173,67.723l14.459,3.614,33.052-81.594,2.581-19.624Z" transform="translate(-3146.389 -2763.203)"/><g transform="translate(7.329)"><path class="n" d="M3249.619,2820.2a69.95,69.95,0,0,1,21.665,20.613,7.517,7.517,0,0,1,.62,9.959,7.332,7.332,0,0,1-10.71.69,80.184,80.184,0,0,1-19.876-18.761,4.7,4.7,0,0,1-1.318-4.61l1.873-7.116Z" transform="translate(-3103.572 -2736.97)"/><path class="q" d="M3247.311,2817.1l5.5,8.039a4.723,4.723,0,0,1,.674,3.853h0a4.722,4.722,0,0,1-6.063,3.294l-1.12-.373a4.725,4.725,0,0,1-2.711-2.33l-4.8-9.385Z" transform="translate(-3104.363 -2739.295)"/><path class="u" d="M3169.289,2772.647s-14.114,23.41-3.1,40.624,85.037-11.016,85.037-11.016,35.805,51.986,44.411,55.429c0,0,10.673,0,12.738-5.51,0,0-28.917-69.2-51.641-72.641l-55.429,1.72Z" transform="translate(-3161.987 -2772.647)"/></g><g transform="translate(0 42.346)"><path class="d" d="M3169.5,2920.091H3157.8l13.771-117.743h11.706Z" transform="translate(-3157.799 -2792.709)"/><path class="d" d="M3208.156,2920.091h11.706l-13.771-117.743h-11.705Z" transform="translate(-3130.35 -2792.709)"/><rect class="e" width="11.361" height="118.259" transform="translate(37.699 8.606)"/><path class="d" d="M3239.491,2813.024h-72.986c-3.977,0-7.23-3.64-7.23-8.091h0c0-4.451,3.254-8.091,7.23-8.091h72.986c3.977,0,7.23,3.64,7.23,8.091h0C3246.722,2809.384,3243.468,2813.024,3239.491,2813.024Z" transform="translate(-3156.693 -2796.841)"/></g><path class="n" d="M3223.773,2865.6l-11.238-13.327a32.82,32.82,0,0,0-1.161-3.425c-.352-.874-.887-1.852-1.82-1.985a1.938,1.938,0,0,0-1.911,1.278,4.719,4.719,0,0,0-.3,2.139c-6.014-.165-11.378-5.589-11.378-5.589a20.991,20.991,0,0,0-5.363,9.439,2.467,2.467,0,0,0,1.021,2.778l31.988,19.886,1.269-1.978A8.786,8.786,0,0,0,3223.773,2865.6Z" transform="translate(-3133.26 -2718.597)"/></g><g transform="translate(0 28.688)"><path class="d" d="M3256.57,2741.863l8.779,1.549-16.525,44.412-9.3-.258Z" transform="translate(-3077.342 -2666.407)"/><path class="s" d="M3284.034,2790.09c-5.965-14.459-19.518-11.713-27.113-8.762a12.978,12.978,0,0,1-5.322.792c-2.757-.129-5.5-.189-8.25-.236-4.074-.042-8.139,0-12.2.091-4.053.11-8.1.255-12.145.467-1.873.119-3.747.221-5.62.329q-1.515-2.762-2.961-5.548c-1.731-3.42-3.322-6.9-4.833-10.407-1.462-3.528-2.879-7.074-4.131-10.685-1.289-3.6-2.426-7.25-3.578-10.915l-.033-.11a9.935,9.935,0,0,0-12.455-6.5,10.12,10.12,0,0,0-6.756,11.433,98.822,98.822,0,0,0,3.161,12.667,117.22,117.22,0,0,0,11,24.283,118.264,118.264,0,0,0,7.442,11.041l.473.639a8.888,8.888,0,0,0,8.618,3.446c3.982-.676,7.939-1.539,11.907-2.312,3.964-.822,7.918-1.71,11.869-2.632,3.947-.94,7.888-1.934,11.817-3.007,2.825-.794,5.645-1.623,8.458-2.51Z" transform="translate(-3123.138 -2669.191)"/><path class="v" d="M3211.431,2743.686l6.546,15.471a18.046,18.046,0,0,1-4.057,19.986l-8.168,7.922-4.829,23.57a56.214,56.214,0,0,1-37.517-6.528s9.812-20.658,9.3-37.7,6.712-37.183,26.336-31.5Z" transform="translate(-3134.454 -2672.362)"/><path class="q" d="M3185.571,2758.877s4.39,10.328,11.1,11.879l.667-13.5a5.82,5.82,0,0,1,7.476-5.292l1.778.531a7,7,0,0,0,8.364-3.791l1.768-3.856a5.686,5.686,0,0,1,4.675-3.294h0a2.323,2.323,0,0,0,2.067-2.819l-.975-4.383,3.834-8.578a10.7,10.7,0,0,0,.228-8.177c-2.275-5.984-7.917-15.619-20.587-15.262-18.155.513-22.465,8.263-26.338,30.728Z" transform="translate(-3122.279 -2696.075)"/><path class="n" d="M3237.583,2700.023a27.85,27.85,0,0,0-24.6,4c-9.754,7.169-14.667,20.628-26.051,24.742-8,2.89-19.358-1.847-24.2,7.685-1.549,3.053-1.908,6.548-2.272,9.952s-.788,6.9-2.449,9.9c-2.212,3.991-6.281,6.569-8.5,10.539-2.431,4.347-2.986,10.7-2.471,15.544,1.738,16.405,18.985,30.241,34.848,20.7,7.1-4.267,1.827-14.907,3.74-21.651,1.229-4.333,2.426-8.352,4.846-12.15s6.037-7.161,10.484-7.864c4.432-.7,9.4,1.233,13.237-1.082,4.25-2.561,4.408-8.59,3.767-13.51s-1.3-10.669,2.244-14.138c2.2-2.151,5.481-2.764,8.559-2.761s6.159.513,9.215.17c4.584-.515,10.8-2.629,13.489-6.375a20.125,20.125,0,0,0,2.2-3.614c1.881-4.774-1.1-10.109-4.776-13.685A30.02,30.02,0,0,0,3237.583,2700.023Z" transform="translate(-3146.865 -2698.752)"/><rect class="d" width="42.346" height="7.23" transform="translate(127.759 114.187)"/><path class="q" d="M3278.577,2790.682c-5.965-14.46-19.518-11.714-27.113-8.764a12.989,12.989,0,0,1-5.324.793c-2.757-.129-5.5-.188-8.25-.236-4.074-.042-8.137,0-12.194.091-4.055.11-8.105.257-12.147.467-1.871.119-3.745.221-5.618.329q-1.515-2.762-2.961-5.548c-1.731-3.418-3.324-6.9-4.833-10.405-1.461-3.53-2.879-7.077-4.131-10.687-1.288-3.6-2.427-7.249-3.579-10.914l-.033-.11a9.934,9.934,0,0,0-12.453-6.5,10.124,10.124,0,0,0-6.758,11.433,98.741,98.741,0,0,0,3.163,12.667,112.224,112.224,0,0,0,4.812,12.46,113.753,113.753,0,0,0,6.19,11.823,118.557,118.557,0,0,0,7.442,11.041l.474.64a8.892,8.892,0,0,0,8.619,3.446c3.98-.677,7.937-1.54,11.907-2.313,3.963-.823,7.917-1.71,11.867-2.632,3.949-.94,7.888-1.935,11.819-3.007,2.823-.794,5.645-1.622,8.457-2.51Z" transform="translate(-3127.234 -2668.748)"/></g><g transform="translate(182.73 170.724)"><g transform="translate(0 20.417)"><g transform="translate(0 110.046)"><path class="q" d="M3273.241,2854.442l-6.934,11.171,9.053,6.164,7.32-11.172Z" transform="translate(-3239.981 -2854.442)"/><path class="p" d="M3279.659,2863.75s-10.143-8.737-26.708-6.593a1.932,1.932,0,0,0-.788,3.546l30.777,19.338s6.971-8.763,4.4-12.167A6.34,6.34,0,0,1,3279.659,2863.75Z" transform="translate(-3251.266 -2852.66)"/></g><path class="n" d="M3331.122,2791.568l-63.664,113.455a104.848,104.848,0,0,0,12.94,10.388l38.705-58.154c7.145-4.733,14.714-9.445,14.714-9.445,14.893-9.747,45.459-41.605,45.459-41.605Z" transform="translate(-3239.117 -2791.568)"/></g><g transform="translate(56.432)"><path class="q" d="M3304.619,2856.514l3.306,16.455h10.793l-3.313-17.61Z" transform="translate(-3267.669 -2723.291)"/><path class="aa" d="M3392.274,2779.9l-89.16.3a19.663,19.663,0,0,0-18.979,24.547l32.375,111.18h17.016l-6.168-54.44a10.332,10.332,0,0,1,.18-3.28c5.3-25.3-10.769-40.168-10.769-40.168,9.145,3.918,23.97,5.692,38.014,6.436a36.073,36.073,0,0,0,37.853-34.923Z" transform="translate(-3283.508 -2779.903)"/><path class="p" d="M3319.463,2864.5s-14.429-1.565-27.612,10.82a1.683,1.683,0,0,0,1.25,2.885l38.835-1.635s.8-11.667-3.42-13.076A6.619,6.619,0,0,1,3319.463,2864.5Z" transform="translate(-3277.637 -2717.185)"/></g></g><rect class="y" width="8.263" height="170.847" transform="translate(123.628 157.593)"/></g></g></svg>