<svg xmlns="http://www.w3.org/2000/svg" width="292.118" height="28.727" viewBox="0 0 292.118 28.727">
  <g id="company-logo-footer" transform="translate(1083.937 -968.767)">
    <g id="Group_5117" data-name="Group 5117" transform="translate(39 3)">
      <path id="Path_10892" data-name="Path 10892" d="M-1108.6,994.348a14.95,14.95,0,0,1-5.585-1.047,13.652,13.652,0,0,1-4.558-2.936,13.938,13.938,0,0,1-3.06-4.517,14.511,14.511,0,0,1-1.129-5.79,14.519,14.519,0,0,1,1.129-5.791,13.96,13.96,0,0,1,3.06-4.517,13.668,13.668,0,0,1,4.558-2.936,14.95,14.95,0,0,1,5.585-1.047,14.9,14.9,0,0,1,5.6,1.047,13.969,13.969,0,0,1,4.559,2.936,13.82,13.82,0,0,1,3.079,4.517,14.519,14.519,0,0,1,1.13,5.791,14.511,14.511,0,0,1-1.13,5.79,13.8,13.8,0,0,1-3.079,4.517A13.953,13.953,0,0,1-1103,993.3,14.9,14.9,0,0,1-1108.6,994.348Zm0-2.628a11.275,11.275,0,0,0,4.517-.886,10.978,10.978,0,0,0,3.573-2.452,11.129,11.129,0,0,0,2.361-3.688,12.467,12.467,0,0,0,.842-4.636,12.467,12.467,0,0,0-.842-4.636,11.13,11.13,0,0,0-2.361-3.688,11,11,0,0,0-3.573-2.453,11.292,11.292,0,0,0-4.517-.886,11.334,11.334,0,0,0-4.5.886,10.712,10.712,0,0,0-3.572,2.453,11.275,11.275,0,0,0-2.341,3.688,12.447,12.447,0,0,0-.842,4.636,12.447,12.447,0,0,0,.842,4.636,11.275,11.275,0,0,0,2.341,3.688,10.7,10.7,0,0,0,3.572,2.452A11.317,11.317,0,0,0-1108.6,991.72Z" fill="#fff"/>
      <path id="Path_10893" data-name="Path 10893" d="M-1072.55,994.02h-3.491l-5.379-7.6a17.507,17.507,0,0,1-2.957.246h-3.326v7.351h-2.957V966.095h6.283a15.152,15.152,0,0,1,5.031.76,10.071,10.071,0,0,1,3.613,2.135,8.893,8.893,0,0,1,2.2,3.265,11.286,11.286,0,0,1,.739,4.148,10.2,10.2,0,0,1-1.457,5.5,8.944,8.944,0,0,1-4.374,3.531Zm-11.991-9.979a12.255,12.255,0,0,0,4.024-.575,6.938,6.938,0,0,0,2.669-1.6,6.169,6.169,0,0,0,1.5-2.422,9.429,9.429,0,0,0,.472-3.039,9.621,9.621,0,0,0-.472-3.06,6.168,6.168,0,0,0-1.5-2.443,6.936,6.936,0,0,0-2.689-1.6,12.3,12.3,0,0,0-4-.575h-3.162v15.317Z" fill="#fff"/>
      <path id="Path_10894" data-name="Path 10894" d="M-1068.526,966.095h3V994.02h-3Z" fill="#fff"/>
      <path id="Path_10895" data-name="Path 10895" d="M-1047.788,994.348a15.163,15.163,0,0,1-5.667-1.047,13.5,13.5,0,0,1-4.559-2.957,14.234,14.234,0,0,1-3.059-4.517,14.36,14.36,0,0,1-1.129-5.769,14.412,14.412,0,0,1,1.129-5.75,14.021,14.021,0,0,1,3.08-4.537,13.777,13.777,0,0,1,4.558-2.957,14.9,14.9,0,0,1,5.606-1.047,15.651,15.651,0,0,1,6.55,1.335,10.987,10.987,0,0,1,4.784,4.25l-2.341,1.683q-2.956-4.639-8.993-4.64a11.3,11.3,0,0,0-4.518.886,10.983,10.983,0,0,0-3.572,2.453,11.1,11.1,0,0,0-2.361,3.688,12.447,12.447,0,0,0-.842,4.636,12.2,12.2,0,0,0,.862,4.636,11.576,11.576,0,0,0,2.361,3.688,10.691,10.691,0,0,0,3.573,2.452,11.423,11.423,0,0,0,4.538.886,12.544,12.544,0,0,0,4.23-.66,9.859,9.859,0,0,0,3.162-1.795,8.955,8.955,0,0,0,2.094-2.621,9.814,9.814,0,0,0,1.026-3.137h-9.978v-2.628h13.182a15.778,15.778,0,0,1-1.006,5.523,12.153,12.153,0,0,1-2.731,4.25,12.063,12.063,0,0,1-4.292,2.731A15.839,15.839,0,0,1-1047.788,994.348Z" fill="#fff"/>
      <path id="Path_10896" data-name="Path 10896" d="M-1031.28,966.095h3V994.02h-3Z" fill="#fff"/>
      <path id="Path_10897" data-name="Path 10897" d="M-1018.509,974.6a6.551,6.551,0,0,1-.657-.78q-.33-.451-.616-.863c-.219-.3-.438-.616-.657-.944q.041.575.123,1.15c.027.328.055.671.082,1.026s.041.685.041.986V994.02h-2.792V965.808h.493l16.672,19.711q.286.371.637.8t.636.842c.219.3.438.616.657.945q-.082-.576-.123-1.15-.042-.493-.061-1.027c-.015-.356-.021-.684-.021-.986V966.095h2.751v28.212h-.493Z" fill="#fff"/>
      <path id="Path_10898" data-name="Path 10898" d="M-986.889,965.808h.493l11.827,28.212h-3.121l-1.889-4.682h-14.126l-1.848,4.682h-2.916Zm6.242,21.025-4.928-12.433c-.137-.33-.267-.686-.39-1.071s-.24-.741-.349-1.07q-.163-.576-.328-1.195-.207.618-.37,1.195-.165.494-.349,1.07c-.123.385-.253.741-.39,1.071l-4.928,12.433Z" fill="#fff"/>
      <path id="Path_10899" data-name="Path 10899" d="M-971.7,966.095h2.957v25.3h13.182v2.628H-971.7Z" fill="#fff"/>
    </g>
    <g id="Group_5118" data-name="Group 5118" transform="translate(39 3)">
      <path id="Path_10900" data-name="Path 10900" d="M-925.479,994.124h-8.108l-3.91-6.42h-2.8v6.42h-7.49V966.137h10.618a13.865,13.865,0,0,1,5.021.844,10.651,10.651,0,0,1,3.684,2.325,9.908,9.908,0,0,1,2.284,3.478,11.808,11.808,0,0,1,.782,4.342,10.846,10.846,0,0,1-1.3,5.371,9.372,9.372,0,0,1-3.766,3.684Zm-12.044-12.388a4.4,4.4,0,0,0,3.58-1.282,5.093,5.093,0,0,0,1.055-3.348,6.7,6.7,0,0,0-.248-1.881,3.74,3.74,0,0,0-.807-1.468,3.813,3.813,0,0,0-1.428-.971,5.772,5.772,0,0,0-2.152-.352H-940.3v9.3Z" fill="#fff"/>
      <path id="Path_10901" data-name="Path 10901" d="M-907.165,966.137h7.491v27.987h-7.491v-8.89h-9.713v8.89h-7.49V966.137h7.49v12.8h9.713Z" fill="#fff"/>
      <path id="Path_10902" data-name="Path 10902" d="M-897.123,966.137h7.491v27.987h-7.491Z" fill="#fff"/>
      <path id="Path_10903" data-name="Path 10903" d="M-845.842,994.494a15.833,15.833,0,0,1-5.761-1.049,14.737,14.737,0,0,1-4.775-2.963,14.329,14.329,0,0,1-3.272-4.548,13.7,13.7,0,0,1-1.214-5.8,13.709,13.709,0,0,1,1.214-5.8,14.108,14.108,0,0,1,3.272-4.527,14.926,14.926,0,0,1,4.775-2.942,15.835,15.835,0,0,1,5.761-1.05,15.9,15.9,0,0,1,5.742,1.05A14.889,14.889,0,0,1-835.3,969.8a14.138,14.138,0,0,1,3.272,4.527,13.708,13.708,0,0,1,1.214,5.8,13.7,13.7,0,0,1-1.214,5.8,14.36,14.36,0,0,1-3.272,4.548,14.7,14.7,0,0,1-4.795,2.963A15.9,15.9,0,0,1-845.842,994.494Zm0-6.5a7.479,7.479,0,0,0,3.128-.618,6.9,6.9,0,0,0,2.3-1.667,7.112,7.112,0,0,0,1.441-2.49,9.455,9.455,0,0,0,.493-3.086,9.466,9.466,0,0,0-.493-3.087,7.131,7.131,0,0,0-1.441-2.49,6.668,6.668,0,0,0-2.3-1.646,7.706,7.706,0,0,0-3.128-.6,7.709,7.709,0,0,0-3.128.6,6.673,6.673,0,0,0-2.3,1.646,7.116,7.116,0,0,0-1.441,2.49,9.468,9.468,0,0,0-.494,3.087,9.457,9.457,0,0,0,.494,3.086,7.1,7.1,0,0,0,1.441,2.49,6.9,6.9,0,0,0,2.3,1.667A7.482,7.482,0,0,0-845.842,987.992Z" fill="#fff"/>
      <path id="Path_10904" data-name="Path 10904" d="M-868.118,978.613l-3.526,4.7,1.268-4.339-5.027-6.346,2.663,1.36,4.051-5.113h-9.687l-2.166-2.734h-6.539v27.987h25.188v-23.25Zm-11.657,11.433A4.169,4.169,0,0,1-883.3,987.7h7.055A4.169,4.169,0,0,1-879.775,990.046Z" fill="#fff"/>
    </g>
  </g>
</svg>
