<svg xmlns="http://www.w3.org/2000/svg" width="244.564" height="24.051" viewBox="0 0 244.564 24.051">
  <g id="logo" transform="translate(-69.063 -111.311)">
    <g id="Group_19" data-name="Group 19" transform="translate(69.063 111.311)">
      <path id="Path_443" data-name="Path 443" d="M81.062,135.24a12.515,12.515,0,0,1-4.676-.877A11.436,11.436,0,0,1,72.57,131.9a11.657,11.657,0,0,1-2.561-3.782,12.9,12.9,0,0,1,0-9.7,11.672,11.672,0,0,1,2.561-3.782,11.453,11.453,0,0,1,3.816-2.458,12.955,12.955,0,0,1,9.369,0,11.7,11.7,0,0,1,3.816,2.458,11.565,11.565,0,0,1,2.578,3.782,12.9,12.9,0,0,1,0,9.7,11.55,11.55,0,0,1-2.578,3.782,11.684,11.684,0,0,1-3.816,2.458A12.48,12.48,0,0,1,81.062,135.24Zm0-2.2a9.443,9.443,0,0,0,3.782-.742,9.207,9.207,0,0,0,2.991-2.053,9.321,9.321,0,0,0,1.976-3.088,11.039,11.039,0,0,0,0-7.763,9.321,9.321,0,0,0-1.976-3.088,9.214,9.214,0,0,0-2.991-2.053,9.966,9.966,0,0,0-7.547,0,8.968,8.968,0,0,0-2.991,2.053,9.442,9.442,0,0,0-1.96,3.088,11.04,11.04,0,0,0,0,7.763,9.441,9.441,0,0,0,1.96,3.088A8.961,8.961,0,0,0,77.3,132.3,9.475,9.475,0,0,0,81.062,133.039Z" transform="translate(-69.063 -111.311)" fill="#ff4e00"/>
      <path id="Path_444" data-name="Path 444" d="M159.325,135.454H156.4l-4.5-6.36a14.643,14.643,0,0,1-2.476.206h-2.785v6.154h-2.476V112.075h5.26a12.673,12.673,0,0,1,4.212.636,8.422,8.422,0,0,1,3.025,1.788,7.449,7.449,0,0,1,1.839,2.733,9.45,9.45,0,0,1,.619,3.473,8.537,8.537,0,0,1-1.221,4.607,7.486,7.486,0,0,1-3.662,2.957ZM149.286,127.1a10.266,10.266,0,0,0,3.369-.481,5.819,5.819,0,0,0,2.235-1.341,5.177,5.177,0,0,0,1.255-2.028,7.9,7.9,0,0,0,.4-2.544,8.057,8.057,0,0,0-.4-2.561,5.162,5.162,0,0,0-1.255-2.046,5.817,5.817,0,0,0-2.252-1.341,10.317,10.317,0,0,0-3.352-.481h-2.647V127.1Z" transform="translate(-117.14 -111.8)" fill="#ff4e00"/>
      <path id="Path_445" data-name="Path 445" d="M195.663,112.075h2.51v23.379h-2.51Z" transform="translate(-150.11 -111.8)" fill="#ff4e00"/>
      <path id="Path_446" data-name="Path 446" d="M222.445,135.24a12.7,12.7,0,0,1-4.745-.877,11.312,11.312,0,0,1-3.816-2.475,11.883,11.883,0,0,1-3.506-8.612,12.057,12.057,0,0,1,.945-4.813,11.732,11.732,0,0,1,2.578-3.8,11.541,11.541,0,0,1,3.816-2.476,12.476,12.476,0,0,1,4.693-.877,13.109,13.109,0,0,1,5.484,1.117,9.2,9.2,0,0,1,4.006,3.559l-1.96,1.409a8.319,8.319,0,0,0-7.53-3.885,9.447,9.447,0,0,0-3.782.742,9.2,9.2,0,0,0-2.991,2.053,9.305,9.305,0,0,0-1.977,3.088,10.432,10.432,0,0,0-.7,3.881,10.222,10.222,0,0,0,.722,3.882,9.683,9.683,0,0,0,1.977,3.088,8.961,8.961,0,0,0,2.991,2.053,9.564,9.564,0,0,0,3.8.742,10.5,10.5,0,0,0,3.541-.553,8.238,8.238,0,0,0,2.647-1.5,7.474,7.474,0,0,0,1.753-2.194,8.227,8.227,0,0,0,.859-2.626h-8.354v-2.2h11.036a13.183,13.183,0,0,1-.842,4.624,9.88,9.88,0,0,1-5.879,5.845A13.268,13.268,0,0,1,222.445,135.24Z" transform="translate(-159.53 -111.311)" fill="#ff4e00"/>
      <path id="Path_447" data-name="Path 447" d="M282.325,112.075h2.51v23.379h-2.51Z" transform="translate(-205.589 -111.8)" fill="#ff4e00"/>
      <path id="Path_448" data-name="Path 448" d="M305.374,118.764a5.368,5.368,0,0,1-.55-.653q-.276-.378-.516-.722-.275-.378-.55-.791.034.482.1.963.034.412.069.859t.034.825v15.781h-2.338V111.407h.412L316,127.909q.24.309.533.67t.533.7q.275.379.55.791-.07-.481-.1-.963-.035-.412-.051-.86t-.017-.825V111.647h2.3v23.619h-.413Z" transform="translate(-217.945 -111.372)" fill="#ff4e00"/>
      <path id="Path_449" data-name="Path 449" d="M368.363,111.407h.413l9.9,23.619h-2.613l-1.581-3.919H362.656l-1.547,3.919h-2.441Zm5.226,17.6-4.126-10.41q-.172-.413-.326-.9t-.292-.9q-.138-.482-.275-1-.172.517-.309,1-.138.415-.292.9t-.327.9l-4.126,10.41Z" transform="translate(-254.462 -111.372)" fill="#ff4e00"/>
      <path id="Path_450" data-name="Path 450" d="M420.965,112.075h2.475v21.178h11.036v2.2H420.965Z" transform="translate(-294.343 -111.8)" fill="#ff4e00"/>
    </g>
    <g id="Group_20" data-name="Group 20" transform="translate(215.701 111.346)">
      <path id="Path_451" data-name="Path 451" d="M495.27,135.6h-6.788l-3.274-5.375h-2.343V135.6h-6.271V112.172h8.89a11.6,11.6,0,0,1,4.2.707,8.9,8.9,0,0,1,3.084,1.947,8.292,8.292,0,0,1,1.912,2.912,9.888,9.888,0,0,1,.655,3.635,9.078,9.078,0,0,1-1.085,4.5,7.838,7.838,0,0,1-3.153,3.084Zm-10.083-10.371a3.683,3.683,0,0,0,3-1.073,4.266,4.266,0,0,0,.884-2.8,5.6,5.6,0,0,0-.208-1.575,3.12,3.12,0,0,0-.676-1.229,3.192,3.192,0,0,0-1.2-.813,4.831,4.831,0,0,0-1.8-.294h-2.322v7.788Z" transform="translate(-476.594 -111.897)" fill="#ff4e00"/>
      <path id="Path_452" data-name="Path 452" d="M545.486,112.172h6.271V135.6h-6.271V128.16h-8.132V135.6h-6.271V112.172h6.271v10.717h8.132Z" transform="translate(-511.477 -111.897)" fill="#ff4e00"/>
      <path id="Path_453" data-name="Path 453" d="M594.475,112.172h6.271V135.6h-6.271Z" transform="translate(-552.059 -111.897)" fill="#ff4e00"/>
      <path id="Path_454" data-name="Path 454" d="M691.418,135.423a13.267,13.267,0,0,1-4.824-.878,12.335,12.335,0,0,1-4-2.481,11.991,11.991,0,0,1-2.739-3.808,12.119,12.119,0,0,1,0-9.717,11.8,11.8,0,0,1,2.739-3.79,12.5,12.5,0,0,1,4-2.463,13.634,13.634,0,0,1,9.631,0,12.46,12.46,0,0,1,4.015,2.463,11.819,11.819,0,0,1,2.739,3.79,12.12,12.12,0,0,1,0,9.717,12.012,12.012,0,0,1-2.739,3.808,12.3,12.3,0,0,1-4.015,2.481A13.311,13.311,0,0,1,691.418,135.423Zm0-5.444a6.274,6.274,0,0,0,2.619-.517,5.8,5.8,0,0,0,1.93-1.4,5.954,5.954,0,0,0,1.206-2.084,8.284,8.284,0,0,0,0-5.169,5.961,5.961,0,0,0-1.206-2.084,5.6,5.6,0,0,0-1.93-1.378,7.115,7.115,0,0,0-5.238,0,5.594,5.594,0,0,0-1.93,1.378,5.95,5.95,0,0,0-1.206,2.084,8.277,8.277,0,0,0,0,5.169,5.944,5.944,0,0,0,1.206,2.084,5.788,5.788,0,0,0,1.93,1.4A6.271,6.271,0,0,0,691.418,129.979Z" transform="translate(-606.068 -111.407)" fill="#ff4e00"/>
      <path id="Path_455" data-name="Path 455" d="M633.717,122.618l-2.953,3.931,1.061-3.632-4.208-5.313,2.23,1.139,3.391-4.281h-8.11l-1.813-2.288h-5.474V135.6h21.088V116.139Zm-9.76,9.572A3.489,3.489,0,0,1,621,130.228h5.906A3.49,3.49,0,0,1,623.957,132.189Z" transform="translate(-567.017 -111.897)" fill="#ff4e00"/>
    </g>
  </g>
</svg>
