<svg xmlns="http://www.w3.org/2000/svg" width="444" height="296.161" viewBox="0 0 444 296.161">
  <g id="Group_5670" data-name="Group 5670" transform="translate(-27.718 -27)">
    <g id="Group_5662" data-name="Group 5662" transform="translate(52.647 27)">
      <rect id="Rectangle_1568" data-name="Rectangle 1568" width="391.816" height="245.166" rx="5.139" transform="translate(0.74)" fill="#2b8d7b"/>
      <path id="Path_15004" data-name="Path 15004" d="M203.441,205.249H123.715l8.66-34.046,1.963-7.721,3.81-14.952h50.86l3.81,14.952,1.963,7.721Z" transform="translate(33.063 81.506)" fill="#2b8d7b"/>
      <path id="Path_15005" data-name="Path 15005" d="M190.7,164.15H128.29l1.963-7.721h58.481Z" transform="translate(37.148 88.559)" fill="#26715f"/>
      <path id="Path_15006" data-name="Path 15006" d="M251.357,189.24H110.436a6.122,6.122,0,0,1-6.121-6.121h0a6.122,6.122,0,0,1,6.121-6.123h140.92a6.122,6.122,0,0,1,6.121,6.123h0A6.122,6.122,0,0,1,251.357,189.24Z" transform="translate(15.742 106.922)" fill="#26715f"/>
      <rect id="Rectangle_1569" data-name="Rectangle 1569" width="392.547" height="171.267" transform="translate(0 34.844)" fill="#73c6bf" opacity="0.2"/>
      <path id="Path_15007" data-name="Path 15007" d="M149.025,159.167h0a9.06,9.06,0,0,1-9.033-9.035h0a9.059,9.059,0,0,1,9.033-9.033h0a9.059,9.059,0,0,1,9.033,9.033h0A9.06,9.06,0,0,1,149.025,159.167Z" transform="translate(47.596 74.873)" fill="#26715f"/>
    </g>
    <rect id="Rectangle_1570" data-name="Rectangle 1570" width="368.578" height="153.995" transform="translate(65.27 70.532)" fill="#eeeeef"/>
    <rect id="Rectangle_1571" data-name="Rectangle 1571" width="156.52" height="65.64" rx="3.131" transform="translate(85.466 91.357)" fill="#e7a236"/>
    <rect id="Rectangle_1572" data-name="Rectangle 1572" width="63.113" height="32.819" rx="6.009" transform="translate(351.171 126.071)" fill="#e7a236"/>
    <rect id="Rectangle_1573" data-name="Rectangle 1573" width="78.26" height="49.859" rx="3.766" transform="translate(85.466 163.308)" fill="#d5402c"/>
    <rect id="Rectangle_1574" data-name="Rectangle 1574" width="63.113" height="25.876" rx="4.224" transform="translate(351.171 187.922)" fill="#d5402c"/>
    <rect id="Rectangle_1575" data-name="Rectangle 1575" width="63.113" height="6.797" rx="1.497" transform="translate(351.171 102.234)" fill="#bcbcba"/>
    <rect id="Rectangle_1576" data-name="Rectangle 1576" width="63.113" height="6.797" rx="1.497" transform="translate(351.171 114.225)" fill="#bcbcba"/>
    <rect id="Rectangle_1577" data-name="Rectangle 1577" width="63.113" height="6.797" rx="1.497" transform="translate(351.171 91.505)" fill="#bcbcba"/>
    <rect id="Rectangle_1578" data-name="Rectangle 1578" width="63.113" height="6.797" rx="1.497" transform="translate(351.171 176.707)" fill="#bcbcba"/>
    <rect id="Rectangle_1579" data-name="Rectangle 1579" width="63.113" height="6.797" rx="1.497" transform="translate(351.171 165.978)" fill="#bcbcba"/>
    <rect id="Rectangle_1580" data-name="Rectangle 1580" width="73.211" height="9.467" rx="2.085" transform="translate(168.775 163.308)" fill="#bcbcba"/>
    <rect id="Rectangle_1581" data-name="Rectangle 1581" width="73.211" height="9.467" rx="2.085" transform="translate(168.775 177.824)" fill="#bcbcba"/>
    <rect id="Rectangle_1582" data-name="Rectangle 1582" width="73.211" height="9.467" rx="2.085" transform="translate(168.775 192.339)" fill="#bcbcba"/>
    <rect id="Rectangle_1583" data-name="Rectangle 1583" width="67.531" height="121.808" rx="7.039" transform="translate(273.542 91.359)" fill="#ee7834"/>
    <g id="Group_5668" data-name="Group 5668" transform="translate(263.501 122.831)">
      <rect id="Rectangle_1584" data-name="Rectangle 1584" width="97.581" height="190.601" rx="6.444" transform="translate(3.338)" fill="#5a5a5a"/>
      <rect id="Rectangle_1585" data-name="Rectangle 1585" width="97.581" height="190.601" rx="6.444" fill="#cd2d1d"/>
      <rect id="Rectangle_1586" data-name="Rectangle 1586" width="93.703" height="186.724" rx="5.42" transform="translate(1.939 1.939)" fill="#d5402c"/>
      <rect id="Rectangle_1587" data-name="Rectangle 1587" width="85.948" height="178.969" rx="3.371" transform="translate(5.817 5.816)" fill="#fff"/>
      <path id="Path_15008" data-name="Path 15008" d="M190.959,87.456H169.081a2.812,2.812,0,0,1-2.8-2.8V83.578a2.81,2.81,0,0,0-2.665-1.938l2.665-.973V79.65H215.64v1.016l2.665.973a2.812,2.812,0,0,0-2.665,1.938v1.075a2.81,2.81,0,0,1-2.8,2.8Z" transform="translate(-142.169 -75.823)" fill="#bcbcba" fill-rule="evenodd"/>
      <path id="Path_15009" data-name="Path 15009" d="M177.031,82.465a.769.769,0,1,1,0-1.539h14.247a.769.769,0,0,1,0,1.539Zm-2.567-1.539a.769.769,0,0,1,0,1.539h-.657a.769.769,0,0,1,0-1.539Z" transform="translate(-133.753 -74.683)" fill="#0b0c10" fill-rule="evenodd"/>
      <g id="Group_5663" data-name="Group 5663" transform="translate(11.325 8.376)">
        <path id="Path_15010" data-name="Path 15010" d="M158.524,82.568a.257.257,0,0,1,0-.515h5.637a.257.257,0,1,1,0,.515Zm0,3.7a.257.257,0,0,1,0-.515h5.637a.257.257,0,1,1,0,.515Zm0-1.851a.257.257,0,0,1,0-.515h5.637a.257.257,0,1,1,0,.515Z" transform="translate(-158.267 -82.053)" fill="#d5402c" fill-rule="evenodd"/>
        <path id="Path_15011" data-name="Path 15011" d="M201.3,82.421Zm-6.782.286h3.311V85.37h-3.311a.257.257,0,0,1-.187-.078.264.264,0,0,1-.078-.189V82.974a.264.264,0,0,1,.078-.189.268.268,0,0,1,.187-.078Zm6.229-.515h-6.229a.782.782,0,0,0-.782.782V85.1a.788.788,0,0,0,.782.784h6.229a.774.774,0,0,0,.534-.214l.019-.017a.783.783,0,0,0,.229-.553V82.974a.785.785,0,0,0-.782-.782Z" transform="translate(-126.598 -81.929)" fill="#d5402c" fill-rule="evenodd"/>
      </g>
      <rect id="Rectangle_1588" data-name="Rectangle 1588" width="72.58" height="34.081" rx="3.878" transform="translate(12.565 20.912)" fill="#e7a236"/>
      <path id="Path_15012" data-name="Path 15012" d="M176.811,106.809h8.81l-4.4-4.73-4.4-4.73-4.4,4.73L168,106.809Z" transform="translate(-138.251 -60.021)" fill="#fff"/>
      <path id="Path_15013" data-name="Path 15013" d="M188.672,108.411H203.3l-7.314-6.428-7.314-6.428-7.314,6.428-7.314,6.428Z" transform="translate(-132.855 -61.622)" fill="#bcbcba"/>
      <g id="Group_5664" data-name="Group 5664" transform="translate(12.565 60.673)">
        <rect id="Rectangle_1589" data-name="Rectangle 1589" width="28.401" height="23.352" rx="3.349" fill="#b8e2e8"/>
        <rect id="Rectangle_1590" data-name="Rectangle 1590" width="39.761" height="3.156" rx="0.378" transform="translate(32.819)" fill="#b8e2e8"/>
        <rect id="Rectangle_1591" data-name="Rectangle 1591" width="39.761" height="3.156" rx="0.378" transform="translate(32.819 6.732)" fill="#b8e2e8"/>
        <rect id="Rectangle_1592" data-name="Rectangle 1592" width="39.761" height="3.156" rx="0.378" transform="translate(32.819 13.464)" fill="#b8e2e8"/>
        <rect id="Rectangle_1593" data-name="Rectangle 1593" width="39.761" height="3.156" rx="0.378" transform="translate(32.819 20.196)" fill="#b8e2e8"/>
      </g>
      <g id="Group_5665" data-name="Group 5665" transform="translate(12.565 92.019)">
        <rect id="Rectangle_1594" data-name="Rectangle 1594" width="28.401" height="23.352" rx="3.349" fill="#b8e2e8"/>
        <rect id="Rectangle_1595" data-name="Rectangle 1595" width="39.761" height="3.156" rx="0.378" transform="translate(32.819)" fill="#b8e2e8"/>
        <rect id="Rectangle_1596" data-name="Rectangle 1596" width="39.761" height="3.156" rx="0.378" transform="translate(32.819 6.732)" fill="#b8e2e8"/>
        <rect id="Rectangle_1597" data-name="Rectangle 1597" width="39.761" height="3.156" rx="0.378" transform="translate(32.819 13.464)" fill="#b8e2e8"/>
        <rect id="Rectangle_1598" data-name="Rectangle 1598" width="39.761" height="3.156" rx="0.378" transform="translate(32.819 20.196)" fill="#b8e2e8"/>
      </g>
      <g id="Group_5666" data-name="Group 5666" transform="translate(12.565 123.365)">
        <rect id="Rectangle_1599" data-name="Rectangle 1599" width="28.401" height="23.352" rx="3.349" fill="#b8e2e8"/>
        <rect id="Rectangle_1600" data-name="Rectangle 1600" width="39.761" height="3.156" rx="0.378" transform="translate(32.819)" fill="#b8e2e8"/>
        <rect id="Rectangle_1601" data-name="Rectangle 1601" width="39.761" height="3.156" rx="0.378" transform="translate(32.819 6.732)" fill="#b8e2e8"/>
        <rect id="Rectangle_1602" data-name="Rectangle 1602" width="39.761" height="3.156" rx="0.378" transform="translate(32.819 13.464)" fill="#b8e2e8"/>
        <rect id="Rectangle_1603" data-name="Rectangle 1603" width="39.761" height="3.156" rx="0.378" transform="translate(32.819 20.196)" fill="#b8e2e8"/>
      </g>
      <g id="Group_5667" data-name="Group 5667" transform="translate(12.565 154.711)">
        <rect id="Rectangle_1604" data-name="Rectangle 1604" width="28.401" height="23.352" rx="3.349" fill="#b8e2e8"/>
        <rect id="Rectangle_1605" data-name="Rectangle 1605" width="39.761" height="3.156" rx="0.378" transform="translate(32.819)" fill="#b8e2e8"/>
        <rect id="Rectangle_1606" data-name="Rectangle 1606" width="39.761" height="3.156" rx="0.378" transform="translate(32.819 6.732)" fill="#b8e2e8"/>
        <rect id="Rectangle_1607" data-name="Rectangle 1607" width="39.761" height="3.156" rx="0.378" transform="translate(32.819 13.464)" fill="#b8e2e8"/>
        <rect id="Rectangle_1608" data-name="Rectangle 1608" width="39.761" height="3.156" rx="0.378" transform="translate(32.819 20.196)" fill="#b8e2e8"/>
      </g>
    </g>
    <g id="Group_5226" data-name="Group 5226" transform="translate(27.718 176.15)">
      <path id="Path_11345" data-name="Path 11345" d="M28.952,105.8s-5.834,48.625,7.861,76.872c4.649,9.585,10.229,15.716,15.574,19.633a18.348,18.348,0,0,0,28.987-12.158c.952-6.557.49-14.836-3.091-24.868C67.729,135.71,28.952,105.8,28.952,105.8Z" transform="translate(-27.718 -105.797)" fill="#1a3843"/>
      <path id="Path_11346" data-name="Path 11346" d="M61.952,181.941q-1.261-3-2.525-5.989,7.7-9.3,15.394-18.591c-.117-.229-.235-.456-.354-.681L59.12,175.218l-2.387-5.663q7.217-9.009,15.217-17.35c-.127-.206-.252-.413-.38-.619q-7.95,8.282-15.15,17.231l-2.294-5.44q7.206-8.234,14.412-16.464c-.136-.2-.274-.4-.413-.6l-14.3,16.339-2.4-5.705q6.062-8.254,12.78-15.991c-.146-.191-.293-.379-.441-.566q-6.647,7.64-12.659,15.8l-2.478-5.873q5.545-7.339,11.7-14.179c-.151-.182-.3-.362-.456-.543q-6.076,6.738-11.56,13.971-1.008-2.391-2.016-4.787,4.736-6.828,10.079-13.2l-.475-.532q-5.253,6.258-9.93,12.966-1.229-2.916-2.457-5.832A66.872,66.872,0,0,1,51.75,126.6c-.163-.17-.327-.339-.49-.507a67.579,67.579,0,0,0-8.1,11.278l-.835-1.986a.363.363,0,0,0-.146-.345l-.608-1.439a34.617,34.617,0,0,1,7.251-9.994l-.5-.5a35.517,35.517,0,0,0-7.115,9.635l-1.844-4.372a69.173,69.173,0,0,1,5.76-8.391l-.509-.49a69.257,69.257,0,0,0-5.59,8.081L37.317,123.5l4.308-5.287c.238-.291.479-.581.715-.874l-.513-.475c-.35.433-.71.857-1.058,1.287l-3.763,4.613q-.724-1.718-1.45-3.436,1.508-2.683,3.242-5.22l-.532-.473q-1.624,2.376-3.057,4.876L33.52,114.5q.991-1.63,2.128-3.159c-.182-.157-.362-.31-.536-.462q-1.025,1.374-1.929,2.828l-1.015-2.419q.576-.962,1.155-1.929c-.186-.157-.369-.309-.543-.456l-.95,1.586L30.3,106.873c-.873-.7-1.355-1.075-1.355-1.075s-.072.589-.18,1.675q.849,2.019,1.7,4.032a15.866,15.866,0,0,0-1.974-.945c-.021.237-.04.481-.059.733a15.345,15.345,0,0,1,2.506,1.331l1.187,2.811a24.208,24.208,0,0,0-3.865-1.781c-.017.238-.032.483-.047.729a23,23,0,0,1,4.058,1.952.362.362,0,0,0,.254.049l2.184,5.179q-3.313-1.59-6.729-2.943c-.011.246-.023.5-.034.746q3.648,1.454,7.176,3.178L37.09,127.2q-4.591-2.115-9.277-4c-.008.25-.015.5-.021.753q4.906,1.976,9.7,4.208,1.2,2.856,2.408,5.709-5.982-3.007-12.18-5.542v.761q6.417,2.641,12.608,5.785.792,1.88,1.586,3.763l-14.155-4.361c.006.248.009.494.015.742l14.5,4.465,3.076,7.295a173.525,173.525,0,0,0-17.433-7.511q.017.38.034.767a173.961,173.961,0,0,1,17.821,7.744l2.818,6.686L28.47,147.846c.023.254.045.509.07.759l20.41,6.714q.539,1.275,1.075,2.546l1.306,3.1-22.18-6.793c.034.256.066.511.1.767l22.434,6.871L53.7,166.59l-23.36-4.755c.047.25.095.5.142.748L53.9,167.357a.317.317,0,0,0,.119,0L56.9,174.19q-12.567-2.927-25.139-5.849c.066.256.131.511.2.767l25.281,5.883,2.158,5.12-24.934-2.974c.093.25.187.5.282.744q12.484,1.491,24.968,2.979l2.3,5.451a216.574,216.574,0,0,1-24.16-1.6q.2.386.407.761A217.341,217.341,0,0,0,62.3,187.014l3.729,8.843q-10.846-.085-21.647-1.189c.22.265.437.522.657.778q10.548,1.042,21.162,1.115a.411.411,0,0,0,.117-.019l1.567,3.723q-8.66.309-17.321.623c.28.231.56.454.839.674q8.387-.3,16.774-.6.775,1.843,1.552,3.683.769-.3,1.512-.655l-.43-1.018,10.246-11.209q.153-.653.263-1.329L70.517,202.257l-1.387-3.3,12.665-14.1c.006-.35.006-.7.006-1.058q-6.488,7.217-12.972,14.442-1.079-2.555-2.154-5.107L81.327,177.4c-.04-.293-.085-.591-.132-.888L66.376,192.431,64.5,187.976l-.051-.123A220.9,220.9,0,0,1,80.08,171.126c-.068-.257-.136-.519-.206-.78A222.587,222.587,0,0,0,64.14,187.124l-.24-.574a.321.321,0,0,0-.051-.119q-.789-1.868-1.573-3.733,7.209-9.957,15.341-19.192c-.1-.244-.193-.488-.293-.733Q69.187,171.985,61.952,181.941Z" transform="translate(-27.714 -105.796)" fill="#254f5b"/>
    </g>
    <path id="Path_11349" data-name="Path 11349" d="M52.335,173.56c-.1-.062-.2-.129-.3-.193l-.045-.03c-.1-.064-.189-.129-.282-.195l-.034-.023-.29-.21-.057-.044c-.093-.068-.185-.142-.276-.212L51,172.615l-.276-.229-.006-.006c-.093-.076-.182-.151-.271-.235l-.047-.04c-.085-.076-.17-.151-.252-.227l-.047-.045c-.085-.079-.17-.159-.252-.24l-.013-.015c-.083-.08-.161-.159-.24-.24l-.03-.032c-.078-.081-.153-.165-.229-.246l-.04-.044c-.076-.083-.151-.168-.223-.25l-.021-.027c-.078-.085-.146-.17-.216-.254l-.013-.015c-.07-.087-.14-.174-.208-.261l-.03-.038c-.066-.087-.132-.172-.2-.259l-.021-.03q-.2-.27-.375-.539l-.019-.028c-.057-.089-.112-.178-.167-.265l-.017-.03c-.114-.182-.218-.365-.314-.547l-.008-.015c-.047-.089-.093-.178-.138-.267l-.011-.026c-.044-.091-.085-.18-.127-.269h0c-.081-.184-.157-.365-.223-.543l-.008-.021c-.03-.085-.061-.172-.089-.259v-.009c-.057-.176-.106-.35-.146-.519v-.011c-.017-.083-.034-.167-.049-.248v-.011a4.423,4.423,0,0,1-.078-.723v-.009a3.309,3.309,0,0,1,.053-.657v-.008c.015-.068.03-.134.049-.2h0a2.012,2.012,0,0,1,.14-.373V164.3a1.615,1.615,0,0,1,.091-.168v-.006c.456-.734,1.374-1.13,2.839-.969,6.695.731,11.444,7.959,13.032,10.727q.1-2.024.265-4.047.114-1.38.246-2.758l.123-1.28c.335-3.392.712-6.78,1-10.18l-.151.038c-.134.034-.269.07-.4.1-.078.019-.157.036-.235.053-.121.026-.244.053-.363.076-.083.017-.165.03-.246.045-.115.021-.231.04-.346.059l-.25.036c-.114.017-.229.03-.339.044l-.248.027c-.112.011-.227.021-.335.03-.081.008-.161.013-.242.019-.114.006-.227.011-.339.015-.078,0-.153.008-.229.009h-.56c-.132,0-.265-.008-.4-.011a1.485,1.485,0,0,1-.159-.006c-.185-.009-.369-.023-.551-.038h-.036c-.168-.015-.337-.034-.5-.055-.057-.006-.114-.015-.17-.025-.121-.015-.242-.032-.362-.051-.066-.011-.133-.023-.2-.036-.108-.017-.216-.038-.324-.059-.07-.013-.14-.028-.208-.044-.1-.023-.206-.045-.307-.07-.072-.015-.14-.032-.21-.049l-.3-.078q-.1-.026-.2-.057c-.1-.028-.2-.057-.3-.087l-.2-.062c-.1-.032-.2-.066-.3-.1l-.185-.064c-.1-.036-.206-.076-.31-.115l-.163-.062c-.117-.047-.235-.1-.352-.146-.036-.017-.076-.032-.11-.047-.151-.066-.3-.136-.456-.208l-.055-.026c-.131-.062-.259-.127-.384-.191l-.142-.076-.288-.153-.161-.091c-.087-.049-.172-.1-.256-.151-.059-.034-.114-.068-.168-.1-.079-.049-.159-.1-.238-.151l-.168-.108-.227-.151c-.057-.038-.11-.076-.165-.114l-.22-.155-.159-.115-.214-.165c-.051-.038-.1-.076-.153-.115-.076-.059-.146-.115-.216-.174-.045-.038-.091-.078-.136-.112-.08-.066-.157-.134-.235-.2l-.1-.089c-.11-.1-.216-.195-.32-.293-.036-.032-.068-.066-.1-.1l-.208-.2c-.044-.044-.085-.089-.127-.133-.057-.057-.114-.114-.167-.174s-.089-.095-.132-.144l-.151-.163c-.053-.057-.089-.1-.131-.153s-.093-.106-.136-.159l-.127-.151c-.042-.049-.083-.1-.125-.157l-.123-.159c-.04-.053-.076-.1-.114-.151s-.076-.108-.115-.163a1.8,1.8,0,0,1-.1-.151c-.034-.053-.076-.11-.112-.167s-.061-.095-.091-.144-.076-.114-.108-.17-.049-.085-.078-.127c-.133-.227-.254-.456-.362-.678-.017-.038-.036-.076-.053-.108-.028-.062-.055-.127-.081-.187-.017-.04-.034-.076-.051-.117-.025-.061-.047-.121-.07-.182-.015-.04-.03-.076-.045-.117-.021-.061-.042-.119-.061-.18-.013-.038-.027-.076-.038-.115-.019-.059-.036-.117-.053-.176l-.028-.112c-.015-.059-.028-.117-.042-.176-.008-.034-.015-.07-.021-.1-.011-.061-.023-.119-.032-.178l-.013-.095c-.009-.059-.017-.119-.023-.18a.332.332,0,0,0-.006-.076l-.011-.195V146.2a3.275,3.275,0,0,1,.053-.666l.008-.044c.011-.057.027-.11.042-.165.006-.021.009-.044.017-.066.015-.051.032-.1.051-.146.009-.025.017-.049.028-.072.017-.047.04-.091.061-.136l.036-.07c.025-.044.049-.085.076-.127l.045-.068c.027-.04.055-.079.085-.117l.051-.061c.032-.04.066-.078.1-.114l.055-.053c.04-.034.078-.076.117-.106l.051-.04a3.367,3.367,0,0,1,1.846-.627c6.513-.507,13.22,8.257,15.182,11.054.182-2.341.314-4.687.352-7.04h0v-.312l.006-1.353a69.222,69.222,0,0,0-.625-8.851c-.348.028-.81.059-1.363.076-.059,0-.117,0-.178.006-.244.008-.5.011-.774.011h-.2c-.153,0-.312,0-.473-.006-.115,0-.227-.006-.35-.009-.093,0-.184-.006-.278-.009-.307-.013-.625-.03-.954-.053l-.5-.04a22.283,22.283,0,0,1-6.739-1.6h0l-.32-.142-.095-.044-.24-.114-.085-.04c-.1-.051-.2-.1-.3-.151l-.053-.026-.25-.133-.089-.047q-.114-.063-.227-.131l-.062-.034q-.139-.08-.278-.165l-.064-.038c-.072-.044-.144-.087-.212-.133l-.076-.049c-.081-.051-.163-.106-.242-.159l-.019-.011c-.085-.059-.17-.115-.252-.176l-.062-.044c-.064-.047-.129-.093-.191-.14l-.057-.044c-.081-.061-.159-.121-.235-.18l-.008-.008c-.076-.057-.144-.117-.212-.174l-.051-.045c-.061-.049-.119-.1-.176-.151l-.036-.03c-.068-.062-.134-.125-.2-.187l-.021-.021c-.057-.055-.112-.112-.167-.167l-.036-.04c-.059-.061-.114-.121-.168-.182l0,0c-.059-.064-.114-.129-.167-.193l-.021-.026c-.045-.055-.091-.112-.132-.167l-.023-.03a4.059,4.059,0,0,1-.257-.38l-.017-.025c-.034-.059-.068-.115-.1-.172l-.008-.015a3.085,3.085,0,0,1-.174-.377l-.009-.019a2.576,2.576,0,0,1-.11-.369h0c-.013-.059-.023-.117-.032-.174v-.017a2.12,2.12,0,0,1-.011-.346v-.009a1.526,1.526,0,0,1,.021-.159v-.009a1.447,1.447,0,0,1,.095-.32l.006-.013c.362-.829,1.507-1.425,3.653-1.543,5.1-.284,11.208,5.6,13.449,7.965a68.867,68.867,0,0,0-1.654-7.846l-.43-1.51c-.153-.5-.3-.988-.456-1.482q-.951-2.953-2.171-5.811l-.335.061c-.064.011-.132.025-.2.036l-.462.08c-.5.085-1.111.182-1.832.286l-.759.1-.405.055c-1.384.18-3.068.373-5.039.545-.095.008-.187.015-.282.021l-.093.006c-.062,0-.125.008-.187.009h-.11l-.174,0h-.566c-.038,0-.076,0-.115,0-.057,0-.114,0-.168-.008a.572.572,0,0,1-.114-.008c-.059,0-.119-.008-.178-.011a.933.933,0,0,1-.1-.009l-.218-.019-.061-.008-.276-.032-.076-.011c-.066-.008-.132-.017-.2-.028-.036,0-.07-.009-.106-.015l-.168-.028-.114-.019-.157-.03-.117-.023c-.053-.011-.1-.021-.151-.034l-.117-.025-.151-.036-.115-.028-.151-.04-.11-.028-.165-.045-.095-.027c-.083-.025-.168-.051-.252-.078l-.081-.026-.172-.055-.108-.038c-.047-.015-.095-.032-.14-.049l-.115-.044-.131-.049-.115-.045-.125-.051-.117-.049-.119-.051c-.04-.017-.076-.034-.117-.051l-.114-.053-.117-.055-.11-.053-.117-.059-.1-.053c-.081-.042-.165-.085-.244-.131l-.076-.042-.123-.07-.087-.051-.121-.076-.083-.053c-.04-.025-.076-.051-.117-.076l-.08-.053-.115-.076-.076-.053-.114-.081-.07-.051-.114-.087-.059-.044-.117-.1-.032-.026c-.146-.121-.284-.244-.416-.371l-.021-.021-.11-.11-.038-.04c-.032-.036-.066-.072-.1-.106l-.04-.045-.095-.108-.038-.044c-.03-.038-.059-.078-.087-.112l-.034-.044c-.028-.038-.057-.076-.085-.115l-.026-.034c-.03-.042-.059-.083-.087-.127l-.008-.011a4.053,4.053,0,0,1-.329-.6l-.009-.017-.055-.134-.013-.034c-.015-.044-.03-.085-.044-.129l-.013-.04c-.015-.044-.026-.085-.038-.129l-.011-.038c-.011-.045-.023-.089-.03-.133l-.008-.034c-.009-.045-.017-.093-.025-.138v-.017a2.9,2.9,0,0,1-.025-.653h0a1.011,1.011,0,0,1,.017-.148v-.03c.006-.045.013-.091.023-.134l.006-.042c.009-.044.021-.087.03-.132l.011-.042c.011-.044.025-.089.038-.133l.015-.04c.015-.045.03-.091.047-.136l.013-.03a4.221,4.221,0,0,1,.982-1.431c4.416-4.389,14.283,3.095,17.592,5.841a68.429,68.429,0,0,0-4.745-8.841l-.017-.008-.672-1.051q-1.63-2.462-3.468-4.768l-.059-.006c-.127-.009-.252-.023-.38-.04l-.045-.006c-.121-.015-.244-.034-.367-.055l-.038-.008c-.125-.021-.25-.045-.373-.076l-.072-.015c-.121-.028-.242-.057-.363-.089l-.064-.017c-.125-.032-.252-.068-.375-.106l-.015,0c-.123-.038-.246-.078-.367-.119l-.057-.021q-.179-.062-.358-.131l-.068-.027c-.119-.047-.237-.095-.356-.146l-.049-.023c-.117-.051-.233-.1-.35-.157l-.028-.013c-.117-.057-.237-.114-.354-.174l-.064-.032q-.17-.088-.341-.182l-.062-.034c-.115-.064-.229-.131-.346-.2l-.025-.013-.333-.2-.049-.032c-.112-.07-.221-.142-.329-.214l-.064-.044-.326-.227-.049-.036c-.108-.076-.216-.153-.322-.235l-.019-.013c-.108-.081-.216-.165-.322-.25l-.057-.044c-.1-.083-.206-.167-.3-.25l-.057-.049c-.1-.087-.206-.174-.3-.263l-.03-.025c-.1-.087-.195-.174-.293-.263l-.038-.036c-.1-.089-.195-.18-.291-.273L41.8,99.4c-.095-.091-.189-.184-.282-.278l-.047-.047c-.1-.1-.191-.193-.288-.293h0c-.1-.1-.189-.2-.282-.3l-.044-.049c-.089-.1-.178-.195-.263-.293l-.051-.057c-.085-.1-.174-.2-.257-.3l-.028-.032-.248-.3-.025-.032c-.083-.1-.165-.2-.246-.307l-.044-.057c-.076-.1-.151-.2-.227-.3l-.038-.053c-.08-.106-.157-.212-.233-.32V96.37c-.076-.106-.153-.212-.223-.32L38.943,96c-.07-.1-.14-.206-.208-.31l-.036-.057-.2-.314-.023-.036-.189-.314-.013-.023c-.062-.106-.125-.212-.184-.318l-.03-.053c-.057-.1-.114-.2-.168-.309l-.027-.049c-.059-.108-.114-.214-.167-.32l0-.009c-.053-.1-.1-.21-.153-.314l-.017-.038c-.049-.1-.095-.2-.14-.3l-.023-.051c-.045-.1-.089-.2-.131-.3l-.015-.036c-.042-.1-.083-.2-.121-.3v-.008c-.04-.1-.076-.2-.112-.3l-.015-.044c-.032-.095-.066-.191-.1-.288l-.013-.042q-.045-.145-.085-.29v-.013c-.026-.095-.051-.187-.076-.282l-.008-.027c-.023-.091-.042-.182-.061-.273l-.008-.04c-.017-.089-.034-.176-.047-.263l0-.03c-.028-.178-.047-.352-.059-.521v-.03c0-.079-.008-.159-.008-.237v-.034c0-.076,0-.157.006-.227v-.015c0-.076.009-.151.019-.221V89.34c.009-.074.021-.142.036-.21l.006-.03c.013-.066.03-.131.047-.195l.009-.023a2.111,2.111,0,0,1,.144-.367l.009-.019a1.807,1.807,0,0,1,.093-.157l.015-.025c.036-.049.07-.1.11-.146l.009-.011a1.676,1.676,0,0,1,.127-.133l.006-.006a1.663,1.663,0,0,1,.142-.117l.021-.015c.049-.036.1-.068.153-.1l.021-.011c.059-.032.117-.061.178-.087h0a4.527,4.527,0,0,1,3.136.229c8.232,2.817,9.75,11.522,10.028,14.613q1.9,2.362,3.577,4.885l.615.939a70.35,70.35,0,0,1,4.95,9.108c-.121-4.2.146-14.607,5.6-16.617a3.694,3.694,0,0,1,3.3.017l.013.009a2.5,2.5,0,0,1,.6.532l.006.008a3.236,3.236,0,0,1,.443.725l0,.009a4.811,4.811,0,0,1,.29.882v.017c.013.062.028.125.04.189h0a6.936,6.936,0,0,1,.1.814v.036c0,.064.008.131.011.195v.028c.008.208.008.422,0,.64v.028c0,.064-.006.129-.009.195v.064c0,.062-.008.125-.011.187l0,.064c-.017.206-.038.416-.064.628l-.009.07-.026.18-.015.1c-.009.057-.019.115-.028.174l-.019.1c-.009.059-.019.115-.03.174l-.019.085c-.019.108-.044.216-.066.326l-.028.125c-.011.051-.025.1-.036.151s-.023.089-.034.134-.025.1-.038.153-.026.095-.04.142-.025.1-.038.144c-.019.07-.04.14-.061.21l-.053.174c-.017.059-.036.117-.055.176-.013.044-.028.087-.044.131s-.034.11-.055.163-.028.087-.044.131l-.062.174-.042.115c-.034.093-.068.185-.106.278l-.03.076c-.026.076-.057.144-.085.218-.015.036-.03.076-.047.108-.026.061-.051.121-.076.182l-.049.114c-.028.061-.057.125-.085.187l-.044.1c-.044.093-.087.186-.133.276l-.021.04c-.04.081-.08.161-.121.24l-.047.095-.1.185-.055.1c-.034.061-.068.125-.1.187l-.047.085c-.053.089-.1.178-.157.267l-.013.019c-.049.081-.1.161-.151.242l-.055.083c-.038.059-.076.119-.115.18l-.061.087c-.04.061-.081.119-.123.178l-.053.076c-.059.081-.117.165-.18.246l0,.006c-.059.078-.117.153-.178.229l-.061.076c-.042.055-.085.108-.131.163l-.066.079-.136.157-.061.07c-.066.076-.132.146-.2.216a37.294,37.294,0,0,1-2.688,2.588c-.218.187-.424.362-.623.521s-.384.3-.56.437c-.267.2-.511.369-.734.515-.076.047-.146.095-.216.136a8.3,8.3,0,0,1-.729.405l-.151.068c-.078.036-.153.064-.22.091q1.224,2.9,2.188,5.9l.481,1.563a70.177,70.177,0,0,1,2,8.805c1.164-4.145,5.008-15.868,10.865-14.13.237.07.469.151.7.244h.006l.157.066h.008l.148.068.011.006.138.068.013.008.129.07.013.009.123.076.015.009.115.076.015.009.108.078.017.011.1.076.015.011.1.08.015.011c.03.026.061.053.089.081l.015.013c.028.027.057.055.083.081l.013.013c.027.028.053.057.076.085l.011.013.076.085.011.015.068.087.011.013c.019.03.042.061.061.093l.009.011c.021.03.04.062.059.095l.008.011.053.1.008.013c.015.032.032.064.049.1l0,.009c.015.034.03.068.044.1l.006.011.04.1v.008l.034.11v.006c.011.036.023.076.032.112h0c.008.038.017.076.025.117h0a4.69,4.69,0,0,1-.765,3.116h0l-.085.142v.006c-.027.047-.055.093-.083.14l-.006.009-.087.136-.009.013c-.026.045-.057.089-.085.134l-.011.017-.087.131-.015.019-.089.131-.015.021c-.028.042-.061.085-.091.129l-.017.025-.093.125-.019.026-.095.123-.021.028-.1.123-.023.03-.1.121-.027.03c-.032.042-.064.081-.1.123l-.026.032-.1.119-.026.032c-.034.04-.068.076-.1.117l-.03.036-.1.117-.03.036c-.034.038-.068.076-.106.115l-.032.036c-.034.04-.07.076-.106.117l-.032.036-.108.115-.036.036-.108.115-.036.038-.112.114-.036.038-.112.114-.036.036c-.04.038-.076.076-.117.115l-.036.036-.117.114-.036.036-.119.115-.038.036-.121.114-.036.034-.125.115-.036.034-.127.115-.034.03-.132.117-.028.026-.138.123-.025.019-.144.127-.015.013-.151.133h0q-.6.505-1.227.988h0l-.153.114-.032.027-.134.1-.051.038-.127.095-.059.042c-.04.03-.081.059-.121.089l-.064.047-.117.083-.07.051-.114.079-.076.055-.11.076-.079.055-.11.076-.08.055-.108.078-.081.055-.106.07-.087.057-.1.07-.087.057-.1.066-.089.057-.1.064-.093.059-.1.062-.095.059-.1.061-.095.057-.1.061-.095.057-.1.061-.095.055-.1.057-.1.057-.1.055-.1.055-.1.055-.1.055-.1.055-.1.053-.1.053-.1.051-.1.053-.1.051-.095.049-.1.051-.095.049-.1.051-.093.045-.1.049-.093.045-.1.049-.091.044-.1.047-.091.042-.1.047-.089.042-.1.044-.091.04-.1.044-.089.04-.1.042-.087.038-.1.04-.089.036-.095.04-.087.036-.1.036-.085.034-.1.038-.085.032-.1.036-.081.03-.1.034-.078.028-.1.036-.03.011q.457,3.257.608,6.553c.026.619.045,1.236.055,1.855l.011,1.139c.006,2.425-.1,4.844-.269,7.263,1.609-3.587,5.783-10.607,13.734-10.441a5.124,5.124,0,0,1,3.155.82l.006.006a1.989,1.989,0,0,1,.146.136l.009.009a1.818,1.818,0,0,1,.123.148h0a1.486,1.486,0,0,1,.185.329h0a1.319,1.319,0,0,1,.059.172v.011a1.145,1.145,0,0,1,.038.178v.006a1.967,1.967,0,0,1-.006.6v.011a2.078,2.078,0,0,1-.04.206v.008a3.618,3.618,0,0,1-.235.666l-.006.013c-.036.076-.072.151-.112.229l-.008.013a6.516,6.516,0,0,1-.441.717l-.011.013c-.055.076-.112.157-.172.237l-.015.019c-.061.079-.123.161-.187.24l-.008.008c-.134.165-.278.333-.432.5l-.013.015c-.076.081-.153.161-.229.242l-.023.025c-.076.079-.159.161-.24.242l-.015.017c-.168.167-.346.333-.532.5l-.019.017c-.089.081-.18.161-.273.24l-.034.028c-.091.078-.186.159-.28.239l-.03.023q-.3.247-.619.494l-.021.015c-.1.076-.206.157-.31.235l-.045.032-.314.227-.044.03c-.11.076-.22.153-.331.229l-.019.013c-.112.076-.227.151-.341.227l-.023.015c-.114.076-.229.151-.344.223l-.053.032c-.114.072-.227.142-.343.212l-.055.034c-.117.072-.235.142-.354.212l-.038.023c-.121.07-.242.14-.365.208l-.019.011c-.123.07-.246.138-.371.206l-.057.03-.365.195-.066.034c-.123.064-.248.129-.373.191l-.051.025c-.129.064-.259.127-.39.191l-.008,0c-.132.062-.265.125-.4.186l-.059.027-.38.172-.072.03c-.129.057-.257.11-.386.165l-.062.027c-.134.055-.271.11-.407.163l-.013.006c-.134.053-.271.1-.405.151l-.055.021c-.132.049-.265.1-.4.144l-.076.025c-.131.047-.263.093-.4.134l-.068.023c-.136.045-.274.089-.411.131l-.03.009c-.136.042-.273.081-.407.119l-.047.013c-.134.038-.271.076-.407.112l-.078.017c-.132.036-.267.068-.4.1l-.076.017c-.138.032-.274.062-.411.091l-.044.009c-.134.028-.273.055-.407.081l-.036.008c-.138.025-.276.047-.415.07l-.07.011c-.132.023-.267.04-.4.059l-.076.011c-.134.017-.271.034-.405.047l-.051.006c-.138.015-.274.027-.411.04h-.021c-.136.009-.274.017-.413.025h-.066c-.131.008-.261.011-.392.013h-.3c-.3,3.621-.7,7.24-1.054,10.859l-.161,1.705c-.182,2-.337,4.013-.439,6.019,2.936-2.773,12.213-11.13,16.426-10.14a2.714,2.714,0,0,1,2.215,2.116l.009.04a4,4,0,0,1,.068.56v.044a4.5,4.5,0,0,1-.021.6l0,.047c-.011.1-.027.206-.045.31v.009q-.026.153-.062.307l-.009.045c-.025.106-.053.214-.083.322l-.009.027c-.03.1-.062.2-.1.3l-.015.044c-.038.108-.076.216-.123.326L82.3,169c-.04.1-.083.2-.129.3l-.017.038c-.051.108-.1.216-.157.324l-.028.055c-.053.1-.108.2-.165.3l-.017.03c-.061.108-.125.214-.191.322l-.038.059c-.064.1-.131.206-.2.3l-.011.015c-.072.106-.148.21-.223.314l-.047.064c-.151.206-.32.411-.492.608l-.057.064c-.085.1-.176.2-.265.293l-.017.019c-.087.091-.176.18-.267.271l-.062.061c-.095.093-.191.184-.29.274l-.038.034c-.091.081-.182.159-.274.239l-.068.057c-.1.085-.206.17-.312.25l-.057.044c-.093.072-.189.14-.286.21l-.07.047c-.11.078-.22.153-.335.229l-.07.044c-.1.064-.2.127-.3.185l-.064.038c-.117.068-.237.133-.356.2l-.081.042c-.11.057-.22.11-.329.161l-.055.027c-.123.057-.25.11-.38.163l-.089.036c-.121.047-.24.093-.363.134l-.034.013c-.131.045-.263.087-.4.127l-.1.026c-.134.038-.271.078-.407.108h0a24.307,24.307,0,0,1-9.735.316c-.574-.1-1.045-.214-1.408-.31a73.992,73.992,0,0,0,.195,9.909h0l.008.059c0,.045.008.089.011.134h0l.115,1.079v.006c.009.076.021.151.028.233v.04h0q.131,1.079.3,2.16a59.6,59.6,0,0,0,9.688,24.155c.479.7-.636,1.327-1.109.638a60.549,60.549,0,0,1-9.184-21.177c-.384-1.741-.678-3.49-.893-5.243l-.157-1.4a77.255,77.255,0,0,1-.286-10.609c-.114.03-.229.059-.341.089l-.083.021c-.148.034-.3.068-.441.1l-.04.009c-.142.028-.282.053-.422.076l-.064.011q-.213.034-.426.062l-.083.011c-.142.017-.284.032-.422.044l-.062.008c-.136.011-.273.019-.407.028H59.9c-.14.006-.278.009-.416.013H58.92c-.136-.006-.274-.011-.411-.019H58.5c-.138-.009-.274-.019-.411-.034l-.076-.006c-.131-.013-.259-.03-.388-.045l-.08-.011c-.131-.019-.261-.038-.392-.061l-.038-.006c-.125-.023-.248-.047-.369-.072l-.062-.011c-.125-.028-.25-.057-.373-.087l-.076-.019c-.123-.03-.246-.062-.367-.1l-.059-.017c-.115-.034-.233-.068-.348-.106l-.042-.011c-.121-.04-.24-.081-.36-.123l-.076-.027c-.115-.042-.229-.085-.346-.129l-.066-.028c-.117-.047-.229-.093-.346-.142l-.013-.008c-.115-.049-.227-.1-.344-.151l-.066-.03c-.11-.051-.22-.1-.326-.159l-.07-.036c-.108-.057-.218-.112-.324-.172l-.034-.017c-.1-.057-.2-.114-.3-.172l-.053-.032c-.1-.059-.2-.123-.3-.184Z" transform="translate(7.844 54.025)" fill="#e7a236"/>
    <g id="Group_5228" data-name="Group 5228" transform="translate(60.343 175.342)">
      <path id="Path_11350" data-name="Path 11350" d="M75.289,105.37S92.3,147.817,86.773,176.6c-1.876,9.769-5.429,16.648-9.305,21.47a17.13,17.13,0,0,1-29.08-3.964c-2.444-5.684-4.028-13.263-3.222-23.176C47.543,141.72,75.289,105.37,75.289,105.37Z" transform="translate(-44.954 -105.37)" fill="#a3d3ca"/>
      <path id="Path_11351" data-name="Path 11351" d="M63.917,182.022q.415-3.007.831-6.012L46.372,162.958l.153-.7,18.323,13.013.786-5.686q-8.691-6.383-17.916-11.972c.062-.216.125-.432.189-.649q9.171,5.548,17.827,11.879l.755-5.461L49.514,152.017l.227-.638,16.85,11.281q.395-2.865.789-5.728Q59.919,150.953,51.99,145.6c.087-.206.172-.413.261-.617q7.839,5.284,15.235,11.192.406-2.947.814-5.9Q61.529,145,54.322,140.316l.28-.6q7.107,4.608,13.8,9.809l.664-4.8q-5.926-5.014-12.283-9.474l.3-.592q6.249,4.375,12.088,9.3.4-2.927.808-5.853a62.5,62.5,0,0,0-10.235-8.455l.318-.577a63.265,63.265,0,0,1,10.028,8.215c.093-.664.184-1.329.276-1.993a.334.334,0,0,1,.047-.346c.066-.481.134-.962.2-1.442a32.308,32.308,0,0,0-8.953-7.261l.327-.57a33.121,33.121,0,0,1,8.745,6.969l.608-4.388a64.563,64.563,0,0,0-7.223-6.178c.115-.189.229-.379.343-.564a64.731,64.731,0,0,1,6.99,5.936l.562-4.079-5.166-3.723c-.286-.206-.572-.409-.856-.615.115-.187.231-.371.346-.555.422.3.848.6,1.266.9l4.509,3.252q.238-1.726.477-3.449-2.007-2.053-4.185-3.926c.123-.186.244-.371.363-.555q2.039,1.746,3.935,3.659.278-2.016.556-4.028Q71.972,113.1,70.579,112l.371-.545q1.255.985,2.423,2.082l.335-2.43L72.2,109.642l.38-.543,1.238,1.2q.253-1.817.5-3.63c.617-.844.963-1.3.963-1.3s.206.515.566,1.469l-.558,4.047a15.084,15.084,0,0,1,1.554-1.331c.076.21.151.426.229.649a14.359,14.359,0,0,0-1.94,1.8l-.39,2.826A22.391,22.391,0,0,1,77.8,112.3c.072.21.146.424.22.644a21.605,21.605,0,0,0-3.191,2.741.323.323,0,0,1-.216.106q-.361,2.6-.719,5.2,2.6-2.237,5.359-4.282.105.329.21.664-2.933,2.192-5.7,4.6l-.647,4.675q3.629-3.015,7.4-5.849c.066.221.132.447.2.672q-3.947,2.97-7.734,6.14l-.791,5.73q4.671-4.154,9.65-7.939c.062.227.125.454.187.683q-5.148,3.932-9.973,8.264l-.521,3.776,11.713-7.352c.055.223.11.447.163.672l-11.993,7.53q-.508,3.66-1.013,7.323a162.714,162.714,0,0,1,13.91-10.986c.051.233.1.466.151.7A162.729,162.729,0,0,0,70.26,147.3q-.463,3.35-.926,6.706l16.545-10.827c.042.237.083.471.123.706L69.213,154.868q-.176,1.278-.354,2.557-.213,1.556-.43,3.114L86.8,149.055c.034.238.064.477.1.715q-9.29,5.806-18.576,11.616-.332,2.4-.662,4.8l19.913-9.937q.026.358.051.71l-19.962,9.962a.309.309,0,0,1-.108.032l-.948,6.86,21.26-11.351c0,.246.006.492.008.74L66.493,174.614q-.358,2.57-.71,5.139l21.77-8.709c-.023.248-.049.494-.076.74l-21.8,8.724q-.38,2.734-.755,5.47A202.478,202.478,0,0,0,86.33,178.7c-.059.265-.119.526-.182.787a202.883,202.883,0,0,1-21.321,7.2q-.613,4.438-1.227,8.877,9.761-2.7,19.235-6.307c-.131.292-.267.579-.4.861q-9.264,3.492-18.819,6.118a.361.361,0,0,1-.11.011q-.261,1.868-.517,3.736l15.771-3.623q-.3.412-.592.81L62.9,200.676q-.256,1.848-.509,3.7a15.167,15.167,0,0,1-1.52-.227l.14-1.024L49.06,195.486q-.3-.551-.558-1.136L61.108,202.4l.454-3.3L46.73,189.448q-.133-.468-.259-.952l15.188,9.892q.355-2.564.708-5.126-8.509-5.326-17.019-10.655c-.034-.274-.066-.553-.1-.837q8.606,5.389,17.212,10.778l.617-4.473.017-.123a206.3,206.3,0,0,0-18.141-11.31v-.753A208.032,208.032,0,0,1,63.2,187.22l.079-.574a.29.29,0,0,1,.015-.121l.519-3.746q-8.91-7.24-18.476-13.6c.028-.244.059-.488.089-.733Q54.99,174.79,63.917,182.022Z" transform="translate(-44.952 -105.37)" fill="#74b1b6"/>
    </g>
    <g id="Group_5213" data-name="Group 5213" transform="translate(404.509 135.575)">
      <path id="Path_11323" data-name="Path 11323" d="M251.7,219.785c-5.01-9.858-27.721-14.713-24.63-27.229s22.356,7.965,21.355,2.5S223.141,178.8,228.6,167.323c4.524-9.506,15.658,1.541,18.158,1.938s-14.622-12.546-11.819-17.935,10.613-.92,13.685,2.023-10.753-17.861-5.819-23.77,13.3,13.2,13.734,6.716-9.078-21.628-2.879-24.825,8.194,6.727,11.266,9.671,1.268-13.074,7.448-24.666,19.267-17.147,17.234-6.235-16.437,27.539-13.127,30.087,15.752-11.245,13.859.975-21.391,14.978-16.261,19.434,13.575-1.308,12.938,5.232-20.019,8.544-17.28,11.9,5.688,2.817,16.683,1.679c10.573-1.094,8.31,13.418-3.96,15.415s-19.839,6.534-14.242,7.18,11.866.812,17.361,1.8c12.444,2.23,10.891,12.786-3.5,16.311s-24.571,8.031-16.64,7.1,26.235.3,14.007,5.641S251.7,219.785,251.7,219.785Z" transform="translate(-226.779 -84.361)" fill="#297b67"/>
      <path id="Path_11324" data-name="Path 11324" d="M239.944,212.6c4.278-72.528,27.172-120.182,27.172-120.182" transform="translate(-215.025 -77.17)" fill="none" stroke="#1d5042" stroke-miterlimit="10" stroke-width="1"/>
      <path id="Path_11325" data-name="Path 11325" d="M242.058,101.061c9.23,5.173,8.7,25.294,8.7,25.294" transform="translate(-213.137 -69.45)" fill="none" stroke="#1d5042" stroke-miterlimit="10" stroke-width="1"/>
      <path id="Path_11326" data-name="Path 11326" d="M237.79,110.875c12.567,4.3,11.993,26.536,11.993,26.536" transform="translate(-216.948 -60.688)" fill="none" stroke="#1d5042" stroke-miterlimit="10" stroke-width="1"/>
      <path id="Path_11327" data-name="Path 11327" d="M234.049,121.145c12.173,2.552,16.2,22.014,16.2,22.014" transform="translate(-220.288 -51.518)" fill="none" stroke="#1d5042" stroke-miterlimit="10" stroke-width="1"/>
      <path id="Path_11328" data-name="Path 11328" d="M230.58,130.958c15.966-.22,20.817,15.355,20.142,21.06" transform="translate(-223.385 -42.759)" fill="none" stroke="#1d5042" stroke-miterlimit="10" stroke-width="1"/>
      <path id="Path_11329" data-name="Path 11329" d="M230.4,143.09c14.791-.454,19.135,9.563,18.724,14.993" transform="translate(-223.547 -31.938)" fill="none" stroke="#1d5042" stroke-miterlimit="10" stroke-width="1"/>
      <path id="Path_11330" data-name="Path 11330" d="M267.373,104.579C252.21,114.5,247.951,120,245.967,128.143" transform="translate(-209.647 -66.309)" fill="none" stroke="#1d5042" stroke-miterlimit="10" stroke-width="1"/>
      <path id="Path_11331" data-name="Path 11331" d="M265.55,117.373c-21.8,5.294-21.828,17.914-21.828,17.914" transform="translate(-211.651 -54.886)" fill="none" stroke="#1d5042" stroke-miterlimit="10" stroke-width="1"/>
      <path id="Path_11332" data-name="Path 11332" d="M272.737,127.182c-20.649,5.054-29.3,6.835-30.494,14.736" transform="translate(-212.972 -46.128)" fill="none" stroke="#1d5042" stroke-miterlimit="10" stroke-width="1"/>
      <path id="Path_11333" data-name="Path 11333" d="M275.3,139.937c-28.616,4.762-33.993,9.718-34.65,13.562" transform="translate(-214.395 -34.74)" fill="none" stroke="#1d5042" stroke-miterlimit="10" stroke-width="1"/>
      <path id="Path_11334" data-name="Path 11334" d="M265.755,150.92c-21.2,1.724-25.391.587-25.618,3.886" transform="translate(-214.852 -24.934)" fill="none" stroke="#1d5042" stroke-miterlimit="10" stroke-width="1"/>
    </g>
    <g id="Group_5225" data-name="Group 5225" transform="translate(398.385 196.559)">
      <path id="Path_11343" data-name="Path 11343" d="M267.449,116.579s4.846,40.391-6.53,63.857c-3.863,7.963-8.5,13.057-12.939,16.309a15.242,15.242,0,0,1-24.079-10.1c-.789-5.448-.407-12.324,2.569-20.658C235.236,141.428,267.449,116.579,267.449,116.579Z" transform="translate(-223.544 -116.579)" fill="#1a3843"/>
      <path id="Path_11344" data-name="Path 11344" d="M240.033,179.831q1.048-2.487,2.1-4.974-6.391-7.723-12.786-15.446c.1-.189.193-.379.293-.564l12.748,15.4,1.984-4.706q-6-7.481-12.639-14.412c.1-.172.206-.343.31-.515q6.6,6.88,12.585,14.314.954-2.26,1.906-4.52-5.985-6.837-11.972-13.676l.343-.5,11.883,13.574q1-2.368,2-4.74-5.037-6.857-10.619-13.284c.121-.157.242-.314.365-.469q5.522,6.346,10.517,13.127l2.059-4.882q-4.608-6.1-9.72-11.777c.125-.151.252-.3.379-.45q5.048,5.6,9.6,11.605.838-1.987,1.675-3.977-3.935-5.673-8.374-10.969l.4-.441q4.361,5.2,8.247,10.77,1.022-2.422,2.042-4.844a55.58,55.58,0,0,0-6.848-9.621c.134-.142.269-.282.405-.422a56.135,56.135,0,0,1,6.729,9.368l.693-1.649a.3.3,0,0,1,.121-.286l.505-1.2a28.85,28.85,0,0,0-6.023-8.3l.413-.413a29.475,29.475,0,0,1,5.913,8.007l1.531-3.632a57.468,57.468,0,0,0-4.785-6.971c.142-.136.284-.271.424-.407a57.521,57.521,0,0,1,4.641,6.712l1.423-3.377-3.579-4.39c-.2-.242-.4-.483-.594-.727l.426-.4c.292.36.591.714.88,1.069l3.125,3.833,1.2-2.854q-1.252-2.229-2.694-4.337l.443-.394q1.349,1.976,2.538,4.051l1.4-3.333q-.818-1.354-1.766-2.623l.445-.384q.852,1.141,1.6,2.349l.848-2.01-.962-1.6.452-.379.787,1.316,1.268-3c.725-.583,1.126-.893,1.126-.893s.059.49.148,1.393q-.7,1.675-1.412,3.348a13.458,13.458,0,0,1,1.641-.786c.017.2.032.4.049.609a12.6,12.6,0,0,0-2.082,1.105l-.986,2.334a20.026,20.026,0,0,1,3.21-1.478c.013.2.026.4.04.606a19.234,19.234,0,0,0-3.371,1.62.294.294,0,0,1-.21.042q-.909,2.149-1.813,4.3,2.754-1.323,5.59-2.446.014.307.028.619-3.029,1.207-5.961,2.641l-1.632,3.867q3.813-1.758,7.706-3.322l.017.627q-4.074,1.641-8.06,3.5l-2,4.742q4.969-2.5,10.117-4.6v.63q-5.329,2.195-10.473,4.806l-1.317,3.125,11.758-3.621c-.006.2-.009.409-.013.615l-12.042,3.71-2.555,6.059a144.918,144.918,0,0,1,14.482-6.239q-.011.315-.028.636a144.8,144.8,0,0,0-14.8,6.434L251.14,157l16.712-5.495q-.026.315-.057.63l-16.956,5.582q-.449,1.059-.893,2.116l-1.085,2.576,18.425-5.643c-.028.212-.055.424-.085.636l-18.635,5.709-1.675,3.971,19.4-3.956c-.04.208-.078.415-.119.621l-19.447,3.965a.3.3,0,0,1-.1,0l-2.393,5.677q10.44-2.433,20.884-4.861c-.055.214-.108.426-.163.638l-21,4.887q-.9,2.127-1.793,4.253l20.712-2.47c-.078.206-.155.413-.235.619q-10.369,1.238-20.74,2.474l-1.91,4.53a180.075,180.075,0,0,0,20.07-1.327c-.112.214-.225.426-.337.632a180.308,180.308,0,0,1-19.979,1.276l-3.1,7.348q9.009-.071,17.982-.988c-.182.22-.363.433-.545.645q-8.762.869-17.579.927a.425.425,0,0,1-.1-.015l-1.3,3.091q7.195.258,14.389.519-.349.287-.695.558-6.968-.253-13.933-.5l-1.289,3.059q-.642-.244-1.257-.543l.352-.848-8.512-9.311q-.125-.542-.216-1.1l8.978,9.824,1.153-2.735q-5.261-5.857-10.52-11.713c-.006-.29-.006-.585-.006-.88l10.778,12q.891-2.121,1.787-4.242L223.94,176.061c.032-.244.07-.49.11-.738l12.309,13.223q.781-1.848,1.562-3.7l.044-.1a183.882,183.882,0,0,0-12.987-13.9c.055-.214.112-.432.17-.647a184.835,184.835,0,0,1,13.07,13.937l.2-.475a.237.237,0,0,1,.042-.1q.656-1.55,1.306-3.1-5.988-8.271-12.745-15.943.119-.3.244-.608Q234.026,171.562,240.033,179.831Z" transform="translate(-223.543 -116.578)" fill="#254f5b"/>
    </g>
    <g id="Group_5227" data-name="Group 5227" transform="translate(387.468 184.526)">
      <path id="Path_11347" data-name="Path 11347" d="M228.23,110.222s-14.128,35.262-9.536,59.172c1.558,8.115,4.509,13.827,7.728,17.834a14.229,14.229,0,0,0,24.156-3.292c2.029-4.723,3.345-11.018,2.675-19.254C251.281,140.418,228.23,110.222,228.23,110.222Z" transform="translate(-217.776 -110.222)" fill="#a3d3ca"/>
      <path id="Path_11348" data-name="Path 11348" d="M237.678,173.9q-.344-2.5-.689-5l15.26-10.842-.125-.581L236.9,168.29l-.651-4.725q7.217-5.3,14.882-9.943c-.051-.18-.1-.36-.157-.539q-7.618,4.608-14.81,9.867-.315-2.269-.627-4.537l14.1-9.442c-.064-.176-.127-.354-.189-.53l-14,9.371q-.329-2.379-.657-4.757,6.2-4.969,12.786-9.417c-.072-.172-.144-.343-.216-.513q-6.516,4.4-12.656,9.3-.338-2.447-.676-4.9,5.627-4.384,11.613-8.274-.116-.253-.233-.5-5.9,3.827-11.465,8.149-.275-1.993-.551-3.99,4.921-4.165,10.2-7.869c-.083-.165-.167-.329-.252-.492q-5.19,3.634-10.042,7.723l-.672-4.863a51.877,51.877,0,0,1,8.5-7.024c-.089-.161-.176-.32-.265-.479a52.668,52.668,0,0,0-8.33,6.824c-.076-.553-.153-1.1-.229-1.656a.279.279,0,0,0-.04-.288c-.055-.4-.11-.8-.165-1.2a26.876,26.876,0,0,1,7.437-6.033c-.091-.159-.182-.314-.273-.473a27.54,27.54,0,0,0-7.263,5.79l-.505-3.644a53.253,53.253,0,0,1,6-5.132c-.1-.159-.189-.316-.286-.471a53.634,53.634,0,0,0-5.805,4.933q-.233-1.7-.469-3.388l4.293-3.093q.355-.256.71-.513l-.288-.46c-.35.254-.706.5-1.052.751l-3.746,2.7q-.2-1.431-.4-2.864,1.667-1.7,3.475-3.261c-.1-.155-.2-.309-.3-.46q-1.692,1.451-3.267,3.038l-.462-3.345q1.068-1.022,2.23-1.94l-.309-.452q-1.042.821-2.012,1.73c-.093-.674-.187-1.346-.28-2.02l1.255-1.213c-.108-.155-.214-.3-.316-.45l-1.03,1q-.207-1.508-.416-3.015c-.513-.7-.8-1.079-.8-1.079s-.17.428-.469,1.221q.233,1.681.464,3.362a12.2,12.2,0,0,0-1.291-1.105c-.062.174-.127.354-.189.539a11.729,11.729,0,0,1,1.611,1.5l.326,2.345a18.783,18.783,0,0,0-2.538-2.109l-.184.536a17.992,17.992,0,0,1,2.652,2.277.278.278,0,0,0,.18.089q.3,2.155.6,4.316-2.164-1.857-4.45-3.555c-.059.182-.115.365-.174.551q2.439,1.82,4.738,3.82l.538,3.884q-3.015-2.507-6.148-4.859c-.055.184-.11.371-.167.558q3.279,2.467,6.424,5.1l.659,4.759q-3.878-3.45-8.016-6.595c-.051.189-.1.379-.155.568q4.276,3.265,8.283,6.865.219,1.567.435,3.138l-9.731-6.108-.136.556,9.964,6.256.84,6.085a134.814,134.814,0,0,0-11.556-9.127c-.042.189-.085.386-.127.581a134.594,134.594,0,0,1,11.8,9.379q.383,2.785.768,5.573l-13.746-8.995-.1.587,13.948,9.125q.148,1.062.293,2.124.179,1.295.356,2.587l-15.262-9.542c-.028.2-.055.4-.08.594l15.43,9.65.551,3.986q-8.271-4.125-16.542-8.255c-.015.2-.03.394-.044.591l16.583,8.274a.254.254,0,0,0,.089.027q.395,2.851.787,5.7l-17.66-9.43c0,.2-.006.409-.008.615l17.759,9.481.591,4.27-18.084-7.234q.028.307.062.613l18.109,7.248.63,4.545a168.2,168.2,0,0,1-17.783-6.048c.049.221.1.439.151.655a168.623,168.623,0,0,0,17.713,5.978q.508,3.688,1.018,7.374-8.112-2.24-15.981-5.237.167.363.335.715,7.7,2.9,15.633,5.082a.3.3,0,0,0,.093.009q.213,1.55.428,3.1l-13.1-3.01c.163.229.327.454.492.674l12.686,2.913.424,3.072c.424-.044.846-.106,1.263-.189l-.117-.852,9.926-6.343c.163-.3.318-.619.462-.943l-10.471,6.691-.379-2.745,12.319-8.024c.076-.261.148-.524.218-.793l-12.62,8.219q-.293-2.129-.587-4.259l14.138-8.851c.027-.227.055-.46.079-.695q-7.149,4.475-14.3,8.953l-.513-3.716-.013-.1a171.771,171.771,0,0,1,15.069-9.394V168.8a172.479,172.479,0,0,0-15.156,9.413l-.064-.477a.227.227,0,0,0-.013-.1q-.216-1.556-.43-3.112,7.4-6.014,15.347-11.3-.034-.3-.074-.608Q245.093,167.887,237.678,173.9Z" transform="translate(-217.775 -110.221)" fill="#74b1b6"/>
    </g>
    <g id="Group_5669" data-name="Group 5669" transform="translate(334.533 196.126)">
      <path id="Path_15014" data-name="Path 15014" d="M260.086,128.747v83.535H189.81V116.35h57.879l6.195,6.2Z" transform="translate(-189.81 -116.35)" fill="#bcbcba"/>
      <path id="Path_15015" data-name="Path 15015" d="M232.876,128.747l-6.3.1-6.291.1.1-6.292.1-6.3,6.195,6.2Z" transform="translate(-162.6 -116.35)" fill="#a6a6a7"/>
      <rect id="Rectangle_1609" data-name="Rectangle 1609" width="47.719" height="3.47" transform="translate(11.278 20.946)" fill="#ee7834"/>
      <rect id="Rectangle_1610" data-name="Rectangle 1610" width="47.719" height="3.47" transform="translate(11.278 29.87)" fill="#ee7834"/>
      <rect id="Rectangle_1611" data-name="Rectangle 1611" width="47.719" height="3.47" transform="translate(11.278 38.794)" fill="#ee7834"/>
      <rect id="Rectangle_1612" data-name="Rectangle 1612" width="47.719" height="3.47" transform="translate(11.278 47.718)" fill="#fff"/>
      <rect id="Rectangle_1613" data-name="Rectangle 1613" width="47.719" height="3.47" transform="translate(11.278 56.642)" fill="#fff"/>
      <rect id="Rectangle_1614" data-name="Rectangle 1614" width="47.719" height="3.47" transform="translate(11.278 65.566)" fill="#fff"/>
      <rect id="Rectangle_1615" data-name="Rectangle 1615" width="47.719" height="3.47" transform="translate(11.278 74.49)" fill="#fff"/>
    </g>
  </g>
</svg>
