<svg xmlns="http://www.w3.org/2000/svg" width="426.225" height="278.947" viewBox="0 0 426.225 278.947">
  <g id="Illus" transform="translate(-40.242 -4.197)">
    <g id="Group_5675" data-name="Group 5675" transform="translate(58.5 128.952)">
      <path id="Path_15016" data-name="Path 15016" d="M79.384,88.657l2.027,18.656,2.058-13.533c.29.43.576.869.853,1.318,8.188,13.2,7.22,33.444,7.22,33.444l4.577-20.751a59.962,59.962,0,0,1,11.225,21.9L98,153.082l11.2-14.718c3.022,17.49-.574,27.231-.574,27.231l7.6-5.173a83.382,83.382,0,0,1,3.271,19.483c.216,9.527-5.187,18.549-5.187,18.549l5.252-2.015a31.7,31.7,0,0,1-10.969,28.921L62.462,77.008A47.852,47.852,0,0,1,79.384,88.657Z" transform="translate(-42.647 -77.008)" fill="#244854"/>
      <path id="Path_15017" data-name="Path 15017" d="M70.712,77.008l46.13,148.352s-13.793-.339-21.861-5.084-8.211-10.741-8.211-10.741l8.644.963s-12.857-7.931-20.695-16.507-9.5-20.782-9.5-20.782l14.672,2.935s-14.634-12.422-20.784-22.85-6.36-25.227-6.36-25.227L65.5,132.116s-8.608-10.45-11.954-20.8S50.977,95.8,50.977,95.8l9.34,5.639s-2.078-9.456-1.376-16.382S70.712,77.008,70.712,77.008Z" transform="translate(-50.898 -77.008)" fill="#1c3742"/>
      <g id="Group_5673" data-name="Group 5673" transform="translate(31.766 13.976)">
        <line id="Line_248" data-name="Line 248" x2="1.288" y2="16.65" fill="none" stroke="#1f6152" stroke-miterlimit="10" stroke-width="1"/>
        <line id="Line_249" data-name="Line 249" x1="1.616" y2="10.626" transform="translate(5.622 21.962)" fill="none" stroke="#1f6152" stroke-miterlimit="10" stroke-width="1"/>
        <line id="Line_250" data-name="Line 250" x1="3.101" y2="20.39" transform="translate(8.732 22.661)" fill="none" stroke="#1f6152" stroke-miterlimit="10" stroke-width="1"/>
        <line id="Line_251" data-name="Line 251" x1="3.07" y2="12.461" transform="translate(13.365 40.697)" fill="none" stroke="#1f6152" stroke-miterlimit="10" stroke-width="1"/>
        <line id="Line_252" data-name="Line 252" x1="7.767" y2="29.817" transform="translate(16.874 35.04)" fill="none" stroke="#1f6152" stroke-miterlimit="10" stroke-width="1"/>
        <line id="Line_253" data-name="Line 253" x1="4.051" y2="12.274" transform="translate(19.541 62.097)" fill="none" stroke="#1f6152" stroke-miterlimit="10" stroke-width="1"/>
        <line id="Line_254" data-name="Line 254" x1="10.41" y2="28.387" transform="translate(22.222 57.851)" fill="none" stroke="#1f6152" stroke-miterlimit="10" stroke-width="1"/>
        <line id="Line_255" data-name="Line 255" x1="6.816" y2="17.768" transform="translate(26.648 79.427)" fill="none" stroke="#1f6152" stroke-miterlimit="10" stroke-width="1"/>
        <line id="Line_256" data-name="Line 256" x1="9.325" y2="22.675" transform="translate(30.681 82.772)" fill="none" stroke="#1f6152" stroke-miterlimit="10" stroke-width="1"/>
        <line id="Line_257" data-name="Line 257" x1="6.164" y2="14.146" transform="translate(32.436 99.085)" fill="none" stroke="#1f6152" stroke-miterlimit="10" stroke-width="1"/>
        <line id="Line_258" data-name="Line 258" x1="6.232" y2="11.462" transform="translate(33.035 111.024)" fill="none" stroke="#1f6152" stroke-miterlimit="10" stroke-width="1"/>
        <line id="Line_259" data-name="Line 259" x1="6.351" y2="9.058" transform="translate(35.352 117.599)" fill="none" stroke="#1f6152" stroke-miterlimit="10" stroke-width="1"/>
      </g>
      <g id="Group_5674" data-name="Group 5674" transform="translate(13.11 11.281)">
        <line id="Line_260" data-name="Line 260" x2="8.544" y2="14.349" fill="none" stroke="#1f6152" stroke-miterlimit="10" stroke-width="1"/>
        <line id="Line_261" data-name="Line 261" x2="7.445" y2="7.752" transform="translate(6.743 22.119)" fill="none" stroke="#1f6152" stroke-miterlimit="10" stroke-width="1"/>
        <line id="Line_262" data-name="Line 262" x2="14.286" y2="14.876" transform="translate(3.391 25.338)" fill="none" stroke="#1f6152" stroke-miterlimit="10" stroke-width="1"/>
        <line id="Line_263" data-name="Line 263" x2="9.691" y2="8.414" transform="translate(10.024 42.73)" fill="none" stroke="#1f6152" stroke-miterlimit="10" stroke-width="1"/>
        <line id="Line_264" data-name="Line 264" x2="23.532" y2="19.891" transform="translate(0.058 42.837)" fill="none" stroke="#1f6152" stroke-miterlimit="10" stroke-width="1"/>
        <line id="Line_265" data-name="Line 265" x2="10.384" y2="7.696" transform="translate(16.509 64.344)" fill="none" stroke="#1f6152" stroke-miterlimit="10" stroke-width="1"/>
        <line id="Line_266" data-name="Line 266" x2="24.867" y2="17.199" transform="translate(6.675 66.083)" fill="none" stroke="#1f6152" stroke-miterlimit="10" stroke-width="1"/>
        <line id="Line_267" data-name="Line 267" x2="15.81" y2="10.592" transform="translate(18.43 84.195)" fill="none" stroke="#1f6152" stroke-miterlimit="10" stroke-width="1"/>
        <line id="Line_268" data-name="Line 268" x2="20.689" y2="13.156" transform="translate(15.011 90.7)" fill="none" stroke="#1f6152" stroke-miterlimit="10" stroke-width="1"/>
        <line id="Line_269" data-name="Line 269" x2="13.19" y2="8.007" transform="translate(25.562 103.22)" fill="none" stroke="#1f6152" stroke-miterlimit="10" stroke-width="1"/>
        <line id="Line_270" data-name="Line 270" x2="11.699" y2="5.776" transform="translate(31.898 113.361)" fill="none" stroke="#1f6152" stroke-miterlimit="10" stroke-width="1"/>
        <line id="Line_271" data-name="Line 271" x2="10.41" y2="3.742" transform="translate(33.696 120.139)" fill="none" stroke="#1f6152" stroke-miterlimit="10" stroke-width="1"/>
      </g>
    </g>
    <g id="Group_5681" data-name="Group 5681" transform="translate(186.425 97.182)">
      <path id="Path_15018" data-name="Path 15018" d="M356.982,196.248v34.923a5.5,5.5,0,0,1-5.5,5.5H131.057a5.5,5.5,0,0,1-5.5-5.5V196.248a5.479,5.479,0,0,1,2.6-4.654C174.883,162.614,185.413,82.5,187.326,62.861a4.858,4.858,0,0,1,4.83-4.395h11.3A10.355,10.355,0,0,1,213.806,68.82v9.95a5.5,5.5,0,0,0,5.491,5.5h43.946a5.5,5.5,0,0,0,5.491-5.5V68.82a10.355,10.355,0,0,1,10.352-10.354h11.3a4.858,4.858,0,0,1,4.83,4.395c1.91,19.643,12.441,99.753,59.171,128.734A5.479,5.479,0,0,1,356.982,196.248Z" transform="translate(-125.559 -58.466)" fill="#e0583d"/>
      <circle id="Ellipse_195" data-name="Ellipse 195" cx="49.187" cy="49.187" r="49.187" transform="translate(65.314 42.737)" fill="#fff"/>
      <g id="Group_5680" data-name="Group 5680" transform="translate(71.764 48.784)">
        <path id="Path_15019" data-name="Path 15019" d="M219.8,120.168a19.349,19.349,0,1,1-19.348-19.346A19.319,19.319,0,0,1,219.8,120.168Z" transform="translate(-157.709 -77.033)" fill="#dfdede"/>
        <g id="Group_5676" data-name="Group 5676" transform="translate(0 33.465)">
          <path id="Path_15020" data-name="Path 15020" d="M185.991,115.742a9.274,9.274,0,1,1-9.275-9.273A9.274,9.274,0,0,1,185.991,115.742Z" transform="translate(-167.443 -106.469)" fill="#dfdede"/>
          <path id="Path_15021" data-name="Path 15021" d="M225.05,115.742a9.273,9.273,0,1,1-9.273-9.273A9.273,9.273,0,0,1,225.05,115.742Z" transform="translate(-139.577 -106.469)" fill="#dfdede"/>
        </g>
        <g id="Group_5677" data-name="Group 5677" transform="translate(33.465)">
          <path id="Path_15022" data-name="Path 15022" d="M196.247,126a9.273,9.273,0,1,1-9.273,9.273A9.273,9.273,0,0,1,196.247,126Z" transform="translate(-186.974 -59.072)" fill="#dfdede"/>
          <path id="Path_15023" data-name="Path 15023" d="M196.247,86.938a9.273,9.273,0,1,1-9.273,9.273A9.273,9.273,0,0,1,196.247,86.938Z" transform="translate(-186.974 -86.938)" fill="#dfdede"/>
        </g>
        <g id="Group_5678" data-name="Group 5678" transform="translate(9.802 9.802)">
          <path id="Path_15024" data-name="Path 15024" d="M203.5,123a9.273,9.273,0,1,1,0,13.114A9.272,9.272,0,0,1,203.5,123Z" transform="translate(-153.459 -72.954)" fill="#dfdede"/>
          <path id="Path_15025" data-name="Path 15025" d="M175.88,95.375a9.273,9.273,0,1,1,0,13.114A9.272,9.272,0,0,1,175.88,95.375Z" transform="translate(-173.163 -92.659)" fill="#dfdede"/>
        </g>
        <g id="Group_5679" data-name="Group 5679" transform="translate(9.802 9.802)">
          <path id="Path_15026" data-name="Path 15026" d="M203.5,108.49a9.273,9.273,0,1,1,13.114,0A9.272,9.272,0,0,1,203.5,108.49Z" transform="translate(-153.459 -92.659)" fill="#dfdede"/>
          <path id="Path_15027" data-name="Path 15027" d="M175.88,136.11a9.273,9.273,0,1,1,13.114,0A9.272,9.272,0,0,1,175.88,136.11Z" transform="translate(-173.163 -72.954)" fill="#dfdede"/>
        </g>
      </g>
      <path id="Path_15028" data-name="Path 15028" d="M356.982,149.765v16.272a5.5,5.5,0,0,1-5.5,5.5H131.057a5.5,5.5,0,0,1-5.5-5.5V149.765Z" transform="translate(-125.559 6.667)" fill="#dc442b"/>
      <path id="Path_15029" data-name="Path 15029" d="M210.276,136.083a19.351,19.351,0,1,1-18.025-34.2Z" transform="translate(-85.944 -27.491)" fill="#fff" opacity="0.41"/>
    </g>
    <g id="Group_5682" data-name="Group 5682" transform="translate(102.832 156.297)">
      <rect id="Rectangle_1617" data-name="Rectangle 1617" width="159.734" height="105.824" transform="translate(0.001 18.846) rotate(-6.776)" fill="#eab54e"/>
      <path id="Path_15030" data-name="Path 15030" d="M84.058,193.987l72.242-68.9,86.377,50.059Z" transform="translate(-71.572 -70.057)" fill="#eab54e"/>
      <path id="Path_15031" data-name="Path 15031" d="M76.771,111.814l80.208,53.266a10.045,10.045,0,0,0,12.919-1.535L235.39,92.968Z" transform="translate(-76.771 -92.967)" fill="#e4a73c"/>
    </g>
    <g id="Group_5685" data-name="Group 5685" transform="translate(40.241 156.374)">
      <path id="Path_15032" data-name="Path 15032" d="M59.049,113.631a87.6,87.6,0,0,1,10.711,15.851,88.311,88.311,0,0,1,7.04,17.78,86.279,86.279,0,0,1,2.229,10.62.8.8,0,0,0,.7.769.786.786,0,0,0,.86-.584L80.8,156.9c.183-1-1.35-1.393-1.535-.389l-.214,1.169,1.559.185a89.379,89.379,0,0,0-4.9-19.014,90.207,90.207,0,0,0-8.917-17.5,89.416,89.416,0,0,0-6.657-8.869.8.8,0,0,0-1.121.027.81.81,0,0,0,.027,1.119Z" transform="translate(-26.995 -79.277)" fill="#2b8d7b"/>
      <path id="Path_15033" data-name="Path 15033" d="M71.106,97.34c2.81,4.511,1.249,13.449-.245,14.274s-.288-12.7-2.514-14.723-7.755-2.745-7.755-2.745c1.364,1.026,3.434,8.867,1.811,10.275s-.845-4.8-3.187-8.766-14.468-2.289-14.468-2.289a10.578,10.578,0,0,1-.636,7.82c-2.046,3.829-6.242,10.8-2.133,14.8,3.16,3.082,14.225-1.605,13.531-.766s-9.849,5.944-14.19,2.762c0,0,2.289,11.915,9.055,11.886s12.931-3.485,12.746-2.061-10.215,5.327-16,2.3c0,0,8.391,16.229,19.6,13.13s8.922-14.288,8.922-14.288c11.468.471,14.994-7.176,13.054-15.069C86.976,106.878,71.106,97.34,71.106,97.34ZM52.5,122.758a9.04,9.04,0,0,1-2.06,1.443c-.691.23-1.073-.315-.793-.913.392-.841.843-1.592,1.635-1.42S52.788,122.462,52.5,122.758Zm14.537,7.4c-1.393,1.357-4.791,4.158-6.012,4.181a1.384,1.384,0,0,1-1.3-1.145c.027-1.066.713-1.808,2.56-2.472s4-3.369,4.642-3.139S68.43,128.8,67.038,130.162Zm-6.792-12.15c0,.793-2.58,2.531-3.382,2.937-1.15.583-2.49,2.26-2.981.612-.3-.994,1.45-2.149,3.13-2.717S60.25,117.218,60.247,118.012Zm-4.179-14.857a2.872,2.872,0,0,1-.358-2.215c.327-2.013.922-3.322,1.482-1.88s1.357,3.321,1.1,3.886l-.007.017A1.289,1.289,0,0,1,56.068,103.155Zm20.446,13.663c-2.353,3.526-3.792,6.48-4.525,3.929,0,0-.511-1.187.966-2.99s1.175-3.172,2.245-4.248S78.866,113.291,76.514,116.818Zm2.889-6.069c-1.259,1.213-1.551,2.013-2.195,1.532a1.291,1.291,0,0,1-.478-1.242,4.121,4.121,0,0,1,1.186-2.087C78.463,108.424,80.979,109.232,79.4,110.749Z" transform="translate(-40.241 -93.013)" fill="#2b8d7b"/>
      <g id="Group_5684" data-name="Group 5684" transform="translate(4.507 0.319)">
        <g id="Group_5683" data-name="Group 5683">
          <path id="Path_15034" data-name="Path 15034" d="M52.6,116.624c-.708.334-1.414.651-2.107.956-.331.144-.087.649.242.5.716-.314,1.446-.643,2.174-.989A1.677,1.677,0,0,1,52.6,116.624Z" transform="translate(-37.548 -76.487)" fill="#2b8d7b"/>
          <path id="Path_15035" data-name="Path 15035" d="M68.429,124.027l.024-.084a.285.285,0,0,0,.01-.1c.7-.8,1.36-1.629,1.994-2.479a1.739,1.739,0,0,1-.281-.548q-1.046,1.426-2.215,2.762c-.766-.74-1.513-1.492-2.234-2.265-1.653-1.777-3.189-3.646-4.659-5.567a18.054,18.054,0,0,0,3.028-14,.28.28,0,0,0-.55.1,17.492,17.492,0,0,1-2.834,13.431c-1.821-2.406-3.55-4.885-5.293-7.354a15.593,15.593,0,0,0,.262-4.429,1.312,1.312,0,0,1-.552.069,14.641,14.641,0,0,1-.156,3.73c-1.451-2.049-2.918-4.088-4.46-6.065A60.533,60.533,0,0,0,43.141,93.2c-.173.021-.269.034-.269.034s.081.23.176.627c4.475,4.056,8.08,8.965,11.572,13.9a15.7,15.7,0,0,1-7.518-.7.28.28,0,0,0-.18.529,16.3,16.3,0,0,0,8.027.685l.031-.009c.54.764,1.078,1.53,1.617,2.291,2.272,3.213,4.582,6.41,7.157,9.389a23.782,23.782,0,0,1-11.812,4.544c-.358.036-.252.586.1.552a24.355,24.355,0,0,0,12.076-4.672l.053.062c1.151,1.306,2.37,2.541,3.62,3.746a11.129,11.129,0,0,1-2.111,3.758,1.177,1.177,0,0,1,.221.6,11.727,11.727,0,0,0,2.337-3.931c1.647,1.566,3.341,3.084,5,4.638.219.2.437.408.655.615-.036-.4-.079-.706-.108-.879C72.019,127.316,70.185,125.7,68.429,124.027Z" transform="translate(-42.872 -93.199)" fill="#1f6152"/>
          <path id="Path_15036" data-name="Path 15036" d="M62.085,104.343a1.251,1.251,0,0,1-.211-.2c-.14.346-.286.692-.435,1.035a1.158,1.158,0,0,1,.5.252c.139-.317.274-.634.4-.954A.707.707,0,0,1,62.085,104.343Z" transform="translate(-29.626 -85.394)" fill="#2b8d7b"/>
          <path id="Path_15037" data-name="Path 15037" d="M49.033,96.018a15.037,15.037,0,0,1,.749,1.619,3.5,3.5,0,0,1,.3-.74c-.166-.38-.346-.754-.543-1.121C49.367,95.459,48.861,95.7,49.033,96.018Z" transform="translate(-38.502 -91.467)" fill="#2b8d7b"/>
        </g>
      </g>
    </g>
    <g id="Group_5688" data-name="Group 5688" transform="translate(389.188 128.952)">
      <path id="Path_15038" data-name="Path 15038" d="M284.441,88.657l-2.027,18.656-2.058-13.533c-.29.43-.576.869-.853,1.318-8.188,13.2-7.22,33.444-7.22,33.444l-4.576-20.751a59.961,59.961,0,0,0-11.225,21.9l9.338,23.39-11.2-14.718c-3.024,17.49.574,27.231.574,27.231l-7.6-5.173a83.438,83.438,0,0,0-3.273,19.483c-.214,9.527,5.188,18.549,5.188,18.549l-5.252-2.015a31.7,31.7,0,0,0,10.969,28.921l46.13-148.352A47.852,47.852,0,0,0,284.441,88.657Z" transform="translate(-243.898 -77.008)" fill="#244854"/>
      <path id="Path_15039" data-name="Path 15039" d="M296.643,77.008,250.513,225.36s13.793-.339,21.861-5.084,8.211-10.741,8.211-10.741l-8.644.963s12.857-7.931,20.695-16.507,9.5-20.782,9.5-20.782l-14.67,2.935s14.634-12.422,20.784-22.85,6.358-25.227,6.358-25.227l-12.744,4.049s8.606-10.45,11.954-20.8S316.376,95.8,316.376,95.8l-9.338,5.639s2.078-9.456,1.376-16.382S296.643,77.008,296.643,77.008Z" transform="translate(-239.179 -77.008)" fill="#1c3742"/>
      <g id="Group_5686" data-name="Group 5686" transform="translate(3.81 13.976)">
        <line id="Line_272" data-name="Line 272" x1="1.288" y2="16.65" transform="translate(40.415)" fill="none" stroke="#1f6152" stroke-miterlimit="10" stroke-width="1"/>
        <line id="Line_273" data-name="Line 273" x2="1.616" y2="10.626" transform="translate(34.465 21.962)" fill="none" stroke="#1f6152" stroke-miterlimit="10" stroke-width="1"/>
        <line id="Line_274" data-name="Line 274" x2="3.101" y2="20.39" transform="translate(29.87 22.661)" fill="none" stroke="#1f6152" stroke-miterlimit="10" stroke-width="1"/>
        <line id="Line_275" data-name="Line 275" x2="3.07" y2="12.461" transform="translate(25.268 40.697)" fill="none" stroke="#1f6152" stroke-miterlimit="10" stroke-width="1"/>
        <line id="Line_276" data-name="Line 276" x2="7.767" y2="29.817" transform="translate(17.062 35.04)" fill="none" stroke="#1f6152" stroke-miterlimit="10" stroke-width="1"/>
        <line id="Line_277" data-name="Line 277" x2="4.051" y2="12.274" transform="translate(18.111 62.097)" fill="none" stroke="#1f6152" stroke-miterlimit="10" stroke-width="1"/>
        <line id="Line_278" data-name="Line 278" x2="10.41" y2="28.387" transform="translate(9.072 57.851)" fill="none" stroke="#1f6152" stroke-miterlimit="10" stroke-width="1"/>
        <line id="Line_279" data-name="Line 279" x2="6.816" y2="17.768" transform="translate(8.24 79.427)" fill="none" stroke="#1f6152" stroke-miterlimit="10" stroke-width="1"/>
        <line id="Line_280" data-name="Line 280" x2="9.325" y2="22.675" transform="translate(1.697 82.772)" fill="none" stroke="#1f6152" stroke-miterlimit="10" stroke-width="1"/>
        <line id="Line_281" data-name="Line 281" x2="6.164" y2="14.146" transform="translate(3.103 99.085)" fill="none" stroke="#1f6152" stroke-miterlimit="10" stroke-width="1"/>
        <line id="Line_282" data-name="Line 282" x2="6.232" y2="11.462" transform="translate(2.437 111.024)" fill="none" stroke="#1f6152" stroke-miterlimit="10" stroke-width="1"/>
        <line id="Line_283" data-name="Line 283" x2="6.351" y2="9.058" transform="translate(0 117.599)" fill="none" stroke="#1f6152" stroke-miterlimit="10" stroke-width="1"/>
      </g>
      <g id="Group_5687" data-name="Group 5687" transform="translate(20.062 11.281)">
        <line id="Line_284" data-name="Line 284" x1="8.544" y2="14.349" transform="translate(35.563)" fill="none" stroke="#1f6152" stroke-miterlimit="10" stroke-width="1"/>
        <line id="Line_285" data-name="Line 285" x1="7.445" y2="7.752" transform="translate(29.919 22.119)" fill="none" stroke="#1f6152" stroke-miterlimit="10" stroke-width="1"/>
        <line id="Line_286" data-name="Line 286" x1="14.286" y2="14.876" transform="translate(26.431 25.338)" fill="none" stroke="#1f6152" stroke-miterlimit="10" stroke-width="1"/>
        <line id="Line_287" data-name="Line 287" x1="9.691" y2="8.414" transform="translate(24.392 42.73)" fill="none" stroke="#1f6152" stroke-miterlimit="10" stroke-width="1"/>
        <line id="Line_288" data-name="Line 288" x1="23.532" y2="19.891" transform="translate(20.517 42.837)" fill="none" stroke="#1f6152" stroke-miterlimit="10" stroke-width="1"/>
        <line id="Line_289" data-name="Line 289" x1="10.384" y2="7.696" transform="translate(17.213 64.344)" fill="none" stroke="#1f6152" stroke-miterlimit="10" stroke-width="1"/>
        <line id="Line_290" data-name="Line 290" x1="24.867" y2="17.199" transform="translate(12.565 66.083)" fill="none" stroke="#1f6152" stroke-miterlimit="10" stroke-width="1"/>
        <line id="Line_291" data-name="Line 291" x1="15.81" y2="10.592" transform="translate(9.867 84.195)" fill="none" stroke="#1f6152" stroke-miterlimit="10" stroke-width="1"/>
        <line id="Line_292" data-name="Line 292" x1="20.689" y2="13.156" transform="translate(8.407 90.7)" fill="none" stroke="#1f6152" stroke-miterlimit="10" stroke-width="1"/>
        <line id="Line_293" data-name="Line 293" x1="13.19" y2="8.007" transform="translate(5.355 103.22)" fill="none" stroke="#1f6152" stroke-miterlimit="10" stroke-width="1"/>
        <line id="Line_294" data-name="Line 294" x1="11.699" y2="5.776" transform="translate(0.51 113.361)" fill="none" stroke="#1f6152" stroke-miterlimit="10" stroke-width="1"/>
        <line id="Line_295" data-name="Line 295" x1="10.41" y2="3.742" transform="translate(0 120.139)" fill="none" stroke="#1f6152" stroke-miterlimit="10" stroke-width="1"/>
      </g>
    </g>
    <g id="Group_5690" data-name="Group 5690" transform="translate(150.346 82.676)">
      <g id="Group_5689" data-name="Group 5689">
        <path id="Path_15040" data-name="Path 15040" d="M400.163,147.229c-.7,1.47-1.439,2.938-2.188,4.407a15.265,15.265,0,0,1-20.624,6.552l-40.882-21.27-.442-.235a15.253,15.253,0,0,1-6.213-21.051l1.924-3.408,3-5.289a12.8,12.8,0,0,0,1.587-4.715c.778-6.184-.118-19.963-23.181-21.212H200.249c-21.757,1.175-23.784,13.5-23.3,20.1a15.046,15.046,0,0,0,1.94,6.242l2.937,5.2,1.763,3.086a15.268,15.268,0,0,1-6.228,21.051l-.19.1-41.132,21.4a15.249,15.249,0,0,1-20.611-6.552c-.7-1.366-1.381-2.717-2.042-4.068-7.918-16.322-12.3-32.01-5.6-50.357a43.292,43.292,0,0,1,25.223-25.444A330.756,330.756,0,0,1,256.7,50.041,330.731,330.731,0,0,1,380.376,71.767,43.255,43.255,0,0,1,405.6,97.211C412.253,115.427,407.993,131.041,400.163,147.229Z" transform="translate(-104.502 -50)" fill="#e0583d"/>
        <path id="Path_15041" data-name="Path 15041" d="M173.657,110.645l-41.317,21.5a15.261,15.261,0,0,1-20.617-6.555q-1.054-2.043-2.032-4.071L178.134,86.5l1.749,3.088A15.258,15.258,0,0,1,173.657,110.645Z" transform="translate(-100.801 -23.958)" fill="#dc442b"/>
        <path id="Path_15042" data-name="Path 15042" d="M307.179,121.327q-1.054,2.19-2.193,4.4a15.263,15.263,0,0,1-20.619,6.556l-41.317-21.5a15.256,15.256,0,0,1-6.225-21.054l1.934-3.41Z" transform="translate(-11.518 -24.093)" fill="#dc442b"/>
      </g>
      <path id="Path_15043" data-name="Path 15043" d="M320.608,97.467c-1.381,6.463-5.642,11.884-8.373,17.907-1.837,4.069-2.82,8.99-1.821,13.192l-.442-.235a15.253,15.253,0,0,1-6.213-21.051l1.924-3.408,3-5.289a12.8,12.8,0,0,0,1.587-4.715c.778-6.184-.118-19.963-23.181-21.212H174.194c-21.757,1.175-23.784,13.5-23.3,20.1a15.046,15.046,0,0,0,1.94,6.242l2.937,5.2,1.763,3.086a15.268,15.268,0,0,1-6.228,21.051l-.19.1a10.688,10.688,0,0,0,1.071-3.35c.75-4.834-1.732-9.52-4.025-13.853-5.156-9.784-9.754-21.418-5.406-31.583C146.194,71.627,154.538,66.677,163,64.5c7.991-2.058,16.336-2.13,24.593-2.19Q226.3,62,265.036,61.726c12.736-.087,25.956-.074,37.474,5.348S323.281,85.009,320.608,97.467Z" transform="translate(-78.447 -41.648)" fill="#d42e2a" opacity="0.3"/>
    </g>
    <g id="Group_5699" data-name="Group 5699" transform="translate(324.642 4.197)">
      <g id="Group_5694" data-name="Group 5694" transform="translate(2.773 67.235)">
        <g id="Group_5691" data-name="Group 5691" transform="translate(43.619 51.125)">
          <path id="Path_15044" data-name="Path 15044" d="M237.554,74.4a29.671,29.671,0,0,1-.031,3.72c-.158.98-3.305.785-3.627.242s-.115-5.089-.115-5.089" transform="translate(-233.008 -73.276)" fill="#fdba93"/>
          <path id="Path_15045" data-name="Path 15045" d="M233.318,77.69c-.048,1.031.031,2.973.031,2.973l3.245.655.387-.562a5.606,5.606,0,0,0,1.929.96,12.576,12.576,0,0,0,3.043.18c2.649-.278,4.451-1.174,4.527-1.566.32-1.638-7.436-2.86-7.878-3.9-.32-.754-.156-.934-.589-.816a1.076,1.076,0,0,0-.668.507,1.912,1.912,0,0,1-2,.942,2.286,2.286,0,0,1-1.24-.649A1.326,1.326,0,0,0,233.318,77.69Z" transform="translate(-233.303 -71.631)" fill="#00326a"/>
        </g>
        <g id="Group_5692" data-name="Group 5692" transform="translate(19.405)">
          <path id="Path_15046" data-name="Path 15046" d="M220.11,58.687c4.834-.084,17.628,1.905,22.5,2.335-.252,2.02-1.342,4.772-1.386,7.549a199.067,199.067,0,0,0,2.157,28.061s1.934,2.022,4.739-.063c2.181-12.472,5.3-37.469,4.14-42.5-1.475-6.4-21.006-11.461-33.093-10.52" transform="translate(-219.171 -43.438)" fill="#1d1c1c"/>
        </g>
        <path id="Path_15047" data-name="Path 15047" d="M219.171,43.551c8.538-.663,20.782,1.667,27.761,5.348a17.376,17.376,0,0,0-4.15,2.582,6.569,6.569,0,0,0-2.366,4.854,16.342,16.342,0,0,0,.572,4.522c-5.649-.631-16.507-2.245-20.878-2.169Z" transform="translate(-199.766 -43.438)" fill="#396390" opacity="0.35"/>
        <g id="Group_5693" data-name="Group 5693" transform="translate(31.389 54.808)">
          <path id="Path_15048" data-name="Path 15048" d="M230.593,76.692a29.714,29.714,0,0,1-.168,3.718c-.2.973-3.333.66-3.634.106s.074-5.091.074-5.091" transform="translate(-225.802 -75.426)" fill="#fdba93"/>
          <path id="Path_15049" data-name="Path 15049" d="M226.246,79.744c-.086,1.03-.081,2.971-.081,2.971l3.218.776.409-.547a5.634,5.634,0,0,0,1.89,1.03,12.554,12.554,0,0,0,3.035.293c2.659-.178,4.493-1.006,4.583-1.395.382-1.626-7.325-3.136-7.727-4.189-.293-.766-.12-.939-.559-.838a1.064,1.064,0,0,0-.685.483,1.918,1.918,0,0,1-2.037.867,2.3,2.3,0,0,1-1.215-.7A1.325,1.325,0,0,0,226.246,79.744Z" transform="translate(-226.165 -73.718)" fill="#00326a"/>
        </g>
        <path id="Path_15050" data-name="Path 15050" d="M209.262,43.878c-1.266,2.942-1.993,8.43-.836,10.83a6.008,6.008,0,0,0,3.547,3.572c6.1,2.723,15.148,2.162,24.3,1.605-3.778,10.208,2.108,30.865,2.961,40.137,3.43,1.521,5.37-.1,5.37-.1-.389-18.87,3.816-45.227,1.271-49.735-1.547-2.741-20.016-6.36-20.384-6.312" transform="translate(-207.846 -43.124)" fill="#1d1c1c"/>
      </g>
      <g id="Group_5698" data-name="Group 5698">
        <path id="Path_15051" data-name="Path 15051" d="M223.717,32.841c1.045-.338,3.723-4.032,4.563-3.852.747,1.013,1.635,7.524,1.635,7.524.283,1.85,11.584,18.846,11.584,18.846a3.647,3.647,0,0,1-1.246,2.263,9.071,9.071,0,0,1-2.436,1.268s-12.234-13.476-15.068-18.2C222.607,39.745,221.334,33.614,223.717,32.841Z" transform="translate(-194.772 13.485)" fill="#fdba93"/>
        <path id="Path_15052" data-name="Path 15052" d="M218.589,29.122s2.2,5.127,4.508,10.169a5.279,5.279,0,0,1,2.563-.838,26.754,26.754,0,0,0,7.2-1.444c-1.105-4.474-2.365-9.611-2.6-10.671-1.013-4.542-3.1-6.394-3.1-6.394Z" transform="translate(-197.408 7.036)" fill="#4c9ad5"/>
        <path id="Path_15053" data-name="Path 15053" d="M209.4,62.363c4.986.632,14.141.4,20.366.632,5.574.2,6.687,1.275,6.687,1.275-.211-7.962-1.381-13.683-.97-19.6.694-10,1.58-21.226-.4-23.455-3.889-2.973-11.756-4.21-19.869-1.684-6.1,1.89-8.022,3.677-7.652,8.26.106,1.338,3.381,20.674,2.553,30.338a4.626,4.626,0,0,1-.745,2.036C208.746,61.162,208.838,61.982,209.4,62.363Z" transform="translate(-205.307 5.768)" fill="#4c9ad5"/>
        <g id="Group_5695" data-name="Group 5695" transform="translate(13.344 68.198)">
          <path id="Path_15054" data-name="Path 15054" d="M214.015,44l29.556.433-17.747,6.152Z" transform="translate(-214.015 -44)" fill="#7abfeb"/>
          <path id="Path_15055" data-name="Path 15055" d="M225.871,51.282l-11.786-6.237L214.015,44l12,6.271Z" transform="translate(-214.015 -44)" fill="#a2d1f1"/>
        </g>
        <path id="Path_15056" data-name="Path 15056" d="M222.63,42.158l2.49,1.151a4.141,4.141,0,0,1,4.726-.185c2.474,1.614-.01,6.838-1.789,6.456s-7.121-3.793-7.121-3.793Z" transform="translate(-195.734 22.884)" fill="#f99c70"/>
        <path id="Path_15057" data-name="Path 15057" d="M206.289,38.363a49.465,49.465,0,0,0,9.739.343c.152-1.246.3-2.551.444-4.064.221-2.248.792-5.173.476-7.4-.408-3.017-1.549-7.853-5.2-7.246C205.242,21.07,206.289,38.246,206.289,38.363Z" transform="translate(-206.227 7.038)" fill="#4c9ad5"/>
        <path id="Path_15058" data-name="Path 15058" d="M206.685,30.746c.141,3.447-.081,9.028,1.981,11.835,3.2,4.391,24.19,11.944,24.19,11.944s.855.344,1.343-1.833a3.476,3.476,0,0,0-.033-1.585s-7.119-5.02-12.035-8.771A36.5,36.5,0,0,0,214.9,37.9c.267-2.7.536-4.707.8-6.9A41.236,41.236,0,0,1,206.685,30.746Z" transform="translate(-205.9 14.743)" fill="#fdba93"/>
        <path id="Path_15059" data-name="Path 15059" d="M222.752,44.185a3.315,3.315,0,0,0-.022-1.515A4.757,4.757,0,0,1,222.752,44.185Z" transform="translate(-194.453 23.249)" fill="#f99c70"/>
        <g id="Group_5696" data-name="Group 5696" transform="translate(25.199 51.144)">
          <path id="Path_15060" data-name="Path 15060" d="M220.934,58.383,248.3,56.52a1.93,1.93,0,0,0,1.784-1.665l2.6-18.966a1.621,1.621,0,0,0-1.717-1.838l-25.626,1.744a1.621,1.621,0,0,0-1.5,1.4Z" transform="translate(-220.934 -34.047)" fill="#a2d1f1"/>
        </g>
        <g id="Group_5697" data-name="Group 5697" transform="translate(9.173)">
          <path id="Path_15061" data-name="Path 15061" d="M224.107,9.3s1.2,3.406-.781,4.606a1.554,1.554,0,0,1-1.46,2.044c-2.012.324-.194-6.242-.194-6.242" transform="translate(-204.918 -0.557)" fill="#00326a"/>
          <path id="Path_15062" data-name="Path 15062" d="M221.47,17.757s.048.829.113,1.568a13.056,13.056,0,0,1,.254,1.537,5.9,5.9,0,0,1-.264,2.015c-.247.435-.8-.057-1.307.084-4.912,1.342-5.6-1.777-5.6-1.777.485-1.852-.418-6.557-.418-6.557" transform="translate(-209.677 3.243)" fill="#fdba93"/>
          <path id="Path_15063" data-name="Path 15063" d="M227.047,18.446a7.116,7.116,0,0,1-2.359,4.023,6.1,6.1,0,0,1-4.775,1.018,7.772,7.772,0,0,1-6.045-5.772A7.771,7.771,0,0,1,216.8,9.89c2.209-1.6,7.722-2.858,10.089-1.218C229.3,10.342,227.654,15.964,227.047,18.446Z" transform="translate(-210.075 -1.555)" fill="#fdba93"/>
          <path id="Path_15064" data-name="Path 15064" d="M213.871,17.394a7.756,7.756,0,0,0,6.04,5.772,6.28,6.28,0,0,0,4.359-.73,10.235,10.235,0,0,1-2.868.151,7.88,7.88,0,0,1-6.168-5.742c-.663-2.875,1.17-6.271,3.56-8.012a5.738,5.738,0,0,1,.792-.483,7.472,7.472,0,0,0-5.714,9.043Z" transform="translate(-210.074 -1.234)" fill="#d59b7b"/>
          <path id="Path_15065" data-name="Path 15065" d="M232.154,11.2a4.63,4.63,0,0,1-3.975,3.727c-1.934.266-5.688.257-6.974-1.211-.043,1.931-3.542,5.6-5.312,6.18.092,1.282.257,2.037.428,3.173-.889.437-2.226-.774-2.736-1.626S211.17,15.3,211.66,12.94s1.518-4.366,3.931-4.239a4.965,4.965,0,0,1,9.037-2.363c-.1-.144,1.366-.43,1.477-.449a4.494,4.494,0,0,1,1.814.021,5.919,5.919,0,0,1,2.909,1.767,4.873,4.873,0,0,1,1.338,2.772A3.455,3.455,0,0,1,232.154,11.2Z" transform="translate(-211.58 -4.197)" fill="#00326a"/>
          <path id="Path_15066" data-name="Path 15066" d="M216.889,11.724a.792.792,0,0,0-.278-.55,1.39,1.39,0,0,0-2.061.36c-.721.87-.541,4.664,1.088,3.483A3.723,3.723,0,0,0,216.889,11.724Z" transform="translate(-209.75 0.56)" fill="#fdba93"/>
        </g>
        <path id="Path_15067" data-name="Path 15067" d="M215.22,17.244a13.662,13.662,0,0,0-1.566,2.209,23.34,23.34,0,0,0,2.414,1.811,47.49,47.49,0,0,0,4.83,2.469L222,21.01S217.333,18.5,215.22,17.244Z" transform="translate(-200.928 5.11)" fill="#3993ce"/>
        <path id="Path_15068" data-name="Path 15068" d="M218.523,20.921a13.012,13.012,0,0,1,2.06,2.2,7.374,7.374,0,0,0-.065-3.715s-1.141-1.761-1.984-2.037A12.312,12.312,0,0,1,218.523,20.921Z" transform="translate(-197.455 5.199)" fill="#3993ce"/>
      </g>
      <path id="Path_15069" data-name="Path 15069" d="M217.13,25.531c-.1,1.532-.175,3.06-.252,4.587-.1,1.522-.12,3.06-.322,4.549l.254-.247c-.834.067-1.679.142-2.522.18s-1.688.053-2.532.072a43.283,43.283,0,0,1-5.07-.206,24.578,24.578,0,0,0,5.065.67c.853.036,1.707.021,2.558,0s1.7-.055,2.56-.149l.231-.026.022-.221a41.316,41.316,0,0,0,.187-4.616C217.3,28.595,217.25,27.061,217.13,25.531Z" transform="translate(-205.9 11.022)" fill="#3993ce"/>
      <path id="Path_15070" data-name="Path 15070" d="M224.4,24.4l-.207,7.748c-.062,1.931-.137,3.862-.221,5.313s-.137,2.423-.137,2.423l.146-.653c.086-.418.218-1.013.319-1.736s.228-1.568.3-2.478c.089-.908.137-1.88.173-2.853a51.283,51.283,0,0,0-.113-5.346C224.559,25.361,224.4,24.4,224.4,24.4Z" transform="translate(-193.662 10.214)" fill="#3993ce"/>
    </g>
    <g id="Group_5701" data-name="Group 5701" transform="translate(408.13 177.209)">
      <g id="Group_5700" data-name="Group 5700">
        <path id="Path_15071" data-name="Path 15071" d="M286.882,116.213a37.853,37.853,0,0,1-14.117,15.21,39.5,39.5,0,0,1-9.216,4.438c-.531.163-.252-.257.079-.358a37.5,37.5,0,0,0,8.509-4.069,37.071,37.071,0,0,0,14.038-15.076c.091-.187.838-.411.708-.144Z" transform="translate(-249.032 -97.384)" fill="#eab54e"/>
        <path id="Path_15072" data-name="Path 15072" d="M276.09,116.159a1.561,1.561,0,1,0,2.094-.7A1.56,1.56,0,0,0,276.09,116.159Z" transform="translate(-239.991 -97.953)" fill="#eab54e"/>
        <path id="Path_15073" data-name="Path 15073" d="M274.025,113.1a1.561,1.561,0,1,0,2.094-.7A1.561,1.561,0,0,0,274.025,113.1Z" transform="translate(-241.464 -100.131)" fill="#eab54e"/>
        <path id="Path_15074" data-name="Path 15074" d="M272.363,110.645a1.561,1.561,0,1,0,2.094-.7A1.561,1.561,0,0,0,272.363,110.645Z" transform="translate(-242.65 -101.885)" fill="#eab54e"/>
        <path id="Path_15075" data-name="Path 15075" d="M265.863,111.064a1.562,1.562,0,1,0,2.094-.7A1.561,1.561,0,0,0,265.863,111.064Z" transform="translate(-247.286 -101.586)" fill="#eab54e"/>
        <path id="Path_15076" data-name="Path 15076" d="M255.772,106.039a1.562,1.562,0,1,0,2.1-.7A1.562,1.562,0,0,0,255.772,106.039Z" transform="translate(-254.485 -105.172)" fill="#eab54e"/>
        <path id="Path_15077" data-name="Path 15077" d="M259.01,107.65a1.562,1.562,0,1,0,2.094-.7A1.562,1.562,0,0,0,259.01,107.65Z" transform="translate(-252.175 -104.022)" fill="#eab54e"/>
        <path id="Path_15078" data-name="Path 15078" d="M269.768,112.412a1.561,1.561,0,1,0,2.094-.7A1.561,1.561,0,0,0,269.768,112.412Z" transform="translate(-244.501 -100.626)" fill="#eab54e"/>
        <path id="Path_15079" data-name="Path 15079" d="M267.3,113.216a1.562,1.562,0,1,0,2.094-.7A1.561,1.561,0,0,0,267.3,113.216Z" transform="translate(-246.264 -100.051)" fill="#eab54e"/>
        <path id="Path_15080" data-name="Path 15080" d="M261.914,110.115a1.561,1.561,0,1,0,2.094-.7A1.561,1.561,0,0,0,261.914,110.115Z" transform="translate(-250.104 -102.264)" fill="#eab54e"/>
        <path id="Path_15081" data-name="Path 15081" d="M283.831,113.341a58.042,58.042,0,0,1-12.991,18.07,47.114,47.114,0,0,1-7.681,6.132c-.375.23-.881-.129-.418-.41a46.168,46.168,0,0,0,7.524-6,57.465,57.465,0,0,0,12.876-17.922c.153-.334.9-.326.69.132Z" transform="translate(-249.528 -99.605)" fill="#eab54e"/>
        <path id="Path_15082" data-name="Path 15082" d="M277.193,112.446a61.8,61.8,0,0,1-9.376,18.973,28.121,28.121,0,0,1-5.406,5.748c-.213.156-.925.2-.5-.115a26.953,26.953,0,0,0,5.108-5.4,60.961,60.961,0,0,0,9.417-18.969c.077-.245.824-.442.759-.233Z" transform="translate(-250.083 -100.046)" fill="#eab54e"/>
        <path id="Path_15083" data-name="Path 15083" d="M272.571,115.351a174.559,174.559,0,0,0-7.743,17.266,64.819,64.819,0,0,0-2.082,6.148l-.418.029a19.382,19.382,0,0,0,4.023-3.034,46.912,46.912,0,0,0,9.047-12.343,84.055,84.055,0,0,0,5.308-12.513c.07-.2.776-.358.745-.264a71.241,71.241,0,0,1-9.881,19.8,32.8,32.8,0,0,1-7.594,7.64,11.481,11.481,0,0,1-1.556.924c-.026.01-.457.175-.418.027a64.3,64.3,0,0,1,2.08-6.146,174.639,174.639,0,0,1,7.745-17.266,1.028,1.028,0,0,1,.744-.266Z" transform="translate(-249.925 -101.293)" fill="#eab54e"/>
        <path id="Path_15084" data-name="Path 15084" d="M265.115,110.1c-3.185,6.643-5.706,14.389-4.174,21.817.469,2.279,1.352,4.955,3.041,6.66l-.745.331a6.163,6.163,0,0,1-1.285-3.413c-.54-4.116.908-8.392,2.527-12.105A73.71,73.71,0,0,1,271,111.857c.108-.161.841-.368.7-.161-3.686,5.488-7.306,11.516-8.675,18.071-.523,2.5-.788,5.421.332,7.813a3.561,3.561,0,0,0,.622,1c.084.084-.572.505-.745.331a11.34,11.34,0,0,1-2.323-4.1,24.182,24.182,0,0,1-.615-12.683,47.986,47.986,0,0,1,4.068-11.771c.1-.211.8-.356.749-.254Z" transform="translate(-251.533 -101.68)" fill="#eab54e"/>
        <path id="Path_15085" data-name="Path 15085" d="M261.839,107.772c-3.579,10-4.971,22.716,2.13,31.609a10.943,10.943,0,0,0,1.326,1.448.168.168,0,0,1,.038.187,141.56,141.56,0,0,0-4.732,16.593c-.872,3.566-1.71,7.14-2.488,10.726-.063.293-.833.475-.744.063a250.952,250.952,0,0,1,6.377-24.92q.247-.753.511-1.5a5.539,5.539,0,0,1,.355-.725c-.019-.1-.312-.3-.379-.368a16.365,16.365,0,0,1-1.7-2.1,24.985,24.985,0,0,1-3.965-9.969c-1.246-7.066.139-14.31,2.527-20.984.1-.283.882-.451.744-.063Z" transform="translate(-253.234 -103.479)" fill="#eab54e"/>
        <path id="Path_15086" data-name="Path 15086" d="M258.226,106.2a31.077,31.077,0,0,0,4.7,32.178,24.208,24.208,0,0,0,2.69,2.853c.242.214-.459.613-.673.425a31.145,31.145,0,0,1-9.989-23.136,34.848,34.848,0,0,1,2.538-12.234c.1-.25.872-.442.733-.086Z" transform="translate(-254.953 -104.576)" fill="#eab54e"/>
      </g>
      <path id="Path_15087" data-name="Path 15087" d="M264.42,133.271c10.124-2.19,16.027-5.173,1.958-10.26s-8.838,3.112-5.653,6.107S264.42,133.271,264.42,133.271Z" transform="translate(-253.435 -93.608)" fill="#eab54e"/>
    </g>
    <g id="Group_5702" data-name="Group 5702" transform="translate(382.208 196.469)">
      <path id="Path_15088" data-name="Path 15088" d="M257.287,116.413s-18.578,32.3-17.41,56.159c.4,8.1,2.478,14.052,5.053,18.387a13.959,13.959,0,0,0,23.916.129c2.622-4.308,4.765-10.241,5.248-18.332C275.518,148.913,257.287,116.413,257.287,116.413Z" transform="translate(-239.824 -116.413)" fill="#afddd5"/>
      <path id="Path_15089" data-name="Path 15089" d="M257.683,179.559q.008-2.475.017-4.947l16.318-8.427c-.014-.194-.029-.387-.044-.583l-16.272,8.4.017-4.678q7.741-4.153,15.823-7.611c-.026-.182-.051-.363-.079-.545q-8.032,3.426-15.743,7.548.008-2.246.017-4.494,7.5-3.614,15-7.229c-.036-.18-.074-.362-.11-.541l-14.884,7.176.015-4.71q6.705-3.973,13.716-7.387c-.046-.176-.092-.353-.139-.528q-6.934,3.367-13.574,7.289l.017-4.851q6.068-3.488,12.417-6.439c-.053-.173-.1-.344-.158-.517q-6.261,2.907-12.258,6.336.008-1.974.014-3.951,5.354-3.369,10.993-6.239c-.058-.171-.117-.343-.175-.512q-5.544,2.814-10.815,6.117l.015-4.815a50.992,50.992,0,0,1,9.225-5.651c-.063-.168-.127-.336-.19-.5a51.521,51.521,0,0,0-9.031,5.481l.005-1.64a.274.274,0,0,0,0-.284l0-1.187a26.352,26.352,0,0,1,8.055-4.835c-.067-.166-.134-.332-.2-.5a26.968,26.968,0,0,0-7.853,4.623l.012-3.608a52.582,52.582,0,0,1,6.535-4.158c-.072-.166-.142-.332-.213-.5a52.554,52.554,0,0,0-6.319,3.991l.012-3.357,4.592-2.416q.38-.2.761-.4c-.072-.164-.146-.326-.218-.487-.374.2-.752.389-1.124.584q-2,1.054-4.009,2.109.005-1.419.01-2.837,1.853-1.429,3.824-2.688c-.077-.166-.154-.329-.23-.49q-1.845,1.18-3.593,2.5l.012-3.312q1.18-.846,2.433-1.576c-.081-.164-.161-.326-.238-.483q-1.126.655-2.193,1.4l.007-2,1.386-1.007c-.084-.165-.166-.326-.247-.481l-1.136.826.01-2.985c-.4-.752-.629-1.158-.629-1.158s-.226.392-.625,1.121l-.01,3.329a12.2,12.2,0,0,0-1.1-1.253c-.086.161-.171.327-.26.5a11.747,11.747,0,0,1,1.359,1.677l-.009,2.325a18.335,18.335,0,0,0-2.174-2.4c-.084.163-.166.327-.252.5a17.548,17.548,0,0,1,2.26,2.577.274.274,0,0,0,.163.11q-.008,2.138-.015,4.275-1.845-2.1-3.833-4.066l-.245.511q2.118,2.1,4.076,4.364l-.014,3.845q-2.583-2.85-5.3-5.563l-.238.519q2.845,2.848,5.538,5.839l-.017,4.714q-3.29-3.889-6.874-7.51c-.075.176-.152.355-.23.533q3.7,3.763,7.1,7.808-.005,1.552-.012,3.106-4.3-3.634-8.608-7.272l-.211.524q4.408,3.722,8.817,7.446l-.022,6.026a132.315,132.315,0,0,0-9.965-10.455c-.069.182-.137.363-.206.547a132.564,132.564,0,0,1,10.169,10.735l-.021,5.517q-6.055-5.312-12.112-10.627c-.06.183-.12.37-.178.555q6.143,5.392,12.289,10.782l-.007,2.1-.01,2.56-13.5-11.367c-.053.188-.1.377-.158.567q6.829,5.747,13.659,11.5l-.014,3.948q-7.466-5.148-14.931-10.294l-.123.565,14.968,10.322a.317.317,0,0,0,.082.038q-.01,2.819-.019,5.642L240.6,161.039c-.031.2-.062.4-.091.595l15.943,11.655q-.008,2.115-.014,4.227L239.867,168c-.009.2-.017.4-.024.6l16.591,9.528-.015,4.5a164.776,164.776,0,0,1-16.44-8.32c.019.221.038.439.058.656a165.049,165.049,0,0,0,16.38,8.245q-.013,3.652-.026,7.3-7.569-3.292-14.8-7.285c.074.25.149.5.228.74q7.073,3.876,14.482,7.088a.3.3,0,0,0,.089.022l-.012,3.072-12.311-4.726q.193.368.387.721l11.922,4.576-.01,3.041q.627.023,1.253-.007l0-.843,10.513-4.794c.2-.274.394-.559.579-.852q-5.544,2.529-11.091,5.056l.01-2.717,13.068-6.1c.11-.242.216-.49.32-.74l-13.387,6.245.015-4.217,14.948-6.65c.06-.218.117-.439.173-.661l-15.119,6.725.014-3.677v-.1a167.884,167.884,0,0,1,15.93-7.051c.029-.2.06-.4.087-.608a169.629,169.629,0,0,0-16.015,7.058l0-.473a.215.215,0,0,0,0-.1q.005-1.542.012-3.082,8.014-4.822,16.461-8.862c.005-.2.01-.4.012-.6Q265.714,174.743,257.683,179.559Z" transform="translate(-239.811 -116.413)" fill="#86bec4"/>
    </g>
    <g id="Group_5716" data-name="Group 5716" transform="translate(70.414 113.357)">
      <g id="Group_5703" data-name="Group 5703" transform="translate(5.775)">
        <path id="Path_15090" data-name="Path 15090" d="M73.677,68.826s7.966.23,3.747,9.311S73.677,68.826,73.677,68.826Z" transform="translate(-52.347 -67.251)" fill="#003c7f"/>
        <path id="Path_15091" data-name="Path 15091" d="M81.273,71.247s2.142,1.316,2.113,8.423c0,.247.869,2.346.948,2.594.3.951-.3,1.014-1.112,1.417-.329,5.361-1.134,5.264-1.84,5.735-.805.54-6.968-.732-10.926-2.692s-5.3-7.818-3.631-11.41S76.645,68.151,81.273,71.247Z" transform="translate(-57.726 -66.365)" fill="#ffc8a4"/>
        <path id="Path_15092" data-name="Path 15092" d="M69.675,72.393S68.1,68.5,64.1,69.491s-4.77,9.5,3.9,7.887A6.513,6.513,0,0,1,69.675,72.393Z" transform="translate(-61.221 -66.891)" fill="#003c7f"/>
        <path id="Path_15093" data-name="Path 15093" d="M68.289,70.615s-.954-1.571-2.615.531c-1.105,1.4-2.856,5.526-.459,6.538Z" transform="translate(-59.228 -66.377)" fill="#e0583d"/>
        <path id="Path_15094" data-name="Path 15094" d="M64.616,77.812c-.634,3.37,1.016,8.517,7.621,10.746,0,0,.588-2.034,1.009-4.027s6.023-4.277,8.452-6.451c.12-.11.235-.219.339-.331A5.035,5.035,0,0,0,82.1,71.13c-1.362-1.676-4.367-4.451-9.756-2.623C67.533,70.136,65.4,73.651,64.616,77.812Z" transform="translate(-58.889 -67.907)" fill="#003c7f"/>
        <path id="Path_15095" data-name="Path 15095" d="M77.307,78.351c-1.038,1.126-1.235,3.4-1.148,5.575.024.37.046.74.07,1.1a34.076,34.076,0,0,0,.595,4.088l-7.62-.19a46.665,46.665,0,0,0-.188-7.335S79.763,75.685,77.307,78.351Z" transform="translate(-55.66 -60.949)" fill="#ffc8a4"/>
        <path id="Path_15096" data-name="Path 15096" d="M72.925,76.305a2.2,2.2,0,0,0-2.865-.939c-1.823.886-.692,4.109.631,4.642a1.728,1.728,0,0,0,1.852-.271Z" transform="translate(-55.594 -62.758)" fill="#6c6c6c" opacity="0.4"/>
        <path id="Path_15097" data-name="Path 15097" d="M73.223,76.314a2.2,2.2,0,0,0-2.865-.941c-1.823.886-.812,4.29.631,4.642a1.577,1.577,0,0,0,1.724-.641Z" transform="translate(-55.404 -62.753)" fill="#ffc8a4"/>
        <path id="Path_15098" data-name="Path 15098" d="M75.329,83.023a22.588,22.588,0,0,1-5.051-2.558c2.133.694,4.981,1.46,4.981,1.46C75.283,82.295,75.305,82.665,75.329,83.023Z" transform="translate(-54.76 -58.947)" fill="#ef8d6d"/>
      </g>
      <g id="Group_5711" data-name="Group 5711" transform="translate(37.399 26.324)">
        <path id="Path_15099" data-name="Path 15099" d="M85.733,84.257,79.71,110.713a1.267,1.267,0,0,0,1.054,1.535l18.748,2.692a1.267,1.267,0,0,0,1.415-.973L106.95,87.51a1.265,1.265,0,0,0-1.054-1.534l-18.75-2.693A1.264,1.264,0,0,0,85.733,84.257Z" transform="translate(-79.678 -83.27)" fill="#0d1d43"/>
        <path id="Path_15100" data-name="Path 15100" d="M86.3,84.344l-5.767,25.332,18.615,2.673,5.767-25.332Z" transform="translate(-79.07 -82.505)" fill="#feefea"/>
        <g id="Group_5710" data-name="Group 5710" transform="translate(5.133 3.779)">
          <g id="Group_5704" data-name="Group 5704" transform="translate(2.591)">
            <path id="Path_15101" data-name="Path 15101" d="M100.333,88.4l-.046,0-15.82-2.272a.327.327,0,0,1-.278-.372.331.331,0,0,1,.37-.279l15.82,2.272a.329.329,0,0,1-.046.655Z" transform="translate(-84.186 -85.476)" fill="#c1c2e2" opacity="0.7"/>
          </g>
          <g id="Group_5705" data-name="Group 5705" transform="translate(2.058 2.396)" opacity="0.7">
            <path id="Path_15102" data-name="Path 15102" d="M100.022,89.8l-.046,0-15.82-2.272a.327.327,0,0,1-.278-.37.334.334,0,0,1,.372-.279l15.818,2.27a.329.329,0,0,1-.046.655Z" transform="translate(-83.875 -86.874)" fill="#c1c2e2"/>
          </g>
          <g id="Group_5706" data-name="Group 5706" transform="translate(1.405 5.233)">
            <path id="Path_15103" data-name="Path 15103" d="M93.709,90.6l-.048,0-9.886-1.419a.329.329,0,0,1-.278-.372.332.332,0,0,1,.372-.278l9.886,1.419a.328.328,0,0,1-.046.653Z" transform="translate(-83.494 -88.53)" fill="#c1c2e2" opacity="0.7"/>
          </g>
          <g id="Group_5707" data-name="Group 5707" transform="translate(0.702 7.29)" opacity="0.7">
            <path id="Path_15104" data-name="Path 15104" d="M93.3,91.8l-.048,0-9.886-1.42a.328.328,0,0,1-.278-.37.332.332,0,0,1,.372-.279l9.886,1.419a.328.328,0,0,1-.046.653Z" transform="translate(-83.084 -89.73)" fill="#c1c2e2"/>
          </g>
          <g id="Group_5708" data-name="Group 5708" transform="translate(0 9.349)" opacity="0.7">
            <path id="Path_15105" data-name="Path 15105" d="M92.889,93.005l-.048,0-9.886-1.42a.328.328,0,0,1-.278-.37.333.333,0,0,1,.372-.279l9.886,1.419a.328.328,0,0,1-.046.653Z" transform="translate(-82.674 -90.932)" fill="#c1c2e2"/>
          </g>
          <g id="Group_5709" data-name="Group 5709" transform="translate(3.626 20.72)">
            <path id="Path_15106" data-name="Path 15106" d="M95,99.644l-.046,0-9.886-1.42a.328.328,0,0,1-.278-.372.332.332,0,0,1,.37-.279l9.886,1.42a.328.328,0,0,1-.046.653Z" transform="translate(-84.79 -97.569)" fill="#c1c2e2" opacity="0.7"/>
          </g>
        </g>
      </g>
      <path id="Path_15107" data-name="Path 15107" d="M80.543,104.434a8.192,8.192,0,0,0,2.606-2.325l2.234-2.661a2.213,2.213,0,0,0,.636-1.187c-1.059-.086-1.8,1.067-2.76,1.479a.3.3,0,0,1-.392-.37,26.192,26.192,0,0,1,2.33-5.387,1.8,1.8,0,0,0,.358-1.467,9.519,9.519,0,0,0-3.47,2.534,18.5,18.5,0,0,0-1.88,2.392,25.754,25.754,0,0,0-3.365,8.265Z" transform="translate(-44.304 -50.35)" fill="#df7759"/>
      <g id="Group_5712" data-name="Group 5712" transform="translate(0 63.683)">
        <path id="Path_15108" data-name="Path 15108" d="M87.481,117.914l-11.912-12.84s-7.213,7.628-5.877,16c.658,4.121,1.854,6.269,2.246,8.235.367,1.835,1.3,27.291.781,29.08s-3.3,6.631-4.775,11.9c-1.777,6.34-3.67,16.073-5.12,21.56s.934,12.808,1.45,10.954c4.4-15.839,16.017-34.611,17.9-42.568S85.509,137.466,87.481,117.914Z" transform="translate(-54.632 -105.074)" fill="#ffc8a4"/>
        <path id="Path_15109" data-name="Path 15109" d="M73.072,155.048c.271-2.085.656-4.16.84-6.254a30.01,30.01,0,0,0-2.325-14.4l7.4-12.544a2.713,2.713,0,0,1,.288.019c-.077.733-.154,1.456-.231,2.161-.067.608-.125,1.206-.192,1.8-.087.8-.175,1.583-.26,2.354-.3,2.673-.6,5.173-.9,7.479-.077.579-.146,1.148-.223,1.7-.183,1.4-.375,2.731-.579,3.977-.183,1.215-.375,2.354-.569,3.415-.115.685-.25,1.333-.377,1.95-.057.271-.115.54-.173.8s-.117.521-.173.771c-.029.125-.058.252-.1.385Z" transform="translate(-48.052 -93.104)" fill="#ffc8a4"/>
        <path id="Path_15110" data-name="Path 15110" d="M69.286,155.9s-3.65,10.361-3.357,11.679c.178.8.99,3.512,1.174,3.9.074.154,2.69,2.233.951,2.188-1.715-.043-5.783-5.45-6.388-5.86a2.572,2.572,0,0,1-1.2-2.663,11.122,11.122,0,0,1,2.217-3.925c.79-1.114,1.914-6.516,1.914-6.516Z" transform="translate(-56.023 -69.67)" fill="#ffc8a4"/>
        <path id="Path_15111" data-name="Path 15111" d="M72.2,170.9a10.462,10.462,0,0,0-2.815-2.245h0c-.322-.41-.584-.673-.452-.41.224.44-.936.665-1.508.2-1.993-1.6-2.565-3.989-3.547-5.121-1.405-1.611-.422-3.735-.272-4.092a9.349,9.349,0,0,0-2.868,1.287,5.37,5.37,0,0,0-1.521,1.7,22.886,22.886,0,0,1-1.364,3.118l1.89,1.5,1.833-1.66.505.533a4.348,4.348,0,0,1,.973,1.994,10.657,10.657,0,0,0,.478,1.479,4.546,4.546,0,0,0,1.395,1.938s.391.322.8.66a3.37,3.37,0,0,0,2.137.764h3.247l0-.005h.5a.855.855,0,0,0,.87-.944A1.79,1.79,0,0,0,72.2,170.9Z" transform="translate(-57.851 -66.439)" fill="#1c3742"/>
      </g>
      <g id="Group_5713" data-name="Group 5713" transform="translate(18.8 62.273)">
        <path id="Path_15112" data-name="Path 15112" d="M91.9,208.529c-.259-.343-3.3-1.122-4.7-1.859a8.373,8.373,0,0,1-3.088-3.521c-.254-.816.18-4.8.372-6.466,1.328-11.5,5.473-28.151,6.389-34.871,1.592-11.679,1.16-23.921-1.657-43.154l-15.64-14.406s-5.493,8.324-4.671,16.829c.476,4.935,4.434,6.043,4.945,7.99s7.938,33.269,7.938,33.269a57.431,57.431,0,0,0-3.333,13.587c-.653,6.137.987,13.6.869,20.712-.065,1.386-.125,4.714-.625,5.728-.615,1.244-2.022,2.644-2.1,4.277a2.51,2.51,0,0,0,1.71,2.383c1.157.476,1.883-.151,2.293-.132,2.378.115,2.887,1.8,6.977,2.171a6.5,6.5,0,0,0,4.212-1.323A.869.869,0,0,0,91.9,208.529Z" transform="translate(-68.823 -104.251)" fill="#ffc8a4"/>
        <path id="Path_15113" data-name="Path 15113" d="M89.112,168.725a3.049,3.049,0,0,1-.845.936,4.325,4.325,0,0,1-2.632.824h-2a4.606,4.606,0,0,1-2.313-.62,11.218,11.218,0,0,1-1.3-.84A4.29,4.29,0,0,0,78,168.1a5.89,5.89,0,0,0-1.292-.029l-.141,2.416H73.806a13.622,13.622,0,0,0-.7-3.454,4.681,4.681,0,0,1,.2-2.116,9.833,9.833,0,0,1,1.779-2.8c.113.375.694,2.64,2.808,3,1.47.252,3.427,1.741,5.983,1.713.738,0,1.5-.908,1.049-1.105s.814.027,1.619.319a23.268,23.268,0,0,1,2.6,1.282C89.422,167.48,89.384,168.22,89.112,168.725Z" transform="translate(-65.818 -62.97)" fill="#1c3742"/>
      </g>
      <path id="Path_15114" data-name="Path 15114" d="M94.629,151.067s-2.651,1.326-12.316,1.681c-.869.045-1.784.069-2.765.081-.629.01-1.223.01-1.782.01-5.245-.01-7.714-.492-7.679-.994.024-.548-2.673-20.737-3.564-23.8A25.556,25.556,0,0,1,64.9,117.715c.308-5.531,4.707-12.122,5.908-13.323l20.348-.331s3.507,8.295,3.852,13.426C95.715,128.3,94.629,151.067,94.629,151.067Z" transform="translate(-52.849 -42.114)" fill="#003c7f"/>
      <path id="Path_15115" data-name="Path 15115" d="M62.559,97.4s.805,4.121,1.309,5.819,3,12.479,5.358,12.292S84.52,104.527,84.52,104.527l-1.832-3.663L71.3,106.29s-1.028-12.325-1.931-15.26Z" transform="translate(-54.492 -51.41)" fill="#ffc8a4"/>
      <path id="Path_15116" data-name="Path 15116" d="M64.477,95.878c1.2,4.26,3.526,10.822,4.414,12.052.4.552,8.032-2.2,8.05-5.162L69.028,93.8Z" transform="translate(-53.124 -49.436)" fill="#ef8d6d"/>
      <path id="Path_15117" data-name="Path 15117" d="M73.172,83.45A13.765,13.765,0,0,0,66.256,85.8c-4.931,3.667-3.761,17.523-3.761,17.523s-.24.725,3.036.54a23.6,23.6,0,0,0,5.9-1.115l-.948-11.108Z" transform="translate(-54.624 -56.818)" fill="#e0583d"/>
      <path id="Path_15118" data-name="Path 15118" d="M63.911,88.345s-.415,7.969,1.028,11.99a12.921,12.921,0,0,0,2.673-.351Z" transform="translate(-53.567 -53.326)" fill="#c23421" opacity="0.25"/>
      <path id="Path_15119" data-name="Path 15119" d="M68.191,85.071c.135-.9.379-1.955,1.22-2.311a2.583,2.583,0,0,1,.74-.158,24.377,24.377,0,0,1,4.861-.37,7.222,7.222,0,0,1,3.136.55c1.5.75,2.327,2.37,3.052,3.884Z" transform="translate(-50.474 -57.692)" fill="#da3c27"/>
      <path id="Path_15120" data-name="Path 15120" d="M91.564,115.774c-.714-1.4-1.34-7.318-1.095-8.829.264-1.621,1.7-2.491,2.344-6.1a13.339,13.339,0,0,0-2.135-9.8c-1.5-2.185-3.571-6.622-4-6.753-6.287-1.912-7.309-1-11.538-.814a28.039,28.039,0,0,0-5.485.634c-2.272.5-5,1.259-5.467,4.343a31.035,31.035,0,0,0,1.335,14.115c.961,3,6.7,13.373,5.277,15.381a6.875,6.875,0,0,0-1.237,1.9c-.36,2.1,3.029,2.611,6.4,3a54.15,54.15,0,0,0,9.73-.062C95.247,122.153,91.86,116.36,91.564,115.774Z" transform="translate(-53.546 -57.065)" fill="#e0583d"/>
      <path id="Path_15121" data-name="Path 15121" d="M82.724,96.587A8.359,8.359,0,0,1,82.1,99a7.181,7.181,0,0,1-3.13.463,55.7,55.7,0,0,1-1.862-9.131S82.724,95.805,82.724,96.587Z" transform="translate(-44.112 -51.905)" fill="#c23421" opacity="0.25"/>
      <g id="Group_5715" data-name="Group 5715" transform="translate(35.617 28.977)">
        <path id="Path_15122" data-name="Path 15122" d="M78.638,95.273s7.724,18.669,11.075,18.669c2.438,0,8.418-17.233,8.418-17.233L94.353,94.92l-4.213,7.219L84.991,89.451Z" transform="translate(-78.638 -81.514)" fill="#ffc8a4"/>
        <path id="Path_15123" data-name="Path 15123" d="M87.372,97.858a7.363,7.363,0,0,0,1.162-3.37c-.036-.535-.353-3.072-.087-3.571a14.851,14.851,0,0,1,1.263-2.45c.363-.317,1.7-.828,2.032-.6s.737-.816,1.282-.725a1.153,1.153,0,0,1,1,1.043c0,.5.726.589.817.953a5.013,5.013,0,0,0,.182.953c.135.272.536.137.68.816.132.622-.045.68,0,1s.317.288.226.893a7.586,7.586,0,0,1-.867,2.068A5.964,5.964,0,0,1,92.951,97a4.029,4.029,0,0,0-1.229,1.7Z" transform="translate(-72.407 -83.166)" fill="#ffc8a4"/>
        <path id="Path_15124" data-name="Path 15124" d="M88.951,85.085a.463.463,0,0,0-.666-.182.6.6,0,0,0-.149.742l2.284,5.169s.185.211.538-.1c.384-.338.262-.507.262-.507S89.047,85.232,88.951,85.085Z" transform="translate(-71.91 -84.819)" fill="#5b60a8"/>
        <g id="Group_5714" data-name="Group 5714" transform="translate(17.352 4.984)">
          <path id="Path_15125" data-name="Path 15125" d="M90.86,87.8a5.354,5.354,0,0,1-1.391,1.451c-.356.334-.312.55-.7.893.687-.051.569-.456,1.46-1.1a1.883,1.883,0,0,0,.92-1.127.156.156,0,0,0-.284-.118Z" transform="translate(-88.765 -87.728)" fill="#ef8d6d"/>
        </g>
      </g>
      <path id="Path_15126" data-name="Path 15126" d="M73.885,83.116c2.012.1,8.332.617,12.3,6.442a50.708,50.708,0,0,1,5.144,10.575c-1.354,1.9-5.683,3.716-8.8,3.677a32.411,32.411,0,0,1-3.264-9.035Z" transform="translate(-46.412 -57.056)" fill="#e0583d"/>
    </g>
    <g id="Group_5718" data-name="Group 5718" transform="translate(129.259 92.956)">
      <path id="Path_15127" data-name="Path 15127" d="M117.764,56c-14.122,0-25.569,8.586-25.569,19.176,0,5.637,3.245,10.705,8.408,14.214.1,1.6.336,3.221.4,3.989a44.448,44.448,0,0,0,.982,6.352.766.766,0,0,0,1.4.224,76.607,76.607,0,0,1,4.789-7,33.1,33.1,0,0,0,9.59,1.395c14.12,0,25.567-8.586,25.567-19.175S131.884,56,117.764,56Z" transform="translate(-92.195 -56)" fill="#2b8d7b"/>
      <g id="Group_5717" data-name="Group 5717" transform="translate(8.971 14.578)">
        <path id="Path_15128" data-name="Path 15128" d="M105.953,68.769a4.261,4.261,0,1,1-4.261-4.261A4.26,4.26,0,0,1,105.953,68.769Z" transform="translate(-97.431 -64.508)" fill="#fff"/>
        <path id="Path_15129" data-name="Path 15129" d="M113.808,68.769a4.261,4.261,0,1,1-4.261-4.261A4.261,4.261,0,0,1,113.808,68.769Z" transform="translate(-91.828 -64.508)" fill="#fff"/>
        <path id="Path_15130" data-name="Path 15130" d="M121.661,68.769a4.261,4.261,0,1,1-4.261-4.261A4.261,4.261,0,0,1,121.661,68.769Z" transform="translate(-86.225 -64.508)" fill="#fff"/>
      </g>
    </g>
  </g>
</svg>
