<svg xmlns="http://www.w3.org/2000/svg" width="470.742" height="352.436" viewBox="0 0 470.742 352.436">
  <g id="hero-image-about" transform="translate(-691 -122.92)">
    <path id="Path_10167" data-name="Path 10167" d="M958.164,529.629c.177-.045.206-.225.15-.452C958.161,529.454,958.081,529.652,958.164,529.629Z" transform="translate(124.622 -141.588)" fill="#191818"/>
    <path id="Path_10168" data-name="Path 10168" d="M918.982,467.49a.3.3,0,0,0-.043-.2C918.88,468.036,918.848,468.436,918.982,467.49Z" transform="translate(137.989 -120.508)" fill="#191818"/>
    <path id="Path_10169" data-name="Path 10169" d="M969.559,541.553a1.126,1.126,0,0,1-.595-.134A.648.648,0,0,0,969.559,541.553Z" transform="translate(120.932 -145.758)" fill="#191818"/>
    <path id="Path_10170" data-name="Path 10170" d="M966.556,531.421a1.368,1.368,0,0,1-.36.1C966.591,531.611,966.652,531.548,966.556,531.421Z" transform="translate(121.874 -142.352)" fill="#191818"/>
    <path id="Path_10171" data-name="Path 10171" d="M938.3,505.083c-.041-.076-.06-.009,0,0Z" transform="translate(131.389 -133.368)" fill="#191818"/>
    <path id="Path_10172" data-name="Path 10172" d="M921.979,463.03a1.392,1.392,0,0,0,.818-.282C923.124,462.479,921.772,462.44,921.979,463.03Z" transform="translate(136.943 -118.896)" fill="#191818"/>
    <path id="Path_10173" data-name="Path 10173" d="M940.316,509.633c-.013,0-.027.005-.036,0a.133.133,0,0,0-.01.043C940.284,509.647,940.3,509.63,940.316,509.633Z" transform="translate(130.705 -134.93)" fill="#191818"/>
    <path id="Path_10174" data-name="Path 10174" d="M940.2,509.7c-.112.2-.223.942,0,0Z" transform="translate(130.772 -134.955)" fill="#191818"/>
    <path id="Path_10175" data-name="Path 10175" d="M960.47,526.3a2.136,2.136,0,0,1-.072.21A.874.874,0,0,0,960.47,526.3Z" transform="translate(123.849 -140.609)" fill="#191818"/>
    <path id="Path_10176" data-name="Path 10176" d="M1026.481,513.564c-.012.121-.02.208-.019.2C1026.52,513.606,1026.518,513.552,1026.481,513.564Z" transform="translate(101.346 -136.269)" fill="#191818"/>
    <path id="Path_10177" data-name="Path 10177" d="M1024.225,516.822a.553.553,0,0,0,.246-.578C1024.252,516.625,1024.119,516.887,1024.225,516.822Z" transform="translate(102.121 -137.182)" fill="#191818"/>
    <path id="Path_10178" data-name="Path 10178" d="M1019.53,521.562c-.043.5-.114.86-.227.914C1019.722,522.263,1019.733,521.932,1019.53,521.562Z" transform="translate(103.785 -138.994)" fill="#191818"/>
    <path id="Path_10179" data-name="Path 10179" d="M1001.857,516.384c0,.026-.051.019-.128-.018C1001.8,516.419,1001.854,516.445,1001.857,516.384Z" transform="translate(109.771 -137.224)" fill="#191818"/>
    <path id="Path_10180" data-name="Path 10180" d="M1011.593,515.681a2.625,2.625,0,0,1-.322.928C1011.8,515.868,1011.806,515.65,1011.593,515.681Z" transform="translate(106.521 -136.99)" fill="#191818"/>
    <path id="Path_10181" data-name="Path 10181" d="M1015.8,518.3c.012.01.014-.007.02-.015C1015.762,518.261,1015.744,518.258,1015.8,518.3Z" transform="translate(104.989 -137.872)" fill="#191818"/>
    <path id="Path_10182" data-name="Path 10182" d="M1007.553,518.356c.378.21.458.177.367.007C1007.889,518.464,1007.784,518.484,1007.553,518.356Z" transform="translate(107.787 -137.902)" fill="#191818"/>
    <path id="Path_10183" data-name="Path 10183" d="M824.872,543.938c-.867-2-.666-1.231-.182-.14A.259.259,0,0,1,824.872,543.938Z" transform="translate(170.217 -146.193)" fill="#191818"/>
    <path id="Path_10184" data-name="Path 10184" d="M816.7,558.221a.714.714,0,0,1-.208.366C816.518,558.968,816.528,559.056,816.7,558.221Z" transform="translate(172.869 -151.481)" fill="#191818"/>
    <path id="Path_10185" data-name="Path 10185" d="M902.487,471.4a1.4,1.4,0,0,0-.059-.806A2.538,2.538,0,0,1,902.487,471.4Z" transform="translate(143.596 -121.632)" fill="#191818"/>
    <path id="Path_10186" data-name="Path 10186" d="M831.517,511.125a.217.217,0,0,1-.136.007A.113.113,0,0,0,831.517,511.125Z" transform="translate(167.796 -135.439)" fill="#191818"/>
    <path id="Path_10187" data-name="Path 10187" d="M827.05,547.11a.808.808,0,0,0,.135-.464A1.193,1.193,0,0,1,827.05,547.11Z" transform="translate(169.272 -147.538)" fill="#191818"/>
    <path id="Path_10188" data-name="Path 10188" d="M807.814,571.725c.079-.033.044-.064-.054-.087C807.779,571.694,807.8,571.732,807.814,571.725Z" transform="translate(175.842 -156.051)" fill="#191818"/>
    <path id="Path_10189" data-name="Path 10189" d="M810.505,579a.359.359,0,0,0,.232-.126A.708.708,0,0,1,810.505,579Z" transform="translate(174.907 -158.515)" fill="#191818"/>
    <path id="Path_10190" data-name="Path 10190" d="M809.621,574.9a.176.176,0,0,1,.092.066C809.672,574.907,809.643,574.894,809.621,574.9Z" transform="translate(175.208 -157.162)" fill="#191818"/>
    <path id="Path_10191" data-name="Path 10191" d="M850.812,509.828c-.181.264-.228.442,0,0Z" transform="translate(161.23 -134.997)" fill="#191818"/>
    <path id="Path_10192" data-name="Path 10192" d="M865.713,533.181a1.559,1.559,0,0,1-.657.225C865.554,533.352,865.725,533.261,865.713,533.181Z" transform="translate(156.326 -142.951)" fill="#191818"/>
    <path id="Path_10193" data-name="Path 10193" d="M895.4,489.9a.792.792,0,0,0,.137-.516C895.482,489.568,895.438,489.737,895.4,489.9Z" transform="translate(145.989 -128.033)" fill="#191818"/>
    <path id="Path_10194" data-name="Path 10194" d="M897.955,474.183a1.425,1.425,0,0,0-.059-1.094A2.729,2.729,0,0,1,897.955,474.183Z" transform="translate(145.139 -122.482)" fill="#191818"/>
    <path id="Path_10195" data-name="Path 10195" d="M896.129,487.336c-2.289-1.308-.835.112-.78,1.171C895.551,487.869,895.878,487.187,896.129,487.336Z" transform="translate(146.179 -127.156)" fill="#191818"/>
    <path id="Path_10196" data-name="Path 10196" d="M874.583,531.7a2.437,2.437,0,0,1,.417.566C874.794,531.761,874.665,531.62,874.583,531.7Z" transform="translate(153.081 -142.439)" fill="#191818"/>
    <path id="Path_10197" data-name="Path 10197" d="M890.687,514.59s0,.052-.009.13C890.729,514.7,890.739,514.659,890.687,514.59Z" transform="translate(147.598 -136.619)" fill="#191818"/>
    <path id="Path_10198" data-name="Path 10198" d="M895.656,490.421a.963.963,0,0,1-.3.335C895.4,490.806,895.487,490.722,895.656,490.421Z" transform="translate(146.005 -128.386)" fill="#191818"/>
    <path id="Path_10199" data-name="Path 10199" d="M812.046,587.179c-.446.5-.331.524.005.377C812.045,587.337,812.04,587.187,812.046,587.179Z" transform="translate(174.482 -161.345)" fill="#191818"/>
    <path id="Path_10200" data-name="Path 10200" d="M715.167,551.107a.468.468,0,0,1-.036.074C715.172,551.168,715.175,551.143,715.167,551.107Z" transform="translate(207.394 -149.058)" fill="#191818"/>
    <path id="Path_10201" data-name="Path 10201" d="M665.259,604.573c0,.035,0,.07-.011.078C665.284,604.612,665.283,604.586,665.259,604.573Z" transform="translate(224.386 -167.27)" fill="#191818"/>
    <path id="Path_10202" data-name="Path 10202" d="M670.68,594.795a1.91,1.91,0,0,1-.13.175C670.568,594.964,670.6,594.925,670.68,594.795Z" transform="translate(222.58 -163.939)" fill="#191818"/>
    <path id="Path_10203" data-name="Path 10203" d="M664.9,600.956a.484.484,0,0,1,.164.111C664.984,600.959,664.936,600.926,664.9,600.956Z" transform="translate(224.504 -166.034)" fill="#191818"/>
    <path id="Path_10204" data-name="Path 10204" d="M674.5,584.059a.285.285,0,0,1-.164-.049C674.321,584.043,674.364,584.057,674.5,584.059Z" transform="translate(221.291 -160.265)" fill="#191818"/>
    <path id="Path_10205" data-name="Path 10205" d="M712.617,573.254c.118-.088.071-.165-.033-.232C712.54,573.209,712.538,573.313,712.617,573.254Z" transform="translate(208.273 -156.522)" fill="#191818"/>
    <path id="Path_10206" data-name="Path 10206" d="M660.433,619.9a1.717,1.717,0,0,1-.336.435C660.394,620.054,660.473,619.926,660.433,619.9Z" transform="translate(226.141 -172.491)" fill="#191818"/>
    <path id="Path_10207" data-name="Path 10207" d="M640.013,641.654a2.9,2.9,0,0,1,.54-.67C640.519,640.787,640.372,640.9,640.013,641.654Z" transform="translate(232.982 -179.643)" fill="#191818"/>
    <path id="Path_10208" data-name="Path 10208" d="M649.854,634.494c0-.079-.034-.1-.086-.073C649.818,634.445,649.854,634.468,649.854,634.494Z" transform="translate(229.659 -177.433)" fill="#191818"/>
    <path id="Path_10209" data-name="Path 10209" d="M715.8,549.786c.265-1.059.084-.7-.129-.176C715.722,549.845,715.765,549.947,715.8,549.786Z" transform="translate(207.209 -148.375)" fill="#191818"/>
    <path id="Path_10210" data-name="Path 10210" d="M764.612,573.078a.847.847,0,0,0-.648.208A3.337,3.337,0,0,0,764.612,573.078Z" transform="translate(190.761 -156.542)" fill="#191818"/>
    <path id="Path_10211" data-name="Path 10211" d="M815.456,601.539c.271-.436.2-.595-.034-.583C815.6,601.006,815.687,601.167,815.456,601.539Z" transform="translate(173.232 -166.037)" fill="#191818"/>
    <path id="Path_10212" data-name="Path 10212" d="M757.177,587.852c-.191.271-.16.415.01.483A.54.54,0,0,1,757.177,587.852Z" transform="translate(193.117 -161.574)" fill="#191818"/>
    <path id="Path_10213" data-name="Path 10213" d="M761.992,574.866a.342.342,0,0,1,.2.037C762.308,574.823,762.286,574.793,761.992,574.866Z" transform="translate(191.432 -157.136)" fill="#191818"/>
    <path id="Path_10214" data-name="Path 10214" d="M629.315,608.514a.632.632,0,0,1,.162-.162C629.453,608.34,629.394,608.385,629.315,608.514Z" transform="translate(236.626 -168.557)" fill="#191818"/>
    <path id="Path_10215" data-name="Path 10215" d="M740.612,558.764c.158.057.185-.071.142-.261C740.705,558.663,740.662,558.78,740.612,558.764Z" transform="translate(198.715 -151.577)" fill="#191818"/>
    <path id="Path_10216" data-name="Path 10216" d="M742.524,560.993c-.218.241-.052.343,0,0Z" transform="translate(198.101 -152.425)" fill="#191818"/>
    <path id="Path_10217" data-name="Path 10217" d="M600.092,576.135c-.006-.019-.081.33-.2.839C600,577.225,600.078,577.061,600.092,576.135Z" transform="translate(246.647 -157.583)" fill="#191818"/>
    <path id="Path_10218" data-name="Path 10218" d="M488.906,620.928c.04-.03,0-.157-.095-.329C488.812,620.844,488.837,620.979,488.906,620.928Z" transform="translate(284.486 -172.729)" fill="#191818"/>
    <path id="Path_10219" data-name="Path 10219" d="M497.209,621.342c-.241-.034-.525-.327-.843-.748C496.077,620.9,496.158,621.205,497.209,621.342Z" transform="translate(281.962 -172.727)" fill="#191818"/>
    <path id="Path_10220" data-name="Path 10220" d="M504.707,608.228c-.095-.2-.193-.369-.286-.522C505.152,609.323,505.713,610.33,504.707,608.228Z" transform="translate(279.168 -168.337)" fill="#191818"/>
    <path id="Path_10221" data-name="Path 10221" d="M403.844,596.181a.634.634,0,0,0-.131-.193C403.725,596.348,403.757,596.494,403.844,596.181Z" transform="translate(313.473 -164.345)" fill="#191818"/>
    <path id="Path_10222" data-name="Path 10222" d="M468.257,617.785c-1.2-.034-.685.2,0,0Z" transform="translate(291.732 -171.769)" fill="#191818"/>
    <path id="Path_10223" data-name="Path 10223" d="M519.576,612.86c.007.009.022-.041.059-.115C519.578,612.781,519.556,612.813,519.576,612.86Z" transform="translate(274.009 -170.053)" fill="#191818"/>
    <path id="Path_10224" data-name="Path 10224" d="M521.968,612.632c.446,0,.327-.024.015-.042C521.935,612.61,521.924,612.634,521.968,612.632Z" transform="translate(273.201 -170)" fill="#191818"/>
    <path id="Path_10225" data-name="Path 10225" d="M603.256,578.007a.425.425,0,0,0,.108.234A.726.726,0,0,1,603.256,578.007Z" transform="translate(245.502 -158.22)" fill="#191818"/>
    <path id="Path_10226" data-name="Path 10226" d="M635.212,593.942c-.239-1.242-.216-.4,0,0Z" transform="translate(234.675 -163.426)" fill="#191818"/>
    <path id="Path_10227" data-name="Path 10227" d="M616.4,575.559a3.762,3.762,0,0,0,.154.661C617.312,575.344,616.958,575.3,616.4,575.559Z" transform="translate(241.026 -157.34)" fill="#191818"/>
    <path id="Path_10228" data-name="Path 10228" d="M535.113,617.631c-.425.09-.329.278,0,0Z" transform="translate(268.81 -171.718)" fill="#191818"/>
    <path id="Path_10229" data-name="Path 10229" d="M631.25,598.791a.222.222,0,0,0-.02.076C631.257,598.792,631.269,598.768,631.25,598.791Z" transform="translate(235.974 -165.297)" fill="#191818"/>
    <path id="Path_10230" data-name="Path 10230" d="M560.348,611.309s-.044-.129-.121-.333C560.025,610.984,560,611.068,560.348,611.309Z" transform="translate(260.209 -169.451)" fill="#191818"/>
    <g id="Group_4868" data-name="Group 4868" transform="translate(691 122.92)">
      <g id="Group_4837" data-name="Group 4837" transform="translate(0 43.02)">
        <path id="Path_10231" data-name="Path 10231" d="M774.522,203.188V439a10.167,10.167,0,0,1-10.163,10.163H375.335A10.158,10.158,0,0,1,365.172,439V203.188a10.158,10.158,0,0,1,10.163-10.163H764.359A10.167,10.167,0,0,1,774.522,203.188Z" transform="translate(-364.399 -193.025)" fill="#2b8d7b"/>
        <path id="Path_10232" data-name="Path 10232" d="M695.7,616.767H612.41l9.047-35.57,2.05-8.067,3.981-15.621h53.136l3.981,15.621,2.051,8.067Z" transform="translate(-448.616 -317.179)" fill="#2b8d7b"/>
        <path id="Path_10233" data-name="Path 10233" d="M691.33,589.267h-65.2l2.05-8.067h61.1Z" transform="translate(-453.289 -325.249)" fill="#26715f"/>
        <path id="Path_10234" data-name="Path 10234" d="M707.847,655.675H560.622a6.4,6.4,0,0,1-6.4-6.4h0a6.4,6.4,0,0,1,6.4-6.4H707.847a6.4,6.4,0,0,1,6.4,6.4h0A6.4,6.4,0,0,1,707.847,655.675Z" transform="translate(-428.797 -346.259)" fill="#26715f"/>
        <rect id="Rectangle_1228" data-name="Rectangle 1228" width="410.114" height="178.931" transform="translate(0 36.404)" fill="#73c6bf" opacity="0.2"/>
        <path id="Path_10235" data-name="Path 10235" d="M670.663,554.1h0a9.465,9.465,0,0,1-9.438-9.437h0a9.465,9.465,0,0,1,9.438-9.438h0a9.465,9.465,0,0,1,9.438,9.438h0A9.465,9.465,0,0,1,670.663,554.1Z" transform="translate(-465.243 -309.589)" fill="#26715f"/>
      </g>
      <g id="Group_4838" data-name="Group 4838" transform="translate(263.96 166.855)">
        <rect id="Rectangle_1229" data-name="Rectangle 1229" width="137.001" height="24.246" rx="2.791" transform="translate(0 28.746)" fill="#fff" opacity="0.3"/>
        <rect id="Rectangle_1230" data-name="Rectangle 1230" width="137.001" height="24.246" rx="2.791" transform="translate(0 58.049)" fill="#fff" opacity="0.2"/>
        <rect id="Rectangle_1231" data-name="Rectangle 1231" width="137.001" height="24.246" rx="2.791" fill="#fff" opacity="0.2"/>
      </g>
      <g id="Group_4839" data-name="Group 4839" transform="translate(263.891 86.288)">
        <rect id="Rectangle_1232" data-name="Rectangle 1232" width="136.958" height="75.789" rx="3.282" fill="#fff" opacity="0.2"/>
        <rect id="Rectangle_1233" data-name="Rectangle 1233" width="125.51" height="7.06" rx="3.53" transform="translate(5.172 10.982)" fill="#fff" opacity="0.3"/>
        <rect id="Rectangle_1234" data-name="Rectangle 1234" width="125.51" height="7.06" rx="3.53" transform="translate(5.172 25.887)" fill="#fff" opacity="0.3"/>
        <rect id="Rectangle_1235" data-name="Rectangle 1235" width="113.337" height="7.06" rx="3.53" transform="translate(5.172 40.791)" fill="#fff" opacity="0.3"/>
        <rect id="Rectangle_1236" data-name="Rectangle 1236" width="99.065" height="7.06" rx="3.53" transform="translate(5.172 55.695)" fill="#fff" opacity="0.3"/>
      </g>
      <rect id="Rectangle_1237" data-name="Rectangle 1237" width="246.78" height="162.379" rx="3.282" transform="translate(10.437 86.484)" fill="#fff" opacity="0.2"/>
      <g id="Group_4840" data-name="Group 4840" transform="translate(16.553 97.074)">
        <rect id="Rectangle_1238" data-name="Rectangle 1238" width="234.547" height="7.06" rx="3.53" fill="#fff" opacity="0.3"/>
        <rect id="Rectangle_1239" data-name="Rectangle 1239" width="211.799" height="7.06" rx="3.53" transform="translate(0 14.904)" fill="#fff" opacity="0.3"/>
        <rect id="Rectangle_1240" data-name="Rectangle 1240" width="185.128" height="7.06" rx="3.53" transform="translate(0 29.809)" fill="#fff" opacity="0.3"/>
        <rect id="Rectangle_1241" data-name="Rectangle 1241" width="234.547" height="7.06" rx="3.53" transform="translate(0 44.713)" fill="#fff" opacity="0.3"/>
        <rect id="Rectangle_1242" data-name="Rectangle 1242" width="211.799" height="7.06" rx="3.53" transform="translate(0 59.617)" fill="#fff" opacity="0.3"/>
        <rect id="Rectangle_1243" data-name="Rectangle 1243" width="185.128" height="7.06" rx="3.53" transform="translate(0 74.522)" fill="#fff" opacity="0.3"/>
        <rect id="Rectangle_1244" data-name="Rectangle 1244" width="234.547" height="7.06" rx="3.53" transform="translate(0 89.426)" fill="#fff" opacity="0.3"/>
        <rect id="Rectangle_1245" data-name="Rectangle 1245" width="211.799" height="7.06" rx="3.53" transform="translate(0 104.33)" fill="#fff" opacity="0.3"/>
        <rect id="Rectangle_1246" data-name="Rectangle 1246" width="211.799" height="7.06" rx="3.53" transform="translate(0 134.139)" fill="#fff" opacity="0.3"/>
        <rect id="Rectangle_1247" data-name="Rectangle 1247" width="185.128" height="7.06" rx="3.53" transform="translate(0 119.235)" fill="#fff" opacity="0.3"/>
      </g>
      <g id="Group_4841" data-name="Group 4841" transform="translate(131.633 90.608)">
        <rect id="Rectangle_1248" data-name="Rectangle 1248" width="122.952" height="58.879" rx="2.793" transform="translate(2.711 2.707)" fill="#eab54e" opacity="0.21"/>
        <path id="Path_10236" data-name="Path 10236" d="M686.591,268.972V320.3a3.778,3.778,0,0,1-3.776,3.777H567.425a3.781,3.781,0,0,1-3.79-3.777V268.972a3.781,3.781,0,0,1,3.79-3.776H682.814A3.778,3.778,0,0,1,686.591,268.972Z" transform="translate(-563.635 -265.196)" fill="#fff"/>
        <path id="Path_10237" data-name="Path 10237" d="M686.591,268.972v7.39H563.635v-7.39a3.781,3.781,0,0,1,3.79-3.776H682.814A3.778,3.778,0,0,1,686.591,268.972Z" transform="translate(-563.635 -265.196)" fill="#eab54e"/>
        <path id="Path_10238" data-name="Path 10238" d="M684.138,291.1v35.422H570.662V315.207c4.578-6.28,10.836-10.454,25.154-1.994,13.757,8.129,13.718-18.048,29.44-16.694,15.707,1.354,19.9,24.819,32.095,6.885C669.559,285.469,684.138,291.1,684.138,291.1Z" transform="translate(-566.029 -273.734)" fill="#eab54e"/>
        <rect id="Rectangle_1249" data-name="Rectangle 1249" width="22.356" height="1.523" transform="translate(4.633 17.145)" fill="#c8c8c7" opacity="0.5"/>
        <rect id="Rectangle_1250" data-name="Rectangle 1250" width="37.786" height="1.523" transform="translate(4.633 19.852)" fill="#c8c8c7" opacity="0.5"/>
        <rect id="Rectangle_1251" data-name="Rectangle 1251" width="28.368" height="1.523" transform="translate(4.633 22.559)" fill="#c8c8c7" opacity="0.5"/>
        <rect id="Rectangle_1252" data-name="Rectangle 1252" width="34.233" height="1.523" transform="translate(4.633 25.266)" fill="#c8c8c7" opacity="0.5"/>
        <rect id="Rectangle_1253" data-name="Rectangle 1253" width="22.356" height="1.523" transform="translate(4.633 27.973)" fill="#c8c8c7" opacity="0.5"/>
      </g>
      <g id="Group_4842" data-name="Group 4842" transform="translate(358.08 131.786)">
        <path id="Path_10239" data-name="Path 10239" d="M910.318,330.127h65.427A3.256,3.256,0,0,1,979,333.382v20.659a3.256,3.256,0,0,1-3.255,3.255H921.5c-.272,2.183-1.806,6.495-9.688,6.495,0,0,3.243-.593,3.92-6.495h-5.411a3.256,3.256,0,0,1-3.255-3.255V333.382A3.256,3.256,0,0,1,910.318,330.127Z" transform="translate(-907.063 -328.491)" fill="#f28f48"/>
        <path id="Path_10240" data-name="Path 10240" d="M912.155,327.646h65.427a3.256,3.256,0,0,1,3.255,3.256V351.56a3.256,3.256,0,0,1-3.255,3.255H923.335c-.272,2.183-1.806,6.495-9.688,6.495,0,0,3.243-.593,3.92-6.495h-5.411a3.255,3.255,0,0,1-3.255-3.255V330.9A3.255,3.255,0,0,1,912.155,327.646Z" transform="translate(-907.689 -327.646)" fill="#e6f6fe"/>
        <rect id="Rectangle_1254" data-name="Rectangle 1254" width="67.117" height="2.805" rx="0.551" transform="translate(70.991 5.342) rotate(-180)" fill="#c8c8c7" opacity="0.5"/>
        <rect id="Rectangle_1255" data-name="Rectangle 1255" width="67.117" height="2.805" rx="0.551" transform="translate(70.991 10.063) rotate(-180)" fill="#c8c8c7" opacity="0.5"/>
        <rect id="Rectangle_1256" data-name="Rectangle 1256" width="67.117" height="2.805" rx="0.551" transform="translate(70.991 14.785) rotate(-180)" fill="#c8c8c7" opacity="0.5"/>
        <rect id="Rectangle_1257" data-name="Rectangle 1257" width="67.117" height="2.805" rx="0.551" transform="translate(70.991 19.507) rotate(-180)" fill="#c8c8c7" opacity="0.5"/>
        <rect id="Rectangle_1258" data-name="Rectangle 1258" width="67.117" height="2.805" rx="0.551" transform="translate(70.991 24.229) rotate(-180)" fill="#c8c8c7" opacity="0.5"/>
      </g>
      <g id="Group_4850" data-name="Group 4850" transform="translate(271.853 153.752)">
        <g id="Group_4849" data-name="Group 4849">
          <g id="Group_4848" data-name="Group 4848">
            <g id="Group_4843" data-name="Group 4843" transform="translate(56.176 71.793)">
              <path id="Path_10241" data-name="Path 10241" d="M862.775,481.678,877.5,469.842s3.454,8.327.713,17.058c-1.348,4.293.085,7.345-.642,9.38-.679,1.9-5.673,28.923-5.4,30.914s2.478,7.6,3.229,13.452c.9,7.043.176,29.906.862,35.989s-4.938,6.975-5.2,4.916c-2.213-17.595-8.511-45.081-9.275-53.869S861.812,502.854,862.775,481.678Z" transform="translate(-861.489 -469.842)" fill="#ffc8a4"/>
              <path id="Path_10242" data-name="Path 10242" d="M862.321,513.979l5.934,14.556a32.285,32.285,0,0,0-4.741,15c-.171,2.777.007,5.568-.136,8.346a2.832,2.832,0,0,1-.1.6c-.744-4.141-1.29-7.552-1.482-9.771-.539-6.209-.308-16.052.213-28.754A2.713,2.713,0,0,1,862.321,513.979Z" transform="translate(-861.489 -484.869)" fill="#dcac8f"/>
              <path id="Path_10243" data-name="Path 10243" d="M871,630.073s1.193,6.393.812,7.2a11.181,11.181,0,0,1-3.09,3.948c-1.419.861-4.54,1.849-4.8,2.23a.962.962,0,0,0,.147,1.3,6.413,6.413,0,0,0,4.386,1.224c4.213-.593,4.692-2.438,7.144-2.677.423-.042,1.19.6,2.372.032a2.775,2.775,0,0,0,1.7-2.653,12.023,12.023,0,0,0-1.75-4.537c-.67-1.313-1.021-7.255-1.021-7.255" transform="translate(-862.255 -524.016)" fill="#ffc8a4"/>
              <path id="Path_10244" data-name="Path 10244" d="M863.607,649.334c-.293-.531-.352-1.325-.063-1.511a24.4,24.4,0,0,1,2.65-1.51c.823-.356,2.122-.655,1.661-.42s.355,1.173,1.118,1.145c2.634-.1,4.616-1.8,6.123-2.139,2.176-.489,3.143-3.02,3.247-3.433a10.1,10.1,0,0,1,1.482,3,5.177,5.177,0,0,1,.267,2.269,5.259,5.259,0,0,0-.291,2.15,4.133,4.133,0,0,1-1.568.523,6.151,6.151,0,0,1-1.675-.015l-.154-1.363a6.167,6.167,0,0,0-1.341.1,7.258,7.258,0,0,0-2.067.905c-.309.351-.565,1-.967,1.19a8.393,8.393,0,0,1-3.471.778C865.734,651.1,864.109,650.241,863.607,649.334Z" transform="translate(-862.124 -528.302)" fill="#eab54e"/>
            </g>
            <g id="Group_4844" data-name="Group 4844" transform="translate(35.744 69.295)">
              <path id="Path_10245" data-name="Path 10245" d="M831.172,588.23c.313-.34,3.663-.851,5.239-1.49a9.025,9.025,0,0,0,3.694-3.448c.361-.849.324-5.167.3-6.98-.187-12.49-2.185-43.027-2.445-50.337-.452-12.707,1.329-25.8,6.422-46.141l18.338-13.781s5,9.525,3.2,18.566c-1.043,5.245-5.41,6.01-6.169,8.044s-12.1,34.855-12.1,34.855a61.992,61.992,0,0,1,2.115,14.942c.039,6.66-3.184,26.713-3.821,34.359-.081,1.495-.375,5.071.054,6.215.526,1.4,1.885,3.056,1.8,4.816a2.709,2.709,0,0,1-2.091,2.375c-1.294.387-2.005-.366-2.448-.388-2.564-.132-3.293,1.625-7.722,1.579a7.007,7.007,0,0,1-4.378-1.873A.935.935,0,0,1,831.172,588.23Z" transform="translate(-830.635 -466.054)" fill="#ffc8a4"/>
              <path id="Path_10246" data-name="Path 10246" d="M830.662,650.89c-.243-.567-.214-1.363.107-1.509a25.4,25.4,0,0,1,2.916-1.136c.892-.239,2.271-.359,1.767-.189s.234,1.213,1.027,1.289c2.739.263,4.984-1.155,6.583-1.284,2.308-.187,3.149-2.566,3.3-2.961a10.581,10.581,0,0,1,1.642,3.179,5,5,0,0,1,.018,2.289,4.993,4.993,0,0,0-.547,2.094,4.364,4.364,0,0,1-1.683.3,6.7,6.7,0,0,1-1.732-.245l0-1.373a6.7,6.7,0,0,0-1.4-.085,4.647,4.647,0,0,0-2.254.8c-.375.285-.77.762-1.213.875a9.268,9.268,0,0,1-3.594.282C832.664,652.934,831.077,651.859,830.662,650.89Z" transform="translate(-830.501 -527.042)" fill="#eab54e"/>
            </g>
            <g id="Group_4847" data-name="Group 4847" transform="translate(0 20.938)">
              <g id="Group_4846" data-name="Group 4846">
                <g id="Group_4845" data-name="Group 4845">
                  <path id="Path_10247" data-name="Path 10247" d="M783.3,402.359a6.232,6.232,0,0,1-4.655-2,2.074,2.074,0,0,1-.348-1.321c-.448-.528-1.222-2.4.121-2.006-1.383-.926-1.735-2.333-2.109-3.907-.126-.528.486-.686,1.125.36a5.95,5.95,0,0,0,4.013,2.679c.112-.289-.275-.383-.564-1-.32-.68-.111-1.153.194-1.267.23-.085.752.691.93.842l2.03,1.724a4.244,4.244,0,0,1,1.472,2c.057.154.411,1.714-.258,1.5" transform="translate(-776.292 -392.715)" fill="#ffc8a4"/>
                </g>
                <path id="Path_10248" data-name="Path 10248" d="M831,419.928c-6.83-.079-19.064-1.248-20.745-1.578-6.625-1.3-23.551-12.9-23.551-12.9a3.223,3.223,0,0,1,2.258-3.458c4.293,3.484,19.663,7.9,21.71,9.142,1.327.808,22.817-.073,22.817-.073" transform="translate(-779.833 -395.873)" fill="#ffc8a4"/>
              </g>
            </g>
            <path id="Path_10249" data-name="Path 10249" d="M886.752,416.466a87.206,87.206,0,0,1,3.852,14.012l-7.023,1.1v-9.946" transform="translate(-812.837 -379.868)" fill="#eab54e"/>
            <rect id="Rectangle_1259" data-name="Rectangle 1259" width="59.176" height="32.898" rx="0.802" transform="translate(93.662 84.581) rotate(-170.357)" fill="#2b8d7b"/>
            <path id="Path_10250" data-name="Path 10250" d="M834.02,456.954l53.01,9.227a.974.974,0,0,0,1.124-.8l4.478-26.354a.974.974,0,0,0-.8-1.123l-53.01-9.228a.974.974,0,0,0-1.123.8l-4.478,26.354A.974.974,0,0,0,834.02,456.954Z" transform="translate(-795.679 -384.023)" fill="#26715f"/>
            <path id="Path_10251" data-name="Path 10251" d="M910.263,469.248l.885.148a.838.838,0,0,0,.967-.686l3.857-22.7a.839.839,0,0,0-.686-.968l-.885-.148a.839.839,0,0,0-.968.686l-3.857,22.7A.838.838,0,0,0,910.263,469.248Z" transform="translate(-821.689 -389.547)" fill="#fff" opacity="0.3"/>
            <path id="Path_10252" data-name="Path 10252" d="M903.043,467.865l.886.148a.839.839,0,0,0,.967-.686l3.857-22.7a.839.839,0,0,0-.686-.967l-.886-.148a.838.838,0,0,0-.967.686l-3.857,22.7A.839.839,0,0,0,903.043,467.865Z" transform="translate(-819.229 -389.076)" fill="#fff" opacity="0.3"/>
            <path id="Path_10253" data-name="Path 10253" d="M895.824,466.482l.885.148a.838.838,0,0,0,.967-.686l3.857-22.7a.839.839,0,0,0-.686-.967l-.886-.148a.839.839,0,0,0-.968.686l-3.857,22.7A.838.838,0,0,0,895.824,466.482Z" transform="translate(-816.77 -388.605)" fill="#fff" opacity="0.3"/>
            <path id="Path_10254" data-name="Path 10254" d="M888.6,465.1l.886.148a.839.839,0,0,0,.967-.686l3.857-22.7a.839.839,0,0,0-.686-.967l-.886-.148a.839.839,0,0,0-.967.686l-3.857,22.7A.839.839,0,0,0,888.6,465.1Z" transform="translate(-814.311 -388.134)" fill="#fff" opacity="0.3"/>
            <path id="Path_10255" data-name="Path 10255" d="M881.385,463.716l.886.148a.839.839,0,0,0,.967-.686l3.857-22.7a.839.839,0,0,0-.686-.967l-.886-.148a.84.84,0,0,0-.968.686l-3.857,22.7A.839.839,0,0,0,881.385,463.716Z" transform="translate(-811.852 -387.663)" fill="#fff" opacity="0.3"/>
            <path id="Path_10256" data-name="Path 10256" d="M874.165,462.334l.886.148a.839.839,0,0,0,.967-.686l3.857-22.7a.84.84,0,0,0-.686-.968l-.886-.148a.838.838,0,0,0-.967.686l-3.857,22.7A.839.839,0,0,0,874.165,462.334Z" transform="translate(-809.393 -387.192)" fill="#2d338a"/>
            <path id="Path_10257" data-name="Path 10257" d="M866.946,460.951l.886.148a.838.838,0,0,0,.967-.686l3.857-22.7a.838.838,0,0,0-.686-.967l-.885-.148a.839.839,0,0,0-.968.686l-3.857,22.7A.839.839,0,0,0,866.946,460.951Z" transform="translate(-806.933 -386.721)" fill="#2d338a"/>
            <path id="Path_10258" data-name="Path 10258" d="M859.726,459.568l.886.148a.839.839,0,0,0,.967-.686l3.857-22.7a.839.839,0,0,0-.686-.967l-.886-.148a.838.838,0,0,0-.967.686l-3.857,22.7A.838.838,0,0,0,859.726,459.568Z" transform="translate(-804.474 -386.25)" fill="#2d338a"/>
            <path id="Path_10259" data-name="Path 10259" d="M852.507,458.185l.886.148a.838.838,0,0,0,.967-.686l3.857-22.7a.839.839,0,0,0-.686-.967l-.886-.148a.838.838,0,0,0-.967.686l-3.857,22.7A.84.84,0,0,0,852.507,458.185Z" transform="translate(-802.015 -385.778)" fill="#2d338a"/>
            <path id="Path_10260" data-name="Path 10260" d="M845.287,456.8l.886.148a.84.84,0,0,0,.968-.686l3.857-22.7a.84.84,0,0,0-.686-.967l-.886-.148a.839.839,0,0,0-.967.686l-3.857,22.7A.839.839,0,0,0,845.287,456.8Z" transform="translate(-799.556 -385.307)" fill="#fff" opacity="0.3"/>
            <path id="Path_10261" data-name="Path 10261" d="M838.067,455.42l.886.148a.839.839,0,0,0,.967-.686l3.857-22.7a.839.839,0,0,0-.686-.968l-.886-.148a.839.839,0,0,0-.967.686l-3.857,22.7A.84.84,0,0,0,838.067,455.42Z" transform="translate(-797.096 -384.837)" fill="#fff" opacity="0.3"/>
            <path id="Path_10262" data-name="Path 10262" d="M867.5,465.573c5.062,4.368,7,11.616,5.986,19.35-.27,2.047-2.337,7.673-2.656,9.719-.725,4.655-2.216,11.507-2.129,16.816-6.793,4.927-20.589,4.5-26.833.818-.694-6.416-.564-11.516-.073-20.41.742-13.416,6.726-25.924,6.847-27.042" transform="translate(-798.466 -396.34)" fill="#1d1c1c"/>
            <path id="Path_10263" data-name="Path 10263" d="M851.182,430.117a63.52,63.52,0,0,1-.334,10.17,20.232,20.232,0,0,0-.334,2.683,1.528,1.528,0,0,0,.531,1.046,7.412,7.412,0,0,0,3.683,1.425c5.032.909,12.99.3,15.233.742,2.107.425,4.275-.288,4.275-1.576,0-.894-.819-1.394-.895-3.153-.167-3.85-.046-12.611.667-16.521a65.123,65.123,0,0,0,.864-22.236L859.5,398.332c-1.182.2-.667,3.8-1.849,4-.864.136-5.729,4.759-7.109,10.216a21.24,21.24,0,0,0-1.773,3.547,6.251,6.251,0,0,0,.015,4.85A34.317,34.317,0,0,1,851.182,430.117Z" transform="translate(-800.816 -373.691)" fill="#eab54e"/>
            <path id="Path_10264" data-name="Path 10264" d="M851.182,439.294a63.52,63.52,0,0,1-.334,10.17,20.235,20.235,0,0,0-.334,2.683,1.528,1.528,0,0,0,.531,1.046v-.015c-.455-1.015.636-6.063,1.106-8.9a32.059,32.059,0,0,0-.667-11.807c-1-3.471-1.379-5.123-1.379-5.123s-.789-1.182-1.334-2.076a6.251,6.251,0,0,0,.015,4.85A34.317,34.317,0,0,1,851.182,439.294Z" transform="translate(-800.816 -382.868)" fill="#e4a436"/>
            <path id="Path_10265" data-name="Path 10265" d="M848.017,409.758a6.73,6.73,0,0,0-4.53.777c-2.964,1.75-9.15,2.781-9.15,2.781s-.475,7.067.287,9.78c0,0,2.055-.324,8.148.338,6.3.683,14.707,4.856,14.707,4.856" transform="translate(-796.014 -377.546)" fill="#eab54e"/>
            <path id="Path_10266" data-name="Path 10266" d="M853.544,370.243c1.506-2.884,3.895-6.964,9.606-6.4s10.6,4.167,10.534,8.447-2.968,9.435-4.084,12.4-.644,7.363-.644,7.363l-12.661-.456s.329-3.868-.443-5.331a20.292,20.292,0,0,0-4.1-3.94c-.86-.694-1.554-2.143-1.039-4.4.769-3.379,1.045-4.864,1.538-5.855C852.61,371.354,853.216,370.871,853.544,370.243Z" transform="translate(-801.584 -361.925)" fill="#ffc8a4"/>
            <path id="Path_10267" data-name="Path 10267" d="M854.811,392.33c.767-.909,1.945-1.363,2.623-2.341a5.287,5.287,0,0,0,.9-3.427,6.371,6.371,0,0,0-.758-1.939c-1.377-2.776-1.464-4.571.5-6.815a7.814,7.814,0,0,0,1.607-2.425c.3-.832.528-1.739-.279-2.244a1.079,1.079,0,0,0-1.459.015c-.313.282-1.215,2.932-1.374,1.113-.152-1.742-.812-2.181.715-5.306.181-.371,1.027-1.827.9-2.159-1.963.374-2.634.891-3.437,2.144-.879-.983,1.685-8.177,9.584-7.98a13.534,13.534,0,0,1,5.832,1.081c1.776.9,3.753,2.49,3.633,4.085,2.8.539,3.191,3.392,3.408,4.454a14.044,14.044,0,0,1,.166,4.624c-.3,2.27-1.141,4.437-1.589,6.683a9.787,9.787,0,0,0,.257,5.594c.694,1.673,2.353,2.584,3.195,4.215a7.347,7.347,0,0,1-.094,6.712c-1.09,2.066-2.455,3.424-2.1,5.962a8.114,8.114,0,0,1-2.673,7.744,8.357,8.357,0,0,1-6.036,1.635,13.964,13.964,0,0,1-4.949-1.562c-2.95-1.6-5.581-2.637-7.489-6.894-1.08-2.411.5-2.746-.461-5.217-.539-1.385-1.693-2.533-1.841-4.07a5.162,5.162,0,0,1,1.123-3.574C854.751,392.4,854.78,392.365,854.811,392.33Z" transform="translate(-802.619 -360.961)" fill="#003c7f"/>
          </g>
        </g>
      </g>
      <g id="Group_4863" data-name="Group 4863" transform="translate(51.55 134.139)">
        <g id="Group_4862" data-name="Group 4862">
          <path id="Path_10268" data-name="Path 10268" d="M563.874,333.422c-.061-.524-.734-.265-.905.169a2.878,2.878,0,0,0-.092.374c.055-.864.089-1.569.07-1.741-.057-.5-.681-.307-.891.084.011-.347.014-.61,0-.721-.062-.638-.741-.368-.911.16a7.684,7.684,0,0,0-.148.884,4.278,4.278,0,0,0,0-.484c-.061-.524-.663-.385-.834.049a6.668,6.668,0,0,0-.174,1.018c-.077.527-.222,1.093-.289,1.623-.061.482-.623,2.748-1.747,2.988-1.724.369-.631-2.629-1.846-3.3-.381-.211-.786,2.114-.815,3.429a14.629,14.629,0,0,0,.088,2.747,18.093,18.093,0,0,1,.475,2.339,9.7,9.7,0,0,1-.979,2.306l4.353.991a17.585,17.585,0,0,1,1.555-2.949,9.941,9.941,0,0,0,2.635-4.662,19.332,19.332,0,0,0,.5-3.523S563.894,333.593,563.874,333.422Z" transform="translate(-480.569 -331.215)" fill="#ffc8a4"/>
          <path id="Path_10269" data-name="Path 10269" d="M506.311,375.785s13.8-.122,21.3-8.522c5.98-8.378,11.755-17.646,12.187-18.507,1.176.45,3.7,1.607,3.7,1.607s-7.9,17.674-10.976,21.71S523.4,382.723,510.6,386C504.475,378.969,506.311,375.785,506.311,375.785Z" transform="translate(-463.937 -337.19)" fill="#ffc8a4"/>
          <g id="Group_4856" data-name="Group 4856" transform="translate(0 88.338)">
            <g id="Group_4851" data-name="Group 4851" transform="translate(46.772 112.763)">
              <path id="Path_10270" data-name="Path 10270" d="M517.738,638.492a9.065,9.065,0,0,1,.754,3.028c-.04,1.217-3.9,1.465-4.374.855s-.929-6.17-.929-6.17" transform="translate(-513.14 -636.205)" fill="#ffd9ae"/>
              <path id="Path_10271" data-name="Path 10271" d="M513.117,645.654a25.815,25.815,0,0,0,.489,3.309l4.451-.183.189-.752a7.013,7.013,0,0,0,2.607.637l3.757-.155c2.75-.113,4.3-.528,4.347-1.015.208-2.034-3.074-1.807-3.929-1.772-2.457.1-5.163-.94-5.794-2.162-.458-.887-.281-1.124-.783-.934a1.271,1.271,0,0,0-.735.69,2.258,2.258,0,0,1-2.269,1.362,2.693,2.693,0,0,1-1.534-.664A1.625,1.625,0,0,0,513.117,645.654Z" transform="translate(-513.115 -638.372)" fill="#003c7f"/>
            </g>
            <g id="Group_4852" data-name="Group 4852" transform="translate(0 110.142)">
              <path id="Path_10272" data-name="Path 10272" d="M451.273,634.724a36.318,36.318,0,0,1-1.177,4.407c-.487,1.115-4.164-.083-4.379-.826s1.422-6.075,1.422-6.075" transform="translate(-443.378 -632.23)" fill="#ffd9ae"/>
              <path id="Path_10273" data-name="Path 10273" d="M443.2,641.827c-.42,1.193-1.02,3.5-1.02,3.5l3.456,1.873.641-.527a6.583,6.583,0,0,0,1.852,1.782,14.464,14.464,0,0,0,3.4,1.246c3.112.577,5.478.138,5.7-.3.946-1.813-3.179-2.618-3.987-2.9a5.512,5.512,0,0,1-3.588-4.353c-.1-.994.155-1.149-.381-1.157a1.272,1.272,0,0,0-.939.368,2.258,2.258,0,0,1-2.612.425,2.688,2.688,0,0,1-1.179-1.184A1.624,1.624,0,0,0,443.2,641.827Z" transform="translate(-442.18 -635.081)" fill="#003c7f"/>
            </g>
            <g id="Group_4855" data-name="Group 4855" transform="translate(2.271)">
              <path id="Path_10274" data-name="Path 10274" d="M471.345,490.371s-6.644-14.233,3.472-25.182c0,0,9.167,3.659,16.4,3.849a35.67,35.67,0,0,0,8.549-.558,183.963,183.963,0,0,1,1.691,27.042Z" transform="translate(-453.656 -465.189)" fill="#003c7f"/>
              <path id="Path_10275" data-name="Path 10275" d="M509.673,611.151c.183.006.365,0,.535-.009a30.58,30.58,0,0,0,5.875-.647l-.045-1.082c-.891-16.57,0-43.75.039-52.329a9.521,9.521,0,0,0-.12-1.64c-.91-6.242-7.354-5.154-9.841.719a23.02,23.02,0,0,0-1.356,4.494,40.517,40.517,0,0,0-.746,6.3C503.339,581.318,508.124,600.509,509.673,611.151Z" transform="translate(-465.491 -494.499)" fill="#003c7f"/>
              <path id="Path_10276" data-name="Path 10276" d="M490.051,503.666c.033.168.08.349.126.53,1.745,7.487,7.238,27.694,9.726,34.223v.013a3.989,3.989,0,0,0,2.94,1.968c3.295.752,8.107-.66,8.256-7.181a15.856,15.856,0,0,0-.123-2.345c-.647-5.261-3.009-34.383-3.359-37.189s-1.015-6.89-2.522-7.351C497.574,484.073,487.675,493.189,490.051,503.666Z" transform="translate(-460.635 -472.274)" fill="#003c7f"/>
              <path id="Path_10277" data-name="Path 10277" d="M502.609,557.905a36.429,36.429,0,0,1,.949,11.322c-.56,5.637,2.482-5.042,2.482-5.042l-2-3.725Z" transform="translate(-465.035 -496.771)" fill="#453a4e"/>
              <path id="Path_10278" data-name="Path 10278" d="M505.6,589.42s-1.622-16.893-3.617-28.561a46.554,46.554,0,0,1,1.11-19.955c.262-.924.45-1.429.45-1.429l-2.035-5.034c-2.307-6.563-3-22.072-3-22.072,4.5-11.126,4.628-24.905,4.628-24.905l-4.212.761-7.211,9.41-1.289,7.064c1.414,6.068,5.289,20.486,8.032,29.212h0a36.43,36.43,0,0,1,.949,11.322,5.853,5.853,0,0,0-.036,1.495c-.3,14.177,4.2,32.421,5.694,42.7C505.25,589.434,505.432,589.426,505.6,589.42Z" transform="translate(-460.886 -472.776)" fill="#00335f"/>
              <path id="Path_10279" data-name="Path 10279" d="M461.512,558.208c4.827-4.929,11.9-2.982,8.942,4.482-3.166,7.98-13.056,30.183-18.265,45.933l-.362,1.025a31.756,31.756,0,0,1-6.2-1.731c2.369-10.182,3.678-27.616,8.964-39.944A32.734,32.734,0,0,1,461.512,558.208Z" transform="translate(-445.624 -495.949)" fill="#003c7f"/>
              <g id="Group_4854" data-name="Group 4854" transform="translate(14.305 8.705)">
                <g id="Group_4853" data-name="Group 4853">
                  <path id="Path_10280" data-name="Path 10280" d="M495.274,484.377c.5-11.7-13.719-3.358-20.531.779-2.867,1.741-3.807,5.027-4.075,8.1s-2.742,34.644-3.263,40.408c-1.173,12.994,9.825,5.462,10.744,1.837C480.469,526.345,495,490.753,495.274,484.377Z" transform="translate(-467.318 -478.391)" fill="#003c7f"/>
                </g>
              </g>
              <path id="Path_10281" data-name="Path 10281" d="M465.839,550s-.206,6.2-5.086,14.043c0,0,8.339-4.275,8.728-4.869a31.929,31.929,0,0,0,1.435-7.274C470.726,551.272,465.839,550,465.839,550Z" transform="translate(-450.777 -494.078)" fill="#003c7f"/>
            </g>
          </g>
          <g id="Group_4858" data-name="Group 4858" transform="translate(19.09 9.528)">
            <g id="Group_4857" data-name="Group 4857">
              <path id="Path_10282" data-name="Path 10282" d="M495.9,367c.03.882.063,4.325-1.766,5.148s-3,1.185-2.951,1.468c.021.128.2.735.4,1.329a2.757,2.757,0,0,0,1.058,1.66l.265,4.409-3.288,3.278-1.074,1.068-1.614-1.477-5.261-4.792s2.168-2.671.671-5.533c-.214-.4-2.612-3.058-4.524-5.733a14.341,14.341,0,0,1-2.31-4.258c-.686-3.061-1.263-6.284.493-8.206s13.791-9.825,16.2-.553c0,0,2.763,5.092,3.663,5.892a1.4,1.4,0,0,1-.129,2.366C494.934,363.517,495.867,366.116,495.9,367Z" transform="translate(-472.391 -347.274)" fill="#ffc8a4"/>
              <path id="Path_10283" data-name="Path 10283" d="M494.324,388.528l-3.288,3.278-1,.485-1.687-.893-5.261-4.792s2.168-2.671.671-5.533c-.214-.4-2.612-3.058-4.524-5.733l-.222-1.844s3.737-1.03,3.89-1.037a13.084,13.084,0,0,1,1.849,2c.021.115-.278,2.285-.278,2.285s.491,2.837,1.083,4.989a3.014,3.014,0,0,0,2.7,2.067,9.851,9.851,0,0,0,2.285-.065,4.31,4.31,0,0,0,2.459-1.27,2.756,2.756,0,0,0,1.058,1.66Z" transform="translate(-473.816 -354.792)" fill="#ffc8a4"/>
              <path id="Path_10284" data-name="Path 10284" d="M480.388,362.713s-.287,6.277,4.15,8.864,10.534-.28,11.291-1.15,2.724-6.4-.607-8.231-6.511,1.323-6.511,1.323-1.85,2.084-2.6,2.1c-.728.015-2.827-1.861-3.125-5.788a.473.473,0,0,1,.364-.473c.847-.251,2.715-1.241,1.764-5.032a.563.563,0,0,1,.508-.676,42.3,42.3,0,0,1,4.329-.444,5.671,5.671,0,0,1,.826.069.438.438,0,0,1,.315.21c.2.351.644,1.153.753,1.343.14.245,1.192,2.026,1.192,2.026a1.271,1.271,0,0,0,.438-1.154,18.087,18.087,0,0,1-.7-2.485c.072-.362,1.1-.788,1.108-1.6.017-1.842-.7-8.894-6.3-4.558a9.758,9.758,0,0,1-2.029,1.487c-.845.311-1.8-.289-3.642-.159-2.573.181-13.628,2.767-10.088,12.6s9.364,11.234,9.364,11.234S479.279,363.964,480.388,362.713Z" transform="translate(-471.132 -345.666)" fill="#003c7f"/>
            </g>
            <path id="Path_10285" data-name="Path 10285" d="M483.555,370.853s-.548-1.69-1.961-1.2c-1.9.654-1.726,5.419,2.406,4.791A12.61,12.61,0,0,1,483.555,370.853Z" transform="translate(-474.299 -353.806)" fill="#ffc8a4"/>
          </g>
          <path id="Path_10286" data-name="Path 10286" d="M503.467,445.186a88.285,88.285,0,0,1-33.747.185,215.32,215.32,0,0,0,1.594-21.629l.026-.674c.149-4.228.227-7.247.32-7.371.189-.26-.48-13.752.628-19.039a3.66,3.66,0,0,1,.814-1.945,40.186,40.186,0,0,1,7.67-5.176s6.723,7.233,10.154-.771c3.775-.34,5.7.423,6.789,4.2C503.758,413.957,503.467,445.186,503.467,445.186Z" transform="translate(-451.561 -350.794)" fill="#f28f48"/>
          <path id="Path_10287" data-name="Path 10287" d="M506.154,387.475a33.377,33.377,0,0,0,12.63-2.721c3.559,4.184,5.71,11.811,5.71,11.811s-8.6,5.469-14.893,5.994A88.041,88.041,0,0,0,506.154,387.475Z" transform="translate(-463.971 -349.452)" fill="#f28f48"/>
          <path id="Path_10288" data-name="Path 10288" d="M507.991,390.874a30.238,30.238,0,0,1,5.15,13.242,38.36,38.36,0,0,0,11.979-5.466c-1.909.618-10.058,3.648-11.174,1.139A38.85,38.85,0,0,0,507.991,390.874Z" transform="translate(-464.597 -351.537)" fill="#3f4b9a" opacity="0.5"/>
          <g id="Group_4859" data-name="Group 4859" transform="translate(39.705 44.022)">
            <path id="Path_10289" data-name="Path 10289" d="M504.478,397.989l27.455,2.854-5.01,11.048L503.2,400.886a1.156,1.156,0,0,1-.683-1.585l.3-.569A1.668,1.668,0,0,1,504.478,397.989Z" transform="translate(-502.397 -397.979)" fill="#ff9e14"/>
            <path id="Path_10290" data-name="Path 10290" d="M504.478,397.989l27.455,2.854-5.01,11.048L503.2,400.886a1.156,1.156,0,0,1-.683-1.585l.3-.569A1.668,1.668,0,0,1,504.478,397.989Z" transform="translate(-502.397 -397.979)" fill="#1c3742"/>
            <path id="Path_10291" data-name="Path 10291" d="M543.7,408.5c-1.463,3.023-3.6,5.175-4.779,4.808s-.943-3.116.52-6.137,3.6-5.175,4.778-4.807S545.166,405.482,543.7,408.5Z" transform="translate(-514.584 -399.459)" fill="#ff9e14"/>
            <path id="Path_10292" data-name="Path 10292" d="M543.7,408.5c-1.463,3.023-3.6,5.175-4.779,4.808s-.943-3.116.52-6.137,3.6-5.175,4.778-4.807S545.166,405.482,543.7,408.5Z" transform="translate(-514.584 -399.459)" fill="#ff9e14" opacity="0.5"/>
            <path id="Path_10293" data-name="Path 10293" d="M543.7,408.5c-1.463,3.023-3.6,5.175-4.779,4.808s-.943-3.116.52-6.137,3.6-5.175,4.778-4.807S545.166,405.482,543.7,408.5Z" transform="translate(-514.584 -399.459)" fill="#132328"/>
          </g>
          <g id="Group_4860" data-name="Group 4860" transform="translate(17.412 42.716)">
            <path id="Path_10294" data-name="Path 10294" d="M468.587,423.562s2.893,9.983,10.419,14.684a5.253,5.253,0,0,0,6.666-1.323c5.151-5.762,10.3-18.74,11.949-23.64-3.02-1.6-3.985-1.354-3.985-1.354s-7.307,10.143-11.5,16.931l-3.131-5.46" transform="translate(-468.587 -401.419)" fill="#ffc8a4"/>
            <path id="Path_10295" data-name="Path 10295" d="M506.249,406.885a10.021,10.021,0,0,0,1.406-3.815c.063-1.644-.716-4.488.882-5.967a6.821,6.821,0,0,1,5.018-1.007c3.484.577,4.43,1.6,4.242,2.341s-2.6.992-3.234,2.243-.28,2.035-.438,3.407c-.239,2.063-3.114,2.936-3.74,3.964C509.939,408.783,506.249,406.885,506.249,406.885Z" transform="translate(-481.416 -395.998)" fill="#f99c70"/>
          </g>
          <path id="Path_10296" data-name="Path 10296" d="M472.717,444.473c.869-3.005,1.284-13.576,1.377-16.2a13.844,13.844,0,0,0,9.548-6.223c-.982-1.685-3.431-7.517-7.97-12.472l-2.618-9.823s-.3.231-.766.672c-1.108,5.287-.439,18.779-.628,19.039-.094.124-.171,3.143-.32,7.37l-.026.675h0a216.57,216.57,0,0,1-1.6,21.629,88.286,88.286,0,0,0,33.747-.185C484.712,450.568,471.744,447.891,472.717,444.473Z" transform="translate(-451.561 -354.562)" fill="#d07842"/>
          <g id="Group_4861" data-name="Group 4861" transform="translate(15.168 42.54)">
            <path id="Path_10297" data-name="Path 10297" d="M473.28,395.732s-7.754,5.079-8.086,13.727c-.256,6.686,4.164,16.442,4.164,16.442s7.672.847,11.7-5.424a47.879,47.879,0,0,0-4.528-9.347" transform="translate(-465.184 -395.732)" fill="#f28f48"/>
          </g>
        </g>
      </g>
      <path id="Path_10298" data-name="Path 10298" d="M772.01,368.364l1.39-1.035a8.612,8.612,0,0,0-2.653-2.652l-1.035,1.389a6.8,6.8,0,0,0-1.934-.8l.251-1.716a8.418,8.418,0,0,0-3.752,0l.251,1.716a6.8,6.8,0,0,0-1.934.8l-1.035-1.389a8.618,8.618,0,0,0-2.652,2.652l1.389,1.035a6.815,6.815,0,0,0-.8,1.935l-1.716-.251a8.415,8.415,0,0,0,0,3.751l1.716-.251a6.816,6.816,0,0,0,.8,1.935l-1.389,1.035a8.618,8.618,0,0,0,2.652,2.652l1.035-1.389a6.8,6.8,0,0,0,1.934.8l-.251,1.716a8.42,8.42,0,0,0,3.752,0l-.251-1.716a6.8,6.8,0,0,0,1.934-.8l1.035,1.389a8.613,8.613,0,0,0,2.653-2.652l-1.39-1.035a6.819,6.819,0,0,0,.8-1.935l1.716.251a8.415,8.415,0,0,0,0-3.751l-1.716.251A6.818,6.818,0,0,0,772.01,368.364Zm-5.856,8.116a4.557,4.557,0,1,1,4.557-4.557A4.557,4.557,0,0,1,766.154,376.48Z" transform="translate(-498.061 -208.018)" fill="#eab54e"/>
      <path id="Path_10299" data-name="Path 10299" d="M712.25,158.981l1.39-1.035a8.621,8.621,0,0,0-2.653-2.652l-1.035,1.39a6.8,6.8,0,0,0-1.934-.8l.251-1.716a8.415,8.415,0,0,0-3.751,0l.251,1.716a6.81,6.81,0,0,0-1.935.8l-1.034-1.39a8.625,8.625,0,0,0-2.652,2.652l1.389,1.035a6.8,6.8,0,0,0-.8,1.934l-1.716-.251a8.421,8.421,0,0,0,0,3.752l1.716-.251a6.8,6.8,0,0,0,.8,1.934l-1.389,1.035a8.625,8.625,0,0,0,2.652,2.652l1.034-1.389a6.827,6.827,0,0,0,1.935.8l-.251,1.716a8.417,8.417,0,0,0,3.751,0l-.251-1.716a6.815,6.815,0,0,0,1.934-.8l1.035,1.389a8.621,8.621,0,0,0,2.653-2.652l-1.39-1.035a6.8,6.8,0,0,0,.8-1.934l1.716.251a8.4,8.4,0,0,0,0-3.752l-1.716.251A6.8,6.8,0,0,0,712.25,158.981Zm-5.856,8.116a4.558,4.558,0,1,1,4.557-4.558A4.558,4.558,0,0,1,706.394,167.1Z" transform="translate(-477.705 -136.696)" fill="#f28f48"/>
      <path id="Path_10300" data-name="Path 10300" d="M863.843,253.144l2.754-2.051a17.084,17.084,0,0,0-5.257-5.256l-2.051,2.754a13.485,13.485,0,0,0-3.834-1.59l.5-3.4a16.667,16.667,0,0,0-7.436,0l.5,3.4a13.492,13.492,0,0,0-3.834,1.59l-2.051-2.754a17.075,17.075,0,0,0-5.257,5.256l2.754,2.051a13.473,13.473,0,0,0-1.59,3.834l-3.4-.5a16.69,16.69,0,0,0,0,7.436l3.4-.5a13.473,13.473,0,0,0,1.59,3.834l-2.754,2.051a17.075,17.075,0,0,0,5.257,5.257l2.051-2.754a13.474,13.474,0,0,0,3.834,1.59l-.5,3.4a16.667,16.667,0,0,0,7.436,0l-.5-3.4a13.466,13.466,0,0,0,3.834-1.59l2.051,2.754A17.077,17.077,0,0,0,866.6,269.3l-2.754-2.051a13.513,13.513,0,0,0,1.59-3.834l3.4.5a16.666,16.666,0,0,0,0-7.436l-3.4.5A13.513,13.513,0,0,0,863.843,253.144Zm-11.608,16.087a9.033,9.033,0,1,1,9.033-9.033A9.034,9.034,0,0,1,852.235,269.231Z" transform="translate(-524.51 -167.089)" fill="#fff"/>
      <g id="Group_4866" data-name="Group 4866" transform="translate(7.794 143.745)">
        <path id="Path_10301" data-name="Path 10301" d="M435.876,373.9l-5.491-1.705a4.371,4.371,0,0,1-4.365,4.2H381.333a4.374,4.374,0,0,1-4.374-4.374V353.513a4.374,4.374,0,0,1,4.374-4.374H426.02a4.374,4.374,0,0,1,4.374,4.374v14.376Z" transform="translate(-376.208 -346.927)" fill="#31688a" opacity="0.45"/>
        <rect id="Rectangle_1260" data-name="Rectangle 1260" width="52.939" height="27.26" rx="3.689" fill="#fff"/>
        <path id="Path_10302" data-name="Path 10302" d="M452.34,371.152l7.326,8.035-9.209-2.859" transform="translate(-401.244 -354.425)" fill="#fff"/>
        <g id="Group_4865" data-name="Group 4865" transform="translate(3.629 6.516)">
          <rect id="Rectangle_1261" data-name="Rectangle 1261" width="19.65" height="2.596" transform="translate(18.225 11.633)" fill="#c8c8c7" opacity="0.5"/>
          <rect id="Rectangle_1262" data-name="Rectangle 1262" width="26.96" height="2.596" transform="translate(18.225 7.755)" fill="#c8c8c7" opacity="0.5"/>
          <rect id="Rectangle_1263" data-name="Rectangle 1263" width="26.96" height="2.596" transform="translate(18.225 3.878)" fill="#c8c8c7" opacity="0.5"/>
          <rect id="Rectangle_1264" data-name="Rectangle 1264" width="15.785" height="2.596" transform="translate(18.225)" fill="#c8c8c7" opacity="0.5"/>
          <g id="Group_4864" data-name="Group 4864">
            <rect id="Rectangle_1265" data-name="Rectangle 1265" width="15.228" height="14.229" rx="1.334" fill="#eab54e" opacity="0.25"/>
          </g>
        </g>
      </g>
      <g id="Group_4867" data-name="Group 4867" transform="translate(243.09)">
        <path id="Path_10303" data-name="Path 10303" d="M789.223,186.6H740.957a5.391,5.391,0,0,1,.473-1.685c1.228-2.9,5.7-8.755,21.81-11.37l7.952-1.638S789.632,171.894,789.223,186.6Z" transform="translate(-735.493 -142.812)" fill="#e0583d"/>
        <path id="Path_10304" data-name="Path 10304" d="M773.223,193.182H740.957a5.391,5.391,0,0,1,.473-1.685,7.337,7.337,0,0,1,3.826-.031c1.181.314,1.969.52,1.969.52h20.991C772.31,191.985,773.223,193.182,773.223,193.182Z" transform="translate(-735.493 -149.392)" fill="#e0583d"/>
        <path id="Path_10305" data-name="Path 10305" d="M771.931,168.429a7.825,7.825,0,0,1,1.115,2.736,2.686,2.686,0,0,0,2.759,2.064c7.05-.4,6.582-4.8,6.582-4.8-1.453-2.223-2.336-8.806-2.336-8.806" transform="translate(-746.043 -138.627)" fill="#ffc8a4"/>
        <path id="Path_10306" data-name="Path 10306" d="M746.9,141.708s-.292,8.848,3.667,8.721,0-9.759,0-9.759Z" transform="translate(-737.516 -132.171)" fill="#003c7f"/>
        <path id="Path_10307" data-name="Path 10307" d="M771.567,151.338a17.352,17.352,0,0,1,.075,3.35,2.65,2.65,0,0,1-.059.363,2.86,2.86,0,0,1-.08.364c-.957,3.79-5.756,9.137-9.125,9.571a9.026,9.026,0,0,1-1.3.024c-4.693-.214-7.434-4.06-9.025-8.153-.054-.148-.107-.286-.16-.425a37.645,37.645,0,0,1-1.974-9.079c-.029-.324-.247-3.811.435-4.844.75-1.136,10.026-2.212,10.219-2.229s9.107.625,9.107.625A95.959,95.959,0,0,1,771.567,151.338Z" transform="translate(-738.525 -132.038)" fill="#ffc8a4"/>
        <path id="Path_10308" data-name="Path 10308" d="M774.06,156.784a14.847,14.847,0,0,1-.115,3.286,2.641,2.641,0,0,1-.059.363c-.61,3.789-5.246,9.678-10.46,10.144a11.172,11.172,0,0,1-1.164.1c-5.643.229-7.6-4.025-9.165-8.232-.054-.148-.107-.286-.16-.425,0,0,1.964,3.131,2.941,3.227s-.236-1.13,2.42-2.167a13.11,13.11,0,0,1,5.455-.452c1.1.146,3.088.711,3.79.812a.774.774,0,0,0,.405-.037c.936-.481,3.218-4.06,3.547-6.079C771.631,156.54,773.324,156.656,774.06,156.784Z" transform="translate(-739.574 -137.629)" fill="#003c7f"/>
        <path id="Path_10309" data-name="Path 10309" d="M744.064,134.587s.289,6.8,11.462,4.081c3.066-.746,5.772-1.444,7.292-.623,2.284,7.185,2.358,10.632,3.167,10.349,1.012-.355-1.73-6.323,1.765-5.678,2.673.493-.116,7.08-.116,7.08s3.249.427,3.343-1.082c.056-.9.157-13.773-2.055-16.828s-4.852-2.918-4.852-2.918-2.8-2.356-9.384-.429-10.057-.5-10.041-.314A13.169,13.169,0,0,0,744.064,134.587Z" transform="translate(-736.51 -127.78)" fill="#003c7f"/>
        <path id="Path_10310" data-name="Path 10310" d="M753.812,260.892a17.751,17.751,0,0,1-2.707,3.642,6.347,6.347,0,0,1-3.051,1.23,7.315,7.315,0,0,0-3.273,2.51c-.443.541,0,.787.936.59s2.14-.934,2.534-.934.394.479,0,1.346a9.713,9.713,0,0,1-2.116,2.787c-.64.492-2.411,1.476-2.609,2.066s-.049.886.886.591a25.139,25.139,0,0,0,3.149-1.673,5.454,5.454,0,0,0,1.189-.924,7.8,7.8,0,0,0,2.612.268,2.9,2.9,0,0,0,1.226-.537,2.451,2.451,0,0,0,.385-.091c.837-.34,1.279-3.243,1.722-4.031a37.688,37.688,0,0,1,3.666-3.716Z" transform="translate(-736.342 -173.122)" fill="#ffc8a4"/>
        <path id="Path_10311" data-name="Path 10311" d="M788.323,210.751v-.009c4.78-7.4,6.4-19.029,6.4-19.029l-6.1-4.157-3.121,1.5c-1.958-.857-5.311-2.123-5.311-2.123l-1.467,4.782a2.661,2.661,0,0,1,1.294,1.244c.031,2.691-.4,9.56-4.691,18.222-.171.233-.341.438-.512.685-7.581,10.918-17.727,25.057-17.727,25.057l4.34,3.816s6.495-5.843,12.138-11c5.12-4.68,13.077-16.466,14.51-18.615.041-.061.082-.122.122-.183Z" transform="translate(-740.987 -147.929)" fill="#e0583d"/>
        <path id="Path_10312" data-name="Path 10312" d="M745.693,196.187c-.063-.016-.11-.032-.173-.047.189.205.315.363.362.425.173.189.063.315.063.315-.236.252-.441.22-.74.205a1.174,1.174,0,0,1-.551-.268.828.828,0,0,1-.693.158,2.336,2.336,0,0,1-1.087-.771.227.227,0,0,1,0,.22.847.847,0,0,1-.756.205,2.455,2.455,0,0,1-1.165-.851c-.158-.158-.378-.425-.614-.708-.221-.158-.425-.3-.6-.41a1.645,1.645,0,0,0-.913-.3h-.047v-.016c-2.283-.047-3.307-1.039-6.11-1.039,0,0,6.551-3.15,10.5-.914a13.21,13.21,0,0,0,1.669.173c1.15.016.819.6.457.787a5.258,5.258,0,0,1-.771.142l.063.063c.173.189.331.378.473.551.5.614,1.181,1.417,1.307,1.543.173.205.063.331.063.331A.816.816,0,0,1,745.693,196.187Z" transform="translate(-732.67 -149.516)" fill="#ffc8a4"/>
        <path id="Path_10313" data-name="Path 10313" d="M750.726,193.767a5.258,5.258,0,0,1-.771.142,10.985,10.985,0,0,0-1.354-1.1,13.2,13.2,0,0,0,1.669.173C751.419,193,751.088,193.578,750.726,193.767Z" transform="translate(-738.096 -149.93)" fill="#ffc8a4"/>
      </g>
    </g>
    <g id="Group_4871" data-name="Group 4871" transform="translate(1073.762 282.382)">
      <path id="Path_10314" data-name="Path 10314" d="M1024.905,392.237l-8.249,17.918,9.165-11.092c.03.545.05,1.094.059,1.65.256,16.326-11.552,34.06-11.552,34.06l15.336-16.241a63.038,63.038,0,0,1-1.706,25.813l-21.054,16.05,18.045-7.227c-6.719,17.406-15.226,24.249-15.226,24.249l9.648-.56a87.666,87.666,0,0,1-7.573,19.337c-4.951,8.707-14.7,13.926-14.7,13.926l5.823,1.021A33.325,33.325,0,0,1,977.413,531.3l38.524-158.705A50.336,50.336,0,0,1,1024.905,392.237Z" transform="translate(-955.708 -370.632)" fill="#244854"/>
      <path id="Path_10315" data-name="Path 10315" d="M1004.725,371.579,966.2,530.284s-12.254-7.755-16.97-16.39-1.6-14.122-1.6-14.122l7.275,5.536s-7.311-14.1-9.748-26.064,2.66-23.871,2.66-23.871l11.646,10.571s-6.49-19.107-6.4-31.832,7.889-26.185,7.889-26.185l9.308,10.533s-2.118-14.073.455-25.218,6.064-15.371,6.064-15.371L982.15,388s3.234-9.651,7.607-15.518S1004.725,371.579,1004.725,371.579Z" transform="translate(-944.495 -369.62)" fill="#1c3742"/>
      <g id="Group_4869" data-name="Group 4869" transform="translate(26.933 21.019)">
        <line id="Line_72" data-name="Line 72" x1="7.832" y2="15.711" transform="translate(28.694)" fill="none" stroke="#1f6152" stroke-miterlimit="10" stroke-width="1"/>
        <line id="Line_73" data-name="Line 73" x1="7.196" y2="8.71" transform="translate(23.994 23.716)" fill="none" stroke="#1f6152" stroke-miterlimit="10" stroke-width="1"/>
        <line id="Line_74" data-name="Line 74" x1="13.809" y2="16.714" transform="translate(21.148 26.827)" fill="none" stroke="#1f6152" stroke-miterlimit="10" stroke-width="1"/>
        <line id="Line_75" data-name="Line 75" x1="9.499" y2="9.58" transform="translate(19.868 45.579)" fill="none" stroke="#1f6152" stroke-miterlimit="10" stroke-width="1"/>
        <line id="Line_76" data-name="Line 76" x1="23.109" y2="22.696" transform="translate(16.714 44.909)" fill="none" stroke="#1f6152" stroke-miterlimit="10" stroke-width="1"/>
        <line id="Line_77" data-name="Line 77" x1="10.282" y2="8.881" transform="translate(13.981 68.744)" fill="none" stroke="#1f6152" stroke-miterlimit="10" stroke-width="1"/>
        <line id="Line_78" data-name="Line 78" x1="24.72" y2="19.979" transform="translate(9.989 69.797)" fill="none" stroke="#1f6152" stroke-miterlimit="10" stroke-width="1"/>
        <line id="Line_79" data-name="Line 79" x1="15.743" y2="12.343" transform="translate(8.062 89.704)" fill="none" stroke="#1f6152" stroke-miterlimit="10" stroke-width="1"/>
        <line id="Line_80" data-name="Line 80" x1="20.657" y2="15.413" transform="translate(7.243 96.255)" fill="none" stroke="#1f6152" stroke-miterlimit="10" stroke-width="1"/>
        <line id="Line_81" data-name="Line 81" x1="13.199" y2="9.428" transform="translate(4.622 110.207)" fill="none" stroke="#1f6152" stroke-miterlimit="10" stroke-width="1"/>
        <line id="Line_82" data-name="Line 82" x1="11.811" y2="6.972" transform="translate(0.163 121.334)" fill="none" stroke="#1f6152" stroke-miterlimit="10" stroke-width="1"/>
        <line id="Line_83" data-name="Line 83" x1="10.62" y2="4.738" transform="translate(0 128.58)" fill="none" stroke="#1f6152" stroke-miterlimit="10" stroke-width="1"/>
      </g>
      <g id="Group_4870" data-name="Group 4870" transform="translate(12.639 8.513)">
        <line id="Line_84" data-name="Line 84" x1="0.045" y2="17.555" transform="translate(35.405)" fill="none" stroke="#1f6152" stroke-miterlimit="10" stroke-width="1"/>
        <line id="Line_85" data-name="Line 85" x2="2.527" y2="11.012" transform="translate(29.584 23.59)" fill="none" stroke="#1f6152" stroke-miterlimit="10" stroke-width="1"/>
        <line id="Line_86" data-name="Line 86" x2="4.849" y2="21.131" transform="translate(24.822 24.683)" fill="none" stroke="#1f6152" stroke-miterlimit="10" stroke-width="1"/>
        <line id="Line_87" data-name="Line 87" x2="4.195" y2="12.822" transform="translate(21.411 43.95)" fill="none" stroke="#1f6152" stroke-miterlimit="10" stroke-width="1"/>
        <line id="Line_88" data-name="Line 88" x2="10.479" y2="30.648" transform="translate(12.365 38.663)" fill="none" stroke="#1f6152" stroke-miterlimit="10" stroke-width="1"/>
        <line id="Line_89" data-name="Line 89" x2="5.209" y2="12.549" transform="translate(15.586 66.945)" fill="none" stroke="#1f6152" stroke-miterlimit="10" stroke-width="1"/>
        <line id="Line_90" data-name="Line 90" x2="13.137" y2="28.942" transform="translate(5.778 63.202)" fill="none" stroke="#1f6152" stroke-miterlimit="10" stroke-width="1"/>
        <line id="Line_91" data-name="Line 91" x2="8.538" y2="18.092" transform="translate(6.597 85.885)" fill="none" stroke="#1f6152" stroke-miterlimit="10" stroke-width="1"/>
        <line id="Line_92" data-name="Line 92" x2="11.553" y2="23.039" transform="translate(0 89.905)" fill="none" stroke="#1f6152" stroke-miterlimit="10" stroke-width="1"/>
        <line id="Line_93" data-name="Line 93" x2="7.57" y2="14.345" transform="translate(2.753 106.894)" fill="none" stroke="#1f6152" stroke-miterlimit="10" stroke-width="1"/>
        <line id="Line_94" data-name="Line 94" x2="7.431" y2="11.527" transform="translate(2.99 119.462)" fill="none" stroke="#1f6152" stroke-miterlimit="10" stroke-width="1"/>
        <line id="Line_95" data-name="Line 95" x2="7.368" y2="8.997" transform="translate(0.952 126.546)" fill="none" stroke="#1f6152" stroke-miterlimit="10" stroke-width="1"/>
      </g>
    </g>
    <g id="Group_4873" data-name="Group 4873" transform="translate(1059.361 364.464)">
      <g id="Group_4872" data-name="Group 4872">
        <path id="Path_10316" data-name="Path 10316" d="M924.569,521.925a39.562,39.562,0,0,0,14.19,16.406,41.266,41.266,0,0,0,9.466,4.974c.55.191.274-.259-.069-.378a39.209,39.209,0,0,1-8.741-4.562A38.745,38.745,0,0,1,925.3,522.1c-.088-.2-.861-.459-.734-.176Z" transform="translate(-923.303 -503.539)" fill="#eab54e"/>
        <path id="Path_10317" data-name="Path 10317" d="M925.775,520.6a1.633,1.633,0,1,1-2.162-.81A1.632,1.632,0,0,1,925.775,520.6Z" transform="translate(-922.656 -502.805)" fill="#eab54e"/>
        <path id="Path_10318" data-name="Path 10318" d="M931.67,512.51a1.632,1.632,0,1,1-2.162-.809A1.632,1.632,0,0,1,931.67,512.51Z" transform="translate(-924.664 -500.049)" fill="#eab54e"/>
        <path id="Path_10319" data-name="Path 10319" d="M936.417,505.992a1.633,1.633,0,1,1-2.162-.81A1.632,1.632,0,0,1,936.417,505.992Z" transform="translate(-926.281 -497.829)" fill="#eab54e"/>
        <path id="Path_10320" data-name="Path 10320" d="M954.019,507.748a1.633,1.633,0,1,1-2.162-.809A1.633,1.633,0,0,1,954.019,507.748Z" transform="translate(-932.277 -498.427)" fill="#eab54e"/>
        <path id="Path_10321" data-name="Path 10321" d="M981.891,495.062a1.633,1.633,0,1,1-2.162-.809A1.632,1.632,0,0,1,981.891,495.062Z" transform="translate(-941.771 -494.106)" fill="#eab54e"/>
        <path id="Path_10322" data-name="Path 10322" d="M972.948,499.133a1.632,1.632,0,1,1-2.162-.81A1.633,1.633,0,0,1,972.948,499.133Z" transform="translate(-938.725 -495.492)" fill="#eab54e"/>
        <path id="Path_10323" data-name="Path 10323" d="M943.293,511.033a1.633,1.633,0,1,1-2.162-.809A1.632,1.632,0,0,1,943.293,511.033Z" transform="translate(-928.623 -499.546)" fill="#eab54e"/>
        <path id="Path_10324" data-name="Path 10324" d="M949.926,513.455a1.632,1.632,0,1,1-2.162-.81A1.632,1.632,0,0,1,949.926,513.455Z" transform="translate(-930.883 -500.371)" fill="#eab54e"/>
        <path id="Path_10325" data-name="Path 10325" d="M964.831,505.547a1.633,1.633,0,1,1-2.162-.809A1.632,1.632,0,0,1,964.831,505.547Z" transform="translate(-935.96 -497.677)" fill="#eab54e"/>
        <path id="Path_10326" data-name="Path 10326" d="M930.461,513.923a60.669,60.669,0,0,0,12.911,19.354,49.27,49.27,0,0,0,7.8,6.687c.385.254.925-.1.453-.413a48.2,48.2,0,0,1-7.642-6.545,60.123,60.123,0,0,1-12.8-19.195c-.146-.354-.925-.373-.725.112Z" transform="translate(-925.304 -500.729)" fill="#eab54e"/>
        <path id="Path_10327" data-name="Path 10327" d="M941.947,512.351a64.585,64.585,0,0,0,9.1,20.165,29.34,29.34,0,0,0,5.438,6.2c.216.172.958.242.527-.1a28.2,28.2,0,0,1-5.136-5.834,63.694,63.694,0,0,1-9.145-20.163c-.071-.259-.844-.491-.784-.271Z" transform="translate(-929.226 -500.291)" fill="#eab54e"/>
        <path id="Path_10328" data-name="Path 10328" d="M944.223,512.548a182.407,182.407,0,0,1,7.459,18.323,67.183,67.183,0,0,1,1.948,6.5l.436.046a20.359,20.359,0,0,1-4.091-3.317,49.1,49.1,0,0,1-9-13.228,88.062,88.062,0,0,1-5.087-13.266c-.065-.216-.8-.4-.768-.3a74.457,74.457,0,0,0,9.6,21.046,34.3,34.3,0,0,0,7.655,8.259,11.68,11.68,0,0,0,1.591,1.021c.026.013.471.2.436.045a67.218,67.218,0,0,0-1.948-6.5,182.476,182.476,0,0,0-7.459-18.322,1.077,1.077,0,0,0-.768-.3Z" transform="translate(-926.901 -498.591)" fill="#eab54e"/>
        <path id="Path_10329" data-name="Path 10329" d="M960.008,506.829c3.085,7.055,5.434,15.239,3.563,22.945-.574,2.363-1.594,5.127-3.422,6.846l.768.372a6.442,6.442,0,0,0,1.466-3.518c.715-4.281-.641-8.8-2.2-12.74a77.043,77.043,0,0,0-6.393-12.287c-.107-.173-.864-.417-.726-.194,3.65,5.867,7.211,12.3,8.4,19.2.454,2.633.624,5.693-.633,8.152a3.763,3.763,0,0,1-.687,1.018c-.09.085.581.549.768.372a11.875,11.875,0,0,0,2.578-4.2,25.3,25.3,0,0,0,1.107-13.228,50.248,50.248,0,0,0-3.82-12.446c-.1-.224-.822-.4-.774-.292Z" transform="translate(-933.009 -498.428)" fill="#eab54e"/>
        <path id="Path_10330" data-name="Path 10330" d="M969.2,500.463c3.373,10.577,4.361,23.914-3.382,32.943a11.445,11.445,0,0,1-1.439,1.465.175.175,0,0,0-.046.194,147.985,147.985,0,0,1,4.336,17.508c.781,3.756,1.524,7.521,2.207,11.3.055.309.853.527.775.092A262.533,262.533,0,0,0,965.9,537.7q-.231-.8-.48-1.587a5.591,5.591,0,0,0-.343-.77c.023-.1.337-.3.41-.372a17.145,17.145,0,0,0,1.851-2.126,26.1,26.1,0,0,0,4.507-10.27c1.56-7.336.38-14.955-1.872-22.015-.095-.3-.905-.5-.774-.092Z" transform="translate(-936.848 -496.193)" fill="#eab54e"/>
        <path id="Path_10331" data-name="Path 10331" d="M975.634,496.552A32.49,32.49,0,0,1,969.544,530a25.237,25.237,0,0,1-2.915,2.883c-.26.214.458.657.688.468,6.912-5.673,11.083-14.962,11.282-23.8a36.412,36.412,0,0,0-2.2-12.874c-.094-.266-.9-.5-.762-.117Z" transform="translate(-937.616 -494.871)" fill="#eab54e"/>
      </g>
      <path id="Path_10332" data-name="Path 10332" d="M960.526,550.165c-10.5-2.659-16.556-5.992-1.671-10.792s9.119,3.574,5.682,6.587S960.526,550.165,960.526,550.165Z" transform="translate(-931.956 -509.03)" fill="#eab54e"/>
    </g>
    <path id="Path_10333" data-name="Path 10333" d="M981.118,499.552c-.03-.069-.058-.137-.086-.206l-.012-.032q-.04-.1-.077-.2l-.009-.024c-.026-.07-.051-.14-.074-.21l-.014-.042c-.024-.069-.046-.138-.067-.207l-.011-.037c-.022-.071-.043-.142-.063-.213v0c-.02-.073-.038-.144-.057-.216l-.009-.037c-.017-.069-.034-.138-.049-.208l-.009-.038c-.016-.071-.03-.142-.044-.213l0-.012c-.013-.07-.026-.139-.038-.209l0-.027c-.012-.069-.022-.138-.031-.208l-.005-.036c-.009-.069-.018-.138-.026-.208l0-.02q-.012-.1-.02-.207v-.012c-.006-.07-.011-.139-.015-.208l0-.03c0-.067-.007-.134-.009-.2v-.023c0-.138,0-.275,0-.409v-.022c0-.065,0-.13.007-.194v-.021c.007-.134.018-.264.032-.392v-.01c.007-.063.015-.125.024-.186l0-.018c.009-.061.019-.123.03-.183v0q.034-.185.077-.358l0-.013c.015-.056.03-.111.046-.165l0-.005c.033-.111.069-.217.109-.318l0-.007c.02-.05.04-.1.061-.146l0-.007a2.839,2.839,0,0,1,.216-.4l0-.006a2.022,2.022,0,0,1,.259-.317l0,0c.031-.03.062-.059.094-.086h0a1.43,1.43,0,0,1,.2-.142h0a1.126,1.126,0,0,1,.106-.054h0a1.691,1.691,0,0,1,1.8.5c3.178,2.738,3.068,8.125,2.906,10.107q.764-1.006,1.565-1.985.544-.669,1.1-1.33l.515-.613c1.368-1.624,2.758-3.231,4.1-4.875l-.09-.033c-.082-.03-.163-.059-.243-.09-.047-.018-.092-.037-.139-.056-.072-.029-.143-.058-.214-.089l-.142-.063c-.067-.03-.133-.061-.2-.092l-.141-.069c-.063-.032-.126-.064-.189-.1l-.137-.074c-.061-.034-.123-.068-.183-.1l-.131-.077c-.061-.036-.121-.074-.18-.111l-.121-.076c-.061-.04-.122-.082-.182-.123l-.108-.074c-.067-.048-.132-.1-.2-.146l-.08-.059q-.137-.1-.269-.213l-.017-.014q-.122-.1-.239-.205l-.079-.073c-.057-.051-.112-.1-.167-.154l-.09-.088c-.049-.048-.1-.1-.146-.145l-.091-.1c-.046-.047-.09-.1-.135-.144l-.089-.1c-.043-.048-.084-.1-.126-.145s-.057-.068-.085-.1c-.041-.049-.081-.1-.121-.15l-.08-.1-.117-.156-.073-.1-.117-.169c-.021-.03-.042-.06-.061-.09-.044-.066-.087-.133-.129-.2l-.04-.063c-.055-.088-.109-.177-.16-.267l-.018-.033c-.045-.078-.088-.156-.13-.234l-.046-.089q-.047-.09-.093-.18c-.017-.035-.033-.07-.051-.1-.026-.055-.053-.111-.078-.167l-.051-.111-.07-.16c-.016-.038-.032-.077-.047-.115s-.043-.106-.063-.159l-.045-.115q-.03-.079-.057-.158l-.041-.115c-.018-.053-.035-.107-.053-.16-.012-.038-.024-.075-.036-.113-.017-.055-.033-.111-.049-.166-.01-.035-.021-.07-.03-.1-.017-.063-.033-.125-.049-.188-.007-.027-.015-.055-.022-.082-.022-.088-.042-.176-.061-.263l-.017-.087c-.013-.059-.024-.118-.035-.177-.007-.038-.013-.075-.02-.113s-.017-.1-.025-.148-.012-.08-.017-.12-.012-.092-.018-.137l-.014-.123c0-.044-.009-.087-.013-.13s-.007-.083-.011-.125-.006-.083-.009-.125,0-.083-.007-.125,0-.08,0-.119,0-.083,0-.125,0-.076,0-.113,0-.084,0-.125,0-.071,0-.105,0-.085.005-.127,0-.061.007-.09q.018-.246.054-.476c0-.025.007-.05.011-.075.007-.042.015-.083.024-.125.005-.026.01-.053.015-.078s.018-.079.028-.119.012-.051.019-.076.02-.076.032-.114l.022-.072c.011-.038.024-.074.036-.109l.024-.068c.013-.036.027-.071.041-.1s.017-.041.026-.061.03-.069.046-.1.018-.036.026-.053c.018-.034.035-.069.053-.1l.024-.04c.02-.035.041-.07.062-.1l0-.006a1.979,1.979,0,0,1,.262-.324l.02-.02c.025-.024.052-.047.078-.069l.033-.028c.025-.02.051-.039.078-.057l.039-.028.08-.047.044-.024c.027-.014.055-.027.082-.039l.046-.019c.028-.011.057-.021.086-.03l.047-.013c.031-.009.061-.016.092-.022l.046-.007c.033-.005.065-.011.1-.013l.04,0a2.091,2.091,0,0,1,1.169.328c3.524,2.038,3.874,8.9,3.9,11.032.919-1.138,1.815-2.3,2.665-3.49h0l.033-.048c.026-.036.052-.071.077-.107v0l.481-.692a43.215,43.215,0,0,0,2.8-4.765c-.189-.109-.437-.256-.727-.442l-.094-.061c-.127-.082-.261-.171-.4-.266l-.106-.073-.241-.17-.177-.128-.139-.1c-.154-.115-.311-.237-.471-.364-.08-.064-.16-.129-.241-.2a13.831,13.831,0,0,1-2.9-3.2l0,0c-.039-.062-.077-.124-.114-.186l-.033-.055c-.028-.047-.056-.1-.084-.143l-.029-.05q-.053-.093-.1-.186l-.018-.033c-.028-.051-.055-.1-.081-.155l-.029-.056q-.038-.074-.073-.148l-.019-.039c-.03-.061-.058-.122-.085-.183l-.019-.042c-.022-.048-.043-.1-.063-.144l-.022-.052c-.023-.055-.046-.111-.068-.166l-.005-.013c-.024-.061-.046-.12-.068-.179l-.016-.045c-.016-.047-.033-.093-.048-.139l-.015-.043c-.02-.059-.038-.117-.056-.175v-.005c-.017-.056-.032-.111-.047-.165l-.011-.04c-.013-.048-.025-.1-.036-.142l-.007-.028c-.014-.056-.026-.112-.037-.167l0-.018c-.009-.049-.018-.1-.026-.144l-.006-.034c-.008-.051-.016-.1-.022-.151v0c-.006-.053-.012-.106-.017-.158v-.02c0-.045-.007-.089-.009-.133v-.023c0-.1,0-.195,0-.287v-.018c0-.042.005-.084.009-.124v-.011a2.115,2.115,0,0,1,.043-.254l0-.014a1.623,1.623,0,0,1,.073-.227h0c.014-.035.03-.069.046-.1l0-.009a1.082,1.082,0,0,1,.117-.182l0,0a.912.912,0,0,1,.067-.075l0,0a.927.927,0,0,1,.161-.131l.007,0c.478-.3,1.277-.2,2.421.5,2.72,1.656,3.779,6.829,4.1,8.835a42.843,42.843,0,0,0,1.919-4.612l.312-.927q.15-.46.288-.923.553-1.852.936-3.75l-.193-.086-.117-.053-.265-.122c-.286-.133-.634-.3-1.041-.5-.136-.067-.277-.138-.426-.213l-.228-.115c-.774-.395-1.707-.891-2.78-1.5-.052-.028-.1-.058-.152-.088l-.049-.03-.1-.061-.057-.037-.09-.059-.059-.04-.086-.059-.059-.042-.084-.061-.059-.044-.084-.063-.055-.043-.087-.07-.049-.04-.1-.088-.028-.024c-.044-.038-.088-.076-.13-.114l-.036-.034-.092-.083-.048-.046-.076-.073-.052-.051-.071-.071-.052-.053-.067-.071-.051-.055-.065-.072-.049-.055-.065-.075-.046-.053-.069-.082-.039-.047-.1-.128-.032-.043-.068-.089-.042-.058-.055-.074-.044-.063-.049-.071-.044-.065-.046-.069-.043-.067c-.015-.022-.029-.045-.043-.068l-.042-.069c-.014-.022-.027-.044-.04-.067l-.041-.07-.038-.066-.04-.071c-.011-.02-.022-.041-.033-.062-.028-.051-.054-.1-.08-.154-.009-.017-.017-.033-.025-.049s-.026-.053-.038-.08l-.026-.057-.036-.079-.025-.057c-.011-.026-.022-.053-.033-.08l-.023-.055-.032-.08-.02-.054c-.01-.027-.02-.055-.03-.082l-.018-.051c-.009-.028-.019-.056-.028-.084l-.013-.044c-.01-.03-.019-.06-.028-.09l-.007-.025c-.032-.113-.059-.226-.082-.338l0-.018c-.006-.032-.012-.063-.017-.095l-.006-.034c0-.03-.009-.06-.013-.09l0-.038c0-.03-.007-.059-.01-.088l0-.037c0-.03,0-.059-.006-.088l0-.034c0-.03,0-.059,0-.089v-.028c0-.032,0-.063,0-.094v-.01a2.627,2.627,0,0,1,.043-.425l0-.013c.005-.03.012-.059.019-.088l.005-.022c.007-.028.014-.055.022-.082l.007-.024c.009-.027.017-.053.026-.08l.008-.024c.01-.026.02-.053.03-.078l.009-.02c.012-.027.023-.053.036-.08l0-.009a1.752,1.752,0,0,1,.218-.344h0c.019-.024.039-.047.059-.07l.013-.014.06-.062.018-.018c.021-.02.042-.039.063-.057l.021-.019c.021-.018.043-.036.066-.054l.022-.017c.024-.018.047-.036.073-.053l.018-.011a2.625,2.625,0,0,1,1.01-.388c3.814-.7,6.24,6.628,6.972,9.205a42.646,42.646,0,0,0,.682-6.213l-.006-.01.026-.777c.021-1.225-.012-2.451-.1-3.671l-.028-.024c-.061-.05-.121-.1-.179-.154l-.021-.019c-.057-.051-.113-.1-.169-.158l-.017-.017c-.057-.055-.112-.112-.166-.17l-.031-.032q-.079-.085-.156-.174l-.027-.031c-.053-.062-.1-.124-.155-.187l-.006-.007c-.05-.063-.1-.127-.146-.191l-.023-.03c-.046-.064-.092-.129-.137-.194l-.026-.038c-.045-.066-.088-.132-.131-.2l-.018-.029c-.042-.067-.083-.135-.123-.2l-.01-.017c-.041-.071-.081-.142-.12-.214l-.022-.04c-.038-.071-.075-.142-.111-.214l-.02-.04c-.037-.074-.073-.148-.108-.224l-.007-.016c-.034-.074-.067-.148-.1-.223l-.015-.033c-.032-.075-.063-.151-.094-.227l-.018-.045c-.03-.076-.059-.153-.087-.23l-.013-.036c-.028-.078-.056-.156-.083-.235l0-.013c-.027-.08-.053-.161-.078-.242l-.013-.043c-.024-.078-.047-.157-.07-.236l-.013-.046c-.022-.081-.045-.162-.065-.243l-.006-.024c-.021-.079-.04-.159-.058-.238l-.007-.031c-.019-.081-.037-.163-.054-.244l-.01-.048c-.016-.08-.032-.161-.047-.242l-.007-.04c-.015-.084-.03-.168-.044-.253v0c-.014-.084-.026-.169-.038-.254l-.006-.041c-.011-.081-.022-.162-.032-.243l-.005-.047c-.01-.082-.019-.164-.027-.245l0-.028c-.008-.08-.015-.16-.021-.24l0-.025c-.007-.082-.012-.164-.016-.245l0-.045c0-.08-.009-.159-.012-.238v-.04c0-.082-.005-.165-.006-.247v0c0-.082,0-.162,0-.243v-.035c0-.078,0-.156,0-.233v-.042c0-.079,0-.156.008-.232v-.027c0-.076.008-.153.013-.228v-.016c0-.077.01-.153.017-.228l0-.038c.007-.074.015-.146.022-.219l0-.035c.008-.074.017-.149.027-.222v-.007q.015-.109.032-.216l0-.026c.011-.07.022-.139.035-.206l.007-.034c.012-.068.026-.135.04-.2l.005-.024q.022-.1.046-.2v0c.016-.066.033-.13.05-.194l.007-.028c.016-.061.034-.122.052-.181l.009-.026c.019-.061.038-.121.057-.179l0-.009c.02-.058.04-.115.061-.171l.006-.015c.021-.055.043-.109.065-.161l.01-.024c.022-.051.045-.1.068-.152l.009-.017c.049-.1.1-.2.154-.288l.01-.017c.026-.043.052-.084.079-.124l.013-.018c.027-.04.055-.08.084-.117l.005-.007c.029-.038.059-.073.088-.107l.006-.007c.03-.034.061-.065.092-.1l.013-.013c.031-.029.062-.057.094-.083l.012-.009a1.364,1.364,0,0,1,.2-.138l.012-.007c.034-.018.069-.034.1-.048l.015-.006c.036-.014.071-.026.107-.037l.009,0a1.075,1.075,0,0,1,.112-.024h0a.949.949,0,0,1,.115-.011h.016c.038,0,.076,0,.114,0l.016,0a1.132,1.132,0,0,1,.122.018h0a2.83,2.83,0,0,1,1.532,1.222c3.232,4.351.94,9.356-.006,11.042q.14,1.881.113,3.77l-.016.7a43.69,43.69,0,0,1-.672,6.422c1.418-2.2,5.228-7.449,8.739-6.557a2.3,2.3,0,0,1,1.69,1.175l0,.01a1.576,1.576,0,0,1,.119.483v.007a2.027,2.027,0,0,1-.028.527v.006a2.914,2.914,0,0,1-.162.556l0,.01c-.015.037-.03.074-.046.11h0a4.336,4.336,0,0,1-.234.456l-.011.019c-.021.035-.042.07-.063.1l-.009.015c-.069.11-.144.221-.224.331l-.01.014-.073.1-.024.032-.073.093-.024.031c-.081.1-.166.2-.255.3l-.03.033-.076.083-.042.046-.076.079-.046.047-.077.078-.04.038c-.049.048-.1.1-.15.143l-.058.055-.074.067-.064.057-.073.064-.071.061-.071.06-.1.086-.088.071-.09.071-.068.053-.086.064-.069.051-.092.067-.063.045-.151.105-.041.027-.121.08-.062.04-.1.065-.065.04-.11.067-.057.034c-.055.032-.11.065-.166.1l-.025.014-.146.08-.059.03-.116.061-.063.032-.121.059-.055.026-.174.082-.014.006-.163.071-.057.024-.123.05-.062.025-.126.047-.054.02-.179.063h-.005c-.057.02-.115.038-.173.057l-.055.017-.125.037-.063.018-.125.033-.056.014c-.06.014-.119.029-.179.042a23.115,23.115,0,0,1-2.287.39q-.267.03-.5.048t-.443.026c-.206.009-.392.009-.558.005l-.16-.006a4.819,4.819,0,0,1-.516-.049l-.1-.016c-.053-.01-.1-.02-.144-.03q-.395,1.919-.957,3.8l-.305.973a43.564,43.564,0,0,1-2.082,5.226c2.059-1.718,8.17-6.381,10.565-3.422a4.469,4.469,0,0,1,.271.371l0,0,.057.09,0,.005.051.086,0,.007c.016.028.031.056.046.084l0,.009.042.082,0,.009c.013.027.026.054.038.08l0,.01.033.078,0,.011c.011.026.02.051.029.077l0,.011c.009.026.017.051.025.076l0,.011c.007.025.015.05.021.075l0,.011.018.073,0,.011c.005.024.01.049.015.073l0,.011c0,.024.007.047.011.071v.011c0,.024.005.047.007.071v.011c0,.024,0,.047,0,.07v.011q0,.035,0,.069v.009c0,.023,0,.046,0,.069v.009c0,.023,0,.045-.007.069v.008c0,.023-.006.046-.01.069v.007c0,.022-.008.046-.013.068v.007c-.005.022-.011.045-.016.067l0,.005c-.006.023-.012.046-.02.068v0c-.007.023-.016.046-.024.069v0c-.009.023-.018.046-.028.069h0a2.919,2.919,0,0,1-1.492,1.331h0l-.093.044h0l-.092.042-.007,0-.092.04-.01,0-.092.038-.011,0-.092.036-.014.005-.092.034-.016.006-.092.034-.018.006-.091.032-.02.007-.092.03-.02.007-.092.03-.023.007-.092.028-.024.007-.093.027-.025.007-.094.026-.026.007-.094.025-.028.007-.094.024-.028.007-.094.023-.03.007-.1.022-.03.007-.1.021-.03.007-.1.021-.032.006-.1.02-.032.007-.1.019-.03.005-.1.018-.032.006-.1.017-.031.005-.1.017-.032,0-.1.016-.03,0-.105.016-.029,0-.107.015-.028,0-.109.014-.025,0-.113.014-.02,0-.119.014h-.012l-.127.013h0c-.323.034-.65.059-.98.076h0l-.118.005h-.026l-.1,0h-.039l-.1,0-.045,0-.094,0h-.99l-.065,0-.077,0-.065,0-.074,0-.069,0-.072,0-.069,0-.073,0-.068,0-.072,0-.069,0-.071,0-.069,0-.07-.005-.069-.005-.069-.005-.069-.006-.069-.006-.068-.006-.069-.007-.068-.007-.068-.007-.067-.007-.068-.007-.067-.008-.067-.008-.067-.008-.066-.009-.067-.009-.064-.009-.067-.009-.065-.009-.066-.01-.063-.009-.068-.011-.061-.01-.067-.011-.061-.01-.065-.012-.061-.011-.065-.013-.06-.011-.064-.013-.058-.011-.064-.014-.058-.012-.063-.014-.057-.013-.063-.014-.056-.013-.063-.015-.054-.013-.063-.016-.053-.013-.063-.017-.05-.013-.066-.018-.02-.006q-.913,1.836-2,3.579-.307.491-.626.972l-.4.591c-.853,1.247-1.761,2.452-2.7,3.634,2.093-1.275,6.712-3.407,10.737-.516a3.191,3.191,0,0,1,1.331,1.534l0,.005a1.079,1.079,0,0,1,.026.121v.007a.954.954,0,0,1,.012.119h0a.964.964,0,0,1-.021.235v0a1.072,1.072,0,0,1-.03.109l0,.006a1.042,1.042,0,0,1-.044.106v0a1.246,1.246,0,0,1-.214.3l0,.005c-.03.031-.061.062-.094.092l0,0a2.3,2.3,0,0,1-.356.258l-.008,0c-.044.026-.089.051-.136.076l-.009,0a4.1,4.1,0,0,1-.48.212l-.01,0c-.056.021-.113.041-.172.061l-.015,0c-.059.02-.12.039-.183.057h0c-.127.038-.26.072-.4.1l-.012,0c-.066.016-.134.03-.2.044l-.021,0-.209.04-.014,0q-.219.039-.45.069l-.016,0-.224.027-.028,0c-.075.009-.152.016-.228.023l-.024,0c-.161.015-.324.026-.491.034h-.017c-.08,0-.161.008-.242.011h-.034l-.241.006h-.3l-.257,0h-.017l-.255-.008h-.038l-.251-.011-.04,0-.256-.016-.027,0-.262-.021h-.013l-.264-.026-.041,0-.255-.029-.046-.006-.259-.034-.035-.005-.268-.04h-.005l-.269-.045-.04-.007-.257-.047-.048-.01-.257-.051-.041-.009c-.089-.019-.178-.038-.267-.059l-.008,0c-.088-.02-.176-.041-.264-.063l-.036-.009-.255-.067-.047-.013-.251-.071-.043-.013-.256-.078-.019-.007c-.084-.026-.167-.053-.25-.082l-.03-.01-.248-.087-.046-.016-.241-.091-.043-.016-.243-.1L996.3,496c-.08-.033-.159-.067-.238-.1l-.021-.009-.237-.109-.04-.019-.226-.111-.042-.021c-.076-.039-.151-.078-.225-.118l-.028-.016c-.075-.041-.15-.082-.223-.125l-.011-.006c-.075-.044-.148-.088-.221-.133l-.034-.021c-.07-.043-.139-.088-.207-.133l-.038-.026-.113-.076c-1.431,1.755-2.916,3.469-4.372,5.2l-.684.82c-.8.966-1.588,1.941-2.349,2.936,2.485-.388,10.2-1.405,12.012.589a1.689,1.689,0,0,1,.39,1.868l-.01.024a2.25,2.25,0,0,1-.163.311l-.015.023a2.71,2.71,0,0,1-.222.3l-.019.022c-.042.049-.086.1-.132.145l0,0c-.045.046-.092.091-.14.136l-.022.02q-.075.068-.156.135l-.014.011c-.051.042-.1.082-.157.122l-.023.017q-.086.063-.177.123l-.024.016c-.057.037-.115.073-.173.109l-.022.014q-.1.057-.2.111l-.033.018c-.062.033-.126.066-.191.1l-.019.009c-.069.034-.14.066-.212.1l-.041.018c-.069.03-.139.059-.21.086l-.011,0c-.074.028-.15.055-.226.082l-.047.017q-.229.077-.468.14l-.052.014c-.079.02-.16.039-.241.057l-.014,0c-.076.017-.154.032-.232.046l-.055.01c-.081.014-.163.027-.245.038l-.032,0c-.074.009-.15.018-.225.025l-.055.005c-.083.008-.166.014-.249.019l-.044,0c-.073,0-.147.006-.221.007h-.053c-.084,0-.167,0-.251,0l-.052,0c-.074,0-.148-.007-.222-.012l-.046,0c-.084-.007-.168-.015-.252-.025l-.057-.007c-.076-.01-.151-.021-.226-.034l-.037-.006c-.084-.014-.168-.031-.25-.049l-.059-.014c-.078-.018-.156-.037-.233-.058l-.022-.006c-.083-.022-.166-.048-.248-.074l-.059-.02c-.082-.028-.166-.058-.247-.09h0a15.134,15.134,0,0,1-5.11-3.272c-.257-.255-.461-.478-.614-.656a46.117,46.117,0,0,0-3.394,5.158h0l-.018.033c-.014.024-.028.048-.041.073h0l-.321.594,0,0-.068.13-.012.021h0q-.315.6-.606,1.216a37.125,37.125,0,0,0-3.548,15.82c0,.526-.794.458-.794-.064a37.725,37.725,0,0,1,2.756-14.115c.417-1.03.883-2.03,1.39-3.007l.413-.773a48.4,48.4,0,0,1,3.6-5.549c-.069-.024-.138-.049-.206-.074l-.05-.019c-.088-.033-.176-.068-.262-.1l-.023-.01c-.082-.035-.164-.071-.245-.109l-.036-.016c-.082-.038-.162-.078-.241-.118l-.047-.024c-.079-.041-.156-.082-.233-.125l-.034-.019q-.112-.063-.219-.129l-.022-.013c-.075-.046-.147-.093-.22-.141l-.042-.028c-.07-.047-.139-.095-.207-.144l-.038-.028c-.069-.051-.138-.1-.2-.154l0,0c-.067-.053-.134-.107-.2-.161l-.036-.03q-.093-.079-.183-.16l-.036-.034c-.061-.055-.121-.112-.179-.169l-.018-.018q-.084-.082-.164-.166l-.027-.028c-.055-.058-.109-.116-.162-.175l-.034-.038c-.053-.059-.1-.119-.154-.179l-.024-.029c-.048-.059-.095-.117-.141-.177l-.017-.022c-.048-.062-.1-.125-.142-.189l-.029-.04c-.045-.063-.088-.125-.131-.189l-.025-.037c-.044-.065-.086-.13-.127-.2l0-.007c-.042-.067-.083-.134-.123-.2l-.023-.039c-.038-.065-.075-.131-.111-.2l-.023-.042c-.036-.068-.072-.135-.107-.2l-.01-.021c-.033-.065-.065-.131-.1-.2l-.016-.034c-.032-.067-.063-.135-.092-.2Z" transform="translate(117.939 -114.7)" fill="#e0583d"/>
    <g id="Group_4874" data-name="Group 4874" transform="translate(1090.057 360.266)">
      <path id="Path_10334" data-name="Path 10334" d="M1040.894,487.739s-6.6,48.215-26.85,71.933c-6.875,8.05-13.779,12.543-19.9,14.966a18.229,18.229,0,0,1-24.816-18.964c.73-6.544,3.251-14.387,9.213-23.134C996.1,506.767,1040.894,487.739,1040.894,487.739Z" transform="translate(-969.209 -487.739)" fill="#afddd5"/>
      <path id="Path_10335" data-name="Path 10335" d="M990.057,552.665l3.931-5.125L983.854,525.8q.253-.284.51-.565l10.1,21.675,3.718-4.846q-4.682-10.472-10.275-20.5l.516-.5q5.566,9.955,10.243,20.369l3.57-4.656-9.724-19.445q.272-.236.547-.472l9.652,19.3,3.743-4.881q-3.755-9.457-8.274-18.583l.565-.434q4.475,9.014,8.207,18.369l3.855-5.026q-3.488-8.447-7.691-16.567.288-.206.576-.408,4.149,8,7.607,16.333l3.14-4.093q-2.842-7.755-6.379-15.224l.591-.39q3.479,7.334,6.291,14.957l3.828-4.99a66.522,66.522,0,0,0-5.021-13.2l.6-.366a67.247,67.247,0,0,1,4.956,12.875l1.3-1.7a.357.357,0,0,1,.226-.295l.944-1.231a34.425,34.425,0,0,0-4.462-11.428l.6-.354a35.261,35.261,0,0,1,4.422,11.048l2.869-3.741a68.667,68.667,0,0,0-3.432-9.513l.615-.343a68.92,68.92,0,0,1,3.344,9.169l2.667-3.476-2.818-6.163c-.156-.34-.313-.68-.468-1.02l.613-.33c.229.5.468,1,.7,1.5q1.23,2.69,2.459,5.38l2.255-2.941q-.776-2.956-1.806-5.832l.628-.322q.964,2.691,1.715,5.454,1.317-1.716,2.632-3.433-.543-1.817-1.254-3.572l.632-.309q.638,1.576,1.144,3.2l1.588-2.071q-.313-1.073-.628-2.146l.639-.3.515,1.762,2.374-3.094c1.015-.457,1.574-.694,1.574-.694s-.079.585-.249,1.656L1038,492.844a15.9,15.9,0,0,1,2.138-.413q-.061.35-.128.721a15.14,15.14,0,0,0-2.743.649l-1.847,2.407a23.974,23.974,0,0,1,4.162-.741l-.137.713a22.842,22.842,0,0,0-4.392.858.355.355,0,0,1-.256-.017l-3.4,4.429q3.584-.7,7.208-1.141c-.051.239-.1.481-.155.725q-3.868.483-7.7,1.253l-3.056,3.985q4.943-.882,9.922-1.516l-.17.728q-5.212.67-10.384,1.611l-3.746,4.884q6.5-1.388,13.1-2.271-.093.366-.188.734-6.831.93-13.573,2.4l-2.469,3.22,14.7-.64q-.1.353-.2.708l-15.057.655-4.789,6.244a173.083,173.083,0,0,1,18.646-2.846q-.112.363-.225.728a173.266,173.266,0,0,0-19.078,2.973l-4.386,5.718,21-1.312q-.128.359-.258.717l-21.309,1.331-1.672,2.18-2.034,2.652,23.029-.963q-.144.356-.289.711l-23.294.975-3.138,4.091,23.648,1.282q-.162.343-.325.684l-23.708-1.286a.348.348,0,0,1-.116-.026l-4.484,5.846,25.638.682q-.189.345-.381.688l-25.781-.686-3.36,4.38,24.72,3.4q-.228.325-.458.645l-24.753-3.4-3.577,4.664a215.49,215.49,0,0,0,23.631,4.528q-.292.32-.583.632a215.858,215.858,0,0,1-23.51-4.558l-5.8,7.566q10.451,2.642,21.11,4.289-.414.3-.826.584-10.4-1.644-20.626-4.238a.37.37,0,0,1-.109-.048l-2.442,3.184,16.495,4.945c-.327.151-.653.3-.976.437l-15.974-4.79-2.417,3.151q-.667-.476-1.29-1.009l.669-.872-7.036-13.349q.016-.666.081-1.342,3.712,7.04,7.423,14.081l2.16-2.817-8.637-16.735c.081-.337.169-.677.26-1.019l8.847,17.14,3.351-4.368L972.57,543.438q.17-.409.35-.822l10.253,19.023,2.923-3.811.081-.1a219.7,219.7,0,0,0-10.831-20q.193-.348.394-.7a221.028,221.028,0,0,1,10.916,20.08l.376-.491a.291.291,0,0,1,.079-.1l2.448-3.193q-4.433-11.383-9.934-22.3.23-.316.467-.631Q985.6,541.279,990.057,552.665Z" transform="translate(-969.213 -487.739)" fill="#86bec4"/>
    </g>
  </g>
</svg>
