<svg id="News-Main" xmlns="http://www.w3.org/2000/svg" width="464.021" height="372.849" viewBox="0 0 464.021 372.849">
  <rect id="Rectangle_1015" data-name="Rectangle 1015" width="378.997" height="257.477" rx="14.624" transform="translate(44.175 84.68)" fill="#e76f50"/>
  <rect id="Rectangle_1016" data-name="Rectangle 1016" width="334.115" height="234.136" transform="translate(66.615 96.351)" fill="#f2f2f9"/>
  <g id="Group_4516" data-name="Group 4516" transform="translate(53.672 199.857)">
    <path id="Path_9316" data-name="Path 9316" d="M3205.551,1365.318a1.878,1.878,0,0,1-1.879-1.879v-23.364a1.88,1.88,0,1,1,3.759,0v23.364A1.877,1.877,0,0,1,3205.551,1365.318Z" transform="translate(-3203.672 -1338.195)" fill="#e23d23"/>
  </g>
  <circle id="Ellipse_63" data-name="Ellipse 63" cx="6.372" cy="6.372" r="6.372" transform="translate(405.712 207.047)" fill="#e23d23"/>
  <g id="Group_4520" data-name="Group 4520" transform="translate(88.697 112.556)">
    <rect id="Rectangle_1017" data-name="Rectangle 1017" width="192.689" height="9.465" transform="translate(0 71.278)" fill="#eaeaea"/>
    <g id="Group_4517" data-name="Group 4517" transform="translate(0 89.888)">
      <rect id="Rectangle_1018" data-name="Rectangle 1018" width="192.689" height="5.233" fill="#eaeaea"/>
      <rect id="Rectangle_1019" data-name="Rectangle 1019" width="54.155" height="5.233" transform="translate(0 8.989)" fill="#eaeaea"/>
      <rect id="Rectangle_1020" data-name="Rectangle 1020" width="134.419" height="5.233" transform="translate(58.27 8.989)" fill="#eaeaea"/>
      <rect id="Rectangle_1021" data-name="Rectangle 1021" width="192.689" height="5.233" transform="translate(0 17.978)" fill="#eaeaea"/>
      <rect id="Rectangle_1022" data-name="Rectangle 1022" width="75.554" height="5.233" transform="translate(117.134 26.966)" fill="#eaeaea"/>
      <rect id="Rectangle_1023" data-name="Rectangle 1023" width="110.377" height="5.233" transform="translate(0 26.966)" fill="#eaeaea"/>
      <rect id="Rectangle_1024" data-name="Rectangle 1024" width="192.689" height="5.233" transform="translate(0 35.955)" fill="#eaeaea"/>
      <rect id="Rectangle_1025" data-name="Rectangle 1025" width="192.689" height="5.233" transform="translate(0 44.944)" fill="#eaeaea"/>
      <rect id="Rectangle_1026" data-name="Rectangle 1026" width="113.673" height="5.233" transform="translate(79.016 53.933)" fill="#eaeaea"/>
      <rect id="Rectangle_1027" data-name="Rectangle 1027" width="71.158" height="5.233" transform="translate(79.016 62.922)" fill="#eaeaea"/>
      <rect id="Rectangle_1028" data-name="Rectangle 1028" width="37.777" height="5.233" transform="translate(154.911 62.922)" fill="#eaeaea"/>
      <rect id="Rectangle_1029" data-name="Rectangle 1029" width="22.614" height="5.233" transform="translate(79.016 71.911)" fill="#eaeaea"/>
      <rect id="Rectangle_1030" data-name="Rectangle 1030" width="87.139" height="5.233" transform="translate(105.55 71.911)" fill="#eaeaea"/>
      <rect id="Rectangle_1031" data-name="Rectangle 1031" width="113.673" height="5.233" transform="translate(79.016 80.9)" fill="#eaeaea"/>
      <rect id="Rectangle_1032" data-name="Rectangle 1032" width="113.673" height="5.233" transform="translate(79.016 89.888)" fill="#eaeaea"/>
      <rect id="Rectangle_1033" data-name="Rectangle 1033" width="90.154" height="5.233" transform="translate(79.016 98.877)" fill="#eaeaea"/>
      <rect id="Rectangle_1034" data-name="Rectangle 1034" width="18.889" height="5.233" transform="translate(192.689 104.11) rotate(180)" fill="#eaeaea"/>
      <rect id="Rectangle_1035" data-name="Rectangle 1035" width="75.895" height="5.233" transform="translate(79.016 107.866)" fill="#eaeaea"/>
    </g>
    <g id="Group_4518" data-name="Group 4518" transform="translate(206.865)">
      <rect id="Rectangle_1036" data-name="Rectangle 1036" width="84.825" height="5.233" fill="#eaeaea"/>
      <rect id="Rectangle_1037" data-name="Rectangle 1037" width="23.84" height="5.233" transform="translate(0 8.989)" fill="#eaeaea"/>
      <rect id="Rectangle_1038" data-name="Rectangle 1038" width="59.174" height="5.233" transform="translate(25.651 8.989)" fill="#eaeaea"/>
      <rect id="Rectangle_1039" data-name="Rectangle 1039" width="84.825" height="5.233" transform="translate(0 17.978)" fill="#eaeaea"/>
      <rect id="Rectangle_1040" data-name="Rectangle 1040" width="33.261" height="5.233" transform="translate(51.565 26.967)" fill="#eaeaea"/>
      <rect id="Rectangle_1041" data-name="Rectangle 1041" width="48.59" height="5.233" transform="translate(0 26.967)" fill="#eaeaea"/>
      <rect id="Rectangle_1042" data-name="Rectangle 1042" width="84.825" height="5.233" transform="translate(0 35.955)" fill="#eaeaea"/>
      <rect id="Rectangle_1043" data-name="Rectangle 1043" width="84.825" height="5.233" transform="translate(0 44.944)" fill="#eaeaea"/>
      <rect id="Rectangle_1044" data-name="Rectangle 1044" width="84.825" height="5.233" transform="translate(0 53.933)" fill="#eaeaea"/>
      <rect id="Rectangle_1045" data-name="Rectangle 1045" width="84.825" height="5.233" transform="translate(0 62.922)" fill="#eaeaea"/>
      <rect id="Rectangle_1046" data-name="Rectangle 1046" width="84.825" height="5.233" transform="translate(0 71.911)" fill="#eaeaea"/>
      <rect id="Rectangle_1047" data-name="Rectangle 1047" width="84.825" height="5.233" transform="translate(0 80.9)" fill="#eaeaea"/>
      <rect id="Rectangle_1048" data-name="Rectangle 1048" width="22.261" height="5.233" transform="translate(0 89.888)" fill="#eaeaea"/>
      <rect id="Rectangle_1049" data-name="Rectangle 1049" width="58.895" height="5.233" transform="translate(25.931 89.888)" fill="#eaeaea"/>
      <rect id="Rectangle_1050" data-name="Rectangle 1050" width="84.825" height="5.233" transform="translate(0 98.877)" fill="#eaeaea"/>
      <rect id="Rectangle_1051" data-name="Rectangle 1051" width="84.825" height="5.233" transform="translate(0 107.866)" fill="#eaeaea"/>
      <rect id="Rectangle_1052" data-name="Rectangle 1052" width="84.825" height="5.233" transform="translate(0 116.855)" fill="#eaeaea"/>
      <rect id="Rectangle_1053" data-name="Rectangle 1053" width="84.825" height="5.233" transform="translate(0 125.844)" fill="#eaeaea"/>
      <rect id="Rectangle_1054" data-name="Rectangle 1054" width="60.364" height="5.233" transform="translate(0 134.833)" fill="#eaeaea"/>
      <rect id="Rectangle_1055" data-name="Rectangle 1055" width="19.954" height="5.233" transform="translate(64.872 134.833)" fill="#eaeaea"/>
      <rect id="Rectangle_1056" data-name="Rectangle 1056" width="84.825" height="5.233" transform="translate(0 143.822)" fill="#eaeaea"/>
      <rect id="Rectangle_1057" data-name="Rectangle 1057" width="84.825" height="5.233" transform="translate(0 152.81)" fill="#eaeaea"/>
      <rect id="Rectangle_1058" data-name="Rectangle 1058" width="84.825" height="5.233" transform="translate(0 161.799)" fill="#eaeaea"/>
      <rect id="Rectangle_1059" data-name="Rectangle 1059" width="84.825" height="5.233" transform="translate(0 170.788)" fill="#eaeaea"/>
      <rect id="Rectangle_1060" data-name="Rectangle 1060" width="84.825" height="5.233" transform="translate(0 179.777)" fill="#eaeaea"/>
      <rect id="Rectangle_1061" data-name="Rectangle 1061" width="84.825" height="5.233" transform="translate(0 188.766)" fill="#eaeaea"/>
      <rect id="Rectangle_1062" data-name="Rectangle 1062" width="55.238" height="5.233" transform="translate(0 197.754)" fill="#eaeaea"/>
    </g>
    <g id="Group_4519" data-name="Group 4519" transform="translate(0 145.64)">
      <rect id="Rectangle_1063" data-name="Rectangle 1063" width="71.931" height="57.347" fill="#eaeaea"/>
      <path id="Path_9317" data-name="Path 9317" d="M3247.976,1380.344l-18.991,36.587h37.983Z" transform="translate(-3220.056 -1365.495)" fill="#c1c1c1"/>
      <path id="Path_9318" data-name="Path 9318" d="M3253.537,1387.267l-4.568,8.8,8.184,15.764h9.135Z" transform="translate(-3205.338 -1360.395)" fill="#c1c1c1"/>
      <path id="Path_9319" data-name="Path 9319" d="M3261.268,1380.806a3.963,3.963,0,1,1-3.962-3.962A3.962,3.962,0,0,1,3261.268,1380.806Z" transform="translate(-3202.117 -1368.072)" fill="#c1c1c1"/>
    </g>
  </g>
  <g id="Group_4521" data-name="Group 4521" transform="translate(93.445 126.162)">
    <path id="Path_9320" data-name="Path 9320" d="M3256.225,1338.37l-20.469-26.87v26.87h-9.179V1296.1h8.577l19.806,26.026V1296.1h9.177v42.268Z" transform="translate(-3226.577 -1295.498)" fill="#e9c464"/>
    <path id="Path_9321" data-name="Path 9321" d="M3254.048,1338.37V1296.1h31.882v8.272h-22.645v8.574h19.929v8.272h-19.929v8.878h22.947v8.271Z" transform="translate(-3206.347 -1295.498)" fill="#e9c464"/>
    <path id="Path_9322" data-name="Path 9322" d="M3325.165,1338.724h-8.092l-9.54-27.656-9.542,27.656H3289.9l-14.432-42.57h9.964l8.755,28.621,9.481-28.743h7.971l9.481,28.743,8.755-28.621h9.72Z" transform="translate(-3190.572 -1295.549)" fill="#e9c464"/>
    <path id="Path_9323" data-name="Path 9323" d="M3331.931,1339.231a26.89,26.89,0,0,1-17.934-6.763l5.494-6.583c3.806,3.141,7.79,5.135,12.622,5.135,3.8,0,6.1-1.511,6.1-3.985v-.121c0-2.354-1.448-3.563-8.513-5.373-8.514-2.174-14.008-4.53-14.008-12.924v-.12c0-7.668,6.159-12.742,14.793-12.742a24.462,24.462,0,0,1,15.7,5.376l-4.831,7c-3.744-2.6-7.427-4.168-10.99-4.168s-5.435,1.632-5.435,3.683v.124c0,2.776,1.813,3.683,9.118,5.555,8.574,2.233,13.407,5.313,13.407,12.681v.12C3347.451,1334.521,3341.048,1339.231,3331.931,1339.231Z" transform="translate(-3162.198 -1295.754)" fill="#e9c464"/>
  </g>
  <g id="Group_4530" data-name="Group 4530" transform="translate(268.591)">
    <g id="Group_4529" data-name="Group 4529" transform="translate(0 9.548)">
      <g id="Group_4528" data-name="Group 4528">
        <path id="Path_9324" data-name="Path 9324" d="M3348.312,1256.392s-4.046-2.855-4.19-4.053-2.964-6.057-3.867-7.024-5.645-2.61-6.656-2.756-6.817.349-6.095,1.141,4.48.5,5.2.938l.722.432s-.722.979-.434,1.575-1.239,1.505-.662,2.516-.234.943.283,2c.854,1.742,3.041,2.713,3.619,2.237.434,1.031,2.092,3.136,3.646,2.991s5.331,3.4,5.331,3.4" transform="translate(-3327.442 -1218.333)" fill="#ffd3b3"/>
        <path id="Path_9325" data-name="Path 9325" d="M3381.413,1238.819c.137,2.718-.055,7.449.723,8.151s3.289.592,3.289.592-8.977,11.351-9.78,10.728-11.421-9.276-9.035-9.724,4.721-.351,4.654-1.585-.135-2.471-.2-3.706" transform="translate(-3298.855 -1221.069)" fill="#ffd3b3"/>
        <path id="Path_9326" data-name="Path 9326" d="M3394.458,1295.864s-17.516,1.988-21.547,2.071-3.833-2.023-3.833-2.023c-.205-4.438-.957-14.9-1.792-18.441-.778-3.309-3.2-4.04-3.882-7.185-1.507-6.989.639-8.816-.957-17.443l10.463-8.409s1.083,3.218,5.468,3.273c5.862.075,7.686-4.032,7.686-4.032l14.27,9.476,1.339,23.046-1.707,18.979" transform="translate(-3301.662 -1217.493)" fill="#f4a25d"/>
        <path id="Path_9327" data-name="Path 9327" d="M3382.834,1243.885a30.492,30.492,0,0,1-1.234,4.027c-.926,2.4-2.289,3.268-4.833,3.329l-5.364.127c-1.372.033-3.08.08-4.188-.884s-1.123-2.561-1.366-3.884q-.467-2.537-.761-5.1a75.148,75.148,0,0,1-.472-10.09,7.184,7.184,0,0,1,.12-1.381,1,1,0,0,1,.229-.507,1.127,1.127,0,0,1,.644-.248,55.066,55.066,0,0,1,10.14-.65c2.394.068,4.931.347,6.825,1.813s2.813,3.87,3.63,6.14c.13.365.228.851-.088,1.073" transform="translate(-3300.078 -1228.597)" fill="#ffd3b3"/>
        <g id="Group_4525" data-name="Group 4525" transform="translate(26.767 76.794)">
          <g id="Group_4522" data-name="Group 4522" transform="translate(7.78 61.619)">
            <path id="Path_9328" data-name="Path 9328" d="M3352.476,1310.744a38.294,38.294,0,0,0,1.045,4.676c.464,1.189,4.371.092,4.629-.677s-1.229-6.435-1.229-6.435" transform="translate(-3343.553 -1308.308)" fill="#ed9c80"/>
            <path id="Path_9329" data-name="Path 9329" d="M3363.294,1313.172c.338,1.283.766,3.749.766,3.749l-3.907,1.7-.641-.6a7.228,7.228,0,0,1-2.167,1.728,16.24,16.24,0,0,1-3.781,1.049c-3.41.366-5.919-.275-6.122-.747-.846-1.976,3.68-2.506,4.577-2.742a6,6,0,0,0,4.286-4.294c.2-1.035-.057-1.217.521-1.186a1.378,1.378,0,0,1,.978.46,2.467,2.467,0,0,0,2.775.644,2.95,2.95,0,0,0,1.384-1.153A1.7,1.7,0,0,1,3363.294,1313.172Z" transform="translate(-3347.338 -1305.752)" fill="#38287c"/>
          </g>
          <g id="Group_4523" data-name="Group 4523">
            <path id="Path_9330" data-name="Path 9330" d="M3376.823,1291.227a66.2,66.2,0,0,1-19.941.472c.863,2.474,2.978,5.643,3.784,9.125,2.66,11.5,3.584,26.953,4.259,36.51,0,0-1.276,2.454-5.371.585-6.115-15.106-16.795-45.719-16.7-52.361.126-8.455,21.229-10.5,36.7-12.581" transform="translate(-3342.858 -1272.706)" fill="#262626"/>
            <path id="Path_9331" data-name="Path 9331" d="M3402.8,1274.414c4.863,3.551-26.958,16.929-26.958,16.929a52.753,52.753,0,0,1-10.429.995,7.582,7.582,0,0,1-.776-1.973c-.188-.924-.086-1.886-.248-2.813a6.539,6.539,0,0,0-3.18-4.285,14.344,14.344,0,0,0-5.2-1.685c-4.3-.694-11.815-.208-11.815-.208,9.564-7.05,29.132-7.972,38.247-8.552C3384.184,1275.7,3402.1,1273.906,3402.8,1274.414Z" transform="translate(-3341.875 -1272.822)" fill="#262626"/>
          </g>
          <g id="Group_4524" data-name="Group 4524" transform="translate(16.012 70.466)">
            <path id="Path_9332" data-name="Path 9332" d="M3358.285,1315.032a38.287,38.287,0,0,0,.219,4.786c.25,1.252,4.289.849,4.676.136s-.1-6.55-.1-6.55" transform="translate(-3347.509 -1313.403)" fill="#ed9c80"/>
            <path id="Path_9333" data-name="Path 9333" d="M3368.919,1318.92c.111,1.325.1,3.825.1,3.825l-4.141,1-.528-.7a7.216,7.216,0,0,1-2.433,1.327,16.24,16.24,0,0,1-3.906.377c-3.421-.229-5.781-1.3-5.9-1.8-.492-2.092,4.056-1.83,4.981-1.907a6,6,0,0,0,4.964-3.486c.377-.985.156-1.209.721-1.077a1.377,1.377,0,0,1,.882.622,2.465,2.465,0,0,0,2.622,1.115,2.952,2.952,0,0,0,1.563-.894A1.7,1.7,0,0,1,3368.919,1318.92Z" transform="translate(-3352.079 -1311.165)" fill="#38287c"/>
          </g>
          <path id="Path_9334" data-name="Path 9334" d="M3404.492,1273.334a197.623,197.623,0,0,1-21.558.688c-2.754,0-23.579,3.907-25.57,7.436-3.277,5.8,2.138,39.73,1.636,64.017,0,0,2.5,2.083,6.913.125,1.1-11.931,8.148-40.077,3.284-53.217,11.481,1.524,20.744,3.037,31.18-.422,2.443-.809,4.27-2.535,5.368-5.694S3406.27,1276.167,3404.492,1273.334Z" transform="translate(-3332.955 -1272.445)" fill="#262626"/>
        </g>
        <g id="Group_4526" data-name="Group 4526" transform="translate(13.394 26.941)">
          <path id="Path_9335" data-name="Path 9335" d="M3393.011,1244.112s-2.5.137-2.99.177c-2.087.165-4.211,2.176-6.185,2.907-2.837,1.051-4.839,3.69-7.149,5.753-2.224,1.988-13.75,11.234-15.9,11.641s-21.023-12.53-21.023-12.53l-4.607,4.609s20.478,18.922,26.585,18.955c2.964.015,19.311-8.59,24.543-11.935Z" transform="translate(-3335.156 -1244.112)" fill="#f4a25d"/>
          <path id="Path_9336" data-name="Path 9336" d="M3383.561,1253.4s-17.3,13.395-21.773,13.647c-4.209.238-23.5-14.5-25.738-16.215l-.894.894s20.478,18.922,26.585,18.955c2.471.012,14.228-5.959,21.106-9.887" transform="translate(-3335.156 -1239.166)" fill="#ce4a30" opacity="0.25"/>
        </g>
        <g id="Group_4527" data-name="Group 4527" transform="translate(10.718 51.522)">
          <path id="Path_9337" data-name="Path 9337" d="M3342.724,1288.215H3389.6l-8.406-27.4a3.6,3.6,0,0,0-3.443-2.546H3336.7a2.335,2.335,0,0,0-2.233,3.022Z" transform="translate(-3333.066 -1258.268)" fill="#2e5763"/>
          <path id="Path_9338" data-name="Path 9338" d="M3342.684,1288.215h46.17l-8.4-27.4a3.6,3.6,0,0,0-3.445-2.546h-41.051a2.337,2.337,0,0,0-2.235,3.022l8.052,26.251A.954.954,0,0,0,3342.684,1288.215Z" transform="translate(-3333.615 -1258.268)" fill="#264653"/>
        </g>
        <path id="Path_9339" data-name="Path 9339" d="M3393.052,1257.641c-2.332,10.549-2.745,18.8-3.406,26.347-8.19,3.179-11.526,7.913-19.541,11.48,0,0-6.33-1.051-6.993,1.337-.384,1.377,7.41,2.473,7.41,2.473,7.429.035,27.019-5.394,28.344-5.758s3.45-23.531,3.6-37.045c.021-1.919-.047-4-1.247-5.5a7.212,7.212,0,0,0-2.417-1.789c-5.227-2.672-7.363-5.138-13.221-5.511" transform="translate(-3301.183 -1217.493)" fill="#ce4a30" opacity="0.25"/>
        <path id="Path_9340" data-name="Path 9340" d="M3373.338,1274.968c-.881-1.108-2.485-1.269-3.9-1.234a28.593,28.593,0,0,0-3.132.25c-.472.064-1.018.175-1.066.688s2.3,0,3.525.356a61.963,61.963,0,0,1-7.248.2,2.074,2.074,0,0,0-.835.085.694.694,0,0,0-.469.635.872.872,0,0,0,.332.552,4.9,4.9,0,0,0,2.493,1,19.218,19.218,0,0,0,11.018-.973" transform="translate(-3303.31 -1195.36)" fill="#ffd3b3"/>
        <path id="Path_9341" data-name="Path 9341" d="M3389.572,1257.443c-.193,11.276-.993,16.437-.774,27.713-5.66,1.21-13.5,7.62-21.513,11.188a4.233,4.233,0,0,0,.265,2.933c.612.224,27.036-6.209,29.138-8.146,1.891-1.743,2.656-21.143,2.811-34.657.02-1.919-.047-4-1.247-5.5a7.21,7.21,0,0,0-2.417-1.789c-5.227-2.672-7.363-5.138-13.221-5.511" transform="translate(-3298.211 -1217.493)" fill="#f4a25d"/>
      </g>
    </g>
    <path id="Path_9342" data-name="Path 9342" d="M3374.22,1225.411c-2.921.057-6.569,3-7.834,4.428a8.792,8.792,0,0,0-2.37,4.86,4.411,4.411,0,0,0,.607,2.956q2.981-.446,5.958-.887a1.21,1.21,0,0,0,.648-.233,1.394,1.394,0,0,0,.316-.719,4.4,4.4,0,0,1,2.283-2.806,5.7,5.7,0,0,0-.189,3.994c.206.4,2.906.155,4.358.167,1.561.012,4.971,1.268,5.623-.153.4-.865-.911-2.648-1.1-3.58a12.019,12.019,0,0,0-1.547-4.475,4.1,4.1,0,0,0-4.052-1.924" transform="translate(-3300.542 -1221.396)" fill="#e9c464"/>
    <path id="Path_9343" data-name="Path 9343" d="M3379.143,1236.612a10.979,10.979,0,0,0-.461,1.924,11.96,11.96,0,0,0-.909,3.693,1.383,1.383,0,0,0,.766,1.129c.539.189.26-.611,1.021-.929.613-.255,1.717.106,2.266,1.537.337.88.091,3.834-1.351,4.162a.947.947,0,0,0-.7.6,1.2,1.2,0,0,0,.368.965c.29.268,1.889,2.087,3.24,1.554.7.123,1.676-.585,2.311-.879a11.42,11.42,0,0,0,3.362-2.662c3.812-4.048,4.517-11.585,1.32-16.409-3.417-5.156-17.76-10.6-24.376-1.089" transform="translate(-3299.047 -1221.699)" fill="#e9c464"/>
    <path id="Path_9344" data-name="Path 9344" d="M3377.381,1230.769c-1.231-.043-1.693-2.344-1.653-3.253a4.948,4.948,0,0,1,2.9-4.053c2.966-1.314,7.139,1.08,6.615,4.567-.4,2.634-2.619,3.263-4.916,4.077" transform="translate(-3291.885 -1223.098)" fill="#e9c464"/>
  </g>
  <g id="Group_4531" data-name="Group 4531" transform="translate(286.78 3.804)">
    <path id="Path_9345" data-name="Path 9345" d="M3365.71,1245.454c-1.37,1.684-27.04,2.2-27.788.695-.144-.287,2.858-1.785,2.721-2.908-.58-4.752-.931-15.22.431-16.46,1.685-1.533,23.025-2.4,24.636,0S3367.079,1243.77,3365.71,1245.454Z" transform="translate(-3337.917 -1225.289)" fill="#eaeaea"/>
    <path id="Path_9346" data-name="Path 9346" d="M3347.335,1227.784l-6.5,12.531h13.009Z" transform="translate(-3335.771 -1223.452)" fill="#2a9d8e"/>
    <path id="Path_9347" data-name="Path 9347" d="M3349.239,1230.155l-1.564,3.014,2.8,5.4h3.129Z" transform="translate(-3330.731 -1221.705)" fill="#2a9d8e"/>
    <path id="Path_9348" data-name="Path 9348" d="M3351.73,1229.38a1.357,1.357,0,1,1-1.358-1.358A1.357,1.357,0,0,1,3351.73,1229.38Z" transform="translate(-3329.743 -1223.276)" fill="#2a9d8e"/>
  </g>
  <g id="Group_4540" data-name="Group 4540" transform="translate(220.028 30.021)">
    <g id="Group_4532" data-name="Group 4532">
      <path id="Path_9349" data-name="Path 9349" d="M3301.258,1272.511c2.181,2.684,43.076,3.5,44.267,1.108.229-.457-4.553-2.846-4.334-4.635.924-7.571,1.483-24.246-.686-26.22-2.682-2.443-36.68-3.82-39.247,0S3299.078,1269.828,3301.258,1272.511Z" transform="translate(-3299.475 -1240.387)" fill="#eaeaea"/>
    </g>
    <g id="Group_4539" data-name="Group 4539" transform="translate(11.406 6.294)">
      <g id="Group_4533" data-name="Group 4533">
        <path id="Path_9350" data-name="Path 9350" d="M3316.593,1265.111a10.55,10.55,0,1,1,10.551-10.549A10.561,10.561,0,0,1,3316.593,1265.111Zm0-20.026a9.478,9.478,0,1,0,9.479,9.478A9.487,9.487,0,0,0,3316.593,1245.085Z" transform="translate(-3306.044 -1244.012)" fill="#2a9d8e"/>
      </g>
      <g id="Group_4534" data-name="Group 4534" transform="translate(5.829)">
        <path id="Path_9351" data-name="Path 9351" d="M3314.12,1265.111c-2.646,0-4.72-4.633-4.72-10.549s2.073-10.551,4.72-10.551,4.721,4.635,4.721,10.551S3316.769,1265.111,3314.12,1265.111Zm0-20.026c-1.724,0-3.646,3.891-3.646,9.478s1.922,9.477,3.646,9.477,3.648-3.893,3.648-9.477S3315.847,1245.085,3314.12,1245.085Z" transform="translate(-3309.401 -1244.012)" fill="#2a9d8e"/>
      </g>
      <g id="Group_4535" data-name="Group 4535" transform="translate(0.814 7.123)">
        <rect id="Rectangle_1064" data-name="Rectangle 1064" width="20.027" height="1.073" transform="translate(0 5.829) rotate(-16.92)" fill="#2a9d8e"/>
      </g>
      <g id="Group_4538" data-name="Group 4538" transform="translate(2.612 3.752)">
        <g id="Group_4536" data-name="Group 4536">
          <path id="Path_9352" data-name="Path 9352" d="M3315.485,1249.049c-5.808,0-7.85-2.039-7.937-2.125l.772-.747-.387.373.382-.377c.017.017,1.876,1.8,7.169,1.8s7.154-1.785,7.173-1.8l.766.75C3323.339,1247.01,3321.3,1249.049,3315.485,1249.049Z" transform="translate(-3307.548 -1246.173)" fill="#2a9d8e"/>
        </g>
        <g id="Group_4537" data-name="Group 4537" transform="translate(0 10.721)">
          <path id="Path_9353" data-name="Path 9353" d="M3308.315,1255.222l-.768-.75c.087-.086,2.129-2.125,7.937-2.125s7.854,2.039,7.939,2.125l-.771.747c-.014-.014-1.872-1.8-7.168-1.8S3308.333,1255.205,3308.315,1255.222Z" transform="translate(-3307.548 -1252.347)" fill="#2a9d8e"/>
        </g>
      </g>
    </g>
  </g>
  <g id="Group_4541" data-name="Group 4541" transform="translate(375.138 13.72)">
    <path id="Path_9354" data-name="Path 9354" d="M3390.738,1245.466a8.837,8.837,0,1,1,6.918,3.36,8.772,8.772,0,0,1-4.906-1.495l-3.427,1.839Z" transform="translate(-3388.802 -1231)" fill="#eaeaea"/>
    <path id="Path_9355" data-name="Path 9355" d="M3399.382,1234.995a2.148,2.148,0,0,0-3.056.033l-.552.566-.566-.563a2.152,2.152,0,0,0-3.058.023,2.188,2.188,0,0,0,.024,3.079l2.1,2.086.012.014a2.153,2.153,0,0,0,3.058-.033l2.069-2.127A2.186,2.186,0,0,0,3399.382,1234.995Z" transform="translate(-3386.794 -1228.516)" fill="#2a9d8e"/>
  </g>
  <g id="Group_4544" data-name="Group 4544" transform="translate(0 192.797)">
    <path id="Path_9356" data-name="Path 9356" d="M3200.917,1345.706l2.015,18.538,2.045-13.447q.432.641.849,1.309c8.137,13.117,7.173,33.235,7.173,33.235l4.55-20.622a59.586,59.586,0,0,1,11.153,21.765l-9.28,23.242,11.126-14.624c3.005,17.38-.57,27.061-.57,27.061l7.552-5.14a82.89,82.89,0,0,1,3.25,19.361c.214,9.465-5.155,18.432-5.155,18.432l5.22-2a31.505,31.505,0,0,1-10.9,28.738l-45.84-147.425A47.543,47.543,0,0,1,3200.917,1345.706Z" transform="translate(-3164.412 -1334.129)" fill="#305966"/>
    <path id="Path_9357" data-name="Path 9357" d="M3192.454,1334.129l45.84,147.425s-13.706-.337-21.724-5.051-8.159-10.674-8.159-10.674l8.59.957s-12.777-7.882-20.564-16.4S3187,1429.73,3187,1429.73l14.579,2.915s-14.542-12.344-20.653-22.706-6.321-25.069-6.321-25.069l12.666,4.022s-8.554-10.385-11.879-20.674-2.549-15.411-2.549-15.411l9.281,5.6s-2.064-9.4-1.368-16.279S3192.454,1334.129,3192.454,1334.129Z" transform="translate(-3172.762 -1334.129)" fill="#264653"/>
    <g id="Group_4542" data-name="Group 4542" transform="translate(31.567 13.889)">
      <line id="Line_28" data-name="Line 28" x2="1.279" y2="16.546" fill="none" stroke="#1f7264" stroke-miterlimit="10" stroke-width="1"/>
      <line id="Line_29" data-name="Line 29" x1="1.606" y2="10.559" transform="translate(5.587 21.825)" fill="none" stroke="#1f7264" stroke-miterlimit="10" stroke-width="1"/>
      <line id="Line_30" data-name="Line 30" x1="3.082" y2="20.263" transform="translate(8.677 22.52)" fill="none" stroke="#1f7264" stroke-miterlimit="10" stroke-width="1"/>
      <line id="Line_31" data-name="Line 31" x1="3.051" y2="12.383" transform="translate(13.281 40.443)" fill="none" stroke="#1f7264" stroke-miterlimit="10" stroke-width="1"/>
      <line id="Line_32" data-name="Line 32" x1="7.718" y2="29.631" transform="translate(16.769 34.821)" fill="none" stroke="#1f7264" stroke-miterlimit="10" stroke-width="1"/>
      <line id="Line_33" data-name="Line 33" x1="4.026" y2="12.197" transform="translate(19.419 61.71)" fill="none" stroke="#1f7264" stroke-miterlimit="10" stroke-width="1"/>
      <line id="Line_34" data-name="Line 34" x1="10.344" y2="28.21" transform="translate(22.083 57.49)" fill="none" stroke="#1f7264" stroke-miterlimit="10" stroke-width="1"/>
      <line id="Line_35" data-name="Line 35" x1="6.773" y2="17.657" transform="translate(26.481 78.931)" fill="none" stroke="#1f7264" stroke-miterlimit="10" stroke-width="1"/>
      <line id="Line_36" data-name="Line 36" x1="9.267" y2="22.534" transform="translate(30.49 82.256)" fill="none" stroke="#1f7264" stroke-miterlimit="10" stroke-width="1"/>
      <line id="Line_37" data-name="Line 37" x1="6.126" y2="14.057" transform="translate(32.233 98.466)" fill="none" stroke="#1f7264" stroke-miterlimit="10" stroke-width="1"/>
      <line id="Line_38" data-name="Line 38" x1="6.193" y2="11.391" transform="translate(32.829 110.33)" fill="none" stroke="#1f7264" stroke-miterlimit="10" stroke-width="1"/>
      <line id="Line_39" data-name="Line 39" x1="6.311" y2="9.001" transform="translate(35.131 116.865)" fill="none" stroke="#1f7264" stroke-miterlimit="10" stroke-width="1"/>
    </g>
    <g id="Group_4543" data-name="Group 4543" transform="translate(13.027 11.211)">
      <line id="Line_40" data-name="Line 40" x2="8.49" y2="14.259" fill="none" stroke="#1f7264" stroke-miterlimit="10" stroke-width="1"/>
      <line id="Line_41" data-name="Line 41" x2="7.398" y2="7.704" transform="translate(6.701 21.981)" fill="none" stroke="#1f7264" stroke-miterlimit="10" stroke-width="1"/>
      <line id="Line_42" data-name="Line 42" x2="14.196" y2="14.783" transform="translate(3.37 25.18)" fill="none" stroke="#1f7264" stroke-miterlimit="10" stroke-width="1"/>
      <line id="Line_43" data-name="Line 43" x2="9.631" y2="8.361" transform="translate(9.962 42.463)" fill="none" stroke="#1f7264" stroke-miterlimit="10" stroke-width="1"/>
      <line id="Line_44" data-name="Line 44" x2="23.385" y2="19.767" transform="translate(0.057 42.569)" fill="none" stroke="#1f7264" stroke-miterlimit="10" stroke-width="1"/>
      <line id="Line_45" data-name="Line 45" x2="10.32" y2="7.648" transform="translate(16.406 63.942)" fill="none" stroke="#1f7264" stroke-miterlimit="10" stroke-width="1"/>
      <line id="Line_46" data-name="Line 46" x2="24.712" y2="17.092" transform="translate(6.633 65.67)" fill="none" stroke="#1f7264" stroke-miterlimit="10" stroke-width="1"/>
      <line id="Line_47" data-name="Line 47" x2="15.712" y2="10.526" transform="translate(18.315 83.669)" fill="none" stroke="#1f7264" stroke-miterlimit="10" stroke-width="1"/>
      <line id="Line_48" data-name="Line 48" x2="20.56" y2="13.074" transform="translate(14.917 90.133)" fill="none" stroke="#1f7264" stroke-miterlimit="10" stroke-width="1"/>
      <line id="Line_49" data-name="Line 49" x2="13.108" y2="7.957" transform="translate(25.402 102.575)" fill="none" stroke="#1f7264" stroke-miterlimit="10" stroke-width="1"/>
      <line id="Line_50" data-name="Line 50" x2="11.626" y2="5.74" transform="translate(31.699 112.652)" fill="none" stroke="#1f7264" stroke-miterlimit="10" stroke-width="1"/>
      <line id="Line_51" data-name="Line 51" x2="10.345" y2="3.718" transform="translate(33.486 119.388)" fill="none" stroke="#1f7264" stroke-miterlimit="10" stroke-width="1"/>
    </g>
  </g>
  <g id="Group_4547" data-name="Group 4547" transform="translate(18.917 236.344)">
    <path id="Path_9358" data-name="Path 9358" d="M3203.7,1387.106a107.6,107.6,0,0,1,12.967,44.493,105.572,105.572,0,0,1,.062,13.224.98.98,0,0,0,.646,1.09.96.96,0,0,0,1.17-.488l.542-1.342c.464-1.15-1.272-1.994-1.738-.841l-.542,1.342,1.816.6a109.016,109.016,0,0,0-1.195-23.9A108.628,108.628,0,0,0,3205.283,1386a.969.969,0,0,0-1.342-.242.986.986,0,0,0-.242,1.344Z" transform="translate(-3169.012 -1339.773)" fill="#2a9d8e"/>
    <path id="Path_9359" data-name="Path 9359" d="M3224.269,1370.4c2.252,6.074-1.8,16.362-3.785,16.982s2.764-15.239.6-18.193-8.586-5.174-8.586-5.174c1.378,1.559,1.929,11.427-.352,12.711s.163-5.932-1.66-11.245-16.713-6.272-16.713-6.272a12.9,12.9,0,0,1-2.672,9.181c-3.381,4.072-10.1,11.365-6.169,17.154,3.019,4.452,17.376,1.563,16.343,2.394s-13.212,4.687-17.618-.174c0,0-.182,14.786,7.9,16.4s16.29-1,15.72.658-13.5,3.86-19.67-1.174c0,0,6.048,21.429,20.192,20.473s14.147-14.878,14.147-14.878c13.576,3.367,19.658-4.9,19.273-14.8C3240.882,1385.669,3224.269,1370.4,3224.269,1370.4Zm-28.428,25.8a11.092,11.092,0,0,1-2.813,1.219c-.88.1-1.2-.639-.724-1.285.676-.908,1.4-1.695,2.3-1.3S3196.253,1395.91,3195.84,1396.195Zm15.543,12.395c-2,1.28-6.738,3.794-8.2,3.521a1.686,1.686,0,0,1-1.271-1.684c.293-1.266,1.293-1.985,3.66-2.325s5.595-3.046,6.309-2.612S3213.376,1407.31,3211.383,1408.589Zm-5.136-16.166c-.2.946-3.7,2.391-4.756,2.679-1.516.413-3.527,2.089-3.709,0-.111-1.259,2.256-2.211,4.4-2.48S3206.444,1391.477,3206.247,1392.423Zm-1.356-18.762a3.5,3.5,0,0,1,.115-2.73c.884-2.325,1.914-3.742,2.23-1.882s.809,4.3.368,4.909l-.014.019A1.571,1.571,0,0,1,3204.891,1373.661Zm21.07,21.315c-3.671,3.635-6.112,6.81-6.363,3.584,0,0-.322-1.544,1.882-3.332s2.181-3.5,3.719-4.522S3229.631,1391.343,3225.96,1394.976Zm4.933-6.537c-1.8,1.141-2.344,2.023-2.994,1.29a1.564,1.564,0,0,1-.267-1.6,5.022,5.022,0,0,1,1.926-2.2C3230.341,1385.432,3233.146,1387.014,3230.893,1388.438Z" transform="translate(-3183.657 -1359.207)" fill="#2a9d8e"/>
    <g id="Group_4546" data-name="Group 4546" transform="translate(10.117)">
      <g id="Group_4545" data-name="Group 4545">
        <path id="Path_9360" data-name="Path 9360" d="M3195.454,1388.9c-.926.226-1.847.431-2.749.623-.43.094-.264.755.165.663.932-.2,1.882-.413,2.837-.65A2.042,2.042,0,0,1,3195.454,1388.9Z" transform="translate(-3187.295 -1337.339)" fill="#2a9d8e"/>
        <path id="Path_9361" data-name="Path 9361" d="M3212.461,1402.222l.05-.092a.393.393,0,0,0,.035-.116q1.544-1.18,2.989-2.473a2.14,2.14,0,0,1-.2-.724q-1.6,1.448-3.32,2.756c-.733-1.069-1.443-2.151-2.114-3.249-1.54-2.526-2.914-5.135-4.2-7.788a22,22,0,0,0,7.04-15.977.342.342,0,0,0-.683-.01,21.312,21.312,0,0,1-6.668,15.341c-1.587-3.316-3.044-6.7-4.521-10.073a18.955,18.955,0,0,0,1.4-5.225,1.617,1.617,0,0,1-.675-.052,17.906,17.906,0,0,1-1.1,4.415c-1.231-2.8-2.483-5.594-3.841-8.335a73.838,73.838,0,0,0-6.838-11.389c-.212-.017-.329-.024-.329-.024s.041.293.056.792c4.352,5.939,7.455,12.681,10.417,19.426a19.123,19.123,0,0,1-8.805-2.672.341.341,0,0,0-.345.589,19.862,19.862,0,0,0,9.418,2.782l.038,0q.685,1.566,1.368,3.129c1.927,4.393,3.905,8.774,6.249,12.962a28.988,28.988,0,0,1-15.213,2.536c-.439-.045-.446.637-.011.682a29.649,29.649,0,0,0,15.56-2.624l.051.087c1.053,1.842,2.207,3.615,3.405,5.357a13.573,13.573,0,0,1-3.438,3.971,1.406,1.406,0,0,1,.114.771,14.239,14.239,0,0,0,3.753-4.12c1.583,2.273,3.235,4.5,4.839,6.761.212.3.422.594.631.895.057-.491.077-.863.087-1.077C3215.942,1407.028,3214.149,1404.649,3212.461,1402.222Z" transform="translate(-3189.483 -1359.207)" fill="#1f7264"/>
        <path id="Path_9362" data-name="Path 9362" d="M3209.55,1376.909a1.44,1.44,0,0,1-.2-.294c-.252.38-.51.755-.773,1.129a1.4,1.4,0,0,1,.535.422c.241-.344.481-.69.714-1.04A.836.836,0,0,1,3209.55,1376.909Z" transform="translate(-3175.423 -1346.387)" fill="#2a9d8e"/>
        <path id="Path_9363" data-name="Path 9363" d="M3196.093,1363.97a18.669,18.669,0,0,1,.5,2.115,4.222,4.222,0,0,1,.54-.809c-.106-.495-.229-.984-.377-1.47C3196.629,1363.384,3195.966,1363.549,3196.093,1363.97Z" transform="translate(-3184.627 -1356.001)" fill="#2a9d8e"/>
      </g>
    </g>
  </g>
  <g id="Group_4550" data-name="Group 4550" transform="translate(387.225 192.797)">
    <path id="Path_9364" data-name="Path 9364" d="M3436.052,1345.706l-2.013,18.538-2.045-13.447q-.432.641-.849,1.309c-8.137,13.117-7.175,33.235-7.175,33.235l-4.548-20.622a59.6,59.6,0,0,0-11.154,21.765l9.279,23.242-11.123-14.624c-3.006,17.38.569,27.061.569,27.061l-7.553-5.14a82.906,82.906,0,0,0-3.25,19.361c-.212,9.465,5.156,18.432,5.156,18.432l-5.218-2a31.5,31.5,0,0,0,10.9,28.738l45.84-147.425A47.555,47.555,0,0,0,3436.052,1345.706Z" transform="translate(-3395.762 -1334.129)" fill="#305966"/>
    <path id="Path_9365" data-name="Path 9365" d="M3448.09,1334.129l-45.84,147.425s13.706-.337,21.723-5.051,8.159-10.674,8.159-10.674l-8.588.957s12.777-7.882,20.564-16.4,9.437-20.651,9.437-20.651l-14.58,2.915s14.544-12.344,20.655-22.706,6.319-25.069,6.319-25.069l-12.664,4.022s8.552-10.385,11.879-20.674,2.547-15.411,2.547-15.411l-9.279,5.6s2.064-9.4,1.366-16.279S3448.09,1334.129,3448.09,1334.129Z" transform="translate(-3390.985 -1334.129)" fill="#264653"/>
    <g id="Group_4548" data-name="Group 4548" transform="translate(3.786 13.889)">
      <line id="Line_52" data-name="Line 52" x1="1.279" y2="16.546" transform="translate(40.163)" fill="none" stroke="#1f7264" stroke-miterlimit="10" stroke-width="1"/>
      <line id="Line_53" data-name="Line 53" x2="1.606" y2="10.559" transform="translate(34.25 21.825)" fill="none" stroke="#1f7264" stroke-miterlimit="10" stroke-width="1"/>
      <line id="Line_54" data-name="Line 54" x2="3.082" y2="20.263" transform="translate(29.684 22.52)" fill="none" stroke="#1f7264" stroke-miterlimit="10" stroke-width="1"/>
      <line id="Line_55" data-name="Line 55" x2="3.051" y2="12.383" transform="translate(25.11 40.443)" fill="none" stroke="#1f7264" stroke-miterlimit="10" stroke-width="1"/>
      <line id="Line_56" data-name="Line 56" x2="7.718" y2="29.631" transform="translate(16.955 34.821)" fill="none" stroke="#1f7264" stroke-miterlimit="10" stroke-width="1"/>
      <line id="Line_57" data-name="Line 57" x2="4.026" y2="12.197" transform="translate(17.998 61.71)" fill="none" stroke="#1f7264" stroke-miterlimit="10" stroke-width="1"/>
      <line id="Line_58" data-name="Line 58" x2="10.344" y2="28.21" transform="translate(9.015 57.49)" fill="none" stroke="#1f7264" stroke-miterlimit="10" stroke-width="1"/>
      <line id="Line_59" data-name="Line 59" x2="6.773" y2="17.657" transform="translate(8.188 78.931)" fill="none" stroke="#1f7264" stroke-miterlimit="10" stroke-width="1"/>
      <line id="Line_60" data-name="Line 60" x2="9.267" y2="22.534" transform="translate(1.686 82.256)" fill="none" stroke="#1f7264" stroke-miterlimit="10" stroke-width="1"/>
      <line id="Line_61" data-name="Line 61" x2="6.126" y2="14.057" transform="translate(3.084 98.466)" fill="none" stroke="#1f7264" stroke-miterlimit="10" stroke-width="1"/>
      <line id="Line_62" data-name="Line 62" x2="6.193" y2="11.391" transform="translate(2.422 110.33)" fill="none" stroke="#1f7264" stroke-miterlimit="10" stroke-width="1"/>
      <line id="Line_63" data-name="Line 63" x2="6.311" y2="9.001" transform="translate(0 116.865)" fill="none" stroke="#1f7264" stroke-miterlimit="10" stroke-width="1"/>
    </g>
    <g id="Group_4549" data-name="Group 4549" transform="translate(19.936 11.211)">
      <line id="Line_64" data-name="Line 64" x1="8.49" y2="14.259" transform="translate(35.341)" fill="none" stroke="#1f7264" stroke-miterlimit="10" stroke-width="1"/>
      <line id="Line_65" data-name="Line 65" x1="7.398" y2="7.704" transform="translate(29.733 21.981)" fill="none" stroke="#1f7264" stroke-miterlimit="10" stroke-width="1"/>
      <line id="Line_66" data-name="Line 66" x1="14.196" y2="14.783" transform="translate(26.266 25.18)" fill="none" stroke="#1f7264" stroke-miterlimit="10" stroke-width="1"/>
      <line id="Line_67" data-name="Line 67" x1="9.631" y2="8.361" transform="translate(24.24 42.463)" fill="none" stroke="#1f7264" stroke-miterlimit="10" stroke-width="1"/>
      <line id="Line_68" data-name="Line 68" x1="23.385" y2="19.767" transform="translate(20.389 42.569)" fill="none" stroke="#1f7264" stroke-miterlimit="10" stroke-width="1"/>
      <line id="Line_69" data-name="Line 69" x1="10.32" y2="7.648" transform="translate(17.106 63.942)" fill="none" stroke="#1f7264" stroke-miterlimit="10" stroke-width="1"/>
      <line id="Line_70" data-name="Line 70" x1="24.712" y2="17.092" transform="translate(12.486 65.67)" fill="none" stroke="#1f7264" stroke-miterlimit="10" stroke-width="1"/>
      <line id="Line_71" data-name="Line 71" x1="15.712" y2="10.526" transform="translate(9.805 83.669)" fill="none" stroke="#1f7264" stroke-miterlimit="10" stroke-width="1"/>
      <line id="Line_72" data-name="Line 72" x1="20.56" y2="13.074" transform="translate(8.354 90.133)" fill="none" stroke="#1f7264" stroke-miterlimit="10" stroke-width="1"/>
      <line id="Line_73" data-name="Line 73" x1="13.108" y2="7.957" transform="translate(5.322 102.575)" fill="none" stroke="#1f7264" stroke-miterlimit="10" stroke-width="1"/>
      <line id="Line_74" data-name="Line 74" x1="11.626" y2="5.74" transform="translate(0.507 112.652)" fill="none" stroke="#1f7264" stroke-miterlimit="10" stroke-width="1"/>
      <line id="Line_75" data-name="Line 75" x1="10.345" y2="3.718" transform="translate(0 119.388)" fill="none" stroke="#1f7264" stroke-miterlimit="10" stroke-width="1"/>
    </g>
  </g>
  <g id="Group_4553" data-name="Group 4553" transform="translate(387.521 236.344)">
    <path id="Path_9366" data-name="Path 9366" d="M3415.677,1387.106a107.5,107.5,0,0,0-12.966,44.493,105.34,105.34,0,0,0-.063,13.224.984.984,0,0,1-.647,1.09.958.958,0,0,1-1.168-.488l-.542-1.342c-.464-1.15,1.272-1.994,1.738-.841l.54,1.342-1.816.6a108.957,108.957,0,0,1,1.2-23.9A108.583,108.583,0,0,1,3414.092,1386a.972.972,0,0,1,1.344-.242.988.988,0,0,1,.242,1.344Z" transform="translate(-3392.781 -1339.773)" fill="#2a9d8e"/>
    <path id="Path_9367" data-name="Path 9367" d="M3395.95,1394.45c-.385,9.9,5.7,18.163,19.273,14.8,0,0,0,13.921,14.146,14.878s20.193-20.473,20.193-20.473c-6.173,5.034-19.1,2.831-19.673,1.174s7.635.962,15.722-.658,7.9-16.4,7.9-16.4c-4.405,4.86-16.583,1.005-17.616.174s13.324,2.058,16.344-2.394c3.924-5.79-2.791-13.083-6.17-17.154a12.894,12.894,0,0,1-2.672-9.181s-14.89.958-16.713,6.272.62,12.53-1.661,11.245-1.728-11.151-.349-12.711c0,0-6.425,2.223-8.589,5.174s2.589,18.811.6,18.193-6.038-10.908-3.785-16.982C3412.9,1370.4,3396.29,1385.669,3395.95,1394.45Zm46.62.384c.9-.4,1.625.387,2.3,1.3.479.646.158,1.389-.722,1.285a11.026,11.026,0,0,1-2.813-1.219C3440.92,1395.91,3441.667,1395.233,3442.57,1394.833Zm-17.279,10.656c.715-.434,3.944,2.271,6.31,2.612s3.366,1.059,3.66,2.325a1.686,1.686,0,0,1-1.271,1.684c-1.462.273-6.2-2.242-8.2-3.521S3424.577,1405.922,3425.291,1405.49Zm9.7-12.867c2.146.269,4.511,1.221,4.4,2.48-.184,2.089-2.193.413-3.709,0-1.057-.288-4.56-1.733-4.757-2.679S3432.844,1392.354,3434.99,1392.623Zm-5.406-18.646-.014-.019c-.441-.613.052-3.051.367-4.909s1.347-.443,2.229,1.882a3.491,3.491,0,0,1,.114,2.73A1.57,1.57,0,0,1,3429.585,1373.977Zm-17.613,16.729c1.54,1.023,1.516,2.733,3.719,4.522s1.884,3.332,1.884,3.332c-.25,3.226-2.691.051-6.363-3.584S3410.434,1389.681,3411.972,1390.706Zm-4.359-4.779a5.013,5.013,0,0,1,1.928,2.2,1.57,1.57,0,0,1-.267,1.6c-.649.733-1.193-.149-3-1.29C3404.026,1387.014,3406.833,1385.432,3407.613,1385.927Z" transform="translate(-3395.933 -1359.207)" fill="#2a9d8e"/>
    <g id="Group_4552" data-name="Group 4552" transform="translate(13.066)">
      <g id="Group_4551" data-name="Group 4551">
        <path id="Path_9368" data-name="Path 9368" d="M3418.677,1388.9c.927.226,1.848.431,2.751.623.428.094.264.755-.165.663-.933-.2-1.884-.413-2.839-.65A1.989,1.989,0,0,0,3418.677,1388.9Z" transform="translate(-3392.437 -1337.339)" fill="#2a9d8e"/>
        <path id="Path_9369" data-name="Path 9369" d="M3412.237,1402.222l-.049-.092a.358.358,0,0,1-.036-.116q-1.542-1.18-2.987-2.473a2.111,2.111,0,0,0,.2-.724q1.6,1.448,3.322,2.756c.733-1.069,1.441-2.151,2.112-3.249,1.54-2.526,2.916-5.135,4.2-7.788a21.991,21.991,0,0,1-7.041-15.977.341.341,0,0,1,.682-.01,21.317,21.317,0,0,0,6.669,15.341c1.585-3.316,3.044-6.7,4.52-10.073a18.969,18.969,0,0,1-1.4-5.225,1.611,1.611,0,0,0,.674-.052,17.909,17.909,0,0,0,1.1,4.415c1.229-2.8,2.481-5.594,3.839-8.335a73.8,73.8,0,0,1,6.838-11.389c.212-.017.33-.024.33-.024s-.04.293-.056.792c-4.352,5.939-7.456,12.681-10.417,19.426a19.13,19.13,0,0,0,8.805-2.672.341.341,0,0,1,.344.589,19.858,19.858,0,0,1-9.417,2.782l-.038,0q-.687,1.566-1.37,3.129c-1.927,4.393-3.9,8.774-6.247,12.962a28.986,28.986,0,0,0,15.212,2.536c.438-.045.444.637.01.682a29.651,29.651,0,0,1-15.56-2.624l-.049.087c-1.054,1.842-2.207,3.615-3.405,5.357a13.56,13.56,0,0,0,3.438,3.971,1.426,1.426,0,0,0-.117.771,14.3,14.3,0,0,1-3.752-4.12c-1.582,2.273-3.233,4.5-4.839,6.761-.21.3-.42.594-.628.895-.058-.491-.08-.863-.087-1.077C3408.757,1407.028,3410.549,1404.649,3412.237,1402.222Z" transform="translate(-3400.816 -1359.207)" fill="#1f7264"/>
        <path id="Path_9370" data-name="Path 9370" d="M3403.732,1376.909a1.5,1.5,0,0,0,.2-.294c.251.38.51.755.772,1.129a1.391,1.391,0,0,0-.535.422c-.243-.344-.481-.69-.715-1.04A.84.84,0,0,0,3403.732,1376.909Z" transform="translate(-3403.458 -1346.387)" fill="#2a9d8e"/>
        <path id="Path_9371" data-name="Path 9371" d="M3417.106,1363.97a17.913,17.913,0,0,0-.5,2.115,4.3,4.3,0,0,0-.54-.809q.156-.742.375-1.47C3416.57,1363.384,3417.233,1363.549,3417.106,1363.97Z" transform="translate(-3394.171 -1356.001)" fill="#2a9d8e"/>
      </g>
    </g>
  </g>
  <g id="Group_4555" data-name="Group 4555" transform="translate(62.326 239.18)">
    <g id="Group_4554" data-name="Group 4554">
      <path id="Path_9372" data-name="Path 9372" d="M3243.3,1371.027a41.893,41.893,0,0,1-14.2,18.057,43.609,43.609,0,0,1-9.766,5.73c-.571.229-.3-.261.054-.4a41.507,41.507,0,0,0,9.019-5.258,41.031,41.031,0,0,0,14.121-17.9c.083-.212.887-.528.767-.222Z" transform="translate(-3201.03 -1353.432)" fill="#e9c464"/>
      <path id="Path_9373" data-name="Path 9373" d="M3231.908,1371.129a1.728,1.728,0,1,0,2.247-.964A1.729,1.729,0,0,0,3231.908,1371.129Z" transform="translate(-3191.623 -1354.065)" fill="#e9c464"/>
      <path id="Path_9374" data-name="Path 9374" d="M3229.387,1367.989a1.729,1.729,0,1,0,2.247-.964A1.729,1.729,0,0,0,3229.387,1367.989Z" transform="translate(-3193.479 -1356.377)" fill="#e9c464"/>
      <path id="Path_9375" data-name="Path 9375" d="M3227.359,1365.461a1.729,1.729,0,1,0,2.247-.964A1.73,1.73,0,0,0,3227.359,1365.461Z" transform="translate(-3194.974 -1358.239)" fill="#e9c464"/>
      <path id="Path_9376" data-name="Path 9376" d="M3220.322,1366.5a1.729,1.729,0,1,0,2.247-.964A1.729,1.729,0,0,0,3220.322,1366.5Z" transform="translate(-3200.155 -1357.475)" fill="#e9c464"/>
      <path id="Path_9377" data-name="Path 9377" d="M3208.888,1361.928a1.729,1.729,0,1,0,2.247-.964A1.73,1.73,0,0,0,3208.888,1361.928Z" transform="translate(-3208.576 -1360.841)" fill="#e9c464"/>
      <path id="Path_9378" data-name="Path 9378" d="M3212.558,1363.394a1.728,1.728,0,1,0,2.245-.964A1.729,1.729,0,0,0,3212.558,1363.394Z" transform="translate(-3205.874 -1359.761)" fill="#e9c464"/>
      <path id="Path_9379" data-name="Path 9379" d="M3224.692,1367.615a1.729,1.729,0,1,0,2.247-.964A1.73,1.73,0,0,0,3224.692,1367.615Z" transform="translate(-3196.938 -1356.653)" fill="#e9c464"/>
      <path id="Path_9380" data-name="Path 9380" d="M3222.073,1368.713a1.729,1.729,0,1,0,2.247-.964A1.726,1.726,0,0,0,3222.073,1368.713Z" transform="translate(-3198.866 -1355.844)" fill="#e9c464"/>
      <path id="Path_9381" data-name="Path 9381" d="M3215.939,1365.817a1.728,1.728,0,1,0,2.247-.962A1.727,1.727,0,0,0,3215.939,1365.817Z" transform="translate(-3203.384 -1357.976)" fill="#e9c464"/>
      <path id="Path_9382" data-name="Path 9382" d="M3239.513,1368.084a64.256,64.256,0,0,1-12.7,21.11,52.14,52.14,0,0,1-7.918,7.462c-.394.286-.983-.062-.5-.415a50.961,50.961,0,0,0,7.758-7.3A63.639,63.639,0,0,0,3238.741,1368c.137-.382.96-.441.772.083Z" transform="translate(-3201.614 -1355.787)" fill="#e9c464"/>
      <path id="Path_9383" data-name="Path 9383" d="M3232.1,1367.485a68.418,68.418,0,0,1-8.625,21.778,31.091,31.091,0,0,1-5.444,6.831c-.22.193-1,.3-.565-.08a29.864,29.864,0,0,0,5.145-6.425,67.452,67.452,0,0,0,8.672-21.78c.062-.278.868-.561.816-.325Z" transform="translate(-3202.26 -1356.012)" fill="#e9c464"/>
      <path id="Path_9384" data-name="Path 9384" d="M3227.13,1371.292a193.012,193.012,0,0,0-6.979,19.749,70.844,70.844,0,0,0-1.74,6.97l-.458.07a21.471,21.471,0,0,0,4.163-3.711,52.019,52.019,0,0,0,8.864-14.437,93.358,93.358,0,0,0,4.723-14.284c.057-.233.823-.467.8-.359-1.986,7.925-4.76,15.776-9.107,22.737a36.318,36.318,0,0,1-7.687,9.115,12.225,12.225,0,0,1-1.633,1.16c-.026.014-.488.234-.458.07a71.2,71.2,0,0,1,1.738-6.97,193.617,193.617,0,0,1,6.98-19.75c.094-.231.827-.427.8-.358Z" transform="translate(-3202.059 -1357.584)" fill="#e9c464"/>
      <path id="Path_9385" data-name="Path 9385" d="M3218.919,1365.64c-2.912,7.614-4.991,16.388-2.629,24.445.724,2.471,1.939,5.345,3.958,7.073l-.793.432a6.827,6.827,0,0,1-1.726-3.65c-.969-4.492.242-9.34,1.692-13.584a81.552,81.552,0,0,1,6.152-13.311c.106-.188.894-.484.759-.241-3.57,6.386-7.017,13.365-7.934,20.719-.348,2.808-.379,6.053,1.075,8.592a3.984,3.984,0,0,0,.775,1.044c.1.085-.586.61-.793.432a12.591,12.591,0,0,1-2.935-4.313,26.789,26.789,0,0,1-1.827-13.937,53.128,53.128,0,0,1,3.423-13.353c.092-.241.849-.465.8-.347Z" transform="translate(-3204.358 -1357.33)" fill="#e9c464"/>
      <path id="Path_9386" data-name="Path 9386" d="M3214.871,1363.362c-3.044,11.355-3.428,25.512,5.211,34.677a12.013,12.013,0,0,0,1.594,1.477.191.191,0,0,1,.059.2,156.968,156.968,0,0,0-3.719,18.734c-.639,4.011-1.239,8.031-1.773,12.058-.044.328-.875.6-.815.135a278.25,278.25,0,0,1,4.779-28.068c.136-.57.278-1.137.428-1.7a5.91,5.91,0,0,1,.325-.832c-.029-.1-.371-.3-.452-.374a18.181,18.181,0,0,1-2.064-2.156,27.623,27.623,0,0,1-5.277-10.639c-2.013-7.682-1.143-15.8.887-23.378.086-.321.932-.577.816-.137Z" transform="translate(-3206.174 -1359.156)" fill="#e9c464"/>
      <path id="Path_9387" data-name="Path 9387" d="M3211.228,1361.934a34.405,34.405,0,0,0,8.1,35.072,26.9,26.9,0,0,0,3.226,2.905c.286.212-.452.717-.705.528-7.591-5.657-12.464-15.275-13.113-24.617a38.527,38.527,0,0,1,1.692-13.727c.085-.285.922-.568.8-.161Z" transform="translate(-3208.656 -1360.185)" fill="#e9c464"/>
    </g>
    <path id="Path_9388" data-name="Path 9388" d="M3220.848,1391c10.97-3.332,17.213-7.159,1.231-11.5s-9.469,4.233-5.683,7.249S3220.848,1391,3220.848,1391Z" transform="translate(-3206.324 -1347.985)" fill="#e9c464"/>
  </g>
  <g id="Group_4556" data-name="Group 4556" transform="translate(55.96 277.82)">
    <path id="Path_9389" data-name="Path 9389" d="M3234.961,1383.093s-23.658,22.242-28.715,42.432a34.121,34.121,0,0,0-.434,16.609,12.163,12.163,0,0,0,19.912,6.152,34.12,34.12,0,0,0,9.01-13.959C3241.949,1414.8,3234.961,1383.093,3234.961,1383.093Z" transform="translate(-3204.99 -1383.093)" fill="#bae3dd"/>
    <path id="Path_9390" data-name="Path 9390" d="M3219.34,1435.854q.631-2.06,1.264-4.12l15.739-2.9c.037-.165.073-.33.11-.5l-15.694,2.894,1.2-3.9q7.5-1.506,15.119-2.346.037-.237.073-.474-7.566.826-15.036,2.313.573-1.87,1.148-3.742l14.335-2.239c.015-.159.031-.319.045-.479l-14.227,2.221,1.2-3.924q6.6-1.618,13.3-2.693c.005-.158.01-.316.017-.474q-6.634,1.055-13.162,2.646l1.24-4.041q5.941-1.373,11.983-2.23c0-.158,0-.314,0-.472q-5.954.842-11.822,2.186.505-1.646,1.009-3.291,5.317-1.459,10.745-2.424c-.005-.158-.01-.316-.017-.472q-5.332.946-10.565,2.367l1.231-4.011a44.435,44.435,0,0,1,9.121-2.381c-.01-.156-.022-.311-.032-.465a44.787,44.787,0,0,0-8.917,2.287l.419-1.367a.234.234,0,0,0,.073-.236l.3-.99a22.939,22.939,0,0,1,7.939-1.995c-.013-.156-.026-.311-.041-.465a23.513,23.513,0,0,0-7.717,1.87l.922-3.006a45.692,45.692,0,0,1,6.5-1.816l-.052-.467a45.86,45.86,0,0,0-6.279,1.731l.859-2.8,4.44-.854.736-.139c-.019-.155-.038-.309-.059-.462-.361.071-.726.135-1.085.2l-3.876.745.724-2.363q1.91-.721,3.871-1.275c-.022-.156-.045-.312-.068-.465q-1.836.516-3.629,1.177l.847-2.759q1.2-.409,2.427-.7c-.027-.158-.052-.312-.077-.464q-1.1.263-2.184.616l.512-1.665,1.408-.488c-.028-.16-.056-.314-.082-.464l-1.158.4.764-2.488c-.144-.727-.231-1.123-.231-1.123s-.288.269-.8.776l-.853,2.773a10.468,10.468,0,0,0-.6-1.322l-.342.348a9.935,9.935,0,0,1,.708,1.743l-.593,1.936a16.009,16.009,0,0,0-1.207-2.551c-.11.115-.222.231-.336.351a15.129,15.129,0,0,1,1.233,2.719.256.256,0,0,0,.11.134l-1.094,3.56q-1.007-2.219-2.169-4.36-.166.179-.333.364,1.232,2.29,2.3,4.669l-.983,3.2q-1.433-3.029-3.016-5.98l-.33.373q1.654,3.092,3.143,6.269l-1.206,3.926q-1.763-4.074-3.835-8l-.327.387q2.139,4.071,3.949,8.305-.4,1.294-.795,2.589-2.67-4.121-5.342-8.241l-.308.384q2.736,4.219,5.472,8.439l-1.542,5.02a115.471,115.471,0,0,0-5.668-11.238c-.1.134-.207.269-.309.4a115.766,115.766,0,0,1,5.766,11.523l-1.411,4.6q-3.707-5.962-7.414-11.924c-.1.139-.193.278-.29.417l7.522,12.1-.538,1.752-.655,2.132-8.387-12.891c-.092.144-.184.288-.274.432q4.24,6.519,8.484,13.041l-1.011,3.289q-4.922-6.181-9.847-12.36c-.083.148-.165.293-.247.441q4.938,6.2,9.874,12.391a.269.269,0,0,0,.059.052l-1.443,4.7-10.291-13.673c-.077.158-.151.314-.226.472q5.173,6.876,10.349,13.751-.539,1.761-1.08,3.522l-11.412-12.124c-.059.165-.118.332-.174.5l11.426,12.14-1.15,3.75a143.646,143.646,0,0,1-11.606-11.1c-.042.189-.08.377-.118.563a144.124,144.124,0,0,0,11.575,11.016q-.933,3.042-1.867,6.083-5.481-4.66-10.5-9.816c0,.227,0,.452,0,.675q4.917,5.019,10.285,9.571a.288.288,0,0,0,.068.042l-.785,2.559-9.071-7.053c.043.236.091.468.139.7l8.785,6.831-.776,2.533q.516.177,1.047.311l.216-.7,9.979-1.34c.236-.177.469-.366.7-.564q-5.264.709-10.528,1.413l.7-2.264,12.439-1.78c.152-.174.3-.354.453-.537q-6.37.915-12.741,1.825l1.078-3.513q7.074-.883,14.147-1.768c.1-.167.208-.335.311-.507l-14.308,1.787.941-3.063.026-.085a146.5,146.5,0,0,1,15.065-1.853c.077-.16.153-.321.228-.485a148.035,148.035,0,0,0-15.14,1.835l.122-.392a.22.22,0,0,0,.026-.083l.786-2.566q7.905-2,15.969-3.23c.056-.165.11-.332.163-.5Q3227.252,1433.87,3219.34,1435.854Z" transform="translate(-3204.99 -1383.093)" fill="#97c9ce"/>
  </g>
  <g id="Group_4569" data-name="Group 4569" transform="translate(91.019 202.992)">
    <g id="Group_4568" data-name="Group 4568">
      <path id="Path_9391" data-name="Path 9391" d="M3266.406,1341.755c-.049-.417-.585-.21-.721.135a2.564,2.564,0,0,0-.074.3c.045-.688.073-1.25.057-1.387-.047-.4-.544-.243-.711.068.009-.276.011-.486,0-.574-.049-.507-.589-.292-.724.128a6.318,6.318,0,0,0-.118.7,3.645,3.645,0,0,0,0-.386c-.048-.417-.527-.305-.663.04a5.2,5.2,0,0,0-.139.811c-.061.418-.177.87-.231,1.292-.049.382-.5,2.186-1.391,2.379-1.372.293-.5-2.094-1.47-2.629-.3-.168-.626,1.683-.649,2.73a11.688,11.688,0,0,0,.069,2.186,14.449,14.449,0,0,1,.38,1.861,7.787,7.787,0,0,1-.78,1.836l3.466.79a13.981,13.981,0,0,1,1.237-2.348,7.922,7.922,0,0,0,2.1-3.712,15.434,15.434,0,0,0,.394-2.8S3266.421,1341.893,3266.406,1341.755Z" transform="translate(-3200.092 -1340)" fill="#ffd3b3"/>
      <path id="Path_9392" data-name="Path 9392" d="M3244.693,1366.818s10.988-.1,16.955-6.783c4.76-6.669,9.357-14.047,9.7-14.732.936.358,2.948,1.278,2.948,1.278s-6.288,14.07-8.736,17.283-7.269,8.478-17.453,11.089C3243.231,1369.353,3244.693,1366.818,3244.693,1366.818Z" transform="translate(-3210.961 -1336.095)" fill="#ffd3b3"/>
      <g id="Group_4562" data-name="Group 4562" transform="translate(0 70.322)">
        <g id="Group_4557" data-name="Group 4557" transform="translate(37.233 89.765)">
          <path id="Path_9393" data-name="Path 9393" d="M3250.265,1434.013a7.226,7.226,0,0,1,.6,2.41c-.033.969-3.1,1.167-3.482.681s-.739-4.911-.739-4.911" transform="translate(-3246.605 -1432.193)" fill="#ffe1bd"/>
          <path id="Path_9394" data-name="Path 9394" d="M3246.624,1436.574a20.61,20.61,0,0,0,.389,2.634l3.543-.146.151-.6a5.575,5.575,0,0,0,2.075.507l2.99-.123c2.19-.09,3.421-.42,3.46-.807.165-1.62-2.447-1.44-3.127-1.41-1.955.08-4.11-.749-4.614-1.722-.363-.7-.222-.895-.622-.743a1.019,1.019,0,0,0-.587.55,1.8,1.8,0,0,1-1.806,1.083,2.138,2.138,0,0,1-1.22-.528A1.292,1.292,0,0,0,3246.624,1436.574Z" transform="translate(-3246.622 -1430.778)" fill="#004991"/>
        </g>
        <g id="Group_4558" data-name="Group 4558" transform="translate(0 87.678)">
          <path id="Path_9395" data-name="Path 9395" d="M3230.682,1432.976a28.974,28.974,0,0,1-.937,3.509c-.387.887-3.313-.066-3.485-.658s1.132-4.836,1.132-4.836" transform="translate(-3224.397 -1430.991)" fill="#ffe1bd"/>
          <path id="Path_9396" data-name="Path 9396" d="M3225.991,1434.5c-.333.95-.811,2.783-.811,2.783l2.75,1.492.511-.42a5.244,5.244,0,0,0,1.474,1.419,11.581,11.581,0,0,0,2.7.993c2.478.458,4.362.109,4.541-.236.753-1.443-2.531-2.084-3.173-2.309a4.387,4.387,0,0,1-2.856-3.466c-.077-.792.124-.915-.3-.922a1.012,1.012,0,0,0-.747.294,1.8,1.8,0,0,1-2.081.339,2.151,2.151,0,0,1-.938-.943A1.293,1.293,0,0,0,3225.991,1434.5Z" transform="translate(-3225.18 -1429.128)" fill="#004991"/>
        </g>
        <g id="Group_4561" data-name="Group 4561" transform="translate(1.808)">
          <path id="Path_9397" data-name="Path 9397" d="M3235.053,1400.543s-5.289-11.33,2.765-20.045c0,0,7.3,2.912,13.051,3.063a28.428,28.428,0,0,0,6.807-.445,146.618,146.618,0,0,1,1.346,21.529Z" transform="translate(-3220.972 -1380.498)" fill="#004991"/>
          <path id="Path_9398" data-name="Path 9398" d="M3248.407,1454.2c.146.005.292,0,.426-.007a24.392,24.392,0,0,0,4.678-.514l-.037-.862c-.708-13.19,0-34.828.031-41.657a7.72,7.72,0,0,0-.1-1.3c-.724-4.969-5.854-4.1-7.833.571a18.254,18.254,0,0,0-1.081,3.577,32.565,32.565,0,0,0-.593,5.013C3243.366,1430.455,3247.176,1445.732,3248.407,1454.2Z" transform="translate(-3213.237 -1361.343)" fill="#004991"/>
          <path id="Path_9399" data-name="Path 9399" d="M3239.828,1400.857c.026.134.062.278.1.422,1.39,5.961,5.762,22.046,7.743,27.243v.01a3.183,3.183,0,0,0,2.341,1.568c2.624.6,6.455-.526,6.573-5.716a12.74,12.74,0,0,0-.1-1.868c-.516-4.186-2.395-27.37-2.674-29.6s-.807-5.485-2.007-5.852C3245.815,1385.261,3237.936,1392.517,3239.828,1400.857Z" transform="translate(-3216.411 -1375.868)" fill="#004991"/>
          <path id="Path_9400" data-name="Path 9400" d="M3243.446,1408.524a28.985,28.985,0,0,1,.755,9.012c-.445,4.489,1.976-4.013,1.976-4.013l-1.594-2.966Z" transform="translate(-3213.536 -1359.859)" fill="#594a5f"/>
          <path id="Path_9401" data-name="Path 9401" d="M3251.843,1468.392s-1.29-13.447-2.879-22.735a37.05,37.05,0,0,1,.884-15.885c.208-.736.36-1.137.36-1.137l-1.62-4.008c-1.837-5.225-2.388-17.569-2.388-17.569,3.586-8.857,3.685-19.827,3.685-19.827l-3.353.606-5.74,7.491-1.027,5.623c1.126,4.831,4.211,16.309,6.394,23.255h0a28.973,28.973,0,0,1,.756,9.012,4.619,4.619,0,0,0-.028,1.191c-.241,11.285,3.343,25.808,4.532,33.991C3251.563,1468.4,3251.709,1468.4,3251.843,1468.392Z" transform="translate(-3216.248 -1375.54)" fill="#003f72"/>
          <path id="Path_9402" data-name="Path 9402" d="M3238.869,1409.957c3.842-3.924,9.474-2.374,7.118,3.567-2.521,6.354-10.395,24.027-14.541,36.566l-.288.816a25.361,25.361,0,0,1-4.937-1.377c1.886-8.106,2.928-21.983,7.135-31.8A26.042,26.042,0,0,1,3238.869,1409.957Z" transform="translate(-3226.221 -1360.396)" fill="#004991"/>
          <g id="Group_4560" data-name="Group 4560" transform="translate(11.388 6.929)">
            <g id="Group_4559" data-name="Group 4559">
              <path id="Path_9403" data-name="Path 9403" d="M3255.033,1389.254c.394-9.315-10.922-2.674-16.343.62-2.284,1.386-3.032,4-3.246,6.444s-2.183,27.578-2.6,32.167c-.934,10.342,7.821,4.348,8.552,1.462C3243.246,1422.661,3254.818,1394.328,3255.033,1389.254Z" transform="translate(-3232.779 -1384.488)" fill="#004991"/>
            </g>
          </g>
          <path id="Path_9404" data-name="Path 9404" d="M3234.844,1406.135s-.163,4.938-4.05,11.177c0,0,6.638-3.4,6.948-3.876a25.549,25.549,0,0,0,1.145-5.791C3238.733,1407.146,3234.844,1406.135,3234.844,1406.135Z" transform="translate(-3222.854 -1361.618)" fill="#004991"/>
        </g>
      </g>
      <g id="Group_4564" data-name="Group 4564" transform="translate(15.196 7.585)">
        <g id="Group_4563" data-name="Group 4563">
          <path id="Path_9405" data-name="Path 9405" d="M3251.819,1359.018c.024.7.052,3.443-1.405,4.1s-2.391.943-2.349,1.169c.017.1.159.584.314,1.057a2.2,2.2,0,0,0,.844,1.322l.21,3.509-2.617,2.61-.856.851-1.284-1.176-4.187-3.815a4.272,4.272,0,0,0,.533-4.405c-.17-.321-2.078-2.434-3.6-4.563a11.424,11.424,0,0,1-1.84-3.389c-.545-2.438-1-5,.393-6.533s10.978-7.823,12.9-.439a36.853,36.853,0,0,0,2.915,4.688,1.113,1.113,0,0,1-.1,1.884C3251.054,1356.248,3251.8,1358.316,3251.819,1359.018Z" transform="translate(-3233.108 -1343.318)" fill="#ffd3b3"/>
          <path id="Path_9406" data-name="Path 9406" d="M3248.5,1365.259l-2.617,2.61-.8.385-1.344-.71-4.187-3.815a4.273,4.273,0,0,0,.533-4.405c-.17-.321-2.078-2.434-3.6-4.563l-.177-1.469s2.977-.819,3.1-.825a10.4,10.4,0,0,1,1.473,1.589c.016.092-.223,1.818-.223,1.818s.391,2.259.863,3.971a2.4,2.4,0,0,0,2.15,1.646,7.9,7.9,0,0,0,1.818-.052,3.44,3.44,0,0,0,1.957-1.011,2.2,2.2,0,0,0,.843,1.322Z" transform="translate(-3232.177 -1338.404)" fill="#ffd3b3"/>
          <path id="Path_9407" data-name="Path 9407" d="M3241.3,1357.938s-.228,5,3.3,7.057,8.385-.222,8.988-.915,2.169-5.093-.482-6.553-5.184,1.054-5.184,1.054-1.472,1.658-2.071,1.67c-.581.012-2.251-1.481-2.487-4.606a.372.372,0,0,1,.288-.377c.676-.2,2.161-.988,1.4-4.006a.449.449,0,0,1,.4-.538,33.252,33.252,0,0,1,3.447-.352,4.373,4.373,0,0,1,.656.054.344.344,0,0,1,.251.167c.156.28.512.918.6,1.07.111.194.948,1.613.948,1.613a1.01,1.01,0,0,0,.35-.918,14.33,14.33,0,0,1-.557-1.979c.057-.288.875-.627.882-1.275.013-1.467-.56-7.081-5.011-3.629a7.853,7.853,0,0,1-1.615,1.184c-.674.246-1.434-.231-2.9-.127-2.049.144-10.849,2.2-8.031,10.028s7.454,8.943,7.454,8.943S3240.416,1358.933,3241.3,1357.938Z" transform="translate(-3233.932 -1344.368)" fill="#004991"/>
        </g>
        <path id="Path_9408" data-name="Path 9408" d="M3239.229,1352.618s-.436-1.344-1.559-.957c-1.51.521-1.375,4.313,1.915,3.813A10.037,10.037,0,0,1,3239.229,1352.618Z" transform="translate(-3231.862 -1339.049)" fill="#ffd3b3"/>
      </g>
      <path id="Path_9409" data-name="Path 9409" d="M3260.368,1402.345a70.265,70.265,0,0,1-26.863.148,171.283,171.283,0,0,0,1.268-17.217l.021-.538c.119-3.365.181-5.768.255-5.867.151-.207-.382-10.947.5-15.156a2.917,2.917,0,0,1,.647-1.549,32.092,32.092,0,0,1,6.108-4.12s5.352,5.758,8.083-.613c3-.271,4.534.335,5.4,3.343C3260.6,1377.485,3260.368,1402.345,3260.368,1402.345Z" transform="translate(-3219.049 -1327.205)" fill="#f4a25d"/>
      <path id="Path_9410" data-name="Path 9410" d="M3244.518,1358.349a26.569,26.569,0,0,0,10.054-2.165c2.832,3.33,4.546,9.4,4.546,9.4s-6.85,4.353-11.856,4.772A69.987,69.987,0,0,0,3244.518,1358.349Z" transform="translate(-3210.938 -1328.082)" fill="#f4a25d"/>
      <path id="Path_9411" data-name="Path 9411" d="M3245.073,1358.034a24.077,24.077,0,0,1,4.1,10.54,30.569,30.569,0,0,0,9.536-4.35c-1.521.491-8.009,2.9-8.9.906A30.9,30.9,0,0,0,3245.073,1358.034Z" transform="translate(-3210.53 -1326.719)" fill="#5f52dd" opacity="0.5"/>
      <g id="Group_4565" data-name="Group 4565" transform="translate(31.608 35.043)">
        <path id="Path_9412" data-name="Path 9412" d="M3245.038,1360.19l21.857,2.271-3.989,8.795-18.882-8.76a.919.919,0,0,1-.544-1.262l.241-.452A1.325,1.325,0,0,1,3245.038,1360.19Z" transform="translate(-3243.382 -1360.181)" fill="#ffb127"/>
        <path id="Path_9413" data-name="Path 9413" d="M3245.038,1360.19l21.857,2.271-3.989,8.795-18.882-8.76a.919.919,0,0,1-.544-1.262l.241-.452A1.325,1.325,0,0,1,3245.038,1360.19Z" transform="translate(-3243.382 -1360.181)" fill="#264653"/>
        <path id="Path_9414" data-name="Path 9414" d="M3258.6,1366.414c-1.165,2.4-2.868,4.119-3.8,3.827s-.75-2.48.413-4.886,2.868-4.119,3.8-3.827S3259.762,1364.007,3258.6,1366.414Z" transform="translate(-3235.418 -1359.213)" fill="#ffb127"/>
        <path id="Path_9415" data-name="Path 9415" d="M3258.6,1366.414c-1.165,2.4-2.868,4.119-3.8,3.827s-.75-2.48.413-4.886,2.868-4.119,3.8-3.827S3259.762,1364.007,3258.6,1366.414Z" transform="translate(-3235.418 -1359.213)" fill="#ffb127" opacity="0.5"/>
        <path id="Path_9416" data-name="Path 9416" d="M3258.6,1366.414c-1.165,2.4-2.868,4.119-3.8,3.827s-.75-2.48.413-4.886,2.868-4.119,3.8-3.827S3259.762,1364.007,3258.6,1366.414Z" transform="translate(-3235.418 -1359.213)" fill="#192e35"/>
      </g>
      <g id="Group_4566" data-name="Group 4566" transform="translate(13.861 34.004)">
        <path id="Path_9417" data-name="Path 9417" d="M3233.162,1373.665s2.3,7.948,8.293,11.69a4.18,4.18,0,0,0,5.307-1.054c4.1-4.586,8.2-14.918,9.512-18.818-2.4-1.276-3.172-1.078-3.172-1.078s-5.815,8.075-9.152,13.478l-2.492-4.346" transform="translate(-3233.162 -1356.04)" fill="#ffd3b3"/>
        <path id="Path_9418" data-name="Path 9418" d="M3244.547,1368.248a7.978,7.978,0,0,0,1.117-3.037c.051-1.309-.569-3.572.7-4.749a5.435,5.435,0,0,1,3.994-.8c2.775.458,3.528,1.276,3.379,1.863s-2.072.79-2.575,1.785-.222,1.62-.349,2.712c-.189,1.643-2.479,2.337-2.976,3.155C3247.485,1369.76,3244.547,1368.248,3244.547,1368.248Z" transform="translate(-3224.778 -1359.583)" fill="#feaf84"/>
      </g>
      <path id="Path_9419" data-name="Path 9419" d="M3235.89,1396.315c.691-2.391,1.022-10.806,1.1-12.9a11.012,11.012,0,0,0,7.6-4.953c-.781-1.34-2.732-5.984-6.345-9.929l-2.083-7.819s-.241.184-.609.535c-.882,4.209-.349,14.949-.5,15.156-.074.1-.135,2.5-.255,5.867l-.021.538h0a172.423,172.423,0,0,1-1.27,17.217,70.263,70.263,0,0,0,26.863-.148C3245.438,1401.168,3235.116,1399.037,3235.89,1396.315Z" transform="translate(-3219.049 -1324.743)" fill="#d88d56"/>
      <g id="Group_4567" data-name="Group 4567" transform="translate(12.074 33.864)">
        <path id="Path_9420" data-name="Path 9420" d="M3238.578,1359.5s-6.173,4.044-6.437,10.927c-.2,5.322,3.316,13.089,3.316,13.089s6.107.674,9.312-4.319a38.236,38.236,0,0,0-3.6-7.441" transform="translate(-3232.133 -1359.502)" fill="#f4a25d"/>
      </g>
    </g>
  </g>
  <g id="Group_4584" data-name="Group 4584" transform="translate(265.283 221.376)">
    <path id="Path_9421" data-name="Path 9421" d="M3361.167,1421.8l-3.261,12.578-7.238-2.343,6.306-12.8Z" transform="translate(-3307.03 -1300.029)" fill="#ebc5ab"/>
    <path id="Path_9422" data-name="Path 9422" d="M3349.494,1420.653l-5.59,9.084-5.358-2.329-2.075-3.048,5.081-2.037,3.517-5.629Z" transform="translate(-3317.486 -1301.906)" fill="#ebc5ab"/>
    <rect id="Rectangle_1065" data-name="Rectangle 1065" width="60.714" height="4.638" transform="translate(123.849 100.305) rotate(-180)" fill="#112353"/>
    <rect id="Rectangle_1066" data-name="Rectangle 1066" width="7.167" height="13.914" transform="translate(97.706 112.336) rotate(-180)" fill="#112353"/>
    <path id="Path_9423" data-name="Path 9423" d="M3354.611,1435.212l38.9-20.66h9.154l39.223,20.66h-3.795l-39.843-11.744-39.844,11.744Z" transform="translate(-3304.126 -1303.482)" fill="#112353"/>
    <path id="Path_9424" data-name="Path 9424" d="M3432.57,1364.546s-16.621-.7-21.514,23.98l-.974,4.214a13.994,13.994,0,0,1-13.065,10.837l-19.933.332a12.857,12.857,0,0,0-11.628,8.644l-5.413,15.517h-6.178s1.686,8.995,10.68,8.995h62.4s15.741,1.124,18.552-19.675S3458.429,1363.421,3432.57,1364.546Z" transform="translate(-3304.677 -1340.329)" fill="#e9c464"/>
    <path id="Path_9425" data-name="Path 9425" d="M3426.947,1410.314h-62.4c-8.995,0-10.68-8.995-10.68-8.995h6.178l.165-.477h82.18A17.134,17.134,0,0,1,3426.947,1410.314Z" transform="translate(-3304.677 -1313.579)" fill="#d3af5e"/>
    <path id="Path_9426" data-name="Path 9426" d="M3440.328,1394.156h-48.033c-24.063,0-31.717,4.407-38.43,12.087h77.874Z" transform="translate(-3304.677 -1318.502)" fill="#e9c464"/>
    <g id="Group_4570" data-name="Group 4570" transform="translate(21.297 70.781)">
      <path id="Path_9427" data-name="Path 9427" d="M3337.8,1437.716c23.692-44.767,30.242-45.363,33.037-45.616,9.526-.866,28.86-.8,39.537-.681l.75.007v11.806l-.879-.009c-17.19-.187-30.361.005-37.34.549-4.152,3.549-15.868,22.832-24.673,39.466Zm35.543-34.277Z" transform="translate(-3337.802 -1391.35)" fill="#004991"/>
    </g>
    <g id="Group_4571" data-name="Group 4571" transform="translate(44.881 71.934)">
      <path id="Path_9428" data-name="Path 9428" d="M3362.4,1446.922c.516-1.339,1.266-3.4,2.186-5.925,2.843-7.811,11.16-30.651,15.221-36.226,3.2-.061,7.456-.252,11.916-.45,6.4-.286,13.641-.61,16.8-.47l.516-11.794c-3.683-.161-10.878.16-17.844.471-5.29.236-10.287.458-13.308.458-6.393,0-10.594,6.064-24.4,43.97-.888,2.441-1.614,4.433-2.11,5.727Z" transform="translate(-3351.385 -1392.014)" fill="#004991"/>
    </g>
    <path id="Path_9429" data-name="Path 9429" d="M3394.178,1376.005a28.336,28.336,0,0,0-4.98,6.176l-16.127,24.369c-.676,1.019-1.381,2.2-1.085,3.386.4,1.587,2.294,2.209,3.912,2.452a36.765,36.765,0,0,0,12.537-.281,9.773,9.773,0,0,0,3.892-1.45,10.3,10.3,0,0,0,2.754-3.487,57.948,57.948,0,0,0,4.348-9.8c1.266-3.761,2.148-7.656,3.7-11.306,1.167-2.744,7.065-11.157,4.593-14S3396.324,1374.182,3394.178,1376.005Z" transform="translate(-3291.382 -1335.411)" fill="#2f5966"/>
    <path id="Path_9430" data-name="Path 9430" d="M3412.36,1369.277c4.1,1.809,14.871,4.346,15.63,8.766,1.908,11.132,2.221,31.33-32.449,36.514l-22.937-1.3s3.245-6.491,11.538-12.261c7.418-5.161,5.876-21.292,19.068-28.74Z" transform="translate(-3290.875 -1336.824)" fill="#264653"/>
    <path id="Path_9431" data-name="Path 9431" d="M3384.254,1394.876a6.362,6.362,0,0,0,4.322.95c1.469-.339.712-2.834.174-4.242-1.829-.269-2.971-2.046-4.4-3.213a12.427,12.427,0,0,0-2.91-1.658,13.944,13.944,0,0,0-4.11-1.234,6.172,6.172,0,0,0-4.12.9.415.415,0,0,0-.016.72,1.494,1.494,0,0,0,.981.111,8.365,8.365,0,0,1,3.131.3c.184.052.135.384-.054.36-2.773-.365-4.143.658-4.185.8s.088.312.228.4c.251.156.9.045,1.2.042a5.281,5.281,0,0,1,2.117.389s.87.636-2.066.325a1.384,1.384,0,0,0-1.042.2.364.364,0,0,0-.116.147.355.355,0,0,0-.007.226.835.835,0,0,0,.443.519,2.533,2.533,0,0,0,.669.207l3.373.7a24.437,24.437,0,0,0-2.811-.132.448.448,0,0,0-.3.226c-.07.181.092.361.243.483,1.014.806,4.085,1.512,5.355,1.771S3383.111,1394.262,3384.254,1394.876Z" transform="translate(-3290.593 -1324.923)" fill="#ffd3b3"/>
    <path id="Path_9432" data-name="Path 9432" d="M3380.9,1405.027l20.831.182,9.275-6.312-29.569-8.654-12.014,7.013Z" transform="translate(-3293.218 -1321.384)" fill="#004991"/>
    <path id="Path_9433" data-name="Path 9433" d="M3421.252,1372.645c3.075,2.917,5.053,5.475,3.845,11.693-.81,4.16-12.1,34.512-13.083,35.771-2.03,2.6-23.379-9.929-32.24-15.763.2-1.572,2.023-3.518,2.226-5.09,7.932,3.607,16.836,3.64,24.011,5.09,1.8-8.293,8.812-23.735,12.167-29.455A4.858,4.858,0,0,1,3421.252,1372.645Z" transform="translate(-3285.595 -1334.344)" fill="#2f5966"/>
    <path id="Path_9434" data-name="Path 9434" d="M3422.61,1408.052c1.245-9.212,3.917-20.846,4.27-30.856h0l-7.26,17.134a13.319,13.319,0,0,1-12.579,8.944h-5.625a12.271,12.271,0,0,0-11.342,7.588l-5.129,16.866h19.113S3419.8,1428.851,3422.61,1408.052Z" transform="translate(-3281.787 -1330.992)" fill="#d3af5e"/>
    <g id="Group_4572" data-name="Group 4572" transform="translate(113.056 19.17)">
      <path id="Rectangle_1067" data-name="Rectangle 1067" d="M2.783,0h5.1a2.783,2.783,0,0,1,2.783,2.783V19.967a0,0,0,0,1,0,0H0a0,0,0,0,1,0,0V2.783A2.783,2.783,0,0,1,2.783,0Z" transform="translate(10.663 19.967) rotate(-180)" fill="#ffd3b3"/>
      <path id="Path_9435" data-name="Path 9435" d="M3391.709,1378.253a4.652,4.652,0,0,1-1.065-2.942v-11.523h9.637l1.026.45v3.619C3399.979,1371.3,3397.175,1376.493,3391.709,1378.253Z" transform="translate(-3390.645 -1360.036)" fill="#ffceaa"/>
    </g>
    <path id="Path_9436" data-name="Path 9436" d="M3394.323,1365.444a4.751,4.751,0,1,0,3.508-5.73A4.75,4.75,0,0,0,3394.323,1365.444Z" transform="translate(-3274.978 -1343.964)" fill="#ffd3b3"/>
    <path id="Path_9437" data-name="Path 9437" d="M3390.809,1355.8l2.386-.575a8.831,8.831,0,0,1,10.651,6.52l1.954,8.125a8.928,8.928,0,0,1-6.594,10.771l-4.232,1.017a6.83,6.83,0,0,1-8.24-5.044l-2.445-10.163A8.83,8.83,0,0,1,3390.809,1355.8Z" transform="translate(-3282.453 -1347.358)" fill="#ffd3b3"/>
    <path id="Path_9438" data-name="Path 9438" d="M3395.821,1360.15a34.352,34.352,0,0,0,.521,5.216.857.857,0,0,0-.833.024" transform="translate(-3274.008 -1343.546)" fill="none"/>
    <path id="Path_9439" data-name="Path 9439" d="M3387.68,1364.079c1.931,1.212,6.018-1.615,8.265-2s4.8-.628,6.577.8a8.408,8.408,0,0,1,2.072,3.053q.788,1.643,1.58,3.29c.259-.062.693.059.952,0,.137-.852.245-1.71.382-2.563a14.035,14.035,0,0,1,3.27-.179c-.676-1.184-.551-2.893-.434-4.252.087-1.011.4-1.994.467-3.006a6.521,6.521,0,0,0-6.139-6.68,27.35,27.35,0,0,0-2.952.288,9.848,9.848,0,0,1-5.521-.839c-9.2-4.918-14.932,4.63-15.486,5.289-1.219,1.455-1.049,3.582-.811,5.465a6.375,6.375,0,0,1,2.763-2.1,15.284,15.284,0,0,0,.365,6.692C3383.933,1365.686,3386.817,1366.129,3387.68,1364.079Z" transform="translate(-3285.625 -1350.587)" fill="#112353"/>
    <g id="Group_4573" data-name="Group 4573" transform="translate(40.636 44.886)">
      <path id="Path_9440" data-name="Path 9440" d="M3394.941,1394.582h-35.67v-2.615h35.67a1.307,1.307,0,0,1,1.307,1.307h0A1.307,1.307,0,0,1,3394.941,1394.582Z" transform="translate(-3341.33 -1365)" fill="#a8a5c4"/>
      <path id="Path_9441" data-name="Path 9441" d="M3392.763,1406.019h-34.4a3.355,3.355,0,0,1-3.241-2.5l-6.071-22.872a3.356,3.356,0,0,1,3.243-4.214h30.035a3.358,3.358,0,0,1,3.244,2.494Z" transform="translate(-3348.939 -1376.437)" fill="#cfccdf"/>
      <path id="Path_9442" data-name="Path 9442" d="M3352.3,1376.437a3.356,3.356,0,0,0-3.243,4.214l6.071,22.872a3.34,3.34,0,0,0,1.132,1.74l20.91-28.826Z" transform="translate(-3348.939 -1376.437)" fill="#cfccdf"/>
    </g>
    <g id="Group_4578" data-name="Group 4578" transform="translate(24.807 126.941)">
      <path id="Path_9443" data-name="Path 9443" d="M3355.968,1426.854s1.573-2.6.036-3.037a2.709,2.709,0,0,0-2.49.418l-4.325,3.817-2.371,2.869,3.179-1.009Z" transform="translate(-3334.671 -1423.692)" fill="#003d70"/>
      <path id="Path_9444" data-name="Path 9444" d="M3367.359,1426.035s-1.639,2.9-2.884,2.19c-.707-.4-1.711-3.047-2.733-2.808s-5.142,2.563-6.663,3.115,3.588-4.527,3.588-4.527-4.19,3.379-5.549,3.878-12.5,1.858-13.183,5.185l-.111,2.19s3.106,3.7,11.778,2,13.447-1.575,15.022-1.967S3368.543,1426.274,3367.359,1426.035Z" transform="translate(-3339.823 -1423.462)" fill="#004991"/>
      <path id="Path_9445" data-name="Path 9445" d="M3350.038,1432.056c4.047-.128,11.014-2.138,13.593-2.089a15.321,15.321,0,0,0,4.049-.563c-.243,1.1-.6,1.924-1.057,2.039-1.575.393-6.348.269-15.022,1.967s-11.778-2-11.778-2l.111-2.19C3340.668,1431.073,3345.991,1432.184,3350.038,1432.056Z" transform="translate(-3339.823 -1419.619)" fill="#e0e4ed"/>
      <g id="Group_4574" data-name="Group 4574" transform="translate(15.466 2.059)">
        <path id="Path_9446" data-name="Path 9446" d="M3352.095,1427.889a.433.433,0,0,0,.207-.024.417.417,0,0,0,.237-.54c-.029-.078-.751-1.919-2.033-2.353a1.817,1.817,0,0,0-1.577.214.417.417,0,1,0,.436.712,1,1,0,0,1,.874-.135c.758.257,1.355,1.432,1.522,1.863A.417.417,0,0,0,3352.095,1427.889Z" transform="translate(-3348.73 -1424.878)" fill="#edf1f6"/>
      </g>
      <g id="Group_4575" data-name="Group 4575" transform="translate(14.033 3.078)">
        <path id="Path_9447" data-name="Path 9447" d="M3351.27,1428.476a.427.427,0,0,0,.207-.024.418.418,0,0,0,.238-.54c-.03-.078-.754-1.919-2.033-2.353a1.816,1.816,0,0,0-1.577.213.417.417,0,1,0,.436.712.992.992,0,0,1,.872-.135c.76.259,1.357,1.433,1.524,1.863A.42.42,0,0,0,3351.27,1428.476Z" transform="translate(-3347.904 -1425.465)" fill="#edf1f6"/>
      </g>
      <g id="Group_4576" data-name="Group 4576" transform="translate(12.353 3.685)">
        <path id="Path_9448" data-name="Path 9448" d="M3350.3,1428.824a.428.428,0,0,0,.207-.024.418.418,0,0,0,.24-.54c-.03-.078-.753-1.919-2.035-2.353a1.823,1.823,0,0,0-1.576.215.417.417,0,0,0,.436.712,1,1,0,0,1,.874-.137c.755.255,1.356,1.431,1.523,1.863A.418.418,0,0,0,3350.3,1428.824Z" transform="translate(-3346.937 -1425.815)" fill="#edf1f6"/>
      </g>
      <g id="Group_4577" data-name="Group 4577" transform="translate(10.609 4.205)">
        <path id="Path_9449" data-name="Path 9449" d="M3349.3,1429.125a.426.426,0,0,0,.206-.024.417.417,0,0,0,.238-.54c-.029-.078-.752-1.919-2.033-2.353a1.815,1.815,0,0,0-1.577.214.417.417,0,1,0,.436.712,1,1,0,0,1,.874-.135c.759.257,1.356,1.432,1.523,1.863A.419.419,0,0,0,3349.3,1429.125Z" transform="translate(-3345.933 -1426.114)" fill="#edf1f6"/>
      </g>
    </g>
    <g id="Group_4583" data-name="Group 4583" transform="translate(0 114.711)">
      <path id="Path_9450" data-name="Path 9450" d="M3342.466,1422.833s2.818-1.13,1.854-2.4a2.709,2.709,0,0,0-2.242-1.163l-5.751.451-3.619.868,3.148,1.1Z" transform="translate(-3320.256 -1414.724)" fill="#003d70"/>
      <path id="Path_9451" data-name="Path 9451" d="M3353.089,1428.038s-3.051,1.33-3.622.016c-.323-.745.465-3.464-.5-3.886s-5.652-1.04-7.2-1.514,5.586-1.462,5.586-1.462-5.379.184-6.765-.236-11.106-6.024-13.654-3.777l-1.4,1.684s.262,4.82,8.215,8.673,11.695,6.821,13.188,7.453S3353.893,1428.94,3353.089,1428.038Z" transform="translate(-3325.537 -1416.649)" fill="#004991"/>
      <path id="Path_9452" data-name="Path 9452" d="M3333.316,1425.289c3.313,2.33,10.088,4.911,12.12,6.5a15.26,15.26,0,0,0,3.575,1.981c-.859.738-1.634,1.181-2.071,1-1.494-.632-5.235-3.6-13.188-7.453s-8.215-8.673-8.215-8.673l1.4-1.684C3326.417,1418.875,3330,1422.96,3333.316,1425.289Z" transform="translate(-3325.537 -1416.424)" fill="#e0e4ed"/>
      <g id="Group_4579" data-name="Group 4579" transform="translate(17.73 4.089)">
        <path id="Path_9453" data-name="Path 9453" d="M3337.111,1423.067a.409.409,0,0,0,.179.1.416.416,0,0,0,.516-.287c.024-.082.552-1.987-.212-3.1a1.811,1.811,0,0,0-1.389-.776.417.417,0,0,0-.079.83,1,1,0,0,1,.78.417,3.489,3.489,0,0,1,.1,2.405A.414.414,0,0,0,3337.111,1423.067Z" transform="translate(-3335.748 -1419.004)" fill="#edf1f6"/>
      </g>
      <g id="Group_4580" data-name="Group 4580" transform="translate(15.972 4.042)">
        <path id="Path_9454" data-name="Path 9454" d="M3336.1,1423.042a.417.417,0,0,0,.694-.184c.023-.08.551-1.987-.213-3.1a1.818,1.818,0,0,0-1.388-.776.418.418,0,1,0-.08.832.992.992,0,0,1,.78.415,3.487,3.487,0,0,1,.1,2.407A.416.416,0,0,0,3336.1,1423.042Z" transform="translate(-3334.735 -1418.977)" fill="#edf1f6"/>
      </g>
      <g id="Group_4581" data-name="Group 4581" transform="translate(14.266 3.518)">
        <path id="Path_9455" data-name="Path 9455" d="M3335.116,1422.739a.415.415,0,0,0,.694-.182c.022-.082.551-1.986-.212-3.1a1.828,1.828,0,0,0-1.391-.776.418.418,0,0,0-.078.832.991.991,0,0,1,.78.415,3.49,3.49,0,0,1,.1,2.4A.419.419,0,0,0,3335.116,1422.739Z" transform="translate(-3333.753 -1418.675)" fill="#edf1f6"/>
      </g>
      <g id="Group_4582" data-name="Group 4582" transform="translate(12.559 2.886)">
        <path id="Path_9456" data-name="Path 9456" d="M3334.132,1422.375a.418.418,0,0,0,.7-.182c.022-.08.55-1.987-.214-3.1a1.813,1.813,0,0,0-1.387-.776.417.417,0,1,0-.08.83,1,1,0,0,1,.78.417,3.481,3.481,0,0,1,.1,2.4A.418.418,0,0,0,3334.132,1422.375Z" transform="translate(-3332.77 -1418.311)" fill="#edf1f6"/>
      </g>
    </g>
    <path id="Path_9457" data-name="Path 9457" d="M3402.385,1371.271l-.586-2.737s-2.3,5.083-7.088,5.817c0,0-3.652-.231-3.854-2.535l-.5,1.558.146,6.159,2.981-2.4,3.275,3.959S3403.948,1377.577,3402.385,1371.271Z" transform="translate(-3277.799 -1337.371)" fill="#fff"/>
  </g>
</svg>
