<svg xmlns="http://www.w3.org/2000/svg" width="600.4" height="330.298" viewBox="0 0 600.4 330.298">
  <g id="Group_5593" data-name="Group 5593" transform="translate(-3023.131 -1734.327)">
    <g id="Group_5579" data-name="Group 5579" transform="translate(3134.598 1753.606)">
      <path id="Path_14876" data-name="Path 14876" d="M3600.982,1773.867v234.115a10.1,10.1,0,0,1-10.09,10.09H3204.668a10.085,10.085,0,0,1-10.09-10.09V1773.867a10.084,10.084,0,0,1,10.09-10.09h386.224A10.094,10.094,0,0,1,3600.982,1773.867Z" transform="translate(-3193.812 -1763.777)" fill="#eab54e"/>
      <path id="Path_14877" data-name="Path 14877" d="M3524.511,2187.092h-82.694l8.982-35.314,2.036-8.009,3.952-15.509h52.754l3.952,15.509,2.035,8.009Z" transform="translate(-3279.202 -1889.661)" fill="#eab54e"/>
      <path id="Path_14878" data-name="Path 14878" d="M3520.268,2159.96h-64.73l2.036-8.009h60.658Z" transform="translate(-3283.941 -1897.843)" fill="#e4a73c"/>
      <path id="Path_14879" data-name="Path 14879" d="M3536.149,2226.334H3389.983a6.35,6.35,0,0,1-6.351-6.35h0a6.35,6.35,0,0,1,6.351-6.35h146.165a6.35,6.35,0,0,1,6.35,6.35h0A6.35,6.35,0,0,1,3536.149,2226.334Z" transform="translate(-3259.106 -1919.147)" fill="#e4a73c"/>
      <rect id="Rectangle_1544" data-name="Rectangle 1544" width="407.161" height="177.643" transform="translate(0 36.142)" fill="#e4a73c"/>
      <path id="Path_14880" data-name="Path 14880" d="M3500,2124.718h0a9.4,9.4,0,0,1-9.37-9.369h0a9.4,9.4,0,0,1,9.37-9.37h0a9.4,9.4,0,0,1,9.37,9.37h0A9.4,9.4,0,0,1,3500,2124.718Z" transform="translate(-3296.061 -1881.965)" fill="#e4a334"/>
    </g>
    <g id="Group_5580" data-name="Group 5580" transform="translate(3497.922 1753.606)">
      <path id="Path_14881" data-name="Path 14881" d="M3806.617,1763.777H3766.1a17.669,17.669,0,0,0-.318,35.335l.539,9.2,11.237-7.4,2.716-1.788h26.346a17.676,17.676,0,1,0,0-35.352Z" transform="translate(-3748.42 -1763.777)" fill="#1c3742"/>
      <circle id="Ellipse_137" data-name="Ellipse 137" cx="3.08" cy="3.08" r="3.08" transform="translate(17.45 14.414)" fill="#fbd1ca"/>
      <circle id="Ellipse_138" data-name="Ellipse 138" cx="3.08" cy="3.08" r="3.08" transform="translate(35.596 14.414)" fill="#fbd1ca"/>
      <circle id="Ellipse_139" data-name="Ellipse 139" cx="3.08" cy="3.08" r="3.08" transform="translate(53.742 14.414)" fill="#fbd1ca"/>
    </g>
    <g id="Group_5581" data-name="Group 5581" transform="translate(3233.15 1739.051)">
      <path id="Path_14882" data-name="Path 14882" d="M3347.421,1744.2h69.656a3.467,3.467,0,0,1,3.466,3.466v21.994a3.466,3.466,0,0,1-3.466,3.466h-57.754c-.29,2.325-1.922,6.915-10.315,6.915,0,0,3.453-.632,4.174-6.915h-5.761a3.465,3.465,0,0,1-3.466-3.466v-21.994A3.466,3.466,0,0,1,3347.421,1744.2Z" transform="translate(-3343.955 -1742.462)" fill="#2c8c7a"/>
      <path id="Path_14883" data-name="Path 14883" d="M3349.39,1741.543h69.656a3.466,3.466,0,0,1,3.466,3.466V1767a3.466,3.466,0,0,1-3.466,3.465h-57.754c-.29,2.325-1.923,6.915-10.315,6.915,0,0,3.453-.632,4.174-6.915h-5.761a3.466,3.466,0,0,1-3.466-3.465v-21.994A3.466,3.466,0,0,1,3349.39,1741.543Z" transform="translate(-3344.635 -1741.543)" fill="#e5f5fe"/>
      <rect id="Rectangle_1545" data-name="Rectangle 1545" width="71.457" height="2.987" rx="0.551" transform="translate(75.58 5.687) rotate(180)" fill="#c8c8c7" opacity="0.5"/>
      <rect id="Rectangle_1546" data-name="Rectangle 1546" width="71.457" height="2.987" rx="0.551" transform="translate(75.58 10.714) rotate(-180)" fill="#c8c8c7" opacity="0.5"/>
      <rect id="Rectangle_1547" data-name="Rectangle 1547" width="71.457" height="2.987" rx="0.551" transform="translate(75.58 15.741) rotate(-180)" fill="#c8c8c7" opacity="0.5"/>
      <rect id="Rectangle_1548" data-name="Rectangle 1548" width="71.457" height="2.987" rx="0.551" transform="translate(75.58 20.768) rotate(180)" fill="#c8c8c7" opacity="0.5"/>
      <rect id="Rectangle_1549" data-name="Rectangle 1549" width="71.457" height="2.987" rx="0.551" transform="translate(75.58 25.795) rotate(-180)" fill="#c8c8c7" opacity="0.5"/>
    </g>
    <path id="Path_14884" data-name="Path 14884" d="M3725.874,2043.877l5.4-4.024a33.516,33.516,0,0,0-10.313-10.313l-4.024,5.4a26.472,26.472,0,0,0-7.522-3.119l.977-6.675a32.72,32.72,0,0,0-14.589,0l.977,6.675a26.477,26.477,0,0,0-7.522,3.119l-4.025-5.4a33.506,33.506,0,0,0-10.313,10.313l5.4,4.024a26.428,26.428,0,0,0-3.118,7.522l-6.675-.977a32.682,32.682,0,0,0,0,14.589l6.675-.977a26.434,26.434,0,0,0,3.118,7.522l-5.4,4.024a33.508,33.508,0,0,0,10.313,10.313l4.025-5.4a26.46,26.46,0,0,0,7.522,3.119l-.977,6.675a32.72,32.72,0,0,0,14.589,0l-.977-6.675a26.455,26.455,0,0,0,7.522-3.119l4.024,5.4a33.509,33.509,0,0,0,10.313-10.313l-5.4-4.024a26.491,26.491,0,0,0,3.119-7.522l6.675.977a32.72,32.72,0,0,0,0-14.589l-6.675.977A26.485,26.485,0,0,0,3725.874,2043.877ZM3703.1,2075.44a17.723,17.723,0,1,1,17.723-17.723A17.724,17.724,0,0,1,3703.1,2075.44Z" transform="translate(-223.312 -100.159)" fill="#1c3742"/>
    <path id="Path_14885" data-name="Path 14885" d="M3640.97,2091.925l2.414-1.8a14.976,14.976,0,0,0-4.608-4.608l-1.8,2.414a11.836,11.836,0,0,0-3.361-1.393l.437-2.982a14.618,14.618,0,0,0-6.518,0l.437,2.982a11.836,11.836,0,0,0-3.361,1.393l-1.8-2.414a14.97,14.97,0,0,0-4.607,4.608l2.414,1.8a11.822,11.822,0,0,0-1.393,3.361l-2.983-.437a14.628,14.628,0,0,0,0,6.518l2.983-.437a11.825,11.825,0,0,0,1.393,3.361l-2.414,1.8a14.959,14.959,0,0,0,4.607,4.608l1.8-2.414a11.829,11.829,0,0,0,3.361,1.393l-.437,2.982a14.618,14.618,0,0,0,6.518,0l-.437-2.982a11.829,11.829,0,0,0,3.361-1.393l1.8,2.414a14.966,14.966,0,0,0,4.608-4.608l-2.414-1.8a11.831,11.831,0,0,0,1.393-3.361l2.983.437a14.618,14.618,0,0,0,0-6.518l-2.983.437A11.828,11.828,0,0,0,3640.97,2091.925Zm-10.176,14.1a7.918,7.918,0,1,1,7.918-7.918A7.918,7.918,0,0,1,3630.794,2106.026Z" transform="translate(-204.72 -120.489)" fill="#1c3742"/>
    <g id="Group_5585" data-name="Group 5585" transform="translate(3373.942 1734.327)">
      <g id="Group_5582" data-name="Group 5582" transform="translate(45.385 140.328)">
        <path id="Path_14886" data-name="Path 14886" d="M3645.964,1948.7c-39.656,0,.077,51.91.077,51.91S3685.62,1948.7,3645.964,1948.7Z" transform="translate(-3628.358 -1948.696)" fill="#f36711"/>
        <path id="Path_14887" data-name="Path 14887" d="M3647.181,1948.7c-34.477,0,.067,45.131.067,45.131S3681.657,1948.7,3647.181,1948.7Z" transform="translate(-3629.573 -1948.696)" fill="#fcaf00"/>
        <path id="Path_14888" data-name="Path 14888" d="M3649.454,1948.692c-24.8,0,.048,37.279.048,37.279S3674.256,1948.692,3649.454,1948.692Z" transform="translate(-3631.841 -1948.692)" fill="#f5bd55"/>
      </g>
      <rect id="Rectangle_1550" data-name="Rectangle 1550" width="33.448" height="7.198" transform="translate(46.286 139.29)" fill="#2c8c7a"/>
      <g id="Group_5583" data-name="Group 5583" transform="translate(76.031 97.126)">
        <path id="Path_14889" data-name="Path 14889" d="M3723.953,1951.966a1.783,1.783,0,0,1-3.2.941c-5.825-7.693-20.284-24.8-36.026-28.034a23.562,23.562,0,0,0-9.554-.1l10.63-42.078a61.794,61.794,0,0,1,5.661,3.822C3702.692,1894.9,3726.483,1916.954,3723.953,1951.966Z" transform="translate(-3675.172 -1882.696)" fill="#e53819"/>
        <path id="Path_14890" data-name="Path 14890" d="M3691.463,1886.518c-.706,7.985-2.709,26.671-6.738,38.356a23.562,23.562,0,0,0-9.554-.1l10.63-42.078A61.794,61.794,0,0,1,3691.463,1886.518Z" transform="translate(-3675.172 -1882.696)" fill="#d02d1a"/>
      </g>
      <g id="Group_5584" data-name="Group 5584" transform="translate(0 97.126)">
        <path id="Path_14891" data-name="Path 14891" d="M3559.215,1951.966a1.783,1.783,0,0,0,3.2.941c5.825-7.693,20.283-24.8,36.025-28.034a23.561,23.561,0,0,1,9.553-.1l-10.63-42.078a61.712,61.712,0,0,0-5.661,3.822C3580.475,1894.9,3556.684,1916.954,3559.215,1951.966Z" transform="translate(-3559.028 -1882.696)" fill="#e53819"/>
        <path id="Path_14892" data-name="Path 14892" d="M3608.944,1886.518c.706,7.985,2.709,26.671,6.737,38.356a23.561,23.561,0,0,1,9.553-.1l-10.63-42.078A61.712,61.712,0,0,0,3608.944,1886.518Z" transform="translate(-3576.268 -1882.696)" fill="#d02d1a"/>
      </g>
      <path id="Path_14893" data-name="Path 14893" d="M3656.357,1873.617h-33.43c-15.685-44.446-14.944-76.315-8.94-98.253,8.07-29.495,25.659-41.038,25.659-41.038s17.589,11.543,25.659,41.038C3671.308,1797.3,3672.042,1829.179,3656.357,1873.617Z" transform="translate(-3576.64 -1734.327)" fill="#fff"/>
      <path id="Path_14894" data-name="Path 14894" d="M3667.4,1775.365h-51.318c4.035-14.758,10.459-25.024,15.871-31.591a49.72,49.72,0,0,1,9.788-9.447,49.737,49.737,0,0,1,9.789,9.447C3656.937,1750.34,3663.36,1760.607,3667.4,1775.365Z" transform="translate(-3578.731 -1734.327)" fill="#df573d"/>
      <path id="Path_14895" data-name="Path 14895" d="M3659.9,1743.774h-19.578a49.724,49.724,0,0,1,9.789-9.447A49.737,49.737,0,0,1,3659.9,1743.774Z" transform="translate(-3587.105 -1734.327)" fill="#e53819"/>
      <circle id="Ellipse_140" data-name="Ellipse 140" cx="18.737" cy="18.737" r="18.737" transform="matrix(0.922, -0.386, 0.386, 0.922, 38.482, 68.346)" fill="#f0f0f0"/>
      <circle id="Ellipse_141" data-name="Ellipse 141" cx="18.737" cy="18.737" r="18.737" transform="translate(44.268 58.224)" fill="#dfdfde"/>
      <circle id="Ellipse_142" data-name="Ellipse 142" cx="13.026" cy="13.026" r="13.026" transform="translate(44.759 74.422) rotate(-37.08)" fill="#2c8c7a"/>
      <path id="Path_14896" data-name="Path 14896" d="M3655.912,1833.648l-11.036,23.534a13.017,13.017,0,0,1-6.21-4.991l9.44-20.126a13.584,13.584,0,0,1,1.432-.078A13,13,0,0,1,3655.912,1833.648Z" transform="translate(-3586.533 -1768.056)" fill="#fff" opacity="0.2"/>
      <path id="Path_14897" data-name="Path 14897" d="M3665.2,1839.871l-9.219,19.642a13.076,13.076,0,0,1-4.242-.064l10.694-22.8A13.012,13.012,0,0,1,3665.2,1839.871Z" transform="translate(-3591.046 -1769.666)" fill="#fff" opacity="0.2"/>
      <path id="Path_14898" data-name="Path 14898" d="M3651.866,1971.761a1.139,1.139,0,0,1-2.224,0c-3.58-16.472-13.787-68.859,1.106-69.176C3650.748,1902.59,3668.779,1896.1,3651.866,1971.761Z" transform="translate(-3587.993 -1792.393)" fill="#e53819"/>
      <path id="Path_14899" data-name="Path 14899" d="M3678.723,1775.365c-8.071-29.495-25.659-41.038-25.659-41.038a35.772,35.772,0,0,0-4.18,3.444c5.711,5.325,15.881,17.139,21.478,37.594,6,21.938,6.738,53.814-8.948,98.253h8.363C3685.46,1829.179,3684.726,1797.3,3678.723,1775.365Z" transform="translate(-3590.062 -1734.327)" fill="#040505" opacity="0.1"/>
    </g>
    <g id="Group_5207" data-name="Group 5207" transform="translate(3023.13 1827.404)">
      <g id="Group_5206" data-name="Group 5206">
        <path id="Path_11274" data-name="Path 11274" d="M3024.258,2006.515c-.486-.329.117-.864.634-.809a3.355,3.355,0,0,1,.418.1c-.886-.391-1.6-.72-1.762-.829-.463-.313.046-.833.543-.84-.35-.167-.612-.3-.715-.368-.6-.386.013-.925.627-.819a8.283,8.283,0,0,1,.952.309,5.04,5.04,0,0,1-.477-.248c-.488-.329-.039-.854.479-.8a7.458,7.458,0,0,1,1.1.352c.562.2,1.2.343,1.758.549.507.192,3.043.8,3.862-.192,1.253-1.517-2.28-1.979-2.321-3.53-.013-.486,2.5.308,3.817.955a16.265,16.265,0,0,1,2.679,1.5,20.573,20.573,0,0,0,2.073,1.676,12.69,12.69,0,0,0,2,.322l-.48,4.783a15.672,15.672,0,0,0-3.7-.229,11.22,11.22,0,0,1-6,.4,21.614,21.614,0,0,1-3.748-1.322S3024.419,2006.623,3024.258,2006.515Z" transform="translate(-3023.13 -1918.899)" fill="#fdba93"/>
        <g id="Group_5203" data-name="Group 5203" transform="translate(37.755 195.516)">
          <path id="Path_11275" data-name="Path 11275" d="M3100.468,2181.771a54.07,54.07,0,0,1-5.219,4.363c-1.553.942-5.007-3.676-4.631-4.768s6.952-6.186,6.952-6.186" transform="translate(-3084.184 -2175.18)" fill="#fdba93"/>
          <path id="Path_11276" data-name="Path 11276" d="M3085.052,2183.833c-1.541,1.09-4.248,3.389-4.248,3.389l2.606,5.253,1.234-.091a9.82,9.82,0,0,0,.725,3.761,21.54,21.54,0,0,0,3.071,4.437c3.3,3.376,6.562,4.874,7.21,4.539,2.711-1.4-1.627-5.924-2.369-6.964a8.225,8.225,0,0,1-.637-8.391c.735-1.295,1.175-1.267.53-1.735a1.9,1.9,0,0,0-1.461-.358,3.366,3.366,0,0,1-3.549-1.725,4,4,0,0,1-.421-2.457A2.422,2.422,0,0,0,3085.052,2183.833Z" transform="translate(-3080.805 -2177.961)" fill="#03336a"/>
        </g>
        <g id="Group_5204" data-name="Group 5204" transform="translate(115.972 218.402)">
          <path id="Path_11277" data-name="Path 11277" d="M3209.257,2212.081a54.012,54.012,0,0,1,.06,6.8c-.257,1.8-6.022,1.536-6.623.554s-.371-9.3-.371-9.3" transform="translate(-3200.976 -2210.141)" fill="#fdba93"/>
          <path id="Path_11278" data-name="Path 11278" d="M3200.376,2224.684c-.129,1.883-.077,5.434-.077,5.434l5.714,1.319.712-1.013a9.828,9.828,0,0,0,3.368,1.83,21.577,21.577,0,0,0,5.379.441c4.7-.407,7.932-1.979,8.083-2.692.64-2.981-5.611-2.5-6.884-2.588a8.222,8.222,0,0,1-6.89-4.832c-.534-1.39-.233-1.716-1.008-1.512a1.893,1.893,0,0,0-1.2.9,3.369,3.369,0,0,1-3.586,1.648,4.016,4.016,0,0,1-2.166-1.233A2.423,2.423,0,0,0,3200.376,2224.684Z" transform="translate(-3200.289 -2213.897)" fill="#03336a"/>
        </g>
        <path id="Path_11279" data-name="Path 11279" d="M3194.719,2050.685s7.768,44.59,7.957,53.876-1.349,55.532-1.349,55.532-7.521.564-9.951-.867c-.286-7.714-7.03-68.177-15.882-85.854S3194.719,2050.685,3194.719,2050.685Z" transform="translate(-3075.156 -1936.667)" fill="#4d98d4"/>
        <path id="Path_11280" data-name="Path 11280" d="M3152.039,2071.78a64.3,64.3,0,0,1-16.933,38.635,332.023,332.023,0,0,1-32.3,30.5s-4.8-3.7-6.211-6.969c4.811-4.375,27.607-30.078,29.927-41.468s3.462-39.3,3.462-39.3l19.661-.646Z" transform="translate(-3048.505 -1937.306)" fill="#4d98d4"/>
        <path id="Path_11281" data-name="Path 11281" d="M3047.749,1973.778s21.148,5.375,32.731,4.552,33.088-10.392,33.088-10.392l25.574-12.406c7.117-5.94,18.4-24.573,20.274-27.988,1.872-3.44,11.022-27.64,11.022-27.64l-4.6-1.417s-9.062,16.624-13.888,26.082c-4.532,8.859-21.571,18.754-25.719,21.26l0,.024c-.295.153-.52.292-.679.37-2.559,1.4-1.546,5.325-1.546,5.325l-4.049.643s-3.627-2.911-6.624-1.183a9.089,9.089,0,0,0-1,.674c-4.23,3.039-15.4,14.68-33.948,17.984-13.107.5-27.332-.052-30.7-.7C3047.745,1972.363,3047.749,1973.778,3047.749,1973.778Z" transform="translate(-3031.612 -1884.101)" fill="#fdba93"/>
        <path id="Path_11282" data-name="Path 11282" d="M3146.453,1975.088c.447,1.387,4.336,5.364,8.623,4.6,8.449-1.952,5.489-9.924,5.274-10.432-.294.153-.52.293-.679.37-2.559,1.4-3.252-3.379-3.252-3.379l-8.68,2.711s2.712,3.726-.287,5.452A9.191,9.191,0,0,0,3146.453,1975.088Z" transform="translate(-3065.723 -1907.505)" fill="#faae84"/>
        <path id="Path_11283" data-name="Path 11283" d="M3128.415,1994.376s3.641,17.369,4.11,28.79c18.276,8.572,32.677,2.23,39.577-2.276a29.653,29.653,0,0,0,4.463-3.405s-3.278-10.449-4.932-18.057c-1.68-7.632-4.54-17.68-6.708-24.554.017-1.021,4.145-5.187,8.726-11.421-3.975-2.645-9.455-11.088-9.455-11.088l-16.135,12.093s2.643,7.308-3.166,9.709c-5.805,2.426-8.53-1.288-10.731-3.878-2.651,2.41-15.635,10.016-23.281,13.266l5.674,16.235S3125.053,1996.987,3128.415,1994.376Z" transform="translate(-3053.438 -1902.709)" fill="#d8422c"/>
        <g id="Group_5205" data-name="Group 5205" transform="translate(63.398 30.255)">
          <path id="Path_11284" data-name="Path 11284" d="M3157.026,1934.056a3.441,3.441,0,0,1,2.951,5.048,1.894,1.894,0,0,1,2.218,1.494,4.805,4.805,0,0,1-.488,2.916,4.417,4.417,0,0,1-2.125,2.608,3.32,3.32,0,0,1-2.433-.128,4.1,4.1,0,0,1-1.476-.983,6.679,6.679,0,0,1-1.051-1.731l-3.058-6.445a1.722,1.722,0,0,1-.22-1.388" transform="translate(-3130.79 -1926.641)" fill="#03336a"/>
          <path id="Path_11285" data-name="Path 11285" d="M3133.989,1951.7a34.225,34.225,0,0,0,2.915,3.784,5.311,5.311,0,0,0,5.783,1.821,34.848,34.848,0,0,0,7.8-2.775c2.679-1.51,3.363-3.271,2.7-6.258-.412-1.85-.794-3.706-1.244-5.548a86.34,86.34,0,0,0-3.571-11.523c-.349-.871-.709-2.117-1.9-1.871a62.351,62.351,0,0,0-11.023,3.344c-2.515,1.026-5.1,2.332-6.527,4.638-1.441,2.325-1.445,5.229-1.408,7.963.005.44.1.993.521,1.1" transform="translate(-3122.575 -1924.999)" fill="#fdba93"/>
          <path id="Path_11286" data-name="Path 11286" d="M3132.874,1943.9c-.528-.78-1.883-.344-2.246.523a3.989,3.989,0,0,0,.229,2.749,6.236,6.236,0,0,0,2.246,2.727c.923.715,1.981.926,2.484-.126a3.051,3.051,0,0,1-1.221,3.83,2.764,2.764,0,0,1-3.218-.81c-4.156,3.579-8.3-2.83-9.9-6.212a15.3,15.3,0,0,1-.962-9.175,6.324,6.324,0,0,1,2.5-3.943,6,6,0,0,1,1.425-5.289,15.461,15.461,0,0,1,4.065-3.385c1-.619,4.219-.931,5.18-.037,1.607-1.946,3.855-1.5,5.554-1.913s4.072.409,3.931,2.152c2.26-1.734,6.119.138,6.313,2.979s-3.131,5.22-5.816,4.272a5.241,5.241,0,0,1-3.5,4.3,10.19,10.19,0,0,1-5.775.152,4.1,4.1,0,0,1,1.432,3.269c-.087,1.284-.192,2.253-1.945,2.529,0,0,1.094,2.481.429,2.459S3132.874,1943.9,3132.874,1943.9Z" transform="translate(-3119.977 -1922.728)" fill="#03336a"/>
        </g>
        <path id="Path_11287" data-name="Path 11287" d="M3238.376,1879.124c-.028-.587-.8-.348-1.022.124a3.226,3.226,0,0,0-.129.412c.125-.959.215-1.743.205-1.936-.028-.559-.736-.392-1,.028.037-.386.06-.678.056-.8-.023-.715-.8-.465-1.027.111a8.759,8.759,0,0,0-.229.975,4.677,4.677,0,0,0,.037-.539c-.029-.587-.71-.477-.933-.006a7.394,7.394,0,0,0-.27,1.121c-.124.581-.328,1.2-.441,1.789-.1.532-.9,3.016-2.167,3.2-1.948.284-.51-2.976-1.816-3.815-.41-.259-1.032,2.3-1.159,3.761a16.265,16.265,0,0,0-.1,3.07,20.375,20.375,0,0,1,.358,2.641,12.68,12.68,0,0,1-.766,1.876l4.338,2.071a15.68,15.68,0,0,1,1.724-3.281,11.214,11.214,0,0,0,3.456-4.918,21.56,21.56,0,0,0,.811-3.891S3238.384,1879.318,3238.376,1879.124Z" transform="translate(-3093.878 -1876.511)" fill="#faae84"/>
        <path id="Path_11288" data-name="Path 11288" d="M3141.775,2044.5c18.276,8.572,32.677,2.23,39.577-2.276-23.173,11.234-35.054,1.517-37.074.635.372-4.829-4.334-28.723-4.334-28.723a13.782,13.782,0,0,1-2.279,1.575S3141.305,2033.077,3141.775,2044.5Z" transform="translate(-3062.688 -1924.044)" fill="#d43725"/>
      </g>
    </g>
    <g id="Group_5590" data-name="Group 5590" transform="translate(3161.054 1787.522)">
      <g id="Group_5586" data-name="Group 5586" transform="translate(0.141)">
        <rect id="Rectangle_1551" data-name="Rectangle 1551" width="103.471" height="66.127" rx="2.461" transform="translate(0 1.181)" fill="#c8c8c7"/>
        <rect id="Rectangle_1552" data-name="Rectangle 1552" width="103.471" height="66.127" rx="2.461" fill="#fff"/>
      </g>
      <g id="Group_5587" data-name="Group 5587" transform="translate(4.733 4.751)">
        <path id="Path_14900" data-name="Path 14900" d="M3246.69,1825.664a2.819,2.819,0,1,1-2.819-2.819A2.819,2.819,0,0,1,3246.69,1825.664Z" transform="translate(-3241.052 -1822.845)" fill="#c8c8c7" opacity="0.5"/>
        <path id="Path_14901" data-name="Path 14901" d="M3259.831,1825.664a2.819,2.819,0,1,1-2.819-2.819A2.819,2.819,0,0,1,3259.831,1825.664Z" transform="translate(-3245.591 -1822.845)" fill="#c8c8c7" opacity="0.5"/>
        <path id="Path_14902" data-name="Path 14902" d="M3273.2,1825.664a2.819,2.819,0,1,1-2.819-2.819A2.819,2.819,0,0,1,3273.2,1825.664Z" transform="translate(-3250.206 -1822.845)" fill="#c8c8c7" opacity="0.5"/>
      </g>
      <g id="Group_5588" data-name="Group 5588" transform="translate(0 17.224)">
        <circle id="Ellipse_143" data-name="Ellipse 143" cx="15.65" cy="15.65" r="15.65" transform="translate(0 22.132) rotate(-45)" fill="#df573d"/>
        <path id="Path_14903" data-name="Path 14903" d="M3273.208,1871.345l-13.2-7.619a.556.556,0,0,0-.834.482v15.239a.556.556,0,0,0,.834.482l13.2-7.619A.557.557,0,0,0,3273.208,1871.345Z" transform="translate(-3242.579 -1849.411)" fill="#fff"/>
      </g>
      <g id="Group_5589" data-name="Group 5589" transform="translate(45.17 28.63)" opacity="0.5">
        <rect id="Rectangle_1553" data-name="Rectangle 1553" width="53.851" height="3.305" fill="#c8c8c7"/>
        <rect id="Rectangle_1554" data-name="Rectangle 1554" width="53.851" height="3.305" transform="translate(0 9.358)" fill="#c8c8c7"/>
        <rect id="Rectangle_1555" data-name="Rectangle 1555" width="53.851" height="3.305" transform="translate(0 18.715)" fill="#c8c8c7"/>
      </g>
    </g>
    <g id="Group_5210" data-name="Group 5210" transform="translate(3479.787 1834.867)">
      <g id="Group_5209" data-name="Group 5209">
        <path id="Path_11289" data-name="Path 11289" d="M3830.011,1904.175s-1.24-9.768-5.306-13.324c-5.3-4.639-16.677-3.4-21.119,1.025-4.92,4.9-7.276,14.921-3.276,22.154-7.979,4.673-7.538,14.988-.842,15.955l-2.348,12.415c-1.46,7.719,3.935,15.126,12.234,16.8l14.866,2.993s25.424-2.4,27.369-14.954-9.632-18.4-9.632-18.4,5.557-10.551-.278-17.991S3830.011,1904.175,3830.011,1904.175Z" transform="translate(-3746.16 -1887.912)" fill="#03336a"/>
        <path id="Path_11290" data-name="Path 11290" d="M3768.247,1948.01s-22.923,3.632-29.141,3.358c-4.872.271-12.884-26.385-13.589-28.018-3.884-2.442-4.854-5.781-4.8-7.62s5.019-3.392,5.5-2.467c-.821-2.444-1-3.207-1.227-4.046-.461-1.734.864-3.056,2.762,3.488,1.876,6.458,1.7,5.394,2.152,7.666,3.067,5.89,10.979,19.641,11.516,21.722,10.255-.241,27.646-4.242,27.646-4.242Z" transform="translate(-3720.717 -1894.781)" fill="#fdba93"/>
        <path id="Path_11291" data-name="Path 11291" d="M3846.879,1964.326s17.883,14.626,23.062,17.812c3.746,2.886,27.144-14.724,28.761-15.65,4.7.161,6.655-1.5,7.792-3.009s-1.854-5.477-2.831-5c2.232-1.516,2.87-2.031,3.589-2.582,1.487-1.144,1.276-2.932-4.468,1.293-5.667,4.171-4.836,3.413-6.666,4.991-6.261,3.062-21.479,9.794-23.251,11.176-8.1-5.81-19.516-18.553-19.516-18.553Z" transform="translate(-3764.29 -1910.92)" fill="#fdba93"/>
        <path id="Path_11292" data-name="Path 11292" d="M3799.559,2209.989a36.585,36.585,0,0,0-.942,7.673c.47,2.355,0,3.055,0,3.055l-9.709-.764s4.292-1.944,3.991-11.178S3799.559,2209.989,3799.559,2209.989Z" transform="translate(-3744.268 -1997.414)" fill="#fdba93"/>
        <path id="Path_11293" data-name="Path 11293" d="M3791.3,2225.445a16.394,16.394,0,0,1-8.391.355,42.145,42.145,0,0,1-12.822,3.436c-4.461.521-3.669,3.906,3.953,3.436a102.771,102.771,0,0,1,14.635.01c1.694.156,4.4.364,4.516-.73S3792.672,2225.084,3791.3,2225.445Z" transform="translate(-3736.823 -2004.482)" fill="#ee7835"/>
        <path id="Path_11294" data-name="Path 11294" d="M3794.448,2027.606s-6.248,56.175-6.619,63.489a90.326,90.326,0,0,0,0,14.31c.371,4.451-2.825,41.959-2.825,41.959s14.539,3.259,18.244.362c0,0-.6-40.9,1.249-47.891s9.094-42.446,9.094-42.446l-8.35-36.25Z" transform="translate(-3742.92 -1933.925)" fill="#4d98d4"/>
        <path id="Path_11295" data-name="Path 11295" d="M3832.132,2085.131s1.132,11.917,3.508,14.135c1.486,3.58,1.486,3.58-.839,5.006-3.542,2.173-10.7,6.352-12.467,4.588-6.658-6.613-6.906-8.943-8.485-17.5-.526-1.958-9.807-58.57-9.807-58.57s29.541-4.113,29.645,3.974S3830.649,2075.716,3832.132,2085.131Z" transform="translate(-3749.495 -1937.59)" fill="#66a7d0"/>
        <g id="Group_5208" data-name="Group 5208" transform="translate(111.279 197.919)">
          <path id="Path_11296" data-name="Path 11296" d="M3898.445,2190.373a41.3,41.3,0,0,0,6.041,5.345c2.319,1.089,2.631,1.857,2.631,1.857l-6.549,6.654s.929-4.325-7.214-9.708S3898.445,2190.373,3898.445,2190.373Z" transform="translate(-3890.705 -2190.251)" fill="#fdba93"/>
          <path id="Path_11297" data-name="Path 11297" d="M3907.363,2198.979a13.967,13.967,0,0,1-4.786,6.367,34.841,34.841,0,0,1-4.821,11.485c-2.258,3.587,1.14,5.06,5.361-.812a89.153,89.153,0,0,1,8.888-10.722c1.162-1.147,2.987-3.008,2.112-3.753S3907.886,2197.749,3907.363,2198.979Z" transform="translate(-3892.891 -2193.166)" fill="#ee7835"/>
        </g>
        <path id="Path_11298" data-name="Path 11298" d="M3842.879,2131.506c12.887,16.082,34.693,28.181,40.854,37.654,1.1,2.98-13.184,10.6-13.184,10.6s-29.714-26.908-35.8-32.825c-2.362-2.295-4.742-4.134-6.556-6.577C3833.963,2138.463,3839.275,2127.008,3842.879,2131.506Z" transform="translate(-3757.836 -1971.684)" fill="#66a7d0"/>
        <path id="Path_11299" data-name="Path 11299" d="M3802.245,1966.019c.869,2.03-5.763,30.234-6.877,36.731l.408-.076c2.883-.427,20.525-2.758,34.771,3.183l1.3-39.839.055-1.48s0-1.5-.135-3.811v-.026c-.327-4.74-1.305-12.738-4.351-17.876-1.577-2.657-3.669-4.563-6.523-4.838-8.863-.878-8.809,2.758-17.046,4.789l-13.35,3.309s1.5,10.356,0,13.439h9.272S3801.374,1963.963,3802.245,1966.019Z" transform="translate(-3744.818 -1905.161)" fill="#ee7835"/>
        <path id="Path_11300" data-name="Path 11300" d="M3810.461,1899.556s-5.626,13.034-1.366,18.988c3.192,4.463,8.775,4.588,8.775,4.588v6.418a3.062,3.062,0,0,0,1.76.627c1.944.1,7.131-3.018,7.131-3.018v-25.282Z" transform="translate(-3750.689 -1891.933)" fill="#fdba93"/>
        <path id="Path_11301" data-name="Path 11301" d="M3840.972,1961.823c3.043,3.034,5.137,5.216,6.524,6.694l.055-1.48s.054-14.037-4.486-21.712a6.175,6.175,0,0,0-2.093-.226C3833.876,1945.626,3834.284,1955.179,3840.972,1961.823Z" transform="translate(-3760.464 -1907.659)" fill="#e95d1d"/>
        <path id="Path_11302" data-name="Path 11302" d="M3790.5,1965.827s6.253-.251,6.987-1.428,3.182-6.495,7.015-8.3c0,0-5.382,5.215-4.73,9.728Z" transform="translate(-3744.818 -1911.462)" fill="#e95d1d"/>
        <path id="Path_11303" data-name="Path 11303" d="M3798.556,2014.743c2.883-.427,20.526-2.758,34.772,3.183l1.3-39.839.055-1.479s0-1.5-.135-3.811l-3.4,1.028s-.109,34.9-1.822,37.083c-1.685,2.181-16.991.526-20.932,1.153A76.613,76.613,0,0,0,3798.556,2014.743Z" transform="translate(-3747.6 -1917.229)" fill="#e95d1d"/>
        <path id="Path_11304" data-name="Path 11304" d="M3859.483,1957.107s-11.435-14.876-18.524-14.349-6.668,10.073,0,16.741,8.891,9.227,8.891,9.227S3858,1964.967,3859.483,1957.107Z" transform="translate(-3760.463 -1906.849)" fill="#ee7835"/>
        <path id="Path_11305" data-name="Path 11305" d="M3811.23,1897.275s2.651,11.673,8.761,14.747,1.494,10.634,7.321,16.28c1.723,1.669,4.3,1.39,6.263.808a8.1,8.1,0,0,1,8.035,1.805,4.384,4.384,0,0,1,.5.62c7.567-5-11.591-32.766-11.591-32.766Z" transform="translate(-3751.978 -1891.146)" fill="#03336a"/>
      </g>
    </g>
    <g id="Group_5592" data-name="Group 5592" transform="translate(3185.844 1870.656)">
      <g id="Group_5591" data-name="Group 5591">
        <path id="Path_14904" data-name="Path 14904" d="M3405.321,1988.366a10.328,10.328,0,1,1-10.417-10.24A10.329,10.329,0,0,1,3405.321,1988.366Z" transform="translate(-3310.708 -1954.858)" fill="#2c8c7a"/>
        <path id="Path_14905" data-name="Path 14905" d="M3316.863,2037.947a6.4,6.4,0,0,1-6.349,6.458h0a6.4,6.4,0,0,1-6.458-6.35l-.334-39.4a6.4,6.4,0,0,1,6.35-6.458h0a6.4,6.4,0,0,1,6.457,6.35Z" transform="translate(-3282.753 -1959.717)" fill="#238971"/>
        <path id="Path_14906" data-name="Path 14906" d="M3360.437,1947.567l.51,60.26c.023,2.74-2.035,4.144-4.585,3.15l-39.434-15.37-44.062-17.166,43.221-17.694.544-.229,39.168-16.036C3358.332,1943.444,3360.414,1944.828,3360.437,1947.567Z" transform="translate(-3272.096 -1943.12)" fill="#d7d7d5"/>
        <path id="Path_14907" data-name="Path 14907" d="M3289.618,2002.891a2.481,2.481,0,0,1-2.5-2.458l-.252-29.766a2.48,2.48,0,0,1,2.458-2.5l32.063-.272.295,34.724Z" transform="translate(-3276.931 -1951.325)" fill="#2c8c7a"/>
        <path id="Path_14908" data-name="Path 14908" d="M3276.823,2000.968l5.037-.043-.218-25.662-5.037.043a4.959,4.959,0,0,0-4.916,5l.134,15.746A4.958,4.958,0,0,0,3276.823,2000.968Z" transform="translate(-3271.69 -1953.87)" fill="#238971"/>
        <path id="Path_14909" data-name="Path 14909" d="M3383.821,1946.012l.255,30.13-44.458.376-.147-17.326.544-.229,39.167-16.036C3381.717,1941.89,3383.8,1943.273,3383.821,1946.012Z" transform="translate(-3295.1 -1942.583)" fill="#d7d7d5"/>
      </g>
    </g>
  </g>
</svg>
