<svg xmlns="http://www.w3.org/2000/svg" width="506.182" height="284.7" viewBox="0 0 506.182 284.7">
  <g id="Group_6277" data-name="Group 6277" transform="translate(-40.227 -36)">
    <g id="Group_6234" data-name="Group 6234" transform="translate(451.237 130.767)">
      <path id="Path_15882" data-name="Path 15882" d="M326.4,80.814s12.557,87.255-10.888,138.661c-7.958,17.448-17.742,28.715-27.2,35.99a33.023,33.023,0,0,1-52.674-20.652c-1.99-11.76-1.51-26.674,4.511-44.882C257.887,136.288,326.4,80.814,326.4,80.814Z" transform="translate(-234.588 -80.814)" fill="#244854"/>
      <path id="Path_15883" data-name="Path 15883" d="M270.227,219.236q2.147-5.443,4.291-10.886l-28.487-32.8c.2-.414.4-.827.6-1.239l28.408,32.71,4.056-10.294q-13.376-15.9-28.115-30.576c.214-.376.431-.753.649-1.129q14.658,14.563,27.994,30.365,1.948-4.945,3.9-9.888l-26.632-29.013q.355-.549.717-1.093l26.431,28.8,4.086-10.366q-11.258-14.6-23.676-28.237.381-.52.768-1.038,12.285,13.468,23.452,27.9,2.1-5.338,4.208-10.677-10.287-12.97-21.656-25.017.4-.5.8-1,11.216,11.866,21.394,24.653,1.713-4.349,3.426-8.7-8.815-12.088-18.7-23.333c.279-.326.556-.649.835-.973q9.716,11.039,18.414,22.91,2.09-5.3,4.179-10.6a120.531,120.531,0,0,0-15.329-20.493l.859-.935a121.756,121.756,0,0,1,15.052,19.952l1.423-3.61a.644.644,0,0,1,.245-.626l1.03-2.614a62.394,62.394,0,0,0-13.468-17.679c.292-.307.582-.611.873-.916a63.83,63.83,0,0,1,13.21,17.034l3.132-7.945a124.608,124.608,0,0,0-10.721-14.856q.45-.457.9-.9a124.59,124.59,0,0,1,10.4,14.3q1.456-3.692,2.91-7.384-3.99-4.663-7.979-9.328c-.44-.514-.886-1.028-1.324-1.544q.454-.444.9-.878c.649.763,1.315,1.514,1.96,2.269l6.966,8.144,2.461-6.247q-2.826-4.761-6.054-9.256l.935-.873q3.023,4.206,5.705,8.643l2.874-7.289q-1.852-2.893-3.965-5.6.479-.435.945-.854,1.9,2.427,3.589,5.005l1.734-4.4-2.163-3.424c.33-.29.649-.571.962-.844l1.776,2.81L324,82.808c1.542-1.3,2.4-1.994,2.4-1.994s.152,1.059.391,3.009L323.9,91.151a28.9,28.9,0,0,1,3.517-1.787q.067.641.137,1.322a27.268,27.268,0,0,0-4.456,2.5L321.081,98.3a43.312,43.312,0,0,1,6.879-3.367c.038.429.078.865.116,1.309a41.39,41.39,0,0,0-7.219,3.684.654.654,0,0,1-.455.1q-1.856,4.7-3.709,9.406,5.9-3,11.984-5.581.048.663.093,1.341-6.5,2.769-12.777,6.02l-3.337,8.463q8.168-4,16.524-7.587.035.672.068,1.351-8.742,3.765-17.281,7.985-2.043,5.186-4.088,10.375,10.636-5.662,21.68-10.487.022.682.04,1.372-11.432,5.024-22.441,10.943l-2.7,6.839,25.285-8.446q0,.663,0,1.332L303.857,142l-5.227,13.261a313.691,313.691,0,0,1,31.054-14.253q-.013.688-.027,1.379a314.175,314.175,0,0,0-31.743,14.691l-4.785,12.147,35.922-12.758q-.044.688-.093,1.379-18.223,6.471-36.446,12.944-.913,2.312-1.825,4.629l-2.22,5.633q19.812-6.582,39.625-13.162-.073.692-.148,1.383l-40.081,13.312-3.424,8.689q20.91-4.777,41.822-9.558-.111.679-.224,1.353L284.1,192.65a.581.581,0,0,1-.216.011q-2.446,6.211-4.893,12.419l44.987-11.6c-.1.465-.211.928-.319,1.389l-45.241,11.66-3.667,9.3q22.372-3.207,44.742-6.412c-.156.453-.313.9-.474,1.351l-44.806,6.42-3.9,9.907a390.139,390.139,0,0,0,43.412-3.9q-.349.7-.7,1.391a391.108,391.108,0,0,1-43.215,3.785q-3.166,8.035-6.333,16.072,19.514-.612,38.9-3.058c-.381.486-.763.96-1.146,1.427q-18.937,2.325-38.034,2.9a.752.752,0,0,1-.212-.027q-1.335,3.381-2.667,6.763l31.193.387c-.495.425-.987.844-1.482,1.248q-15.1-.19-30.208-.376-1.316,3.347-2.637,6.693-1.4-.495-2.747-1.114l.73-1.852-18.912-19.738q-.3-1.167-.527-2.379l19.95,20.821q1.177-2.991,2.358-5.982-11.7-12.418-23.388-24.837c-.025-.626-.042-1.262-.055-1.9l23.955,25.439q1.83-4.641,3.658-9.279l-27.034-27.7c.059-.531.127-1.066.2-1.605L262.716,238.3q1.6-4.048,3.189-8.095l.089-.222a397.873,397.873,0,0,0-28.838-29.436q.162-.7.336-1.415a400.392,400.392,0,0,1,29.024,29.527l.41-1.04a.5.5,0,0,1,.087-.22l2.671-6.782q-13.4-17.611-28.421-33.883.244-.666.5-1.332Q256.794,201.627,270.227,219.236Z" transform="translate(-234.58 -80.814)" fill="#30616d"/>
    </g>
    <g id="Group_4884" data-name="Group 4884" transform="translate(437.951 40.619)">
      <path id="Path_10384" data-name="Path 10384" d="M263.351,233.292c-6.82-14.555-39.587-22.663-34.516-40.7s32.107,12.608,30.906,4.623-35.966-24.792-27.5-41.213c7.012-13.6,22.676,2.969,26.287,3.66s-20.658-18.9-16.338-26.6,15.467-.837,19.789,3.578-14.794-26.446-7.348-34.8,18.715,19.8,19.643,10.4-12.183-31.843-3.028-36.2,11.59,10.155,15.915,14.576,2.447-18.937,11.967-35.488,28.789-24.012,25.329-8.256-25.16,39.242-20.468,43.1,23.407-15.606,20.087,2.06S292.3,112.79,299.548,119.5s19.781-1.269,18.548,8.2-29.479,11.483-25.655,16.494,8.133,4.356,24.162,3.212c15.407-1.1,11.447,19.882-6.471,22.21s-29.123,8.573-21.022,9.77,17.2,1.73,25.141,3.415c17.973,3.821,15.228,19.083-5.845,23.536s-36.07,10.512-24.507,9.524,38.1,1.649,20.087,8.848S263.351,233.292,263.351,233.292Z" transform="translate(-228.305 -38.184)" fill="#297c68"/>
      <path id="Path_15884" data-name="Path 15884" d="M233,186.662l0-1.531c11.965.017,18.544,4.553,21.957,8.357a21.172,21.172,0,0,1,4.6,8.285q.263-2.046.533-4.073l-.006,0,.013-.053q.939-6.959,2.009-13.661l-.017,0c.683-4.521-1.093-14.132-7.186-21.345-5.084-6.018-11.929-9.148-20.354-9.3l.027-1.529c8.759.159,16.192,3.563,21.5,9.844a33.632,33.632,0,0,1,7.186,15.374q1.1-6.4,2.3-12.534l-.03-.006c.072-.4.159-.78.256-1.157q.46-2.331.933-4.625c-.209-1.136-5.323-28.026-21.933-32.067l.362-1.487c7.42,1.806,13.771,8.167,18.362,18.4a71.181,71.181,0,0,1,3.969,11.523q1.386-6.518,2.853-12.7H270.3a15.763,15.763,0,0,1,1.235-4.976l.087-.347-.038,0c.017-.319,1.622-31.794-15.7-38.35l.541-1.432c7.642,2.895,12.948,10.736,15.346,22.682a74.622,74.622,0,0,1,1.315,11.288q2.132-8.26,4.331-15.8l-.059-.017c.271-.975.573-1.912.9-2.834.41-1.387.823-2.762,1.233-4.111l-.04,0c.015-.285,1.537-28.831-11.087-36.448l.789-1.309c10.131,6.111,11.743,23.9,11.895,32.75,10.958-34.687,21.261-54.78,21.451-55.148l1.358.7c-.19.368-10.5,20.487-21.449,55.216,4.864-7.222,13.012-13.682,27.491-22.5l.8,1.307c-20.988,12.792-27.558,20.3-30.872,29.65-1.833,6.168-3.663,12.728-5.443,19.666,4.117-5.642,12.4-12.227,29.075-15.716l.315,1.5c-16.181,3.383-24.006,9.823-27.719,14.627a22.542,22.542,0,0,0-3.138,5.441q-2.331,9.507-4.494,19.857c5.2-6.283,17.1-8.793,39-13.4l3.692-.78.317,1.5-3.692.778c-26.5,5.576-37.992,8-40.468,17.575-1.871,9.51-3.589,19.5-5.073,29.94,5.5-6.27,21.252-10.893,49.507-14.672l.2,1.516c-47.4,6.34-49.7,14.517-50.291,17.368q-.86,6.4-1.594,13.014c2.182-1.15,6.594-1.256,15.01-1.444,5.143-.118,12.187-.277,21.244-.721l.074,1.527c-9.078.446-16.133.607-21.284.723-12.538.281-15.05.425-15.371,2.937q-.428,4.041-.808,8.152l-1.525-.137q.371-4.07.8-8.061h0c0-.032.011-.059.015-.091q.282-2.674.586-5.316h0a18.691,18.691,0,0,0-4.927-13.953C249.224,189.388,242.023,186.673,233,186.662Z" transform="translate(-223.072 -26.892)" fill="#1d5041"/>
    </g>
    <g id="Group_6275" data-name="Group 6275" transform="translate(40.226 36)">
      <g id="Group_5183" data-name="Group 5183" transform="translate(151.229)">
        <g id="Group_5180" data-name="Group 5180" transform="translate(10.209 107.447)">
          <g id="Group_5179" data-name="Group 5179" transform="translate(0 129.447)">
            <path id="Path_11191" data-name="Path 11191" d="M118.531,148.893a62.163,62.163,0,0,1-.683,14.067,1.678,1.678,0,0,0,.006.844,1.627,1.627,0,0,0,.939.785,42.143,42.143,0,0,0,18.611,3.825,11.343,11.343,0,0,0-2.14-1.565,19.057,19.057,0,0,1-8.311-17.945" transform="translate(-115.198 -147.055)" fill="#fdba93"/>
            <path id="Path_11192" data-name="Path 11192" d="M125.329,158.375a8.878,8.878,0,0,0,4.54,1.349c1.6-.1,3.24-1.262,3.322-2.861,2.5.083,4.426,2.14,6.674,3.244,3.428,1.681,7.524,1.085,11.212,2.074a4,4,0,0,1,2.305,1.336,1.716,1.716,0,0,1-.3,2.4,2.537,2.537,0,0,1-.837.258,57.672,57.672,0,0,1-24.166-.774,5.2,5.2,0,0,0-2.434-.222c-.558.135-1.055.461-1.614.6a4.991,4.991,0,0,1-2.1-.091L118,164.964a1.757,1.757,0,0,1-1.038-.442,1.661,1.661,0,0,1-.321-.84c-.324-1.8.613-3.267.8-5.082a7.565,7.565,0,0,1,1.254-3.024c1.024-1.148,1.4-.351,2.787.315a25.731,25.731,0,0,1,3.851,2.478" transform="translate(-116.568 -140.252)" fill="#1c3742"/>
            <path id="Path_11193" data-name="Path 11193" d="M134.662,148.024a62.1,62.1,0,0,1-4.921,13.2,1.684,1.684,0,0,0-.25.808,1.627,1.627,0,0,0,.658,1.032,42.153,42.153,0,0,0,16.571,9.294,11.333,11.333,0,0,0-1.563-2.14,19.054,19.054,0,0,1-2.472-19.62" transform="translate(-102.162 -148.024)" fill="#fdba93"/>
            <path id="Path_11194" data-name="Path 11194" d="M136.528,158.284a8.737,8.737,0,0,0,4.234,1.95,3.355,3.355,0,0,0,3.635-2.322c2.423.429,4.009,2.7,6.044,4.09,3.1,2.117,7.175,2.108,10.626,3.591a3.912,3.912,0,0,1,2.055,1.624,1.682,1.682,0,0,1-.626,2.292,2.469,2.469,0,0,1-.85.135,56.718,56.718,0,0,1-23.426-4.132,5.05,5.05,0,0,0-2.339-.558c-.562.053-1.091.3-1.654.362a4.928,4.928,0,0,1-2.034-.376l-3.73-1.258a1.719,1.719,0,0,1-.95-.575,1.651,1.651,0,0,1-.195-.861c-.063-1.793,1.053-3.1,1.493-4.836a7.436,7.436,0,0,1,1.645-2.768c1.159-.975,1.41-.146,2.671.7a25.52,25.52,0,0,1,3.4,2.952" transform="translate(-104.588 -141.14)" fill="#1c3742"/>
          </g>
          <path id="Path_11195" data-name="Path 11195" d="M119.9,96.451c-3.654,17.3-.975,35.228-1.288,52.907-.137,7.862-.871,15.7-1.292,23.549a294.119,294.119,0,0,0,1.375,48.109,49.974,49.974,0,0,0,11.612.4l3.362-34.38a185.559,185.559,0,0,1,2.648-19.738c.971-4.665,2.3-9.245,3.337-13.893a219.286,219.286,0,0,0,3.487-23.185l17.251,37.233a18.121,18.121,0,0,1,1.9,5.691,17.824,17.824,0,0,1-1.157,6.97q-6.623,21.4-15.2,42.135l9.286,4.048a2.44,2.44,0,0,0,1.605.294c.683-.2,1.043-.926,1.322-1.582l17.909-42.084c1.924-4.525,3.893-9.324,3.267-14.2a75.652,75.652,0,0,0-1.871-11.039c-1.085-4.185-3.229-9.715-4.276-13.91-4.24-17-9.9-31.857-14.139-48.862a5.926,5.926,0,0,0-1.381-2.988,5.781,5.781,0,0,0-2.643-1.176,130.831,130.831,0,0,0-28.948-3.927c-1.52-.036-3.183,0-4.352.975" transform="translate(-116.199 -86.81)" fill="#eab54e"/>
        </g>
        <path id="Path_11196" data-name="Path 11196" d="M133.258,48.1a27.832,27.832,0,0,1,.118,6.539,8.462,8.462,0,0,1-.791,3.138c-1.131,2.153-3.6,3.168-5.883,4.02,1.662,1.33,2.865,3.155,4.475,4.549,4.587,3.973,11.91,3.612,16.915.182a6.652,6.652,0,0,1-1.855-9.224c.059-.091.123-.18.186-.269" transform="translate(-95.062 -22.515)" fill="#fcae82"/>
        <g id="Group_5181" data-name="Group 5181" transform="translate(34.469)">
          <path id="Path_11197" data-name="Path 11197" d="M150.753,47.67a30.817,30.817,0,0,1-5.53,19.489c-.905,1.284-2.043,2.58-3.587,2.87a5.332,5.332,0,0,1-3.267-.647c-4.75-2.335-7.4-7.581-8.528-12.751-1.3-5.965-.67-12.982,3.925-17" transform="translate(-126.696 -31.956)" fill="#fdba93"/>
          <path id="Path_11198" data-name="Path 11198" d="M131.328,51.491a6.344,6.344,0,0,1-3.267-6.065,1.468,1.468,0,0,1,.332-.914,1.13,1.13,0,0,1,1.313-.091,3.335,3.335,0,0,1,.988,1" transform="translate(-128.04 -26.8)" fill="#fdba93"/>
          <path id="Path_11199" data-name="Path 11199" d="M128.834,53.92c-.732-3.959-.774-8.082,1.078-11.656a12.018,12.018,0,0,1,8.23-6.008,15.432,15.432,0,0,1,10.195,1.63c1.895,1,3.639,2.352,5.7,2.944,2.121.609,4.606.436,6.253,1.9a5.956,5.956,0,0,1,1.679,4.231,12.2,12.2,0,0,1-9.3,12.1c-.421.091-.956.114-1.178-.252a1.054,1.054,0,0,1-.074-.691c.218-1.563.746-3.47-.469-4.47-3.935,1.77-8.668.681-12.318-1.622-1.506-.947-3.434-2.113-4.889-1.085-1.138.8-1.157,2.438-1.315,3.823s-1,3.054-2.381,2.9l-1.214-3.749" transform="translate(-127.68 -36)" fill="#00326a"/>
        </g>
        <g id="Group_5182" data-name="Group 5182" transform="translate(0 38.574)">
          <path id="Path_11200" data-name="Path 11200" d="M131.1,54.241a13.236,13.236,0,0,0,13.6,6.651c1.848-.273,3.646-.831,4.608-2.432a6.363,6.363,0,0,0,2.368,1.491,5.958,5.958,0,0,1,1.523.78c1.051.905.914,2.54.7,3.91-2.081,13.193-3,26.539-3.927,39.866l-.757,10.958c-.334,4.855-.668,9.766.118,14.572a2.493,2.493,0,0,1-.038,1.419,2.319,2.319,0,0,1-1.688,1.028,34.283,34.283,0,0,1-20.176-1.273,4.6,4.6,0,0,1-2.882-2.233,5.05,5.05,0,0,1-.027-2.643c2.024-12.356.992-25.006,2.174-37.47.247-2.612.592-5.213.785-7.829a67.41,67.41,0,0,0-1.5-19.869,7.124,7.124,0,0,1-.247-3.326c.613-2.4,3.13-2.988,5.38-3.6" transform="translate(-97.688 -54.241)" fill="#1c3742"/>
          <path id="Path_11201" data-name="Path 11201" d="M138.4,56.286c-3.3,9.656-2.648,19.21-3.25,29.4-.235,3.94-.679,7.864-.814,11.808-.127,3.62.008,7.249.144,10.869l1.227,32.8a2.443,2.443,0,0,0,.311,1.332,2.324,2.324,0,0,0,1.246.751,23.5,23.5,0,0,0,9.565,1.051q-.695-14.5-2.339-28.935a58.952,58.952,0,0,1-.514-6.517,54.816,54.816,0,0,1,.706-7.689,240.205,240.205,0,0,1,4.519-25.628c1.024-4.073,2.231-8.537.385-12.307-1.51-3.083-4.409-3.656-7.422-5.3-1.112-.607-2.645-1.036-3.76-1.641" transform="translate(-86.616 -51.964)" fill="#2b8d7b"/>
          <path id="Path_11202" data-name="Path 11202" d="M141.843,58.736c-1.766,1.539-1.326,4.648-1.438,7.2-.237,5.409-.423,10.812-.159,16.222l.8,16.541c.059,1.2.2,2.567,1.159,3.295,1,.759,2.419.465,3.633.135a2.753,2.753,0,0,0,1.6-.856,2.648,2.648,0,0,0,.381-1.123c1.69-9.586.939-19.425-.207-29.091a33.3,33.3,0,0,0-.937-5.3c-.679-2.343-2.641-6.435-4.832-7.027" transform="translate(-80.11 -49.231)" fill="#248972"/>
          <path id="Path_11203" data-name="Path 11203" d="M137.814,54.462l.467,12.381c.1,2.715.2,5.43.569,8.12.453,3.316,1.3,6.572,1.652,9.9a59.333,59.333,0,0,1,0,9.922c-1,16.173-3.483,32.28-3.242,48.485a1.754,1.754,0,0,1-.279,1.207,1.652,1.652,0,0,1-1.212.41c-4.067.182-8.226-1.284-12.147-.192-1.778.495-3.453,1.51-5.3,1.516a1.606,1.606,0,0,1-1.419-.582,1.939,1.939,0,0,1-.063-1.4c1.721-8.507.905-17.309,1.493-25.972.778-11.552,4.041-22.889,4.064-34.467.008-3.7-.317-7.393-.643-11.079l-1-11.263a113.508,113.508,0,0,1,17.055-6.993" transform="translate(-106.167 -53.995)" fill="#2b8d7b"/>
          <path id="Path_11204" data-name="Path 11204" d="M133.327,110.414,138.1,69.9h26.351l-3.32,40.511Z" transform="translate(-87.678 -36.783)" fill="#c0cddc"/>
          <path id="Path_11205" data-name="Path 11205" d="M121.805,79.666a101.868,101.868,0,0,0,29.017,3.625c1.639-.032,3.449-.18,4.6-1.347.988-1,1.387-2.677,2.715-3.138.332.983-.4,2.22.247,3.032.535.672,1.584.5,2.4.25a51.414,51.414,0,0,0,7.095-2.781c.419-.2,1.087-.3,1.186.154a.7.7,0,0,1-.019.309c-.622,2.874-2.973,5.13-5.629,6.393a29.015,29.015,0,0,1-8.537,2.087,146.656,146.656,0,0,1-20.9,1.9c-7-.034-14.09-1.1-20.442-4.045" transform="translate(-109.731 -26.86)" fill="#fdba93"/>
          <path id="Path_11206" data-name="Path 11206" d="M126.337,57.769c3.988,5.82,4.665,13.542,3.21,20.447s-4.3,13.454-5.76,20.354c-.336,1.586-.533,3.441.558,4.64-3.051,2.931-2.483,4.525-4.3,8.344-.169.355.032.44-.453,1.093-.294.393-2.487-1-2.887-1.29-3.02-2.163-4.707-2.643-4.919-6.352-.313-5.42,1.106-10.781,2.6-16q3.765-13.164,8.277-26.1c.751-2.153,1.641-4.117,3.68-5.137" transform="translate(-111.74 -50.308)" fill="#248972"/>
        </g>
      </g>
      <g id="Group_6236" data-name="Group 6236" transform="translate(0 93.567)">
        <path id="Path_15885" data-name="Path 15885" d="M136.336,195.975h-62.1A24.43,24.43,0,0,1,49.956,174.21L41,81h62.063l1.267,54.045Z" transform="translate(-39.364 -79.406)" fill="#2b8d7b"/>
        <path id="Path_15886" data-name="Path 15886" d="M137.2,197.971c-15.953.74-31.9,1.053-47.857,1.364l-11.965.15c-1.032,0-1.916.063-3.068,0A22.521,22.521,0,0,1,71,199.2a25.782,25.782,0,0,1-6.4-1.757,27,27,0,0,1-16.184-19.81c-.412-2.305-.518-4.187-.719-6.19l-.56-5.957-1.117-11.914c-.778-7.941-1.417-15.894-2.091-23.843Q41.877,105.882,40.23,82a1.641,1.641,0,0,1,3.265-.313q2.972,23.749,5.452,47.546c.85,7.928,1.738,15.854,2.487,23.794l1.169,11.9.586,5.953c.2,1.967.362,4.069.672,5.691a21.964,21.964,0,0,0,12.872,15.792,20.536,20.536,0,0,0,5.086,1.461,34.641,34.641,0,0,0,5.557.321l11.965.15c15.953.311,31.9.624,47.857,1.364a1.157,1.157,0,0,1,0,2.311Z" transform="translate(-40.226 -80.246)" fill="#1c3742"/>
        <g id="Group_6235" data-name="Group 6235" transform="translate(58.825 118.33)">
          <rect id="Rectangle_1746" data-name="Rectangle 1746" width="5.278" height="65.827" fill="#1c3742"/>
        </g>
      </g>
      <g id="Group_6247" data-name="Group 6247" transform="translate(28.568 42.293)">
        <rect id="Rectangle_1747" data-name="Rectangle 1747" width="172.572" height="2.684" transform="translate(26.44 102.203)" fill="#28314a"/>
        <path id="Path_15887" data-name="Path 15887" d="M76.829,161.376,75,167.941l8.917,2.7,2.79-8.106Z" transform="translate(-30.037 61.459)" fill="#fdba93"/>
        <path id="Path_15888" data-name="Path 15888" d="M105.947,159.122v5.272h-7.9l-.881-5.272Z" transform="translate(-5.319 58.948)" fill="#fdba93"/>
        <g id="Group_6239" data-name="Group 6239" transform="translate(37.02 47.715)">
          <g id="Group_6237" data-name="Group 6237" transform="translate(2.445 8.043)">
            <path id="Path_15889" data-name="Path 15889" d="M72.92,92.173l11.927,29.434.264.653a4.5,4.5,0,0,0,4.189,2.8l33.955-.243a2.486,2.486,0,0,0,.343-4.946L90,114.967l4.454,3.455L86.425,87.7a7.128,7.128,0,1,0-13.794,3.6A8.284,8.284,0,0,0,72.92,92.173Z" transform="translate(-72.398 -82.367)" fill="#fcae82"/>
            <path id="Path_15890" data-name="Path 15890" d="M94.78,99.951l11.6-.239c2.865,0,5.189,2.588,5.189,5.779H94.634Z" transform="translate(-47.612 -63.033)" fill="#fcae82"/>
          </g>
          <g id="Group_6238" data-name="Group 6238">
            <path id="Path_15891" data-name="Path 15891" d="M92.983,99.994l-18.565,4.534L71.373,87.981a8.015,8.015,0,0,1,6.83-9.332h0a8.16,8.16,0,0,1,8.844,5.2Z" transform="translate(-71.242 -78.564)" fill="#ef7935"/>
          </g>
        </g>
        <path id="Path_15892" data-name="Path 15892" d="M74.6,103.914l57.2,29.03a14.966,14.966,0,0,1,8.167,14.221l-4.31,73.5h-8.776l-11.842-78.636-44.535-31.27Z" transform="translate(-35.036 -2.591)" fill="#63a7d1"/>
        <path id="Path_15893" data-name="Path 15893" d="M103.4,56.943s-15.9-5.4-24.249,9.649a15.207,15.207,0,0,1-1.662,2.481c-1.7,2-5.234,5.693-9.133,6.89-15.469,4.745-25.26,34,5.534,36.6,38.536,3.259,49.477-4.341,43.964-19.7-3.931-10.956-.421-18.734-.421-18.734Z" transform="translate(-53.735 -56)" fill="#0d1c42"/>
        <path id="Path_15894" data-name="Path 15894" d="M84.843,75.012l8.224,3.658a13.423,13.423,0,0,1,7.977,12.415c-.127,10.8-2.578,37.612-11.7,47.874H61.533c-4.305-19-1.825-48.2-1.825-48.2a13.75,13.75,0,0,1,12.1-14.185Z" transform="translate(-47.871 -34.807)" fill="#ef7935"/>
        <g id="Group_6242" data-name="Group 6242" transform="translate(28.19 0.944)">
          <g id="Group_6241" data-name="Group 6241">
            <g id="Group_6240" data-name="Group 6240" transform="translate(3.306 9.184)">
              <path id="Path_15895" data-name="Path 15895" d="M73.34,91.6h0a5.322,5.322,0,0,0,5.9-4.612L81.5,69.307,70.921,68.078,68.673,85.63A5.325,5.325,0,0,0,73.34,91.6Z" transform="translate(-68.629 -52.665)" fill="#fcae82"/>
              <path id="Rectangle_1748" data-name="Rectangle 1748" d="M5.869,0H20.3a5.871,5.871,0,0,1,5.871,5.871V28.406a0,0,0,0,1,0,0H0a0,0,0,0,1,0,0V5.869A5.869,5.869,0,0,1,5.869,0Z" transform="translate(26.63 31.554) rotate(-172.563)" fill="#fdba93"/>
            </g>
            <path id="Path_15896" data-name="Path 15896" d="M69.34,75.119l2.212,4.591s2.948,2.555,3.785-3.866c.708-5.439,4.654-4.494,4.654-4.494s13.523,10.231,21.468,3.21C107.73,69.02,97.6,58.878,86,56.446L70.793,63.09Z" transform="translate(-64.531 -56.446)" fill="#0d1c42"/>
            <path id="Path_15897" data-name="Path 15897" d="M75.62,70.07a4.292,4.292,0,1,1-3.745-4.777A4.293,4.293,0,0,1,75.62,70.07Z" transform="translate(-67.066 -46.62)" fill="#fdba93"/>
          </g>
        </g>
        <path id="Path_15898" data-name="Path 15898" d="M63.16,105.252H90.97l44.488,26.882a12.2,12.2,0,0,1,4.857,15.348L106.163,225.1l-9.873-1.161,18.355-74.9c-15.405-.649-44.01-2.977-51.486-11.307C50.51,123.633,63.16,105.252,63.16,105.252Z" transform="translate(-49.498 -1.1)" fill="#4c9ad5"/>
        <g id="Group_6243" data-name="Group 6243" transform="translate(58.759 55.451)">
          <path id="Path_15899" data-name="Path 15899" d="M113.411,82.222,97.543,124.864h51.57L163.793,84.7a1.843,1.843,0,0,0-1.732-2.474Z" transform="translate(-63.664 -82.222)" fill="#4c9ad5"/>
          <path id="Path_15900" data-name="Path 15900" d="M115.8,82.222h-2.47a3.162,3.162,0,0,0-2.969,2.07L95.4,124.864h4.534Z" transform="translate(-66.054 -82.222)" fill="#8dbae4"/>
          <path id="Rectangle_1749" data-name="Rectangle 1749" d="M1.843,0H51.428a0,0,0,0,1,0,0V4.109a0,0,0,0,1,0,0H0a0,0,0,0,1,0,0V1.843A1.843,1.843,0,0,1,1.843,0Z" transform="translate(85.307 46.752) rotate(180)" fill="#5897d2"/>
          <path id="Path_15901" data-name="Path 15901" d="M115.4,106.5H83.575a2.054,2.054,0,0,1-2.053-2.053h0a2.055,2.055,0,0,1,2.053-2.055H115.4Z" transform="translate(-81.522 -59.745)" fill="#4c9ad5"/>
        </g>
        <g id="Group_6246" data-name="Group 6246" transform="translate(15.332 46.637)">
          <g id="Group_6244" data-name="Group 6244" transform="translate(2.383 8.265)">
            <path id="Path_15902" data-name="Path 15902" d="M62.625,91.82l11.946,30,.264.662a4.542,4.542,0,0,0,4.234,2.851l33.962-.222a2.51,2.51,0,0,0,.349-4.993l-33.594-4.974,4.5,3.512-8.006-31.28a7.194,7.194,0,1,0-13.938,3.567A8.027,8.027,0,0,0,62.625,91.82Z" transform="translate(-62.113 -81.962)" fill="#fdba93"/>
            <path id="Path_15903" data-name="Path 15903" d="M84.526,99.84,96.121,99.6c2.867,0,5.192,2.637,5.192,5.889H84.378Z" transform="translate(-37.295 -62.308)" fill="#fdba93"/>
          </g>
          <g id="Group_6245" data-name="Group 6245">
            <path id="Path_15904" data-name="Path 15904" d="M82.729,99.884,64.164,104.5,61.117,87.646a8.144,8.144,0,0,1,6.83-9.505h0a8.146,8.146,0,0,1,8.846,5.293Z" transform="translate(-60.986 -78.054)" fill="#e95d1d"/>
          </g>
        </g>
        <path id="Path_15905" data-name="Path 15905" d="M91.11,163.25l4.331,4.276,9.734,2.368a3.051,3.051,0,0,1,2.157,1.954l.495,1.408a1.063,1.063,0,0,1-1.026,1.415l-31.333-.761A1.77,1.77,0,0,1,73.74,172l2.47-8.875,4.735,1.131a5.811,5.811,0,0,0,4.758-.493l1.683-.981A3.087,3.087,0,0,1,91.11,163.25Z" transform="translate(-31.443 62.555)" fill="#00326a"/>
        <path id="Path_15906" data-name="Path 15906" d="M110.809,160.337l4.333,4.278,9.734,2.368a3.052,3.052,0,0,1,2.157,1.952l.493,1.41a1.062,1.062,0,0,1-1.024,1.415l-28.362-.6a1.772,1.772,0,0,1-1.728-1.914l.736-9.07,3.5,1.163a5.808,5.808,0,0,0,4.76-.495l1.683-.979A3.086,3.086,0,0,1,110.809,160.337Z" transform="translate(-6.172 59.31)" fill="#00326a"/>
      </g>
      <g id="Group_6256" data-name="Group 6256" transform="translate(223.882 18.725)">
        <g id="Group_6248" data-name="Group 6248" transform="translate(106.479 133.489)">
          <path id="Path_15907" data-name="Path 15907" d="M216.174,157.1c-2.011,3.3-.7,7.809,1.986,10.594s6.416,4.246,10.028,5.631l15.5,5.938c.911.349,2.024,1.222,1.506,2.049a1.532,1.532,0,0,1-.736.533c-4.255,1.85-9.127.5-13.673-.431a71.043,71.043,0,0,0-25.361-.556c-2.151.345-5.153.239-5.543-1.905a4.082,4.082,0,0,1,.063-1.377l4.092-25.539" transform="translate(-192.671 -58.87)" fill="#f6aa7d"/>
          <path id="Path_15908" data-name="Path 15908" d="M222.6,161.669c-.744.262-1.5,1.457-2.113,2.409-.928,1.43-1.9,1.091-3.605.983a15.149,15.149,0,0,1-4.876-1.463q-4.231-1.8-8.533-3.43A2.038,2.038,0,0,0,202,160c-.586.243-.8.947-.947,1.565l-1.559,6.585a3.679,3.679,0,0,0-.1,1.962,2.852,2.852,0,0,0,.884,1.205c2.751,2.417,6.881,2,10.531,1.681a86.8,86.8,0,0,1,22.232.895c4.5.765,9.617,1.753,13.246-1.019.651-.5,1.267-1.334.914-2.072a1.966,1.966,0,0,0-.922-.8,44.429,44.429,0,0,0-7.283-2.84l-8.922-2.884c-2.576-.833-6.035-2.4-7.475-2.616" transform="translate(-193.276 -50.086)" fill="#1c3742"/>
          <path id="Path_15909" data-name="Path 15909" d="M204.52,107.98c13.606.89,20.282,4.157,22.434,8.729s1.764,12.263,1.791,17.315c.133,24.8-3.988,49.4-8.1,73.857a1.786,1.786,0,0,1-2.6,1.6l-10.332-1.322a2.042,2.042,0,0,1-2.18-2.472c-.687-18.66-2.373-29.582-2.091-51.814.142-11.066,3.916-24.363-4.428-24.934-7.828-.537,4.229-13.8,9.742-17.979" transform="translate(-196.45 -107.98)" fill="#002e46"/>
        </g>
        <g id="Group_6251" data-name="Group 6251" transform="translate(37.499 149.395)">
          <g id="Group_6249" data-name="Group 6249" transform="translate(0 6.778)">
            <path id="Path_15910" data-name="Path 15910" d="M193.287,119.424c-17.5,28.491-23.682,61.594-29.43,94.052-.338,1.905,2.58,2.724,2.918.806,5.7-32.2,11.762-65.06,29.125-93.331,1.023-1.664-1.594-3.187-2.614-1.527Z" transform="translate(-163.83 -118.707)" fill="#1c3742"/>
          </g>
          <g id="Group_6250" data-name="Group 6250" transform="translate(53.285 6.778)">
            <path id="Path_15911" data-name="Path 15911" d="M191.874,119.424c17.5,28.491,23.682,61.594,29.432,94.052.336,1.905-2.58,2.724-2.92.806-5.7-32.2-11.76-65.06-29.125-93.331-1.021-1.664,1.594-3.187,2.614-1.527Z" transform="translate(-189.028 -118.707)" fill="#1c3742"/>
          </g>
          <rect id="Rectangle_1750" data-name="Rectangle 1750" width="64.633" height="7.862" transform="translate(8.787)" fill="#2b8d7b"/>
        </g>
        <path id="Path_15912" data-name="Path 15912" d="M202.669,60.657a31.2,31.2,0,0,0-2.419,9.662,16.733,16.733,0,0,0,1.04,8.522c1.205,2.633,3.713,4.815,6.6,4.961a32.358,32.358,0,0,1-3.426,4.107,16.231,16.231,0,0,1-25.42-3.8c3.392-.518,5.978-3.639,6.672-7s-.2-6.868-1.622-9.99" transform="translate(-109.368 -27.24)" fill="#f29f6f"/>
        <g id="Group_6252" data-name="Group 6252" transform="translate(35.1 53.846)">
          <path id="Path_15913" data-name="Path 15913" d="M191.426,70.435C196.6,74.072,203.2,75.1,208.18,71.2a3.709,3.709,0,0,1,1.421-.844,3.215,3.215,0,0,1,1.491.157l15.1,4.077a1.722,1.722,0,0,1,1.588,2.1c.027,19.455-4.018,38.88-2.328,58.261a3.643,3.643,0,0,1-.368,2.489,3.585,3.585,0,0,1-2.637,1.059,88.8,88.8,0,0,1-10.379.694c-9.133-.1-18.252-3.016-27.277-1.609-2.629.41-5.227,1.184-7.89,1.136a1.682,1.682,0,0,1-1.364-.484,1.791,1.791,0,0,1-.224-1.129,277.618,277.618,0,0,0-1.747-38.694c-.746-6.475-1.723-13.007-.952-19.48a4.065,4.065,0,0,1,.909-2.472,4.278,4.278,0,0,1,1.8-.905l16.105-5.115" transform="translate(-151.957 -70.318)" fill="#ef7935"/>
          <path id="Path_15914" data-name="Path 15914" d="M206.1,72.448a43.146,43.146,0,0,0-2.512,27.9,81.9,81.9,0,0,0,4.157,11.1l4.426,10.282a1.4,1.4,0,0,1,.167.789c-.093.48-.636.708-1.106.85-6.272,1.9-12.777,2.893-19.182,4.276a1.455,1.455,0,0,0-.888.423,1.472,1.472,0,0,0-.133,1.142c.315,2,.746,4.2,2.362,5.428a7.222,7.222,0,0,0,2.688,1.1c9.271,2.3,19.06,1.258,28.375-.848,1.44-.326,3.064-.827,3.667-2.174a4.9,4.9,0,0,0,.082-2.823c-1.713-10.172-3.434-20.388-6.608-30.2s-7.879-19.286-14.917-26.829c-.173-.171-.275-.417-.577-.425" transform="translate(-131.17 -67.943)" fill="#e95d1d"/>
          <path id="Path_15915" data-name="Path 15915" d="M184.966,73.034a43.153,43.153,0,0,1,2.51,27.9,81.747,81.747,0,0,1-4.157,11.106l-4.426,10.282a1.37,1.37,0,0,0-.165.787c.093.482.637.711,1.1.852,6.272,1.9,12.777,2.891,19.184,4.274a1.1,1.1,0,0,1,1.019,1.567c-.315,2-.746,4.2-2.36,5.426a7.249,7.249,0,0,1-2.69,1.106c-9.269,2.3-19.06,1.258-28.375-.85-1.44-.326-3.062-.825-3.667-2.172a4.93,4.93,0,0,1-.083-2.825c1.713-10.172,3.436-20.385,6.61-30.2S177.349,81,184.387,73.459c.173-.171.275-.419.579-.425" transform="translate(-162.696 -67.29)" fill="#e95d1d"/>
        </g>
        <path id="Path_15916" data-name="Path 15916" d="M160.106,121.187c4.3-3.155,3.58-4.637,13.957-6.712,15.35-3.066,8.065-9.577,12.51-11.51,5.817-2.529,12.255,1.281,18.368-.408a24.759,24.759,0,0,1,6.289-.622l14.9-.192a15.547,15.547,0,0,1,10.785,2.88l11.692,6.964c4.337,2.582,8.943,5.469,10.888,10.125a7.179,7.179,0,0,1,.224,5.674c-1.21,2.648-4.35,3.72-7.175,4.428-8.256,2.074-16.871,3.407-25.275,2.055-6.4-1.032-11.739-1.726-18.186-1.019-4.176.459-10.762,1.313-15.962,1.933-11.567,1.375-20.588,2.436-31.162-2.455" transform="translate(-130.482 18.545)" fill="#002e46"/>
        <g id="Group_6253" data-name="Group 6253" transform="translate(0 133.489)">
          <path id="Path_15917" data-name="Path 15917" d="M175.9,157.1c2.009,3.3.7,7.809-1.986,10.594s-6.418,4.246-10.028,5.631l-15.5,5.938c-.911.349-2.024,1.222-1.508,2.049a1.542,1.542,0,0,0,.736.533c4.257,1.85,9.127.5,13.673-.431a71.044,71.044,0,0,1,25.361-.556c2.153.345,5.156.239,5.545-1.905a4.137,4.137,0,0,0-.063-1.377l-4.092-25.539" transform="translate(-145.37 -58.87)" fill="#f6aa7d"/>
          <path id="Path_15918" data-name="Path 15918" d="M170.8,161.669c.744.262,1.5,1.457,2.113,2.409.93,1.43,1.9,1.091,3.605.983A15.149,15.149,0,0,0,181.4,163.6q4.235-1.8,8.533-3.43A2.038,2.038,0,0,1,191.4,160c.588.243.8.947.95,1.565l1.556,6.585a3.658,3.658,0,0,1,.1,1.962,2.864,2.864,0,0,1-.882,1.205c-2.751,2.417-6.883,2-10.531,1.681a86.818,86.818,0,0,0-22.234.895c-4.5.765-9.618,1.753-13.246-1.019-.649-.5-1.267-1.334-.914-2.072a1.981,1.981,0,0,1,.924-.8,44.478,44.478,0,0,1,7.281-2.84l8.924-2.884c2.576-.833,6.035-2.4,7.473-2.616" transform="translate(-146.097 -50.086)" fill="#1c3742"/>
          <path id="Path_15919" data-name="Path 15919" d="M180.606,107.98c-13.6.89-20.282,4.157-22.432,8.729s-1.766,12.263-1.793,17.315c-.131,24.8,3.99,49.4,8.1,73.857a2.341,2.341,0,0,0,.412,1.155,2.391,2.391,0,0,0,2.184.448l10.332-1.322a2.042,2.042,0,0,0,2.182-2.472c.685-18.66,2.373-29.582,2.089-51.814-.14-11.066-3.914-24.363,4.428-24.934,7.829-.537-4.227-13.8-9.74-17.979" transform="translate(-134.647 -107.98)" fill="#002e46"/>
        </g>
        <g id="Group_6254" data-name="Group 6254" transform="translate(43.622 87.196)">
          <rect id="Rectangle_1751" data-name="Rectangle 1751" width="65.78" height="39.417" rx="3.086" fill="#ccd6e3"/>
        </g>
        <g id="Group_6255" data-name="Group 6255" transform="translate(64.864)">
          <path id="Path_15920" data-name="Path 15920" d="M181.78,48.578a14.308,14.308,0,0,0-2.231,6.018c-.283,2.2-.051,4.434-.195,6.649-.114,1.734-.093,4.081-.173,5.817-.23,5.134,1.493,9.425,3.542,14.141a16.635,16.635,0,0,0,2.935,5.039c1.351,1.413,3.4,1.539,5.293,1.051a24.275,24.275,0,0,0,4.754-2.561c5.83-4.555,7.446-9.66,8.093-17.029a54.522,54.522,0,0,0,.036-6.651,24.078,24.078,0,0,0-.835-6.53,8.109,8.109,0,0,0-4.024-5" transform="translate(-174.107 -40.705)" fill="#f6aa7d"/>
          <path id="Path_15921" data-name="Path 15921" d="M207.083,72.5c-.355,1.03-1.353,2.239-2.286,1.677a1.949,1.949,0,0,1-.7-1.383,19.142,19.142,0,0,0-1.419-4.91,6.229,6.229,0,0,0-3.682-3.35c-3.026-.846-5.951,1.476-9.023,2.136-2.942.632-6-.3-8.7-1.639-1.907-.945-3.872-2.3-4.375-4.367-.486-2,.546-4.039,1.662-5.771a25.026,25.026,0,0,1,7.217-7.687A13.374,13.374,0,0,1,195.9,45.147c2.347.56,4.437,1.893,6.735,2.631a31.929,31.929,0,0,1,3.667,1.148A9.927,9.927,0,0,1,211.4,55.8a27.28,27.28,0,0,1,.2,8.81c-.385,4.217-.9,8.5-2.618,12.367-1.256,2.821-2.8,5.638-5.762,6.515" transform="translate(-176.771 -44.855)" fill="#00326a"/>
          <path id="Path_15922" data-name="Path 15922" d="M191.252,60.1a5.346,5.346,0,0,1,1.415-2.368.76.76,0,0,1,.571-.285c.252.025.419.271.518.5.554,1.294.116,2.774-.326,4.111a6.383,6.383,0,0,1-1.176,2.371,2.172,2.172,0,0,1-2.4.662" transform="translate(-162.189 -30.819)" fill="#e79982"/>
        </g>
      </g>
      <g id="Group_6259" data-name="Group 6259" transform="translate(101.166 147.964)">
        <path id="Path_15923" data-name="Path 15923" d="M389.078,111.274H99.17a2.653,2.653,0,0,1-2.652-2.652h0a2.652,2.652,0,0,1,2.652-2.652H389.078a2.651,2.651,0,0,1,2.652,2.652h0A2.652,2.652,0,0,1,389.078,111.274Z" transform="translate(-78.645 -105.97)" fill="#2b8d7b"/>
        <g id="Group_6257" data-name="Group 6257" transform="translate(0 0.109)">
          <path id="Path_15924" data-name="Path 15924" d="M89.722,234.84a1.674,1.674,0,0,1-.321-.032,1.652,1.652,0,0,1-1.3-1.939L112.78,107.353a1.652,1.652,0,0,1,3.242.637L91.339,233.505A1.654,1.654,0,0,1,89.722,234.84Z" transform="translate(-88.066 -106.021)" fill="#2b8d7b"/>
        </g>
        <g id="Group_6258" data-name="Group 6258" transform="translate(301.672 0.109)">
          <path id="Path_15925" data-name="Path 15925" d="M258.015,234.84a1.651,1.651,0,0,1-1.616-1.322L230.757,108a1.651,1.651,0,1,1,3.235-.66l25.643,125.514a1.65,1.65,0,0,1-1.288,1.948A1.626,1.626,0,0,1,258.015,234.84Z" transform="translate(-230.723 -106.021)" fill="#2b8d7b"/>
        </g>
      </g>
      <g id="Group_6262" data-name="Group 6262" transform="translate(194.481 102.266)">
        <g id="Group_6260" data-name="Group 6260">
          <rect id="Rectangle_1752" data-name="Rectangle 1752" width="18.667" height="34.733" transform="translate(14.363 1.733)" fill="#5d73b6"/>
          <rect id="Rectangle_1753" data-name="Rectangle 1753" width="10.467" height="45.706" fill="#eab54e"/>
          <path id="Path_15926" data-name="Path 15926" d="M137.144,84.36h5.93l6.106,22.1h12.409v23.6H137.144Z" transform="translate(-126.676 -84.36)" fill="#e8a838"/>
          <circle id="Ellipse_215" data-name="Ellipse 215" cx="3.257" cy="3.257" r="3.257" transform="translate(1.977 5.258)" fill="#f6dcac"/>
          <rect id="Rectangle_1754" data-name="Rectangle 1754" width="5.583" height="19.859" transform="translate(2.442 13.641)" fill="#f6dcac"/>
          <rect id="Rectangle_1755" data-name="Rectangle 1755" width="5.583" height="2.038" transform="translate(2.442 34.428)" fill="#ffc66b"/>
        </g>
        <g id="Group_6261" data-name="Group 6261" transform="translate(15.014)">
          <rect id="Rectangle_1756" data-name="Rectangle 1756" width="18.667" height="34.733" transform="translate(14.363 1.733)" fill="#e0583d"/>
          <rect id="Rectangle_1757" data-name="Rectangle 1757" width="10.467" height="45.706" fill="#e0583d"/>
          <path id="Path_15927" data-name="Path 15927" d="M144.244,84.36h5.93l6.106,22.1h12.409v23.6H144.244Z" transform="translate(-133.776 -84.36)" fill="#da452e"/>
          <path id="Path_15928" data-name="Path 15928" d="M146.742,90.1a3.257,3.257,0,1,1-3.257-3.257A3.257,3.257,0,0,1,146.742,90.1Z" transform="translate(-138.251 -81.589)" fill="#ec9075"/>
          <rect id="Rectangle_1758" data-name="Rectangle 1758" width="5.583" height="19.859" transform="translate(2.442 13.641)" fill="#ec9075"/>
          <rect id="Rectangle_1759" data-name="Rectangle 1759" width="5.583" height="2.038" transform="translate(2.442 34.428)" fill="#5d73b6"/>
          <rect id="Rectangle_1760" data-name="Rectangle 1760" width="5.583" height="2.038" transform="translate(2.442 37.307)" fill="#5d73b6"/>
        </g>
      </g>
      <g id="Group_6269" data-name="Group 6269" transform="translate(196.323 133.043)">
        <g id="Group_6265" data-name="Group 6265" transform="translate(2.487 7.484)">
          <g id="Group_6263" data-name="Group 6263" transform="translate(1.394 1.239)">
            <path id="Path_15929" data-name="Path 15929" d="M165.432,108H137.383a2.482,2.482,0,0,1-2.483-2.483h0a2.481,2.481,0,0,1,2.483-2.483h28.049Z" transform="translate(-134.9 -103.039)" fill="#e5e4e4"/>
          </g>
          <g id="Group_6264" data-name="Group 6264">
            <path id="Path_15930" data-name="Path 15930" d="M135.347,105.889a2.49,2.49,0,0,0,2.485,2.485h28.635v.7H137.68a3.18,3.18,0,0,1-3.183-3.183,3.117,3.117,0,0,1,.935-2.246,3.174,3.174,0,0,1,2.248-.935h28.787v.7H137.832A2.49,2.49,0,0,0,135.347,105.889Z" transform="translate(-133.956 -102.168)" fill="#8ed7f3"/>
            <path id="Path_15931" data-name="Path 15931" d="M167.293,109.9h-29.33a3.728,3.728,0,0,1-3.722-3.724,3.646,3.646,0,0,1,1.1-2.635,3.687,3.687,0,0,1,2.622-1.087h29.33v1.781H138.117a1.942,1.942,0,1,0,0,3.885h29.176Z" transform="translate(-134.241 -102.453)" fill="#e0583d"/>
          </g>
        </g>
        <g id="Group_6268" data-name="Group 6268">
          <g id="Group_6266" data-name="Group 6266" transform="translate(1.394 1.239)">
            <path id="Path_15932" data-name="Path 15932" d="M164.256,104.465H136.207a2.482,2.482,0,0,1-2.483-2.483h0a2.484,2.484,0,0,1,2.483-2.483h28.049Z" transform="translate(-133.724 -99.5)" fill="#e5e4e4"/>
          </g>
          <g id="Group_6267" data-name="Group 6267">
            <path id="Path_15933" data-name="Path 15933" d="M134.173,102.353a2.49,2.49,0,0,0,2.485,2.485h28.635v.7H136.5a3.18,3.18,0,0,1-3.183-3.183,3.114,3.114,0,0,1,.935-2.246,3.176,3.176,0,0,1,2.248-.937h28.789v.7H136.658A2.49,2.49,0,0,0,134.173,102.353Z" transform="translate(-132.78 -98.629)" fill="#fda506"/>
            <path id="Path_15934" data-name="Path 15934" d="M166.119,106.362h-29.33a3.728,3.728,0,0,1-3.724-3.724,3.639,3.639,0,0,1,1.1-2.633,3.688,3.688,0,0,1,2.624-1.091h29.33v1.781H136.943a1.943,1.943,0,1,0,0,3.887h29.176Z" transform="translate(-133.065 -98.914)" fill="#2b8d7b"/>
          </g>
        </g>
      </g>
      <g id="Group_6274" data-name="Group 6274" transform="translate(301.095 5.641)">
        <g id="Group_6270" data-name="Group 6270" transform="translate(82.05 242.88)">
          <path id="Path_15935" data-name="Path 15935" d="M234.893,153.522l2.745,9.192a8.473,8.473,0,0,1-7.664,2.669l-4.657-11.269" transform="translate(-217.054 -153.522)" fill="#fdba93"/>
          <path id="Path_15936" data-name="Path 15936" d="M241.994,157.869s-4.331,2.633-7.664,2.669c0,0-3.073,4.221-4.337,6.4s-2.313,4.274-4.014,4.84-4.231,1.133-4.536,2.618,1.4,2.855,7.981,2.474a10.235,10.235,0,0,0,5.365-1.821c2.618-1.831,3.8-4.8,5.06-5.714s5.441-2.7,6.34-3.62S245.623,159.134,241.994,157.869Z" transform="translate(-221.41 -148.677)" fill="#002c86"/>
        </g>
        <g id="Group_6271" data-name="Group 6271" transform="translate(93.819 249.173)">
          <path id="Path_15937" data-name="Path 15937" d="M243.864,159.088l-.431,9.584a8.472,8.472,0,0,1-8.116,0l-.691-12.174" transform="translate(-218.45 -156.498)" fill="#fdba93"/>
          <path id="Path_15938" data-name="Path 15938" d="M251.959,162.255a7.625,7.625,0,0,1,1.895,3.889,15.489,15.489,0,0,1-.3,4.792c0,.518-2.068.99-4.917,1.032a21.062,21.062,0,0,1-5.483-.82c-1.165-.171-6.173.738-8.634.823s-5.915-.218-6.949-.691-1.254-3.929,3.971-4.36c3.02-.25,6.393-2.087,8.926-3.324a22.838,22.838,0,0,1,3.377-1.339S250.407,162.892,251.959,162.255Z" transform="translate(-226.976 -150.081)" fill="#002c86"/>
        </g>
        <path id="Path_15939" data-name="Path 15939" d="M258.516,96.94s3.885,4.4,4.124,14.481-4.927,35.474-6.471,40.172-2.736,8.421-6.429,11.726-12.612.25-14.024-5.481c-2.671-10.844-8.446-57.386-8.446-57.386S249.5,94.748,258.516,96.94Z" transform="translate(-132.829 25.729)" fill="#4c9ad5"/>
        <path id="Path_15940" data-name="Path 15940" d="M256.921,118.529c-1.186,3.853-3.976,9.728-7.076,15.659-2.9,5.528-6.071,11.1-8.5,15.1-1.48,2.47-2.679,4.341-3.364,5.249-2.971,3.963-5.289,7.1-9.84,9.057s-12.03-3.783-11.542-9.672c.922-11.123,10.3-57.069,10.3-57.069s22.889,1.675,30.732,6.629C257.634,103.483,259.909,108.9,256.921,118.529Z" transform="translate(-144.747 26.192)" fill="#4c9ad5"/>
        <path id="Path_15941" data-name="Path 15941" d="M237.313,127.692c-2.9,5.528-6.071,11.1-8.5,15.1-.753-14.989-.992-40.111-.992-40.111Z" transform="translate(-132.214 32.688)" fill="#63a7d1"/>
        <path id="Path_15942" data-name="Path 15942" d="M251.849,221.689A57.862,57.862,0,0,1,241.6,222s-2.267-14.965-3.388-24.084c-1.017-8.3-10.425-91.749-10.389-96.023s17.539,25.361,31.32,27.761l-5.058,35.5s-.613,12.161-.171,21.231S251.826,217.686,251.849,221.689Z" transform="translate(-132.214 31.341)" fill="#4c9ad5"/>
        <path id="Path_15943" data-name="Path 15943" d="M230.686,73.871s-3.779,11.22-5.8,18.958c-.694,2.658-2.863,10.607-2.863,10.607a108.612,108.612,0,0,0-5.932,9.514C213.1,118.854,205.041,137,205.041,137l4.769,1.3s18.07-19.768,21.908-24.714,9.436-19.54,9.436-19.54" transform="translate(-157.607 0.573)" fill="#fcae82"/>
        <g id="Group_6273" data-name="Group 6273" transform="translate(20.099)">
          <path id="Path_15944" data-name="Path 15944" d="M212.228,66.338l.019.011a9.619,9.619,0,0,1,5.236,2.62,16.611,16.611,0,0,1,3.88,5.633,5.379,5.379,0,0,0,1.417,3.364c1.438,1.539,11-.241,14.016-2.584s4.16-5.183,2.411-6.431-8.3-3.331-10.349-5.614-1.863-11.356-1.863-11.356l-5.312-.085S205.89,65.412,212.228,66.338Z" transform="translate(-171.367 -23.921)" fill="#fdba93"/>
          <path id="Path_15945" data-name="Path 15945" d="M211.446,63.651a9.619,9.619,0,0,1,5.236,2.62c6.319-6.321,5.91-11.954,5.91-11.954l-10.33,7.262S211.869,62.465,211.446,63.651Z" transform="translate(-170.566 -21.223)" fill="#fcae82"/>
          <path id="Path_15946" data-name="Path 15946" d="M204.961,52.3s2.637,21.834,6.708,27.083c0,0,9.04.937,18.609-10.233s-1.034-22.164-4.623-24.473S207.065,40.928,204.961,52.3Z" transform="translate(-177.795 -33.756)" fill="#fdba93"/>
          <path id="Path_15947" data-name="Path 15947" d="M229.814,58.962s-3.238,7.34-13.189,9.121a66.9,66.9,0,0,0-1.345,16.687c.442,9.108,4.007,19.18,6.056,26.45,1.489,5.274,4.007,21.005,5.5,27.565.463,2.043,1.548,2.03,1.548,2.03s26.956,8.96,45.085-1.231a2.676,2.676,0,0,0,.785-3.768c-6.725-9.84-17.879-41.492-21.066-50.135C249.347,75.262,240.161,61.47,229.814,58.962Z" transform="translate(-166.371 -16.045)" fill="#eab54e"/>
          <path id="Path_15948" data-name="Path 15948" d="M240.639,64.064a18.25,18.25,0,0,0-2.375,6.084c-.222,1.133-.611,2.053-1.292,1.946-1.683-.269-1.491-2.808-2.29-4.709s-1.628-1.322-2.8-2.77-.632-3.637-2.03-4.883-3.464-.543-3.293,1.387.818,4.576-.049,4.248-2.058-4.21-2.789-5.086-1.874.383-3.815,1.034-1.95-1.04-4.673-2.842-4.018,1.159-6.511,1.766-8.245-5.246-6.424-8.423,6.316-.653,7.886-2.419-.8-7.9,6.266-10.309c6.5-2.216,10.273,5,12.692,6.109s5.371-2.117,9.157.387.311,9.019,1.1,12.248c.294,1.207,1.732,3.967,1.633,5.111A2.531,2.531,0,0,1,240.639,64.064Z" transform="translate(-181.151 -38.667)" fill="#002c86"/>
          <path id="Path_15949" data-name="Path 15949" d="M237.917,70.71s-1.227,9.876-14.765,22.849a30.327,30.327,0,0,1-4.671-4.007c-3.047-3.011,12.7-17.457,12.7-17.457" transform="translate(-163.161 -2.95)" fill="#eaac3c"/>
          <g id="Group_6272" data-name="Group 6272" transform="translate(0 58.33)">
            <path id="Path_15950" data-name="Path 15950" d="M244.6,75.021s-20.9,27.67-26.9,30.587-10.7-4.293-8.8-9.429,21.149-29.927,21.149-29.927" transform="translate(-173.884 -66.251)" fill="#fdba93"/>
            <path id="Path_15951" data-name="Path 15951" d="M228.883,79.172s-7.936,3.24-15.407,6.778-21.307,7.676-21.307,7.676-.465,4.322,1.339,6.139c0,0,3.045-.472,11.481-1.893s27.36-3.106,31.951-7.293" transform="translate(-192.115 -51.848)" fill="#fdba93"/>
          </g>
          <path id="Path_15952" data-name="Path 15952" d="M237.486,63.894s4.775.448,6.608,8.82-6.382,17.032-15.7,25.518c0,0-10.652-7.179-15.634-14.416C212.757,83.816,224.923,61.242,237.486,63.894Z" transform="translate(-169.105 -10.789)" fill="#eab54e"/>
        </g>
        <path id="Path_15953" data-name="Path 15953" d="M219.407,116.738s-3.445,20.563-3.329,23.329c.283,6.733,20.3,59.287,20.3,59.287s6.367-1.133,10.119-3.4c0,0-5.2-23.405-5.932-31.49-.9-9.88-.954-20.5-6.014-29.92" transform="translate(-145.307 48.356)" fill="#4c9ad5"/>
        <path id="Path_15954" data-name="Path 15954" d="M214.018,101.371s-2.011,4-3.013,4.739a53.545,53.545,0,0,1-4.944,2.356c-.611.349-5.335.814-6.513,1.163s-.508,1.468,1.977,1.468h10.269c2.25,0,3.88-.184,4.473-.973,1.222-1.628,1.463-3.754,2.32-4.692" transform="translate(-164.359 31.227)" fill="#f07d81"/>
        <path id="Path_15955" data-name="Path 15955" d="M202.763,86.4a16.89,16.89,0,0,1-6.6-.55c-2.868-.744-4.458.717-7.524,1.867s-5.963,1.96-5.993,2.445-.285,1.023,1.152,1.055,6.2-1.5,6.773-1.533.926,1.148,1.692,1.723.417,1.1,1.087,1.654.505,1.286,1.372,1.671,1.093,1.106,3.056.7,3.244-2.387,6.323-2.889" transform="translate(-182.61 13.704)" fill="#fdba93"/>
      </g>
    </g>
    <g id="Group_6276" data-name="Group 6276" transform="translate(40.246 172.36)">
      <path id="Path_15956" data-name="Path 15956" d="M45.25,100.483S98.33,147.71,110.6,191.56c4.164,14.883,3.993,26.909,1.948,36.3a26.614,26.614,0,0,1-43.179,14.653c-7.34-6.211-14.794-15.649-20.546-29.992C31.871,170.259,45.25,100.483,45.25,100.483Z" transform="translate(-40.236 -100.483)" fill="#afddd5"/>
      <path id="Path_15957" data-name="Path 15957" d="M82.579,214.942,79.565,206q-17.3-2.7-34.594-5.4c-.093-.357-.182-.717-.271-1.076l34.5,5.386-2.851-8.448q-16.5-2.845-33.209-4.225c-.063-.343-.125-.687-.186-1.034q16.6,1.354,33.025,4.16-1.37-4.06-2.738-8.118-15.743-2.017-31.483-4.033-.067-.523-.127-1.047l31.246,4q-1.434-4.254-2.87-8.509-14.521-3.143-29.259-5.09c-.023-.347-.047-.692-.068-1.038q14.569,1.913,28.946,5l-2.956-8.763q-13.078-2.645-26.34-4.157c-.011-.345-.019-.687-.025-1.032q13.075,1.485,25.989,4.071-1.205-3.569-2.409-7.137-11.711-2.868-23.644-4.657c0-.345,0-.689.008-1.034q11.721,1.751,23.249,4.544-1.465-4.349-2.933-8.7a96.984,96.984,0,0,0-20.091-4.659c.013-.343.027-.683.042-1.021a98.06,98.06,0,0,1,19.639,4.468q-.5-1.481-1-2.963a.524.524,0,0,1-.173-.514q-.362-1.075-.723-2.146a50.272,50.272,0,0,0-17.484-3.889c.019-.343.04-.681.061-1.019a51.479,51.479,0,0,1,16.991,3.629l-2.2-6.522A100.2,100.2,0,0,0,41.3,131.45c.027-.345.057-.685.085-1.026a100.937,100.937,0,0,1,13.836,3.407l-2.045-6.061q-4.882-.8-9.763-1.6c-.537-.087-1.076-.171-1.616-.262.032-.338.066-.677.1-1.011.8.133,1.6.25,2.387.379q4.26.7,8.522,1.4-.863-2.563-1.728-5.126-4.219-1.465-8.541-2.557c.042-.345.082-.687.123-1.024q4.047,1.021,8.006,2.36-1.009-2.994-2.017-5.984Q46,113.521,43.3,112.955c.047-.345.093-.683.14-1.017q2.43.511,4.813,1.218l-1.218-3.61-3.113-.985c.053-.349.1-.689.154-1.019l2.555.808-1.821-5.395c.273-1.6.44-2.472.44-2.472s.645.573,1.806,1.649q1.012,3.007,2.028,6.014a23.34,23.34,0,0,1,1.237-2.927q.374.358.772.742a22.086,22.086,0,0,0-1.446,3.851l1.415,4.2a34.847,34.847,0,0,1,2.489-5.648c.247.243.5.491.753.744a33.22,33.22,0,0,0-2.533,6.023.52.52,0,0,1-.23.3q1.3,3.863,2.605,7.723,2.071-4.913,4.483-9.666l.753.778q-2.563,5.082-4.743,10.349l2.343,6.947q2.953-6.709,6.236-13.261c.247.264.495.529.744.8q-3.429,6.864-6.5,13.9l2.872,8.514q3.613-9.012,7.907-17.725.368.409.738.825-4.431,9.037-8.137,18.4.945,2.807,1.893,5.612,5.6-9.17,11.189-18.343c.231.273.463.546.694.82L63.158,149.886l3.673,10.886a252.535,252.535,0,0,1,11.724-24.919q.349.431.7.865a252.883,252.883,0,0,0-11.918,25.545l3.362,9.971q7.749-13.265,15.5-26.526.33.447.66.9Q78.991,160.06,71.13,173.517l1.281,3.8q.78,2.312,1.559,4.625,8.786-14.35,17.571-28.7.314.463.628.928Q83.281,168.685,74.4,183.2q1.2,3.565,2.406,7.133l20.8-27.622c.19.317.379.632.565.949L77.311,191.352a.467.467,0,0,1-.125.118q1.716,5.1,3.436,10.195l21.69-30.523q.263.511.524,1.021-10.905,15.349-21.811,30.694,1.288,3.819,2.576,7.636,12.114-13.6,24.23-27.2.209.542.41,1.081L83.979,211.613q1.37,4.063,2.743,8.131a314.617,314.617,0,0,0,24.716-24.962c.1.408.2.816.292,1.22a314.92,314.92,0,0,1-24.655,24.79q2.227,6.595,4.449,13.191,11.708-10.518,22.377-22.1c.017.5.027.99.036,1.476q-10.458,11.273-21.921,21.553a.557.557,0,0,1-.148.093q.939,2.776,1.874,5.551,9.706-7.984,19.417-15.97c-.085.518-.171,1.032-.264,1.537l-18.8,15.467,1.852,5.494q-1.12.422-2.271.742l-.514-1.523-21.906-2.33q-.793-.561-1.563-1.193,11.556,1.231,23.109,2.459l-1.656-4.91L63.83,237.184c-.343-.372-.683-.755-1.024-1.144l27.977,3.223-2.569-7.617q-15.524-1.507-31.048-3.016c-.239-.357-.476-.723-.711-1.091q15.7,1.523,31.4,3.049l-2.242-6.644-.061-.184a320.2,320.2,0,0,0-33.063-3.147q-.263-.517-.527-1.047a322.681,322.681,0,0,1,33.224,3.106l-.29-.854a.42.42,0,0,1-.059-.18q-.939-2.782-1.878-5.566-17.4-3.886-35.118-6.1-.193-.539-.385-1.081Q65.152,211.075,82.579,214.942Z" transform="translate(-40.232 -100.483)" fill="#86bec4"/>
    </g>
  </g>
</svg>
