<svg xmlns="http://www.w3.org/2000/svg" xmlns:xlink="http://www.w3.org/1999/xlink" width="480.66" height="361.891" viewBox="0 0 480.66 361.891">
  <defs>
    <clipPath id="clip-path">
      <rect width="480.66" height="361.891" fill="none"/>
    </clipPath>
  </defs>
  <g id="CM-Main" transform="translate(0)" clip-path="url(#clip-path)">
    <g id="Group_5173" data-name="Group 5173" transform="translate(361.653 97.224)">
      <path id="Path_11168" data-name="Path 11168" d="M479.977,345.669c-5.383-15.989-38.588-28.339-31.157-46.544S480.8,316.091,480.5,307.62s-34.56-30.132-23.784-46.243c8.928-13.347,23.292,5.79,26.978,6.94s-19.3-22.169-13.874-29.684,16.226.961,20.211,6.082-12.283-29.334-3.526-37.165,17.161,22.872,19.245,13.174-8.92-34.654,1.145-38.109,10.879,11.968,14.865,17.09,4.8-19.456,16.7-35.585,32.875-21.62,27.395-5.6-30.9,37.933-26.467,42.512,26.263-13.492,20.7,4.536-35.6,17.877-28.841,25.736,20.778,1.029,18.367,10.758-32.1,8.469-28.714,14.148,7.962,5.508,24.812,6.223c16.2.686,9.574,22.091-9.386,22.391s-31.389,5.479-23.083,7.69,17.732,3.849,25.808,6.552c18.288,6.119,13.61,21.708-8.893,23.843s-38.859,6.687-26.682,7.032,39.533,6.249,19.894,11.613S479.977,345.669,479.977,345.669Z" transform="translate(-447.741 -148.912)" fill="#2b8d7b"/>
      <path id="Path_11169" data-name="Path 11169" d="M484.973,348.98c22.494-108.529,67.587-175.394,67.587-175.394" transform="translate(-452.737 -152.223)" fill="none" stroke="#1f6152" stroke-miterlimit="10" stroke-width="1"/>
      <path id="Path_11170" data-name="Path 11170" d="M518.465,196.2c12.786,9.847,7.532,40.1,7.532,40.1" transform="translate(-457.232 -155.258)" fill="none" stroke="#1f6152" stroke-miterlimit="10" stroke-width="1"/>
      <path id="Path_11171" data-name="Path 11171" d="M499.638,226.525c18.014,9.27,12.232,42.7,12.232,42.7" transform="translate(-454.705 -159.327)" fill="none" stroke="#1f6152" stroke-miterlimit="10" stroke-width="1"/>
      <path id="Path_11172" data-name="Path 11172" d="M482.328,258.6c17.81,6.545,19.586,36.81,19.586,36.81" transform="translate(-452.383 -163.632)" fill="none" stroke="#1f6152" stroke-miterlimit="10" stroke-width="1"/>
      <path id="Path_11173" data-name="Path 11173" d="M466.136,289.309c24.152,3.2,28.029,27.777,25.746,36.238" transform="translate(-450.21 -167.753)" fill="none" stroke="#1f6152" stroke-miterlimit="10" stroke-width="1"/>
      <path id="Path_11174" data-name="Path 11174" d="M459.678,329.235C482.1,331.819,486.445,347.9,484.624,356" transform="translate(-449.343 -173.111)" fill="none" stroke="#1f6152" stroke-miterlimit="10" stroke-width="1"/>
      <path id="Path_11175" data-name="Path 11175" d="M561.166,215.17c-25.081,11.619-32.727,18.982-37.522,30.832" transform="translate(-457.927 -157.804)" fill="none" stroke="#1f6152" stroke-miterlimit="10" stroke-width="1"/>
      <path id="Path_11176" data-name="Path 11176" d="M548.4,256.411c-34.081,3.17-36.91,22.211-36.91,22.211" transform="translate(-456.296 -163.338)" fill="none" stroke="#1f6152" stroke-miterlimit="10" stroke-width="1"/>
      <path id="Path_11177" data-name="Path 11177" d="M551.97,290.274c-32.287,3.064-45.74,3.839-49.286,15.5" transform="translate(-455.114 -167.882)" fill="none" stroke="#1f6152" stroke-miterlimit="10" stroke-width="1"/>
      <path id="Path_11178" data-name="Path 11178" d="M546.856,332.655c-44.244.862-53.457,7.159-55.3,12.813" transform="translate(-453.621 -173.57)" fill="none" stroke="#1f6152" stroke-miterlimit="10" stroke-width="1"/>
      <path id="Path_11179" data-name="Path 11179" d="M526.558,365.942c-32.379-2.084-38.455-4.729-39.527.2" transform="translate(-453.014 -177.687)" fill="none" stroke="#1f6152" stroke-miterlimit="10" stroke-width="1"/>
    </g>
    <path id="Path_11180" data-name="Path 11180" d="M540.711,191.127c.048-.044.1-.088.142-.133l.022-.021c.045-.044.09-.088.133-.132l.016-.016c.046-.047.091-.094.135-.141l.027-.029c.043-.048.086-.094.127-.142l.023-.026.126-.148,0,0c.042-.05.083-.1.123-.152l.021-.027c.039-.049.077-.1.114-.149l.021-.028c.037-.051.075-.1.111-.154l.007-.01c.036-.051.071-.1.1-.153l.014-.021c.034-.051.068-.1.1-.155l.017-.027c.033-.053.065-.1.1-.157l.01-.016q.047-.079.091-.158l.005-.009c.029-.054.058-.107.087-.161l.012-.023c.028-.053.054-.106.08-.158l.009-.018c.054-.11.1-.219.149-.328l.007-.017c.023-.053.043-.106.064-.158l.007-.018c.042-.109.08-.218.114-.326l0-.009c.017-.053.033-.106.048-.158l0-.015c.015-.053.029-.1.042-.157v0c.027-.106.048-.211.067-.314l0-.011c.009-.05.016-.1.023-.149v-.005c.014-.1.023-.2.028-.294v-.006c0-.047,0-.094,0-.139v-.006a2.518,2.518,0,0,0-.03-.4v-.006a1.772,1.772,0,0,0-.093-.347v0c-.014-.036-.029-.07-.045-.1h0a1.27,1.27,0,0,0-.113-.187l0,0a1.008,1.008,0,0,0-.066-.081l0,0a1.485,1.485,0,0,0-1.623-.243c-3.529,1.054-5.373,5.41-5.955,7.056q-.252-1.079-.542-2.152-.2-.731-.4-1.46l-.193-.676c-.513-1.792-1.05-3.578-1.538-5.378l.084.006c.076.005.151.011.227.015l.132.005.2.005h.137l.192,0,.139-.005.186-.01.136-.01c.062,0,.123-.01.184-.016l.132-.015.184-.024.125-.018.19-.033.113-.021c.071-.014.141-.029.211-.045l.085-.019c.1-.023.2-.048.293-.074l.019-.005c.089-.025.177-.051.265-.079l.09-.029c.063-.021.126-.042.189-.064l.1-.038.168-.064.107-.044c.054-.022.107-.044.159-.068l.107-.048c.052-.023.1-.047.153-.072l.1-.051.151-.076.1-.053.15-.083.094-.054.154-.093.082-.05.175-.113.055-.036c.076-.051.151-.1.224-.157l.027-.02c.064-.047.126-.093.189-.141l.068-.055.139-.111.078-.066.123-.1.081-.071.113-.1.08-.074.107-.1.077-.077.1-.106.074-.078.1-.109.068-.077c.034-.038.067-.077.1-.116l.061-.073.107-.132c.015-.019.031-.038.046-.058q.074-.093.143-.19l.046-.063c.03-.042.062-.086.091-.129l.056-.083.073-.11.057-.09c.022-.035.042-.069.063-.1l.055-.094c.02-.033.039-.067.058-.1l.053-.1c.017-.032.035-.064.051-.1l.05-.1.046-.094c.017-.033.032-.066.047-.1s.028-.061.042-.091.029-.067.043-.1.023-.057.035-.086.029-.069.042-.1.018-.049.027-.074c.049-.136.093-.269.128-.4.006-.021.012-.042.017-.063.009-.036.017-.073.026-.109l.016-.068c.008-.035.014-.07.021-.106s.008-.045.012-.068.01-.068.015-.1.006-.044.009-.066.008-.068.01-.1l.005-.063.005-.1c0-.02,0-.039,0-.059s0-.066,0-.1l0-.051c0-.034,0-.068-.006-.1l0-.041c0-.035-.007-.071-.013-.1v-.006a1.713,1.713,0,0,0-.094-.353l-.009-.023c-.011-.029-.024-.056-.038-.084l-.016-.034c-.014-.026-.028-.05-.042-.074s-.014-.024-.022-.035-.03-.045-.047-.068l-.026-.034c-.017-.022-.035-.042-.053-.061l-.029-.031c-.019-.019-.038-.038-.059-.055l-.033-.028c-.022-.018-.042-.035-.065-.051l-.035-.023c-.024-.016-.049-.031-.074-.046a.341.341,0,0,0-.031-.016,1.84,1.84,0,0,0-1.055-.157c-3.555.369-6.3,5.745-7.08,7.443-.329-1.242-.631-2.491-.883-3.753h0l-.01-.051c-.007-.038-.016-.075-.022-.113v0l-.137-.728a37.955,37.955,0,0,1-.536-4.823c.19-.019.442-.048.741-.094l.1-.015c.131-.02.27-.043.416-.07l.111-.02.254-.05.188-.039.148-.033q.247-.056.508-.123l.263-.07A12.183,12.183,0,0,0,536.9,170.6l0,0,.158-.107.046-.033.119-.085.042-.03c.05-.036.1-.074.149-.112l.026-.02.121-.1.042-.035c.038-.03.075-.061.113-.093l.029-.024c.045-.038.09-.077.133-.116l.031-.027c.034-.031.068-.061.1-.093l.036-.034.114-.109.01-.009.119-.119.029-.029.089-.094.027-.029c.036-.04.073-.081.107-.12l0,0c.033-.038.066-.076.1-.115l.023-.029c.027-.034.054-.067.08-.1l.016-.02c.031-.041.061-.081.089-.121l.01-.013.074-.107.016-.024c.025-.038.049-.076.072-.113l0,0c.024-.04.048-.081.07-.12l.009-.016c.019-.035.037-.069.055-.1l.01-.018c.039-.078.073-.154.1-.229l.006-.015c.013-.035.025-.069.036-.1l0-.01a2.026,2.026,0,0,0,.056-.218l0-.013a1.491,1.491,0,0,0,.023-.209h0c0-.033,0-.065,0-.1v-.009a1,1,0,0,0-.028-.187l0-.005a.873.873,0,0,0-.027-.084V167.1a.812.812,0,0,0-.083-.162l0-.007c-.276-.411-.952-.618-2.118-.471-2.774.351-5.479,4.117-6.451,5.611a37.655,37.655,0,0,1,.117-4.384l.082-.855c.03-.281.063-.562.1-.842q.221-1.683.6-3.341h.3l.256,0c.277,0,.616-.012,1.014-.028l.418-.018.223-.01c.763-.039,1.687-.1,2.765-.2.051,0,.1-.01.153-.016l.051-.006.1-.014.06-.009.094-.015.061-.011.091-.016.062-.012.089-.019.062-.013.09-.021.06-.015.1-.024.054-.015.116-.032.031-.01.146-.044.041-.014.1-.034.055-.02.088-.031.059-.023.082-.031.061-.024.079-.032.061-.025.079-.035.059-.026.08-.036.055-.026.085-.042.049-.023c.042-.022.086-.043.127-.066l.042-.023.087-.047.055-.031.07-.041.058-.035.065-.039.059-.036.061-.039.059-.038.059-.039.058-.04.056-.04.058-.041.054-.04.057-.042.049-.038c.04-.031.08-.062.119-.094l.038-.031.059-.05.042-.036.057-.051.04-.036c.019-.016.037-.035.055-.052l.038-.036.055-.053.036-.036.053-.055.032-.035.054-.057.026-.03.055-.063.014-.017c.067-.08.129-.159.187-.241l.01-.014.048-.07.017-.024.042-.068.017-.028c.014-.023.027-.045.04-.068l.016-.028.036-.068.014-.027c.012-.023.023-.047.035-.07l.01-.022q.018-.038.034-.075l0-.008a2.3,2.3,0,0,0,.119-.357l0-.011c.006-.025.011-.051.016-.077l0-.02c0-.024.008-.049.011-.074l0-.023q.005-.036.008-.073l0-.022c0-.025,0-.049,0-.074v-.018c0-.026,0-.052,0-.078v-.009a1.588,1.588,0,0,0-.051-.354h0c-.007-.026-.015-.051-.023-.077l-.005-.016c-.008-.024-.016-.048-.025-.071l-.009-.022c-.009-.023-.019-.045-.029-.068l-.01-.023-.034-.068-.011-.02c-.013-.023-.026-.046-.04-.068l-.01-.016a2.329,2.329,0,0,0-.67-.674c-2.807-1.926-7.379,3.073-8.889,4.876A37.261,37.261,0,0,1,533.4,156.8l.009-.007.257-.631q.635-1.484,1.4-2.907l.031-.009c.067-.018.132-.037.2-.058l.024-.008c.064-.021.128-.043.192-.067l.019-.007c.066-.024.13-.049.195-.076l.035-.015c.063-.027.126-.055.188-.083l.033-.016c.064-.03.128-.061.191-.094l.008,0c.062-.032.124-.066.185-.1l.029-.016q.091-.052.179-.106l.035-.021c.06-.037.119-.074.177-.113l.024-.017c.058-.038.115-.078.172-.119l.014-.01c.059-.042.116-.085.174-.129l.031-.023c.055-.043.111-.087.165-.132l.03-.025c.056-.046.113-.093.167-.14l.011-.01c.054-.047.107-.094.159-.143l.023-.022c.053-.048.1-.1.157-.148l.03-.029c.051-.05.1-.1.152-.153l.023-.023c.051-.053.1-.106.151-.159l.007-.008c.051-.055.1-.111.15-.166l.026-.029c.048-.055.094-.109.14-.165l.027-.032c.047-.056.094-.113.139-.171l.014-.016c.044-.056.088-.113.132-.171l.017-.022c.043-.059.087-.118.13-.177l.025-.035c.042-.058.084-.118.125-.177l.021-.029c.042-.062.084-.124.126-.187v0q.062-.095.122-.19l.019-.03c.038-.061.076-.122.113-.184l.022-.036c.037-.061.074-.125.109-.187l.012-.021c.036-.061.069-.124.1-.185l.011-.019c.034-.063.068-.126.1-.19l.018-.035c.032-.062.064-.125.094-.187l.016-.031c.032-.065.063-.131.094-.2v0c.03-.064.06-.129.088-.194l.013-.029c.028-.062.055-.126.081-.188l.014-.034c.026-.063.052-.126.077-.189l.009-.022c.024-.062.048-.125.071-.187l.005-.013q.035-.095.068-.19l.011-.031c.021-.061.042-.122.061-.183l.01-.03c.02-.062.039-.125.058-.187l0-.006c.018-.061.035-.123.052-.184l.006-.023c.016-.06.031-.119.045-.178l.008-.029c.014-.059.028-.117.04-.175l0-.022c.013-.059.024-.118.036-.176v0c.011-.058.021-.116.029-.173l0-.025q.013-.083.023-.164l0-.024c.007-.055.013-.11.018-.165v-.008c.005-.054.01-.107.012-.158v-.015c0-.051,0-.1.006-.152v-.023c0-.05,0-.1,0-.146v-.017c0-.1-.01-.194-.02-.286l0-.016c-.005-.044-.011-.087-.019-.128l0-.019c-.008-.042-.016-.083-.026-.124l0-.007c-.01-.041-.021-.08-.032-.118l0-.008q-.018-.056-.039-.109l-.006-.016c-.014-.035-.029-.068-.045-.1l-.006-.012a1.169,1.169,0,0,0-.114-.184l-.008-.01c-.021-.027-.042-.052-.065-.076l-.01-.01q-.035-.035-.073-.068l-.006,0a.9.9,0,0,0-.081-.06l0,0c-.029-.018-.058-.034-.088-.049l-.013-.006a.977.977,0,0,0-.093-.038l-.013,0a1.021,1.021,0,0,0-.1-.029h0a2.485,2.485,0,0,0-1.667.429c-4.151,2.327-4.111,7.161-3.957,8.851q-.787,1.457-1.443,2.981l-.239.566a38.383,38.383,0,0,0-1.765,5.388c-.348-2.269-1.517-7.845-4.65-8.39a2.017,2.017,0,0,0-1.776.336l-.007.006a1.381,1.381,0,0,0-.269.345l0,.005a1.789,1.789,0,0,0-.166.433l0,.005a2.619,2.619,0,0,0-.068.5v.01c0,.035,0,.069,0,.1h0a3.974,3.974,0,0,0,.024.449l0,.02c0,.035.008.07.013.106l0,.015c.016.113.036.229.061.345l0,.015q.01.052.023.1l.008.035c.008.033.016.067.025.1l.009.034c.029.109.061.22.1.332l.012.037c.01.031.021.062.031.094l.017.051.033.091.02.055.034.09.018.045c.022.055.045.112.068.168l.027.064.036.081.031.069.036.077.035.074.036.073.053.106c.015.03.03.06.046.089s.03.059.047.089l.036.066c.016.028.03.055.046.082l.037.066c.016.029.033.059.05.087l.034.059c.028.046.055.093.084.139l.023.036.068.108.035.055.059.089.038.056c.021.031.042.061.064.093l.034.048c.032.046.065.092.1.137l.015.019q.043.06.088.117l.036.046.071.09.039.048.075.091.035.041c.036.043.073.086.111.128l.009.01.1.115.036.04.081.084.041.042.084.083.036.036.12.115,0,0c.039.036.079.073.119.107l.039.034.087.074.044.036.088.071.04.032c.042.033.085.066.128.1a20.217,20.217,0,0,0,1.693,1.132c.136.081.265.153.386.22s.237.126.345.179c.163.081.312.148.446.2l.13.053a4.366,4.366,0,0,0,.431.145l.087.023c.046.011.087.02.126.028q-.373,1.679-.6,3.388l-.1.89a38.5,38.5,0,0,0-.206,4.934c-1.034-2.115-4.257-8.045-7.239-6.532a4,4,0,0,0-.351.2l0,0-.077.051,0,0-.073.051-.005,0-.068.051-.006.005-.063.05-.007.006-.059.051-.007.006-.055.051-.007.007-.051.051-.007.008-.048.052-.007.007c-.015.017-.029.035-.043.053l-.007.008-.041.052-.006.009c-.013.017-.025.035-.037.053l-.005.008-.035.054,0,.008q-.017.027-.031.055l-.005.008c-.01.018-.019.036-.028.055l0,.009c-.009.018-.017.036-.025.055l0,.008c-.008.019-.015.038-.022.056l0,.008c-.007.019-.014.038-.02.057l0,.007c-.005.019-.011.038-.016.058l0,.006c0,.02-.009.04-.014.059v.006c0,.02-.008.04-.011.061v0c0,.021-.006.042-.009.061v0c0,.022,0,.042-.005.064v0q0,.032,0,.065h0a2.559,2.559,0,0,0,.719,1.6h0c.019.023.039.046.059.069l0,0,.059.067,0,0,.06.065.006.007.06.063.007.008.061.061.01.01.061.061.011.01.061.06.012.011.062.058.013.013.063.057.014.013.063.056.016.014.065.056.016.014.065.055.018.015.065.055.019.015.066.054.02.016.067.054.02.016.068.053.022.016.068.052.022.016.069.052.022.016.071.051.023.016.071.05.023.016.072.051.022.015.074.051.023.016.074.049.023.016.075.05.024.016.076.049.023.015.079.05.022.014.081.05.022.013.082.051.018.011.086.051.016.01.09.054.01.005.1.057h0q.37.214.758.412h0l.092.047.021.01.082.041.03.016.078.038.036.017.074.036.04.019.07.034.044.02.068.032.046.022.067.03.049.022.066.029.048.022.066.029.05.023.063.027.052.023.063.027.052.022.062.026.054.022.061.025.056.023.059.023.056.023.059.023.056.022.059.023.057.022.059.022.056.021.058.022.057.021.058.02.057.021.057.02.057.019.057.02.058.019.056.019.057.018.057.018.056.018.056.017.057.018.056.016.057.017.055.016.057.016.055.016.056.016.054.016.059.016.052.014.058.015.052.014.057.014.053.013.055.014.053.012.056.013.051.012.056.012.05.011.056.011.05.01.055.011.049.01.055.01.049.009.055.01.048.009.056.009.045.007.06.01.018,0q.074,1.8.319,3.586.07.5.153,1l.107.616c.235,1.3.532,2.6.86,3.881-1.219-1.771-4.156-5.138-8.418-4.265a2.8,2.8,0,0,0-1.617.752l0,0a1,1,0,0,0-.065.087l0,.006a.873.873,0,0,0-.052.091v0a.815.815,0,0,0-.068.195v0a.913.913,0,0,0-.015.1v.006a.655.655,0,0,0,0,.1v0a1.1,1.1,0,0,0,.062.319l0,.007c.013.035.027.071.042.106l0,0a2.051,2.051,0,0,0,.192.335l.005.007c.025.036.053.073.081.11l.005.006a3.656,3.656,0,0,0,.309.343l.006.006c.038.037.077.074.117.111l.01.009c.041.037.083.074.126.111l0,0c.089.075.183.151.282.226l.009.007c.048.036.1.072.146.108l.015.01.153.107.01.007c.107.073.219.145.335.216l.012.008.171.1.021.013c.057.033.115.067.175.1l.018.01q.186.1.381.2l.014.007.19.1.027.013c.063.03.126.061.191.091l.027.012c.066.031.133.061.2.092l.01,0,.207.09.014.006.208.086.03.012.205.081.034.012.211.08.023.008.217.077.011,0c.073.026.146.05.22.074l.035.011.215.068.039.012.22.066.029.008c.076.023.152.044.229.065h0l.231.061.035.009.223.055.042.01c.074.017.15.035.224.05l.036.008.235.048.008,0,.234.043.031.006.229.038.042.006.226.034.04.005.234.029.018,0c.076.009.153.017.229.024l.028,0c.076.008.153.014.23.02l.042,0c.075.005.151.01.225.014l.042,0,.229.009h.024c.076,0,.151,0,.228,0h.02l.229,0h.039l.221-.008.042,0,.223-.014.029,0c.074-.005.15-.012.224-.02h.01c.075-.008.15-.017.224-.027l.036,0,.214-.032.04-.007.118-.021c.517,1.919,1.092,3.827,1.636,5.739l.255.9c.3,1.061.577,2.126.829,3.2-1.852-1.2-7.668-4.784-9.837-3.837a1.484,1.484,0,0,0-.983,1.357v.023a1.972,1.972,0,0,0,.018.308l0,.023a2.408,2.408,0,0,0,.07.319l.007.024q.025.082.055.164l0,.005c.019.053.041.106.063.159l.01.023c.024.055.049.109.077.164l.007.015c.026.051.054.1.082.154l.012.022c.031.055.064.108.1.163l.014.021c.032.05.065.1.1.15l.013.019c.037.053.077.106.117.158l.02.026c.038.049.078.1.118.146l.012.015c.043.052.088.1.134.154l.027.029c.045.048.09.1.138.145l.007.007c.049.05.1.1.151.147l.032.029c.1.1.212.19.325.281l.036.029c.057.045.114.089.173.132l.01.008c.056.041.113.081.17.119l.041.028c.061.04.121.08.184.119l.023.014q.084.052.171.1l.042.024c.063.035.128.07.193.1l.035.017c.058.029.116.057.175.085l.042.02c.067.03.134.06.2.087l.042.017c.061.024.121.048.183.07l.038.014c.069.025.14.048.21.07l.048.015c.064.019.128.037.193.054l.032.009c.072.019.145.035.218.051l.052.01c.069.014.139.026.208.037l.021,0c.074.011.15.02.225.029l.055.005c.076.007.153.014.23.017h0a13.286,13.286,0,0,0,5.269-.789c.3-.112.541-.218.727-.306a40.541,40.541,0,0,1,.87,5.351h0l0,.033.007.073h0l.044.591,0,0,.008.129,0,.021h0c.024.4.042.793.05,1.192a32.6,32.6,0,0,1-2.833,13.951c-.189.422.473.652.66.235a33.134,33.134,0,0,0,2.855-12.3c.036-.974.021-1.944-.035-2.908l-.053-.767a42.435,42.435,0,0,0-.891-5.737c.064.005.127.01.191.014l.048,0c.082,0,.164.009.247.01h.022c.079,0,.158,0,.236,0h.035c.079,0,.158,0,.236-.008l.047,0c.078,0,.155-.01.232-.017l.034,0c.074-.008.148-.016.222-.025l.023,0q.114-.016.226-.034l.044-.008c.074-.012.146-.026.217-.041l.04-.009c.074-.016.147-.032.22-.05h0c.073-.018.145-.038.216-.058l.04-.011c.068-.02.137-.041.2-.063l.042-.013c.068-.023.137-.047.2-.072l.021-.008c.064-.023.128-.048.191-.074l.031-.013c.065-.027.129-.055.193-.083l.041-.018c.063-.029.126-.058.188-.088l.029-.015c.06-.03.119-.06.177-.091l.022-.011c.061-.033.121-.067.181-.1l.038-.022c.058-.034.116-.068.173-.1l.033-.021c.058-.036.116-.074.172-.112l.006,0c.058-.039.114-.078.171-.119l.033-.023.159-.118.034-.026.158-.124.016-.014c.05-.04.1-.081.147-.123l.025-.022c.05-.042.1-.086.147-.13Z" transform="translate(-95.944 -50.954)" fill="#e0583d"/>
    <path id="Path_11181" data-name="Path 11181" d="M481.406,306.44c-.011.107-.018.184-.017.176C481.44,306.476,481.438,306.428,481.406,306.44Z" transform="translate(-90.603 -72.828)" fill="#191818"/>
    <path id="Path_11182" data-name="Path 11182" d="M479.89,308.756a.49.49,0,0,0,.217-.512C479.914,308.581,479.8,308.813,479.89,308.756Z" transform="translate(-90.398 -73.07)" fill="#191818"/>
    <path id="Path_11183" data-name="Path 11183" d="M476.768,311.826c-.039.443-.1.76-.2.809C476.937,312.446,476.947,312.153,476.768,311.826Z" transform="translate(-89.956 -73.551)" fill="#191818"/>
    <path id="Path_11184" data-name="Path 11184" d="M464.842,308.342c0,.023-.045.017-.113-.016C464.792,308.373,464.839,308.4,464.842,308.342Z" transform="translate(-88.368 -73.081)" fill="#191818"/>
    <path id="Path_11185" data-name="Path 11185" d="M471.441,307.866a2.31,2.31,0,0,1-.285.821C471.626,308.031,471.63,307.838,471.441,307.866Z" transform="translate(-89.23 -73.019)" fill="#191818"/>
    <path id="Path_11186" data-name="Path 11186" d="M474.214,309.637c.01.009.012-.006.017-.014C474.181,309.6,474.165,309.6,474.214,309.637Z" transform="translate(-89.637 -73.253)" fill="#191818"/>
    <path id="Path_11187" data-name="Path 11187" d="M468.652,309.667c.334.185.4.157.325.006C468.949,309.762,468.856,309.78,468.652,309.667Z" transform="translate(-88.894 -73.261)" fill="#191818"/>
    <g id="Group_5178" data-name="Group 5178" transform="translate(52.112)">
      <path id="Path_11188" data-name="Path 11188" d="M420.667,36.619H103.55A13.329,13.329,0,0,0,90.222,49.948V327.783H434V49.948A13.329,13.329,0,0,0,420.667,36.619Z" transform="translate(-90.222 -36.619)" fill="#fff"/>
      <path id="Path_11189" data-name="Path 11189" d="M420.667,36.619H103.55c-7.361,0-13.328,2.874-13.328,6.417v15.5H434v-15.5C434,39.493,428.029,36.619,420.667,36.619Z" transform="translate(-90.222 -36.619)" fill="#e0583d"/>
      <rect id="Rectangle_1381" data-name="Rectangle 1381" width="79.276" height="43.259" rx="3.93" transform="translate(168.282 168.978)" fill="#e0583d"/>
      <g id="Group_5174" data-name="Group 5174" transform="translate(168.282 45.565)">
        <rect id="Rectangle_1382" data-name="Rectangle 1382" width="160.835" height="87.764" rx="7.973" fill="#eab54e"/>
        <path id="Path_11190" data-name="Path 11190" d="M394.854,135.4l-28.671-13.961a2.241,2.241,0,0,0-3.223,2.015V151.38a2.241,2.241,0,0,0,3.223,2.015l28.671-13.961A2.241,2.241,0,0,0,394.854,135.4Z" transform="translate(-295.104 -93.537)" fill="#e4a32f"/>
      </g>
      <path id="Rectangle_1383" data-name="Rectangle 1383" d="M2.554,0H68.711a2.555,2.555,0,0,1,2.555,2.555V8.132a2.555,2.555,0,0,1-2.555,2.555H2.554A2.554,2.554,0,0,1,0,8.132V2.554A2.554,2.554,0,0,1,2.554,0Z" transform="translate(257.851 168.978)" fill="#c3e7ec"/>
      <path id="Rectangle_1384" data-name="Rectangle 1384" d="M2.554,0H50.685A2.555,2.555,0,0,1,53.24,2.555V8.132a2.555,2.555,0,0,1-2.555,2.555H2.554A2.554,2.554,0,0,1,0,8.132V2.554A2.554,2.554,0,0,1,2.554,0Z" transform="translate(257.851 187.314)" fill="#c3e7ec"/>
      <rect id="Rectangle_1385" data-name="Rectangle 1385" width="79.276" height="43.259" rx="3.93" transform="translate(168.282 231.2)" fill="#e0583d"/>
      <path id="Rectangle_1386" data-name="Rectangle 1386" d="M2.554,0H68.711a2.555,2.555,0,0,1,2.555,2.555V8.132a2.555,2.555,0,0,1-2.555,2.555H2.554A2.554,2.554,0,0,1,0,8.132V2.554A2.554,2.554,0,0,1,2.554,0Z" transform="translate(257.851 231.2)" fill="#c3e7ec"/>
      <path id="Rectangle_1387" data-name="Rectangle 1387" d="M2.554,0H50.685A2.555,2.555,0,0,1,53.24,2.555V8.132a2.554,2.554,0,0,1-2.554,2.554H2.554A2.554,2.554,0,0,1,0,8.132V2.554A2.554,2.554,0,0,1,2.554,0Z" transform="translate(257.851 249.536)" fill="#c3e7ec"/>
      <g id="Group_5175" data-name="Group 5175" transform="translate(4.687 34.367)">
        <path id="Rectangle_1388" data-name="Rectangle 1388" d="M2.554,0H57.9A2.554,2.554,0,0,1,60.45,2.554V8.132A2.555,2.555,0,0,1,57.9,10.686H2.554A2.554,2.554,0,0,1,0,8.132V2.554A2.554,2.554,0,0,1,2.554,0Z" transform="translate(77.877 22.785)" fill="#c3e7ec"/>
        <path id="Rectangle_1389" data-name="Rectangle 1389" d="M2.554,0H39.87a2.554,2.554,0,0,1,2.554,2.554V8.132a2.555,2.555,0,0,1-2.555,2.555H2.555A2.555,2.555,0,0,1,0,8.132V2.554A2.554,2.554,0,0,1,2.554,0Z" transform="translate(77.877 41.121)" fill="#c3e7ec"/>
        <circle id="Ellipse_117" data-name="Ellipse 117" cx="28.183" cy="28.183" r="28.183" transform="translate(0 23.24) rotate(-24.35)" fill="#e0583d"/>
      </g>
      <g id="Group_5176" data-name="Group 5176" transform="translate(13.8 131.409)">
        <path id="Rectangle_1390" data-name="Rectangle 1390" d="M2.555,0H57.9A2.554,2.554,0,0,1,60.45,2.554V8.132A2.555,2.555,0,0,1,57.9,10.687H2.554A2.554,2.554,0,0,1,0,8.132V2.555A2.555,2.555,0,0,1,2.555,0Z" transform="translate(68.764 13.672)" fill="#c3e7ec"/>
        <path id="Rectangle_1391" data-name="Rectangle 1391" d="M2.555,0H39.87a2.554,2.554,0,0,1,2.554,2.554V8.132a2.554,2.554,0,0,1-2.554,2.554H2.555A2.555,2.555,0,0,1,0,8.132V2.555A2.555,2.555,0,0,1,2.555,0Z" transform="translate(68.764 32.007)" fill="#c3e7ec"/>
        <circle id="Ellipse_118" data-name="Ellipse 118" cx="28.183" cy="28.183" r="28.183" fill="#e0583d"/>
      </g>
      <g id="Group_5177" data-name="Group 5177" transform="translate(9.787 215.326)">
        <path id="Rectangle_1392" data-name="Rectangle 1392" d="M2.554,0H57.9A2.554,2.554,0,0,1,60.45,2.554V8.132A2.555,2.555,0,0,1,57.9,10.687H2.554A2.554,2.554,0,0,1,0,8.132V2.554A2.554,2.554,0,0,1,2.554,0Z" transform="translate(72.777 17.685)" fill="#c3e7ec"/>
        <path id="Rectangle_1393" data-name="Rectangle 1393" d="M2.554,0H39.87a2.554,2.554,0,0,1,2.554,2.554V8.132a2.555,2.555,0,0,1-2.555,2.555H2.555A2.555,2.555,0,0,1,0,8.132V2.554A2.554,2.554,0,0,1,2.554,0Z" transform="translate(72.777 36.021)" fill="#c3e7ec"/>
        <circle id="Ellipse_119" data-name="Ellipse 119" cx="28.183" cy="28.183" r="28.183" transform="matrix(0.154, -0.988, 0.988, 0.154, 0, 55.69)" fill="#e0583d"/>
      </g>
    </g>
    <g id="Group_5183" data-name="Group 5183" transform="translate(363.202 68.625)">
      <g id="Group_5180" data-name="Group 5180" transform="translate(3.668 118.724)">
        <g id="Group_5179" data-name="Group 5179" transform="translate(4.981 143.009)">
          <path id="Path_11191" data-name="Path 11191" d="M526.982,420.525a68.777,68.777,0,0,0,.755,15.541,1.838,1.838,0,0,1-.007.932,1.8,1.8,0,0,1-1.037.867,46.571,46.571,0,0,1-20.56,4.227,12.538,12.538,0,0,1,2.363-1.73,21.05,21.05,0,0,0,9.181-19.824" transform="translate(-465.775 -418.496)" fill="#ffc8a4"/>
          <path id="Path_11192" data-name="Path 11192" d="M518.426,440.729a9.809,9.809,0,0,1-5.018,1.49c-1.764-.107-3.579-1.395-3.669-3.16-2.763.091-4.89,2.364-7.372,3.582-3.788,1.858-8.314,1.2-12.388,2.293a4.412,4.412,0,0,0-2.545,1.477,1.892,1.892,0,0,0,.331,2.65,2.766,2.766,0,0,0,.924.286,63.713,63.713,0,0,0,26.7-.855,5.717,5.717,0,0,1,2.687-.246c.617.149,1.166.51,1.783.662a5.522,5.522,0,0,0,2.32-.1l4.347-.8a1.94,1.94,0,0,0,1.148-.489,1.841,1.841,0,0,0,.356-.926c.356-1.984-.678-3.61-.889-5.614a8.345,8.345,0,0,0-1.384-3.34c-1.132-1.27-1.545-.388-3.081.346a28.612,28.612,0,0,0-4.254,2.739" transform="translate(-463.214 -420.708)" fill="#003c7f"/>
          <path id="Path_11193" data-name="Path 11193" d="M490.932,418.182a68.768,68.768,0,0,0,5.436,14.578,1.837,1.837,0,0,1,.276.891,1.8,1.8,0,0,1-.725,1.141,46.589,46.589,0,0,1-18.307,10.268,12.487,12.487,0,0,1,1.726-2.365,21.049,21.049,0,0,0,2.731-21.676" transform="translate(-461.948 -418.182)" fill="#ffc8a4"/>
          <path id="Path_11194" data-name="Path 11194" d="M489.124,439.357a9.649,9.649,0,0,1-4.678,2.152c-1.732.143-3.68-.858-4.015-2.564-2.677.474-4.43,2.985-6.677,4.518-3.429,2.339-7.927,2.329-11.74,3.966a4.338,4.338,0,0,0-2.271,1.794,1.861,1.861,0,0,0,.692,2.534,2.733,2.733,0,0,0,.94.149,62.68,62.68,0,0,0,25.881-4.566,5.609,5.609,0,0,1,2.582-.616c.622.059,1.207.333,1.828.4a5.433,5.433,0,0,0,2.247-.417l4.12-1.388a1.911,1.911,0,0,0,1.049-.636,1.821,1.821,0,0,0,.217-.952c.069-1.981-1.165-3.419-1.651-5.342a8.213,8.213,0,0,0-1.816-3.058c-1.281-1.078-1.559-.162-2.951.768a28.17,28.17,0,0,0-3.758,3.261" transform="translate(-459.52 -420.417)" fill="#003c7f"/>
        </g>
        <path id="Path_11195" data-name="Path 11195" d="M519.552,263.657c4.037,19.113,1.076,38.92,1.422,58.45.153,8.685.964,17.342,1.428,26.016a325.123,325.123,0,0,1-1.518,53.148,55.18,55.18,0,0,1-12.829.439l-3.714-37.981a204.44,204.44,0,0,0-2.926-21.807c-1.072-5.152-2.539-10.212-3.685-15.347a242.407,242.407,0,0,1-3.853-25.616l-19.059,41.134a20.044,20.044,0,0,0-2.1,6.286,19.7,19.7,0,0,0,1.277,7.7q7.319,23.644,16.79,46.551L480.526,407.1a2.691,2.691,0,0,1-1.773.326c-.756-.218-1.152-1.024-1.461-1.747q-9.892-23.248-19.785-46.494c-2.127-5-4.3-10.3-3.61-15.687a83.729,83.729,0,0,1,2.067-12.195c1.2-4.623,3.569-10.733,4.724-15.368,4.685-18.786,10.937-35.195,15.621-53.981a6.542,6.542,0,0,1,1.526-3.3,6.374,6.374,0,0,1,2.919-1.3,144.735,144.735,0,0,1,31.98-4.339c1.68-.038,3.516,0,4.809,1.079" transform="translate(-453.767 -253.007)" fill="#1d1c1c"/>
      </g>
      <path id="Path_11196" data-name="Path 11196" d="M496.216,148.547a30.733,30.733,0,0,0-.132,7.223,9.376,9.376,0,0,0,.874,3.467c1.249,2.378,3.98,3.5,6.5,4.443-1.837,1.468-3.166,3.484-4.944,5.024-5.066,4.39-13.157,3.99-18.687.2a7.35,7.35,0,0,0,1.842-10.486" transform="translate(-453.596 -120.265)" fill="#fdbe96"/>
      <g id="Group_5181" data-name="Group 5181" transform="translate(8.842)">
        <path id="Path_11197" data-name="Path 11197" d="M472.805,134.579a34.048,34.048,0,0,0,6.109,21.532c1,1.418,2.256,2.848,3.962,3.169a5.886,5.886,0,0,0,3.609-.715c5.248-2.579,8.177-8.374,9.423-14.087,1.437-6.591.74-14.341-4.337-18.784" transform="translate(-461.488 -117.198)" fill="#ffc8a4"/>
        <path id="Path_11198" data-name="Path 11198" d="M499.316,146.173a7.008,7.008,0,0,0,3.611-6.7,1.619,1.619,0,0,0-.368-1.01,1.244,1.244,0,0,0-1.449-.1,3.646,3.646,0,0,0-1.091,1.1" transform="translate(-465.054 -118.874)" fill="#ffc8a4"/>
        <path id="Path_11199" data-name="Path 11199" d="M496.364,135.7c.807-4.374.854-8.93-1.193-12.879a13.274,13.274,0,0,0-9.091-6.636,17.062,17.062,0,0,0-11.263,1.8c-2.094,1.106-4.02,2.6-6.3,3.254-2.343.671-5.087.481-6.907,2.1a6.578,6.578,0,0,0-1.856,4.674,13.478,13.478,0,0,0,10.272,13.366c.464.1,1.054.126,1.3-.279a1.155,1.155,0,0,0,.081-.764c-.239-1.725-.824-3.832.52-4.939,4.347,1.956,9.575.752,13.609-1.79,1.663-1.048,3.794-2.335,5.4-1.2,1.258.888,1.279,2.694,1.454,4.224s1.1,3.373,2.631,3.2l1.339-4.141" transform="translate(-459.743 -115.881)" fill="#003c7f"/>
      </g>
      <g id="Group_5182" data-name="Group 5182" transform="translate(0 42.637)">
        <path id="Path_11200" data-name="Path 11200" d="M500.936,165.127a14.622,14.622,0,0,1-15.02,7.346c-2.042-.3-4.027-.919-5.09-2.687a7.006,7.006,0,0,1-2.616,1.648,6.59,6.59,0,0,0-1.683.861c-1.161,1-1.008,2.807-.769,4.32,2.3,14.576,3.322,29.32,4.339,44.042l.836,12.106c.371,5.365.739,10.789-.129,16.1a2.718,2.718,0,0,0,.042,1.566,2.557,2.557,0,0,0,1.864,1.137A37.857,37.857,0,0,0,505,250.158c1.293-.494,2.679-1.178,3.184-2.467a5.574,5.574,0,0,0,.029-2.92c-2.236-13.649-1.094-27.625-2.4-41.395-.274-2.884-.655-5.758-.867-8.647a74.439,74.439,0,0,1,1.658-21.951,7.892,7.892,0,0,0,.274-3.677c-.679-2.646-3.457-3.3-5.944-3.975" transform="translate(-453.028 -165.127)" fill="#f28f48"/>
        <path id="Path_11201" data-name="Path 11201" d="M479.345,170.641c3.649,10.668,2.925,21.223,3.591,32.478.258,4.352.75,8.689.9,13.046.139,4-.011,8.007-.161,12.008l-1.355,36.238a2.7,2.7,0,0,1-.342,1.473,2.564,2.564,0,0,1-1.377.828,25.917,25.917,0,0,1-10.565,1.161q.765-16.019,2.582-31.966a64.905,64.905,0,0,0,.569-7.2,60.832,60.832,0,0,0-.78-8.494,265.83,265.83,0,0,0-4.993-28.313c-1.132-4.5-2.464-9.43-.426-13.595,1.668-3.408,4.871-4.04,8.2-5.854,1.23-.67,2.923-1.143,4.154-1.812" transform="translate(-451.731 -165.867)" fill="#68aade"/>
        <path id="Path_11202" data-name="Path 11202" d="M467.53,177.254c1.95,1.7,1.465,5.136,1.589,7.955.262,5.976.467,11.945.176,17.92l-.887,18.275c-.065,1.329-.219,2.837-1.28,3.64-1.108.839-2.672.513-4.013.149a3.045,3.045,0,0,1-1.767-.945,2.958,2.958,0,0,1-.421-1.241c-1.865-10.59-1.037-21.461.231-32.139a36.475,36.475,0,0,1,1.035-5.851c.75-2.589,2.917-7.108,5.337-7.764" transform="translate(-450.913 -166.754)" fill="#5aa5dc"/>
        <path id="Path_11203" data-name="Path 11203" d="M506.616,165.722,506.1,179.4c-.113,3-.226,6-.63,8.971-.5,3.663-1.435,7.261-1.824,10.939a65.632,65.632,0,0,0,0,10.961c1.11,17.868,3.849,35.663,3.582,53.564a1.943,1.943,0,0,0,.307,1.334,1.83,1.83,0,0,0,1.34.455c4.493.2,9.087-1.42,13.419-.213,1.965.547,3.815,1.668,5.855,1.674a1.774,1.774,0,0,0,1.568-.643,2.136,2.136,0,0,0,.068-1.54c-1.9-9.4-1-19.123-1.648-28.694-.859-12.763-4.466-25.287-4.491-38.078-.008-4.088.352-8.167.71-12.239l1.1-12.442a125.41,125.41,0,0,0-18.84-7.727" transform="translate(-456.761 -165.207)" fill="#68aade"/>
        <path id="Path_11204" data-name="Path 11204" d="M483.916,252.142l-5.275-44.755H449.53l3.668,44.755Z" transform="translate(-449.53 -170.798)" fill="#ccd6e3"/>
        <path id="Path_11205" data-name="Path 11205" d="M523.992,232.357a112.559,112.559,0,0,1-32.058,4.005c-1.81-.036-3.81-.2-5.078-1.488-1.09-1.111-1.533-2.959-3-3.468-.367,1.086.438,2.454-.274,3.351-.59.743-1.748.556-2.655.276a56.726,56.726,0,0,1-7.839-3.074c-.461-.221-1.2-.327-1.311.171a.814.814,0,0,0,.022.341c.688,3.176,3.284,5.669,6.22,7.062a32.072,32.072,0,0,0,9.431,2.307c7.66,1.068,15.352,2.137,23.085,2.1s15.567-1.216,22.585-4.468" transform="translate(-452.514 -174.021)" fill="#ffc8a4"/>
        <path id="Path_11206" data-name="Path 11206" d="M528.2,174.647c-4.407,6.429-5.155,14.961-3.547,22.587s4.746,14.863,6.364,22.487c.371,1.752.588,3.8-.618,5.126,3.371,3.237,2.744,5,4.754,9.217.187.393-.035.487.5,1.209.325.435,2.748-1.11,3.19-1.426,3.336-2.388,5.2-2.919,5.434-7.016.346-5.99-1.221-11.91-2.871-17.679q-4.161-14.542-9.144-28.83c-.829-2.378-1.814-4.548-4.065-5.674" transform="translate(-459.508 -166.405)" fill="#5aa5dc"/>
      </g>
    </g>
    <g id="Group_5184" data-name="Group 5184" transform="translate(84.2 78.48)">
      <path id="Path_11207" data-name="Path 11207" d="M128.251,188.826l-.968-.723,27.7-37.044,24.462,24.409,31.02-46.673,25.954,32.7,33.393-34.229h52.063v1.208H270.319l-34,34.846L210.55,130.848l-30.916,46.516L155.112,152.9Z" transform="translate(-127.284 -127.263)" fill="#68aade"/>
    </g>
    <g id="Group_5192" data-name="Group 5192" transform="translate(0 101.874)">
      <g id="Group_5191" data-name="Group 5191">
        <g id="Group_5190" data-name="Group 5190">
          <g id="Group_5185" data-name="Group 5185" transform="translate(33.148 95.303)">
            <path id="Path_11208" data-name="Path 11208" d="M90.589,280.069l-19.55-15.712S66.453,275.412,70.091,287c1.79,5.7-.113,9.751.852,12.452.9,2.523,7.53,38.394,7.163,41.036s-3.289,10.083-4.286,17.857c-1.2,9.351-.234,39.7-1.144,47.774s6.554,9.259,6.9,6.526c2.938-23.357,11.3-59.843,12.313-71.508S91.867,308.179,90.589,280.069Z" transform="translate(-68.369 -264.357)" fill="#ffc8a4"/>
            <path id="Path_11209" data-name="Path 11209" d="M93.459,308.984l-7.878,19.324a42.853,42.853,0,0,1,6.294,19.907c.228,3.686-.01,7.391.181,11.08a3.7,3.7,0,0,0,.131.8c.987-5.5,1.712-10.026,1.968-12.97.716-8.242.409-21.308-.283-38.169A3.471,3.471,0,0,0,93.459,308.984Z" transform="translate(-70.635 -270.342)" fill="#dcac8f"/>
            <path id="Path_11210" data-name="Path 11210" d="M80.761,426.719s-1.583,8.487-1.077,9.552,2.307,4.152,4.1,5.241c1.884,1.142,6.026,2.454,6.367,2.96a1.277,1.277,0,0,1-.195,1.731,8.517,8.517,0,0,1-5.823,1.625c-5.592-.787-6.228-3.237-9.482-3.553-.562-.055-1.58.8-3.149.042a3.684,3.684,0,0,1-2.255-3.522c.174-2.332,1.435-4.281,2.324-6.023s1.356-9.631,1.356-9.631" transform="translate(-68.443 -285.934)" fill="#ffc8a4"/>
            <path id="Path_11211" data-name="Path 11211" d="M90.279,448.306c.39-.706.468-1.758.083-2.006a32.591,32.591,0,0,0-3.518-2.005c-1.092-.471-2.816-.869-2.2-.557s-.471,1.557-1.484,1.519c-3.5-.13-6.127-2.39-8.128-2.839-2.888-.649-4.171-4.01-4.311-4.557-.535.358-1.732,3.117-1.968,3.981a6.877,6.877,0,0,0-.354,3.012,6.974,6.974,0,0,1,.387,2.855,5.483,5.483,0,0,0,2.081.694,8.16,8.16,0,0,0,2.223-.021l.2-1.809a8.156,8.156,0,0,1,1.78.132,9.633,9.633,0,0,1,2.744,1.2c.41.466.75,1.326,1.283,1.579a11.124,11.124,0,0,0,4.608,1.033C87.454,450.649,89.613,449.51,90.279,448.306Z" transform="translate(-68.319 -287.641)" fill="#eab54e"/>
          </g>
          <g id="Group_5186" data-name="Group 5186" transform="translate(36.844 91.986)">
            <path id="Path_11212" data-name="Path 11212" d="M119.231,422.711c-.416-.451-4.863-1.128-6.955-1.978a11.979,11.979,0,0,1-4.9-4.577c-.479-1.126-.429-6.859-.394-9.266.248-16.579,2.9-57.116,3.247-66.82.6-16.868-1.765-34.249-8.526-61.25L77.357,260.527s-6.637,12.644-4.251,24.646c1.384,6.963,7.182,7.978,8.188,10.679S97.356,342.12,97.356,342.12a82.267,82.267,0,0,0-2.809,19.835c-.051,8.84,4.227,35.46,5.073,45.611.107,1.984.5,6.731-.072,8.249-.7,1.861-2.5,4.056-2.387,6.393a3.6,3.6,0,0,0,2.777,3.152c1.717.513,2.661-.485,3.249-.515,3.4-.176,4.371,2.157,10.25,2.1a9.3,9.3,0,0,0,5.811-2.486A1.242,1.242,0,0,0,119.231,422.711Z" transform="translate(-72.588 -260.527)" fill="#ffc8a4"/>
            <path id="Path_11213" data-name="Path 11213" d="M123.437,449.221c.323-.752.283-1.81-.142-2a33.726,33.726,0,0,0-3.87-1.508c-1.185-.318-3.015-.477-2.346-.251s-.311,1.61-1.363,1.712c-3.636.349-6.616-1.533-8.739-1.706-3.063-.249-4.179-3.407-4.385-3.931a14.054,14.054,0,0,0-2.18,4.219,6.637,6.637,0,0,0-.024,3.038,6.642,6.642,0,0,1,.726,2.78,5.79,5.79,0,0,0,2.234.405,8.913,8.913,0,0,0,2.3-.325l0-1.824a8.885,8.885,0,0,1,1.858-.113,6.157,6.157,0,0,1,2.992,1.068c.5.378,1.023,1.011,1.61,1.162a12.321,12.321,0,0,0,4.771.374C120.779,451.934,122.885,450.507,123.437,449.221Z" transform="translate(-76.295 -284.818)" fill="#eab54e"/>
          </g>
          <g id="Group_5189" data-name="Group 5189" transform="translate(60.428 27.794)">
            <g id="Group_5188" data-name="Group 5188">
              <g id="Group_5187" data-name="Group 5187" transform="translate(58.792)">
                <path id="Path_11214" data-name="Path 11214" d="M170.858,199.187c1.207.351,5.159-1.019,6.178-2.65a2.755,2.755,0,0,0,.462-1.753c.595-.7,1.622-3.179-.162-2.663,1.837-1.229,2.3-3.1,2.8-5.187.167-.7-.645-.912-1.494.478a7.9,7.9,0,0,1-5.328,3.557c-.149-.384.365-.508.748-1.322.425-.9.147-1.532-.257-1.681-.3-.113-1,.917-1.235,1.118l-2.694,2.289a5.622,5.622,0,0,0-1.955,2.661c-.075.2-.545,2.274.342,1.985" transform="translate(-167.732 -186.385)" fill="#ffc8a4"/>
              </g>
              <path id="Path_11215" data-name="Path 11215" d="M103.131,219.575c9.068-.1,25.307-1.657,27.539-2.1,8.794-1.726,31.262-17.129,31.262-17.129a4.278,4.278,0,0,0-3-4.59c-5.7,4.623-26.1,10.483-28.82,12.136-1.761,1.071-30.288-.1-30.288-.1" transform="translate(-99.827 -187.643)" fill="#ffc8a4"/>
            </g>
          </g>
          <path id="Path_11216" data-name="Path 11216" d="M67.968,210.4s-3.854,10.385-5.113,18.6l9.323,1.467v-13.2" transform="translate(-34.438 -161.813)" fill="#f28f48"/>
          <rect id="Rectangle_1394" data-name="Rectangle 1394" width="78.554" height="43.671" rx="0.802" transform="translate(0 69.224) rotate(-9.643)" fill="#2b8d7b"/>
          <path id="Path_11217" data-name="Path 11217" d="M111.241,260.282,40.871,272.53a1.291,1.291,0,0,1-1.491-1.057l-5.945-34.985A1.293,1.293,0,0,1,34.493,235l70.37-12.249a1.293,1.293,0,0,1,1.491,1.058L112.3,258.79A1.293,1.293,0,0,1,111.241,260.282Z" transform="translate(-30.487 -163.468)" fill="#26715f"/>
          <path id="Path_11218" data-name="Path 11218" d="M45.106,271.468l-1.176.2a1.114,1.114,0,0,1-1.285-.912l-5.12-30.133a1.114,1.114,0,0,1,.912-1.284l1.176-.2a1.114,1.114,0,0,1,1.284.912l5.12,30.133A1.113,1.113,0,0,1,45.106,271.468Z" transform="translate(-31.036 -165.668)" fill="#fff" opacity="0.3"/>
          <path id="Path_11219" data-name="Path 11219" d="M52.4,270.07l-1.177.2a1.113,1.113,0,0,1-1.284-.912l-5.12-30.133a1.113,1.113,0,0,1,.911-1.284l1.177-.2a1.113,1.113,0,0,1,1.284.912l5.12,30.133A1.113,1.113,0,0,1,52.4,270.07Z" transform="translate(-32.016 -165.48)" fill="#fff" opacity="0.3"/>
          <path id="Path_11220" data-name="Path 11220" d="M59.7,268.672l-1.176.2a1.114,1.114,0,0,1-1.285-.912l-5.119-30.133a1.113,1.113,0,0,1,.911-1.284l1.176-.2a1.113,1.113,0,0,1,1.284.912l5.12,30.133A1.113,1.113,0,0,1,59.7,268.672Z" transform="translate(-32.995 -165.293)" fill="#fff" opacity="0.3"/>
          <path id="Path_11221" data-name="Path 11221" d="M67,267.275l-1.177.2a1.113,1.113,0,0,1-1.284-.911l-5.12-30.134a1.113,1.113,0,0,1,.912-1.284l1.176-.2a1.114,1.114,0,0,1,1.284.912l5.12,30.133A1.114,1.114,0,0,1,67,267.275Z" transform="translate(-33.975 -165.105)" fill="#fff" opacity="0.3"/>
          <path id="Path_11222" data-name="Path 11222" d="M74.3,265.877l-1.176.2a1.113,1.113,0,0,1-1.284-.912l-5.12-30.133a1.113,1.113,0,0,1,.911-1.284l1.176-.2a1.114,1.114,0,0,1,1.285.912l5.12,30.133A1.115,1.115,0,0,1,74.3,265.877Z" transform="translate(-34.954 -164.918)" fill="#fff" opacity="0.3"/>
          <path id="Path_11223" data-name="Path 11223" d="M81.6,264.478l-1.176.2a1.114,1.114,0,0,1-1.285-.912l-5.12-30.133a1.114,1.114,0,0,1,.912-1.284l1.176-.2a1.113,1.113,0,0,1,1.284.911l5.12,30.133A1.113,1.113,0,0,1,81.6,264.478Z" transform="translate(-35.933 -164.73)" fill="#2d338a"/>
          <path id="Path_11224" data-name="Path 11224" d="M88.9,263.081l-1.176.2a1.113,1.113,0,0,1-1.284-.911l-5.12-30.134a1.113,1.113,0,0,1,.911-1.284l1.177-.2a1.113,1.113,0,0,1,1.284.911l5.12,30.133A1.114,1.114,0,0,1,88.9,263.081Z" transform="translate(-36.913 -164.543)" fill="#2d338a"/>
          <path id="Path_11225" data-name="Path 11225" d="M96.2,261.683l-1.176.2a1.113,1.113,0,0,1-1.284-.911l-5.12-30.134a1.113,1.113,0,0,1,.911-1.284l1.176-.2a1.114,1.114,0,0,1,1.285.912L97.106,260.4A1.114,1.114,0,0,1,96.2,261.683Z" transform="translate(-37.892 -164.355)" fill="#2d338a"/>
          <path id="Path_11226" data-name="Path 11226" d="M103.495,260.285l-1.177.2a1.113,1.113,0,0,1-1.284-.911l-5.12-30.134a1.114,1.114,0,0,1,.912-1.284l1.176-.2a1.113,1.113,0,0,1,1.284.911L104.405,259A1.114,1.114,0,0,1,103.495,260.285Z" transform="translate(-38.872 -164.167)" fill="#2d338a"/>
          <path id="Path_11227" data-name="Path 11227" d="M110.793,258.887l-1.176.2a1.113,1.113,0,0,1-1.284-.911l-5.12-30.134a1.113,1.113,0,0,1,.911-1.284l1.176-.2a1.114,1.114,0,0,1,1.285.911L111.7,257.6A1.114,1.114,0,0,1,110.793,258.887Z" transform="translate(-39.851 -163.98)" fill="#fff" opacity="0.3"/>
          <path id="Path_11228" data-name="Path 11228" d="M118.092,257.489l-1.176.2a1.114,1.114,0,0,1-1.285-.911l-5.12-30.134a1.114,1.114,0,0,1,.912-1.284l1.176-.2a1.113,1.113,0,0,1,1.284.911L119,256.2A1.113,1.113,0,0,1,118.092,257.489Z" transform="translate(-40.831 -163.792)" fill="#fff" opacity="0.3"/>
          <path id="Path_11229" data-name="Path 11229" d="M74.952,260.278c-6.719,5.8-9.3,15.42-7.945,25.687.358,2.718,3.1,10.185,3.526,12.9.963,6.18,2.942,15.275,2.826,22.323,9.018,6.539,27.332,5.968,35.62,1.086.921-8.516.75-15.287.1-27.094-.984-17.809-8.929-34.414-9.089-35.9" transform="translate(-34.948 -168.374)" fill="#1d1c1c"/>
          <path id="Path_11230" data-name="Path 11230" d="M99.874,234.256c-.343,3.179,0,8.068.442,13.5a26.887,26.887,0,0,1,.442,3.561,2.03,2.03,0,0,1-.7,1.388c-.966.946-2.837,1.53-4.889,1.892-6.681,1.207-17.243.4-20.222.986-2.8.563-5.674-.383-5.674-2.093,0-1.187,1.087-1.851,1.187-4.185.221-5.111.061-16.74-.886-21.932-1.971-10.885-2.514-17.344-1.146-29.517l20.4-5.794c1.57.261.886,5.05,2.455,5.312,1.147.181,7.606,6.318,9.436,13.561a28.18,28.18,0,0,1,2.355,4.708,8.306,8.306,0,0,1-.021,6.439A45.484,45.484,0,0,0,99.874,234.256Z" transform="translate(-35.083 -159.353)" fill="#f28f48"/>
          <path id="Path_11231" data-name="Path 11231" d="M104.611,237.911c-.343,3.179,0,8.068.442,13.5a26.887,26.887,0,0,1,.442,3.561,2.03,2.03,0,0,1-.7,1.388v-.02c.6-1.348-.846-8.049-1.469-11.81a42.589,42.589,0,0,1,.886-15.674c1.328-4.608,1.831-6.8,1.831-6.8s1.046-1.57,1.771-2.757a8.306,8.306,0,0,1-.021,6.439A45.484,45.484,0,0,0,104.611,237.911Z" transform="translate(-39.82 -163.008)" fill="#f07e3a"/>
          <path id="Path_11232" data-name="Path 11232" d="M100.407,203.649a8.932,8.932,0,0,1,6.013,1.031c3.934,2.324,12.146,3.691,12.146,3.691s.631,9.382-.382,12.982c0,0-2.726-.429-10.815.449-8.362.906-19.524,6.446-19.524,6.446" transform="translate(-37.791 -160.889)" fill="#f28f48"/>
          <path id="Path_11233" data-name="Path 11233" d="M98.276,165.709c-2-3.829-5.171-9.245-12.752-8.5s-14.075,5.532-13.982,11.213,3.939,12.524,5.421,16.455.854,9.774.854,9.774l16.807-.6s-.437-5.136.589-7.077c.574-1.086,2.826-3.121,5.436-5.23,1.14-.921,2.061-2.844,1.379-5.844-1.021-4.485-1.388-6.456-2.042-7.771C99.515,167.184,98.712,166.543,98.276,165.709Z" transform="translate(-35.603 -154.667)" fill="#ffc8a4"/>
          <path id="Path_11234" data-name="Path 11234" d="M96.881,195.924c-1.019-1.207-2.581-1.81-3.482-3.108a7.015,7.015,0,0,1-1.2-4.55,8.455,8.455,0,0,1,1.005-2.574c1.828-3.685,1.944-6.067-.666-9.045a10.372,10.372,0,0,1-2.133-3.22c-.395-1.1-.7-2.308.371-2.978a1.432,1.432,0,0,1,1.937.019c.414.373,1.613,3.892,1.824,1.478.2-2.313,1.078-2.9-.949-7.044-.241-.492-1.364-2.425-1.2-2.867,2.606.5,3.5,1.183,4.563,2.847,1.166-1.306-2.237-10.855-12.722-10.593a17.976,17.976,0,0,0-7.743,1.436c-2.356,1.195-4.98,3.307-4.823,5.423-3.713.715-4.235,4.5-4.524,5.913a18.652,18.652,0,0,0-.221,6.138c.394,3.013,1.514,5.889,2.109,8.872a12.994,12.994,0,0,1-.341,7.426c-.921,2.222-3.123,3.429-4.241,5.6A9.754,9.754,0,0,0,64.574,204c1.448,2.743,3.26,4.545,2.786,7.915a10.771,10.771,0,0,0,3.548,10.279,11.089,11.089,0,0,0,8.013,2.171,18.517,18.517,0,0,0,6.569-2.074c3.917-2.126,7.409-3.5,9.941-9.151,1.434-3.2-.665-3.646.612-6.926.717-1.838,2.248-3.362,2.444-5.4A6.852,6.852,0,0,0,97,196.068C96.959,196.019,96.921,195.971,96.881,195.924Z" transform="translate(-34.515 -154.283)" fill="#003c7f"/>
        </g>
      </g>
    </g>
    <g id="Group_5194" data-name="Group 5194" transform="translate(240.741 116.913)">
      <path id="Path_11235" data-name="Path 11235" d="M365.083,171.653H311.19a3.258,3.258,0,0,0-3.1,3.395v28.92a3.258,3.258,0,0,0,3.1,3.395h5.335c-.268,3.6-.478,9.581-.478,9.581l10.633-9.581h38.4a3.258,3.258,0,0,0,3.1-3.395v-28.92A3.258,3.258,0,0,0,365.083,171.653Z" transform="translate(-308.088 -171.653)" fill="#2b8d7b"/>
      <g id="Group_5193" data-name="Group 5193" transform="translate(3.484 3.484)">
        <rect id="Rectangle_1395" data-name="Rectangle 1395" width="6.097" height="6.097" transform="translate(0 22.21)" fill="#34a78c"/>
        <rect id="Rectangle_1396" data-name="Rectangle 1396" width="6.097" height="10.452" transform="translate(9.407 17.855)" fill="#34a78c"/>
        <rect id="Rectangle_1397" data-name="Rectangle 1397" width="6.097" height="15.678" transform="translate(18.813 12.629)" fill="#34a78c"/>
        <rect id="Rectangle_1398" data-name="Rectangle 1398" width="6.097" height="20.032" transform="translate(28.22 8.274)" fill="#34a78c"/>
        <rect id="Rectangle_1399" data-name="Rectangle 1399" width="6.097" height="23.952" transform="translate(37.626 4.355)" fill="#34a78c"/>
        <rect id="Rectangle_1400" data-name="Rectangle 1400" width="6.097" height="28.307" transform="translate(47.033)" fill="#34a78c"/>
      </g>
    </g>
    <path id="Path_11236" data-name="Path 11236" d="M272.216,100.257l2.006-1.494a12.437,12.437,0,0,0-3.829-3.829L268.9,96.941a9.822,9.822,0,0,0-2.793-1.158l.363-2.478a12.148,12.148,0,0,0-5.416,0l.363,2.478a9.816,9.816,0,0,0-2.792,1.158l-1.494-2.006a12.427,12.427,0,0,0-3.829,3.829l2.005,1.494a9.851,9.851,0,0,0-1.158,2.792l-2.477-.362a12.115,12.115,0,0,0,0,5.416l2.477-.363a9.851,9.851,0,0,0,1.158,2.792l-2.005,1.494a12.428,12.428,0,0,0,3.829,3.829l1.494-2.006a9.818,9.818,0,0,0,2.792,1.158l-.363,2.477a12.148,12.148,0,0,0,5.416,0l-.363-2.477a9.823,9.823,0,0,0,2.793-1.158l1.493,2.006a12.437,12.437,0,0,0,3.829-3.829l-2.006-1.494a9.852,9.852,0,0,0,1.158-2.792l2.478.363a12.148,12.148,0,0,0,0-5.416l-2.478.362A9.852,9.852,0,0,0,272.216,100.257Zm-8.454,11.717a6.579,6.579,0,1,1,6.578-6.579A6.579,6.579,0,0,1,263.763,111.974Z" transform="translate(-59.735 -44.185)" fill="#1c3742"/>
    <path id="Path_11237" data-name="Path 11237" d="M228.519,168.077l1.541-1.148a9.565,9.565,0,0,0-2.941-2.942l-1.148,1.541a7.561,7.561,0,0,0-2.145-.889l.279-1.9a9.341,9.341,0,0,0-4.161,0l.279,1.9a7.551,7.551,0,0,0-2.145.889l-1.148-1.541a9.559,9.559,0,0,0-2.942,2.942l1.541,1.148a7.551,7.551,0,0,0-.889,2.145l-1.9-.279a9.341,9.341,0,0,0,0,4.161l1.9-.279a7.551,7.551,0,0,0,.889,2.145l-1.541,1.148a9.568,9.568,0,0,0,2.942,2.942l1.148-1.541a7.552,7.552,0,0,0,2.145.889l-.279,1.9a9.341,9.341,0,0,0,4.161,0l-.279-1.9a7.562,7.562,0,0,0,2.145-.889l1.148,1.541a9.565,9.565,0,0,0,2.941-2.942l-1.541-1.148a7.528,7.528,0,0,0,.89-2.145l1.9.279a9.342,9.342,0,0,0,0-4.161l-1.9.279A7.528,7.528,0,0,0,228.519,168.077Zm-6.5,9a5.055,5.055,0,1,1,5.055-5.055A5.055,5.055,0,0,1,222.024,177.078Z" transform="translate(-54.519 -53.512)" fill="#1c3742"/>
  </g>
</svg>
