<svg xmlns="http://www.w3.org/2000/svg" xmlns:xlink="http://www.w3.org/1999/xlink" width="536" height="279.134" viewBox="0 0 536 279.134">
  <defs>
    <linearGradient id="linear-gradient" y1="0.5" x2="1" y2="0.5" gradientUnits="objectBoundingBox">
      <stop offset="0.201" stop-color="#ffc76e"/>
      <stop offset="0.917" stop-color="#ffc559"/>
    </linearGradient>
  </defs>
  <g id="Group_6334" data-name="Group 6334" transform="translate(-14.808 -40.389)">
    <g id="Group_4669" data-name="Group 4669" transform="translate(453.715 106.655)">
      <path id="Path_9639" data-name="Path 9639" d="M283.7,87.931,281.15,111.37l-2.586-17q-.547.81-1.073,1.655c-10.288,16.584-9.07,42.02-9.07,42.02l-5.749-26.072a75.36,75.36,0,0,0-14.1,27.516L260.3,168.875l-14.066-18.493c-3.8,21.974.721,34.214.721,34.214l-9.547-6.5s-3.838,12.51-4.11,24.478,6.519,23.306,6.519,23.306l-6.6-2.531S228.862,243.893,247,259.687L304.957,73.3A60.15,60.15,0,0,0,283.7,87.931Z" transform="translate(-232.759 -73.295)" fill="#244854"/>
      <path id="Path_9640" data-name="Path 9640" d="M297.789,73.3,239.83,259.689s17.329-.427,27.466-6.386,10.317-13.494,10.317-13.494l-10.858,1.208s16.153-9.964,26-20.738,11.932-26.115,11.932-26.115l-18.434,3.689s18.388-15.609,26.113-28.711,7.991-31.695,7.991-31.695l-16.014,5.085s10.814-13.128,15.021-26.139,3.222-19.483,3.222-19.483L310.85,104s2.61-11.877,1.728-20.583S297.789,73.3,297.789,73.3Z" transform="translate(-225.591 -73.295)" fill="#1b3642"/>
      <g id="Group_4667" data-name="Group 4667" transform="translate(4.785 17.561)">
        <line id="Line_79" data-name="Line 79" x1="1.618" y2="20.92" transform="translate(50.78)" fill="none" stroke="#1f6051" stroke-miterlimit="10" stroke-width="1"/>
        <line id="Line_80" data-name="Line 80" x2="2.031" y2="13.351" transform="translate(43.304 27.594)" fill="none" stroke="#1f6051" stroke-miterlimit="10" stroke-width="1"/>
        <line id="Line_81" data-name="Line 81" x2="3.896" y2="25.619" transform="translate(37.531 28.472)" fill="none" stroke="#1f6051" stroke-miterlimit="10" stroke-width="1"/>
        <line id="Line_82" data-name="Line 82" x2="3.858" y2="15.656" transform="translate(31.748 51.132)" fill="none" stroke="#1f6051" stroke-miterlimit="10" stroke-width="1"/>
        <line id="Line_83" data-name="Line 83" x2="9.759" y2="37.463" transform="translate(21.437 44.025)" fill="none" stroke="#1f6051" stroke-miterlimit="10" stroke-width="1"/>
        <line id="Line_84" data-name="Line 84" x2="5.09" y2="15.422" transform="translate(22.756 78.021)" fill="none" stroke="#1f6051" stroke-miterlimit="10" stroke-width="1"/>
        <line id="Line_85" data-name="Line 85" x2="13.079" y2="35.666" transform="translate(11.398 72.686)" fill="none" stroke="#1f6051" stroke-miterlimit="10" stroke-width="1"/>
        <line id="Line_86" data-name="Line 86" x2="8.564" y2="22.324" transform="translate(10.353 99.795)" fill="none" stroke="#1f6051" stroke-miterlimit="10" stroke-width="1"/>
        <line id="Line_87" data-name="Line 87" x2="11.716" y2="28.49" transform="translate(2.132 103.998)" fill="none" stroke="#1f6051" stroke-miterlimit="10" stroke-width="1"/>
        <line id="Line_88" data-name="Line 88" x2="7.744" y2="17.773" transform="translate(3.9 124.494)" fill="none" stroke="#1f6051" stroke-miterlimit="10" stroke-width="1"/>
        <line id="Line_89" data-name="Line 89" x2="7.829" y2="14.402" transform="translate(3.062 139.493)" fill="none" stroke="#1f6051" stroke-miterlimit="10" stroke-width="1"/>
        <line id="Line_90" data-name="Line 90" x2="7.98" y2="11.38" transform="translate(0 147.756)" fill="none" stroke="#1f6051" stroke-miterlimit="10" stroke-width="1"/>
      </g>
      <g id="Group_4668" data-name="Group 4668" transform="translate(25.205 14.175)">
        <line id="Line_91" data-name="Line 91" x1="10.735" y2="18.028" transform="translate(44.682)" fill="none" stroke="#1f6051" stroke-miterlimit="10" stroke-width="1"/>
        <line id="Line_92" data-name="Line 92" x1="9.354" y2="9.74" transform="translate(37.591 27.791)" fill="none" stroke="#1f6051" stroke-miterlimit="10" stroke-width="1"/>
        <line id="Line_93" data-name="Line 93" x1="17.949" y2="18.69" transform="translate(33.208 31.836)" fill="none" stroke="#1f6051" stroke-miterlimit="10" stroke-width="1"/>
        <line id="Line_94" data-name="Line 94" x1="12.176" y2="10.572" transform="translate(30.646 53.687)" fill="none" stroke="#1f6051" stroke-miterlimit="10" stroke-width="1"/>
        <line id="Line_95" data-name="Line 95" x1="29.566" y2="24.991" transform="translate(25.778 53.821)" fill="none" stroke="#1f6051" stroke-miterlimit="10" stroke-width="1"/>
        <line id="Line_96" data-name="Line 96" x1="13.047" y2="9.669" transform="translate(21.628 80.844)" fill="none" stroke="#1f6051" stroke-miterlimit="10" stroke-width="1"/>
        <line id="Line_97" data-name="Line 97" x1="31.244" y2="21.61" transform="translate(15.787 83.029)" fill="none" stroke="#1f6051" stroke-miterlimit="10" stroke-width="1"/>
        <line id="Line_98" data-name="Line 98" x1="19.865" y2="13.308" transform="translate(12.397 105.785)" fill="none" stroke="#1f6051" stroke-miterlimit="10" stroke-width="1"/>
        <line id="Line_99" data-name="Line 99" x1="25.994" y2="16.53" transform="translate(10.563 113.958)" fill="none" stroke="#1f6051" stroke-miterlimit="10" stroke-width="1"/>
        <line id="Line_100" data-name="Line 100" x1="16.572" y2="10.061" transform="translate(6.729 129.689)" fill="none" stroke="#1f6051" stroke-miterlimit="10" stroke-width="1"/>
        <line id="Line_101" data-name="Line 101" x1="14.699" y2="7.257" transform="translate(0.641 142.43)" fill="none" stroke="#1f6051" stroke-miterlimit="10" stroke-width="1"/>
        <line id="Line_102" data-name="Line 102" x1="13.08" y2="4.701" transform="translate(0 150.946)" fill="none" stroke="#1f6051" stroke-miterlimit="10" stroke-width="1"/>
      </g>
    </g>
    <g id="Group_4672" data-name="Group 4672" transform="translate(474.653 124.234)">
      <path id="Path_9641" data-name="Path 9641" d="M259.231,105.344a93.034,93.034,0,0,1-4.034,39.887,90.752,90.752,0,0,1-4.239,10.623.851.851,0,0,0,.165,1.085.833.833,0,0,0,1.1-.012c.29-.3.58-.6.868-.9.745-.769-.373-2.01-1.12-1.236l-.87.9,1.261,1.073a94.45,94.45,0,0,0,8.5-51.789.84.84,0,0,0-1-.628.856.856,0,0,0-.628,1Z" transform="translate(-235.376 -59.415)" fill="#2a8d7b"/>
      <path id="Path_9642" data-name="Path 9642" d="M283.487,100.891c-.165,5.6-6.75,12.54-8.544,12.391s7.159-11.324,6.384-14.395-5.21-6.935-5.21-6.935c.6,1.7-2.157,9.791-4.4,10.081s2.056-4.7,2.316-9.557-11.368-10.452-11.368-10.452a11.139,11.139,0,0,1-5.121,6.5c-4.03,2.169-11.781,5.84-10.51,11.754.977,4.549,13.424,6.891,12.328,7.221s-12.113-.526-14.07-5.852c0,0-4.942,11.8,1.017,15.718s13.388,4.483,12.395,5.627-12.079-1.285-15.4-7.324c0,0-2.1,19.147,9.553,22.967s16.171-7.342,16.171-7.342c9.8,7.1,17.353,2.447,20.255-5.614C291.856,118.526,283.487,100.891,283.487,100.891ZM252.32,112.36a9.656,9.656,0,0,1-2.65.064c-.741-.2-.757-.9-.163-1.265.832-.511,1.667-.908,2.264-.294s.975,1.4.552,1.492Zm8.444,14.981c-2.014.379-6.633.856-7.719.163a1.461,1.461,0,0,1-.471-1.762c.646-.92,1.682-1.172,3.689-.677s5.473-.628,5.906-.046.61,1.941-1.4,2.32Zm1.126-14.63c-.465.695-3.744.717-4.684.6-1.349-.159-3.5.532-2.974-1.2.32-1.045,2.527-1.041,4.332-.56s3.794.461,3.329,1.156Zm5-15.486a3.035,3.035,0,0,1,.977-2.153c1.464-1.579,2.749-2.38,2.4-.785s-.747,3.707-1.3,4.056l-.016.01a1.357,1.357,0,0,1-2.062-1.126Zm9.982,23.926c-4.122,1.724-7.113,3.48-6.265.812,0,0,.244-1.341,2.592-2.062s2.884-2.1,4.448-2.421,3.349,1.947-.775,3.671Zm6.078-3.641c-1.814.328-2.537.86-2.821.062a1.355,1.355,0,0,1,.306-1.369,4.332,4.332,0,0,1,2.257-1.142c.789-.145,2.527,2.032.258,2.447Z" transform="translate(-243.157 -82.024)" fill="#2a8d7b"/>
      <g id="Group_4671" data-name="Group 4671" transform="translate(6.592 0.004)">
        <g id="Group_4670" data-name="Group 4670">
          <path id="Path_9643" data-name="Path 9643" d="M249.164,104.07c-.816-.121-1.621-.254-2.408-.391-.375-.066-.457.52-.083.584.814.141,1.645.28,2.487.4A1.731,1.731,0,0,1,249.164,104.07Z" transform="translate(-246.43 -60.079)" fill="#2a8d7b"/>
          <path id="Path_9644" data-name="Path 9644" d="M262.686,123.971l.068-.058a.3.3,0,0,0,.068-.083q1.619-.444,3.2-1.013a1.9,1.9,0,0,1,.074-.646q-1.752.643-3.556,1.136c-.242-1.1-.459-2.193-.64-3.291-.417-2.525-.673-5.063-.844-7.608a19.021,19.021,0,0,0,10.828-10.528.3.3,0,1,0-.544-.23h0a18.442,18.442,0,0,1-10.325,10.139c-.2-3.174-.268-6.36-.356-9.543a16.386,16.386,0,0,0,2.813-3.738,1.374,1.374,0,0,1-.52-.26,15.519,15.519,0,0,1-2.316,3.184c-.077-2.646-.177-5.29-.377-7.928a63.838,63.838,0,0,0-1.79-11.352l-.256-.127s-.062.25-.211.654c1.565,6.172,1.867,12.584,2.054,18.956a16.542,16.542,0,0,1-6.194-5,.3.3,0,0,0-.469.36,17.175,17.175,0,0,0,6.652,5.286l.03.012q.042,1.477.083,2.956c.121,4.146.284,8.3.806,12.421a25.088,25.088,0,0,1-13.019-2.9c-.336-.177-.566.367-.23.544a25.639,25.639,0,0,0,13.329,2.942l.01.087c.248,1.818.6,3.615.995,5.4A11.741,11.741,0,0,1,258,125.812a1.226,1.226,0,0,1-.159.657,12.348,12.348,0,0,0,4.348-2.088c.532,2.336,1.132,4.658,1.688,6.992.073.308.143.616.213.922.205-.377.344-.667.419-.836C263.919,128.955,263.252,126.466,262.686,123.971Z" transform="translate(-245.298 -82.026)" fill="#1f6051"/>
          <path id="Path_9645" data-name="Path 9645" d="M262.045,99.828a1.2,1.2,0,0,1-.064-.3q-.489.335-.987.654a1.239,1.239,0,0,1,.292.511c.306-.2.608-.4.91-.6A.717.717,0,0,1,262.045,99.828Z" transform="translate(-231.666 -64.287)" fill="#2a8d7b"/>
          <path id="Path_9646" data-name="Path 9646" d="M256.27,87.168a15.6,15.6,0,0,1-.288,1.857,3.726,3.726,0,0,1,.7-.473c.076-.429.135-.864.177-1.3C256.888,86.874,256.3,86.79,256.27,87.168Z" transform="translate(-236.747 -77.061)" fill="#2a8d7b"/>
        </g>
      </g>
    </g>
    <g id="Group_4680" data-name="Group 4680" transform="translate(458.279 175.76)">
      <path id="Path_9677" data-name="Path 9677" d="M279.675,114.841a33.989,33.989,0,0,1,.079,5.727,61.574,61.574,0,0,1-2.431,14.163A67.492,67.492,0,0,1,268.3,153.76a50.054,50.054,0,0,1-7.681,9.171,50.67,50.67,0,0,1-9.777,6.756,65.87,65.87,0,0,1-14.042,5.788c-.171.046-.516-.512-.312-.568a64.937,64.937,0,0,0,11.7-4.589,56.911,56.911,0,0,0,9.743-6.011,44.078,44.078,0,0,0,8.293-8.716,65.923,65.923,0,0,0,13.027-34.281,36.746,36.746,0,0,0-.006-6.869c-.028-.22.417.217.437.395Z" transform="translate(-233.612 -100.749)" fill="#e9b54d"/>
      <path id="Path_9678" data-name="Path 9678" d="M257.728,123.138c8.252,2.87,17.766-7.451,17.766-7.451s-8.595-1.313-12.681,1.806S257.728,123.138,257.728,123.138Z" transform="translate(-212.011 -99.702)" fill="#e9b54d"/>
      <path id="Path_9679" data-name="Path 9679" d="M258.97,122.314c4.545-4.883.266-14.7.266-14.7s-3.564,5.6-2.642,9.414S258.97,122.314,258.97,122.314Z" transform="translate(-213.315 -107.611)" fill="#e9b54d"/>
      <path id="Path_9680" data-name="Path 9680" d="M257.027,125.676c9.187,2.4,17.75-5.846,17.75-5.846s-7.272-1.075-10.951.344S257.027,125.676,257.027,125.676Z" transform="translate(-212.722 -95.619)" fill="#e9b54d"/>
      <path id="Path_9681" data-name="Path 9681" d="M256.087,129.3c9.189,2.4,17.752-5.846,17.752-5.846s-7.272-1.073-10.953.346S256.087,129.3,256.087,129.3Z" transform="translate(-213.675 -91.947)" fill="#e9b54d"/>
      <path id="Path_9682" data-name="Path 9682" d="M255.282,129.6c7.4,5.194,17.014.137,17.014.137s-6.071-3.333-9.652-3.166S255.282,129.6,255.282,129.6Z" transform="translate(-214.491 -88.392)" fill="#e9b54d"/>
      <path id="Path_9683" data-name="Path 9683" d="M253.881,132.845c7.36,5.016,16.994.044,16.994.044s-6.045-3.208-9.622-3.025S253.881,132.845,253.881,132.845Z" transform="translate(-215.911 -85.058)" fill="#e9b54d"/>
      <path id="Path_9684" data-name="Path 9684" d="M251.794,135.064c6.212,6.382,16.644,3.429,16.644,3.429s-5.286-4.348-8.826-4.883S251.794,135.064,251.794,135.064Z" transform="translate(-218.027 -81.346)" fill="#e9b54d"/>
      <path id="Path_9685" data-name="Path 9685" d="M249.746,138.289c6.211,6.384,16.642,3.431,16.642,3.431s-5.284-4.346-8.826-4.883S249.746,138.289,249.746,138.289Z" transform="translate(-220.103 -78.075)" fill="#e9b54d"/>
      <path id="Path_9686" data-name="Path 9686" d="M246.768,140.784c4.829,7.485,15.637,6.658,15.637,6.658s-4.32-5.308-7.687-6.533S246.768,140.784,246.768,140.784Z" transform="translate(-223.122 -74.44)" fill="#e9b54d"/>
      <path id="Path_9687" data-name="Path 9687" d="M243.108,142.755c3.7,8.1,14.513,8.832,14.513,8.832s-3.512-5.874-6.668-7.572S243.108,142.755,243.108,142.755Z" transform="translate(-226.833 -72.033)" fill="#e9b54d"/>
      <path id="Path_9688" data-name="Path 9688" d="M240.113,144.369c2.453,8.563,13.037,10.9,13.037,10.9s-2.6-6.333-5.463-8.482S240.113,144.369,240.113,144.369Z" transform="translate(-229.869 -70.346)" fill="#e9b54d"/>
      <path id="Path_9689" data-name="Path 9689" d="M258.015,123.054c8.365-1.667,10.693-12.741,10.693-12.741s-5.5,2.592-7.868,5.82A16.52,16.52,0,0,0,258.015,123.054Z" transform="translate(-211.72 -104.872)" fill="#e9b54d"/>
      <path id="Path_9690" data-name="Path 9690" d="M262.756,124.87c.31-8.52-9.924-13.347-9.924-13.347s1.253,5.953,3.844,9A16.5,16.5,0,0,0,262.756,124.87Z" transform="translate(-216.975 -103.645)" fill="#e9b54d"/>
      <path id="Path_9691" data-name="Path 9691" d="M262.645,129.983c.344-9.529-11.094-14.922-11.094-14.922s1.4,6.66,4.3,10.063A18.424,18.424,0,0,0,262.645,129.983Z" transform="translate(-218.273 -100.058)" fill="#e9b54d"/>
      <path id="Path_9692" data-name="Path 9692" d="M261.647,133.492c.344-9.527-11.094-14.922-11.094-14.922s1.4,6.66,4.3,10.063A18.44,18.44,0,0,0,261.647,133.492Z" transform="translate(-219.285 -96.501)" fill="#e9b54d"/>
      <path id="Path_9693" data-name="Path 9693" d="M260.022,137.594c.6-9.515-10.693-15.212-10.693-15.212s1.222,6.69,4.026,10.172A18.462,18.462,0,0,0,260.022,137.594Z" transform="translate(-220.526 -92.636)" fill="#e9b54d"/>
      <path id="Path_9694" data-name="Path 9694" d="M257.484,141.093c.6-9.515-10.693-15.21-10.693-15.21s1.224,6.69,4.026,10.17A18.418,18.418,0,0,0,257.484,141.093Z" transform="translate(-223.099 -89.087)" fill="#e9b54d"/>
      <path id="Path_9695" data-name="Path 9695" d="M255.049,144c.6-9.515-10.693-15.212-10.693-15.212s1.224,6.69,4.026,10.172A18.423,18.423,0,0,0,255.049,144Z" transform="translate(-225.567 -86.146)" fill="#e9b54d"/>
      <path id="Path_9696" data-name="Path 9696" d="M251.959,146.306c.6-9.513-10.693-15.212-10.693-15.212s1.224,6.692,4.026,10.172A18.44,18.44,0,0,0,251.959,146.306Z" transform="translate(-228.7 -83.804)" fill="#e9b54d"/>
      <path id="Path_9697" data-name="Path 9697" d="M248.693,148.231c.6-9.515-10.7-15.212-10.7-15.212s1.224,6.69,4.028,10.172A18.422,18.422,0,0,0,248.693,148.231Z" transform="translate(-232.013 -81.853)" fill="#e9b54d"/>
      <path id="Path_9698" data-name="Path 9698" d="M245.719,149.909c.6-9.515-10.693-15.212-10.693-15.212s1.222,6.69,4.026,10.172A18.462,18.462,0,0,0,245.719,149.909Z" transform="translate(-235.026 -80.152)" fill="#e9b54d"/>
    </g>
    <path id="Path_15980" data-name="Path 15980" d="M80.493,101.6c-8.518,3.361-17.8,7.391-21.052,14.721-7,15.8,19.048,30.461,16.326,47.135-2.328,14.266-23.084,20.138-34.641,30.9-9.181,8.549-12.437,21.173-8.275,32.076S48.446,246.119,61.9,248.755c21.165,4.148,45.675-5.834,64.135,3.681,13.559,6.986,18.75,22.458,33.236,28.032,15.559,5.985,33.364-2.261,47.262-10.589s30.4-17.546,46.814-13.4c15.828,4,25.863,19.544,42.4,20.2,16.586.654,28.068-14.012,44-17.882,16.2-3.933,32.794,3.945,49.493,5.991,24.2,2.966,49.992-7.842,61.418-25.738a89.341,89.341,0,0,0,7.119-14.844l9.98-24.619c4.6-11.348,9.251-22.919,9.493-34.887.324-16.008-7.713-32.015-21.652-43.123s-33.576-17.157-52.9-16.294c-8.573.381-18.674,1.6-24.383-3.7-8.178-7.6,1.224-19.765-1.82-29.619-2.413-7.805-12.608-12.584-22.343-12.914s-19.1,2.8-28.03,6.025-18.062,6.648-27.8,6.95c-15.939.493-30.251-7.34-45.308-11.694S217.5,56.821,210.57,68.7c-4.366,7.485-2.89,18.438-11.948,22.035-8.841,3.51-18.082-3.86-23.855-10.417-4.213-4.785-11.233-12.034-19.31-10.689-5.713.951-13.055,7.431-18.476,9.68C118.342,87.038,99.31,94.173,80.493,101.6Z" transform="translate(16.481 17.772)" fill="#fee3cd"/>
    <g id="Group_6294" data-name="Group 6294" transform="translate(407.591 75.645)">
      <path id="Path_15981" data-name="Path 15981" d="M234.461,80.784s-6.768,6.392-7.52,7.519-11.281,42.491-11.281,42.491l18.8,11.281Z" transform="translate(-203.97 -34.692)" fill="#e0583d"/>
      <g id="Group_6292" data-name="Group 6292" transform="translate(25.913)">
        <g id="Group_6291" data-name="Group 6291">
          <path id="Path_15982" data-name="Path 15982" d="M245.825,60.561a3.466,3.466,0,0,1,5.19,1.319A33.723,33.723,0,0,1,255.3,68.3a8.287,8.287,0,0,1,1.462,4.338,8.234,8.234,0,0,1-.884,2.878q-.7,1.562-1.4,3.125c-.687,1.537-1.571,3.248-3.2,3.677,1.059.129,1.41,1.653.826,2.545a4.787,4.787,0,0,1-2.692,1.613,16.461,16.461,0,0,0-6.73,3.725,12.2,12.2,0,0,1-7.771,2.87,10.232,10.232,0,0,1-6.881-2.852c-2.29-2.125-1.959-5.194-1.919-8.15l.141-10.957A10.976,10.976,0,0,1,226.831,67c.9-2.062,2.831-2.32,4.491-2.368l16.489-.483" transform="translate(-219.323 -55.885)" fill="#002c86"/>
          <path id="Path_15983" data-name="Path 15983" d="M238.533,72.792l6.12,12.528-2.8,2.243A6.479,6.479,0,0,1,231.637,84.5l-3.556-11.017Z" transform="translate(-217.291 -42.795)" fill="#f18b97"/>
          <path id="Path_15984" data-name="Path 15984" d="M232.276,84.078l-4.481-10.452,10.9-.834,3.1,8.349A18.214,18.214,0,0,1,232.276,84.078Z" transform="translate(-217.581 -42.794)" fill="#ffc8a4"/>
          <path id="Path_15985" data-name="Path 15985" d="M224.547,81.681a12.98,12.98,0,0,0,2.094,5.669,7.181,7.181,0,0,0,4.1,2.833c4.72,1.76,13.537,1.067,16.028-4.259a9.107,9.107,0,0,0,.626-2.408c1.045-6.392,2.539-13.708-3.665-17.858a24.513,24.513,0,0,0-5.53-2.541c-3.234-1.158-8.045-2.614-10.643,1.055-1.506,2.127-1.081,6.372-1.7,8.994C225.2,75.928,224.27,78.741,224.547,81.681Z" transform="translate(-220.925 -53.907)" fill="#ffc8a4"/>
          <g id="Group_6290" data-name="Group 6290" transform="translate(24.656 18.973)">
            <g id="Group_6289" data-name="Group 6289">
              <path id="Path_15986" data-name="Path 15986" d="M240.511,67.443a2.732,2.732,0,0,1,1.359,2.332,6.4,6.4,0,0,1-4.209,6.513,2.19,2.19,0,0,1-2.346-.32,2.46,2.46,0,0,1-.046-2.443C235.853,71.974,238.153,66.416,240.511,67.443Z" transform="translate(-234.967 -67.318)" fill="#ffc8a4"/>
            </g>
          </g>
          <path id="Path_15987" data-name="Path 15987" d="M254.468,65.081a9.667,9.667,0,0,1-.771,5.985,40.937,40.937,0,0,1-1.764,4.763c-2.453,4.255-6.45-2.129-6.144-2.306-2.469,1.442-4.513-.173-6.911-.709a21.173,21.173,0,0,0-6.478-.036c-.9.089-3.564.9-4.368.411-.953-.586-.135-1.279,1.025-1.569-2.551.532-6.754-.516-6.3-3.931a2.538,2.538,0,0,1,3.192-2.1,3.969,3.969,0,0,1,1.434-7.252c2.334-.419,4.521,1.261,6.877,1.524,2.642.294,5.119-1.2,7.721-1.752a11.4,11.4,0,0,1,10.182,3.19A8.253,8.253,0,0,1,254.468,65.081Z" transform="translate(-222.723 -57.896)" fill="#002c86"/>
          <path id="Path_15988" data-name="Path 15988" d="M228.918,59.59h.375" transform="translate(-216.443 -56.179)" fill="none"/>
        </g>
      </g>
      <path id="Path_15989" data-name="Path 15989" d="M245.455,185.857c-3.784,3.377-13.257,6.422-15.254,2.058-.808-1.758.31-3.822,1.381-5.437,3.178-4.785,6.291-8.186,5.151-14.4q4.61.613,9.217,1.222c-.481-.062.187,5.159.312,5.733.671,3.089,1.988,5.931.568,9.108A5.408,5.408,0,0,1,245.455,185.857Z" transform="translate(-189.508 53.8)" fill="#e0583d"/>
      <g id="Group_6293" data-name="Group 6293" transform="translate(0 221.881)">
        <path id="Path_15990" data-name="Path 15990" d="M235.394,168.077c-4.195.938-5.6.709-9.882.07l-7.582,5.194s-8.685,5.56-8.041,7.886,23.72-3.1,23.72-3.1a3.788,3.788,0,0,0,2.745-4.984C235.668,170.667,234.941,170.194,235.394,168.077Z" transform="translate(-209.855 -168.077)" fill="#e0583d"/>
      </g>
      <path id="Path_15991" data-name="Path 15991" d="M268.807,116.189s.5,17.214-.153,21.811c-1.488,10.564-6.114,90.518-5.866,89.587,0,0-6.414,1.663-10.339-.828s-8.313-83.492-8.313-83.492l-4.251-.423-8.335,31.067s2.5,49.108.9,49.352-12.608,2.177-13.321-.572-4.825-52.53-4.825-52.53l17.417-55.482Z" transform="translate(-205.349 -0.328)" fill="#4c9ad5"/>
      <path id="Path_15992" data-name="Path 15992" d="M226.332,123.2c3.528,6.74,13.553,11.013,13.553,11.013l-8.335,31.067s2.5,49.108.9,49.352-12.608,2.177-13.321-.572-4.825-52.53-4.825-52.53Z" transform="translate(-205.349 8.306)" fill="#4c9ad5"/>
      <path id="Path_15993" data-name="Path 15993" d="M271.124,86.968c-3.214,8.814-8.216,11.7-7.622,21.064.695,10.939-3.224,22.331-2.529,33.27.211,3.321,1.422,6.923,1.023,10.248-.451,3.75-5.486,4.05-8.71,4.807a52.86,52.86,0,0,1-30.692-1.978c-.83-.316.131-13.38.155-14.668q.193-9.715.5-19.427c.356-10.822-.038-23.058.767-30.311.6-5.435,7.217-9.475,8.178-9.715,5.226-1.3,9.052-2.576,14.439-2.882C259.663,76.636,271.045,87.186,271.124,86.968Z" transform="translate(-197.282 -38.184)" fill="#e0583d"/>
      <path id="Path_15994" data-name="Path 15994" d="M231.877,78.6c-3,.532-5.441,1.41-5.188,3.047a4.39,4.39,0,0,0,2.292,2.789c5.073,3.017,19.342.566,21.324-3.929,1.976-4.477-6-3.472-9.457-2.944C238.935,77.858,235.083,78.036,231.877,78.6Z" transform="translate(-192.807 -38.443)" fill="#f18b97" opacity="0.32"/>
      <path id="Path_15995" data-name="Path 15995" d="M248.216,93.382c-.711,3.671,1.921,24.441-.848,25.849a88.784,88.784,0,0,0-18.215,12.292,2.728,2.728,0,0,0,2.471,4.614,38.879,38.879,0,0,0,17.083-8.635c5.391-5.073,8.339-12.413,8.893-19.793a39.7,39.7,0,0,0-2.185-16.757C252.916,84.531,249.233,88.134,248.216,93.382Z" transform="translate(-191.129 -27.869)" fill="#f18b97" opacity="0.32"/>
      <path id="Path_15996" data-name="Path 15996" d="M231.533,78.727a11.89,11.89,0,0,0-2.964.421c-3.184.977-2.451,3.105-.024,4.549,3.721,2.213,9.815,1.432,13.778.433,3.1-.779,11.815-4.545,5.8-7.507a5.51,5.51,0,0,0-3.957-.294c-1.287.409-2.245,1.293-3.51,1.744a11.608,11.608,0,0,1-3.472.465l-4.859.159C232.062,78.707,231.8,78.715,231.533,78.727Z" transform="translate(-193.037 -39.45)" fill="#e0583d"/>
    </g>
    <g id="Group_6302" data-name="Group 6302" transform="translate(328.53 55.329)">
      <g id="Group_6295" data-name="Group 6295" transform="translate(7.179 242.28)">
        <path id="Path_15997" data-name="Path 15997" d="M198.569,168.118c-4.106,1.285-5.528,1.174-9.851.892l-7.131,5.814s-8.2,6.269-7.366,8.536,23.4-5.069,23.4-5.069a3.791,3.791,0,0,0,2.324-5.2C199.058,170.678,198.293,170.267,198.569,168.118Z" transform="translate(-174.16 -168.118)" fill="#4c9ad5"/>
      </g>
      <g id="Group_6296" data-name="Group 6296" transform="translate(49.785 242.896)">
        <path id="Path_15998" data-name="Path 15998" d="M196.428,168.442c4.207.9,5.612.661,9.892-.018l7.636,5.133s8.744,5.488,8.12,7.822-23.773-2.894-23.773-2.894a3.792,3.792,0,0,1-2.791-4.964C196.177,171.036,196.9,170.557,196.428,168.442Z" transform="translate(-195.317 -168.424)" fill="#4c9ad5"/>
      </g>
      <path id="Path_15999" data-name="Path 15999" d="M199.665,53.979c.274-.276.538-.558.785-.858.389-.473,1.412-1.315,1.416-1.967,0-.052-.23-1.512-.532-1.154,2.074-2.443-1.764-2.354-3.17-2.018a24.475,24.475,0,0,0-9.708,5.109c-1.994,1.909-5.84,5.9-3.117,8.7,3.669,3.78,10.669-.955,14.119-2.849-1.122-1.271-2.588-.938-4.036-1.146C196.171,56.812,198.793,54.857,199.665,53.979Z" transform="translate(-156.604 -47.807)" fill="#ffc8a4"/>
      <path id="Path_16000" data-name="Path 16000" d="M203.445,100.918,187.532,87.331a1.84,1.84,0,0,1-.278-2.5L206.737,58.8s-6.339-8.252-8.265-6.551c-1.6,1.422-20.52,23.259-27.039,30.32l.016.008h0c.171.6-.364,4.553-.759,7.244a5.1,5.1,0,0,0,1.442,4.352l27.635,27.663,15.089-18.615Z" transform="translate(-170.554 -43.544)" fill="#eaac3c"/>
      <path id="Path_16001" data-name="Path 16001" d="M177.252,88.449l-.342-3.812,21.6-32.509-27,30.3-.042.02-.846,7.324a5.12,5.12,0,0,0,1.462,4.2l27.029,27.055L202.8,100.8l-22.522-8.393A4.674,4.674,0,0,1,177.252,88.449Z" transform="translate(-170.596 -43.427)" fill="#eab54e"/>
      <path id="Path_16002" data-name="Path 16002" d="M185.481,109.621,180.2,228.664s13.329,2.068,14.709-1.607S206.392,115.6,206.392,115.6Z" transform="translate(-160.864 14.858)" fill="#2eaa76"/>
      <path id="Path_16003" data-name="Path 16003" d="M185.711,111.333l-5.516,115.6S193.524,229,194.9,225.321s11.489-109.852,11.489-109.852Z" transform="translate(-160.864 16.594)" fill="#1c3742"/>
      <path id="Path_16004" data-name="Path 16004" d="M225.674,115.25l-2.986,113.759s-14.709,2.527-16.088,0-5.055-94.223-5.055-94.223l-5.057-8.045-12.87-17Z" transform="translate(-157.393 14.975)" fill="#1c3742"/>
      <path id="Path_16005" data-name="Path 16005" d="M223.393,133.638c-.775,5.959-1.806,11.984-1.037,17.945a44.6,44.6,0,0,1-29.127.268c-3.162-1.071-6.355-2.63-8.21-5.4-2.7-4.04-1.843-9.392-.84-14.147q4.4-20.912,9.817-41.595c.769-2.946,1.661-7.185,3.6-9.539,3.208-3.907,8.528-3.784,13.337-3.4,3.089.246,7.785-2.592,10.333-.5,3.345,2.745,3.256,12.252,3.492,16.076q.586,9.446.322,18.913A210.614,210.614,0,0,1,223.393,133.638Z" transform="translate(-157.807 -18.734)" fill="#4c9ad5"/>
      <path id="Path_16006" data-name="Path 16006" d="M215.413,81.89l10.8,40.907L205.3,141.182Z" transform="translate(-135.411 -13.255)" fill="#1a7abb"/>
      <path id="Path_16007" data-name="Path 16007" d="M215.413,81.89l10.8,40.907L205.3,141.182Z" transform="translate(-135.411 -13.255)" fill="#eaac3c"/>
      <g id="Group_6301" data-name="Group 6301" transform="translate(37.607 10.227)">
        <g id="Group_6298" data-name="Group 6298" transform="translate(26.612 23.58)">
          <g id="Group_6297" data-name="Group 6297">
            <path id="Path_16008" data-name="Path 16008" d="M208.59,64.74a2.959,2.959,0,0,1,1.44,2.541,6.933,6.933,0,0,1-4.644,6.994,2.372,2.372,0,0,1-2.537-.379,2.663,2.663,0,0,1-.016-2.644C203.485,69.583,206.051,63.6,208.59,64.74Z" transform="translate(-202.486 -64.595)" fill="#ffc8a4"/>
          </g>
        </g>
        <g id="Group_6299" data-name="Group 6299" transform="translate(0 23.58)">
          <path id="Path_16009" data-name="Path 16009" d="M190.734,64.74a2.964,2.964,0,0,0-1.44,2.541,6.932,6.932,0,0,0,4.646,6.994,2.369,2.369,0,0,0,2.535-.379,2.658,2.658,0,0,0,.016-2.644C195.839,69.583,193.273,63.6,190.734,64.74Z" transform="translate(-189.27 -64.595)" fill="#ffc8a4"/>
        </g>
        <path id="Path_16010" data-name="Path 16010" d="M195.224,73.823l-.528,8.269a4,4,0,0,0,4,4.263h1.949a4.01,4.01,0,0,0,3.979-3.528l1.47-12.238Z" transform="translate(-183.778 -34.939)" fill="#ffc8a4"/>
        <path id="Path_16011" data-name="Path 16011" d="M204.867,80.642l1.208-10.053-10.868,3.234-.5,7.86A21.782,21.782,0,0,0,204.867,80.642Z" transform="translate(-183.761 -34.939)" fill="#f18b97" opacity="0.32"/>
        <path id="Path_16012" data-name="Path 16012" d="M191.827,79.643a12.264,12.264,0,0,0,3.639,7.58c3.808,3.689,8.456,3.824,13.142,1.851,3.895-1.637,5.776-3.683,6.329-7.878.574-4.354,1.786-8.671.157-12.9a11.884,11.884,0,0,0-4.263-5.463A24.905,24.905,0,0,0,205.148,60c-3.327-1.295-8.281-2.938-11.013,1-3.154,4.543-2.731,13.206-2.324,18.444C191.815,79.512,191.821,79.577,191.827,79.643Z" transform="translate(-186.978 -47.161)" fill="#ffc8a4"/>
        <g id="Group_6300" data-name="Group 6300" transform="translate(3.481 24.137)">
          <path id="Path_16013" data-name="Path 16013" d="M211.562,72.74c1.681-1.017,1.424-5.665,2.88-6.273a1.015,1.015,0,0,1,1.226.648,2.971,2.971,0,0,1,.052,1.528c-.427,3,1.329,6.46.518,9.414-.888,3.236-5.667,5.866-8.589,6.776A15.9,15.9,0,0,1,196.168,84a9.544,9.544,0,0,1-4.024-3.3c-1.027-1.613-1.98-6.019.048-7.268a4.127,4.127,0,0,1,.632-4.394,4.337,4.337,0,0,1,0-4.167c1.363,1.7.8,4.821,1.919,6.617,1.41,2.257,5.884,2.646,8.259,2.622C205.329,74.089,209.509,73.972,211.562,72.74Z" transform="translate(-190.999 -64.872)" fill="#003c7f"/>
        </g>
        <path id="Path_16014" data-name="Path 16014" d="M212.9,71.2c-.111.016-.224.03-.336.044-7.427.89-14.181.665-20.263-4.4a5.533,5.533,0,0,1-2.241-3.291c-.177-1.349.934-2.9,2.274-2.668a3.057,3.057,0,0,1,.834-3.607l8.659-.153a3.579,3.579,0,0,1,2.376-4.235c-.1,2.32,2.07,4.134,4.261,4.9s4.6.906,6.682,1.933a6.046,6.046,0,0,1,3.055,7.016C217.449,69.792,215.636,70.811,212.9,71.2Z" transform="translate(-188.485 -52.886)" fill="#003c7f"/>
        <path id="Path_16015" data-name="Path 16015" d="M215.222,58.332c2.217.294,3.8,2.354,4.559,4.459a12.9,12.9,0,0,1-.554,9.946c-.328.667-.715,1.3-1.1,1.941-.685,1.13-2.11,4.495-3.268,2.235-.354-.691.155-2.787.143-3.615a21.947,21.947,0,0,0-.314-3.613,11.607,11.607,0,0,0-4.513-7.654A9.036,9.036,0,0,0,202.38,61a9.732,9.732,0,0,0-5.784,5.387c-1.718,4.042-.65,8.834-2.274,12.916.779-1.963-1.8-4.358-2.755-5.814a10.519,10.519,0,0,1-1.561-5.967c.07-3.041.894-6.915,2.854-9.3,1.78-2.169,7.24-1.259,8.994.634" transform="translate(-188.526 -48.758)" fill="#003c7f"/>
      </g>
      <path id="Path_16016" data-name="Path 16016" d="M203.681,76.869,220.226,86.98l-8.732,85.95s-9.882-3.677-10.8-6.9S203.681,76.869,203.681,76.869Z" transform="translate(-140.225 -18.345)" fill="#eab54e"/>
      <path id="Path_16017" data-name="Path 16017" d="M204.6,77.439,189.055,156.5s-2.529,7.354-7.354,8.043,10.315-86.381,10.315-86.381Z" transform="translate(-160.301 -17.767)" fill="#eab54e"/>
      <path id="Path_16018" data-name="Path 16018" d="M203.552,110.52a29.475,29.475,0,0,1,4.523.536c1.392.381,2.481,1.343,1.8,2.129-.654.755-2.429.886-3.913.89q-2.5.006-5-.1c-3.939-.171-8.214-.669-10.7-2.4-1.561-1.087-2.187-2.584-1.657-3.951a4.344,4.344,0,0,1,2.984-2.582c2.286-.4,2.415.6,3.26,1.512A13.528,13.528,0,0,0,203.552,110.52Z" transform="translate(-152.534 10.115)" fill="#f18b97" opacity="0.32"/>
    </g>
    <g id="Group_6308" data-name="Group 6308" transform="translate(110.654 40.388)">
      <g id="Group_6303" data-name="Group 6303" transform="translate(89.204 256.938)">
        <path id="Path_16019" data-name="Path 16019" d="M108.448,167.978c4.181,1.307,5.629,1.194,10.029.908l7.26,5.919s8.349,6.382,7.5,8.69-23.825-5.159-23.825-5.159a3.86,3.86,0,0,1-2.364-5.294C107.949,170.584,108.728,170.165,108.448,167.978Z" transform="translate(-106.7 -167.978)" fill="#002c86"/>
      </g>
      <g id="Group_6304" data-name="Group 6304" transform="translate(45.155 257.564)">
        <path id="Path_16020" data-name="Path 16020" d="M110.967,168.307c-4.283.918-5.715.673-10.071-.018l-7.773,5.226s-8.9,5.586-8.265,7.964,24.2-2.948,24.2-2.948a3.86,3.86,0,0,0,2.841-5.055C111.223,170.947,110.486,170.46,110.967,168.307Z" transform="translate(-84.826 -168.289)" fill="#002c86"/>
      </g>
      <path id="Path_16021" data-name="Path 16021" d="M128.583,45.2c.1-.383.2-.763.334-1.136.205-.586.4-1.921.965-2.27.046-.03,1.438-.6,1.287-.145,1.033-3.1,2.98.294,3.427,1.7a24.907,24.907,0,0,1,.671,11.148c-.612,2.743-2.06,8.2-5.937,7.3-5.228-1.2-4.795-9.8-4.962-13.8,1.7.306,2.181,1.756,3.125,2.908C127.957,49.74,128.277,46.425,128.583,45.2Z" transform="translate(0.416 -40.388)" fill="#f6aa7d"/>
      <path id="Path_16022" data-name="Path 16022" d="M101.14,103.579l11.618-2.34,20.823-17.78,14.272-35.328s10.528,1.17,10.059,3.744-12.165,43.049-12.165,43.049L116.5,122.53Z" transform="translate(-23.132 -32.539)" fill="#eab54e"/>
      <path id="Path_16023" data-name="Path 16023" d="M110.237,119.942,108.012,106.8l24.217-17.037L150.945,49.99,138.779,93.038Z" transform="translate(-16.166 -30.654)" fill="#eaac3c"/>
      <path id="Path_16024" data-name="Path 16024" d="M69.445,45.2c-.095-.383-.2-.763-.334-1.136-.205-.586-.4-1.921-.965-2.27-.046-.03-1.438-.6-1.287-.145-1.033-3.1-2.98.294-3.427,1.7A24.878,24.878,0,0,0,62.763,54.5c.61,2.743,2.058,8.2,5.935,7.3,5.228-1.2,4.795-9.8,4.964-13.8-1.7.306-2.183,1.756-3.127,2.908C70.071,49.74,69.751,46.425,69.445,45.2Z" transform="translate(-62.403 -40.388)" fill="#f6aa7d"/>
      <path id="Path_16025" data-name="Path 16025" d="M119.808,103.579l-11.618-2.34L87.368,83.459,73.1,48.131S62.57,49.3,63.038,51.875,75.2,94.923,75.2,94.923L108.5,124.854Z" transform="translate(-61.775 -32.539)" fill="#eab54e"/>
      <path id="Path_16026" data-name="Path 16026" d="M107.738,122.029l1.316-10.153L81.746,89.762,63.03,49.99,75.2,93.038Z" transform="translate(-61.768 -30.654)" fill="#eaac3c"/>
      <path id="Path_16027" data-name="Path 16027" d="M121.81,108.427l5.381,121.188s-13.571,2.106-14.974-1.637-11.7-113.467-11.7-113.467Z" transform="translate(-23.761 28.588)" fill="#1a7abb"/>
      <path id="Path_16028" data-name="Path 16028" d="M121.81,108.427l5.381,121.188s-13.571,2.106-14.974-1.637-11.7-113.467-11.7-113.467Z" transform="translate(-23.761 28.588)" fill="#f18b97" opacity="0.32"/>
      <path id="Path_16029" data-name="Path 16029" d="M89.018,114.157l3.041,115.809s14.974,2.572,16.378,0,5.147-95.923,5.147-95.923l5.147-8.188,13.1-17.313Z" transform="translate(-35.421 28.706)" fill="#1a7abb"/>
      <path id="Path_16030" data-name="Path 16030" d="M129.97,78.7c-2.31-.441-4.342-2.078-6.78-2.529a42.277,42.277,0,0,0-8.927-.383c-5.528,0-10.868.068-16.451-.3a7.775,7.775,0,0,0-2.594.119c-2.648.733-3.474,6.19-5.272,8.246-.985,1.162-4.4,11.908-4.342,13.311.536,17.029-.556,34.442,1.992,51.263.123.808,5.071,2.052,5.846,2.27a32.807,32.807,0,0,0,6.591,1.144c4.154.29,8.49.046,12.661-.038,8.931-.181,18.019-1.108,26.52-3.989-.469-5.02-.215-10.272-.749-15.385-.393-3.746-.826-7.491-1.361-11.219-1.877-13.049-4.112-26.05-6.486-39.019C130.407,81.048,130.153,79.825,129.97,78.7Z" transform="translate(-38.883 -4.853)" fill="#eab54e"/>
      <g id="Group_6307" data-name="Group 6307" transform="translate(50.282 25.398)">
        <g id="Group_6305" data-name="Group 6305" transform="translate(0 18.545)">
          <path id="Path_16031" data-name="Path 16031" d="M88.862,62.356A3.013,3.013,0,0,0,87.4,64.944a7.057,7.057,0,0,0,4.728,7.121,2.415,2.415,0,0,0,2.582-.385,2.714,2.714,0,0,0,.018-2.692C94.06,67.288,91.448,61.192,88.862,62.356Z" transform="translate(-87.372 -62.209)" fill="#f6aa7d"/>
        </g>
        <g id="Group_6306" data-name="Group 6306" transform="translate(27.091 18.545)">
          <path id="Path_16032" data-name="Path 16032" d="M107.039,62.356a3.013,3.013,0,0,1,1.466,2.588,7.057,7.057,0,0,1-4.728,7.121,2.415,2.415,0,0,1-2.582-.385,2.709,2.709,0,0,1-.016-2.692C101.844,67.288,104.456,61.192,107.039,62.356Z" transform="translate(-100.825 -62.209)" fill="#f6aa7d"/>
        </g>
        <path id="Path_16033" data-name="Path 16033" d="M104.435,71.6,105.556,82.4c.151,2.35-2.344,5.077-4.7,5.077H98.871c-2.064,0-4.348-3.027-4.6-5.077l-.9-14.086Z" transform="translate(-81.291 -37.479)" fill="#f6aa7d"/>
        <path id="Path_16034" data-name="Path 16034" d="M93.991,78.348l-.62-10.037L104.435,71.6l.838,8.248C101.773,80.418,97.384,79.427,93.991,78.348Z" transform="translate(-81.291 -37.479)" fill="#16121f" opacity="0.06"/>
        <path id="Path_16035" data-name="Path 16035" d="M114.543,77.529a12.482,12.482,0,0,1-3.7,7.715c-3.877,3.756-8.609,3.893-13.38,1.885-3.965-1.667-5.88-3.75-6.442-8.019-.586-4.434-1.818-8.828-.161-13.136a12.108,12.108,0,0,1,4.34-5.562,25.264,25.264,0,0,1,5.786-2.878c3.387-1.319,8.43-2.99,11.213,1.017,3.208,4.626,2.779,13.444,2.366,18.777Z" transform="translate(-84.683 -49.921)" fill="#f6aa7d"/>
        <path id="Path_16036" data-name="Path 16036" d="M95.055,66.806a6.012,6.012,0,0,0,2.8-.095A1.221,1.221,0,0,1,99.006,64.8a8.394,8.394,0,0,0,8.4,2.606,1.5,1.5,0,0,1,1.355-2.247l1.77,3.611a7.679,7.679,0,0,0,6.788-7.379c.01-8.959-12.657-8.776-18.768-8.126-4.344.463-9.749,2.68-8.975,8.069A6.87,6.87,0,0,0,95.055,66.806Z" transform="translate(-85.21 -53)" fill="#002c86"/>
        <path id="Path_16037" data-name="Path 16037" d="M93.873,55.834c-2.257.3-3.868,2.4-4.642,4.537A13.127,13.127,0,0,0,89.8,70.5c.334.681.727,1.329,1.12,1.978.7,1.148,2.149,4.575,3.327,2.276.36-.7-.157-2.837-.147-3.681a22.475,22.475,0,0,1,.322-3.675A11.808,11.808,0,0,1,99.01,59.6a9.2,9.2,0,0,1,7.936-1.053,9.9,9.9,0,0,1,5.886,5.486c1.75,4.114.663,8.994,2.316,13.148-.793-2,1.837-4.436,2.8-5.919a10.72,10.72,0,0,0,1.591-6.076c-.073-3.093-.912-7.038-2.908-9.471-1.81-2.207-7.368-1.279-9.155.646" transform="translate(-86.253 -51.547)" fill="#002c86"/>
      </g>
    </g>
    <g id="Group_6313" data-name="Group 6313" transform="translate(214.986 79.529)">
      <g id="Group_6311" data-name="Group 6311">
        <path id="Path_16038" data-name="Path 16038" d="M138.555,62.294a20.162,20.162,0,0,0-9.217,21.294c.556,2.437,1.569,5.03.59,7.328-.822,1.929-2.843,3.059-4.835,3.717s-4.112,1-5.933,2.04-3.327,3.051-2.926,5.107c.514,2.642,3.822,4.138,4.08,6.817.169,1.74-1.045,3.3-2.328,4.485s-2.763,2.292-3.421,3.911a6.188,6.188,0,0,0,.888,5.667,14.862,14.862,0,0,0,4.446,3.923,53.756,53.756,0,0,0,48.015,4.622,31.614,31.614,0,0,0,10.891-6.75,17.626,17.626,0,0,0,5.385-11.406c.183-4.269-2.078-10.053-6.535-11.436-2.318-.719-4.165-.636-6.182-2.388a9.816,9.816,0,0,1-3.2-5.272c-.751-3.474.415-7.04.717-10.582a22.044,22.044,0,0,0-4.879-15.7C158.014,60.258,147.073,57.31,138.555,62.294Z" transform="translate(-114.212 -59.825)" fill="#003c7f"/>
        <g id="Group_6310" data-name="Group 6310" transform="translate(16.086 8.433)">
          <path id="Path_16039" data-name="Path 16039" d="M142.362,75.1c1.47,3.663,1.879,8.007,5.695,9.342,5.641,2.255,12.931,4.414,8.18,6.064-.58.2-2.489,5.451-3.009,5.123-.308-.2-15.343,10.76-15.512,10.435-.7-1.347-10.111-7.376-10.528-8.836-.28-.981-5.188-5.018-4.982-6.017.282-1.373,13.555-6.233,13.7-7.344s-1.238-2.574-1.686-3.526q-1.157-2.471-2.31-4.946Z" transform="translate(-122.2 -52.77)" fill="#ffc8a4"/>
          <path id="Path_16040" data-name="Path 16040" d="M130.975,83.852,127.024,75.4l10.448-.294,2.7,6.736A20.1,20.1,0,0,1,130.975,83.852Z" transform="translate(-117.309 -52.77)" fill="#16121f" opacity="0.12"/>
          <path id="Path_16041" data-name="Path 16041" d="M123.823,83.668a12.8,12.8,0,0,0,2.127,5.564,7.086,7.086,0,0,0,4.066,2.747c5.216,1.879,12.695,1.124,15-5.671.922.608,2.131-.23,2.529-1.377a9.409,9.409,0,0,0,.137-3.144c.018-.9.141-1.76.115-2.68a18.4,18.4,0,0,0-1.089-6.573,10.928,10.928,0,0,0-4.181-4.877,24.128,24.128,0,0,0-5.473-2.443c-3.2-1.1-7.948-2.485-10.464,1.16-1.46,2.114-.993,6.3-1.575,8.885C124.4,77.989,123.516,80.772,123.823,83.668Z" transform="translate(-120.618 -64.012)" fill="#ffc8a4"/>
          <g id="Group_6309" data-name="Group 6309" transform="translate(22.973 13.947)">
            <path id="Path_16042" data-name="Path 16042" d="M140.574,71.175a2.9,2.9,0,0,1,1.069,2.648,6.774,6.774,0,0,1-5.4,6.18,2.32,2.32,0,0,1-2.408-.691,2.607,2.607,0,0,1,.322-2.566C135.008,75.213,138.26,69.742,140.574,71.175Z" transform="translate(-133.608 -70.938)" fill="#ffc8a4"/>
          </g>
        </g>
        <path id="Path_16043" data-name="Path 16043" d="M131.709,75.931c3.091-.207,6.033-1.5,8.879-2.771-.846.379,6.047,6.726,7.111,7.052,3.615,1.116,4.241-3.808,4.11-6.492-.155-3.127-.634-6.122-3.264-7.96a18.674,18.674,0,0,0-20.581-.471c-2.042,1.269-5.874,4.237-4.509,7.064,1.206,2.5,4.914,3.615,7.443,3.607C131.169,75.957,131.439,75.949,131.709,75.931Z" transform="translate(-105.133 -57.187)" fill="#003c7f"/>
      </g>
      <path id="Path_16044" data-name="Path 16044" d="M115.31,111.482a7.208,7.208,0,0,0,3.268,3.617c1.712.92,3.87,1.927,5.844,1.462s3.407-2.173,4.571-3.848a48.931,48.931,0,0,0,7.095-15.3c.82-3.079,1.329-6.39.336-9.416-.755-2.3-3.433-5.4-6.074-5.347a2.476,2.476,0,0,0-2.489,2.763,5.9,5.9,0,0,1-1.669,5.328c-.967.874-2.211,1.375-3.26,2.151a3.562,3.562,0,0,0-1.7,3.291c.228,1.184,1.379,2.094,1.394,3.3a2.755,2.755,0,0,1-1.48,2.225c-.8.483-1.712.739-2.541,1.162a7.094,7.094,0,0,0-3.621,7.524A6.355,6.355,0,0,0,115.31,111.482Z" transform="translate(-113.56 -36.683)" fill="#2eaa76"/>
      <path id="Path_16045" data-name="Path 16045" d="M115.31,111.482a7.208,7.208,0,0,0,3.268,3.617c1.712.92,3.87,1.927,5.844,1.462s3.407-2.173,4.571-3.848a48.931,48.931,0,0,0,7.095-15.3c.82-3.079,1.329-6.39.336-9.416-.755-2.3-3.433-5.4-6.074-5.347a2.476,2.476,0,0,0-2.489,2.763,5.9,5.9,0,0,1-1.669,5.328c-.967.874-2.211,1.375-3.26,2.151a3.562,3.562,0,0,0-1.7,3.291c.228,1.184,1.379,2.094,1.394,3.3a2.755,2.755,0,0,1-1.48,2.225c-.8.483-1.712.739-2.541,1.162a7.094,7.094,0,0,0-3.621,7.524A6.355,6.355,0,0,0,115.31,111.482Z" transform="translate(-113.56 -36.683)" fill="#248972"/>
      <path id="Path_16046" data-name="Path 16046" d="M133.073,184.573a12.355,12.355,0,0,0,2.541,4.644,4.687,4.687,0,0,0,5.206.685,5.088,5.088,0,0,0,2.205-4.457c-.012-2.731-1.4-4.261-2.519-6.519-1.555-3.146-2.366-6.925-3.494-10.252-.447-1.315-1.025-2.779-2.308-3.315C128.294,162.679,130.191,176.745,133.073,184.573Z" transform="translate(-97.798 46.825)" fill="#e23265"/>
      <path id="Path_16047" data-name="Path 16047" d="M133.073,184.573a12.355,12.355,0,0,0,2.541,4.644,4.687,4.687,0,0,0,5.206.685,5.088,5.088,0,0,0,2.205-4.457c-.012-2.731-1.4-4.261-2.519-6.519-1.555-3.146-2.366-6.925-3.494-10.252-.447-1.315-1.025-2.779-2.308-3.315C128.294,162.679,130.191,176.745,133.073,184.573Z" transform="translate(-97.798 46.825)" fill="#eab54e"/>
      <path id="Path_16048" data-name="Path 16048" d="M147.61,110.2s7.53,10.661,5.792,51.611c-1.355,31.951-14,65.792-14,65.792s-8.482.544-10.317-2.141,5.886-64.572,5.057-69.667-3.681-35.366-3.681-35.366l1.089-13.664Z" transform="translate(-99.42 -12.236)" fill="#522b59"/>
      <path id="Path_16049" data-name="Path 16049" d="M147.61,110.2s7.53,10.661,5.792,51.611c-1.355,31.951-14,65.792-14,65.792s-8.482.544-10.317-2.141,5.886-64.572,5.057-69.667-3.681-35.366-3.681-35.366l1.089-13.664Z" transform="translate(-99.42 -12.236)" fill="#3c96d2"/>
      <path id="Path_16050" data-name="Path 16050" d="M122.488,123.116c9.425,4.672,21.89,1.261,31.747.024-2.358.3-5.288-26.733-5.7-29.474-.131-.862-20.341,2.056-22.758,2.374a125.213,125.213,0,0,1-.008,15.981C125.712,113.283,124.232,123.98,122.488,123.116Z" transform="translate(-105.822 -25.677)" fill="#f18b97"/>
      <g id="Group_6312" data-name="Group 6312" transform="translate(18.714 167.293)">
        <path id="Path_16051" data-name="Path 16051" d="M123.5,145.914s1.077,10.162,13.672,51.666c-.31,1.79-.52,4.722.862,6.277s10.351-4.724,7.922-7.457c-7.65-8.609-4.922-34.353-6.12-43.806l-5.006-9.694Z" transform="translate(-123.505 -142.899)" fill="#ffc8a4"/>
        <path id="Path_16052" data-name="Path 16052" d="M141.493,167.709c-2.886,2.318-4.06,2.676-7.61,3.808L130,178.41s-4.6,7.6-3.22,9.149,17.155-11.4,17.155-11.4a3.263,3.263,0,0,0,.228-4.9C142.689,169.606,141.948,169.517,141.493,167.709Z" transform="translate(-120.451 -117.747)" fill="#eab54e"/>
      </g>
      <path id="Path_16053" data-name="Path 16053" d="M138.479,89.184c.646,1.992,1.059,4.066,1.692,6.047.606,1.905,1.68,3.343.586,5.385-.6,1.126-1.714,2.094-1.68,3.369.048,1.78,2.28,2.777,2.674,4.515.485,2.133-2,4.146-1.43,6.259.4,1.484,2.1,2.165,3.6,2.477a14.912,14.912,0,0,0,6.3.1,8.883,8.883,0,0,0,5.268-3.3,6.364,6.364,0,0,0,.858-6.019c-.56-1.353-1.669-2.5-1.837-3.957a14.91,14.91,0,0,1,.534-3.524,7.738,7.738,0,0,0-1.21-4.877c-1.132-1.889-3.232-3.236-3.661-5.461a29.908,29.908,0,0,0-.544-3.319A10.616,10.616,0,0,0,146.5,82.4c-1.188-.783-2.036-.028-3.452-.187" transform="translate(-89.611 -37.308)" fill="#248972"/>
      <path id="Path_16054" data-name="Path 16054" d="M125.177,109.966a84.5,84.5,0,0,0-4.193,45.143c.3,1.742.656,5.02.991,6.714.415,2.09.6,4.247.944,6.353q1.021,6.316,2.316,12.582c1.579,7.721,3.415,15.391,5.437,23.007,2.072,7.8,5.01,18.211,7.58,25.867,0,0,7.773-.681,9.543-3.407s-7.449-66-6.742-71.117c1.385-10.023,1.822-20.235,2.648-30.322,1.273-.358,16.65-4.668,16.646-4.682q-2.06-6.8-4.122-13.6a67.009,67.009,0,0,1-29.977.739Q125.69,108.6,125.177,109.966Z" transform="translate(-108.696 -12.498)" fill="#4c9ad5"/>
      <path id="Path_16055" data-name="Path 16055" d="M145.047,104.906a7.786,7.786,0,0,0,3.558-1.939,3.273,3.273,0,0,0,.614-3.772c.026.044-11.658,2.584-12.814,2.7-4.225.411-8.4-.169-12.572,0,1.319,2.342,6.047,3.252,8.492,3.7A27.018,27.018,0,0,0,145.047,104.906Z" transform="translate(-104.457 -19.912)" fill="#f18b97" opacity="0.32"/>
      <path id="Path_16056" data-name="Path 16056" d="M163.05,83.289c-.445-.568-2.338-.906-5.735-2.054L138.043,96.463,124.412,83.49c-.846.377-3.307,1.3-2.445,1.222,2.966,1.925,3.349,5.86,2.553,9.306s-2.35,6.859-1.891,10.365c.342,2.626,1.784,4.97,2.493,7.521.63,2.261-1.669,6-1.148,7.324.856,2.183,7.308,2.334,9.433,2.5,4.485.356,20.035.429,22.19-4.8.749-1.822-1.2-5.242-1.186-7.278.026-4.307,1.645-9.147,3.015-13.186a67.22,67.22,0,0,1,4.666-10.582C162.577,84.993,163.721,84.145,163.05,83.289Z" transform="translate(-106.533 -38.12)" fill="#2b8d7b"/>
      <path id="Path_16057" data-name="Path 16057" d="M128.594,98.758c-.6.175-1.325.534-1.263,1.152.054.552.709.8,1.253.9a16.391,16.391,0,0,0,14.852-4.936C140.569,93.434,131.834,97.812,128.594,98.758Z" transform="translate(-100.916 -24.018)" fill="#248972"/>
    </g>
    <g id="Group_6322" data-name="Group 6322" transform="translate(273.455 59.863)">
      <path id="Path_16058" data-name="Path 16058" d="M155.235,89.528c-1.849,2.839-3.669,5.792-4.416,9.1a15.742,15.742,0,0,0,9.823,17.707c-2.09-2.352-2.457-5.868-1.645-8.909a24.057,24.057,0,0,1,4.555-8.2c1.915-2.5,8.881-4.5,10.262-7.33,1.726-3.53-2.634-8.027-3.256-11.9-.431-2.674-2.068-9.014-5.629-9-3.8.014-4,5.268-4.461,7.8C159.745,82.782,157.4,86.2,155.235,89.528Z" transform="translate(-135.909 -28.833)" fill="#002c86"/>
      <path id="Path_16059" data-name="Path 16059" d="M158.473,88.655c-1.849,2.841-3.671,5.792-4.418,9.1a15.743,15.743,0,0,0,9.823,17.709c-2.088-2.354-2.455-5.87-1.643-8.911a24.053,24.053,0,0,1,4.553-8.2c1.915-2.5,8.881-4.5,10.264-7.33,1.726-3.528-2.634-8.025-3.258-11.9-.431-2.674-2.066-9.012-5.627-9-3.8.012-4,5.266-4.463,7.8C162.983,81.909,160.635,85.33,158.473,88.655Z" transform="translate(-132.628 -29.716)" fill="#002b7a"/>
      <g id="Group_6314" data-name="Group 6314" transform="translate(1.538)">
        <path id="Path_16060" data-name="Path 16060" d="M177.368,120.078c-10.017-5.057-16.867-15.111-21.537-25.07-4.469-9.525-5.322-19.554-4.414-29.81a8.6,8.6,0,0,1,.677-3.083c.217-.441,3.963-6.9.546-4.471a9.918,9.918,0,0,1-1.474,1.184c.727-.332,1.557-6.13,1.732-7.089a2.089,2.089,0,0,0-.008-1.13.8.8,0,0,0-.922-.522,1.153,1.153,0,0,0-.455.356l-1.943,2.161a2.257,2.257,0,0,0-2.314-.044,4.641,4.641,0,0,0-1.663,1.688c-3.566,5.574.014,10.033.024,15.931a61.082,61.082,0,0,1-.793,7.119c-2.6,22.393,9.1,42.183,27.742,54.962.516.354,1.559.427,1.46-.179" transform="translate(-144.01 -50.059)" fill="#f6aa7d"/>
      </g>
      <g id="Group_6315" data-name="Group 6315" transform="translate(12.279 135.437)">
        <path id="Path_16061" data-name="Path 16061" d="M149.344,125.987s12.608,49.559,28.374,90.8c-.187,1.841-.189,4.833,1.325,6.313s10.174-5.54,7.511-8.14c-8.387-8.194-8.023-41.645-9.918-51.158l-6.476-46.492Z" transform="translate(-149.344 -117.314)" fill="#f18b97"/>
        <path id="Path_16062" data-name="Path 16062" d="M150.033,124.552S161.254,168.56,177.02,209.8c-.187,1.841-.189,4.833,1.325,6.313s10.174-5.54,7.511-8.14c-8.387-8.194-8.023-41.645-9.918-51.158l-4.048-32.613Z" transform="translate(-148.645 -110.327)" fill="#f6aa7d"/>
        <path id="Path_16063" data-name="Path 16063" d="M173.959,164.071c-2.765,2.559-3.931,3.007-7.457,4.41l-3.452,7.28s-4.128,8.043-2.614,9.523,16.6-12.814,16.6-12.814a3.32,3.32,0,0,0-.121-4.986C175.308,165.912,174.549,165.873,173.959,164.071Z" transform="translate(-138.437 -69.912)" fill="#002c86"/>
      </g>
      <g id="Group_6316" data-name="Group 6316" transform="translate(0 187.884)">
        <path id="Path_16064" data-name="Path 16064" d="M160.321,143.358s-3.347,9.847-9.451,53.579c-1.053,1.52-2.5,4.142-1.887,6.168s10.556.217,10.508-3.5c-.151-11.543,10.794-37.686,13.726-46.931l-1.142-7.254Z" transform="translate(-137.578 -143.358)" fill="#f6aa7d"/>
        <path id="Path_16065" data-name="Path 16065" d="M165.365,169.364c-3.657.908-4.893.737-8.659.264l-6.539,4.708s-7.5,5.051-6.885,7.076,20.726-3.206,20.726-3.206a3.319,3.319,0,0,0,2.3-4.424C165.659,171.627,165.013,171.227,165.365,169.364Z" transform="translate(-143.246 -116.994)" fill="#002c86"/>
      </g>
      <path id="Path_16066" data-name="Path 16066" d="M184.085,108.585s6.015,6.245,6.708,19.429c.864,16.426-29.7,89.976-29.7,89.976s-8.1,15.961-9.717,13.184S165.812,130.1,165.812,130.1l-16.654-6.708s.695-9.022,5.089-13.647C157.262,114.383,184.085,108.585,184.085,108.585Z" transform="translate(-137.253 9.273)" fill="#f6aa7d"/>
      <path id="Path_16067" data-name="Path 16067" d="M186.5,131.046a21.432,21.432,0,0,1-2.253-6.42,16.643,16.643,0,0,1,1.849-9.721c1.78-3.613,4.465-6.488,5.763-10.337,1.776-5.26,3-7.755,2.541-13.146-.211-2.467-2.5-4.245-4.7-6.015-3.883-3.123-8.14-.447-12.6-2.445-3.512,1.112-8.836-1.692-11.468,0-.564,5.077-4.221,7.725-5.649,10.77-.511,1.093-1.516,2.509-2.06,3.52a16.576,16.576,0,0,0-2.173,6.768,9.639,9.639,0,0,0,4.644,8.945,24.381,24.381,0,0,1-3.82,14.727,46.136,46.136,0,0,0-7.3,25.4c0,15.416.566,81.033.566,81.033s25.382,6.581,34.405-2.819c1.482-3.955,1.367-9.133,1.859-13.277q2.867-24.229,5.059-48.538c.554-6.051,1.142-12.113,1.452-18.182.189-3.73-.612-6.873-1.555-10.448C190.142,137.371,188.13,134.27,186.5,131.046Z" transform="translate(-137.132 -17.268)" fill="#4c9ad5"/>
      <path id="Path_16068" data-name="Path 16068" d="M177.562,132.108c2.805-1.859,3.172-3.45,2.868-6.8-1.764,1.686-4.3,2.233-6.688,2.713-3.6.719-7.219,1.4-10.814,2.161-2.427.518-8.673-.2-6.875,2.272C159.224,136.81,173.792,134.548,177.562,132.108Z" transform="translate(-130.589 26.228)" fill="#f18b97" opacity="0.32"/>
      <path id="Path_16069" data-name="Path 16069" d="M170.428,102.472a114.007,114.007,0,0,1,9.249,12.717s8.629-4.162,7.709-5.641a59.683,59.683,0,0,1-5.077-10.341c-1.029-2.636-7.274-16.39-10.7-14.693a5.335,5.335,0,0,0-1.971,1.965,15.321,15.321,0,0,0-1.82,3.887c-.808,2.62-1.172,4.1-.552,6.772A11,11,0,0,0,170.428,102.472Z" transform="translate(-119.21 -15.275)" fill="#f6aa7d"/>
      <path id="Path_16070" data-name="Path 16070" d="M182.655,84.841a16.258,16.258,0,0,0-22.9-18.529c-2.08,1.013-4.165,3.341-3.065,5.377.844,1.561,2.944,1.754,4.608,2.37,3.214,1.192,5.194,4.354,6.935,7.306a18.975,18.975,0,0,1,2.864,6.726,10.214,10.214,0,0,1-2.5,7.92C174.152,99.681,181.561,89.251,182.655,84.841Z" transform="translate(-129.924 -35.184)" fill="url(#linear-gradient)"/>
      <g id="Group_6321" data-name="Group 6321" transform="translate(21.052 28.679)">
        <path id="Path_16071" data-name="Path 16071" d="M167.628,77.756q1.054,2.16,2.1,4.32c.054.109,2.05,3.429,2.382,2.8a38.533,38.533,0,0,1-5.614,7.944,5.228,5.228,0,0,1-1.716,1.381,1.951,1.951,0,0,1-2.08-.252,2.948,2.948,0,0,1-.461-2.539c.209-1.637.689-3.246.127-4.781a32.978,32.978,0,0,0-1.444-3.025c-.421-.86-1.957-4.962-3.248-4.853Z" transform="translate(-149.668 -50.66)" fill="#f6aa7d"/>
        <path id="Path_16072" data-name="Path 16072" d="M162.153,86.534l-4.14-7.807,9.42-.975,2.9,6.251A17.445,17.445,0,0,1,162.153,86.534Z" transform="translate(-149.329 -50.664)" fill="#16121f" opacity="0.06"/>
        <path id="Path_16073" data-name="Path 16073" d="M154.582,86.784a12.255,12.255,0,0,0,2.411,5.161,6.773,6.773,0,0,0,4.068,2.342c5.1,1.434,12.191.2,13.921-6.44.92.516,2.018-.367,2.318-1.488a8.993,8.993,0,0,0-.085-3.009c-.046-.862.014-1.69-.074-2.566a17.636,17.636,0,0,0-1.492-6.2,10.468,10.468,0,0,0-4.322-4.366,23.085,23.085,0,0,0-5.393-1.955c-3.123-.834-7.753-1.824-9.906,1.826-1.247,2.119-.514,6.074-.89,8.587C154.741,81.325,154.09,84.042,154.582,86.784Z" transform="translate(-152.986 -61.076)" fill="#f6aa7d"/>
        <g id="Group_6320" data-name="Group 6320" transform="translate(20.58 18.476)">
          <path id="Path_16074" data-name="Path 16074" d="M170.068,73.65a2.766,2.766,0,0,1,1.2,2.453,6.484,6.484,0,0,1-4.724,6.269,2.22,2.22,0,0,1-2.346-.5,2.492,2.492,0,0,1,.131-2.469C165.036,77.885,167.762,72.439,170.068,73.65Z" transform="translate(-163.92 -73.476)" fill="#f18b97"/>
          <g id="Group_6319" data-name="Group 6319" transform="translate(2.288 2.492)">
            <g id="Group_6317" data-name="Group 6317">
              <path id="Path_16075" data-name="Path 16075" d="M169.23,74.725a2.006,2.006,0,0,0-1.069.272,4.833,4.833,0,0,0-1.955,1.8,8.085,8.085,0,0,0-.981,2.465,3.535,3.535,0,0,0-.157,1.083,4.987,4.987,0,0,0,.352-1.031,10.12,10.12,0,0,1,1.029-2.364,5.266,5.266,0,0,1,1.806-1.774C168.827,74.852,169.24,74.773,169.23,74.725Z" transform="translate(-165.056 -74.713)" fill="#522b59"/>
            </g>
            <g id="Group_6318" data-name="Group 6318" transform="translate(0.944 1.65)">
              <path id="Path_16076" data-name="Path 16076" d="M165.531,79.08c.032.022.187-.133.4-.413a4.426,4.426,0,0,0,.669-1.218,2.438,2.438,0,0,0,.07-1.408c-.1-.356-.264-.528-.292-.507s.05.217.093.548a2.912,2.912,0,0,1-.145,1.275,7.372,7.372,0,0,1-.566,1.2C165.594,78.861,165.5,79.058,165.531,79.08Z" transform="translate(-165.525 -75.532)" fill="#522b59"/>
            </g>
          </g>
        </g>
        <path id="Path_16077" data-name="Path 16077" d="M165.8,78c-6.162,1.422-14.038,1.857-11.662-4.668,2.878-7.9,11.773-11.531,19-7.141a15.644,15.644,0,0,1,6.206,7.387c1.059,2.358,3.186,4.09,2.237,6.716-.228.63-4.614,6.029-5.093,5.081q-2.341-4.631-4.684-9.261A35.386,35.386,0,0,1,165.8,78Z" transform="translate(-153.701 -64.301)" fill="#002c86"/>
      </g>
      <path id="Path_16078" data-name="Path 16078" d="M168.2,76.908c2.245,4.138,1.911,9.149.463,13.591s-3.913,8.522-5.886,12.781-3.476,8.9-2.829,13.51,3.917,9.137,8.708,10.236l-.7-1.438,3.689.791c-.145-6.494,2.719-12.685,5.745-18.521,4.992-9.632,8.875-18.831,6.646-29.766A19.965,19.965,0,0,0,178.3,67.341a14.957,14.957,0,0,0-11.779-4c-4.281.554-8.232,3.589-9.151,7.57" transform="translate(-128.926 -36.702)" fill="#002c86"/>
      <path id="Path_16079" data-name="Path 16079" d="M161.448,69.725c-2.135-.26-3.365-2.894-2.749-4.954a7.194,7.194,0,0,1,4.545-4.259,12.939,12.939,0,0,1,4.853-.854,11.113,11.113,0,0,1,7.244,2.721,8.626,8.626,0,0,1,2.878,7.058,7.087,7.087,0,0,1-4.525,5.959,6.02,6.02,0,0,1-6.925-2.354" transform="translate(-127.742 -40.33)" fill="#002c86"/>
    </g>
    <path id="Path_16080" data-name="Path 16080" d="M71.167,137.612a163.979,163.979,0,0,0,8.524,84.617l187.437-4.118,80.6-1.77c13.432-.3,26.87-.507,40.3-.886,7.081-.2,6.424-2.582,3.639-8.311a109.03,109.03,0,0,1-7.191-17.562c-2.366-8.261-3.055-17.222-.411-25.4,2.024-6.253,5.878-11.754,8.275-17.872a40.8,40.8,0,0,0-8.484-43.109c-5.355-5.635-8.313-6.412-15.806-6.253q-23.489.5-46.978,1L227.11,99.94l-47.918,1.019c-24.282.516-48.705,1.019-72.847-2.223-6.045-.812-12.063-1.853-18.019-3.194-6.966-1.567-10.119-4.761-10.852,3.494C76.31,112.132,73.3,124.678,71.167,137.612Z" transform="translate(54.959 53.95)" fill="#a3d3ca"/>
    <g id="Group_6323" data-name="Group 6323" transform="translate(83.672 124.618)">
      <path id="Path_16081" data-name="Path 16081" d="M71.616,106.433c-1.22,1.416-1.808,3.117-.344,4.577,1.414,1.41,4.569.411,6.148-.062l6.237-1.871c1.335-.4,2.954-1.184,2.87-2.576a2.768,2.768,0,0,0-1.472-1.953,10.35,10.35,0,0,0-13.438,1.885Z" transform="translate(-27.306 -61.2)" fill="#ffc8a4"/>
      <path id="Path_16082" data-name="Path 16082" d="M57.093,82.215l12.218,37.706,25.343,5.713s-.244,7.04-2.08,7.741-33.89-4.028-35.106-5.915c-.89-1.381-5.719-20.164-8.24-30.12-.955-3.768,1.3-10.552,4.1-13.245Z" transform="translate(-49.004 -82.215)" fill="#e0583d"/>
    </g>
    <g id="Group_6325" data-name="Group 6325" transform="translate(215.646 150.747)">
      <g id="Group_6324" data-name="Group 6324" transform="translate(0)">
        <path id="Path_16083" data-name="Path 16083" d="M118.928,95.8a4.784,4.784,0,0,0-3.717,1.559c-1.577,1.893-.044,4.608,1.2,5.921a14.926,14.926,0,0,0,2.936,2.7,45.918,45.918,0,0,0,4.5,1.875c.824.322,1.587-1.331,1.663-1.891a6.588,6.588,0,0,0-.419-2.793c-.493-1.5-1.44-3.56-2.952-4.3.266-.079,3.442-.024,3.673-.151a28.832,28.832,0,0,0-2.678-2.012A8.467,8.467,0,0,0,118.928,95.8Z" transform="translate(-114.54 -94.574)" fill="#ffc8a4"/>
        <path id="Path_16084" data-name="Path 16084" d="M148.3,95.19a4.77,4.77,0,0,1,3.78,1.4c1.657,1.824.246,4.6-.938,5.969a15.022,15.022,0,0,1-2.817,2.823,46.509,46.509,0,0,1-4.412,2.068c-.81.356-1.645-1.261-1.744-1.818a6.553,6.553,0,0,1,.3-2.807c.429-1.524,1.285-3.621,2.765-4.424-.27-.066-3.442.125-3.677.008a28.792,28.792,0,0,1,2.59-2.125A8.454,8.454,0,0,1,148.3,95.19Z" transform="translate(-87.155 -95.19)" fill="#ffc8a4"/>
      </g>
    </g>
    <path id="Path_16085" data-name="Path 16085" d="M183.59,94.418a4.781,4.781,0,0,1,3.8,1.339c1.684,1.8.312,4.6-.852,5.981a14.976,14.976,0,0,1-2.775,2.866,46.147,46.147,0,0,1-4.382,2.133c-.8.369-1.663-1.236-1.77-1.792a6.558,6.558,0,0,1,.256-2.811c.4-1.53,1.23-3.639,2.7-4.465-.27-.062-3.44.175-3.677.062a28.963,28.963,0,0,1,2.558-2.163A8.458,8.458,0,0,1,183.59,94.418Z" transform="translate(164.314 54.772)" fill="#f6aa7d"/>
    <path id="Path_16086" data-name="Path 16086" d="M218.926,93.2a6.642,6.642,0,0,1,5.26,1.905c2.318,2.517.383,6.386-1.251,8.295a20.778,20.778,0,0,1-3.885,3.945,64,64,0,0,1-6.11,2.91c-1.12.5-2.294-1.734-2.437-2.507a9.13,9.13,0,0,1,.389-3.9c.58-2.121,1.75-5.038,3.8-6.166-.373-.091-4.775.2-5.1.042a40.064,40.064,0,0,1,3.574-2.972A11.78,11.78,0,0,1,218.926,93.2Z" transform="translate(197.463 53.537)" fill="#ffc8a4"/>
    <g id="Group_6326" data-name="Group 6326" transform="translate(430.427 124.429)">
      <path id="Path_16087" data-name="Path 16087" d="M221.195,122.251v-.072c.018-5.4,5.576-12.1,11.307-9.725a7.344,7.344,0,0,1,3.679,3.013c1.283,2.141.489,2.638-1.339,4.154C231.969,122,221.268,131.456,221.195,122.251Z" transform="translate(-221.195 -51.868)" fill="#ffc8a4"/>
      <path id="Path_16088" data-name="Path 16088" d="M254.1,92.748l1.114,30.992-29.268,18.225s3.464,6.319,6.1,6.3,39.009-15.528,39.6-18.476-4.253-47.664-4.253-47.664Z" transform="translate(-216.384 -82.121)" fill="#e0583d"/>
    </g>
    <g id="Group_6327" data-name="Group 6327" transform="translate(157.05 177.465)">
      <path id="Path_16089" data-name="Path 16089" d="M86.211,170.879c-.993-2.082-1.335-5.181.91-7.131,2-1.74,4.72-.842,6.829-2.37,5.214-3.782,5.757-12.451,6.5-17.578,1.1-7.566,1.607-15.113,2.507-22.673.316-2.658.173-7.234,1.8-9.686,1.746-2.638,6.057-3.18,8.075-1.623,3.615,2.787.23,14.014-.254,18.392-.735,6.67-1.557,13.182-2.936,19.812-1.291,6.208-2.364,12.044-6.873,17.405C98.408,170.611,91.966,170.885,86.211,170.879Z" transform="translate(-85.442 -107.957)" fill="#e0583d"/>
      <path id="Path_16090" data-name="Path 16090" d="M136.43,133.488c-1.273,7.076-3.77,13.742-6.664,20.551-2.062,4.855-6.182,12.383-11.867,13.943-15.113,4.15-14.62-16.43-13.609-25.738a88.474,88.474,0,0,1,4.567-20.094c2.6-7.223,5.776-10.5,13.291-11.658,5.185-.8,10.46.922,13.212,4.861C138.69,120.119,136.829,127.6,136.43,133.488Zm-20.516,23.865c4.722-6.128,7.159-13.12,8.834-20.241.993-4.229,4.9-16.8-.64-18.188C114.919,116.629,113.953,151.933,115.914,157.354Z" transform="translate(-66.772 -106.587)" fill="#e0583d"/>
      <path id="Path_16091" data-name="Path 16091" d="M133.9,158.215c-.671,4.09-6,5.1-8.242,2.578-2.558-2.884-.282-10.208.316-13.964.991-6.223,2.314-12.437,3.7-18.646.856-3.84,1.16-12.139,3.873-15.452,1.877-2.294,5.616-1.454,7.03.453,2.112,2.85-.757,8.921-1.4,12.445C137.185,136.5,135.5,147.348,133.9,158.215Z" transform="translate(-45.879 -105.529)" fill="#e0583d"/>
      <path id="Path_16092" data-name="Path 16092" d="M149.9,144.2c-2.314,4.45-2.219,11.662-3,16.362-.53,3.18-.226,9.193-4.493,10.379-10.145,2.821-3.373-18.664-2.67-22.987.9-5.528,1.363-11.219,3.013-16.706,1.371-4.559,2.743-10.874,8.432-10.387,10.234.878,5.548,16.678,9.485,23.094,2.825-2.151,2.413-12.554,2.719-15.655.489-4.926-.083-12.391,2.048-17.166,1.943-4.354,7.628-2.86,8.528.725,1.2,4.771-.993,12.548-1.357,17.723-.393,5.528-1.833,10.971-2.394,16.467-.465,4.545.4,11.682-4.35,15.043C155,168.759,153.317,148.029,149.9,144.2Z" transform="translate(-33.31 -108.457)" fill="#e0583d"/>
      <path id="Path_16093" data-name="Path 16093" d="M179.1,145.159c2.682-1.673,3.3-7.866,3.947-10.387,1.087-4.239,1.947-8.43,2.805-12.681.55-2.713.783-6,4.026-6.893,2.421-.667,5.574,1.279,5.88,3.454.389,2.761-1.617,7.646-2.151,10.7a105.99,105.99,0,0,1-2.848,11.779c-1.77,5.963-4.189,15.891-12.089,15.9-14.979.014-8.927-25.7-6.013-35.022.729-2.332,1.577-6.259,4.479-6.992,3.208-.812,5.214,1.929,5.192,4.426C182.259,127.787,177.422,136.893,179.1,145.159Z" transform="translate(-0.779 -101.957)" fill="#e0583d"/>
      <path id="Path_16094" data-name="Path 16094" d="M196.938,145.221c.834-5.663-3.417-9.954-2.976-15.758.441-5.786,3.015-12.632,8.579-16.267,3.059-2,10.663-2.839,8.865,2.8-.679,2.135-4.064,3.593-5.453,5.314a15.5,15.5,0,0,0-3.1,8.482c-.385,5.614,3.252,9.8,3.186,15.43a20.666,20.666,0,0,1-8.536,16.251c-2.827,2.084-13.734,4.815-10.675-2.038,1.031-2.308,5.419-4,7.121-6.211A15.327,15.327,0,0,0,196.938,145.221Z" transform="translate(16.801 -105.188)" fill="#e0583d"/>
      <path id="Path_16095" data-name="Path 16095" d="M212.359,163.915c-.5,2.171-3.013,3.494-4.99,3.52-1.957.026-4.128-1.267-4.4-3.18-.485-3.389,2.608-3.707,5.32-4.426C210.273,160.57,213.019,161.039,212.359,163.915Zm7.3-41.949c-1.184,4.442-1.994,8.907-2.972,13.361-.876,3.987-.971,9.211-2.515,13.086-2.709,6.782-10.192,1.893-9.159-3.609,2.1-8.959,3.319-19.379,7.089-28.05,1.543-3.544,5.049-6.48,8.208-3.405C222.585,115.558,220.484,118.883,219.661,121.966Z" transform="translate(33.653 -104.807)" fill="#e0583d"/>
    </g>
    <g id="Group_4669-2" data-name="Group 4669" transform="translate(14.808 106.655)">
      <path id="Path_9639-2" data-name="Path 9639" d="M48.433,87.931l2.545,23.438,2.586-17q.547.81,1.073,1.655c10.288,16.584,9.07,42.02,9.07,42.02l5.749-26.072a75.325,75.325,0,0,1,14.1,27.516L71.827,168.875l14.066-18.493c3.8,21.974-.723,34.214-.723,34.214l9.549-6.5s3.838,12.51,4.11,24.478-6.519,23.306-6.519,23.306l6.6-2.531s4.356,20.543-13.782,36.337L27.171,73.3A60.149,60.149,0,0,1,48.433,87.931Z" transform="translate(-2.275 -73.295)" fill="#244854"/>
      <path id="Path_9640-2" data-name="Path 9640" d="M39.7,73.3,97.661,259.689S80.334,259.262,70.2,253.3,59.88,239.809,59.88,239.809l10.858,1.208s-16.153-9.964-26-20.738-11.932-26.115-11.932-26.115l18.434,3.689s-18.388-15.609-26.113-28.711-7.991-31.695-7.991-31.695l16.014,5.085S22.337,129.405,18.13,116.394s-3.222-19.483-3.222-19.483L26.643,104s-2.61-11.877-1.728-20.583S39.7,73.3,39.7,73.3Z" transform="translate(-14.808 -73.295)" fill="#1b3642"/>
      <g id="Group_4667-2" data-name="Group 4667" transform="translate(39.911 17.561)">
        <line id="Line_79-2" data-name="Line 79" x2="1.618" y2="20.92" fill="none" stroke="#1f6051" stroke-miterlimit="10" stroke-width="1"/>
        <line id="Line_80-2" data-name="Line 80" x1="2.031" y2="13.351" transform="translate(7.063 27.594)" fill="none" stroke="#1f6051" stroke-miterlimit="10" stroke-width="1"/>
        <line id="Line_81-2" data-name="Line 81" x1="3.896" y2="25.619" transform="translate(10.97 28.472)" fill="none" stroke="#1f6051" stroke-miterlimit="10" stroke-width="1"/>
        <line id="Line_82-2" data-name="Line 82" x1="3.858" y2="15.656" transform="translate(16.792 51.132)" fill="none" stroke="#1f6051" stroke-miterlimit="10" stroke-width="1"/>
        <line id="Line_83-2" data-name="Line 83" x1="9.759" y2="37.463" transform="translate(21.201 44.025)" fill="none" stroke="#1f6051" stroke-miterlimit="10" stroke-width="1"/>
        <line id="Line_84-2" data-name="Line 84" x1="5.09" y2="15.422" transform="translate(24.552 78.021)" fill="none" stroke="#1f6051" stroke-miterlimit="10" stroke-width="1"/>
        <line id="Line_85-2" data-name="Line 85" x1="13.079" y2="35.666" transform="translate(27.92 72.686)" fill="none" stroke="#1f6051" stroke-miterlimit="10" stroke-width="1"/>
        <line id="Line_86-2" data-name="Line 86" x1="8.564" y2="22.324" transform="translate(33.481 99.795)" fill="none" stroke="#1f6051" stroke-miterlimit="10" stroke-width="1"/>
        <line id="Line_87-2" data-name="Line 87" x1="11.716" y2="28.49" transform="translate(38.549 103.998)" fill="none" stroke="#1f6051" stroke-miterlimit="10" stroke-width="1"/>
        <line id="Line_88-2" data-name="Line 88" x1="7.744" y2="17.773" transform="translate(40.753 124.494)" fill="none" stroke="#1f6051" stroke-miterlimit="10" stroke-width="1"/>
        <line id="Line_89-2" data-name="Line 89" x1="7.829" y2="14.402" transform="translate(41.506 139.493)" fill="none" stroke="#1f6051" stroke-miterlimit="10" stroke-width="1"/>
        <line id="Line_90-2" data-name="Line 90" x1="7.98" y2="11.38" transform="translate(44.418 147.756)" fill="none" stroke="#1f6051" stroke-miterlimit="10" stroke-width="1"/>
      </g>
      <g id="Group_4668-2" data-name="Group 4668" transform="translate(16.471 14.175)">
        <line id="Line_91-2" data-name="Line 91" x2="10.735" y2="18.028" fill="none" stroke="#1f6051" stroke-miterlimit="10" stroke-width="1"/>
        <line id="Line_92-2" data-name="Line 92" x2="9.354" y2="9.74" transform="translate(8.472 27.791)" fill="none" stroke="#1f6051" stroke-miterlimit="10" stroke-width="1"/>
        <line id="Line_93-2" data-name="Line 93" x2="17.949" y2="18.69" transform="translate(4.26 31.836)" fill="none" stroke="#1f6051" stroke-miterlimit="10" stroke-width="1"/>
        <line id="Line_94-2" data-name="Line 94" x2="12.176" y2="10.572" transform="translate(12.595 53.687)" fill="none" stroke="#1f6051" stroke-miterlimit="10" stroke-width="1"/>
        <line id="Line_95-2" data-name="Line 95" x2="29.566" y2="24.991" transform="translate(0.073 53.821)" fill="none" stroke="#1f6051" stroke-miterlimit="10" stroke-width="1"/>
        <line id="Line_96-2" data-name="Line 96" x2="13.047" y2="9.669" transform="translate(20.742 80.844)" fill="none" stroke="#1f6051" stroke-miterlimit="10" stroke-width="1"/>
        <line id="Line_97-2" data-name="Line 97" x2="31.244" y2="21.61" transform="translate(8.386 83.029)" fill="none" stroke="#1f6051" stroke-miterlimit="10" stroke-width="1"/>
        <line id="Line_98-2" data-name="Line 98" x2="19.865" y2="13.308" transform="translate(23.156 105.785)" fill="none" stroke="#1f6051" stroke-miterlimit="10" stroke-width="1"/>
        <line id="Line_99-2" data-name="Line 99" x2="25.994" y2="16.53" transform="translate(18.86 113.958)" fill="none" stroke="#1f6051" stroke-miterlimit="10" stroke-width="1"/>
        <line id="Line_100-2" data-name="Line 100" x2="16.572" y2="10.061" transform="translate(32.116 129.689)" fill="none" stroke="#1f6051" stroke-miterlimit="10" stroke-width="1"/>
        <line id="Line_101-2" data-name="Line 101" x2="14.699" y2="7.257" transform="translate(40.077 142.43)" fill="none" stroke="#1f6051" stroke-miterlimit="10" stroke-width="1"/>
        <line id="Line_102-2" data-name="Line 102" x2="13.08" y2="4.701" transform="translate(42.337 150.946)" fill="none" stroke="#1f6051" stroke-miterlimit="10" stroke-width="1"/>
      </g>
    </g>
    <g id="Group_4672-2" data-name="Group 4672" transform="translate(44.848 151.124)">
      <path id="Path_9641-2" data-name="Path 9641" d="M43.215,117.7A93.064,93.064,0,0,0,61.8,153.223a90.951,90.951,0,0,0,7.888,8.285.851.851,0,0,1,.25,1.067.832.832,0,0,1-1.023.4q-.571-.257-1.142-.511c-.979-.439-.4-2.006.58-1.567l1.142.511-.771,1.466a94.437,94.437,0,0,1-27.16-44.905.839.839,0,0,1,.691-.957.857.857,0,0,1,.955.693Z" transform="translate(-17.731 -73.453)" fill="#2a8d7b"/>
      <path id="Path_9642-2" data-name="Path 9642" d="M29.852,120.638c2.235,5.137,10.929,9.126,12.54,8.321s-10.858-7.846-11.281-10.985,2.253-8.375,2.253-8.375c.077,1.8,5.647,8.285,7.84,7.719s-3.659-3.6-5.705-8.009S42.16,95.377,42.16,95.377A11.153,11.153,0,0,0,49.331,99.5c4.547.514,13.108,1.037,14.129,7,.785,4.585-9.9,11.39-8.756,11.289s11.048-5,10.882-10.667c0,0,8.977,9.11,4.9,14.966s-10.758,9.143-9.41,9.833,10.733-5.685,11.565-12.524c0,0,9.072,16.99-.322,24.872s-17.741-.8-17.741-.8c-6.448,10.238-15.2,8.73-20.889,2.326C28.643,140.121,29.852,120.638,29.852,120.638Zm33.193-.953a9.529,9.529,0,0,0,2.485-.926c.612-.463.369-1.12-.318-1.234-.963-.165-1.887-.222-2.211.57s-.385,1.659.044,1.589Zm-2.261,17.047c2.01-.4,6.474-1.673,7.225-2.721a1.461,1.461,0,0,0-.22-1.81c-.942-.614-2-.461-3.675.745s-5.314,1.452-5.5,2.155.155,2.028,2.167,1.629ZM54.3,123.572c.691.471,3.74-.729,4.571-1.182,1.194-.65,3.452-.812,2.314-2.223-.687-.85-2.733-.026-4.229,1.091S53.6,123.1,54.293,123.57Zm-10.4-12.514a3.043,3.043,0,0,0-1.71-1.635c-1.945-.92-3.436-1.186-2.519.163s2.072,3.164,2.717,3.282l.018,0a1.36,1.36,0,0,0,1.494-1.814Zm-.364,25.921c4.469.066,7.9.584,6.118-1.579,0,0-.725-1.154-3.172-.949s-3.458-.874-5.03-.59-2.384,3.053,2.084,3.117Zm-7-1.12c1.806-.369,2.674-.145,2.642-.991a1.357,1.357,0,0,0-.793-1.158,4.335,4.335,0,0,0-2.521-.217c-.785.159-1.589,2.825.673,2.366Z" transform="translate(-29.725 -95.377)" fill="#2a8d7b"/>
      <g id="Group_4671-2" data-name="Group 4671" transform="translate(7.049 0.004)">
        <g id="Group_4670-2" data-name="Group 4670">
          <path id="Path_9643-2" data-name="Path 9643" d="M48.721,114.43c.711-.415,1.41-.838,2.088-1.259.324-.2.618.314.294.514-.7.433-1.422.87-2.159,1.295A1.747,1.747,0,0,0,48.721,114.43Z" transform="translate(-17.516 -77.387)" fill="#2a8d7b"/>
          <path id="Path_9644-2" data-name="Path 9644" d="M50.066,135.977l-.087-.028a.323.323,0,0,1-.093-.052q-1.67.19-3.345.25a1.873,1.873,0,0,0-.308-.572q1.864-.054,3.723-.27c-.183-1.108-.389-2.205-.63-3.293-.554-2.5-1.261-4.95-2.048-7.374a19.043,19.043,0,0,1-13.968-5.743.3.3,0,1,1,.419-.417h0a18.436,18.436,0,0,0,13.355,5.57c-1-3.019-2.116-6-3.22-8.992a16.383,16.383,0,0,1-4-2.421,1.4,1.4,0,0,0,.387-.435,15.522,15.522,0,0,0,3.333,2.094c-.912-2.487-1.8-4.976-2.6-7.5a63.951,63.951,0,0,1-2.564-11.2l.191-.213s.151.207.441.528c.844,6.311,2.948,12.375,5.147,18.36a16.566,16.566,0,0,0,3.889-6.946.3.3,0,0,1,.568.161,17.159,17.159,0,0,1-4.2,7.379l-.024.024q.511,1.386,1.023,2.773c1.43,3.895,2.825,7.811,3.873,11.829a25.067,25.067,0,0,0,11.005-7.536c.246-.292.663.129.417.419a25.67,25.67,0,0,1-11.277,7.691l.02.083c.447,1.782.789,3.578,1.089,5.385a11.755,11.755,0,0,0,4.523.415,1.23,1.23,0,0,0,.391.55,12.385,12.385,0,0,1-4.811-.32c.377,2.364.683,4.744,1.035,7.117l.145.936c-.332-.274-.568-.491-.7-.62C50.777,141.062,50.469,138.5,50.066,135.977Z" transform="translate(-33.225 -95.379)" fill="#1f6051"/>
          <path id="Path_9645-2" data-name="Path 9645" d="M34.443,115.143a1.234,1.234,0,0,0-.052-.308q.577.13,1.158.242a1.229,1.229,0,0,0-.081.584c-.356-.068-.713-.143-1.067-.22A.754.754,0,0,0,34.443,115.143Z" transform="translate(-32.044 -75.655)" fill="#2a8d7b"/>
          <path id="Path_9646-2" data-name="Path 9646" d="M35,101.333a15.76,15.76,0,0,0,.959,1.619,3.631,3.631,0,0,0-.824-.181q-.344-.556-.648-1.14C34.314,101.291,34.823,100.995,35,101.333Z" transform="translate(-31.985 -89.494)" fill="#2a8d7b"/>
        </g>
      </g>
    </g>
    <g id="Group_4680-2" data-name="Group 4680" transform="translate(39.342 175.76)">
      <path id="Path_9677-2" data-name="Path 9677" d="M35.722,114.841a34.424,34.424,0,0,0-.079,5.727,61.686,61.686,0,0,0,2.431,14.163A67.493,67.493,0,0,0,47.1,153.76a49.986,49.986,0,0,0,7.683,9.171,50.593,50.593,0,0,0,9.775,6.756A65.869,65.869,0,0,0,78.6,175.474c.171.046.518-.512.312-.568a64.936,64.936,0,0,1-11.7-4.589,56.913,56.913,0,0,1-9.743-6.011,44.078,44.078,0,0,1-8.293-8.716,65.923,65.923,0,0,1-13.027-34.281,36.748,36.748,0,0,1,.008-6.869c.026-.22-.419.217-.439.395Z" transform="translate(-18.303 -100.749)" fill="#e9b54d"/>
      <path id="Path_9678-2" data-name="Path 9678" d="M44.757,123.138c-8.252,2.87-17.766-7.451-17.766-7.451s8.595-1.313,12.681,1.806S44.757,123.138,44.757,123.138Z" transform="translate(-26.991 -99.702)" fill="#e9b54d"/>
      <path id="Path_9679-2" data-name="Path 9679" d="M36.9,122.314c-4.545-4.883-.266-14.7-.266-14.7s3.564,5.6,2.642,9.414S36.9,122.314,36.9,122.314Z" transform="translate(-19.069 -107.611)" fill="#e9b54d"/>
      <path id="Path_9680-2" data-name="Path 9680" d="M45.452,125.676c-9.189,2.4-17.752-5.846-17.752-5.846s7.272-1.075,10.953.344S45.452,125.676,45.452,125.676Z" transform="translate(-26.272 -95.619)" fill="#e9b54d"/>
      <path id="Path_9681-2" data-name="Path 9681" d="M46.391,129.3c-9.189,2.4-17.752-5.846-17.752-5.846s7.272-1.073,10.953.346S46.391,129.3,46.391,129.3Z" transform="translate(-25.32 -91.947)" fill="#e9b54d"/>
      <path id="Path_9682-2" data-name="Path 9682" d="M46.824,129.6c-7.4,5.194-17.014.137-17.014.137s6.072-3.333,9.652-3.166S46.824,129.6,46.824,129.6Z" transform="translate(-24.133 -88.392)" fill="#e9b54d"/>
      <path id="Path_9683-2" data-name="Path 9683" d="M48.214,132.845c-7.36,5.016-16.992.044-16.992.044s6.043-3.208,9.62-3.025S48.214,132.845,48.214,132.845Z" transform="translate(-22.702 -85.058)" fill="#e9b54d"/>
      <path id="Path_9684-2" data-name="Path 9684" d="M50.125,135.064c-6.213,6.382-16.642,3.429-16.642,3.429s5.284-4.348,8.826-4.883S50.125,135.064,50.125,135.064Z" transform="translate(-20.41 -81.346)" fill="#e9b54d"/>
      <path id="Path_9685-2" data-name="Path 9685" d="M52.174,138.289c-6.213,6.384-16.642,3.431-16.642,3.431s5.282-4.346,8.824-4.883S52.174,138.289,52.174,138.289Z" transform="translate(-18.332 -78.075)" fill="#e9b54d"/>
      <path id="Path_9686-2" data-name="Path 9686" d="M54.645,140.784c-4.829,7.485-15.637,6.658-15.637,6.658s4.32-5.308,7.687-6.533S54.645,140.784,54.645,140.784Z" transform="translate(-14.808 -74.44)" fill="#e9b54d"/>
      <path id="Path_9687-2" data-name="Path 9687" d="M57.739,142.755c-3.7,8.1-14.513,8.832-14.513,8.832s3.512-5.874,6.668-7.572S57.739,142.755,57.739,142.755Z" transform="translate(-10.532 -72.033)" fill="#e9b54d"/>
      <path id="Path_9688-2" data-name="Path 9688" d="M59.991,144.369c-2.453,8.563-13.037,10.9-13.037,10.9s2.6-6.333,5.463-8.482S59.991,144.369,59.991,144.369Z" transform="translate(-6.753 -70.346)" fill="#e9b54d"/>
      <path id="Path_9689-2" data-name="Path 9689" d="M40.909,123.054c-8.365-1.667-10.693-12.741-10.693-12.741s5.5,2.592,7.87,5.82A16.517,16.517,0,0,1,40.909,123.054Z" transform="translate(-23.722 -104.872)" fill="#e9b54d"/>
      <path id="Path_9690-2" data-name="Path 9690" d="M35.784,124.87c-.31-8.52,9.924-13.347,9.924-13.347s-1.253,5.953-3.844,9A16.5,16.5,0,0,1,35.784,124.87Z" transform="translate(-18.083 -103.645)" fill="#e9b54d"/>
      <path id="Path_9691-2" data-name="Path 9691" d="M36.485,129.983c-.344-9.529,11.094-14.922,11.094-14.922s-1.4,6.66-4.3,10.063A18.407,18.407,0,0,1,36.485,129.983Z" transform="translate(-17.374 -100.058)" fill="#e9b54d"/>
      <path id="Path_9692-2" data-name="Path 9692" d="M37.483,133.492c-.344-9.527,11.094-14.922,11.094-14.922s-1.4,6.66-4.3,10.063A18.424,18.424,0,0,1,37.483,133.492Z" transform="translate(-16.362 -96.501)" fill="#e9b54d"/>
      <path id="Path_9693-2" data-name="Path 9693" d="M38.914,137.594c-.6-9.515,10.693-15.212,10.693-15.212s-1.222,6.69-4.026,10.172A18.446,18.446,0,0,1,38.914,137.594Z" transform="translate(-14.927 -92.636)" fill="#e9b54d"/>
      <path id="Path_9694-2" data-name="Path 9694" d="M41.452,141.093c-.6-9.515,10.693-15.21,10.693-15.21s-1.224,6.69-4.026,10.17A18.418,18.418,0,0,1,41.452,141.093Z" transform="translate(-12.355 -89.087)" fill="#e9b54d"/>
      <path id="Path_9695-2" data-name="Path 9695" d="M43.887,144c-.6-9.515,10.693-15.212,10.693-15.212s-1.222,6.69-4.026,10.172A18.423,18.423,0,0,1,43.887,144Z" transform="translate(-9.886 -86.146)" fill="#e9b54d"/>
      <path id="Path_9696-2" data-name="Path 9696" d="M46.977,146.306c-.6-9.513,10.693-15.212,10.693-15.212s-1.222,6.692-4.026,10.172A18.44,18.44,0,0,1,46.977,146.306Z" transform="translate(-6.753 -83.804)" fill="#e9b54d"/>
      <path id="Path_9697-2" data-name="Path 9697" d="M50.244,148.231c-.6-9.515,10.7-15.212,10.7-15.212s-1.224,6.69-4.028,10.172A18.423,18.423,0,0,1,50.244,148.231Z" transform="translate(-3.441 -81.853)" fill="#e9b54d"/>
      <path id="Path_9698-2" data-name="Path 9698" d="M53.218,149.909c-.6-9.515,10.691-15.212,10.691-15.212s-1.222,6.69-4.026,10.172A18.472,18.472,0,0,1,53.218,149.909Z" transform="translate(-0.426 -80.152)" fill="#e9b54d"/>
    </g>
    <g id="Group_6333" data-name="Group 6333" transform="translate(59.106 64.606)">
      <path id="Path_16096" data-name="Path 16096" d="M108.07,115.628c-.429-2.845,1.547-5.62,2.624-8.387a14.75,14.75,0,0,0-1.994-13.9,24.838,24.838,0,0,1-1.957-2.6,12.137,12.137,0,0,0-1.806-2.668c-1.651-1.724-3.76-3.021-5.069-5.061-2.149-3.345-1.953-8.4-2.721-12.218a11.657,11.657,0,0,0-7.054-8.754,12.47,12.47,0,0,0-10.675.612l3.073,1.329c-1.692.1-3.385.318-5.063.538-3.5.459-7.83,1.234-10.129,4.239a22.951,22.951,0,0,0-1.7,3.484,14.362,14.362,0,0,1-4.124,4.686c-2.259,1.577-5.012,2.165-7.2,3.985-2.064,1.722-4.4,4.912-3.868,7.777.28,1.51.932,2.521.689,4.152a8.585,8.585,0,0,1-1.959,4.229c-2.106,2.465-5.127,3.921-7.715,5.872s-4.922,4.861-4.581,8.083c.574,5.419,8.112,8.2,8.3,13.649.089,2.515-1.488,4.757-2.143,7.185-1.24,4.608,1.053,9.634,4.684,12.729s8.371,4.561,13.061,5.433a65.965,65.965,0,0,0,41.993-6.192c4.022-2.076,7.95-4.7,10.335-8.542s2.868-9.157.143-12.771c-1.623-2.153-4.273-3.655-5-6.251A5.158,5.158,0,0,1,108.07,115.628Z" transform="translate(-36.806 -43.586)" fill="#003c7f"/>
      <path id="Path_16097" data-name="Path 16097" d="M53.18,127.575c4.976,3.792,8.627,4.72,13.055,4.5,5.55-.27,18.052.016,18.773-6.178-2.852-9.267-2.127-20.547-2.243-30.932q-6.905,1.951-13.811,3.9c-2.964.838-9.545,1.321-10.472,4.338-.522,1.7.093,4.457-.048,6.291a46.368,46.368,0,0,1-.916,6.249C57.21,117.16,54.727,127.575,53.18,127.575Z" transform="translate(-20.205 -9.272)" fill="#ffc8a4"/>
      <path id="Path_16098" data-name="Path 16098" d="M69.271,105.882a16.03,16.03,0,0,0,7.209-1.518,7.219,7.219,0,0,0,4.036-5.836q-11.177,1.6-22.353,3.21c-4.9.7-1.434,2.564,1.337,3.25A37.483,37.483,0,0,0,69.271,105.882Z" transform="translate(-17.648 -5.665)" fill="#f18b97" opacity="0.32"/>
      <g id="Group_6328" data-name="Group 6328" transform="translate(46.322 187.383)">
        <path id="Path_16099" data-name="Path 16099" d="M72.384,145.464s3.438,10.117,9.708,55.045c1.081,1.563,2.568,4.255,1.939,6.335s-11.9.062-10.8-3.6c3.482-11.531-10.413-34.77-13.428-44.269l.5-11.4Z" transform="translate(-59.808 -145.464)" fill="#ffc8a4"/>
        <path id="Path_16100" data-name="Path 16100" d="M66.969,172.181c3.758.934,5.028.757,8.9.272l6.716,4.837s7.7,5.19,7.074,7.27-21.292-3.293-21.292-3.293A3.411,3.411,0,0,1,66,176.722C66.667,174.507,67.332,174.1,66.969,172.181Z" transform="translate(-53.753 -118.379)" fill="#e0583d"/>
      </g>
      <g id="Group_6329" data-name="Group 6329" transform="translate(29.34 180.491)">
        <path id="Path_16101" data-name="Path 16101" d="M80.052,146.021s-1.873,10.52-18.07,52.892c.193,1.891.2,4.966-1.361,6.486s-10.452-5.693-7.717-8.363c8.617-8.418,7.666-35.477,9.614-45.252l5.939-9.743Z" transform="translate(-50.351 -142.042)" fill="#ffc8a4"/>
        <path id="Path_16102" data-name="Path 16102" d="M55.666,167.57c2.839,2.63,4.038,3.089,7.658,4.531l3.546,7.479s4.241,8.263,2.686,9.783S52.5,176.2,52.5,176.2a3.411,3.411,0,0,1,.123-5.123C54.279,169.459,55.058,169.421,55.666,167.57Z" transform="translate(-51.375 -116.162)" fill="#e0583d"/>
      </g>
      <path id="Path_16103" data-name="Path 16103" d="M89.3,117.056s.26,2.408.238,8.079c-.034,9.1-2.63,20.047-3.8,24-1.9,6.416-19.961,63.686-19.961,63.686s-10.931-.24-11.644-4.992,15.446-85.308,15.446-85.308Z" transform="translate(-19.267 13.119)" fill="#522b59"/>
      <path id="Path_16104" data-name="Path 16104" d="M89.3,117.056s.26,2.408.238,8.079c-.034,9.1-2.63,20.047-3.8,24-1.9,6.416-19.961,63.686-19.961,63.686s-10.931-.24-11.644-4.992,15.446-85.308,15.446-85.308Z" transform="translate(-19.267 13.119)" fill="#3c96d2"/>
      <path id="Path_16105" data-name="Path 16105" d="M58.33,113.748a51.981,51.981,0,0,0,28.7-17.518c6.875-8.341,10.282-18.1,11.992-28.543a8.871,8.871,0,0,0,.113-3.24c-.1-.493-2.185-7.88.6-4.587a10.251,10.251,0,0,0,1.166,1.553c-.638-.518.014-6.5.083-7.5a2.161,2.161,0,0,1,.3-1.124.821.821,0,0,1,1.051-.282,1.155,1.155,0,0,1,.36.469q.695,1.323,1.385,2.646a2.318,2.318,0,0,1,2.314.546,4.781,4.781,0,0,1,1.224,2.1c2.129,6.456-2.572,9.98-4.086,15.848-.612,2.376-1.772,4.491-2.1,6.923C98.3,104,81.674,119.39,59.869,127.357c-.606.222-.65,1.708-.4,1.132" transform="translate(-14.984 -52.414)" fill="#ffc8a4"/>
      <path id="Path_16106" data-name="Path 16106" d="M66.087,101.008c5.727-1,10.675-4.581,14.322-8.955s6.146-9.525,8.561-14.646c2.7-5.739,5.351-11.549,6.849-17.7l6.138,2.632a91.236,91.236,0,0,1-4.567,21.145A56.466,56.466,0,0,1,90.23,98.013c-4.1,5.737-9.612,10.351-15.067,14.9-4.42,3.687-8.911,7.417-14.191,9.831" transform="translate(-12.306 -45.023)" fill="#e0583d"/>
      <path id="Path_16107" data-name="Path 16107" d="M62.609,122.822q14.384-1.988,28.767-3.973c.032,0-.181-10.8-.163-11.565a37.95,37.95,0,0,1,1.055-8.021,7.82,7.82,0,0,0-1.6-6.035C89.112,91.023,87,89.285,85.415,87.1c-1.136-1.563-2.884-4.9-4.257-6.275-1.808-1.812-7.111,1.49-9.569.465.4-.552.8-1.688-.173-1.178-2.823,1.482-.671,1.4-3.385-.278-.924-.57-1.877.377-4.005.876-2.394.564-11.08,2.386-12.266,4.382-2.847,4.795.628,10.466,1.134,15.734.661,6.889,1.7,16.12,2.36,23.012Q58.931,123.329,62.609,122.822Z" transform="translate(-22.771 -24.793)" fill="#e0583d"/>
      <g id="Group_6332" data-name="Group 6332" transform="translate(29.227 15.41)">
        <path id="Path_16108" data-name="Path 16108" d="M57.391,77.2c.163,3.929-1.361,8.214,1.039,11.618a25.971,25.971,0,0,0,7.9,6.829c.689.421,3.256,2.406,4.1,1.784,1.136-.842-1.212-5.175-1.706-6.331a20.638,20.638,0,0,1-1.641-9.4q.063-4.292.125-8.585Z" transform="translate(-45.496 -46.834)" fill="#ffc8a4"/>
        <path id="Path_16109" data-name="Path 16109" d="M67.939,83.25,66.573,73.119,56.756,77.2l.3,7.378C60.32,84.761,64.934,84.567,67.939,83.25Z" transform="translate(-45.807 -46.834)" fill="#16121f" opacity="0.12"/>
        <path id="Path_16110" data-name="Path 16110" d="M78.3,84.031a13.021,13.021,0,0,1-2.723,5.411,7.2,7.2,0,0,1-4.4,2.362c-5.469,1.365-12.963-.169-14.594-7.28-.995.52-2.131-.453-2.417-1.655a9.638,9.638,0,0,1,.183-3.194c.077-.914.038-1.8.161-2.725a18.762,18.762,0,0,1,1.778-6.541,11.127,11.127,0,0,1,4.73-4.5,24.638,24.638,0,0,1,5.792-1.911c3.347-.787,8.3-1.7,10.472,2.251,1.259,2.29.356,6.472.679,9.153C78.3,78.225,78.913,81.131,78.3,84.031Z" transform="translate(-48.524 -56.783)" fill="#ffc8a4"/>
        <g id="Group_6331" data-name="Group 6331" transform="translate(1.922 18.798)">
          <g id="Group_6330" data-name="Group 6330">
            <path id="Path_16111" data-name="Path 16111" d="M53.638,69.564a2.945,2.945,0,0,0-1.355,2.57,6.9,6.9,0,0,0,4.825,6.811,2.36,2.36,0,0,0,2.509-.453,2.644,2.644,0,0,0-.062-2.628C58.856,74.224,56.127,68.352,53.638,69.564Z" transform="translate(-52.273 -69.401)" fill="#ffc8a4"/>
          </g>
        </g>
        <path id="Path_16112" data-name="Path 16112" d="M73.233,61.554a14.325,14.325,0,0,1,4.934,3.51c1.851,2.068,2.6,4.771,3.107,7.437.252,1.333.431,2.68.673,4.016.193,1.069.959,2.743.52,3.764A1.793,1.793,0,0,1,80.938,81.4a1.759,1.759,0,0,0-.876-2.878,17.425,17.425,0,0,0-4.229-.427A14.213,14.213,0,0,1,64.7,72.577a8.815,8.815,0,0,1-3.74,5.469,3.13,3.13,0,0,0-1.206,1.1,2.724,2.724,0,0,0,.262,2.028,11.563,11.563,0,0,1-1.724,11.042,13.616,13.616,0,0,0-1.029-9.58A3.579,3.579,0,0,0,55.3,80.647c-.948-.29-2.213.4-2.006,1.3-1.444-3.856-2.515-7.987-1.7-11.972C53.472,60.9,65.059,57.967,73.233,61.554Z" transform="translate(-51.319 -60.066)" fill="#003c7f"/>
      </g>
      <path id="Path_16113" data-name="Path 16113" d="M57.242,109.74s-6.178,6.416-6.891,19.961c-.888,16.876,28.04,91.251,28.04,91.251s9.743,1.663,11.406-1.19-13.782-87.922-13.782-87.922l17.109-6.891s-.713-9.267-5.228-14.02C84.8,115.7,57.242,109.74,57.242,109.74Z" transform="translate(-23.094 5.702)" fill="#4c9ad5"/>
      <path id="Path_16114" data-name="Path 16114" d="M75.6,103.66a47.108,47.108,0,0,0,8.649-3.087,5.351,5.351,0,0,1-2.668,3.689,14.169,14.169,0,0,1-4.116,1.22c-15.963,3.589-23.348,5.091-21.6-16.437.29-3.554,6.283,15.234,7.886,15.77C67.351,106.02,71.94,104.572,75.6,103.66Z" transform="translate(-17.74 -15.73)" fill="#f18b97" opacity="0.32"/>
      <path id="Path_16115" data-name="Path 16115" d="M53.763,112.045l1.347-4.579s20.527,3.5,29.413,1.377c1-1.126-.107,4.39-.107,4.39s.858,2.618-11.034,1.867A96.77,96.77,0,0,1,53.763,112.045Z" transform="translate(-19.614 3.397)" fill="#63a7d1"/>
      <path id="Path_16116" data-name="Path 16116" d="M57.98,130.969c3.379-6.007-.751-40.05-.751-40.05L81.3,86.908a2.354,2.354,0,0,1,2.735,2.5L81.01,129.719l-5.508,2.5S60.874,134.274,57.98,130.969Z" transform="translate(-16.101 -17.479)" fill="#4c9ad5"/>
      <path id="Path_16117" data-name="Path 16117" d="M66.021,102.08C65.145,96.2,52.754,81.8,52.754,81.8l3.5-1S70.026,94.2,70.528,102.831C70.614,104.335,66.242,103.572,66.021,102.08Z" transform="translate(-20.637 -23.633)" fill="#4c9ad5"/>
      <path id="Path_16118" data-name="Path 16118" d="M74.589,98.332C73.214,90.071,62.45,80.059,62.45,80.059l3.127-.125S77.968,91.2,78.47,99.834C78.556,101.339,74.837,99.818,74.589,98.332Z" transform="translate(-10.808 -24.515)" fill="#4c9ad5"/>
      <path id="Path_16119" data-name="Path 16119" d="M61.015,93.125s-.751,7.385,1.627,8.385a48.5,48.5,0,0,0,7.759,1.877l4.13-2.628L74.656,91Z" transform="translate(-12.377 -13.3)" fill="#fff"/>
      <circle id="Ellipse_219" data-name="Ellipse 219" cx="1.189" cy="1.189" r="1.189" transform="translate(45.134 73.817)" fill="#fff"/>
      <circle id="Ellipse_220" data-name="Ellipse 220" cx="1.189" cy="1.189" r="1.189" transform="translate(63.219 70.75)" fill="#fff"/>
    </g>
  </g>
</svg>
