<svg xmlns="http://www.w3.org/2000/svg" xmlns:xlink="http://www.w3.org/1999/xlink" width="484.57" height="316.307" viewBox="0 0 484.57 316.307">
  <defs>
    <clipPath id="clip-path">
      <path id="Path_15136" data-name="Path 15136" d="M98.611,117.288H95.2a3.217,3.217,0,0,0-2.93,2.268L65.081,194.213h63.653l-27.193-74.657A3.217,3.217,0,0,0,98.611,117.288Z" transform="translate(-65.081 -117.288)" fill="none"/>
    </clipPath>
    <clipPath id="clip-path-2">
      <path id="Path_15138" data-name="Path 15138" d="M128.19,125H126.12a1.954,1.954,0,0,0-1.78,1.378l-16.529,45.38H146.5l-16.531-45.38A1.952,1.952,0,0,0,128.19,125Z" transform="translate(-107.811 -125)" fill="none"/>
    </clipPath>
    <clipPath id="clip-path-3">
      <path id="Path_15142" data-name="Path 15142" d="M249.061,128.092h-2.244a2.116,2.116,0,0,0-1.929,1.494l-17.914,49.177H268.9L250.99,129.586A2.116,2.116,0,0,0,249.061,128.092Z" transform="translate(-226.975 -128.092)" fill="none"/>
    </clipPath>
  </defs>
  <g id="Group_5754" data-name="Group 5754" transform="translate(-44.455 -32.315)">
    <g id="Group_3986" data-name="Group 3986" transform="translate(47.583 139.733)">
      <path id="Path_8378" data-name="Path 8378" d="M49.691,100.807,58.259,117.6l-9.178-10.234q-.01.779.009,1.576c.386,15.6,12.345,32.069,12.345,32.069L46.167,126.094a60.238,60.238,0,0,0,2.628,24.579l20.719,14.509-17.505-6.2c7.085,16.36,15.472,22.561,15.472,22.561l-9.231-.162a83.754,83.754,0,0,0,7.977,18.169c5.063,8.121,14.569,12.727,14.569,12.727l-5.52,1.2a31.837,31.837,0,0,0,25.136,18.255L57.493,81.706A48.075,48.075,0,0,0,49.691,100.807Z" transform="translate(-45.865 -79.502)" fill="#244854"/>
      <path id="Path_8379" data-name="Path 8379" d="M51.1,82.917,94.02,232.939s11.4-7.879,15.565-16.3.983-13.541.983-13.541l-6.73,5.566s6.434-13.741,8.3-25.26-3.46-22.685-3.46-22.685l-10.709,10.54s5.458-18.491,4.883-30.636S94.3,115.925,94.3,115.925l-8.481,10.414s1.478-13.517-1.409-24.055-6.383-14.44-6.383-14.44L73.29,97.721S69.83,88.634,65.429,83.2,51.1,82.917,51.1,82.917Z" transform="translate(-39.476 -80.713)" fill="#1c3742"/>
      <g id="Group_3984" data-name="Group 3984" transform="translate(7.872 20.524)">
        <line id="Line_1" data-name="Line 1" x2="8.084" y2="14.696" transform="translate(1.411)" fill="none" stroke="#1f6152" stroke-miterlimit="10" stroke-width="1"/>
        <line id="Line_2" data-name="Line 2" x2="7.207" y2="8.037" transform="translate(7.421 22.434)" fill="none" stroke="#1f6152" stroke-miterlimit="10" stroke-width="1"/>
        <line id="Line_3" data-name="Line 3" x2="13.83" y2="15.422" transform="translate(3.946 25.551)" fill="none" stroke="#1f6152" stroke-miterlimit="10" stroke-width="1"/>
        <line id="Line_4" data-name="Line 4" x2="9.44" y2="8.778" transform="translate(10.008 43.236)" fill="none" stroke="#1f6152" stroke-miterlimit="10" stroke-width="1"/>
        <line id="Line_5" data-name="Line 5" x2="22.939" y2="20.774" transform="translate(0 43.001)" fill="none" stroke="#1f6152" stroke-miterlimit="10" stroke-width="1"/>
        <line id="Line_6" data-name="Line 6" x2="10.16" y2="8.081" transform="translate(15.776 65.154)" fill="none" stroke="#1f6152" stroke-miterlimit="10" stroke-width="1"/>
        <line id="Line_7" data-name="Line 7" x2="24.372" y2="18.117" transform="translate(5.846 66.563)" fill="none" stroke="#1f6152" stroke-miterlimit="10" stroke-width="1"/>
        <line id="Line_8" data-name="Line 8" x2="15.507" y2="11.174" transform="translate(17.023 85.147)" fill="none" stroke="#1f6152" stroke-miterlimit="10" stroke-width="1"/>
        <line id="Line_9" data-name="Line 9" x2="20.317" y2="13.915" transform="translate(13.368 91.559)" fill="none" stroke="#1f6152" stroke-miterlimit="10" stroke-width="1"/>
        <line id="Line_10" data-name="Line 10" x2="12.965" y2="8.49" transform="translate(23.53 104.488)" fill="none" stroke="#1f6152" stroke-miterlimit="10" stroke-width="1"/>
        <line id="Line_11" data-name="Line 11" x2="11.545" y2="6.199" transform="translate(29.542 114.885)" fill="none" stroke="#1f6152" stroke-miterlimit="10" stroke-width="1"/>
        <line id="Line_12" data-name="Line 12" x2="10.322" y2="4.113" transform="translate(31.115 121.75)" fill="none" stroke="#1f6152" stroke-miterlimit="10" stroke-width="1"/>
      </g>
      <g id="Group_3985" data-name="Group 3985" transform="translate(27.997 30.284)">
        <line id="Line_13" data-name="Line 13" x1="1.987" y2="10.611" fill="none" stroke="#1f6152" stroke-miterlimit="10" stroke-width="1"/>
        <line id="Line_14" data-name="Line 14" x1="3.812" y2="20.361" transform="translate(2.763 0.859)" fill="none" stroke="#1f6152" stroke-miterlimit="10" stroke-width="1"/>
        <line id="Line_15" data-name="Line 15" x1="3.51" y2="12.403" transform="translate(7.067 19.121)" fill="none" stroke="#1f6152" stroke-miterlimit="10" stroke-width="1"/>
        <line id="Line_16" data-name="Line 16" x1="8.819" y2="29.664" transform="translate(10.189 13.724)" fill="none" stroke="#1f6152" stroke-miterlimit="10" stroke-width="1"/>
        <line id="Line_17" data-name="Line 17" x1="4.487" y2="12.181" transform="translate(12.54 40.848)" fill="none" stroke="#1f6152" stroke-miterlimit="10" stroke-width="1"/>
        <line id="Line_18" data-name="Line 18" x1="11.422" y2="28.138" transform="translate(14.823 36.896)" fill="none" stroke="#1f6152" stroke-miterlimit="10" stroke-width="1"/>
        <line id="Line_19" data-name="Line 19" x1="7.451" y2="17.602" transform="translate(18.891 58.582)" fill="none" stroke="#1f6152" stroke-miterlimit="10" stroke-width="1"/>
        <line id="Line_20" data-name="Line 20" x1="10.138" y2="22.442" transform="translate(22.656 62.165)" fill="none" stroke="#1f6152" stroke-miterlimit="10" stroke-width="1"/>
        <line id="Line_21" data-name="Line 21" x1="6.672" y2="13.988" transform="translate(24.151 78.491)" fill="none" stroke="#1f6152" stroke-miterlimit="10" stroke-width="1"/>
        <line id="Line_22" data-name="Line 22" x1="6.649" y2="11.292" transform="translate(24.434 90.498)" fill="none" stroke="#1f6152" stroke-miterlimit="10" stroke-width="1"/>
        <line id="Line_23" data-name="Line 23" x1="6.686" y2="8.874" transform="translate(26.618 97.182)" fill="none" stroke="#1f6152" stroke-miterlimit="10" stroke-width="1"/>
      </g>
    </g>
    <g id="Group_3986-2" data-name="Group 3986" transform="translate(452.842 139.733)">
      <path id="Path_8378-2" data-name="Path 8378" d="M287.515,100.807,278.948,117.6l9.178-10.234q.01.779-.007,1.576c-.388,15.6-12.347,32.069-12.347,32.069l15.268-14.913a60.238,60.238,0,0,1-2.628,24.579l-20.719,14.509,17.505-6.2c-7.085,16.36-15.472,22.561-15.472,22.561l9.231-.162a83.754,83.754,0,0,1-7.977,18.169c-5.063,8.121-14.569,12.727-14.569,12.727l5.522,1.2a31.843,31.843,0,0,1-25.138,18.255L279.713,81.706A48.074,48.074,0,0,1,287.515,100.807Z" transform="translate(-218.286 -79.502)" fill="#244854"/>
      <path id="Path_8379-2" data-name="Path 8379" d="M289.883,82.917,246.967,232.939s-11.4-7.879-15.565-16.3-.983-13.541-.983-13.541l6.729,5.566s-6.434-13.741-8.3-25.26,3.462-22.685,3.462-22.685l10.707,10.54s-5.458-18.491-4.883-30.636,8.545-24.694,8.545-24.694l8.481,10.414s-1.478-13.517,1.409-24.055,6.383-14.44,6.383-14.44l4.741,9.877s3.46-9.087,7.861-14.518S289.883,82.917,289.883,82.917Z" transform="translate(-228.456 -80.713)" fill="#1c3742"/>
      <g id="Group_3984-2" data-name="Group 3984" transform="translate(23.747 20.524)">
        <line id="Line_1-2" data-name="Line 1" x1="8.084" y2="14.696" transform="translate(31.942)" fill="none" stroke="#1f6152" stroke-miterlimit="10" stroke-width="1"/>
        <line id="Line_2-2" data-name="Line 2" x1="7.207" y2="8.037" transform="translate(26.81 22.434)" fill="none" stroke="#1f6152" stroke-miterlimit="10" stroke-width="1"/>
        <line id="Line_3-2" data-name="Line 3" x1="13.83" y2="15.422" transform="translate(23.662 25.551)" fill="none" stroke="#1f6152" stroke-miterlimit="10" stroke-width="1"/>
        <line id="Line_4-2" data-name="Line 4" x1="9.44" y2="8.778" transform="translate(21.99 43.236)" fill="none" stroke="#1f6152" stroke-miterlimit="10" stroke-width="1"/>
        <line id="Line_5-2" data-name="Line 5" x1="22.939" y2="20.774" transform="translate(18.498 43.001)" fill="none" stroke="#1f6152" stroke-miterlimit="10" stroke-width="1"/>
        <line id="Line_6-2" data-name="Line 6" x1="10.16" y2="8.081" transform="translate(15.501 65.154)" fill="none" stroke="#1f6152" stroke-miterlimit="10" stroke-width="1"/>
        <line id="Line_7-2" data-name="Line 7" x1="24.372" y2="18.117" transform="translate(11.219 66.563)" fill="none" stroke="#1f6152" stroke-miterlimit="10" stroke-width="1"/>
        <line id="Line_8-2" data-name="Line 8" x1="15.507" y2="11.174" transform="translate(8.907 85.147)" fill="none" stroke="#1f6152" stroke-miterlimit="10" stroke-width="1"/>
        <line id="Line_9-2" data-name="Line 9" x1="20.317" y2="13.915" transform="translate(7.752 91.559)" fill="none" stroke="#1f6152" stroke-miterlimit="10" stroke-width="1"/>
        <line id="Line_10-2" data-name="Line 10" x1="12.965" y2="8.49" transform="translate(4.942 104.488)" fill="none" stroke="#1f6152" stroke-miterlimit="10" stroke-width="1"/>
        <line id="Line_11-2" data-name="Line 11" x1="11.545" y2="6.199" transform="translate(0.35 114.885)" fill="none" stroke="#1f6152" stroke-miterlimit="10" stroke-width="1"/>
        <line id="Line_12-2" data-name="Line 12" x1="10.322" y2="4.113" transform="translate(0 121.75)" fill="none" stroke="#1f6152" stroke-miterlimit="10" stroke-width="1"/>
      </g>
      <g id="Group_3985-2" data-name="Group 3985" transform="translate(11.755 30.284)">
        <line id="Line_13-2" data-name="Line 13" x2="1.987" y2="10.611" transform="translate(31.317)" fill="none" stroke="#1f6152" stroke-miterlimit="10" stroke-width="1"/>
        <line id="Line_14-2" data-name="Line 14" x2="3.812" y2="20.361" transform="translate(26.728 0.859)" fill="none" stroke="#1f6152" stroke-miterlimit="10" stroke-width="1"/>
        <line id="Line_15-2" data-name="Line 15" x2="3.51" y2="12.403" transform="translate(22.727 19.121)" fill="none" stroke="#1f6152" stroke-miterlimit="10" stroke-width="1"/>
        <line id="Line_16-2" data-name="Line 16" x2="8.819" y2="29.664" transform="translate(14.296 13.724)" fill="none" stroke="#1f6152" stroke-miterlimit="10" stroke-width="1"/>
        <line id="Line_17-2" data-name="Line 17" x2="4.487" y2="12.181" transform="translate(16.276 40.848)" fill="none" stroke="#1f6152" stroke-miterlimit="10" stroke-width="1"/>
        <line id="Line_18-2" data-name="Line 18" x2="11.422" y2="28.138" transform="translate(7.058 36.896)" fill="none" stroke="#1f6152" stroke-miterlimit="10" stroke-width="1"/>
        <line id="Line_19-2" data-name="Line 19" x2="7.451" y2="17.602" transform="translate(6.962 58.582)" fill="none" stroke="#1f6152" stroke-miterlimit="10" stroke-width="1"/>
        <line id="Line_20-2" data-name="Line 20" x2="10.138" y2="22.442" transform="translate(0.509 62.165)" fill="none" stroke="#1f6152" stroke-miterlimit="10" stroke-width="1"/>
        <line id="Line_21-2" data-name="Line 21" x2="6.672" y2="13.988" transform="translate(2.48 78.491)" fill="none" stroke="#1f6152" stroke-miterlimit="10" stroke-width="1"/>
        <line id="Line_22-2" data-name="Line 22" x2="6.649" y2="11.292" transform="translate(2.221 90.498)" fill="none" stroke="#1f6152" stroke-miterlimit="10" stroke-width="1"/>
        <line id="Line_23-2" data-name="Line 23" x2="6.686" y2="8.874" transform="translate(0 97.182)" fill="none" stroke="#1f6152" stroke-miterlimit="10" stroke-width="1"/>
      </g>
    </g>
    <g id="Group_5719" data-name="Group 5719" transform="translate(83.898 32.315)">
      <rect id="Rectangle_1618" data-name="Rectangle 1618" width="390.864" height="244.571" rx="4.372" transform="translate(0.738)" fill="#2b8d7b"/>
      <path id="Path_15131" data-name="Path 15131" d="M212.224,192.289H132.692l8.638-33.964,1.958-7.7,3.8-14.916h50.737l3.8,14.916,1.958,7.7Z" transform="translate(23.705 93.77)" fill="#2b8d7b"/>
      <path id="Path_15132" data-name="Path 15132" d="M198.839,150.13H136.584l1.958-7.7h58.339Z" transform="translate(28.452 101.965)" fill="#26715f"/>
      <path id="Path_15133" data-name="Path 15133" d="M262.871,172.14H122.3a6.108,6.108,0,0,1-6.108-6.108h0a6.108,6.108,0,0,1,6.108-6.108H262.871a6.108,6.108,0,0,1,6.108,6.108h0A6.108,6.108,0,0,1,262.871,172.14Z" transform="translate(3.577 123.302)" fill="#26715f"/>
      <rect id="Rectangle_1619" data-name="Rectangle 1619" width="391.593" height="170.851" transform="translate(0 34.76)" fill="#73c6bf" opacity="0.2"/>
      <path id="Path_15134" data-name="Path 15134" d="M155.55,147.409h0a9.038,9.038,0,0,1-9.011-9.011h0a9.038,9.038,0,0,1,9.011-9.011h0a9.038,9.038,0,0,1,9.011,9.011h0A9.038,9.038,0,0,1,155.55,147.409Z" transform="translate(40.591 86.063)" fill="#26715f"/>
    </g>
    <g id="Group_5723" data-name="Group 5723" transform="translate(83.042 220.911)">
      <g id="Group_5722" data-name="Group 5722" transform="translate(7.191)">
        <path id="Path_15135" data-name="Path 15135" d="M98.611,117.288H95.2a3.217,3.217,0,0,0-2.93,2.268L65.081,194.213h63.653l-27.193-74.657A3.217,3.217,0,0,0,98.611,117.288Z" transform="translate(-65.081 -117.288)" fill="#e0583d"/>
        <g id="Group_5721" data-name="Group 5721">
          <g id="Group_5720" data-name="Group 5720" clip-path="url(#clip-path)">
            <rect id="Rectangle_1620" data-name="Rectangle 1620" width="58.161" height="15.419" transform="translate(2.235 18.675)" fill="#fff"/>
            <rect id="Rectangle_1621" data-name="Rectangle 1621" width="58.161" height="15.419" transform="translate(2.235 48.829)" fill="#fff"/>
          </g>
        </g>
      </g>
      <rect id="Rectangle_1622" data-name="Rectangle 1622" width="78.035" height="7.196" rx="1.621" transform="translate(0 76.069)" fill="#dc442b"/>
    </g>
    <g id="Group_5727" data-name="Group 5727" transform="translate(180.7 238.028)">
      <g id="Group_5726" data-name="Group 5726" transform="translate(4.372)">
        <path id="Path_15137" data-name="Path 15137" d="M128.19,125H126.12a1.954,1.954,0,0,0-1.78,1.378l-16.529,45.38H146.5l-16.531-45.38A1.952,1.952,0,0,0,128.19,125Z" transform="translate(-107.811 -125)" fill="#e0583d"/>
        <g id="Group_5725" data-name="Group 5725">
          <g id="Group_5724" data-name="Group 5724" clip-path="url(#clip-path-2)">
            <rect id="Rectangle_1623" data-name="Rectangle 1623" width="35.353" height="9.373" transform="translate(1.357 11.351)" fill="#fff"/>
            <rect id="Rectangle_1624" data-name="Rectangle 1624" width="35.353" height="9.373" transform="translate(1.357 29.68)" fill="#fff"/>
          </g>
        </g>
      </g>
      <rect id="Rectangle_1625" data-name="Rectangle 1625" width="47.433" height="4.374" rx="0.985" transform="translate(0 46.238)" fill="#dc442b"/>
    </g>
    <path id="Path_15139" data-name="Path 15139" d="M279.512,58.512l6.774-5.045a42.039,42.039,0,0,0-12.931-12.931L268.31,47.31a33.223,33.223,0,0,0-9.433-3.909l1.225-8.37a41.036,41.036,0,0,0-18.291,0l1.223,8.37A33.236,33.236,0,0,0,233.6,47.31l-5.045-6.774a41.991,41.991,0,0,0-12.931,12.931l6.774,5.045a33.229,33.229,0,0,0-3.911,9.433l-8.367-1.225a41.036,41.036,0,0,0,0,18.291l8.367-1.225a33.229,33.229,0,0,0,3.911,9.433l-6.774,5.045a41.99,41.99,0,0,0,12.931,12.931l5.045-6.774a33.209,33.209,0,0,0,9.431,3.909l-1.223,8.37a41.036,41.036,0,0,0,18.291,0l-1.225-8.37a33.223,33.223,0,0,0,9.433-3.909l5.045,6.774a42.015,42.015,0,0,0,12.931-12.931l-6.774-5.045a33.224,33.224,0,0,0,3.909-9.433l8.37,1.225a41.038,41.038,0,0,0,0-18.291l-8.37,1.225A33.225,33.225,0,0,0,279.512,58.512ZM250.956,98.086a22.22,22.22,0,1,1,22.222-22.219A22.219,22.219,0,0,1,250.956,98.086Z" transform="translate(200.773 2.054)" fill="#e0583d"/>
    <path id="Path_15140" data-name="Path 15140" d="M117.544,118.293l2.018-1.5a12.535,12.535,0,0,0-3.849-3.849l-1.5,2.018A9.88,9.88,0,0,0,111.4,113.8l.364-2.49a12.241,12.241,0,0,0-5.442,0l.364,2.49a9.867,9.867,0,0,0-2.805,1.165l-1.5-2.018a12.535,12.535,0,0,0-3.849,3.849l2.015,1.5a9.849,9.849,0,0,0-1.163,2.808l-2.49-.366a12.25,12.25,0,0,0,0,5.444l2.49-.366a9.85,9.85,0,0,0,1.163,2.808l-2.015,1.5a12.535,12.535,0,0,0,3.849,3.849l1.5-2.015a9.926,9.926,0,0,0,2.805,1.163l-.364,2.49a12.241,12.241,0,0,0,5.442,0l-.364-2.49a9.939,9.939,0,0,0,2.808-1.163l1.5,2.015a12.535,12.535,0,0,0,3.849-3.849l-2.018-1.5a9.85,9.85,0,0,0,1.163-2.808l2.49.366a12.165,12.165,0,0,0,0-5.444l-2.49.366A9.849,9.849,0,0,0,117.544,118.293Zm-8.5,11.774a6.611,6.611,0,1,1,6.612-6.61A6.611,6.611,0,0,1,109.048,130.068Z" transform="translate(63.58 95.955)" fill="#1c3742"/>
    <g id="Group_3979" data-name="Group 3979" transform="translate(469.134 199.744)">
      <path id="Path_8338" data-name="Path 8338" d="M273.7,114.609a36.452,36.452,0,0,1,1.052,5.982,65.217,65.217,0,0,1-.149,15.23,71.5,71.5,0,0,1-6.226,21.434,53.032,53.032,0,0,1-6.483,10.9,53.842,53.842,0,0,1-9.084,8.727,69.774,69.774,0,0,1-13.714,8.434c-.169.078-.626-.446-.422-.539a68.7,68.7,0,0,0,11.464-6.783,60.276,60.276,0,0,0,9.178-7.941,46.533,46.533,0,0,0,7.2-10.523,69.882,69.882,0,0,0,7.83-38.071,39.147,39.147,0,0,0-1.17-7.184c-.064-.229.473.158.524.337Z" transform="translate(-232.352 -99.887)" fill="#eab54e"/>
      <path id="Path_8339" data-name="Path 8339" d="M254.974,124.748c9.122,1.6,17.325-10.8,17.325-10.8s-9.215.075-12.962,4.035S254.974,124.748,254.974,124.748Z" transform="translate(-212.409 -100.194)" fill="#eab54e"/>
      <path id="Path_8340" data-name="Path 8340" d="M256.412,123.179c3.928-5.877-2.211-15.428-2.211-15.428s-2.781,6.459-1.172,10.3S256.412,123.179,256.412,123.179Z" transform="translate(-215.391 -107.751)" fill="#eab54e"/>
      <path id="Path_8341" data-name="Path 8341" d="M254.812,127.055c10.021.959,17.583-9.122,17.583-9.122s-7.79.109-11.4,2.217S254.812,127.055,254.812,127.055Z" transform="translate(-212.606 -95.334)" fill="#eab54e"/>
      <path id="Path_8342" data-name="Path 8342" d="M254.478,130.638c10.021.959,17.583-9.122,17.583-9.122s-7.79.109-11.4,2.217S254.478,130.638,254.478,130.638Z" transform="translate(-213.013 -90.965)" fill="#eab54e"/>
      <path id="Path_8343" data-name="Path 8343" d="M254.01,130.079c8.618,4.188,17.823-2.734,17.823-2.734s-6.916-2.459-10.636-1.68S254.01,130.079,254.01,130.079Z" transform="translate(-213.584 -86.091)" fill="#eab54e"/>
      <path id="Path_8344" data-name="Path 8344" d="M253.18,133.377c8.552,4,17.787-2.832,17.787-2.832s-6.869-2.333-10.583-1.536S253.18,133.377,253.18,133.377Z" transform="translate(-214.596 -82.029)" fill="#eab54e"/>
      <path id="Path_8345" data-name="Path 8345" d="M251.651,135.566c7.582,5.626,17.993.77,17.993.77s-6.266-3.653-10.063-3.616S251.651,135.566,251.651,135.566Z" transform="translate(-216.461 -77.302)" fill="#eab54e"/>
      <path id="Path_8346" data-name="Path 8346" d="M250.2,138.943c7.582,5.626,17.993.77,17.993.77s-6.263-3.656-10.063-3.616S250.2,138.943,250.2,138.943Z" transform="translate(-218.228 -73.183)" fill="#eab54e"/>
      <path id="Path_8347" data-name="Path 8347" d="M247.844,141.483c6.319,7.014,17.485,4.317,17.485,4.317s-5.418-4.823-9.149-5.535S247.844,141.483,247.844,141.483Z" transform="translate(-221.104 -68.295)" fill="#eab54e"/>
      <path id="Path_8348" data-name="Path 8348" d="M244.7,143.657c5.245,7.85,16.682,6.785,16.682,6.785s-4.668-5.551-8.257-6.792S244.7,143.657,244.7,143.657Z" transform="translate(-224.934 -64.643)" fill="#eab54e"/>
      <path id="Path_8349" data-name="Path 8349" d="M242.112,145.4c4.013,8.545,15.483,9.2,15.483,9.2s-3.791-6.188-7.151-7.948S242.112,145.4,242.112,145.4Z" transform="translate(-228.094 -61.916)" fill="#eab54e"/>
      <path id="Path_8350" data-name="Path 8350" d="M254.846,124.615c8.47-3.161,9.029-15.144,9.029-15.144s-5.314,3.651-7.244,7.424A17.456,17.456,0,0,0,254.846,124.615Z" transform="translate(-212.565 -105.653)" fill="#eab54e"/>
      <path id="Path_8351" data-name="Path 8351" d="M261.782,124.518c-1.116-8.971-12.642-12.285-12.642-12.285s2.317,6.015,5.544,8.765A17.505,17.505,0,0,0,261.782,124.518Z" transform="translate(-219.523 -102.285)" fill="#eab54e"/>
      <path id="Path_8352" data-name="Path 8352" d="M262.6,129.523c-1.252-10.03-14.134-13.734-14.134-13.734s2.592,6.725,6.2,9.8A19.512,19.512,0,0,0,262.6,129.523Z" transform="translate(-220.344 -97.949)" fill="#eab54e"/>
      <path id="Path_8353" data-name="Path 8353" d="M262.193,133.006c-1.252-10.028-14.134-13.732-14.134-13.732s2.592,6.725,6.2,9.8A19.535,19.535,0,0,0,262.193,133.006Z" transform="translate(-220.841 -93.699)" fill="#eab54e"/>
      <path id="Path_8354" data-name="Path 8354" d="M261.245,137.186c-.981-10.059-13.763-14.107-13.763-14.107s2.413,6.794,5.937,9.961A19.559,19.559,0,0,0,261.245,137.186Z" transform="translate(-221.545 -89.059)" fill="#eab54e"/>
      <path id="Path_8355" data-name="Path 8355" d="M259.375,140.9c-.981-10.056-13.765-14.1-13.765-14.1s2.413,6.792,5.939,9.961A19.555,19.555,0,0,0,259.375,140.9Z" transform="translate(-223.828 -84.529)" fill="#eab54e"/>
      <path id="Path_8356" data-name="Path 8356" d="M257.508,144.026c-.981-10.057-13.763-14.1-13.763-14.1s2.413,6.792,5.937,9.961A19.541,19.541,0,0,0,257.508,144.026Z" transform="translate(-226.102 -80.715)" fill="#eab54e"/>
      <path id="Path_8357" data-name="Path 8357" d="M254.929,146.694c-.981-10.057-13.763-14.1-13.763-14.1s2.41,6.794,5.937,9.961A19.526,19.526,0,0,0,254.929,146.694Z" transform="translate(-229.247 -77.461)" fill="#eab54e"/>
      <path id="Path_8358" data-name="Path 8358" d="M252.124,149.023c-.981-10.056-13.763-14.1-13.763-14.1s2.41,6.794,5.937,9.961A19.527,19.527,0,0,0,252.124,149.023Z" transform="translate(-232.668 -74.621)" fill="#eab54e"/>
      <path id="Path_8359" data-name="Path 8359" d="M249.559,151.071c-.979-10.057-13.763-14.1-13.763-14.1s2.413,6.792,5.937,9.959A19.542,19.542,0,0,0,249.559,151.071Z" transform="translate(-235.796 -72.121)" fill="#eab54e"/>
    </g>
    <g id="Group_3979-2" data-name="Group 3979" transform="translate(44.456 199.744)">
      <path id="Path_8338-2" data-name="Path 8338" d="M53.6,114.609a36.453,36.453,0,0,0-1.052,5.982,65.341,65.341,0,0,0,.149,15.23,71.5,71.5,0,0,0,6.226,21.434,53.131,53.131,0,0,0,6.483,10.9,53.928,53.928,0,0,0,9.084,8.727A69.775,69.775,0,0,0,88.2,185.311c.171.078.626-.446.422-.539a68.7,68.7,0,0,1-11.464-6.783,60.382,60.382,0,0,1-9.178-7.941,46.6,46.6,0,0,1-7.2-10.523,69.881,69.881,0,0,1-7.828-38.071,38.777,38.777,0,0,1,1.17-7.184c.062-.229-.475.158-.526.337Z" transform="translate(-35.049 -99.887)" fill="#eab54e"/>
      <path id="Path_8339-2" data-name="Path 8339" d="M61.781,124.748c-9.122,1.6-17.325-10.8-17.325-10.8s9.215.075,12.962,4.035S61.781,124.748,61.781,124.748Z" transform="translate(-44.456 -100.194)" fill="#eab54e"/>
      <path id="Path_8340-2" data-name="Path 8340" d="M53.679,123.179c-3.929-5.877,2.211-15.428,2.211-15.428s2.781,6.459,1.172,10.3S53.679,123.179,53.679,123.179Z" transform="translate(-34.809 -107.751)" fill="#eab54e"/>
      <path id="Path_8341-2" data-name="Path 8341" d="M62.085,127.055c-10.021.959-17.583-9.122-17.583-9.122s7.79.109,11.4,2.217S62.085,127.055,62.085,127.055Z" transform="translate(-44.4 -95.334)" fill="#eab54e"/>
      <path id="Path_8342-2" data-name="Path 8342" d="M62.421,130.638c-10.023.959-17.585-9.122-17.585-9.122s7.793.109,11.4,2.217S62.421,130.638,62.421,130.638Z" transform="translate(-43.993 -90.965)" fill="#eab54e"/>
      <path id="Path_8343-2" data-name="Path 8343" d="M63.017,130.079c-8.618,4.188-17.82-2.734-17.82-2.734s6.914-2.459,10.634-1.68S63.017,130.079,63.017,130.079Z" transform="translate(-43.552 -86.091)" fill="#eab54e"/>
      <path id="Path_8344-2" data-name="Path 8344" d="M63.829,133.377c-8.552,4-17.787-2.832-17.787-2.832s6.869-2.333,10.583-1.536S63.829,133.377,63.829,133.377Z" transform="translate(-42.522 -82.029)" fill="#eab54e"/>
      <path id="Path_8345-2" data-name="Path 8345" d="M65.471,135.566c-7.582,5.626-17.993.77-17.993.77s6.266-3.653,10.063-3.616S65.471,135.566,65.471,135.566Z" transform="translate(-40.771 -77.302)" fill="#eab54e"/>
      <path id="Path_8346-2" data-name="Path 8346" d="M66.92,138.943c-7.582,5.626-17.993.77-17.993.77s6.266-3.656,10.063-3.616S66.92,138.943,66.92,138.943Z" transform="translate(-39.004 -73.183)" fill="#eab54e"/>
      <path id="Path_8347-2" data-name="Path 8347" d="M69,141.483C62.682,148.5,51.514,145.8,51.514,145.8s5.418-4.823,9.149-5.535S69,141.483,69,141.483Z" transform="translate(-35.849 -68.295)" fill="#eab54e"/>
      <path id="Path_8348-2" data-name="Path 8348" d="M71.7,143.657c-5.242,7.85-16.682,6.785-16.682,6.785s4.668-5.551,8.257-6.792S71.7,143.657,71.7,143.657Z" transform="translate(-31.577 -64.643)" fill="#eab54e"/>
      <path id="Path_8349-2" data-name="Path 8349" d="M73.633,145.4c-4.015,8.545-15.485,9.2-15.485,9.2s3.791-6.188,7.151-7.948S73.633,145.4,73.633,145.4Z" transform="translate(-27.759 -61.916)" fill="#eab54e"/>
      <path id="Path_8350-2" data-name="Path 8350" d="M57.351,124.615c-8.467-3.161-9.029-15.144-9.029-15.144s5.313,3.651,7.244,7.424A17.456,17.456,0,0,1,57.351,124.615Z" transform="translate(-39.741 -105.653)" fill="#eab54e"/>
      <path id="Path_8351-2" data-name="Path 8351" d="M52.4,124.518c1.116-8.971,12.644-12.285,12.644-12.285S62.725,118.248,59.5,121A17.492,17.492,0,0,1,52.4,124.518Z" transform="translate(-34.768 -102.285)" fill="#eab54e"/>
      <path id="Path_8352-2" data-name="Path 8352" d="M52.4,129.523c1.252-10.03,14.136-13.734,14.136-13.734s-2.595,6.725-6.2,9.8A19.512,19.512,0,0,1,52.4,129.523Z" transform="translate(-34.767 -97.949)" fill="#eab54e"/>
      <path id="Path_8353-2" data-name="Path 8353" d="M52.809,133.006c1.252-10.028,14.136-13.732,14.136-13.732s-2.592,6.725-6.2,9.8A19.535,19.535,0,0,1,52.809,133.006Z" transform="translate(-34.27 -93.699)" fill="#eab54e"/>
      <path id="Path_8354-2" data-name="Path 8354" d="M53.553,137.186c.981-10.059,13.765-14.107,13.765-14.107s-2.413,6.794-5.939,9.961A19.559,19.559,0,0,1,53.553,137.186Z" transform="translate(-33.362 -89.059)" fill="#eab54e"/>
      <path id="Path_8355-2" data-name="Path 8355" d="M55.425,140.9c.979-10.056,13.763-14.1,13.763-14.1s-2.413,6.792-5.939,9.961A19.562,19.562,0,0,1,55.425,140.9Z" transform="translate(-31.079 -84.529)" fill="#eab54e"/>
      <path id="Path_8356-2" data-name="Path 8356" d="M57.29,144.026c.981-10.057,13.763-14.1,13.763-14.1s-2.413,6.792-5.937,9.961A19.541,19.541,0,0,1,57.29,144.026Z" transform="translate(-28.805 -80.715)" fill="#eab54e"/>
      <path id="Path_8357-2" data-name="Path 8357" d="M59.869,146.694c.981-10.057,13.763-14.1,13.763-14.1s-2.41,6.794-5.937,9.961A19.527,19.527,0,0,1,59.869,146.694Z" transform="translate(-25.66 -77.461)" fill="#eab54e"/>
      <path id="Path_8358-2" data-name="Path 8358" d="M62.674,149.023c.981-10.056,13.765-14.1,13.765-14.1s-2.413,6.794-5.939,9.961A19.527,19.527,0,0,1,62.674,149.023Z" transform="translate(-22.239 -74.621)" fill="#eab54e"/>
      <path id="Path_8359-2" data-name="Path 8359" d="M65.239,151.071C66.22,141.014,79,136.968,79,136.968s-2.413,6.792-5.937,9.959A19.541,19.541,0,0,1,65.239,151.071Z" transform="translate(-19.111 -72.121)" fill="#eab54e"/>
    </g>
    <g id="Group_5731" data-name="Group 5731" transform="translate(444.82 244.891)">
      <g id="Group_5730" data-name="Group 5730" transform="translate(4.736)">
        <path id="Path_15141" data-name="Path 15141" d="M249.061,128.092h-2.244a2.116,2.116,0,0,0-1.929,1.494l-17.914,49.177H268.9L250.99,129.586A2.116,2.116,0,0,0,249.061,128.092Z" transform="translate(-226.975 -128.092)" fill="#e0583d"/>
        <g id="Group_5729" data-name="Group 5729">
          <g id="Group_5728" data-name="Group 5728" clip-path="url(#clip-path-3)">
            <rect id="Rectangle_1626" data-name="Rectangle 1626" width="38.31" height="10.157" transform="translate(1.472 12.302)" fill="#fff"/>
            <rect id="Rectangle_1627" data-name="Rectangle 1627" width="38.31" height="10.157" transform="translate(1.472 32.164)" fill="#fff"/>
          </g>
        </g>
      </g>
      <rect id="Rectangle_1628" data-name="Rectangle 1628" width="51.401" height="4.74" rx="1.068" transform="translate(0 50.107)" fill="#dc442b"/>
    </g>
    <g id="Group_5736" data-name="Group 5736" transform="translate(129.151 82.664)">
      <g id="Group_5732" data-name="Group 5732" transform="translate(0.229)">
        <rect id="Rectangle_1629" data-name="Rectangle 1629" width="167.81" height="107.245" rx="2.461" transform="translate(0 1.916)" fill="#c8c8c7"/>
        <rect id="Rectangle_1630" data-name="Rectangle 1630" width="167.81" height="107.245" rx="2.461" fill="#fff"/>
      </g>
      <g id="Group_5733" data-name="Group 5733" transform="translate(7.675 7.706)">
        <path id="Path_15143" data-name="Path 15143" d="M95.218,63.044a4.572,4.572,0,1,1-4.572-4.572A4.572,4.572,0,0,1,95.218,63.044Z" transform="translate(-86.074 -58.472)" fill="#c8c8c7" opacity="0.5"/>
        <path id="Path_15144" data-name="Path 15144" d="M101.5,63.044a4.572,4.572,0,1,1-4.572-4.572A4.572,4.572,0,0,1,101.5,63.044Z" transform="translate(-78.408 -58.472)" fill="#c8c8c7" opacity="0.5"/>
        <path id="Path_15145" data-name="Path 15145" d="M107.9,63.044a4.572,4.572,0,1,1-4.572-4.572A4.571,4.571,0,0,1,107.9,63.044Z" transform="translate(-70.613 -58.472)" fill="#c8c8c7" opacity="0.5"/>
      </g>
      <g id="Group_5734" data-name="Group 5734" transform="translate(0 27.933)">
        <circle id="Ellipse_196" data-name="Ellipse 196" cx="25.381" cy="25.381" r="25.381" transform="translate(0 35.894) rotate(-45)" fill="#df573d"/>
        <path id="Path_15146" data-name="Path 15146" d="M116.023,89.222,97.575,78.571A1.888,1.888,0,0,0,94.743,80.2v21.3a1.888,1.888,0,0,0,2.832,1.634l18.448-10.651A1.887,1.887,0,0,0,116.023,89.222Z" transform="translate(-67.827 -54.501)" fill="#fff"/>
      </g>
      <g id="Group_5735" data-name="Group 5735" transform="translate(73.256 46.432)" opacity="0.5">
        <rect id="Rectangle_1631" data-name="Rectangle 1631" width="87.336" height="5.36" fill="#c8c8c7"/>
        <rect id="Rectangle_1632" data-name="Rectangle 1632" width="87.336" height="5.36" transform="translate(0 15.176)" fill="#c8c8c7"/>
        <rect id="Rectangle_1633" data-name="Rectangle 1633" width="87.336" height="5.36" transform="translate(0 30.352)" fill="#c8c8c7"/>
      </g>
    </g>
    <g id="Group_5740" data-name="Group 5740" transform="translate(83.395 147.299)">
      <g id="Group_5739" data-name="Group 5739">
        <rect id="Rectangle_1634" data-name="Rectangle 1634" width="392.85" height="50.778" fill="#eab54e"/>
        <g id="Group_5738" data-name="Group 5738" transform="translate(0)">
          <path id="Path_15147" data-name="Path 15147" d="M101.19,84.122,62,123.312V134.9H79.17l50.778-50.778Z" transform="translate(-62 -84.122)" fill="none"/>
          <path id="Path_15148" data-name="Path 15148" d="M135.1,84.122,84.326,134.9h28.759l50.778-50.778Z" transform="translate(-34.774 -84.122)" fill="none"/>
          <path id="Path_15149" data-name="Path 15149" d="M217.744,84.122,166.966,134.9h28.759L246.5,84.122Z" transform="translate(66.006 -84.122)" fill="none"/>
          <path id="Path_15150" data-name="Path 15150" d="M245.292,84.122,194.513,134.9h28.759L274.05,84.122Z" transform="translate(99.599 -84.122)" fill="none"/>
          <path id="Path_15151" data-name="Path 15151" d="M190.2,84.122,139.42,134.9h28.759l50.778-50.778Z" transform="translate(32.413 -84.122)" fill="none"/>
          <path id="Path_15152" data-name="Path 15152" d="M259.658,90.06l-37.6,37.6h28.759l8.839-8.839Z" transform="translate(133.192 -76.88)" fill="none"/>
          <path id="Path_15153" data-name="Path 15153" d="M162.651,84.122,111.873,134.9h28.759L191.41,84.122Z" transform="translate(-1.181 -84.122)" fill="none"/>
          <g id="Group_5737" data-name="Group 5737">
            <path id="Path_15154" data-name="Path 15154" d="M101.19,84.122H62v39.19Z" transform="translate(-62 -84.122)" fill="#1d1c1c"/>
          </g>
          <path id="Path_15155" data-name="Path 15155" d="M120.514,84.122,69.736,134.9h32.381L152.9,84.122Z" transform="translate(-52.566 -84.122)" fill="#1d1c1c"/>
          <path id="Path_15156" data-name="Path 15156" d="M148.061,84.122,97.283,134.9h32.381l50.778-50.778Z" transform="translate(-18.973 -84.122)" fill="#1d1c1c"/>
          <path id="Path_15157" data-name="Path 15157" d="M175.608,84.122,124.83,134.9h32.381L207.99,84.122Z" transform="translate(14.621 -84.122)" fill="#1d1c1c"/>
          <path id="Path_15158" data-name="Path 15158" d="M203.155,84.122,152.377,134.9h32.381l50.778-50.778Z" transform="translate(48.214 -84.122)" fill="#1d1c1c"/>
          <path id="Path_15159" data-name="Path 15159" d="M230.7,84.122,179.924,134.9h32.382l50.778-50.778Z" transform="translate(81.807 -84.122)" fill="#1d1c1c"/>
          <path id="Path_15160" data-name="Path 15160" d="M277.45,84.122h-19.2L207.471,134.9h32.382l37.6-37.6Z" transform="translate(115.401 -84.122)" fill="#1d1c1c"/>
        </g>
      </g>
    </g>
    <g id="Group_5753" data-name="Group 5753" transform="translate(390.768 133.537)">
      <g id="Group_5752" data-name="Group 5752">
        <path id="Path_15161" data-name="Path 15161" d="M200.535,80.145c.06-.528.739-.266.912.171a3.355,3.355,0,0,1,.093.377c-.056-.87-.091-1.58-.071-1.756.058-.5.686-.309.9.087-.011-.351-.013-.615,0-.728.062-.644.746-.371.917.162a7.745,7.745,0,0,1,.149.89,3.735,3.735,0,0,1,0-.486c.06-.528.668-.388.839.049a6.347,6.347,0,0,1,.175,1.025c.078.533.224,1.1.293,1.636.06.486.628,2.77,1.76,3.014,1.738.371.637-2.65,1.862-3.329.384-.213.792,2.131.821,3.456a14.734,14.734,0,0,1-.089,2.77,18.39,18.39,0,0,0-.479,2.357,9.793,9.793,0,0,0,.985,2.324l-4.388,1a17.686,17.686,0,0,0-1.567-2.972,10.038,10.038,0,0,1-2.657-4.7,19.354,19.354,0,0,1-.5-3.553S200.515,80.318,200.535,80.145Z" transform="translate(-200.488 -77.921)" fill="#ffc8a4"/>
        <path id="Path_15162" data-name="Path 15162" d="M239.7,110.418s-13.914-.122-21.469-8.589c-6.028-8.445-11.85-17.787-12.285-18.655-1.185.455-3.735,1.62-3.735,1.62s7.964,17.816,11.064,21.884,9.2,10.733,22.1,14.043C241.548,113.628,239.7,110.418,239.7,110.418Z" transform="translate(-198.392 -71.515)" fill="#ffc8a4"/>
        <g id="Group_5746" data-name="Group 5746" transform="translate(20.894 89.046)">
          <g id="Group_5741" data-name="Group 5741" transform="translate(0 113.667)">
            <path id="Path_15163" data-name="Path 15163" d="M215.43,171.56a9.149,9.149,0,0,0-.759,3.052c.04,1.227,3.929,1.478,4.408.863s.937-6.221.937-6.221" transform="translate(-204.088 -169.254)" fill="#ffd9ae"/>
            <path id="Path_15164" data-name="Path 15164" d="M225.878,174.271a26.1,26.1,0,0,1-.493,3.336l-4.488-.184-.189-.757a7.082,7.082,0,0,1-2.63.641l-3.786-.155c-2.772-.115-4.33-.533-4.381-1.023-.209-2.051,3.1-1.822,3.962-1.787,2.475.1,5.2-.948,5.84-2.18.462-.894.284-1.134.79-.941a1.28,1.28,0,0,1,.741.695,2.275,2.275,0,0,0,2.286,1.374,2.706,2.706,0,0,0,1.547-.67A1.64,1.64,0,0,1,225.878,174.271Z" transform="translate(-209.902 -166.931)" fill="#003c7f"/>
          </g>
          <g id="Group_5742" data-name="Group 5742" transform="translate(47.813 111.026)">
            <path id="Path_15165" data-name="Path 15165" d="M234.757,170.576a36.45,36.45,0,0,0,1.187,4.443c.491,1.123,4.2-.084,4.415-.832s-1.434-6.124-1.434-6.124" transform="translate(-227.404 -168.064)" fill="#ffd9ae"/>
            <path id="Path_15166" data-name="Path 15166" d="M245.728,171.808c.422,1.2,1.028,3.525,1.028,3.525l-3.485,1.889-.646-.53a6.667,6.667,0,0,1-1.867,1.8,14.612,14.612,0,0,1-3.425,1.256c-3.136.581-5.522.14-5.749-.3-.954-1.829,3.2-2.639,4.017-2.925a5.561,5.561,0,0,0,3.618-4.39c.1-1-.158-1.156.384-1.165a1.28,1.28,0,0,1,.945.371,2.276,2.276,0,0,0,2.632.428,2.7,2.7,0,0,0,1.19-1.194A1.641,1.641,0,0,1,245.728,171.808Z" transform="translate(-231.444 -165.008)" fill="#003c7f"/>
          </g>
          <g id="Group_5745" data-name="Group 5745" transform="translate(9.84)">
            <path id="Path_15167" data-name="Path 15167" d="M245.953,143.425s6.7-14.347-3.5-25.384c0,0-9.242,3.689-16.526,3.88a35.947,35.947,0,0,1-8.618-.562,185.58,185.58,0,0,0-1.7,27.26Z" transform="translate(-212.788 -118.041)" fill="#003c7f"/>
            <path id="Path_15168" data-name="Path 15168" d="M220.8,204.205c-.184,0-.368,0-.539-.011a30.784,30.784,0,0,1-5.922-.65l.044-1.09c.9-16.7,0-44.1-.038-52.748a9.486,9.486,0,0,1,.12-1.654c.917-6.292,7.413-5.2,9.919.724a23.289,23.289,0,0,1,1.367,4.53,40.873,40.873,0,0,1,.752,6.35C227.179,174.133,222.356,193.476,220.8,204.205Z" transform="translate(-214.335 -86.617)" fill="#003c7f"/>
            <path id="Path_15169" data-name="Path 15169" d="M235.613,142.09c-.033.169-.082.351-.129.533-1.758,7.549-7.3,27.917-9.8,34.5v.013a4.013,4.013,0,0,1-2.963,1.984c-3.323.759-8.172-.666-8.323-7.238a15.88,15.88,0,0,1,.124-2.364c.653-5.3,3.032-34.66,3.385-37.487s1.023-6.945,2.544-7.409C228.029,122.339,238.008,131.528,235.613,142.09Z" transform="translate(-214.269 -110.445)" fill="#003c7f"/>
            <path id="Path_15170" data-name="Path 15170" d="M222.147,145.806a36.669,36.669,0,0,0-.957,11.415c.564,5.682-2.5-5.083-2.5-5.083l2.018-3.755Z" transform="translate(-209.025 -84.182)" fill="#453a4e"/>
            <path id="Path_15171" data-name="Path 15171" d="M217,227.483s1.636-17.026,3.647-28.789a46.938,46.938,0,0,0-1.119-20.115c-.264-.932-.455-1.44-.455-1.44l2.051-5.074c2.326-6.616,3.023-22.248,3.023-22.248-4.539-11.215-4.665-25.1-4.665-25.1l4.246.768L231,134.964l1.3,7.12c-1.425,6.117-5.331,20.652-8.094,29.448v0a36.66,36.66,0,0,0-.957,11.413,5.921,5.921,0,0,1,.036,1.507c.3,14.291-4.233,32.682-5.74,43.045C217.358,227.5,217.174,227.492,217,227.483Z" transform="translate(-211.081 -109.906)" fill="#00335f"/>
            <path id="Path_15172" data-name="Path 15172" d="M235.437,147.821c-4.865-4.969-12-3.005-9.013,4.519,3.192,8.043,13.159,30.425,18.411,46.3l.364,1.034a32.117,32.117,0,0,0,6.252-1.744c-2.386-10.263-3.707-27.837-9.033-40.264A33.01,33.01,0,0,0,235.437,147.821Z" transform="translate(-200.455 -85.063)" fill="#003c7f"/>
            <g id="Group_5744" data-name="Group 5744" transform="translate(8.384 8.776)">
              <g id="Group_5743" data-name="Group 5743">
                <path id="Path_15173" data-name="Path 15173" d="M218.125,128.03c-.5-11.794,13.83-3.385,20.7.786,2.89,1.753,3.838,5.067,4.106,8.159s2.766,34.921,3.289,40.732c1.183,13.1-9.9,5.507-10.829,1.851C233.049,170.333,218.4,134.455,218.125,128.03Z" transform="translate(-218.112 -121.995)" fill="#003c7f"/>
              </g>
            </g>
            <path id="Path_15174" data-name="Path 15174" d="M233.294,143.439s.206,6.255,5.127,14.156c0,0-8.405-4.31-8.8-4.907a32.265,32.265,0,0,1-1.447-7.333C228.369,144.722,233.294,143.439,233.294,143.439Z" transform="translate(-197.48 -87.068)" fill="#003c7f"/>
          </g>
        </g>
        <g id="Group_5748" data-name="Group 5748" transform="translate(38.602 9.604)">
          <g id="Group_5747" data-name="Group 5747">
            <path id="Path_15175" data-name="Path 15175" d="M219.3,100.405c-.029.888-.064,4.359,1.78,5.189s3.03,1.194,2.976,1.48c-.022.129-.2.739-.4,1.338a2.777,2.777,0,0,1-1.068,1.673l-.266,4.443,3.314,3.3,1.083,1.079,1.627-1.489,5.3-4.832s-2.184-2.692-.675-5.578c.215-.406,2.632-3.083,4.559-5.78a14.389,14.389,0,0,0,2.328-4.293c.692-3.085,1.274-6.332-.5-8.27s-13.9-9.906-16.331-.557c0,0-2.785,5.131-3.693,5.939a1.409,1.409,0,0,0,.131,2.384C220.272,96.9,219.331,99.518,219.3,100.405Z" transform="translate(-216.821 -80.524)" fill="#ffc8a4"/>
            <path id="Path_15176" data-name="Path 15176" d="M220.359,106.47l3.314,3.3,1.01.488,1.7-.9,5.3-4.832s-2.184-2.692-.675-5.578c.215-.406,2.632-3.083,4.559-5.78l.224-1.858s-3.767-1.039-3.922-1.045a13.262,13.262,0,0,0-1.864,2.011c-.02.118.282,2.3.282,2.3s-.495,2.859-1.092,5.029a3.043,3.043,0,0,1-2.723,2.084,10.021,10.021,0,0,1-2.3-.067,4.35,4.35,0,0,1-2.479-1.281,2.777,2.777,0,0,1-1.068,1.673Z" transform="translate(-214.857 -72.464)" fill="#ffc8a4"/>
            <path id="Path_15177" data-name="Path 15177" d="M234.724,99.433s.289,6.328-4.184,8.936-10.618-.282-11.382-1.161-2.746-6.448.613-8.3,6.563,1.334,6.563,1.334,1.867,2.1,2.623,2.115c.735.016,2.85-1.875,3.149-5.833a.473.473,0,0,0-.366-.477c-.854-.253-2.737-1.252-1.778-5.074a.568.568,0,0,0-.513-.681,42.7,42.7,0,0,0-4.364-.446,5.5,5.5,0,0,0-.832.069.44.44,0,0,0-.317.211c-.2.355-.65,1.163-.759,1.354-.142.249-1.2,2.042-1.2,2.042a1.281,1.281,0,0,1-.442-1.163,18.3,18.3,0,0,0,.706-2.5c-.073-.366-1.11-.795-1.116-1.616-.018-1.858.708-8.967,6.346-4.6a9.792,9.792,0,0,0,2.044,1.5c.852.313,1.818-.291,3.673-.16,2.592.182,13.736,2.788,10.168,12.7s-9.437,11.324-9.437,11.324S235.842,100.694,234.724,99.433Z" transform="translate(-217.88 -82.248)" fill="#003c7f"/>
          </g>
          <path id="Path_15178" data-name="Path 15178" d="M225.715,90.706s.553-1.7,1.978-1.212c1.913.659,1.74,5.462-2.426,4.83A12.708,12.708,0,0,0,225.715,90.706Z" transform="translate(-208.872 -73.521)" fill="#ffc8a4"/>
        </g>
        <path id="Path_15179" data-name="Path 15179" d="M214.77,152.08a89,89,0,0,0,34.018.186,216.566,216.566,0,0,1-1.607-21.8l-.027-.681c-.151-4.261-.229-7.3-.324-7.429-.189-.262.484-13.861-.633-19.192a3.69,3.69,0,0,0-.819-1.96,40.442,40.442,0,0,0-7.733-5.218s-6.778,7.291-10.236-.777c-3.8-.344-5.742.424-6.843,4.233C214.477,120.6,214.77,152.08,214.77,152.08Z" transform="translate(-183.074 -56.931)" fill="#4c9ad5"/>
        <path id="Path_15180" data-name="Path 15180" d="M229.342,96.7a33.651,33.651,0,0,1-12.731-2.743c-3.587,4.219-5.755,11.905-5.755,11.905s8.672,5.513,15.013,6.044A88.612,88.612,0,0,1,229.342,96.7Z" transform="translate(-187.844 -58.369)" fill="#4c9ad5"/>
        <path id="Path_15181" data-name="Path 15181" d="M228.121,95.787a30.468,30.468,0,0,0-5.191,13.348c-4.372-.852-11.211-4.632-12.074-5.511,1.924.624,10.139,3.678,11.264,1.15A39.128,39.128,0,0,1,228.121,95.787Z" transform="translate(-187.844 -56.134)" fill="#3f4b9a" opacity="0.5"/>
        <g id="Group_5749" data-name="Group 5749" transform="translate(13.363 44.374)">
          <path id="Path_15182" data-name="Path 15182" d="M234.571,97.925,206.9,100.8l5.049,11.137,23.911-11.093a1.164,1.164,0,0,0,.688-1.6l-.3-.575A1.683,1.683,0,0,0,234.571,97.925Z" transform="translate(-206.036 -97.914)" fill="#ff9e14"/>
          <path id="Path_15183" data-name="Path 15183" d="M234.571,97.925,206.9,100.8l5.049,11.137,23.911-11.093a1.164,1.164,0,0,0,.688-1.6l-.3-.575A1.683,1.683,0,0,0,234.571,97.925Z" transform="translate(-206.036 -97.914)" fill="#1c3742"/>
          <path id="Path_15184" data-name="Path 15184" d="M207.788,105.443c1.476,3.047,3.631,5.216,4.816,4.847s.952-3.141-.524-6.188-3.631-5.216-4.816-4.845S206.314,102.4,207.788,105.443Z" transform="translate(-206.509 -96.326)" fill="#ff9e14"/>
          <path id="Path_15185" data-name="Path 15185" d="M207.788,105.443c1.476,3.047,3.631,5.216,4.816,4.847s.952-3.141-.524-6.188-3.631-5.216-4.816-4.845S206.314,102.4,207.788,105.443Z" transform="translate(-206.509 -96.326)" fill="#ff9e14" opacity="0.5"/>
          <path id="Path_15186" data-name="Path 15186" d="M207.788,105.443c1.476,3.047,3.631,5.216,4.816,4.847s.952-3.141-.524-6.188-3.631-5.216-4.816-4.845S206.314,102.4,207.788,105.443Z" transform="translate(-206.509 -96.326)" fill="#132328"/>
        </g>
        <g id="Group_5750" data-name="Group 5750" transform="translate(29.772 43.058)">
          <path id="Path_15187" data-name="Path 15187" d="M246.515,113.827s-2.916,10.063-10.5,14.8a5.294,5.294,0,0,1-6.718-1.334c-5.194-5.806-10.385-18.89-12.045-23.828,3.045-1.618,4.017-1.365,4.017-1.365s7.364,10.223,11.59,17.066l3.156-5.5" transform="translate(-209.82 -91.509)" fill="#ffc8a4"/>
          <path id="Path_15188" data-name="Path 15188" d="M225.566,108.3a10.12,10.12,0,0,1-1.418-3.846c-.064-1.658.721-4.523-.888-6.015a6.879,6.879,0,0,0-5.058-1.014c-3.514.582-4.466,1.618-4.277,2.359s2.623,1,3.26,2.262.282,2.051.442,3.434c.24,2.08,3.138,2.961,3.769,4C221.844,110.209,225.566,108.3,225.566,108.3Z" transform="translate(-213.902 -97.321)" fill="#f99c70"/>
        </g>
        <path id="Path_15189" data-name="Path 15189" d="M245.766,143.522c-.877-3.027-1.3-13.683-1.389-16.329a13.956,13.956,0,0,1-9.624-6.272c.99-1.7,3.458-7.577,8.032-12.573l2.641-9.9s.3.233.77.677c1.116,5.331.444,18.93.633,19.192.1.124.173,3.167.324,7.429l.027.681h0a218.6,218.6,0,0,0,1.609,21.8,88.994,88.994,0,0,1-34.018-.186C233.675,149.667,246.745,146.969,245.766,143.522Z" transform="translate(-183.072 -52.891)" fill="#3f4b9a" opacity="0.5"/>
        <g id="Group_5751" data-name="Group 5751" transform="translate(52.728 42.88)">
          <path id="Path_15190" data-name="Path 15190" d="M232.084,97.241s7.817,5.12,8.15,13.839c.26,6.738-4.2,16.573-4.2,16.573s-7.733.855-11.792-5.467a48.17,48.17,0,0,1,4.563-9.422" transform="translate(-224.245 -97.241)" fill="#4c9ad5"/>
        </g>
      </g>
      <path id="Path_15191" data-name="Path 15191" d="M219.729,88.354c-.042.206-.029.408-.06.613,7.515,3.274,17.394,6.188,24.8,9.85a20.093,20.093,0,0,0,1.8-5.349c1.416-6.991-4.321-13.792-11.313-15.208a12.914,12.914,0,0,0-15.221,10.094" transform="translate(-177.097 -77.825)" fill="#ffc617"/>
      <path id="Path_15192" data-name="Path 15192" d="M221.735,82.109a7.907,7.907,0,0,0-4.115,1.622L246.7,94.656l.695-1.776Z" transform="translate(-179.596 -72.814)" fill="#ffc617"/>
    </g>
    <path id="Path_15193" data-name="Path 15193" d="M229.287,78.027l4.2-3.132a26.094,26.094,0,0,0-8.026-8.023l-3.13,4.2a20.593,20.593,0,0,0-5.853-2.426l.761-5.191a25.427,25.427,0,0,0-11.35,0l.759,5.191a20.606,20.606,0,0,0-5.851,2.426l-3.132-4.2a26.11,26.11,0,0,0-8.023,8.023l4.2,3.132a20.6,20.6,0,0,0-2.426,5.851l-5.194-.759a25.513,25.513,0,0,0,0,11.351l5.194-.761a20.591,20.591,0,0,0,2.426,5.853l-4.2,3.132a26.109,26.109,0,0,0,8.023,8.023l3.132-4.2a20.669,20.669,0,0,0,5.851,2.426l-.759,5.191a25.427,25.427,0,0,0,11.35,0l-.761-5.191a20.657,20.657,0,0,0,5.853-2.426l3.13,4.2a26.094,26.094,0,0,0,8.026-8.023l-4.2-3.132a20.656,20.656,0,0,0,2.426-5.853l5.191.761a25.427,25.427,0,0,0,0-11.351l-5.191.759A20.669,20.669,0,0,0,229.287,78.027Zm-17.718,24.554a13.787,13.787,0,1,1,13.787-13.787A13.787,13.787,0,0,1,211.569,102.581Z" transform="translate(172.114 37.196)" fill="#f28f48"/>
    <path id="Path_15194" data-name="Path 15194" d="M103.877,53.543l2.914-2.171a18.065,18.065,0,0,0-5.562-5.56l-2.168,2.912A14.337,14.337,0,0,0,95,47.044l.528-3.6a17.655,17.655,0,0,0-7.868,0l.526,3.6a14.3,14.3,0,0,0-4.055,1.68l-2.171-2.912a18.065,18.065,0,0,0-5.562,5.56l2.914,2.171A14.315,14.315,0,0,0,77.634,57.6l-3.6-.528a17.655,17.655,0,0,0,0,7.868l3.6-.528a14.315,14.315,0,0,0,1.682,4.057L76.4,70.639a18.065,18.065,0,0,0,5.562,5.56l2.171-2.912a14.3,14.3,0,0,0,4.055,1.68l-.526,3.6a17.655,17.655,0,0,0,7.868,0L95,74.967a14.337,14.337,0,0,0,4.057-1.68l2.168,2.912a18.065,18.065,0,0,0,5.562-5.56l-2.914-2.171a14.251,14.251,0,0,0,1.682-4.057l3.6.528a17.655,17.655,0,0,0,0-7.868l-3.6.528A14.251,14.251,0,0,0,103.877,53.543ZM91.6,70.562a9.556,9.556,0,1,1,9.557-9.555A9.556,9.556,0,0,1,91.6,70.562Z" transform="translate(35.531 13.03)" fill="#f28f48"/>
  </g>
</svg>
