<svg xmlns="http://www.w3.org/2000/svg" xmlns:xlink="http://www.w3.org/1999/xlink" width="518.728" height="391.278" viewBox="0 0 518.728 391.278">
  <defs>
    <clipPath id="clip-path">
      <rect width="518.728" height="391.278" fill="none"/>
    </clipPath>
    <linearGradient id="linear-gradient" x1="0.5" y1="1.883" x2="0.5" y2="-0.003" gradientUnits="objectBoundingBox">
      <stop offset="0.005" stop-color="#ffd819"/>
      <stop offset="1" stop-color="#feb744"/>
    </linearGradient>
    <linearGradient id="linear-gradient-2" x1="0" y1="0.5" x2="1" y2="0.5" xlink:href="#linear-gradient"/>
  </defs>
  <g id="Our_Work-Main" data-name="Our Work-Main" clip-path="url(#clip-path)">
    <g id="Group_4467" data-name="Group 4467" transform="translate(385.146 15.56)">
      <path id="Path_9214" data-name="Path 9214" d="M3351.349,797.533s28.419,29.529,33.519,55.3c1.73,8.745,1.094,15.654-.5,20.965a15.353,15.353,0,0,1-25.488,6.5c-3.943-3.9-7.81-9.66-10.478-18.166C3340.539,837.066,3351.349,797.533,3351.349,797.533Z" transform="translate(-3345.536 -797.533)" fill="#bae3dd"/>
      <path id="Path_9215" data-name="Path 9215" d="M3367.709,865.028q-.667-2.637-1.335-5.274l-19.655-4.652q-.056-.314-.109-.632l19.6,4.639-1.261-4.987q-9.367-2.371-18.911-3.911c-.021-.2-.042-.4-.062-.6q9.484,1.521,18.807,3.866-.6-2.4-1.211-4.791-8.965-1.862-17.927-3.725c-.01-.2-.019-.4-.027-.607l17.793,3.7-1.271-5.023q-8.213-2.454-16.6-4.234c0-.2.005-.4.008-.6q8.293,1.749,16.424,4.167-.655-2.587-1.308-5.172-7.405-2.105-14.965-3.568c.01-.2.02-.395.032-.592q7.452,1.436,14.765,3.5-.534-2.105-1.067-4.212-6.608-2.17-13.391-3.734c.017-.2.033-.4.052-.594q6.662,1.531,13.168,3.652-.65-2.567-1.3-5.135a55.922,55.922,0,0,0-11.347-3.575c.023-.2.047-.391.07-.587a56.54,56.54,0,0,1,11.1,3.448l-.441-1.75a.3.3,0,0,1-.077-.3l-.321-1.266a29.014,29.014,0,0,0-9.881-3.018c.027-.194.053-.39.08-.582a29.679,29.679,0,0,1,9.61,2.845l-.974-3.849a57.969,57.969,0,0,0-8.079-2.7c.031-.2.063-.39.094-.584a57.882,57.882,0,0,1,7.807,2.576l-.907-3.576q-2.77-.68-5.543-1.357c-.3-.075-.612-.147-.918-.224.035-.192.069-.385.1-.575.452.112.907.214,1.355.324q2.421.59,4.839,1.183-.381-1.513-.764-3.024-2.361-1.031-4.8-1.852c.038-.2.077-.391.115-.584q2.281.768,4.5,1.715l-.895-3.531q-1.483-.59-3.014-1.037c.042-.2.084-.388.125-.579q1.372.4,2.714.917l-.541-2.131-1.744-.706c.045-.2.09-.391.133-.581l1.432.581-.8-3.185c.228-.908.364-1.4.364-1.4s.344.358.963,1.029l.9,3.55a13.431,13.431,0,0,1,.843-1.628c.133.147.27.3.41.46a12.95,12.95,0,0,0-1,2.151l.627,2.479a20.152,20.152,0,0,1,1.683-3.138l.4.462a19.164,19.164,0,0,0-1.727,3.351.289.289,0,0,1-.146.161l1.154,4.558q1.41-2.735,3.009-5.36l.4.48q-1.7,2.81-3.19,5.741l1.039,4.1q2-3.726,4.177-7.349c.131.162.261.326.393.492q-2.278,3.794-4.356,7.7l1.271,5.025q2.48-5.023,5.338-9.843.193.254.388.507-2.953,5-5.5,10.222l.838,3.312q3.629-5.026,7.253-10.05l.363.5-7.427,10.293,1.626,6.425a146,146,0,0,1,7.854-13.809c.122.176.243.353.365.529a146.129,146.129,0,0,0-8,14.16l1.489,5.885,10.1-14.565.339.545-10.245,14.777q.283,1.122.567,2.243l.69,2.728,11.387-15.722.319.562-11.517,15.9q.532,2.105,1.064,4.209l13.194-14.956c.095.191.189.38.283.57l-13.227,15a.3.3,0,0,1-.079.062q.76,3.008,1.522,6.017l13.836-16.586c.087.2.172.407.257.611q-6.958,8.338-13.914,16.679.569,2.253,1.141,4.507l15.149-14.563c.063.214.127.427.187.641l-15.17,14.582q.608,2.4,1.214,4.8a181.28,181.28,0,0,0,15.331-13.253c.038.241.077.479.112.716a181.55,181.55,0,0,1-15.286,13.156q.986,3.892,1.971,7.785,7.2-5.525,13.855-11.711c-.012.288-.029.57-.045.851q-6.519,6.014-13.57,11.417a.336.336,0,0,1-.088.047q.414,1.638.83,3.275l11.88-8.319q-.108.444-.221.873l-11.5,8.056.819,3.242c-.439.129-.888.238-1.338.326l-.227-.9-12.5-2.318c-.288-.239-.569-.49-.845-.756l13.181,2.447-.734-2.9-15.569-3.028q-.268-.346-.537-.7l15.947,3.1-1.138-4.495-17.721-3.12c-.122-.217-.241-.438-.361-.661l17.925,3.156-.994-3.921-.027-.109a184.908,184.908,0,0,0-18.874-3.285c-.087-.207-.172-.415-.258-.625a185.751,185.751,0,0,1,18.969,3.27l-.127-.505a.241.241,0,0,1-.027-.105q-.416-1.643-.831-3.285-9.839-3.013-19.925-5.078c-.06-.211-.117-.425-.174-.637Q3357.859,862.024,3367.709,865.028Z" transform="translate(-3345.533 -797.533)" fill="#97c9ce"/>
    </g>
    <g id="Group_4468" data-name="Group 4468" transform="translate(439.283 163.552)">
      <path id="Path_9216" data-name="Path 9216" d="M3428.938,886s.6,40.98-13.273,63.286c-4.707,7.571-9.89,12.183-14.68,14.975a15.353,15.353,0,0,1-23.059-12.656c-.218-5.542.892-12.39,4.75-20.426C3394.047,907.5,3428.938,886,3428.938,886Z" transform="translate(-3377.899 -886.004)" fill="#bae3dd"/>
      <path id="Path_9217" data-name="Path 9217" d="M3394.787,946.485l2.626-4.764q-5.593-8.411-11.183-16.82c.116-.179.234-.358.354-.535l11.151,16.773,2.482-4.5q-5.22-8.13-11.142-15.771c.12-.162.243-.323.366-.483q5.892,7.588,11.1,15.667,1.191-2.163,2.385-4.327l-10.554-14.963.4-.462,10.473,14.851,2.5-4.537q-4.321-7.4-9.237-14.429l.417-.433q4.863,6.943,9.152,14.26,1.291-2.336,2.576-4.672-3.97-6.594-8.5-12.825l.428-.412q4.467,6.138,8.4,12.64,1.049-1.9,2.1-3.806-3.347-6.1-7.235-11.872c.149-.132.3-.266.444-.4q3.824,5.668,7.128,11.659,1.277-2.318,2.556-4.639a56.1,56.1,0,0,0-5.846-10.359c.151-.129.3-.254.45-.381a56.536,56.536,0,0,1,5.753,10.1l.872-1.579a.3.3,0,0,1,.151-.274l.631-1.144a29,29,0,0,0-5.159-8.953l.458-.37a29.723,29.723,0,0,1,5.077,8.64l1.917-3.476a58.009,58.009,0,0,0-4.059-7.489l.468-.363a57.738,57.738,0,0,1,3.943,7.213l1.782-3.232q-1.561-2.389-3.123-4.776c-.172-.264-.348-.527-.518-.791l.468-.351c.254.392.517.778.77,1.164q1.362,2.085,2.726,4.169.753-1.365,1.507-2.733-1.021-2.364-2.241-4.627l.483-.348q1.142,2.12,2.116,4.324l1.76-3.19q-.683-1.445-1.5-2.815l.487-.338q.73,1.232,1.358,2.521l1.061-1.924-.793-1.708.493-.333.651,1.4,1.586-2.875c.788-.509,1.223-.776,1.223-.776s.007.5,0,1.41l-1.767,3.207a13.211,13.211,0,0,1,1.727-.614c0,.2-.008.4-.015.616a12.957,12.957,0,0,0-2.2.886l-1.235,2.238a20.233,20.233,0,0,1,3.373-1.142c-.009.2-.015.4-.025.611a19.262,19.262,0,0,0-3.548,1.268.29.29,0,0,1-.216.018l-2.269,4.118q2.9-1.036,5.856-1.86c-.011.2-.023.413-.037.622q-3.159.891-6.25,2.016l-2.043,3.7q4-1.357,8.071-2.514-.025.311-.05.627-4.253,1.214-8.443,2.653l-2.5,4.54q5.242-1.977,10.621-3.545c-.02.211-.042.422-.063.634q-5.57,1.636-11,3.71l-1.649,2.994q6.08-1.2,12.161-2.39c-.025.2-.052.41-.077.615q-6.228,1.222-12.456,2.447l-3.2,5.8a145.976,145.976,0,0,1,15.167-4.724c-.032.211-.064.423-.1.634a145.791,145.791,0,0,0-15.51,4.886l-2.93,5.314,17.322-3.744c-.04.209-.082.42-.124.629l-17.575,3.8q-.557,1.014-1.116,2.027l-1.36,2.464q9.528-1.854,19.055-3.71l-.151.629-19.273,3.754q-1.049,1.9-2.1,3.8,9.926-.959,19.853-1.919c-.062.2-.122.408-.184.611l-19.9,1.922a.267.267,0,0,1-.1-.007l-3,5.435,21.433-2.67c-.075.207-.152.415-.229.622q-10.777,1.34-21.555,2.683l-2.244,4.071,21.012-.293c-.1.2-.2.4-.3.594l-21.042.294q-1.2,2.168-2.389,4.336a181.817,181.817,0,0,0,20.249.786c-.135.2-.271.4-.406.6a181.722,181.722,0,0,1-20.15-.826q-1.939,3.515-3.877,7.032,9.036.881,18.12.907c-.206.2-.41.4-.614.59q-8.87-.058-17.71-.925a.3.3,0,0,1-.1-.027q-.816,1.48-1.631,2.959l14.359,2.036q-.379.251-.758.487l-13.906-1.971-1.614,2.929q-.615-.314-1.2-.677l.449-.811q-3.774-5.114-7.546-10.226-.07-.557-.1-1.129l7.958,10.788,1.444-2.618-9.306-12.844c.025-.291.055-.585.089-.882l9.531,13.155,2.239-4.06q-5.407-7.191-10.816-14.381c.06-.241.122-.483.187-.728l10.94,14.545,1.952-3.543.055-.1a184.8,184.8,0,0,0-11.545-15.289c.077-.211.157-.42.239-.632a186.088,186.088,0,0,1,11.624,15.341l.253-.455a.212.212,0,0,1,.051-.1l1.636-2.967q-5.129-8.92-11.089-17.317c.1-.194.206-.39.309-.584Q3389.642,937.566,3394.787,946.485Z" transform="translate(-3377.883 -886.004)" fill="#97c9ce"/>
    </g>
    <g id="Group_4471" data-name="Group 4471" transform="translate(119.952 25.092)">
      <path id="Path_9218" data-name="Path 9218" d="M3228.734,861.895A217.119,217.119,0,0,1,3253.919,952a212.545,212.545,0,0,1-.168,26.694,1.986,1.986,0,0,0,1.282,2.216,1.937,1.937,0,0,0,2.374-.958q.559-1.35,1.122-2.7c.96-2.308-2.524-4.051-3.49-1.735q-.562,1.35-1.122,2.7l3.654,1.256a219.937,219.937,0,0,0-25.614-119.769,1.962,1.962,0,0,0-2.707-.517,2,2,0,0,0-.517,2.706Z" transform="translate(-3159.128 -765.801)" fill="#2a9d8e"/>
      <path id="Path_9219" data-name="Path 9219" d="M3269.37,826.5c4.411,12.31-3.993,32.99-8.019,34.2s5.92-30.7,1.618-36.709-17.22-10.639-17.22-10.639c2.748,3.178,3.642,23.109-.99,25.652s.461-11.97-3.1-22.736-33.6-13.034-33.6-13.034,1.315,10.328-5.6,18.472-20.629,22.72-12.833,34.491c6,9.055,35.041,3.539,32.937,5.2s-26.773,9.167-35.558-.743c0,0-.7,29.844,15.589,33.293s32.906-1.653,31.72,1.676-27.336,7.492-39.683-2.807c0,0,11.736,43.392,40.309,41.774s28.887-29.719,28.887-29.719c27.33,7.1,39.791-9.451,39.233-29.441C3302.566,857.695,3269.37,826.5,3269.37,826.5Zm-57.963,51.443a22.253,22.253,0,0,1-5.7,2.4c-1.78.192-2.414-1.315-1.432-2.608,1.382-1.82,2.855-3.391,4.67-2.563S3212.249,877.377,3211.407,877.944Zm31.1,25.366c-4.055,2.538-13.684,7.507-16.629,6.924a3.4,3.4,0,0,1-2.528-3.426c.619-2.551,2.655-3.978,7.44-4.612s11.362-6.025,12.793-5.135S3246.562,900.77,3242.508,903.31ZM3232.5,870.56c-.42,1.907-7.522,4.744-9.663,5.3-3.068.8-7.163,4.14-7.486-.084-.2-2.543,4.6-4.411,8.939-4.906S3232.921,868.653,3232.5,870.56Zm-2.32-37.9a7.06,7.06,0,0,1,.291-5.512c1.835-4.674,3.946-7.509,4.542-3.75s1.538,8.692.633,9.921l-.027.037A3.171,3.171,0,0,1,3230.181,832.658Zm42.057,43.494c-7.491,7.253-12.489,13.611-12.924,7.091,0,0-.612-3.12,3.876-6.683s4.48-7.016,7.608-9.046S3279.73,868.9,3272.238,876.152Zm10.105-13.088c-3.661,2.261-4.779,4.03-6.074,2.539a3.164,3.164,0,0,1-.5-3.237,10.107,10.107,0,0,1,3.938-4.4C3281.292,856.982,3286.921,860.237,3282.343,863.064Z" transform="translate(-3187 -803.231)" fill="#2a9d8e"/>
      <g id="Group_4470" data-name="Group 4470" transform="translate(21.058)">
        <g id="Group_4469" data-name="Group 4469">
          <path id="Path_9220" data-name="Path 9220" d="M3211.2,865.561c-1.874.437-3.739.83-5.564,1.2-.87.177-.549,1.517.318,1.342,1.886-.385,3.811-.794,5.744-1.25A4.064,4.064,0,0,1,3211.2,865.561Z" transform="translate(-3195.869 -761.297)" fill="#2a9d8e"/>
          <path id="Path_9221" data-name="Path 9221" d="M3245.021,890.575l.1-.186a.74.74,0,0,0,.075-.234q3.142-2.346,6.086-4.925a4.374,4.374,0,0,1-.39-1.467q-3.26,2.885-6.765,5.488c-1.456-2.176-2.862-4.373-4.19-6.606-3.054-5.132-5.771-10.428-8.309-15.813a44.4,44.4,0,0,0,14.566-32.094.689.689,0,0,0-1.376-.039,43.034,43.034,0,0,1-13.8,30.823c-3.128-6.731-6-13.593-8.9-20.435a38.235,38.235,0,0,0,2.936-10.515,3.253,3.253,0,0,1-1.36-.122,36.125,36.125,0,0,1-2.32,8.887c-2.42-5.684-4.886-11.348-7.566-16.907a148.975,148.975,0,0,0-13.551-23.143c-.427-.04-.664-.058-.664-.058s.075.594.1,1.6c8.652,12.081,14.767,25.761,20.6,39.442a38.623,38.623,0,0,1-17.717-5.59.689.689,0,0,0-.709,1.181,40.083,40.083,0,0,0,18.949,5.825c.027,0,.052,0,.077-.005q1.349,3.182,2.695,6.35c3.794,8.909,7.686,17.8,12.327,26.3a58.548,58.548,0,0,1-30.768,4.781c-.883-.1-.913,1.276-.038,1.377a59.852,59.852,0,0,0,31.47-4.951c.032.058.063.119.1.177,2.088,3.74,4.376,7.345,6.757,10.89a27.44,27.44,0,0,1-7.029,7.941,2.859,2.859,0,0,1,.216,1.559,28.852,28.852,0,0,0,7.667-8.237c3.145,4.623,6.428,9.155,9.618,13.755q.628.908,1.251,1.82c.125-.99.177-1.738.2-2.169C3251.938,900.354,3248.374,895.511,3245.021,890.575Z" transform="translate(-3199.589 -803.231)" fill="#1f7264"/>
          <path id="Path_9222" data-name="Path 9222" d="M3241.165,840.759a2.938,2.938,0,0,1-.4-.6q-.776,1.142-1.584,2.262a2.862,2.862,0,0,1,1.069.865q.745-1.031,1.465-2.083A1.737,1.737,0,0,1,3241.165,840.759Z" transform="translate(-3172.954 -778.387)" fill="#2a9d8e"/>
          <path id="Path_9223" data-name="Path 9223" d="M3213.332,813.329a36.84,36.84,0,0,1,.959,4.282,8.578,8.578,0,0,1,1.109-1.626c-.2-1-.441-1.991-.726-2.974C3214.427,812.162,3213.086,812.476,3213.332,813.329Z" transform="translate(-3190.363 -796.988)" fill="#2a9d8e"/>
        </g>
      </g>
    </g>
    <g id="Group_4474" data-name="Group 4474" transform="translate(402.651)">
      <path id="Path_9224" data-name="Path 9224" d="M3395.832,846.9A217.134,217.134,0,0,0,3370.646,937a212.406,212.406,0,0,0,.169,26.694,1.985,1.985,0,0,1-1.281,2.216,1.937,1.937,0,0,1-2.374-.958q-.562-1.35-1.123-2.7c-.961-2.308,2.525-4.051,3.49-1.735q.562,1.35,1.123,2.7L3367,964.474a219.927,219.927,0,0,1,25.614-119.769,1.962,1.962,0,0,1,2.706-.517,2,2,0,0,1,.517,2.707Z" transform="translate(-3349.359 -750.801)" fill="#2a9d8e"/>
      <path id="Path_9225" data-name="Path 9225" d="M3356.018,860.426c-.557,19.99,11.9,36.54,39.233,29.441,0,0,.314,28.1,28.887,29.719s40.31-41.774,40.31-41.774c-12.347,10.3-38.5,6.137-39.684,2.807s15.431,1.773,31.719-1.676,15.59-33.293,15.59-33.293c-8.785,9.909-33.453,2.4-35.558.743s26.941,3.857,32.937-5.2c7.8-11.771-5.922-26.346-12.833-34.491s-5.6-18.472-5.6-18.472-30.034,2.268-33.6,13.034,1.529,25.277-3.1,22.736-3.739-22.474-.99-25.652c0,0-12.919,4.629-17.219,10.639s5.644,37.913,1.618,36.709-12.431-21.887-8.02-34.2C3389.708,811.5,3356.511,842.695,3356.018,860.426Zm94.118-.258c1.815-.828,3.289.743,4.671,2.563.982,1.293.348,2.8-1.432,2.608a22.219,22.219,0,0,1-5.7-2.4C3446.83,862.377,3448.32,860.995,3450.136,860.169Zm-34.643,21.891c1.432-.89,8.008,4.5,12.794,5.135s6.822,2.061,7.441,4.612a3.4,3.4,0,0,1-2.528,3.426c-2.946.584-12.575-4.386-16.63-6.924S3414.062,882.952,3415.493,882.06Zm19.294-26.187c4.337.5,9.135,2.364,8.939,4.906-.323,4.224-4.418.883-7.486.084-2.141-.559-9.244-3.4-9.664-5.3S3430.448,855.379,3434.787,855.873Zm-11.328-37.519-.027-.037c-.905-1.229.035-6.161.632-9.921s2.707-.923,4.542,3.75a7.061,7.061,0,0,1,.291,5.512A3.171,3.171,0,0,1,3423.459,818.354Zm-35.178,34.16c3.128,2.031,3.12,5.483,7.608,9.046s3.876,6.683,3.876,6.683c-.435,6.521-5.433.162-12.924-7.091S3385.151,850.482,3388.281,852.514Zm-8.906-9.548a10.122,10.122,0,0,1,3.937,4.4,3.163,3.163,0,0,1-.5,3.237c-1.3,1.49-2.412-.278-6.074-2.539C3372.157,845.237,3377.786,841.982,3379.375,842.966Z" transform="translate(-3356 -788.231)" fill="#2a9d8e"/>
      <g id="Group_4473" data-name="Group 4473" transform="translate(26.262)">
        <g id="Group_4472" data-name="Group 4472">
          <path id="Path_9226" data-name="Path 9226" d="M3403.841,850.561c1.873.437,3.739.83,5.563,1.2.87.177.549,1.517-.317,1.342-1.887-.385-3.811-.794-5.744-1.25A4.087,4.087,0,0,0,3403.841,850.561Z" transform="translate(-3350.411 -746.297)" fill="#2a9d8e"/>
          <path id="Path_9227" data-name="Path 9227" d="M3389.795,875.575l-.1-.186a.741.741,0,0,1-.075-.234q-3.141-2.346-6.086-4.925a4.342,4.342,0,0,0,.389-1.467q3.262,2.886,6.766,5.488c1.456-2.176,2.862-4.373,4.19-6.606,3.054-5.132,5.771-10.428,8.308-15.813a44.414,44.414,0,0,1-14.568-32.094A.69.69,0,0,1,3390,819.7a43.038,43.038,0,0,0,13.8,30.822c3.129-6.731,6-13.593,8.9-20.435a38.269,38.269,0,0,1-2.936-10.515,3.251,3.251,0,0,0,1.36-.122,36.219,36.219,0,0,0,2.318,8.887c2.422-5.684,4.888-11.348,7.568-16.907a149.019,149.019,0,0,1,13.552-23.143c.427-.04.664-.058.664-.058s-.075.594-.095,1.6c-8.652,12.081-14.767,25.761-20.6,39.442a38.616,38.616,0,0,0,17.716-5.59.689.689,0,0,1,.71,1.181,40.084,40.084,0,0,1-18.949,5.825c-.027,0-.052,0-.077,0q-1.349,3.182-2.695,6.35c-3.794,8.909-7.687,17.8-12.327,26.3a58.549,58.549,0,0,0,30.767,4.781c.884-.1.912,1.276.038,1.377a59.852,59.852,0,0,1-31.47-4.951c-.032.058-.064.119-.1.177-2.088,3.74-4.376,7.345-6.756,10.89a27.406,27.406,0,0,0,7.029,7.941,2.859,2.859,0,0,0-.216,1.559,28.85,28.85,0,0,1-7.666-8.237c-3.145,4.624-6.428,9.155-9.618,13.755q-.628.908-1.251,1.82c-.125-.99-.177-1.738-.2-2.17C3382.878,885.354,3386.442,880.511,3389.795,875.575Z" transform="translate(-3366.469 -788.231)" fill="#1f7264"/>
          <path id="Path_9228" data-name="Path 9228" d="M3372.247,825.759a3.011,3.011,0,0,0,.4-.6c.517.761,1.048,1.514,1.584,2.261a2.85,2.85,0,0,0-1.069.865q-.745-1.031-1.465-2.083A1.745,1.745,0,0,0,3372.247,825.759Z" transform="translate(-3371.7 -763.387)" fill="#2a9d8e"/>
          <path id="Path_9229" data-name="Path 9229" d="M3399.9,798.329a36.338,36.338,0,0,0-.959,4.282,8.735,8.735,0,0,0-1.109-1.626c.2-1,.442-1.991.726-2.974C3398.809,797.162,3400.15,797.476,3399.9,798.329Z" transform="translate(-3354.115 -781.988)" fill="#2a9d8e"/>
        </g>
      </g>
    </g>
    <g id="Group_4479" data-name="Group 4479" transform="translate(172.992 67.343)">
      <path id="Path_9230" data-name="Path 9230" d="M3483.734,828.489H3229.4a10.69,10.69,0,0,0-10.689,10.691v222.83h275.715V839.18A10.689,10.689,0,0,0,3483.734,828.489Z" transform="translate(-3218.708 -828.489)" fill="#fff"/>
      <path id="Path_9231" data-name="Path 9231" d="M3483.734,828.489H3229.4c-5.9,0-10.689,2.305-10.689,5.147v12.435h275.715V833.636C3494.422,830.794,3489.637,828.489,3483.734,828.489Z" transform="translate(-3218.708 -828.489)" fill="#e76f50"/>
      <rect id="Rectangle_932" data-name="Rectangle 932" width="63.581" height="34.695" rx="1.631" transform="translate(134.966 135.525)" fill="#e9c464"/>
      <g id="Group_4475" data-name="Group 4475" transform="translate(134.966 36.545)">
        <rect id="Rectangle_933" data-name="Rectangle 933" width="128.994" height="70.389" rx="3.31" fill="#2a9d8e"/>
        <path id="Path_9232" data-name="Path 9232" d="M3357.506,874.986l-23-11.2a1.8,1.8,0,0,0-2.584,1.618V887.8a1.8,1.8,0,0,0,2.584,1.618l23-11.2A1.8,1.8,0,0,0,3357.506,874.986Z" transform="translate(-3277.503 -841.408)" fill="#264653"/>
      </g>
      <path id="Rectangle_934" data-name="Rectangle 934" d="M1.06,0H56.1a1.061,1.061,0,0,1,1.061,1.061V7.51A1.061,1.061,0,0,1,56.1,8.571H1.06A1.06,1.06,0,0,1,0,7.511V1.06A1.06,1.06,0,0,1,1.06,0Z" transform="translate(206.802 135.525)" fill="#ceebf0"/>
      <path id="Rectangle_935" data-name="Rectangle 935" d="M1.06,0H41.639A1.061,1.061,0,0,1,42.7,1.061v6.45a1.061,1.061,0,0,1-1.061,1.061H1.06A1.06,1.06,0,0,1,0,7.511V1.06A1.06,1.06,0,0,1,1.06,0Z" transform="translate(206.802 150.231)" fill="#ceebf0"/>
      <rect id="Rectangle_936" data-name="Rectangle 936" width="63.581" height="34.695" rx="1.631" transform="translate(134.966 185.428)" fill="#e9c464"/>
      <path id="Rectangle_937" data-name="Rectangle 937" d="M1.06,0H56.1a1.061,1.061,0,0,1,1.061,1.061V7.51A1.061,1.061,0,0,1,56.1,8.571H1.06A1.06,1.06,0,0,1,0,7.511V1.06A1.06,1.06,0,0,1,1.06,0Z" transform="translate(206.802 185.428)" fill="#ceebf0"/>
      <path id="Rectangle_938" data-name="Rectangle 938" d="M1.06,0H41.639A1.061,1.061,0,0,1,42.7,1.061v6.45a1.06,1.06,0,0,1-1.06,1.06H1.06A1.06,1.06,0,0,1,0,7.511V1.06A1.06,1.06,0,0,1,1.06,0Z" transform="translate(206.802 200.134)" fill="#ceebf0"/>
      <g id="Group_4476" data-name="Group 4476" transform="translate(3.759 27.563)">
        <rect id="Rectangle_939" data-name="Rectangle 939" width="48.483" height="8.571" rx="1.06" transform="translate(62.459 18.274)" fill="#ceebf0"/>
        <path id="Rectangle_940" data-name="Rectangle 940" d="M1.06,0h31.9a1.06,1.06,0,0,1,1.06,1.06v6.45a1.061,1.061,0,0,1-1.061,1.061H1.061A1.061,1.061,0,0,1,0,7.511V1.06A1.06,1.06,0,0,1,1.06,0Z" transform="translate(62.459 32.98)" fill="#ceebf0"/>
        <circle id="Ellipse_58" data-name="Ellipse 58" cx="22.604" cy="22.604" r="22.604" transform="translate(0 18.639) rotate(-24.35)" fill="#e76f50"/>
      </g>
      <g id="Group_4477" data-name="Group 4477" transform="translate(11.068 105.394)">
        <path id="Rectangle_941" data-name="Rectangle 941" d="M1.061,0H47.422a1.06,1.06,0,0,1,1.06,1.06V7.51a1.061,1.061,0,0,1-1.061,1.061H1.06A1.06,1.06,0,0,1,0,7.511V1.061A1.061,1.061,0,0,1,1.061,0Z" transform="translate(55.15 10.965)" fill="#ceebf0"/>
        <path id="Rectangle_942" data-name="Rectangle 942" d="M1.061,0h31.9a1.06,1.06,0,0,1,1.06,1.06v6.45a1.06,1.06,0,0,1-1.06,1.06H1.06A1.06,1.06,0,0,1,0,7.511V1.061A1.061,1.061,0,0,1,1.061,0Z" transform="translate(55.15 25.671)" fill="#ceebf0"/>
        <circle id="Ellipse_59" data-name="Ellipse 59" cx="22.604" cy="22.604" r="22.604" fill="#e76f50"/>
      </g>
      <g id="Group_4478" data-name="Group 4478" transform="translate(7.849 172.697)">
        <path id="Rectangle_943" data-name="Rectangle 943" d="M1.06,0H47.422a1.06,1.06,0,0,1,1.06,1.06v6.45a1.061,1.061,0,0,1-1.061,1.061H1.061A1.061,1.061,0,0,1,0,7.511V1.06A1.06,1.06,0,0,1,1.06,0Z" transform="translate(58.369 14.184)" fill="#ceebf0"/>
        <path id="Rectangle_944" data-name="Rectangle 944" d="M1.06,0h31.9a1.06,1.06,0,0,1,1.06,1.06V7.51a1.061,1.061,0,0,1-1.061,1.061H1.06A1.06,1.06,0,0,1,0,7.51V1.06A1.06,1.06,0,0,1,1.06,0Z" transform="translate(58.369 28.889)" fill="#ceebf0"/>
        <circle id="Ellipse_60" data-name="Ellipse 60" cx="22.603" cy="22.603" r="22.603" transform="matrix(0.154, -0.988, 0.988, 0.154, 0, 44.665)" fill="#e76f50"/>
      </g>
    </g>
    <g id="Group_4485" data-name="Group 4485" transform="translate(231.294 194.496)">
      <g id="Group_4480" data-name="Group 4480" transform="translate(33.989 185.008)">
        <path id="Path_9233" data-name="Path 9233" d="M3279.657,1015.1a61.386,61.386,0,0,0,.082,7.574c.254,1.112,3.707,1.221,4.126.632s.959-7.742.959-7.742" transform="translate(-3270.052 -1015.102)" fill="#ffd3b3"/>
        <path id="Path_9234" data-name="Path 9234" d="M3288.652,1021.213a24.178,24.178,0,0,1-.33,3.116h-4.172l-.206-.7a6.57,6.57,0,0,1-2.417.7h-3.521c-2.58,0-4.043-.328-4.108-.783-.273-1.9,2.809-1.81,3.61-1.81,2.3,0,4.8-1.077,5.339-2.247.395-.848.221-1.064.7-.9a1.2,1.2,0,0,1,.714.617,2.117,2.117,0,0,0,2.177,1.188,2.513,2.513,0,0,0,1.41-.679A1.519,1.519,0,0,1,3288.652,1021.213Z" transform="translate(-3273.881 -1012.791)" fill="#004991"/>
      </g>
      <g id="Group_4481" data-name="Group 4481" transform="translate(80.961 182.94)">
        <path id="Path_9235" data-name="Path 9235" d="M3305.563,1016.695s1.142,3.07,1.641,4.095,3.895-.238,4.066-.942-2.583-5.982-2.583-5.982" transform="translate(-3299.538 -1013.866)" fill="#ffd3b3"/>
        <path id="Path_9236" data-name="Path 9236" d="M3314.955,1017.759c.438,1.1,1.089,3.233,1.089,3.233l-3.163,1.887-.621-.468a6.173,6.173,0,0,1-1.664,1.74,13.533,13.533,0,0,1-3.132,1.3c-2.889.661-5.122.341-5.351-.055-.956-1.661,2.875-2.574,3.62-2.871a5.165,5.165,0,0,0,3.191-4.214c.052-.933-.189-1.069.313-1.1,0,0,.973-.166,1.552,1.29.038-.01,2.281-.408,2.859-1.84A1.524,1.524,0,0,1,3314.955,1017.759Z" transform="translate(-3301.961 -1011.986)" fill="#004991"/>
      </g>
      <g id="Group_4483" data-name="Group 4483" transform="translate(41.04 82.81)">
        <path id="Path_9237" data-name="Path 9237" d="M3305.535,977.583s.327-2.116.6-3.494c.85-4.374,2.177-13.158-4.985-20.082,0,0-8.44,3.779-15.2,4.235-5.323.358-6.544-.005-6.544-.005s-.346,7.183,1.8,25.189Z" transform="translate(-3277.229 -954.007)" fill="#004991"/>
        <g id="Group_4482" data-name="Group 4482" transform="translate(5.87 6.846)">
          <path id="Path_9238" data-name="Path 9238" d="M3321.689,1032.864a29.166,29.166,0,0,1-5.43,2.635l-.5-.878q-.526-.974-1.094-1.986l-.013-.013a.7.7,0,0,0-.053-.109c-1.2-2.108-2.526-4.336-3.917-6.633l-.014-.014a.1.1,0,0,0-.027-.053c-7.511-12.307-17.087-26.165-20.491-31.622-.013-.027-.042-.04-.042-.069a8.544,8.544,0,0,1-.66-1.3c-.027-.08-.069-.162-.1-.229a3.615,3.615,0,0,1-.216-.689c-.027-.135-.053-.271-.081-.418a.584.584,0,0,1-.014-.069,2.88,2.88,0,0,1,.689-2.444,2.443,2.443,0,0,1,.433-.393c1.836-1.323,5.523-1.025,8.563,1.122.149.107.311.229.474.351.08.054.162.12.243.176a29.323,29.323,0,0,1,7.295,7.32C3313.68,1008.036,3317.8,1023.881,3321.689,1032.864Z" transform="translate(-3276.625 -938.126)" fill="#004991"/>
          <path id="Path_9239" data-name="Path 9239" d="M3304.45,1011.274c.12,5.768-2,7.091-4.338,6.51a6.6,6.6,0,0,1-1.2-.447,10.535,10.535,0,0,1-3.931-3.5c-.014-.027-.041-.04-.027-.067a7.239,7.239,0,0,1-.527-.974c-.027-.08-.069-.162-.1-.229a3.6,3.6,0,0,1-.216-.689c-.027-.135-.054-.271-.081-.418a.582.582,0,0,1-.014-.069c-.567-2.877-1.917-7.807-3.552-13.561-.934-3.255-1.946-6.768-2.959-10.308-3.08-10.63-5.983-21.059-5.9-24.111.3-10.968,13.036-2.241,19.142,2.054,2.566,1.823,3.228,4.957,3.268,7.847.054,2.715.3,29.448.406,36.891.013.189.013.365.013.527C3304.45,1010.936,3304.45,1011.112,3304.45,1011.274Z" transform="translate(-3281.605 -958.1)" fill="#004991"/>
          <path id="Path_9240" data-name="Path 9240" d="M3297.338,985.363s.268,5.684,6.081,12.093c0,0-8.4-2.544-8.861-3.028a29.816,29.816,0,0,1-2.541-6.464C3292.088,987.354,3297.338,985.363,3297.338,985.363Z" transform="translate(-3274.6 -939.758)" fill="#004991"/>
        </g>
        <path id="Path_9241" data-name="Path 9241" d="M3316.013,1046.867c-1.2-2.108-2.526-4.336-3.917-6.633l-.014-.013a.1.1,0,0,0-.027-.054c-7.511-12.307-17.087-26.165-20.491-31.622-.013-.027-.042-.04-.042-.069a8.543,8.543,0,0,1-.66-1.3c-.027-.08-.069-.162-.1-.229a3.6,3.6,0,0,1-.216-.689c-.027-.135-.053-.271-.081-.418a.584.584,0,0,1-.014-.069c-.567-2.877-1.917-7.807-3.551-13.561l9.6-25.761h3.5s-3.945,11.9-5.552,17.263-2.051,13.727-2.192,16.8c-.311,6.74,7.962,18.165,10.328,22.33C3305.134,1027.323,3315.148,1045.165,3316.013,1046.867Z" transform="translate(-3272.17 -945.634)" fill="#003f72"/>
        <path id="Path_9242" data-name="Path 9242" d="M3285.887,1041.941c-.172.012-.343.01-.5.01a28.689,28.689,0,0,1-5.522-.411l.006-1.014c.286-15.543-1.447-40.961-1.766-48.991-.022-.564.007-5.388,0-5.856-.149-6.919,6.774-.753,9.3,4.664a21.48,21.48,0,0,1,1.418,4.164c.441,1.81.456,3.822.907,5.871C3292.386,1012.492,3286.985,1031.926,3285.887,1041.941Z" transform="translate(-3278.095 -934.768)" fill="#004991"/>
        <path id="Path_9243" data-name="Path 9243" d="M3302.358,973.9c-.028.157-11.452,28.5-13.682,34.657v.013a3.74,3.74,0,0,1-2.725,1.887c-3.075.756-7.6-.493-7.844-6.6a14.831,14.831,0,0,1,.08-2.2c.526-4.938,2.29-32.253,2.576-34.886s.845-6.47,2.25-6.924C3290.024,957.618,3304.424,964.051,3302.358,973.9Z" transform="translate(-3278.095 -950.373)" fill="#004991"/>
        <path id="Path_9244" data-name="Path 9244" d="M3286.529,985.876c-1.557,7.256-1.552,5.5-.9,10.913.632,5.268-1.7-4.608-1.7-4.608l1.458-3.685Z" transform="translate(-3274.172 -932.566)" fill="#004991"/>
      </g>
      <path id="Path_9245" data-name="Path 9245" d="M3268.533,941.262a7.233,7.233,0,0,0-1.722-.127,5.548,5.548,0,0,1-.6.381v.3a.716.716,0,0,0-.115.017c-.072.037-1.148.726-1.256.811s-1.425,1.579-1.425,1.579.216.2.711.052,1.27-1.087,1.632-1.353c.166-.122.57-.381.96-.625a1.893,1.893,0,0,1,1.651.269C3268.986,943.221,3268.533,941.262,3268.533,941.262Z" transform="translate(-3246.932 -879.881)" fill="#ffc7a1"/>
      <path id="Path_9246" data-name="Path 9246" d="M3276.071,939.806s-2.793.9-3.662,1.059-3.275-.127-4.559,0c-.66.067-2.021,1.335-3.315,2.377-1.041,1.183-1.975,2.252-1.693,2.427.582.361,2.052-1.49,3.257-2.354a1.844,1.844,0,0,1,2.1-.338c.417.289.232.714-.12.938s-1.156.321-1.22.545,0,.661,1.156.443a6.11,6.11,0,0,0,2.407-.989,2.972,2.972,0,0,1,1.637-.514c.868-.1,5.139-.853,5.139-.853" transform="translate(-3247.353 -880.751)" fill="#ffd3b3"/>
      <path id="Path_9247" data-name="Path 9247" d="M3290.708,937.229l-.878,7.375-.094.743c-.243.014-.474.014-.716.027-1.107.042-2.256.068-3.4.109-8.253.189-17.034.109-17.034.109l-.505-3.279a196.933,196.933,0,0,1,19.647-4.583C3289.6,937.4,3290.708,937.229,3290.708,937.229Z" transform="translate(-3243.796 -882.485)" fill="#f4a25d"/>
      <g id="Group_4484" data-name="Group 4484" transform="translate(0 39.014)">
        <rect id="Rectangle_945" data-name="Rectangle 945" width="2.101" height="28.486" rx="0.628" transform="matrix(0.941, -0.338, 0.338, 0.941, 0, 0.711)" fill="#004991"/>
        <rect id="Rectangle_946" data-name="Rectangle 946" width="30.607" height="2.169" rx="0.648" transform="translate(9.484 25.95)" fill="#004991"/>
      </g>
      <path id="Path_9248" data-name="Path 9248" d="M3283.654,937.229l-.878,7.375c-.242.229-.512.5-.81.77-1.107.042-2.256.068-3.4.109a66.093,66.093,0,0,1,2.108-7.753C3282.546,937.4,3283.654,937.229,3283.654,937.229Z" transform="translate(-3236.742 -882.485)" fill="#f29127"/>
      <path id="Path_9249" data-name="Path 9249" d="M3310.23,985.6c-3.74-1.526-9.347.162-19.9,2.743-10.564,2.593-12.807.216-12.807.216.378-.8.285-10.2,1.459-21.83.244-2.5.569-5.105.947-7.753,1.58-10.766,4.416-22.208,9.712-30.1,2.619-3.9,10.064-5.808,10.064-5.808,4.064,4.971,8.077,10.888,8.064,19.817s-2.363,17.668-2.027,22.815C3306.112,970.864,3310.23,985.6,3310.23,985.6Z" transform="translate(-3237.437 -892.009)" fill="#f4a25d"/>
      <path id="Path_9250" data-name="Path 9250" d="M3287.465,962.882a54.8,54.8,0,0,1-9.065.107c.244-2.5.569-5.105.947-7.753l.351-.013a4.4,4.4,0,0,0,4.147-3.282c.7-2.648,1.89-6.862,3.674-12.414,3.175-9.916,6.483-10.307,6.483-10.307s4.849-2.486,5.052,2.783C3299.245,937.19,3293.664,962.126,3287.465,962.882Z" transform="translate(-3236.851 -888.268)" fill="#f29127"/>
      <path id="Path_9251" data-name="Path 9251" d="M3293.035,973.546s3.595-1.3,5.651-7.467l-2.225-3.919-4.727,2.2a34.533,34.533,0,0,0-.632,4.473C3291.27,969.041,3293.035,973.546,3293.035,973.546Z" transform="translate(-3228.321 -865.713)" fill="#004991"/>
      <path id="Path_9252" data-name="Path 9252" d="M3271.13,947.2l-.326-2.631a20.233,20.233,0,0,1-3.486.169c-1.123-.134-2.459-.729-4.08-1.039s-1.985.351-1.73.743c.311.458,2.148.689,2.148.689s.257.229-.743.229h-1.033a4.284,4.284,0,0,1-1.223-.549c-.18-.179-.365-.363-.574-.586-1.07-1.132-1.745-1.49-1.633-.724a6.058,6.058,0,0,0,3.208,3.68,18.664,18.664,0,0,0,3.6,1,3.241,3.241,0,0,0,1.417-.035,13.983,13.983,0,0,1,3.073-.365c.9.04,1.462.044,1.462.044C3273.219,947.991,3272.156,947.543,3271.13,947.2Z" transform="translate(-3250.281 -878.539)" fill="#ffd3b3"/>
      <path id="Path_9253" data-name="Path 9253" d="M3302.559,927.87s-3.307.386-6.485,10.308c-1.776,5.545-2.964,9.768-3.667,12.414a4.414,4.414,0,0,1-4.154,3.284l-23.22.611-.15,4.625s9.063.98,15.348,1.875a67.772,67.772,0,0,0,15.788.54c6.2-.759,12.287-28,11.989-30.777C3307.54,926.4,3302.559,927.87,3302.559,927.87Z" transform="translate(-3245.945 -888.942)" fill="#f4a25d"/>
      <path id="Path_9254" data-name="Path 9254" d="M3278.3,916.809s-.594,1.181.724,3.233c.122.192.634.462.694.7a7.715,7.715,0,0,1-.023,2.457,22.084,22.084,0,0,0,4.68,9.137c2.247.992,6.631-.565,10.338-2.521.791-.07,5.169-2.221,4.537-8.439s-5.493-11.925-5.823-12.056-9.935,1.634-10.319,1.718S3278.3,916.809,3278.3,916.809Z" transform="translate(-3237.006 -901.268)" fill="#ffd3b3"/>
      <path id="Path_9255" data-name="Path 9255" d="M3295.375,922.412s-2.541-.564-2.648-3.868-.532-3.414-2.554-1.567-15.667,9.055-16.838-6.223c1.514.482,5.354-.3,8.948-2.026,1.869-.9,9.931-8.023,15.267-1.507,2.623-.465,6.253,1.88,7.23,7.82s-1.183,14.178-3.3,15.067c-1.36.57-2.006-.816-2.51-3.632-.215-1.467,3.611-4.307-.407-7.979A2.577,2.577,0,0,0,3295.375,922.412Z" transform="translate(-3240.259 -904.502)" fill="#004991"/>
      <path id="Path_9256" data-name="Path 9256" d="M3293.671,920.257s-.376,4.277,1.209,5.617c-2.439,2.946-7.922,3.387-7.922,3.387s1.248-2.009-1.556-7.225S3293.671,920.257,3293.671,920.257Z" transform="translate(-3232.446 -894.651)" fill="#ffd1ab"/>
      <path id="Path_9257" data-name="Path 9257" d="M3279.446,917.069s-.888,3.936-.543,4.886,2.69.336,2.69.336Z" transform="translate(-3236.566 -896.048)" fill="#ffd3b3"/>
    </g>
    <g id="Group_4489" data-name="Group 4489" transform="translate(46.292 115.692)">
      <path id="Path_9258" data-name="Path 9258" d="M3226.637,857.393a83.639,83.639,0,0,0-59.165,142.8c10.634,10.639,16.658,28.65,16.31,41.891h85.707c-.348-13.242,5.676-31.253,16.311-41.891a83.639,83.639,0,0,0-59.163-142.8Z" transform="translate(-3142.966 -857.393)" fill="#e9c464"/>
      <path id="Path_9259" data-name="Path 9259" d="M3256.471,967.5h-86.66a6.913,6.913,0,0,0-6.912,6.914v17.862a37.713,37.713,0,0,0,37.713,37.713h25.058a37.713,37.713,0,0,0,37.712-37.713V974.415A6.914,6.914,0,0,0,3256.471,967.5Z" transform="translate(-3129.554 -783.315)" fill="#264653"/>
      <g id="Group_4488" data-name="Group 4488" transform="translate(35.052 87.81)">
        <g id="Group_4486" data-name="Group 4486" transform="translate(47.208 0)">
          <path id="Path_9260" data-name="Path 9260" d="M3235.019,910.339c-3.792-1.243-10.17-.524-19.038,9.955a50.656,50.656,0,0,0-7.216,11.795,147.828,147.828,0,0,1-15.375-2.052l-1.249,6.378c.54.107,6.522,1.26,14.1,1.979-10.2,28.676-8.742,69.514-8.658,71.645l6.5-.256c-.021-.52-1.562-43.449,8.884-70.917,7.869.328,16.2-.125,21.537-2.715,5.78-2.815,8-9.556,7.631-14.99C3241.762,915.807,3239.039,911.66,3235.019,910.339Zm-3.367,19.965c-3.646,1.771-9.618,2.287-15.879,2.153a41.247,41.247,0,0,1,5.17-7.962c5.826-6.889,10.043-8.635,12.047-7.981,1.434.472,2.474,2.464,2.653,5.084C3235.854,924.753,3234.7,928.823,3231.651,930.3Z" transform="translate(-3192.141 -909.886)" fill="#fff"/>
        </g>
        <g id="Group_4487" data-name="Group 4487">
          <path id="Path_9261" data-name="Path 9261" d="M3212.695,930.036a147.747,147.747,0,0,1-15.375,2.052,50.723,50.723,0,0,0-7.216-11.795c-8.867-10.482-15.249-11.2-19.038-9.955-4.021,1.321-6.746,5.468-7.107,10.821-.368,5.433,1.85,12.174,7.633,14.985,5.331,2.594,13.656,3.058,21.53,2.72,10.44,27.464,8.909,70.4,8.889,70.917l6.492.256c.087-2.131,1.542-42.969-8.655-71.645,7.571-.719,13.555-1.872,14.1-1.979Zm-38.265.268c-3.044-1.48-4.2-5.55-3.988-8.707.177-2.62,1.22-4.612,2.651-5.084a2.865,2.865,0,0,1,.875-.125c2.233,0,6.093,2.1,11.174,8.106a41.348,41.348,0,0,1,5.167,7.962C3184.042,932.59,3178.078,932.075,3174.43,930.3Z" transform="translate(-3163.92 -909.886)" fill="#fff"/>
        </g>
      </g>
      <path id="Path_9262" data-name="Path 9262" d="M3256.471,967.5h-86.66a6.913,6.913,0,0,0-6.912,6.914v7.2h57.724a7.158,7.158,0,0,1,0,14.316h-57.53a37.381,37.381,0,0,0,4.354,14.314h52.075a7.159,7.159,0,0,1,7.159,7.161v12.561a37.7,37.7,0,0,0,36.7-37.686V974.415A6.914,6.914,0,0,0,3256.471,967.5Z" transform="translate(-3129.554 -783.315)" fill="#2a9d8e"/>
      <path id="Path_9263" data-name="Path 9263" d="M3168.639,945.646c-6.292-5.612-19.411-10.694-9.607-.545,10.383,10.751,16.574,28.417,16.31,41.63h8.867C3184.209,981.224,3188.052,962.969,3168.639,945.646Z" transform="translate(-3134.526 -802.299)" opacity="0.5" fill="url(#linear-gradient)"/>
      <path id="Path_9264" data-name="Path 9264" d="M3220.8,857.393a83.5,83.5,0,0,0-69.148,36.544c20.425-25.928,58.945-36.93,96.56-13.765a44.181,44.181,0,0,1,14.454,14.506c26.012,42.418,11.505,84.146-21.925,101.537-14.92,7.763-24.076,29.407-17.946,45.61h40.856c-.264-13.213,5.744-31.062,16.311-41.63a83.639,83.639,0,0,0-59.163-142.8Z" transform="translate(-3137.124 -857.393)" opacity="0.5" fill="url(#linear-gradient-2)"/>
    </g>
    <g id="Group_4490" data-name="Group 4490" transform="translate(54.886 79.858)">
      <path id="Path_9265" data-name="Path 9265" d="M3173.341,866.753l-16.14-28.439c-3.185-5.612-11.573-.092-8.389,5.515l16.141,28.437c3.187,5.614,11.573.094,8.389-5.514Z" transform="translate(-3148.103 -835.971)" fill="#e9c464"/>
    </g>
    <g id="Group_4491" data-name="Group 4491" transform="translate(32.166 110.877)">
      <path id="Path_9266" data-name="Path 9266" d="M3163.035,867.068a67.236,67.236,0,0,0-21.369-12.174c-2.583-.888-5.4-.261-6.691,2.368-1.089,2.221-.187,5.81,2.37,6.69a59.788,59.788,0,0,1,19.214,10.784c4.942,4.149,11.44-3.5,6.476-7.668Z" transform="translate(-3134.521 -854.514)" fill="#e9c464"/>
    </g>
    <g id="Group_4492" data-name="Group 4492" transform="translate(92.319 72.6)">
      <path id="Path_9267" data-name="Path 9267" d="M3180.691,862.4a217.876,217.876,0,0,1,.291-25.4c.433-6.442-9.555-7.449-9.99-1a240.677,240.677,0,0,0-.194,28.1c.316,6.437,10.206,4.685,9.893-1.695Z" transform="translate(-3170.481 -831.632)" fill="#e9c464"/>
    </g>
    <g id="Group_4500" data-name="Group 4500" transform="translate(0 169.766)">
      <g id="Group_4499" data-name="Group 4499">
        <g id="Group_4498" data-name="Group 4498">
          <g id="Group_4493" data-name="Group 4493" transform="translate(3.651 73.574)">
            <path id="Path_9268" data-name="Path 9268" d="M3134.53,945.831,3119.437,933.7s-3.54,8.534-.731,17.482c1.382,4.4-.087,7.528.659,9.614.7,1.947,5.813,29.64,5.528,31.681s-2.539,7.783-3.309,13.785c-.927,7.22-.18,30.649-.883,36.883s5.061,7.148,5.326,5.038c2.269-18.033,8.722-46.2,9.505-55.207S3135.517,967.534,3134.53,945.831Z" transform="translate(-3117.376 -933.702)" fill="#ffd3b3"/>
            <path id="Path_9269" data-name="Path 9269" d="M3130.453,951.546l-6.08,14.918a33.072,33.072,0,0,1,4.857,15.368c.176,2.845-.007,5.706.139,8.553a2.9,2.9,0,0,0,.1.617c.761-4.244,1.322-7.74,1.519-10.013.553-6.362.316-16.45-.218-29.466A2.578,2.578,0,0,0,3130.453,951.546Z" transform="translate(-3112.834 -921.713)" fill="#e2bba1"/>
            <path id="Path_9270" data-name="Path 9270" d="M3126.736,999.167s-1.221,6.552-.831,7.375,1.781,3.2,3.166,4.045c1.456.881,4.654,1.9,4.917,2.285a.987.987,0,0,1-.151,1.336,6.575,6.575,0,0,1-4.495,1.255c-4.318-.607-4.809-2.5-7.322-2.743-.433-.042-1.22.617-2.431.034a2.846,2.846,0,0,1-1.741-2.72,12.324,12.324,0,0,1,1.793-4.65c.688-1.345,1.047-7.434,1.047-7.434" transform="translate(-3117.226 -890.478)" fill="#ffd3b3"/>
            <path id="Path_9271" data-name="Path 9271" d="M3134.429,1011.095c.3-.544.361-1.358.065-1.549a25.2,25.2,0,0,0-2.717-1.547c-.843-.365-2.174-.671-1.7-.43s-.363,1.2-1.144,1.173c-2.7-.1-4.73-1.845-6.276-2.193-2.23-.5-3.22-3.095-3.327-3.516a10.294,10.294,0,0,0-1.519,3.073,5.291,5.291,0,0,0-.274,2.325,5.384,5.384,0,0,1,.3,2.2,4.214,4.214,0,0,0,1.606.537,6.281,6.281,0,0,0,1.717-.017l.159-1.4a6.343,6.343,0,0,1,1.374.1,7.417,7.417,0,0,1,2.118.927c.316.36.578,1.024.99,1.219a8.6,8.6,0,0,0,3.558.8C3132.247,1012.9,3133.915,1012.025,3134.429,1011.095Z" transform="translate(-3117.475 -887.059)" fill="#e9c464"/>
          </g>
          <g id="Group_4494" data-name="Group 4494" transform="translate(6.505 71.015)">
            <path id="Path_9272" data-name="Path 9272" d="M3155.189,1057.381c-.321-.35-3.754-.872-5.369-1.527a9.244,9.244,0,0,1-3.784-3.533c-.37-.87-.333-5.3-.3-7.153.191-12.8,2.24-44.1,2.506-51.587.463-13.023-1.362-26.442-6.582-47.286l-18.792-14.123s-5.125,9.762-3.282,19.026c1.069,5.376,5.543,6.159,6.321,8.245s12.4,35.72,12.4,35.72a63.431,63.431,0,0,0-2.168,15.313c-.04,6.823,3.262,27.375,3.916,35.212.082,1.53.383,5.2-.057,6.368-.539,1.437-1.932,3.131-1.842,4.937a2.777,2.777,0,0,0,2.143,2.432c1.326.4,2.056-.375,2.509-.4,2.628-.134,3.374,1.666,7.912,1.619a7.185,7.185,0,0,0,4.488-1.92A.957.957,0,0,0,3155.189,1057.381Z" transform="translate(-3119.181 -932.172)" fill="#ffd3b3"/>
            <path id="Path_9273" data-name="Path 9273" d="M3148.149,1010.434c.249-.582.219-1.4-.11-1.546a25.816,25.816,0,0,0-2.988-1.164c-.915-.246-2.327-.37-1.812-.194s-.239,1.243-1.052,1.32c-2.807.271-5.107-1.183-6.746-1.316-2.365-.192-3.227-2.63-3.386-3.034a10.849,10.849,0,0,0-1.682,3.257,5.1,5.1,0,0,0-.018,2.347,5.153,5.153,0,0,1,.56,2.146,4.476,4.476,0,0,0,1.725.311,6.851,6.851,0,0,0,1.775-.249l0-1.408a6.867,6.867,0,0,1,1.435-.087,4.76,4.76,0,0,1,2.31.825c.383.291.788.781,1.243.9a9.552,9.552,0,0,0,3.684.289C3146.1,1012.528,3147.723,1011.426,3148.149,1010.434Z" transform="translate(-3111.755 -883.512)" fill="#e9c464"/>
          </g>
          <g id="Group_4497" data-name="Group 4497" transform="translate(24.712 21.457)">
            <g id="Group_4496" data-name="Group 4496">
              <g id="Group_4495" data-name="Group 4495" transform="translate(45.388)">
                <path id="Path_9274" data-name="Path 9274" d="M3159.613,912.429c.932.271,3.983-.786,4.769-2.046a2.122,2.122,0,0,0,.357-1.353c.46-.54,1.253-2.454-.124-2.056,1.419-.95,1.778-2.39,2.162-4,.129-.542-.5-.7-1.152.368a6.1,6.1,0,0,1-4.114,2.747c-.115-.3.283-.393.577-1.02.33-.7.114-1.183-.2-1.3-.236-.087-.771.708-.953.863l-2.081,1.766a4.345,4.345,0,0,0-1.509,2.054c-.059.157-.422,1.756.264,1.532" transform="translate(-3157.198 -902.546)" fill="#ffd3b3"/>
              </g>
              <path id="Path_9275" data-name="Path 9275" d="M3132.616,924.677c7-.08,19.536-1.28,21.259-1.618,6.79-1.331,24.136-13.223,24.136-13.223a3.3,3.3,0,0,0-2.315-3.545c-4.4,3.57-20.15,8.093-22.249,9.369-1.359.826-23.382-.074-23.382-.074" transform="translate(-3130.065 -900.025)" fill="#ffd3b3"/>
            </g>
          </g>
          <path id="Path_9276" data-name="Path 9276" d="M3119.238,912.14a89.349,89.349,0,0,0-3.946,14.361l7.2,1.133V917.439" transform="translate(-3115.292 -874.634)" fill="#e9c464"/>
          <path id="Path_9277" data-name="Path 9277" d="M3125.611,945.8l-.908.152a.861.861,0,0,1-.992-.7l-3.953-23.263a.862.862,0,0,1,.7-.992l.907-.152a.861.861,0,0,1,.992.7l3.953,23.263A.861.861,0,0,1,3125.611,945.8Z" transform="translate(-3112.295 -868.79)" fill="#4c4199"/>
          <path id="Path_9278" data-name="Path 9278" d="M3128.526,945.238l-.909.152a.858.858,0,0,1-.99-.7l-3.953-23.265a.857.857,0,0,1,.7-.99l.909-.152a.86.86,0,0,1,.992.7l3.953,23.265A.86.86,0,0,1,3128.526,945.238Z" transform="translate(-3110.333 -869.166)" fill="#4c4199"/>
          <path id="Path_9279" data-name="Path 9279" d="M3131.444,944.68l-.908.152a.861.861,0,0,1-.992-.7l-3.953-23.263a.86.86,0,0,1,.7-.992l.907-.152a.862.862,0,0,1,.992.7l3.952,23.263A.86.86,0,0,1,3131.444,944.68Z" transform="translate(-3108.371 -869.542)" fill="#4c4199"/>
          <path id="Path_9280" data-name="Path 9280" d="M3134.359,944.121l-.908.152a.86.86,0,0,1-.992-.7l-3.953-23.263a.862.862,0,0,1,.7-.992l.908-.151a.857.857,0,0,1,.99.7l3.953,23.263A.858.858,0,0,1,3134.359,944.121Z" transform="translate(-3106.409 -869.918)" fill="#4c4199"/>
          <path id="Path_9281" data-name="Path 9281" d="M3123.214,932.443c-5.187,4.476-7.178,11.905-6.134,19.831.276,2.1,2.394,7.864,2.722,9.96.742,4.771,2.271,11.793,2.181,17.233,6.962,5.05,21.1,4.608,27.5.84.711-6.576.577-11.8.073-20.918-.759-13.749-6.893-26.567-7.017-27.713" transform="translate(-3114.27 -861.491)" fill="#262626"/>
          <path id="Path_9282" data-name="Path 9282" d="M3142.077,937.389a64.989,64.989,0,0,0,.343,10.423,20.793,20.793,0,0,1,.341,2.748,1.57,1.57,0,0,1-.543,1.072,7.6,7.6,0,0,1-3.775,1.46c-5.156.932-13.312.311-15.611.761-2.159.435-4.381-.3-4.381-1.616,0-.917.84-1.428.916-3.23.171-3.946.047-12.924-.682-16.932-1.522-8.4-1.942-13.391-.887-22.788l15.751-4.473c1.213.2.684,3.9,1.9,4.1.886.139,5.871,4.876,7.285,10.468a21.83,21.83,0,0,1,1.818,3.635,6.415,6.415,0,0,1-.015,4.971A35.132,35.132,0,0,0,3142.077,937.389Z" transform="translate(-3113.998 -879.562)" fill="#e9c464"/>
          <path id="Path_9283" data-name="Path 9283" d="M3132.589,930.067a64.984,64.984,0,0,0,.343,10.423,20.794,20.794,0,0,1,.341,2.748,1.571,1.571,0,0,1-.543,1.072V944.3c.465-1.041-.653-6.214-1.135-9.118a32.842,32.842,0,0,1,.685-12.1c1.025-3.556,1.414-5.251,1.414-5.251s.806-1.211,1.366-2.128a6.416,6.416,0,0,1-.015,4.971A35.122,35.122,0,0,0,3132.589,930.067Z" transform="translate(-3104.51 -872.24)" fill="#e5b54c"/>
          <path id="Path_9284" data-name="Path 9284" d="M3134.975,909.5a6.893,6.893,0,0,1,4.642.8c3.038,1.793,9.377,2.849,9.377,2.849s.487,7.243-.294,10.023c0,0-2.106-.331-8.35.346-6.456.7-15.072,4.977-15.072,4.977" transform="translate(-3108.573 -876.486)" fill="#e9c464"/>
          <path id="Path_9285" data-name="Path 9285" d="M3139.4,897.475c-1.544-2.957-3.991-7.138-9.845-6.559s-10.866,4.271-10.794,8.657,3.041,9.669,4.185,12.7.659,7.546.659,7.546l12.974-.467s-.336-3.964.455-5.463a20.758,20.758,0,0,1,4.2-4.038c.88-.711,1.592-2.2,1.064-4.512-.788-3.463-1.071-4.985-1.576-6C3140.359,898.612,3139.738,898.119,3139.4,897.475Z" transform="translate(-3112.957 -888.95)" fill="#ffd3b3"/>
          <path id="Path_9286" data-name="Path 9286" d="M3141.344,921.867c-.786-.933-1.992-1.4-2.688-2.4a5.419,5.419,0,0,1-.925-3.513,6.49,6.49,0,0,1,.776-1.987c1.41-2.844,1.5-4.684-.515-6.982a8.036,8.036,0,0,1-1.646-2.486c-.3-.853-.542-1.783.286-2.3a1.106,1.106,0,0,1,1.5.015c.32.288,1.245,3,1.408,1.141.156-1.786.832-2.236-.733-5.438-.185-.38-1.054-1.872-.925-2.213,2.012.383,2.7.913,3.522,2.2.9-1.009-1.726-8.381-9.82-8.178a13.876,13.876,0,0,0-5.977,1.107c-1.82.923-3.846,2.553-3.724,4.187-2.867.552-3.27,3.476-3.493,4.565a14.332,14.332,0,0,0-.17,4.737c.3,2.327,1.169,4.547,1.627,6.85a10.018,10.018,0,0,1-.262,5.733c-.711,1.715-2.411,2.648-3.274,4.321a7.532,7.532,0,0,0,.1,6.878c1.117,2.116,2.517,3.508,2.151,6.109a8.316,8.316,0,0,0,2.74,7.936,8.559,8.559,0,0,0,6.186,1.676,14.3,14.3,0,0,0,5.07-1.6c3.024-1.641,5.721-2.7,7.675-7.064,1.107-2.471-.513-2.815.474-5.346.554-1.42,1.735-2.6,1.886-4.172a5.287,5.287,0,0,0-1.151-3.662C3141.4,921.938,3141.375,921.9,3141.344,921.867Z" transform="translate(-3115.136 -889.719)" fill="#004991"/>
        </g>
      </g>
    </g>
    <g id="Group_4502" data-name="Group 4502" transform="translate(394.174 38.361)">
      <g id="Group_4501" data-name="Group 4501">
        <path id="Path_9287" data-name="Path 9287" d="M3411.44,833.831a9.635,9.635,0,1,1-9.563-9.707A9.634,9.634,0,0,1,3411.44,833.831Z" transform="translate(-3323.189 -802.444)" fill="#f4a25d"/>
        <path id="Path_9288" data-name="Path 9288" d="M3374.363,871.529a5.973,5.973,0,0,1-6.019,5.93h0a5.974,5.974,0,0,1-5.928-6.019l.274-36.758a5.974,5.974,0,0,1,6.018-5.93h0a5.975,5.975,0,0,1,5.929,6.019Z" transform="translate(-3343.208 -799.33)" fill="#e9c464"/>
        <path id="Path_9289" data-name="Path 9289" d="M3433.487,814.972l-.42,56.214c-.02,2.556-1.96,3.834-4.324,2.87l-36.552-14.923-40.842-16.666,40.576-15.861.51-.206,36.771-14.374C3431.585,811.094,3433.505,812.417,3433.487,814.972Z" transform="translate(-3350.653 -810.784)" fill="#dedede"/>
        <path id="Path_9290" data-name="Path 9290" d="M3358.772,852.295a2.312,2.312,0,0,1-2.3-2.329l.208-27.768a2.313,2.313,0,0,1,2.33-2.295l29.909.222-.241,32.393Z" transform="translate(-3347.203 -805.284)" fill="#f4a25d"/>
        <path id="Path_9291" data-name="Path 9291" d="M3355.523,846.337l4.7.035.179-23.939-4.7-.035a4.624,4.624,0,0,0-4.658,4.59l-.111,14.69A4.625,4.625,0,0,0,3355.523,846.337Z" transform="translate(-3350.933 -803.605)" fill="#e9c464"/>
        <path id="Path_9292" data-name="Path 9292" d="M3417.437,814.408l-.211,28.106-41.472-.31.12-16.162.51-.206,36.771-14.374C3415.535,810.53,3417.456,811.852,3417.437,814.408Z" transform="translate(-3334.234 -811.163)" fill="#dedede"/>
      </g>
    </g>
    <g id="Group_4505" data-name="Group 4505" transform="translate(442.699 104.968)">
      <path id="Path_9293" data-name="Path 9293" d="M3396.264,875.746a109.574,109.574,0,0,0-9.7,30.871q-.713,4.552-1.051,9.148c-.077,1.06,1.575,1.055,1.653,0a108.128,108.128,0,0,1,6.951-30.968q1.613-4.185,3.578-8.217c.461-.953-.962-1.792-1.427-.835Z" transform="translate(-3376.196 -834.606)" fill="#e5b241"/>
      <path id="Path_9294" data-name="Path 9294" d="M3427.235,877.228c-2.978,4.572-11.971,7-13.387,5.962s11.7-5.778,12.608-8.724-.81-8.406-.81-8.406c-.363,1.715-6.761,7.041-8.774,6.143s4.095-2.867,6.773-6.768-4.145-14.453-4.145-14.453a10.862,10.862,0,0,1-7.551,2.8c-4.451-.241-12.755-1.122-14.7,4.438-1.5,4.276,7.663,12.537,6.583,12.256s-9.8-6.584-8.723-12c0,0-10.1,7.3-7.131,13.58s8.85,10.518,7.444,10.965-9.386-7.195-9.078-13.9c0,0-11.458,14.846-3.713,23.934s17.164,2.1,17.164,2.1c4.536,10.873,13.179,10.838,19.681,5.61C3425.244,896.128,3427.235,877.228,3427.235,877.228Zm-31.719-6.285a9.269,9.269,0,0,1-2.235-1.291c-.514-.544-.173-1.134.5-1.134.954,0,1.847.094,2.031.907S3395.917,871.08,3395.516,870.943Zm-.582,16.734c-1.867-.706-5.949-2.653-6.5-3.779a1.42,1.42,0,0,1,.5-1.7c1-.438,1.992-.12,3.411,1.31s4.868,2.255,4.933,2.956S3396.8,888.385,3394.934,887.678Zm8.357-11.587c-.74.341-3.474-1.3-4.2-1.873-1.04-.818-3.183-1.337-1.861-2.509.8-.706,2.625.417,3.886,1.733S3404.032,875.749,3403.291,876.09Zm12.011-10.333a2.953,2.953,0,0,1,1.905-1.295c2.016-.569,3.491-.582,2.392.564s-2.5,2.7-3.138,2.713h-.018A1.323,1.323,0,0,1,3415.3,865.758Zm-3.843,24.949c-4.3-.659-7.675-.718-5.619-2.506,0,0,.883-.992,3.2-.4s3.461-.281,4.927.246S3415.76,891.366,3411.459,890.707Zm6.9.055c-1.676-.646-2.546-.571-2.377-1.378a1.32,1.32,0,0,1,.948-.984,4.217,4.217,0,0,1,2.456.2C3420.114,888.879,3420.452,891.572,3418.357,890.762Z" transform="translate(-3379.941 -850.982)" fill="#e9c464"/>
      <g id="Group_4504" data-name="Group 4504" transform="translate(6.509)">
        <g id="Group_4503" data-name="Group 4503">
          <path id="Path_9295" data-name="Path 9295" d="M3386.1,870.4c-.617-.514-1.219-1.034-1.8-1.546-.278-.246-.642.2-.365.443.6.53,1.225,1.065,1.864,1.594A1.721,1.721,0,0,1,3386.1,870.4Z" transform="translate(-3383.833 -839.004)" fill="#e5b241"/>
          <path id="Path_9296" data-name="Path 9296" d="M3396.346,888.116l.087-.013a.282.282,0,0,0,.1-.035q1.571.452,3.172.78a1.831,1.831,0,0,1,.39-.5q-1.782-.357-3.531-.863c.356-1.034.731-2.056,1.137-3.06.936-2.31,2.011-4.548,3.16-6.751a18.529,18.529,0,0,0,14.341-3.255.288.288,0,0,0-.336-.467,17.956,17.956,0,0,1-13.725,3.188c1.449-2.738,3-5.421,4.547-8.113a15.956,15.956,0,0,0,4.233-1.678,1.382,1.382,0,0,1-.3-.483,15.052,15.052,0,0,1-3.538,1.472c1.278-2.238,2.538-4.486,3.709-6.78a62.183,62.183,0,0,0,4.272-10.343c-.094-.151-.147-.234-.147-.234s-.179.174-.509.435c-1.832,5.923-4.836,11.407-7.912,16.8a16.129,16.129,0,0,1-2.611-7.3.287.287,0,0,0-.57.062,16.72,16.72,0,0,0,2.844,7.767l.022.025q-.718,1.25-1.43,2.5c-2,3.508-3.976,7.044-5.632,10.733a24.435,24.435,0,0,1-9.351-9.02c-.189-.318-.654.02-.467.336a24.967,24.967,0,0,0,9.585,9.208l-.035.077c-.716,1.638-1.337,3.307-1.914,4.992a11.4,11.4,0,0,1-4.413-.333,1.187,1.187,0,0,1-.463.465,12.007,12.007,0,0,0,4.67.47c-.743,2.211-1.42,4.446-2.145,6.668-.1.291-.191.584-.289.875.362-.208.624-.38.773-.482C3394.841,892.882,3395.552,890.474,3396.346,888.116Z" transform="translate(-3380.861 -850.982)" fill="#e5b241"/>
          <path id="Path_9297" data-name="Path 9297" d="M3401.917,874.053a1.3,1.3,0,0,1,.1-.284c-.385.02-.767.033-1.152.044a1.188,1.188,0,0,1-.017.574c.353-.008.708-.02,1.063-.038A.707.707,0,0,1,3401.917,874.053Z" transform="translate(-3372.386 -835.651)" fill="#e5b241"/>
          <path id="Path_9298" data-name="Path 9298" d="M3404.283,858.053a15.522,15.522,0,0,1-1.181,1.4,3.523,3.523,0,0,1,.818-.042c.281-.32.55-.649.807-.992C3404.947,858.123,3404.5,857.757,3404.283,858.053Z" transform="translate(-3370.868 -846.298)" fill="#e5b241"/>
        </g>
      </g>
    </g>
    <g id="Group_4509" data-name="Group 4509" transform="translate(437.727 167.066)">
      <g id="Group_4508" data-name="Group 4508" transform="translate(0 0.008)">
        <path id="Path_9299" data-name="Path 9299" d="M3393.917,901.507v103.155l-16.6.025-.352-103.155Z" transform="translate(-3376.969 -879.096)" fill="#fc9549"/>
        <g id="Group_4506" data-name="Group 4506" transform="translate(0.014)">
          <path id="Path_9300" data-name="Path 9300" d="M3385.235,888.109l1.691,2.4,6.985,20.01-16.933.025,6.638-20.113Z" transform="translate(-3376.978 -888.109)" fill="#fcded6"/>
          <path id="Path_9301" data-name="Path 9301" d="M3382.566,888.109l1.691,2.4-.891.556-.8-.636-.858.864-.765-.862Z" transform="translate(-3374.308 -888.109)" fill="#fc9549"/>
        </g>
        <g id="Group_4507" data-name="Group 4507" transform="translate(0.014 22.411)">
          <path id="Path_9302" data-name="Path 9302" d="M3376.978,901.525l2.427,1.824,1.719-1.83Z" transform="translate(-3376.978 -901.5)" fill="#fcded6"/>
          <path id="Path_9303" data-name="Path 9303" d="M3379.456,901.521l2.427,1.824,1.719-1.83Z" transform="translate(-3375.31 -901.502)" fill="#fcded6"/>
          <path id="Path_9304" data-name="Path 9304" d="M3381.935,901.518l2.427,1.824,1.719-1.83Z" transform="translate(-3373.643 -901.505)" fill="#fcded6"/>
          <path id="Path_9305" data-name="Path 9305" d="M3384.413,901.514l2.427,1.824,2.068-1.83Z" transform="translate(-3371.975 -901.507)" fill="#fcded6"/>
        </g>
      </g>
      <path id="Path_9306" data-name="Path 9306" d="M3382.882,888.1l1.691,2.4,6.985,20.018,0,103.148-5.379.008-.353-103.156-5.352-17.707.786-2.389Z" transform="translate(-3374.61 -888.105)" fill="#71606e" opacity="0.2"/>
      <rect id="Rectangle_947" data-name="Rectangle 947" width="16.601" height="3.05" transform="translate(0.349 124.465)" fill="#167f7f"/>
    </g>
    <g id="Group_4513" data-name="Group 4513" transform="translate(449.125 192.158)">
      <g id="Group_4512" data-name="Group 4512" transform="translate(0 0.008)">
        <path id="Path_9307" data-name="Path 9307" d="M3400.73,916.507v103.155l-16.6.025-.352-103.155Z" transform="translate(-3383.783 -894.096)" fill="#2085b7"/>
        <g id="Group_4510" data-name="Group 4510" transform="translate(0.013)">
          <path id="Path_9308" data-name="Path 9308" d="M3392.049,903.11l1.691,2.4,6.984,20.01-16.934.026,6.639-20.113Z" transform="translate(-3383.791 -903.11)" fill="#fcded6"/>
          <path id="Path_9309" data-name="Path 9309" d="M3389.379,903.11l1.691,2.4-.89.556-.8-.636-.858.864-.765-.862Z" transform="translate(-3381.121 -903.11)" fill="#2085b7"/>
        </g>
        <g id="Group_4511" data-name="Group 4511" transform="translate(0.013 22.411)">
          <path id="Path_9310" data-name="Path 9310" d="M3383.791,916.525l2.427,1.824,1.719-1.83Z" transform="translate(-3383.791 -916.5)" fill="#fcded6"/>
          <path id="Path_9311" data-name="Path 9311" d="M3386.27,916.521l2.427,1.824,1.719-1.83Z" transform="translate(-3382.124 -916.502)" fill="#fcded6"/>
          <path id="Path_9312" data-name="Path 9312" d="M3388.748,916.518l2.427,1.824,1.719-1.83Z" transform="translate(-3380.456 -916.505)" fill="#fcded6"/>
          <path id="Path_9313" data-name="Path 9313" d="M3391.227,916.514l2.427,1.824,2.068-1.83Z" transform="translate(-3378.789 -916.507)" fill="#fcded6"/>
        </g>
      </g>
      <path id="Path_9314" data-name="Path 9314" d="M3389.7,903.1l1.691,2.4,6.984,20.018,0,103.148-5.38.008-.352-103.156-5.353-17.706.786-2.389Z" transform="translate(-3381.424 -903.105)" fill="#71606e" opacity="0.2"/>
      <rect id="Rectangle_948" data-name="Rectangle 948" width="16.601" height="3.05" transform="translate(0.348 124.465)" fill="#167f7f"/>
    </g>
  </g>
</svg>
