<svg xmlns="http://www.w3.org/2000/svg" xmlns:xlink="http://www.w3.org/1999/xlink" width="536" height="339.324" viewBox="0 0 536 339.324">
  <defs>
    <clipPath id="clip-path">
      <rect width="536" height="339.324" fill="none"/>
    </clipPath>
  </defs>
  <g id="Our_Services-Main" data-name="Our Services-Main" clip-path="url(#clip-path)">
    <g id="Group_4419" data-name="Group 4419" transform="translate(496.84 156.383)">
      <g id="Group_4418" data-name="Group 4418">
        <path id="Path_9054" data-name="Path 9054" d="M2239.906,1952.26a35.518,35.518,0,0,0,3.33,19.17,37.066,37.066,0,0,0,4.98,8.2c.335.4.329-.072.122-.322a35.166,35.166,0,0,1-4.613-7.546,34.768,34.768,0,0,1-3.337-19.026c.024-.192-.448-.751-.483-.474Z" transform="translate(-2238.684 -1946.866)" fill="#e76f50"/>
        <path id="Path_9055" data-name="Path 9055" d="M2242.032,1953.162a1.464,1.464,0,1,1-1.288-1.623A1.464,1.464,0,0,1,2242.032,1953.162Z" transform="translate(-2239.113 -1947.365)" fill="#e76f50"/>
        <path id="Path_9056" data-name="Path 9056" d="M2245.128,1951.851a1.464,1.464,0,1,1-1.288-1.621A1.464,1.464,0,0,1,2245.128,1951.851Z" transform="translate(-2236.754 -1948.362)" fill="#e76f50"/>
        <path id="Path_9057" data-name="Path 9057" d="M2247.621,1950.8a1.464,1.464,0,1,1-1.288-1.623A1.464,1.464,0,0,1,2247.621,1950.8Z" transform="translate(-2234.855 -1949.166)" fill="#e76f50"/>
        <path id="Path_9058" data-name="Path 9058" d="M2252.382,1954.347a1.464,1.464,0,1,1-1.288-1.623A1.463,1.463,0,0,1,2252.382,1954.347Z" transform="translate(-2231.228 -1946.462)" fill="#e76f50"/>
        <path id="Path_9059" data-name="Path 9059" d="M2262.6,1955.515a1.465,1.465,0,1,1-1.29-1.621A1.465,1.465,0,0,1,2262.6,1955.515Z" transform="translate(-2223.446 -1945.571)" fill="#e76f50"/>
        <path id="Path_9060" data-name="Path 9060" d="M2259.319,1955.14a1.464,1.464,0,1,1-1.288-1.621A1.464,1.464,0,0,1,2259.319,1955.14Z" transform="translate(-2225.943 -1945.856)" fill="#e76f50"/>
        <path id="Path_9061" data-name="Path 9061" d="M2248.729,1953.436a1.464,1.464,0,1,1-1.288-1.621A1.466,1.466,0,0,1,2248.729,1953.436Z" transform="translate(-2234.013 -1947.154)" fill="#e76f50"/>
        <path id="Path_9062" data-name="Path 9062" d="M2250.218,1955.28a1.464,1.464,0,1,1-1.288-1.621A1.463,1.463,0,0,1,2250.218,1955.28Z" transform="translate(-2232.877 -1945.75)" fill="#e76f50"/>
        <path id="Path_9063" data-name="Path 9063" d="M2255.874,1955.582a1.464,1.464,0,1,1-1.288-1.621A1.463,1.463,0,0,1,2255.874,1955.582Z" transform="translate(-2228.567 -1945.52)" fill="#e76f50"/>
        <path id="Path_9064" data-name="Path 9064" d="M2243.118,1951.075a54.452,54.452,0,0,0,.985,20.846,44.266,44.266,0,0,0,2.907,8.746c.178.374.76.349.54-.108a43.2,43.2,0,0,1-2.851-8.564,53.939,53.939,0,0,1-.971-20.67c.053-.34-.539-.715-.61-.25Z" transform="translate(-2236.505 -1947.876)" fill="#e76f50"/>
        <path id="Path_9065" data-name="Path 9065" d="M2247.52,1952.488a57.973,57.973,0,0,0-2.32,19.71,26.32,26.32,0,0,0,1.316,7.282c.087.232.625.629.451.167a25.36,25.36,0,0,1-1.254-6.859,57.194,57.194,0,0,1,2.285-19.729c.065-.231-.421-.766-.478-.571Z" transform="translate(-2234.567 -1946.666)" fill="#e76f50"/>
        <path id="Path_9066" data-name="Path 9066" d="M2251.012,1958.074a163.579,163.579,0,0,1-2.731,17.534,60.827,60.827,0,0,1-1.5,5.9l.313.236a18.255,18.255,0,0,1-1.612-4.44,44,44,0,0,1-.809-14.329,78.763,78.763,0,0,1,2.218-12.552c.05-.2-.428-.678-.451-.588a66.833,66.833,0,0,0-2.344,20.617,30.807,30.807,0,0,0,2.07,9.887,10.465,10.465,0,0,0,.752,1.521c.013.021.27.37.314.236a59.929,59.929,0,0,0,1.5-5.9,164.023,164.023,0,0,0,2.733-17.534c.021-.21-.444-.652-.451-.588Z" transform="translate(-2235.397 -1948.666)" fill="#e76f50"/>
        <path id="Path_9067" data-name="Path 9067" d="M2259.571,1955.555c-.888,6.85-2.863,14.229-7.863,19.289a12.64,12.64,0,0,1-5.795,3.682l.419.643a5.808,5.808,0,0,0,2.754-2.03c2.526-2.96,3.573-7.062,4.2-10.809a69.075,69.075,0,0,0,.761-12.4c0-.182-.472-.719-.469-.485.094,6.2-.138,12.788-2.41,18.643-.867,2.234-2.15,4.665-4.253,5.974a3.291,3.291,0,0,1-1,.465c-.108.025.194.69.419.643a10.691,10.691,0,0,0,3.921-2.039,22.684,22.684,0,0,0,6.963-9.659,45.1,45.1,0,0,0,2.813-11.334c.029-.219-.446-.689-.46-.583Z" transform="translate(-2233.949 -1945.95)" fill="#e76f50"/>
        <path id="Path_9068" data-name="Path 9068" d="M2269.192,1954.276c-2.294,9.69-7.7,20.4-17.823,23.767a10.358,10.358,0,0,1-1.782.462.158.158,0,0,0-.125.127,132.827,132.827,0,0,1-4.755,15.465q-1.7,4.873-3.524,9.706c-.1.263.414.8.553.428a235.311,235.311,0,0,0,7.716-22.853q.193-.719.364-1.441a5.077,5.077,0,0,0,.093-.75c.064-.067.4-.078.487-.1a15.483,15.483,0,0,0,2.4-.779,23.393,23.393,0,0,0,8.212-5.816c4.588-4.919,7.2-11.323,8.734-17.791.063-.273-.465-.805-.553-.428Z" transform="translate(-2237.547 -1945.372)" fill="#e76f50"/>
        <path id="Path_9069" data-name="Path 9069" d="M2270.528,1954.624a29.14,29.14,0,0,1-20.134,22.9,22.516,22.516,0,0,1-3.573.87c-.3.044.048.717.312.678a29.2,29.2,0,0,0,19.675-13.09,32.65,32.65,0,0,0,4.253-10.916c.051-.247-.458-.795-.532-.443Z" transform="translate(-2233.329 -1945.094)" fill="#e76f50"/>
      </g>
      <path id="Path_9070" data-name="Path 9070" d="M2248.282,1973.645c-6.843-6.894-9.961-12.257,3.7-9.07s5.36,6.963,1.325,7.69S2248.282,1973.645,2248.282,1973.645Z" transform="translate(-2236.577 -1938.145)" fill="#e76f50"/>
    </g>
    <g id="Group_4421" data-name="Group 4421" transform="translate(0 156.383)">
      <g id="Group_4420" data-name="Group 4420">
        <path id="Path_9071" data-name="Path 9071" d="M1982.355,1952.26a35.483,35.483,0,0,1-3.33,19.17,37,37,0,0,1-4.981,8.2c-.334.4-.329-.072-.122-.322a35.167,35.167,0,0,0,4.613-7.546,34.755,34.755,0,0,0,3.337-19.026c-.025-.192.449-.751.483-.474Z" transform="translate(-1944.418 -1946.866)" fill="#e76f50"/>
        <path id="Path_9072" data-name="Path 9072" d="M1977.688,1953.162a1.465,1.465,0,1,0,1.288-1.623A1.463,1.463,0,0,0,1977.688,1953.162Z" transform="translate(-1941.447 -1947.365)" fill="#e76f50"/>
        <path id="Path_9073" data-name="Path 9073" d="M1974.591,1951.851a1.465,1.465,0,1,0,1.288-1.621A1.464,1.464,0,0,0,1974.591,1951.851Z" transform="translate(-1943.806 -1948.362)" fill="#e76f50"/>
        <path id="Path_9074" data-name="Path 9074" d="M1972.1,1950.8a1.465,1.465,0,1,0,1.288-1.623A1.464,1.464,0,0,0,1972.1,1950.8Z" transform="translate(-1945.705 -1949.166)" fill="#e76f50"/>
        <path id="Path_9075" data-name="Path 9075" d="M1967.337,1954.347a1.464,1.464,0,1,0,1.288-1.623A1.463,1.463,0,0,0,1967.337,1954.347Z" transform="translate(-1949.332 -1946.462)" fill="#e76f50"/>
        <path id="Path_9076" data-name="Path 9076" d="M1957.123,1955.515a1.464,1.464,0,1,0,1.288-1.621A1.462,1.462,0,0,0,1957.123,1955.515Z" transform="translate(-1957.113 -1945.571)" fill="#e76f50"/>
        <path id="Path_9077" data-name="Path 9077" d="M1960.4,1955.14a1.464,1.464,0,1,0,1.288-1.621A1.464,1.464,0,0,0,1960.4,1955.14Z" transform="translate(-1954.617 -1945.856)" fill="#e76f50"/>
        <path id="Path_9078" data-name="Path 9078" d="M1970.991,1953.436a1.465,1.465,0,1,0,1.288-1.621A1.465,1.465,0,0,0,1970.991,1953.436Z" transform="translate(-1946.548 -1947.154)" fill="#e76f50"/>
        <path id="Path_9079" data-name="Path 9079" d="M1969.5,1955.28a1.465,1.465,0,1,0,1.288-1.621A1.462,1.462,0,0,0,1969.5,1955.28Z" transform="translate(-1947.683 -1945.75)" fill="#e76f50"/>
        <path id="Path_9080" data-name="Path 9080" d="M1963.845,1955.582a1.464,1.464,0,1,0,1.288-1.621A1.463,1.463,0,0,0,1963.845,1955.582Z" transform="translate(-1951.992 -1945.52)" fill="#e76f50"/>
        <path id="Path_9081" data-name="Path 9081" d="M1977.523,1951.075a54.44,54.44,0,0,1-.985,20.846,44.108,44.108,0,0,1-2.907,8.746c-.178.374-.758.349-.539-.108a43.342,43.342,0,0,0,2.852-8.564,53.911,53.911,0,0,0,.969-20.67c-.051-.34.539-.715.61-.25Z" transform="translate(-1944.977 -1947.876)" fill="#e76f50"/>
        <path id="Path_9082" data-name="Path 9082" d="M1972.2,1952.488a57.967,57.967,0,0,1,2.32,19.71,26.316,26.316,0,0,1-1.316,7.282c-.086.232-.625.629-.451.167a25.385,25.385,0,0,0,1.255-6.859,57.152,57.152,0,0,0-2.285-19.729c-.065-.231.421-.766.478-.571Z" transform="translate(-1945.99 -1946.666)" fill="#e76f50"/>
        <path id="Path_9083" data-name="Path 9083" d="M1970.672,1958.074a164.01,164.01,0,0,0,2.731,17.534,60.544,60.544,0,0,0,1.5,5.9l-.314.236a18.24,18.24,0,0,0,1.614-4.44,44.044,44.044,0,0,0,.807-14.329,78.937,78.937,0,0,0-2.217-12.552c-.051-.2.427-.678.45-.588a66.815,66.815,0,0,1,2.345,20.617,30.759,30.759,0,0,1-2.07,9.887,10.481,10.481,0,0,1-.75,1.521c-.014.021-.269.37-.314.236a60.281,60.281,0,0,1-1.5-5.9,163.71,163.71,0,0,1-2.731-17.534c-.023-.21.444-.652.449-.588Z" transform="translate(-1947.127 -1948.666)" fill="#e76f50"/>
        <path id="Path_9084" data-name="Path 9084" d="M1965,1955.555c.888,6.85,2.865,14.229,7.863,19.289a12.638,12.638,0,0,0,5.795,3.682l-.419.643a5.793,5.793,0,0,1-2.752-2.03c-2.528-2.96-3.575-7.062-4.2-10.809a69.03,69.03,0,0,1-.761-12.4c0-.182.472-.719.469-.485-.1,6.2.138,12.788,2.41,18.643.867,2.234,2.149,4.665,4.253,5.974a3.316,3.316,0,0,0,1,.465c.107.025-.194.69-.419.643a10.69,10.69,0,0,1-3.922-2.039,22.686,22.686,0,0,1-6.963-9.659,45.09,45.09,0,0,1-2.814-11.334c-.028-.219.446-.689.46-.583Z" transform="translate(-1951.459 -1945.95)" fill="#e76f50"/>
        <path id="Path_9085" data-name="Path 9085" d="M1961.619,1954.276c2.294,9.69,7.7,20.4,17.823,23.767a10.364,10.364,0,0,0,1.783.462.158.158,0,0,1,.125.127,133.086,133.086,0,0,0,4.755,15.465c1.136,3.249,2.3,6.487,3.524,9.706.1.263-.412.8-.553.428a235.11,235.11,0,0,1-7.715-22.853c-.127-.479-.25-.961-.365-1.441a4.863,4.863,0,0,1-.092-.75c-.065-.067-.4-.078-.488-.1a15.629,15.629,0,0,1-2.405-.779,23.4,23.4,0,0,1-8.21-5.816c-4.59-4.919-7.2-11.323-8.733-17.791-.065-.273.463-.805.552-.428Z" transform="translate(-1954.105 -1945.372)" fill="#e76f50"/>
        <path id="Path_9086" data-name="Path 9086" d="M1958.458,1954.624a29.136,29.136,0,0,0,20.136,22.9,22.468,22.468,0,0,0,3.573.87c.3.044-.049.717-.313.678a29.2,29.2,0,0,1-19.675-13.09,32.657,32.657,0,0,1-4.253-10.916c-.051-.247.46-.795.532-.443Z" transform="translate(-1956.497 -1945.094)" fill="#e76f50"/>
      </g>
      <path id="Path_9087" data-name="Path 9087" d="M1977.555,1973.645c6.843-6.894,9.961-12.257-3.7-9.07s-5.359,6.963-1.325,7.69S1977.555,1973.645,1977.555,1973.645Z" transform="translate(-1950.101 -1938.145)" fill="#e76f50"/>
    </g>
    <g id="Group_4422" data-name="Group 4422" transform="translate(461.526 186.813)">
      <path id="Path_9088" data-name="Path 9088" d="M2270.355,1976.247a40.868,40.868,0,0,1,.381,6.862,73.785,73.785,0,0,1-2.2,17.1,80.863,80.863,0,0,1-9.859,23.26,60.018,60.018,0,0,1-8.744,11.378,60.846,60.846,0,0,1-11.376,8.594,79,79,0,0,1-16.54,7.646c-.2.064-.645-.586-.4-.664a77.764,77.764,0,0,0,13.792-6.091,68.442,68.442,0,0,0,11.376-7.7,52.812,52.812,0,0,0,9.5-10.863,79.1,79.1,0,0,0,13.886-41.743,43.981,43.981,0,0,0-.356-8.23c-.042-.263.511.242.546.451Z" transform="translate(-2217.188 -1959.363)" fill="#e9c464"/>
      <path id="Path_9089" data-name="Path 9089" d="M2249.279,1986.7c10.038,3.021,20.917-9.826,20.917-9.826s-10.366-1.144-15.108,2.8S2249.279,1986.7,2249.279,1986.7Z" transform="translate(-2196.055 -1958.602)" fill="#e9c464"/>
      <path id="Path_9090" data-name="Path 9090" d="M2250.445,1984.072c5.2-6.08-.421-17.634-.421-17.634s-3.991,6.889-2.694,11.415S2250.445,1984.072,2250.445,1984.072Z" transform="translate(-2197.738 -1966.437)" fill="#e9c464"/>
      <path id="Path_9091" data-name="Path 9091" d="M2248.506,1990.444c11.135,2.416,20.981-7.9,20.981-7.9s-8.771-.92-13.111.966S2248.506,1990.444,2248.506,1990.444Z" transform="translate(-2196.644 -1954.339)" fill="#e9c464"/>
      <path id="Path_9092" data-name="Path 9092" d="M2247.43,1995.46c11.133,2.417,20.98-7.9,20.98-7.9s-8.771-.922-13.112.965S2247.43,1995.46,2247.43,1995.46Z" transform="translate(-2197.464 -1950.517)" fill="#e9c464"/>
      <path id="Path_9093" data-name="Path 9093" d="M2246.439,1996.361c9.128,5.858,20.4-.691,20.4-.691s-7.444-3.689-11.727-3.309S2246.439,1996.361,2246.439,1996.361Z" transform="translate(-2198.219 -1946.707)" fill="#e9c464"/>
      <path id="Path_9094" data-name="Path 9094" d="M2244.707,2000.894c9.075,5.64,20.369-.805,20.369-.805s-7.407-3.538-11.688-3.142S2244.707,2000.894,2244.707,2000.894Z" transform="translate(-2199.539 -1943.216)" fill="#e9c464"/>
      <path id="Path_9095" data-name="Path 9095" d="M2242.017,2004.277c7.768,7.335,20.12,3.272,20.12,3.272s-6.554-4.946-10.826-5.409S2242.017,2004.277,2242.017,2004.277Z" transform="translate(-2201.588 -1939.279)" fill="#e9c464"/>
      <path id="Path_9096" data-name="Path 9096" d="M2239.4,2008.814c7.768,7.334,20.121,3.272,20.121,3.272s-6.555-4.946-10.827-5.409S2239.4,2008.814,2239.4,2008.814Z" transform="translate(-2203.584 -1935.823)" fill="#e9c464"/>
      <path id="Path_9097" data-name="Path 9097" d="M2235.494,2012.543c6.165,8.726,19.076,7.188,19.076,7.188s-5.444-6.144-9.542-7.444S2235.494,2012.543,2235.494,2012.543Z" transform="translate(-2206.558 -1931.901)" fill="#e9c464"/>
      <path id="Path_9098" data-name="Path 9098" d="M2230.6,2015.461c4.845,9.521,17.844,9.854,17.844,9.854s-4.5-6.862-8.372-8.737S2230.6,2015.461,2230.6,2015.461Z" transform="translate(-2210.282 -1929.203)" fill="#e9c464"/>
      <path id="Path_9099" data-name="Path 9099" d="M2226.6,2017.815c3.371,10.138,16.172,12.407,16.172,12.407s-3.43-7.458-6.975-9.889S2226.6,2017.815,2226.6,2017.815Z" transform="translate(-2213.336 -1927.295)" fill="#e9c464"/>
      <path id="Path_9100" data-name="Path 9100" d="M2249.522,1985.632c9.94-2.421,12.172-15.811,12.172-15.811s-6.462,3.388-9.136,7.373A19.8,19.8,0,0,0,2249.522,1985.632Z" transform="translate(-2195.871 -1963.859)" fill="#e9c464"/>
      <path id="Path_9101" data-name="Path 9101" d="M2254.7,1987.581c-.057-10.229-12.569-15.5-12.569-15.5s1.8,7.072,5.062,10.594A19.792,19.792,0,0,0,2254.7,1987.581Z" transform="translate(-2201.505 -1962.135)" fill="#e9c464"/>
      <path id="Path_9102" data-name="Path 9102" d="M2254.624,1994.331c-.062-11.436-14.049-17.324-14.049-17.324s2.015,7.9,5.659,11.841A22.126,22.126,0,0,0,2254.624,1994.331Z" transform="translate(-2202.687 -1958.385)" fill="#e9c464"/>
      <path id="Path_9103" data-name="Path 9103" d="M2253.46,1999.2c-.063-11.436-14.049-17.324-14.049-17.324s2.014,7.9,5.658,11.841A22.125,22.125,0,0,0,2253.46,1999.2Z" transform="translate(-2203.573 -1954.679)" fill="#e9c464"/>
      <path id="Path_9104" data-name="Path 9104" d="M2251.537,2004.854c.241-11.433-13.584-17.691-13.584-17.691s1.8,7.955,5.342,11.988A22.124,22.124,0,0,0,2251.537,2004.854Z" transform="translate(-2204.685 -1950.647)" fill="#e9c464"/>
      <path id="Path_9105" data-name="Path 9105" d="M2248.262,2009.8c.241-11.434-13.584-17.692-13.584-17.692s1.8,7.957,5.342,11.99A22.129,22.129,0,0,0,2248.262,2009.8Z" transform="translate(-2207.179 -1946.882)" fill="#e9c464"/>
      <path id="Path_9106" data-name="Path 9106" d="M2245.094,2013.913c.241-11.434-13.583-17.692-13.583-17.692s1.8,7.955,5.342,11.989A22.127,22.127,0,0,0,2245.094,2013.913Z" transform="translate(-2209.593 -1943.747)" fill="#e9c464"/>
      <path id="Path_9107" data-name="Path 9107" d="M2240.994,2017.255c.241-11.434-13.584-17.693-13.584-17.693s1.8,7.957,5.342,11.99A22.121,22.121,0,0,0,2240.994,2017.255Z" transform="translate(-2212.716 -1941.2)" fill="#e9c464"/>
      <path id="Path_9108" data-name="Path 9108" d="M2236.628,2020.082c.243-11.434-13.582-17.693-13.582-17.693s1.8,7.955,5.34,11.988A22.119,22.119,0,0,0,2236.628,2020.082Z" transform="translate(-2216.041 -1939.047)" fill="#e9c464"/>
      <path id="Path_9109" data-name="Path 9109" d="M2232.652,2022.55c.243-11.434-13.582-17.693-13.582-17.693s1.8,7.955,5.342,11.989A22.112,22.112,0,0,0,2232.652,2022.55Z" transform="translate(-2219.07 -1937.166)" fill="#e9c464"/>
    </g>
    <g id="Group_4423" data-name="Group 4423" transform="translate(1.685 186.813)">
      <path id="Path_9110" data-name="Path 9110" d="M1970.141,1976.247a41.18,41.18,0,0,0-.382,6.862,74.029,74.029,0,0,0,2.2,17.1,80.919,80.919,0,0,0,9.861,23.26,59.932,59.932,0,0,0,8.744,11.378,60.774,60.774,0,0,0,11.376,8.594,79,79,0,0,0,16.54,7.646c.2.064.645-.586.4-.664a77.764,77.764,0,0,1-13.792-6.091,68.475,68.475,0,0,1-11.375-7.7,52.807,52.807,0,0,1-9.5-10.863,79.1,79.1,0,0,1-13.887-41.743,43.868,43.868,0,0,1,.356-8.23c.042-.263-.512.242-.546.451Z" transform="translate(-1949.168 -1959.363)" fill="#e9c464"/>
      <path id="Path_9111" data-name="Path 9111" d="M1978.987,1986.7c-10.037,3.021-20.917-9.826-20.917-9.826s10.365-1.144,15.106,2.8S1978.987,1986.7,1978.987,1986.7Z" transform="translate(-1958.07 -1958.602)" fill="#e9c464"/>
      <path id="Path_9112" data-name="Path 9112" d="M1971.188,1984.072c-5.2-6.08.423-17.634.423-17.634s3.991,6.889,2.694,11.415S1971.188,1984.072,1971.188,1984.072Z" transform="translate(-1949.757 -1966.437)" fill="#e9c464"/>
      <path id="Path_9113" data-name="Path 9113" d="M1979.786,1990.444c-11.133,2.416-20.98-7.9-20.98-7.9s8.77-.92,13.112.966S1979.786,1990.444,1979.786,1990.444Z" transform="translate(-1957.509 -1954.339)" fill="#e9c464"/>
      <path id="Path_9114" data-name="Path 9114" d="M1980.863,1995.46c-11.133,2.417-20.98-7.9-20.98-7.9s8.77-.922,13.111.965S1980.863,1995.46,1980.863,1995.46Z" transform="translate(-1956.689 -1950.517)" fill="#e9c464"/>
      <path id="Path_9115" data-name="Path 9115" d="M1981.6,1996.361c-9.127,5.858-20.4-.691-20.4-.691s7.442-3.689,11.727-3.309S1981.6,1996.361,1981.6,1996.361Z" transform="translate(-1955.682 -1946.707)" fill="#e9c464"/>
      <path id="Path_9116" data-name="Path 9116" d="M1983.322,2000.894c-9.075,5.64-20.369-.805-20.369-.805s7.407-3.538,11.687-3.142S1983.322,2000.894,1983.322,2000.894Z" transform="translate(-1954.35 -1943.216)" fill="#e9c464"/>
      <path id="Path_9117" data-name="Path 9117" d="M1985.9,2004.277c-7.768,7.335-20.12,3.272-20.12,3.272s6.554-4.946,10.826-5.409S1985.9,2004.277,1985.9,2004.277Z" transform="translate(-1952.193 -1939.279)" fill="#e9c464"/>
      <path id="Path_9118" data-name="Path 9118" d="M1988.524,2008.814c-7.768,7.334-20.12,3.272-20.12,3.272s6.554-4.946,10.826-5.409S1988.524,2008.814,1988.524,2008.814Z" transform="translate(-1950.197 -1935.823)" fill="#e9c464"/>
      <path id="Path_9119" data-name="Path 9119" d="M1991.974,2012.543c-6.163,8.726-19.074,7.188-19.074,7.188s5.444-6.144,9.542-7.444S1991.974,2012.543,1991.974,2012.543Z" transform="translate(-1946.772 -1931.901)" fill="#e9c464"/>
      <path id="Path_9120" data-name="Path 9120" d="M1996.332,2015.461c-4.845,9.521-17.844,9.854-17.844,9.854s4.505-6.862,8.372-8.737S1996.332,2015.461,1996.332,2015.461Z" transform="translate(-1942.514 -1929.203)" fill="#e9c464"/>
      <path id="Path_9121" data-name="Path 9121" d="M1999.617,2017.815c-3.37,10.138-16.172,12.407-16.172,12.407s3.43-7.458,6.973-9.889S1999.617,2017.815,1999.617,2017.815Z" transform="translate(-1938.738 -1927.295)" fill="#e9c464"/>
      <path id="Path_9122" data-name="Path 9122" d="M1974.961,1985.632c-9.939-2.421-12.171-15.811-12.171-15.811s6.463,3.388,9.135,7.373A19.772,19.772,0,0,1,1974.961,1985.632Z" transform="translate(-1954.474 -1963.859)" fill="#e9c464"/>
      <path id="Path_9123" data-name="Path 9123" d="M1969.961,1987.581c.057-10.229,12.569-15.5,12.569-15.5s-1.8,7.072-5.062,10.594A19.789,19.789,0,0,1,1969.961,1987.581Z" transform="translate(-1949.011 -1962.135)" fill="#e9c464"/>
      <path id="Path_9124" data-name="Path 9124" d="M1970.671,1994.331c.063-11.436,14.051-17.324,14.051-17.324s-2.016,7.9-5.659,11.841A22.125,22.125,0,0,1,1970.671,1994.331Z" transform="translate(-1948.47 -1958.385)" fill="#e9c464"/>
      <path id="Path_9125" data-name="Path 9125" d="M1971.836,1999.2c.063-11.436,14.049-17.324,14.049-17.324s-2.016,7.9-5.659,11.841A22.13,22.13,0,0,1,1971.836,1999.2Z" transform="translate(-1947.582 -1954.679)" fill="#e9c464"/>
      <path id="Path_9126" data-name="Path 9126" d="M1973.559,2004.854c-.243-11.433,13.582-17.691,13.582-17.691s-1.8,7.955-5.34,11.988A22.126,22.126,0,0,1,1973.559,2004.854Z" transform="translate(-1946.272 -1950.647)" fill="#e9c464"/>
      <path id="Path_9127" data-name="Path 9127" d="M1976.834,2009.8c-.243-11.434,13.582-17.692,13.582-17.692s-1.8,7.957-5.34,11.99A22.125,22.125,0,0,1,1976.834,2009.8Z" transform="translate(-1943.777 -1946.882)" fill="#e9c464"/>
      <path id="Path_9128" data-name="Path 9128" d="M1980,2013.913c-.241-11.434,13.584-17.692,13.584-17.692s-1.806,7.955-5.342,11.989A22.126,22.126,0,0,1,1980,2013.913Z" transform="translate(-1941.364 -1943.747)" fill="#e9c464"/>
      <path id="Path_9129" data-name="Path 9129" d="M1984.1,2017.255c-.241-11.434,13.584-17.693,13.584-17.693s-1.8,7.957-5.342,11.99A22.132,22.132,0,0,1,1984.1,2017.255Z" transform="translate(-1938.24 -1941.2)" fill="#e9c464"/>
      <path id="Path_9130" data-name="Path 9130" d="M1988.466,2020.082c-.241-11.434,13.584-17.693,13.584-17.693s-1.8,7.955-5.342,11.988A22.1,22.1,0,0,1,1988.466,2020.082Z" transform="translate(-1934.915 -1939.047)" fill="#e9c464"/>
      <path id="Path_9131" data-name="Path 9131" d="M1992.442,2022.55c-.241-11.434,13.584-17.693,13.584-17.693s-1.8,7.955-5.342,11.989A22.111,22.111,0,0,1,1992.442,2022.55Z" transform="translate(-1931.886 -1937.166)" fill="#e9c464"/>
    </g>
    <g id="Group_4424" data-name="Group 4424" transform="translate(32.252 97.347)">
      <path id="Path_9132" data-name="Path 9132" d="M2039.459,2107.522c-12.079-9.525-43.585-2.405-46.985-20.008s32.874-2.988,28.42-9.3-41.4-5.781-41.2-23.452c.164-14.641,20.668-7.188,24.054-8.147s-25.781-7.309-25.386-15.748,12.867-7.354,18.463-5.43-24-16.274-21.216-26.618,24.5,8.909,21.26.467-24.082-22.011-18.119-29.666,14.269,3.716,19.867,5.639-6.031-17.248-4.988-35.491,14.324-32.89,18.124-17.928-4.686,44.361.981,45.647,13.327-23.39,18.066-6.855-18.266,31.391-9.191,34.023,16.376-9.57,19.384-.941-20.291,22.467-14.872,25.113,8.823.238,22.044-7.616c12.71-7.549,18.32,12.095,3.994,21.773s-21.234,19.826-13.79,17.376,15.454-5.9,22.967-7.86c17.012-4.443,21.21,9.791,5.094,22.636s-26.335,24.472-16.866,18.666,33.3-14.931,20.975-1.048S2039.459,2107.522,2039.459,2107.522Z" transform="translate(-1975.419 -1915.657)" fill="#2a9d8e"/>
      <path id="Path_9133" data-name="Path 9133" d="M2027.255,2097.027c-36.918-94.072-35.815-167.6-35.815-167.6" transform="translate(-1963.216 -1905.162)" fill="none" stroke="#1f7264" stroke-miterlimit="10" stroke-width="1"/>
      <path id="Path_9134" data-name="Path 9134" d="M1980.256,1948.835c14.671,1.145,25.735,26.859,25.735,26.859" transform="translate(-1971.734 -1890.38)" fill="none" stroke="#1f7264" stroke-miterlimit="10" stroke-width="1"/>
      <path id="Path_9135" data-name="Path 9135" d="M1980.619,1964.862c18.372-1.9,30.621,26.507,30.621,26.507" transform="translate(-1971.458 -1878.241)" fill="none" stroke="#1f7264" stroke-miterlimit="10" stroke-width="1"/>
      <path id="Path_9136" data-name="Path 9136" d="M1981.981,1981.294c16.859-3.88,33.3,18.341,33.3,18.341" transform="translate(-1970.42 -1865.999)" fill="none" stroke="#1f7264" stroke-miterlimit="10" stroke-width="1"/>
      <path id="Path_9137" data-name="Path 9137" d="M1983.426,1997.827c20.034-9.6,35.244,7.238,37.718,14.837" transform="translate(-1969.319 -1855.25)" fill="none" stroke="#1f7264" stroke-miterlimit="10" stroke-width="1"/>
      <path id="Path_9138" data-name="Path 9138" d="M1990.782,2014.735c18.408-9.2,29.738.909,32.386,8" transform="translate(-1963.715 -1842.978)" fill="none" stroke="#1f7264" stroke-miterlimit="10" stroke-width="1"/>
      <path id="Path_9139" data-name="Path 9139" d="M2009.179,1944.068c-13.358,21.371-15.525,30.8-13.281,42.24" transform="translate(-1960.403 -1894.012)" fill="none" stroke="#1f7264" stroke-miterlimit="10" stroke-width="1"/>
      <path id="Path_9140" data-name="Path 9140" d="M2016.225,1962.69c-24.438,19.4-17.109,35.353-17.109,35.353" transform="translate(-1958.151 -1879.826)" fill="none" stroke="#1f7264" stroke-miterlimit="10" stroke-width="1"/>
      <path id="Path_9141" data-name="Path 9141" d="M2031.9,1974.051c-23.123,18.431-33.007,25.729-29.9,36.4" transform="translate(-1955.592 -1871.17)" fill="none" stroke="#1f7264" stroke-miterlimit="10" stroke-width="1"/>
      <path id="Path_9142" data-name="Path 9142" d="M2043.141,1990.977c-33.35,22.708-37.244,32.108-35.831,37.34" transform="translate(-1951.307 -1858.275)" fill="none" stroke="#1f7264" stroke-miterlimit="10" stroke-width="1"/>
      <path id="Path_9143" data-name="Path 9143" d="M2040.377,2009.187c-25.76,14.546-31.715,15.555-30.078,19.852" transform="translate(-1949.038 -1844.402)" fill="none" stroke="#1f7264" stroke-miterlimit="10" stroke-width="1"/>
    </g>
    <g id="Group_4425" data-name="Group 4425" transform="translate(404 97.347)">
      <path id="Path_9144" data-name="Path 9144" d="M2223.506,2107.522c12.079-9.525,43.584-2.405,46.983-20.008s-32.874-2.988-28.42-9.3,41.405-5.781,41.206-23.452c-.164-14.641-20.668-7.188-24.057-8.147s25.781-7.309,25.388-15.748-12.866-7.354-18.463-5.43,24-16.274,21.215-26.618-24.5,8.909-21.258.467,24.081-22.011,18.118-29.666-14.271,3.716-19.866,5.639,6.029-17.248,4.986-35.491-14.324-32.89-18.124-17.928,4.687,44.361-.981,45.647-13.327-23.39-18.066-6.855,18.268,31.391,9.194,34.023-16.376-9.57-19.384-.941,20.289,22.467,14.87,25.113-8.823.238-22.044-7.616c-12.71-7.549-18.319,12.095-3.992,21.773s21.234,19.826,13.79,17.376-15.455-5.9-22.968-7.86c-17.014-4.443-21.213,9.791-5.095,22.636s26.336,24.472,16.868,18.666-33.3-14.931-20.977-1.048S2223.506,2107.522,2223.506,2107.522Z" transform="translate(-2186.419 -1915.657)" fill="#2a9d8e"/>
      <path id="Path_9145" data-name="Path 9145" d="M2207.469,2097.027c36.916-94.072,35.813-167.6,35.813-167.6" transform="translate(-2170.382 -1905.162)" fill="none" stroke="#1f7264" stroke-miterlimit="10" stroke-width="1"/>
      <path id="Path_9146" data-name="Path 9146" d="M2250.107,1948.835c-14.669,1.145-25.735,26.859-25.735,26.859" transform="translate(-2157.504 -1890.38)" fill="none" stroke="#1f7264" stroke-miterlimit="10" stroke-width="1"/>
      <path id="Path_9147" data-name="Path 9147" d="M2251.859,1964.862c-18.375-1.9-30.623,26.507-30.623,26.507" transform="translate(-2159.894 -1878.241)" fill="none" stroke="#1f7264" stroke-miterlimit="10" stroke-width="1"/>
      <path id="Path_9148" data-name="Path 9148" d="M2251.654,1981.294c-16.86-3.88-33.3,18.341-33.3,18.341" transform="translate(-2162.089 -1865.999)" fill="none" stroke="#1f7264" stroke-miterlimit="10" stroke-width="1"/>
      <path id="Path_9149" data-name="Path 9149" d="M2252.118,1997.827c-20.032-9.6-35.242,7.238-37.718,14.837" transform="translate(-2165.101 -1855.25)" fill="none" stroke="#1f7264" stroke-miterlimit="10" stroke-width="1"/>
      <path id="Path_9150" data-name="Path 9150" d="M2242.457,2014.735c-18.407-9.2-29.738.909-32.386,8" transform="translate(-2168.399 -1842.978)" fill="none" stroke="#1f7264" stroke-miterlimit="10" stroke-width="1"/>
      <path id="Path_9151" data-name="Path 9151" d="M2216.131,1944.068c13.357,21.371,15.527,30.8,13.28,42.24" transform="translate(-2163.783 -1894.012)" fill="none" stroke="#1f7264" stroke-miterlimit="10" stroke-width="1"/>
      <path id="Path_9152" data-name="Path 9152" d="M2210.854,1962.69c24.441,19.4,17.111,35.353,17.111,35.353" transform="translate(-2167.802 -1879.826)" fill="none" stroke="#1f7264" stroke-miterlimit="10" stroke-width="1"/>
      <path id="Path_9153" data-name="Path 9153" d="M2200.5,1974.051c23.124,18.431,33.009,25.729,29.9,36.4" transform="translate(-2175.689 -1871.17)" fill="none" stroke="#1f7264" stroke-miterlimit="10" stroke-width="1"/>
      <path id="Path_9154" data-name="Path 9154" d="M2191.692,1990.977c33.35,22.708,37.246,32.108,35.833,37.34" transform="translate(-2182.401 -1858.275)" fill="none" stroke="#1f7264" stroke-miterlimit="10" stroke-width="1"/>
      <path id="Path_9155" data-name="Path 9155" d="M2191.974,2009.187c25.758,14.546,31.715,15.555,30.076,19.852" transform="translate(-2182.186 -1844.402)" fill="none" stroke="#1f7264" stroke-miterlimit="10" stroke-width="1"/>
    </g>
    <g id="Group_4460" data-name="Group 4460" transform="translate(77.413)">
      <g id="Group_4426" data-name="Group 4426" transform="translate(1.221)">
        <path id="Path_9156" data-name="Path 9156" d="M2005.269,2131.016h370.423l-3.524-270.611H2001.745Z" transform="translate(-2001.745 -1860.404)" fill="#fff"/>
      </g>
      <g id="Group_4427" data-name="Group 4427" transform="translate(1.221 0)">
        <rect id="Rectangle_921" data-name="Rectangle 921" width="370.423" height="32.523" transform="translate(370.423 32.523) rotate(180)" fill="#e76f50"/>
      </g>
      <g id="Group_4430" data-name="Group 4430" transform="translate(111.197 55.655)">
        <g id="Group_4429" data-name="Group 4429" transform="translate(0 0)">
          <g id="Group_4428" data-name="Group 4428">
            <path id="Rectangle_922" data-name="Rectangle 922" d="M2.663,0h124.86a2.664,2.664,0,0,1,2.664,2.664v4.31a2.664,2.664,0,0,1-2.664,2.664H2.664A2.664,2.664,0,0,1,0,6.973V2.663A2.663,2.663,0,0,1,2.663,0Z" transform="translate(130.186 9.637) rotate(180)" fill="#e9c464"/>
          </g>
        </g>
      </g>
      <g id="Group_4433" data-name="Group 4433" transform="translate(111.197 73.036)">
        <g id="Group_4432" data-name="Group 4432" transform="translate(0 0)">
          <g id="Group_4431" data-name="Group 4431">
            <path id="Rectangle_923" data-name="Rectangle 923" d="M2.663,0h124.86a2.664,2.664,0,0,1,2.664,2.664v4.31a2.664,2.664,0,0,1-2.664,2.664H2.664A2.664,2.664,0,0,1,0,6.973V2.663A2.663,2.663,0,0,1,2.663,0Z" transform="translate(130.186 9.637) rotate(-180)" fill="#e9c464"/>
          </g>
        </g>
      </g>
      <g id="Group_4436" data-name="Group 4436" transform="translate(111.197 90.416)">
        <g id="Group_4435" data-name="Group 4435" transform="translate(0 0)">
          <g id="Group_4434" data-name="Group 4434">
            <rect id="Rectangle_924" data-name="Rectangle 924" width="130.186" height="9.639" rx="2.664" transform="translate(130.186 9.639) rotate(-180)" fill="#e9c464"/>
          </g>
        </g>
      </g>
      <g id="Group_4439" data-name="Group 4439" transform="translate(271.874 194.077)">
        <path id="Path_9157" data-name="Path 9157" d="M2215.42,2000.587a30.028,30.028,0,1,1-30.027-30.027A30.03,30.03,0,0,1,2215.42,2000.587Z" transform="translate(-2155.364 -1970.56)" fill="#eef0f7"/>
        <g id="Group_4437" data-name="Group 4437" transform="translate(28.516 18.057)">
          <path id="Path_9158" data-name="Path 9158" d="M2173.061,2004.751a1.512,1.512,0,0,1-1.511-1.51v-20.919a1.513,1.513,0,1,1,3.025,0v20.919A1.513,1.513,0,0,1,2173.061,2004.751Z" transform="translate(-2171.549 -1980.809)" fill="#949494"/>
        </g>
        <g id="Group_4438" data-name="Group 4438" transform="translate(18.055 28.517)">
          <path id="Path_9159" data-name="Path 9159" d="M2188.044,1989.771h-20.918a1.513,1.513,0,1,1,0-3.025h20.918a1.513,1.513,0,1,1,0,3.025Z" transform="translate(-2165.612 -1986.746)" fill="#949494"/>
        </g>
      </g>
      <g id="Group_4444" data-name="Group 4444" transform="translate(213.115 121.223)">
        <g id="Group_4440" data-name="Group 4440">
          <rect id="Rectangle_925" data-name="Rectangle 925" width="28.269" height="28.269" rx="3.357" fill="#b5b5b5"/>
        </g>
        <g id="Group_4443" data-name="Group 4443" transform="translate(5.61 7.907)">
          <g id="Group_4442" data-name="Group 4442">
            <g id="Group_4441" data-name="Group 4441">
              <path id="Path_9160" data-name="Path 9160" d="M2132.826,1946.151l-7.146-6.232a1.408,1.408,0,0,1,1.85-2.123l5.054,4.406,7.206-8.037a1.407,1.407,0,1,1,2.1,1.878Z" transform="translate(-2125.198 -1933.697)" fill="#f3f3f3"/>
            </g>
          </g>
        </g>
      </g>
      <g id="Group_4446" data-name="Group 4446" transform="translate(213.115 156.639)">
        <g id="Group_4445" data-name="Group 4445">
          <path id="Rectangle_926" data-name="Rectangle 926" d="M3.357,0H24.911a3.357,3.357,0,0,1,3.357,3.357V24.91a3.358,3.358,0,0,1-3.358,3.358H3.357A3.357,3.357,0,0,1,0,24.91V3.357A3.357,3.357,0,0,1,3.357,0Z" fill="#b5b5b5"/>
        </g>
      </g>
      <g id="Group_4449" data-name="Group 4449" transform="translate(387.631 288.193)">
        <g id="Group_4448" data-name="Group 4448">
          <g id="Group_4447" data-name="Group 4447">
            <path id="Path_9161" data-name="Path 9161" d="M2221.115,2023.981l.018,0C2221.054,2024.015,2221.043,2024.016,2221.115,2023.981Z" transform="translate(-2221.067 -2023.979)" fill="#323657"/>
          </g>
        </g>
      </g>
      <rect id="Rectangle_927" data-name="Rectangle 927" width="81.995" height="201.779" rx="5.256" transform="translate(13.048 56.142)" fill="#e9c464"/>
      <path id="Path_9162" data-name="Path 9162" d="M2060.894,2028.369l28.308-24.447,15.728,12.223,33.7-32.294,19.551,20.072,38.371-28.6v52.649Z" transform="translate(-1955.462 -1772.857)" fill="#f4a25d"/>
      <rect id="Rectangle_928" data-name="Rectangle 928" width="84.956" height="65.001" rx="5.332" transform="translate(111.197 121.223)" fill="#dfe1e8"/>
      <circle id="Ellipse_56" data-name="Ellipse 56" cx="29.07" cy="29.07" r="29.07" transform="translate(274.756 52.143)" fill="#2a9d8e"/>
      <circle id="Ellipse_57" data-name="Ellipse 57" cx="29.07" cy="29.07" r="29.07" transform="translate(274.756 119.228)" fill="#2a9d8e"/>
      <g id="Group_4456" data-name="Group 4456" transform="translate(0 119.609)">
        <path id="Path_9163" data-name="Path 9163" d="M2045.451,1953.863c3.859,4.146,6.579,30.7,6.679,31.69s19.532,11.919,19.532,11.919l-2.736,3.129s-20.705-5.215-24.428-9.718c-3.159-3.82-10.458-35.043-10.458-35.043S2039.048,1946.987,2045.451,1953.863Z" transform="translate(-1975.921 -1910.806)" fill="#e76f50"/>
        <g id="Group_4450" data-name="Group 4450" transform="translate(0 197.372)">
          <path id="Path_9164" data-name="Path 9164" d="M2009.708,2043.9a35.946,35.946,0,0,1-2.38,4.019c-.8.964-4.258-1.221-4.283-2.01s3.076-5.592,3.076-5.592" transform="translate(-1999.534 -2040.319)" fill="#ffd3b3"/>
          <path id="Path_9165" data-name="Path 9165" d="M2003.031,2044.035c-.749,1.061-1.979,3.164-1.979,3.164l3.057,2.789.8-.344a6.832,6.832,0,0,0,1.431,2.26,15.722,15.722,0,0,0,3.161,2.156c3.044,1.418,5.6,1.633,5.942,1.269,1.454-1.527-2.572-3.448-3.328-3.948a5.643,5.643,0,0,1-2.534-5.266c.166-1,.465-1.089-.085-1.244a1.4,1.4,0,0,0-1.062.106,2.481,2.481,0,0,1-2.8-.3,2.781,2.781,0,0,1-.9-1.489A1.725,1.725,0,0,0,2003.031,2044.035Z" transform="translate(-2001.052 -2038.144)" fill="#e76f50"/>
        </g>
        <g id="Group_4451" data-name="Group 4451" transform="translate(62.013 208.907)">
          <path id="Path_9166" data-name="Path 9166" d="M2041.194,2049.385a8.9,8.9,0,0,1,.668,3.117c-.1,1.239-4.207,1.33-4.685.687s-.717-6.323-.717-6.323" transform="translate(-2036.09 -2046.866)" fill="#ffd3b3"/>
          <path id="Path_9167" data-name="Path 9167" d="M2036.25,2052.334a25.337,25.337,0,0,0,.374,3.392h4.739l.234-.758a7.685,7.685,0,0,0,2.743.758h4c2.928,0,4.591-.358,4.665-.851.309-2.065-3.189-1.97-4.1-1.97-2.615,0-5.448-1.173-6.064-2.447-.447-.923-.25-1.156-.791-.983a1.353,1.353,0,0,0-.812.671,2.426,2.426,0,0,1-2.47,1.293,2.924,2.924,0,0,1-1.6-.742A1.657,1.657,0,0,0,2036.25,2052.334Z" transform="translate(-2036.25 -2044.918)" fill="#e76f50"/>
        </g>
        <path id="Path_9168" data-name="Path 9168" d="M2025.624,2012.208c.028.173,3.869-4.23,3.911-4.043,1.527,7.7,8.633,33.456,10.992,40.212v.012a7.11,7.11,0,0,0,3.681,3.369c3.47.906,9.008-.282,9.452-6.919.055-.733-.111-1.531-.028-2.394.989-10.224-8.788-55.292-9.038-58.165-.234-2.874-5.888-.8-7.47-1.332C2029.227,1980.327,2023.557,2001.434,2025.624,2012.208Z" transform="translate(-1982.658 -1886.832)" fill="#004991"/>
        <path id="Path_9169" data-name="Path 9169" d="M2034,2029.219c1.6-4.8-.83-10.416-.83-10.416s13.631-10.481,14.325-4.084c.071.506.576,4.84.574,7.285-.005,8.75-3.044,36.455-2.823,53.371v1.1a33.769,33.769,0,0,1-6.274.413c-.18,0-.374,0-.569-.014-1.138-10.534-3.6-24.862-4.773-39.275A33.133,33.133,0,0,1,2034,2029.219Z" transform="translate(-1976.585 -1864.026)" fill="#004991"/>
        <path id="Path_9170" data-name="Path 9170" d="M2022.18,2051.092c2.729-3.39,5.608-4.907,6.459-7.488,1.982-6,1.444-30.351,1.635-37.111-.564-1.383-5.816-15.2,4.843-25.386,0,0,9.584,4.112,17.259,4.609a39.524,39.524,0,0,0,9.11-.209s-5.707,8.61-6.04,12.426c-.566,6.484-12.687,45.641-13.612,47.786a25.608,25.608,0,0,1-5.2,7.812c-5.373,6.992-17.95,21.7-27.487,35.779l-.643.911a26.339,26.339,0,0,1-5.483-3.1C2008.16,2077.74,2013.535,2061.833,2022.18,2051.092Z" transform="translate(-1999.551 -1888.058)" fill="#004991"/>
        <path id="Path_9171" data-name="Path 9171" d="M2059.5,1955.044c-1.913-2.2-10.127-5.589-18.247-5.333-5.594.178-23.378,2.008-25.08,5.751-.87,1.914-.786,20.073.488,26.829.958,5.079,3.851,18.133,3.851,21.168s-1.631,4.339-.87,5.22c1.705,1.977,14.449,2.859,19.923,2.859,4.871,0,13.162-1.3,13.583-2.859.624-2.317-.951-2.229-1.164-4.658s-1.36-18.445.065-20.772c2.264-3.695,5.7-14.167,5.877-16.951S2061.413,1957.241,2059.5,1955.044Z" transform="translate(-1989.97 -1911.986)" fill="#e76f50"/>
        <path id="Path_9172" data-name="Path 9172" d="M2037.919,1947.63s.055,6.757.328,7.03a10.652,10.652,0,0,0,1.607.9s-.952,5.872-2.423,5.435-11.19-5.344-11.19-5.344,1.38-.56,1.38-1.1-1.309-11.172-1.309-11.172" transform="translate(-1981.861 -1916.8)" fill="#ffd3b3"/>
        <path id="Path_9173" data-name="Path 9173" d="M2031.776,1933.494a4.113,4.113,0,0,1,4.191-.278,6.113,6.113,0,0,1,2.862,3.24,4.821,4.821,0,0,1,.005,4.126,2.524,2.524,0,0,1,1.586,2.41,6.048,6.048,0,0,1-1.247,3.1,2.824,2.824,0,0,1-2.8,1.166,3.173,3.173,0,0,1-1.783-1.249,8.249,8.249,0,0,1-1.006-1.975,54.6,54.6,0,0,1-2.718-9.931" transform="translate(-1978.341 -1924.879)" fill="#004991"/>
        <path id="Path_9174" data-name="Path 9174" d="M2033.827,1931.861c1.416.386,5.148-.386,6.179,1.16s1.931,5.277,2.317,6.307c.768,2.049,1.27,4.241,1.828,6.353.728,2.754,2.6,7.942-.1,10.245a5.46,5.46,0,0,1-2.749.913c-1.275.231-2.546.492-3.821.721-1.977.356-4.167.77-6.129.132-2.623-.853-4.063-4.459-4.736-6.908l-3.862-14.03Z" transform="translate(-1984.516 -1925.575)" fill="#ffd3b3"/>
        <path id="Path_9175" data-name="Path 9175" d="M2027.545,1945.579a1.192,1.192,0,0,1-1.927,1.14,4.115,4.115,0,0,1-2.213-3.464c-.116-1.664.948-3.193,2.389-2.6a2.214,2.214,0,0,1,1.159,2.306" transform="translate(-1984.029 -1918.972)" fill="#ffd3b3"/>
        <path id="Path_9176" data-name="Path 9176" d="M2026.389,1947.222c.458,1.394,1.649,4.559,2.916,4.251s-.515-5.264-1.61-7.255c1.595-.005,3.559-.25,4.133-1.737.128-.335.231-.766.581-.842.287-.063.541.169.788.329,1.119.724,2.645.016,3.536-.974.2-.227.442-.491.745-.47a1.025,1.025,0,0,1,.5.243c1.837,1.3,6.718,1.238,6.7-1.056,1.607.818,2.648-1.173,2.553-2.536s-1.115-3.635-3.331-3.578c.111-1.674-1.2-2.722-2.533-3.744a8.352,8.352,0,0,0-4.706-1.552c-2.646-.12-5.657.971-6.559,3.462a.839.839,0,0,1-.3.478.807.807,0,0,1-.618-.005,6.406,6.406,0,0,0-5.871,1.165,4.454,4.454,0,0,0-.878,5.64c-1.551.366-2.382,2.209-2.139,3.784a8.218,8.218,0,0,0,2.349,4.082,3.135,3.135,0,0,0-1.5,4.38,4.933,4.933,0,0,0,4.783,2.128c-.4-1.594.289-3.427,1.831-3.712" transform="translate(-1986.419 -1928.293)" fill="#004991"/>
        <path id="Path_9177" data-name="Path 9177" d="M2034.863,1954.3s.537,24.868,1.549,40l-3.656,5.044-2.514-6.316a192.261,192.261,0,0,1,2.378-38.551Z" transform="translate(-1978.932 -1908.483)" fill="#004991"/>
        <path id="Path_9178" data-name="Path 9178" d="M2035.364,1953.734l-.086.342a6.911,6.911,0,0,1-.758,1.843h0l-2.243.173s-1.526-.8-1.729-1.658,2.505-2.267,2.505-2.267l.328.13a4.858,4.858,0,0,1,1.954,1.406Z" transform="translate(-1978.588 -1910.105)" fill="#004991"/>
        <path id="Path_9179" data-name="Path 9179" d="M2028.207,1948.386a13.944,13.944,0,0,0-3.06,3.089,28.755,28.755,0,0,0,7.46,9.265,12.974,12.974,0,0,1,4.554-5.694S2029.012,1953.36,2028.207,1948.386Z" transform="translate(-1982.695 -1912.985)" fill="#eaeaea"/>
        <path id="Path_9180" data-name="Path 9180" d="M2031.966,1954.853a9.658,9.658,0,0,1,4.463,4.243,21.355,21.355,0,0,0-.606-7.874s-1.51-2.533-2.146-2.583C2033.941,1951.636,2031.966,1954.853,2031.966,1954.853Z" transform="translate(-1977.5 -1912.792)" fill="#eaeaea"/>
        <path id="Path_9181" data-name="Path 9181" d="M2036.927,2042.347a11.265,11.265,0,0,0,.541-3.459c-.026-.058-.067-.123-.085-.176v-.012c-1.587-4.546-5.319-17.68-8.058-28.139l4.248-15.145s2.578,30.825,3.422,33.038,3.474,9.331,3.219,10.866-1.919,4.346-1.661,6.774.217,24.2.217,24.32c-.84-6.3-1.665-12.978-2.209-19.683A33.15,33.15,0,0,1,2036.927,2042.347Z" transform="translate(-1979.513 -1877.155)" fill="#5ab5e2" opacity="0.45"/>
        <g id="Group_4454" data-name="Group 4454" transform="translate(64.666 5.455)">
          <g id="Group_4452" data-name="Group 4452" transform="translate(35.822)">
            <path id="Path_9182" data-name="Path 9182" d="M2093.477,2002.033a35.7,35.7,0,0,1-6.248-.552,35.182,35.182,0,1,1,6.248.552Zm-.115-61.342a26.012,26.012,0,1,0,21.368,11.112A25.861,25.861,0,0,0,2093.362,1940.691Z" transform="translate(-2058.088 -1931.389)" fill="#2a9d8e"/>
          </g>
          <g id="Group_4453" data-name="Group 4453" transform="translate(0 54.435)">
            <path id="Path_9183" data-name="Path 9183" d="M2042.408,2026.764a4.653,4.653,0,0,1-3.583-7.62l45.678-55.174a4.653,4.653,0,0,1,7.167,5.936l-45.676,55.174A4.644,4.644,0,0,1,2042.408,2026.764Z" transform="translate(-2037.755 -1962.286)" fill="#2a9d8e"/>
          </g>
        </g>
        <g id="Group_4455" data-name="Group 4455" transform="translate(23.565 43.003)">
          <path id="Path_9184" data-name="Path 9184" d="M2042.539,1984.637s2.521.788,3.823,1.165c.849.245,4.882-.187,7.253.356a5.37,5.37,0,0,1,3.076,1.577,2.226,2.226,0,0,1-.18,3.129c-.276.188-.65.351-.683.683a1.293,1.293,0,0,0,.118.492,1.3,1.3,0,0,1-1.9,1.519,2.2,2.2,0,0,1-2.043,2.109,1.752,1.752,0,0,0-.64-1.582,3.5,3.5,0,0,0-1.667-.344,4.493,4.493,0,0,1-2.69-1.279c-.509-.511-.888-1.136-1.355-1.688a6.817,6.817,0,0,0-3.742-2.245" transform="translate(-1993.488 -1928.371)" fill="#ffbe9d"/>
          <path id="Path_9185" data-name="Path 9185" d="M2016.223,1953.169a2.04,2.04,0,0,1,.31-.463l11.729,11.471c2.794,7.44,8.367,27.019,8.367,27.019s5.278,2.475,8.821,4.315c.9.467,3.433,2.172,6.435,4.253.063.9.118,1.6.149,1.965.213,2.43.548,2.414-.077,4.73a46.459,46.459,0,0,0,.99,6.126c-8.812-2.253-27-7.955-27.691-8.328-1.033-.56-6.387-22.1-9.488-35.177C2015.291,1961.115,2015.585,1954.57,2016.223,1953.169Z" transform="translate(-2013.585 -1952.697)" fill="#bf2b0d" opacity="0.25"/>
          <path id="Path_9186" data-name="Path 9186" d="M2029.167,1962.928c1.085,3.106,6.843,30.446,6.843,30.446a52.359,52.359,0,0,1,9.174,3.252c2.747,1.425,21.888,13.314,21.888,13.314l-1.9,4.482s-34.071-12.076-35.565-12.886-15.175-35.332-15.175-41.491c0-3.628,2.937-7.345,2.937-7.345" transform="translate(-2014.427 -1952.701)" fill="#e76f50"/>
        </g>
        <path id="Path_9187" data-name="Path 9187" d="M2056.052,1985.246a2.283,2.283,0,0,0,2.444-1.788,1.769,1.769,0,0,1,.167-.64c.206-.331.648-.4,1.023-.507a4.367,4.367,0,0,0,2.7-3.332,4.467,4.467,0,0,0,.007-2.359,2.461,2.461,0,0,0-1.578-1.661.739.739,0,0,0-.461-.011.839.839,0,0,0-.351.307,5.926,5.926,0,0,0-.978,1.959,2.445,2.445,0,0,1-.684,1.411,6.217,6.217,0,0,1-.99.412,2.841,2.841,0,0,0-1.215,1.725c-.365,1.038.122,3.4-.081,4.484" transform="translate(-1959.196 -1892.774)" fill="#ffbe9d"/>
        <path id="Path_9188" data-name="Path 9188" d="M2053.717,1978.433a2.94,2.94,0,0,1,.735-2.472,5.322,5.322,0,0,1,2.151-1.337c.213-.079.5-.13.624.058a.441.441,0,0,1-.044.455c-.3.514-.941.754-1.269,1.256a5.5,5.5,0,0,0-.294.608,2.653,2.653,0,0,1-1.9,1.432" transform="translate(-1960.971 -1893.05)" fill="#ffbe9d"/>
        <path id="Path_9189" data-name="Path 9189" d="M2037.3,1971.359s3.233-7.993,3.816-11.293c1.543,7.843,1.032,21.579,2.334,22.751s14.309,8.585,14.309,8.585h0c-6.143-1.929-13.65-4.7-15.75-7.238-1.187-1.436-2.96-6.741-4.709-12.8Z" transform="translate(-1973.435 -1904.087)" fill="#bf2b0d" opacity="0.25"/>
        <path id="Path_9190" data-name="Path 9190" d="M2035.754,1946.114s-5.5,1.2-6.471,1.041,2.114,1.676,2.69,1.742a37.911,37.911,0,0,0,3.781-.373Z" transform="translate(-1979.688 -1914.716)" fill="#f2a181"/>
      </g>
      <g id="Group_4459" data-name="Group 4459" transform="translate(283.181 156.615)">
        <g id="Group_4457" data-name="Group 4457" transform="translate(12.182 134.649)">
          <path id="Path_9191" data-name="Path 9191" d="M2174.372,2037.772c0,5.71,25.44,10.343,56.825,10.343s56.821-4.633,56.821-10.343-25.441-10.347-56.821-10.347S2174.372,2032.059,2174.372,2037.772Z" transform="translate(-2174.372 -2027.425)" fill="#dae4e5" opacity="0.06"/>
        </g>
        <g id="Group_4458" data-name="Group 4458" transform="translate(0 83.705)">
          <path id="Path_9192" data-name="Path 9192" d="M2196.346,2023.254h49.627l-24.761-8.075h-50.32l.185.532,23.926,7.331A4.375,4.375,0,0,0,2196.346,2023.254Z" transform="translate(-2164.841 -1985.811)" fill="#0c877e"/>
          <path id="Path_9193" data-name="Path 9193" d="M2196.522,2022.408h48.5l-24.3-7.229h-49.192l23.647,7.016A4.323,4.323,0,0,0,2196.522,2022.408Z" transform="translate(-2164.354 -1985.811)" fill="#c5e6ef"/>
          <path id="Path_9194" data-name="Path 9194" d="M2195.131,2020.667h32.187l-16.125-4.8h-32.646l15.693,4.656A2.877,2.877,0,0,0,2195.131,2020.667Z" transform="translate(-2159.01 -1985.285)" fill="#71c9c4" opacity="0.55"/>
          <path id="Path_9195" data-name="Path 9195" d="M2173.509,2027.878h50.32l-6.344-27.825a2.373,2.373,0,0,0-2.294-1.543h-45.364a2.183,2.183,0,0,0-2.269,2.736Z" transform="translate(-2167.458 -1998.51)" fill="#0c877e"/>
          <path id="Path_9196" data-name="Path 9196" d="M2174.148,2027.878h49.192L2217,2000.053a2.373,2.373,0,0,0-2.294-1.543h-44.236a2.184,2.184,0,0,0-2.27,2.736Z" transform="translate(-2166.97 -1998.51)" fill="#2a9d8e"/>
          <path id="Path_9197" data-name="Path 9197" d="M2175.237,2025.4h44.383l-5.709-25.89a.021.021,0,0,0-.021-.014h-44.367Z" transform="translate(-2165.885 -1997.761)" fill="#c5e6ef"/>
          <line id="Line_26" data-name="Line 26" x1="40.372" transform="translate(27.937 34.066)" fill="none" stroke="#c5e6ef" stroke-miterlimit="10" stroke-width="0.5"/>
          <line id="Line_27" data-name="Line 27" x1="40.372" transform="translate(20.493 32)" fill="none" stroke="#c5e6ef" stroke-miterlimit="10" stroke-width="0.25"/>
          <path id="Path_9198" data-name="Path 9198" d="M2214.746,2017.35c-1.69-1.4-4.655-1.728-6.827-2.028a35.646,35.646,0,0,0-6.565-.1c-1.261.06-.939,1.526.146,1.707a12.646,12.646,0,0,0,3.756.06,6,6,0,0,0,3.309,2.194,13.507,13.507,0,0,0,4.013.384c.377-.009.856-.1.934-.474" transform="translate(-2142.255 -1985.854)" fill="#ffd3b3"/>
        </g>
        <path id="Path_9199" data-name="Path 9199" d="M2272.034,2018.38c1,3.487.779,6.29,1.439,9.858.983,5.313,1.376,11.434-2.2,15.483a10.469,10.469,0,0,1-8.774,4.087c-3.294.046-6.568-.539-9.862-.627-2.212-.059-8.982.541-11.193.629-9.865.391-15.445-1.786-25.2-2.993a232.44,232.44,0,0,1-25.644-5.148c-25.258-6.917-16.11-17.1-10.528-18.728,1.216-.354,6.716-2.187,6.716-2.187l7.379,2.062H2220s10.777-.5,15.393-1.581" transform="translate(-2162.656 -1899.667)" fill="#004991"/>
        <path id="Path_9200" data-name="Path 9200" d="M2192.332,2010.469a14.682,14.682,0,0,0-1.549,1.052,18.263,18.263,0,0,1-3.515,1.725l-3.543,1.436a1.463,1.463,0,0,0-1.112,1.434c-.735,3.709-1.466,7.558-.482,11.471a14.82,14.82,0,0,0,2.075-4.14,4.513,4.513,0,0,1,.976-2.022,5.732,5.732,0,0,1,1.129-.714,12.1,12.1,0,0,0,3.127-2.974,1.94,1.94,0,0,0,.513-.932,1.194,1.194,0,0,1,.073-.382.706.706,0,0,1,.267-.246l4.364-2.8" transform="translate(-2156.641 -1905.694)" fill="#ffd3b3"/>
        <path id="Path_9201" data-name="Path 9201" d="M2227.116,2049.41c2.03-1.5,4.244-3.183,6.347-4.94,4.794-4.026,9.076-8.4,9.608-11.582,1.169-7.135.255-28.343-.312-38.352-.017-.6-.054-1.17-.091-1.7-.568-9.459-5.655-13.649-8.2-15.185-1.3,12.3-4.227,40.052-4.465,41.479C2229.7,2020.958,2227.116,2049.41,2227.116,2049.41Z" transform="translate(-2122.008 -1930.698)" fill="#264653"/>
        <path id="Path_9202" data-name="Path 9202" d="M2227.112,2043.35c2.031-1.5,4.246-3.184,6.35-4.94.181-7.821,3.027-6.12,6.3-19.789a91.151,91.151,0,0,0,.925-33.017l-7.812,1.189c-1.3,12.167-2.708,25.3-2.874,26.274C2229.693,2014.9,2227.112,2043.35,2227.112,2043.35Z" transform="translate(-2122.01 -1924.637)" fill="#264653"/>
        <path id="Path_9203" data-name="Path 9203" d="M2235.674,1990.489s-1.673-5.67-.941-9.854,3.242-11.716,2.3-17.366-8.055-10.356-15.587-9.623-9.729,7.949-10.985,12.134-1.046,10.566-.732,14.019,2.2,6.172,3.451,6.9,5.978-.234,6.808.668,1.458,6.235,1.458,6.235" transform="translate(-2135.435 -1949.042)" fill="#ffd3b3"/>
        <path id="Path_9204" data-name="Path 9204" d="M2236.559,1979.449s-.419-3.305-1.674-4.477-9.625-1.172-12.135-.858-8.7,3.2-9.52,3.811.8,3.786.8,3.786Z" transform="translate(-2132.763 -1933.525)" fill="#1c353d"/>
        <path id="Path_9205" data-name="Path 9205" d="M2234.594,1985.314s-10.462.888-12.449,0-4.865-2.826-5.125-6.382.471-4.656-.89-6.644-2.563-1.307-2.773.576-.291,5.284-.784,5.534c-.666.336-1.459-2.058-1.2-5.691a22.5,22.5,0,0,1,1.517-7.688c.943-2.093,1.452-1.975,2.3-2.354-.917-.446-1.9-.5-3.714-3.323-2.095-3.268-.943-8.363,4.6-8.342,9.687.037,19.981,1.934,20.191,9.1,0,0,3.4-.523,3.5,6.015s-4.08,14.437-4.394,16.477S2235.641,1984.842,2234.594,1985.314Z" transform="translate(-2134.669 -1951)" fill="#004991"/>
        <path id="Path_9206" data-name="Path 9206" d="M2209.474,2042.929c-.384,3.275-3.256,8.344-1.3,9.058.786.275,3.989.091,7.9-.238h.109c.074,0,.129-.02.183-.02,3.478-.292,7.448-.676,10.777-.932,13.3-.567,20.09,2.086,21.426,1.335.641-.384.659-1.538.458-2.728a30.947,30.947,0,0,1-.22-8.818c.329-2.47.788-5.416,1.429-8.783,2.195-11.656,6.494-29.459,7.135-40.163,1.023-16.778-16.944-15.187-16.944-15.187-22.872-1.427-33.612,5.16-34.856,14.986-.092.694-.146,1.445-.2,2.232-.587,10.136,2.507,26.495,3.969,38.716A61.486,61.486,0,0,1,2209.474,2042.929Z" transform="translate(-2138.625 -1931.755)" fill="#264653"/>
        <path id="Path_9207" data-name="Path 9207" d="M2209.476,2036.017c-.384,3.275-3.256,8.344-1.3,9.058.786.275,3.989.092,7.9-.238-3.53.255-4.189-2.453-3.4-4.264a25.894,25.894,0,0,0,2.267-10.832c-.163-4.868-1.994-15.846-3.072-26.22a84.427,84.427,0,0,1-.019-18.187c-.549,1.1-2.124,2.634-6.551,3.659-.092,10.19,2.69,25.122,4.043,36.484A61.537,61.537,0,0,1,2209.476,2036.017Z" transform="translate(-2138.627 -1924.843)" fill="#264653"/>
        <path id="Path_9208" data-name="Path 9208" d="M2225.235,1977.682s-10.483-.837-15.1,3.036c-3.679,3.09-10.76,42.208-10.76,42.208l9.789,4.049s10.666-26.736,13.447-26.322" transform="translate(-2143.138 -1930.731)" fill="#264653"/>
        <path id="Path_9209" data-name="Path 9209" d="M2218.99,2006.955c-3.328,10.529-30.474,14.51-30.474,14.51l-1.514-4.833s16.579-12.345,22.56-14.02" transform="translate(-2152.568 -1911.68)" fill="#264653"/>
        <path id="Path_9210" data-name="Path 9210" d="M2188.4,2019.848q-3.631.2-7.25.536" transform="translate(-2157.03 -1898.549)" fill="none" stroke="#062f44" stroke-miterlimit="10" stroke-width="1"/>
        <path id="Path_9211" data-name="Path 9211" d="M2188.864,2031.543c9-.439,17.895,1.705,26.812,3.014s18.362,1.719,26.59-1.958a3.375,3.375,0,0,1,4.443.509,13.129,13.129,0,0,0,4.859,2.359c2.509.526,3.231-.1,5.761-.516a1.1,1.1,0,0,1,.74.051c.063.037.07.1.109.148-2.53,1.866-3.994,2.629-7.188,2.674-3.295.046-6.568-.539-9.862-.627-2.211-.059-8.982.541-11.193.629-9.865.391-15.445-1.787-25.2-2.993-4.049-.5-10.087-1.6-15.693-2.795A1.267,1.267,0,0,1,2188.864,2031.543Z" transform="translate(-2151.151 -1889.684)" fill="#062f44"/>
      </g>
    </g>
  </g>
</svg>
