<svg xmlns="http://www.w3.org/2000/svg" width="427.665" height="282.77" viewBox="0 0 427.665 282.77">
  <g id="Group_6155" data-name="Group 6155" transform="translate(-36.073 -27.162)">
    <g id="Group_6147" data-name="Group 6147" transform="translate(36.073 27.162)">
      <g id="Group_6145" data-name="Group 6145">
        <rect id="Rectangle_1725" data-name="Rectangle 1725" width="205.863" height="282.769" rx="5.663" fill="#e0583d"/>
        <circle id="Ellipse_211" data-name="Ellipse 211" cx="2.218" cy="2.218" r="2.218" transform="translate(100.966 6.979)" fill="#fff"/>
        <path id="Path_15767" data-name="Path 15767" d="M219.342,30.438H205.387a2.073,2.073,0,0,0-2.073,2.073h0a8.551,8.551,0,0,1-8.552,8.552H76.024a8.551,8.551,0,0,1-8.552-8.552h0A2.073,2.073,0,0,0,65.4,30.438H51.443A12.1,12.1,0,0,0,39.349,42.532V287.337a12.1,12.1,0,0,0,12.094,12.1h167.9a12.1,12.1,0,0,0,12.1-12.1V42.534A12.1,12.1,0,0,0,219.342,30.438Z" transform="translate(-32.462 -23.551)" fill="#fff"/>
      </g>
      <rect id="Rectangle_1726" data-name="Rectangle 1726" width="161.383" height="98.652" transform="translate(22.602 30.328)" fill="#030504" opacity="0.06"/>
      <g id="Group_6146" data-name="Group 6146" transform="translate(22.602 141.385)">
        <rect id="Rectangle_1727" data-name="Rectangle 1727" width="55.594" height="29.507" fill="#030504" opacity="0.06"/>
        <rect id="Rectangle_1728" data-name="Rectangle 1728" width="55.594" height="29.507" transform="translate(0 41.24)" fill="#030504" opacity="0.06"/>
        <rect id="Rectangle_1729" data-name="Rectangle 1729" width="55.594" height="29.507" transform="translate(0 82.481)" fill="#030504" opacity="0.06"/>
      </g>
      <path id="Path_15768" data-name="Path 15768" d="M168.838,101.476H82.871a3.528,3.528,0,0,1-3.53-3.53h0a3.529,3.529,0,0,1,3.53-3.53h85.967a3.53,3.53,0,0,1,3.53,3.53h0A3.529,3.529,0,0,1,168.838,101.476Z" transform="translate(11.618 46.967)" fill="#030504" opacity="0.06"/>
      <path id="Path_15769" data-name="Path 15769" d="M168.838,108.494H82.871a3.528,3.528,0,0,1-3.53-3.53h0a3.529,3.529,0,0,1,3.53-3.53h85.967a3.53,3.53,0,0,1,3.53,3.53h0A3.529,3.529,0,0,1,168.838,108.494Z" transform="translate(11.618 54.702)" fill="#030504" opacity="0.06"/>
      <path id="Path_15770" data-name="Path 15770" d="M168.838,115.512H82.871a3.528,3.528,0,0,1-3.53-3.53h0a3.529,3.529,0,0,1,3.53-3.53h85.967a3.53,3.53,0,0,1,3.53,3.53h0A3.529,3.529,0,0,1,168.838,115.512Z" transform="translate(11.618 62.438)" fill="#030504" opacity="0.06"/>
      <rect id="Rectangle_1730" data-name="Rectangle 1730" width="93.026" height="7.059" rx="1.679" transform="translate(90.958 185.645)" fill="#030504" opacity="0.06"/>
      <path id="Path_15771" data-name="Path 15771" d="M168.838,129.547H82.871a3.527,3.527,0,0,1-3.53-3.527h0a3.528,3.528,0,0,1,3.53-3.53h85.967a3.529,3.529,0,0,1,3.53,3.53h0A3.529,3.529,0,0,1,168.838,129.547Z" transform="translate(11.618 77.909)" fill="#030504" opacity="0.06"/>
      <path id="Path_15772" data-name="Path 15772" d="M168.838,136.567H82.871a3.529,3.529,0,0,1-3.53-3.53h0a3.528,3.528,0,0,1,3.53-3.53h85.967a3.529,3.529,0,0,1,3.53,3.53h0A3.53,3.53,0,0,1,168.838,136.567Z" transform="translate(11.618 85.644)" fill="#030504" opacity="0.06"/>
      <path id="Path_15773" data-name="Path 15773" d="M168.838,143.585H82.871a3.529,3.529,0,0,1-3.53-3.53h0a3.528,3.528,0,0,1,3.53-3.53h85.967a3.529,3.529,0,0,1,3.53,3.53h0A3.53,3.53,0,0,1,168.838,143.585Z" transform="translate(11.618 93.38)" fill="#030504" opacity="0.06"/>
      <path id="Path_15774" data-name="Path 15774" d="M168.838,150.6H82.871a3.529,3.529,0,0,1-3.53-3.53h0a3.529,3.529,0,0,1,3.53-3.53h85.967a3.53,3.53,0,0,1,3.53,3.53h0A3.53,3.53,0,0,1,168.838,150.6Z" transform="translate(11.618 101.115)" fill="#030504" opacity="0.06"/>
      <circle id="Ellipse_212" data-name="Ellipse 212" cx="29.811" cy="29.811" r="29.811" transform="translate(68.935 104.086) rotate(-80.418)" fill="#030504" opacity="0.06"/>
      <path id="Path_15775" data-name="Path 15775" d="M104.164,70.553l-20.789-12a2.327,2.327,0,0,0-3.49,2.016V84.57a2.326,2.326,0,0,0,3.49,2.014l20.789-12A2.326,2.326,0,0,0,104.164,70.553Z" transform="translate(12.218 7.086)" fill="#030504" opacity="0.06"/>
    </g>
    <g id="Group_6152" data-name="Group 6152" transform="translate(168.131 182.385)">
      <g id="Group_6149" data-name="Group 6149" transform="translate(45.475 55.708)">
        <path id="Path_15776" data-name="Path 15776" d="M336.437,131.844H126.3a125.322,125.322,0,0,1,0,37.444H336.437a18.722,18.722,0,0,0,0-37.444Z" transform="translate(-114.159 -122.712)" fill="#fff"/>
        <g id="Group_6148" data-name="Group 6148">
          <path id="Path_15777" data-name="Path 15777" d="M342.8,183.208H120.524v-9.132H342.8a18.722,18.722,0,0,0,0-37.444H120.524V127.5H342.8a27.854,27.854,0,0,1,0,55.708Z" transform="translate(-120.524 -127.5)" fill="#2b8d7b"/>
        </g>
        <path id="Path_15778" data-name="Path 15778" d="M336.437,131.844H126.3a117.052,117.052,0,0,1,1.28,13.09H336.437a18.738,18.738,0,0,1,17.518,12.176,18.674,18.674,0,0,0-17.518-25.266Z" transform="translate(-114.159 -122.712)" fill="#030504" opacity="0.1"/>
        <path id="Path_15779" data-name="Path 15779" d="M155.761,153.945l-6.614-3.272-6.614,3.272V140.717h13.228Z" transform="translate(-96.266 -112.932)" fill="#2b8d7b"/>
      </g>
      <path id="Path_15780" data-name="Path 15780" d="M120.524,136.632h12.14c.2,1.268.37,2.573.53,3.893.05.412.095.83.141,1.247.107.98.2,1.972.284,2.977.036.427.078.849.109,1.282.221,3.015.343,6.128.343,9.323a121.432,121.432,0,0,1-1.406,18.722h-12.14v9.132H269.471L325.18,127.5H120.524Z" transform="translate(-75.049 -71.792)" fill="#030504" opacity="0.1"/>
      <g id="Group_6151" data-name="Group 6151">
        <path id="Path_15781" data-name="Path 15781" d="M121.958,105.344H332.1a125.325,125.325,0,0,0,0,37.444H121.958a18.722,18.722,0,1,1,0-37.444Z" transform="translate(-94.104 -96.212)" fill="#fff"/>
        <g id="Group_6150" data-name="Group 6150">
          <path id="Path_15782" data-name="Path 15782" d="M126.746,156.708H349.022v-9.132H126.746a18.722,18.722,0,1,1,0-37.444H349.022V101H126.746a27.854,27.854,0,1,0,0,55.708Z" transform="translate(-98.892 -101)" fill="#eab54e"/>
        </g>
        <path id="Path_15783" data-name="Path 15783" d="M121.958,105.344H332.1a117.054,117.054,0,0,0-1.282,13.09H121.958a18.736,18.736,0,0,0-17.518,12.176,18.669,18.669,0,0,1,17.518-25.266Z" transform="translate(-94.104 -96.212)" fill="#030504" opacity="0.1"/>
        <path id="Path_15784" data-name="Path 15784" d="M205.3,127.478l-6.614-3.272-6.614,3.272V114.25H205.3Z" transform="translate(3.815 -86.396)" fill="#eab54e"/>
      </g>
    </g>
    <g id="Group_6154" data-name="Group 6154" transform="translate(292.017 123.251)">
      <path id="Path_15785" data-name="Path 15785" d="M272.176,203.663l-95.1,13.681L157.823,83.493l73.829-10.621,24.4,18.705Z" transform="translate(-157.823 -72.87)" fill="#2b8d7b"/>
      <rect id="Rectangle_1731" data-name="Rectangle 1731" width="68.026" height="8.355" transform="matrix(0.99, -0.142, 0.142, 0.99, 17.612, 28.206)" fill="#3db197"/>
      <rect id="Rectangle_1732" data-name="Rectangle 1732" width="68.026" height="8.355" transform="matrix(0.99, -0.142, 0.142, 0.99, 20.45, 47.927)" fill="#3db197"/>
      <rect id="Rectangle_1733" data-name="Rectangle 1733" width="68.026" height="8.355" transform="translate(23.287 67.649) rotate(-8.186)" fill="#3db197"/>
      <rect id="Rectangle_1734" data-name="Rectangle 1734" width="68.026" height="8.355" transform="translate(26.124 87.37) rotate(-8.187)" fill="#3db197"/>
      <path id="Path_15786" data-name="Path 15786" d="M217.315,91.43,196.6,93.76l-3.655-20.89Z" transform="translate(-119.109 -72.871)" fill="#217861"/>
      <g id="Group_6153" data-name="Group 6153" transform="translate(66.162 97.673)">
        <path id="Path_15787" data-name="Path 15787" d="M217.961,164.2l-9.695-5.957-8.3,8.546-4.539-31.547,18-2.589Z" transform="translate(-182.54 -104.651)" fill="#e0583d"/>
        <path id="Path_15788" data-name="Path 15788" d="M207.894,120.634l3.448-1.091a4.5,4.5,0,0,1,4.08.7l2.878,2.186a4.5,4.5,0,0,0,1.3.685l3.429,1.142a4.5,4.5,0,0,1,2.886,2.97l1.045,3.46a4.508,4.508,0,0,0,.65,1.318l2.1,2.939a4.5,4.5,0,0,1,.589,4.1l-1.188,3.414a4.518,4.518,0,0,0-.25,1.446l-.027,3.614a4.5,4.5,0,0,1-1.932,3.664l-2.968,2.062a4.509,4.509,0,0,0-1.053,1.024l-2.146,2.907a4.5,4.5,0,0,1-3.717,1.829l-3.614-.076a4.544,4.544,0,0,0-1.453.208l-3.445,1.091a4.5,4.5,0,0,1-4.08-.706l-2.88-2.184a4.475,4.475,0,0,0-1.3-.685l-3.429-1.141a4.5,4.5,0,0,1-2.886-2.97l-1.045-3.46a4.554,4.554,0,0,0-.647-1.318l-2.1-2.939a4.505,4.505,0,0,1-.591-4.1l1.19-3.414a4.517,4.517,0,0,0,.25-1.446l.027-3.614a4.5,4.5,0,0,1,1.932-3.664l2.968-2.062a4.542,4.542,0,0,0,1.051-1.024l2.146-2.907a4.506,4.506,0,0,1,3.717-1.829l3.614.076A4.535,4.535,0,0,0,207.894,120.634Z" transform="translate(-189.296 -119.333)" fill="#f28f48"/>
        <path id="Path_15789" data-name="Path 15789" d="M219.7,134.3a13.6,13.6,0,1,1-15.4-11.524A13.6,13.6,0,0,1,219.7,134.3Z" transform="translate(-185.613 -115.688)" fill="#fff"/>
      </g>
    </g>
  </g>
</svg>
