<svg xmlns="http://www.w3.org/2000/svg" width="576.807" height="275.957" viewBox="0 0 576.807 275.957">
  <g id="Group_5876" data-name="Group 5876" transform="translate(-48.111 -57.684)">
    <g id="Group_5864" data-name="Group 5864" transform="translate(564.268 137.634)">
      <path id="Path_15383" data-name="Path 15383" d="M290.419,88.057s21.379,60.1,12.1,99.912c-3.151,13.511-8.478,22.9-14.146,29.415a23.9,23.9,0,0,1-40.315-7.118c-3.093-8.057-4.885-18.707-3.217-32.482C249.751,137.2,290.419,88.057,290.419,88.057Z" transform="translate(-244.202 -88.057)" fill="#244854"/>
      <path id="Path_15384" data-name="Path 15384" d="M270.345,194.271q.746-4.166,1.487-8.334-12.445-9.6-24.9-19.194c.082-.324.166-.645.253-.966l24.825,19.139,1.408-7.881q-11.762-9.366-24.314-17.668c.1-.3.2-.595.3-.895q12.481,8.232,24.2,17.536.675-3.783,1.35-7.57l-23.037-16.773c.116-.292.234-.587.353-.879q11.431,8.323,22.864,16.649.711-3.972,1.416-7.939-10.068-8.746-20.829-16.644c.129-.282.263-.563.395-.848q10.641,7.8,20.624,16.438.726-4.087,1.458-8.176-9.152-7.731-18.936-14.648c.139-.274.282-.55.424-.821q9.65,6.811,18.7,14.427.592-3.328,1.187-6.657-7.984-7.316-16.6-13.877c.15-.271.3-.542.453-.811q8.469,6.44,16.336,13.619.727-4.059,1.448-8.115a87.072,87.072,0,0,0-13.8-12.345c.158-.263.316-.524.476-.787a88.248,88.248,0,0,1,13.527,12l.492-2.764a.472.472,0,0,1,.087-.479l.355-2A45.12,45.12,0,0,0,270.266,116.4c.163-.261.324-.519.487-.777a46.221,46.221,0,0,1,11.806,10.195l1.087-6.083a90.208,90.208,0,0,0-9.729-9c.169-.258.34-.513.508-.769a90.171,90.171,0,0,1,9.418,8.657l1.011-5.654q-3.5-2.74-6.994-5.478-.58-.45-1.161-.9c.174-.253.345-.505.516-.753.571.447,1.15.884,1.716,1.329q3.052,2.389,6.1,4.78.426-2.393.853-4.783-2.685-2.973-5.617-5.7l.537-.753q2.744,2.551,5.283,5.314.5-2.791,1-5.583-1.729-1.789-3.614-3.4l.547-.742q1.694,1.453,3.264,3.038l.6-3.367-2.024-2.119c.192-.253.379-.5.561-.737l1.664,1.74q.446-2.515.9-5.033c.905-1.142,1.414-1.756,1.414-1.756s.258.729.708,2.077l-1,5.612a20.591,20.591,0,0,1,2.237-1.771c.092.3.19.6.287.919a19.712,19.712,0,0,0-2.8,2.406l-.7,3.917a31.476,31.476,0,0,1,4.4-3.372c.089.3.179.6.271.913a29.842,29.842,0,0,0-4.6,3.646.465.465,0,0,1-.308.134q-.644,3.6-1.284,7.2,3.751-2.973,7.7-5.672c.087.311.171.624.258.937q-4.213,2.894-8.2,6.1l-1.158,6.481q5.224-4.008,10.637-7.744c.079.313.161.629.242.948q-5.666,3.921-11.116,8.136-.711,3.968-1.419,7.941,6.736-5.536,13.88-10.537c.074.321.15.642.224.966q-7.391,5.2-14.354,10.971l-.934,5.236,16.728-9.605c.066.313.129.629.195.945q-8.568,4.92-17.131,9.837l-1.814,10.155a226.914,226.914,0,0,1,19.992-14.548c.058.326.116.653.176.982A226.352,226.352,0,0,0,281.1,146.224l-1.658,9.3q11.825-7.1,23.656-14.185c.045.329.087.661.132.99l-24,14.393-.632,3.543-.769,4.314,26.225-15c.032.334.063.669.092,1l-26.528,15.172-1.187,6.654q14.151-6.381,28.3-12.758c.013.329.024.661.034.99l-28.37,12.79a.4.4,0,0,1-.153.039q-.849,4.754-1.7,9.508l30.252-14.656c-.008.345-.016.69-.026,1.032l-30.426,14.738q-.636,3.561-1.269,7.125L303.89,180.27q-.067.513-.142,1.027-15.434,5.48-30.863,10.958l-1.353,7.586a282.979,282.979,0,0,0,30.237-8.971c-.1.363-.2.727-.3,1.084a281.848,281.848,0,0,1-30.11,8.863q-1.1,6.155-2.2,12.306,13.76-3.222,27.159-7.728-.3.6-.611,1.177-13.1,4.355-26.562,7.494a.45.45,0,0,1-.155.011l-.924,5.178q11.091-2.093,22.179-4.183c-.29.371-.579.74-.871,1.1q-10.74,2.026-21.482,4.054-.454,2.562-.913,5.122-1.062-.15-2.108-.395l.253-1.421L248.89,212.23c-.253-.524-.492-1.061-.713-1.614L265.3,222.535l.816-4.583-20.139-14.272q-.162-.663-.311-1.345,10.313,7.312,20.629,14.622.632-3.553,1.266-7.1Q256,201.961,244.431,194.07q-.047-.58-.087-1.169l23.4,15.965,1.106-6.2.032-.171a288.706,288.706,0,0,0-24.664-16.757c.01-.347.021-.7.037-1.05a289.767,289.767,0,0,1,24.806,16.794l.142-.795a.4.4,0,0,1,.032-.168q.462-2.6.927-5.193-12.023-10.578-25.006-19.971c.053-.34.108-.676.163-1.016Q258.3,183.7,270.345,194.271Z" transform="translate(-244.18 -88.057)" fill="#30616d"/>
    </g>
    <g id="Group_5865" data-name="Group 5865" transform="translate(48.712 137.634)">
      <path id="Path_15385" data-name="Path 15385" d="M62.773,88.057s-21.379,60.1-12.1,99.912c3.151,13.511,8.478,22.9,14.146,29.415a23.9,23.9,0,0,0,40.315-7.118c3.093-8.057,4.885-18.707,3.217-32.482C103.441,137.2,62.773,88.057,62.773,88.057Z" transform="translate(-48.34 -88.057)" fill="#244854"/>
      <path id="Path_15386" data-name="Path 15386" d="M82.8,194.271q-.746-4.166-1.487-8.334,12.445-9.6,24.9-19.194c-.082-.324-.166-.645-.253-.966L81.133,184.916l-1.408-7.881q11.762-9.366,24.314-17.668c-.1-.3-.2-.595-.3-.895q-12.481,8.232-24.2,17.536-.675-3.783-1.35-7.57l23.037-16.773c-.116-.292-.234-.587-.353-.879q-11.43,8.323-22.864,16.649Q77.3,163.463,76.6,159.5q10.072-8.746,20.829-16.644c-.129-.282-.263-.563-.395-.848q-10.641,7.8-20.624,16.438-.727-4.087-1.458-8.176,9.152-7.731,18.936-14.648c-.14-.274-.282-.55-.424-.821q-9.65,6.811-18.7,14.427-.592-3.328-1.187-6.657,7.984-7.316,16.6-13.877c-.15-.271-.3-.542-.453-.811q-8.469,6.44-16.336,13.619-.726-4.059-1.448-8.115a87.069,87.069,0,0,1,13.8-12.345l-.474-.787a88.146,88.146,0,0,0-13.53,12l-.492-2.764a.466.466,0,0,0-.087-.479l-.355-2A45.12,45.12,0,0,1,82.881,116.4c-.163-.261-.324-.519-.487-.777a46.222,46.222,0,0,0-11.806,10.195L69.5,119.731a90.448,90.448,0,0,1,9.729-9c-.168-.258-.34-.513-.508-.769a90.176,90.176,0,0,0-9.418,8.657l-1.011-5.654q3.5-2.74,6.994-5.478.58-.45,1.161-.9c-.174-.253-.345-.505-.516-.753-.571.447-1.15.884-1.716,1.329q-3.052,2.389-6.1,4.78l-.853-4.783q2.685-2.973,5.617-5.7l-.537-.753q-2.744,2.551-5.283,5.314-.5-2.791-1-5.583,1.729-1.789,3.614-3.4l-.548-.742q-1.694,1.453-3.264,3.038l-.6-3.367,2.024-2.119c-.192-.253-.379-.5-.561-.737l-1.664,1.74q-.446-2.515-.9-5.033c-.905-1.142-1.413-1.756-1.413-1.756s-.258.729-.708,2.077l1,5.612a20.878,20.878,0,0,0-2.24-1.771c-.092.3-.19.6-.287.919a19.715,19.715,0,0,1,2.8,2.406l.7,3.917a31.477,31.477,0,0,0-4.4-3.372c-.089.3-.179.6-.271.913a29.843,29.843,0,0,1,4.6,3.646.465.465,0,0,0,.308.134q.644,3.6,1.285,7.2-3.751-2.973-7.7-5.672c-.087.311-.171.624-.258.937q4.213,2.894,8.2,6.1l1.158,6.481q-5.224-4.008-10.637-7.744c-.079.313-.161.629-.242.948q5.666,3.921,11.116,8.136.711,3.968,1.419,7.941-6.736-5.536-13.88-10.537c-.074.321-.15.642-.224.966q7.391,5.2,14.354,10.971l.934,5.236-16.728-9.605c-.066.313-.129.629-.195.945q8.568,4.92,17.131,9.837L71.8,144.832a227.262,227.262,0,0,0-19.989-14.548c-.061.326-.118.653-.179.982a226.354,226.354,0,0,1,20.416,14.959l1.658,9.3q-11.825-7.1-23.656-14.185c-.045.329-.087.661-.132.99l24,14.393.632,3.543.769,4.314-26.225-15c-.032.334-.063.669-.092,1l26.528,15.172,1.187,6.654q-14.151-6.381-28.3-12.758c-.013.329-.024.661-.034.99l28.37,12.79a.4.4,0,0,0,.153.039q.849,4.754,1.7,9.508L48.354,168.319c.008.345.016.69.026,1.032l30.426,14.738q.636,3.561,1.271,7.125L49.257,180.27q.067.513.142,1.027,15.434,5.48,30.863,10.958l1.353,7.586a282.975,282.975,0,0,1-30.237-8.971c.1.363.2.727.3,1.084a281.849,281.849,0,0,0,30.11,8.863q1.1,6.155,2.2,12.306-13.756-3.222-27.159-7.728.3.6.611,1.177,13.1,4.355,26.562,7.494a.45.45,0,0,0,.155.011l.924,5.178Q73.988,217.16,62.9,215.07c.29.371.579.74.871,1.1q10.74,2.026,21.482,4.054.454,2.562.913,5.122,1.062-.15,2.108-.395l-.253-1.421,16.236-11.295c.253-.524.492-1.061.713-1.614L87.843,222.535l-.816-4.583,20.139-14.272q.162-.663.311-1.345-10.313,7.312-20.629,14.622-.632-3.553-1.266-7.1,11.569-7.893,23.135-15.783.047-.58.087-1.169l-23.4,15.965-1.106-6.2-.032-.171a288.713,288.713,0,0,1,24.664-16.757c-.011-.347-.021-.7-.037-1.05a289.762,289.762,0,0,0-24.806,16.794l-.142-.795a.4.4,0,0,0-.032-.168q-.462-2.6-.927-5.193Q95.012,184.748,108,175.355c-.053-.34-.108-.676-.163-1.016Q94.846,183.7,82.8,194.271Z" transform="translate(-48.317 -88.057)" fill="#30616d"/>
    </g>
    <g id="Group_5866" data-name="Group 5866" transform="translate(61.087 77.339)">
      <path id="Path_15387" data-name="Path 15387" d="M138.963,170.877v-36.6h50.1v36.6h23.882V210.59H189.062v37.122h-50.1V210.59H53.041V174.768l55.03-109.025h51.658L108.071,170.877Z" transform="translate(-53.041 -64.185)" fill="#e0583d"/>
      <path id="Path_15388" data-name="Path 15388" d="M286.1,157.564c0,59.7-29.594,92.673-82.031,92.673-53.213,0-82.289-32.969-82.289-92.673,0-59.444,29.076-92.413,82.289-92.413C256.5,65.151,286.1,98.12,286.1,157.564Zm-109.027,0c0,38.939,7.531,53.474,27,53.474,18.949,0,26.48-14.535,26.48-53.474s-7.531-53.213-26.48-53.213C184.6,104.35,177.068,118.628,177.068,157.564Z" transform="translate(59.149 -65.151)" fill="#e0583d"/>
      <path id="Path_15389" data-name="Path 15389" d="M279.786,170.877v-36.6h50.1v36.6h23.882V210.59H329.885v37.122h-50.1V210.59H193.864V174.768L248.9,65.743h51.658L248.9,170.877Z" transform="translate(176.816 -64.185)" fill="#e0583d"/>
    </g>
    <g id="Group_4884" data-name="Group 4884" transform="translate(48.111 151.743)">
      <path id="Path_10384" data-name="Path 10384" d="M89.271,221.254c4.467-9.537,25.938-14.848,22.614-26.667s-21.037,8.26-20.25,3.03,23.566-16.246,18.023-27c-4.6-8.91-14.859,1.943-17.225,2.4s13.535-12.387,10.705-17.433S93,155.032,90.171,157.925s9.692-17.328,4.814-22.8-12.261,12.972-12.869,6.812S90.1,121.071,84.1,118.215s-7.594,6.654-10.426,9.552-1.6-12.408-7.841-23.253S46.968,88.781,49.234,99.1s16.486,25.712,13.411,28.239-15.335-10.224-13.161,1.35,20.816,13.606,16.07,18-12.961-.829-12.153,5.375,19.315,7.523,16.809,10.805-5.328,2.856-15.83,2.106c-10.1-.719-7.5,13.027,4.238,14.551s19.084,5.617,13.775,6.4-11.271,1.134-16.473,2.24c-11.777,2.5-9.976,12.5,3.83,15.42s23.632,6.889,16.057,6.241-24.964,1.082-13.161,5.8S89.271,221.254,89.271,221.254Z" transform="translate(-48.111 -93.417)" fill="#297c68"/>
      <path id="Path_15390" data-name="Path 15390" d="M102.057,189.394l0-1c-7.839.013-12.148,2.985-14.385,5.478a13.918,13.918,0,0,0-3.017,5.428q-.17-1.342-.347-2.669h.005l-.011-.037q-.612-4.556-1.313-8.95l.011,0c-.447-2.961.716-9.26,4.706-13.985a17.087,17.087,0,0,1,13.335-6.094l-.016-1a18.284,18.284,0,0,0-14.085,6.449,22.039,22.039,0,0,0-4.709,10.074q-.719-4.193-1.506-8.213l.021,0c-.05-.261-.105-.513-.168-.758q-.3-1.528-.611-3.032c.134-.742,3.485-18.363,14.369-21.011l-.237-.971c-4.862,1.182-9.023,5.349-12.032,12.053a46.4,46.4,0,0,0-2.6,7.549q-.908-4.268-1.872-8.32h.021a10.251,10.251,0,0,0-.808-3.259l-.055-.229h.024c-.013-.211-1.063-20.832,10.284-25.127l-.355-.937c-5.007,1.9-8.484,7.033-10.053,14.862a48.65,48.65,0,0,0-.863,7.394q-1.4-5.409-2.838-10.35l.039-.013c-.176-.637-.376-1.25-.587-1.856-.271-.908-.54-1.808-.808-2.693h.026c-.011-.19-1.008-18.892,7.265-23.882l-.519-.858c-6.639,4-7.694,15.657-7.794,21.458C63.4,112.156,56.646,98.99,56.519,98.75l-.887.461c.124.242,6.881,13.424,14.054,36.177-3.188-4.733-8.526-8.963-18.012-14.746l-.521.855c13.751,8.381,18.057,13.3,20.229,19.429q1.8,6.065,3.567,12.885c-2.7-3.7-8.123-8.013-19.052-10.3l-.205.982c10.6,2.216,15.728,6.436,18.162,9.584a14.81,14.81,0,0,1,2.056,3.564q1.528,6.231,2.943,13.011c-3.4-4.117-11.205-5.762-25.554-8.781l-2.419-.511-.208.982,2.422.511c17.362,3.654,24.89,5.241,26.515,11.516,1.227,6.228,2.351,12.777,3.322,19.615-3.6-4.109-13.925-7.139-32.434-9.613l-.134.992c31.055,4.154,32.566,9.513,32.95,11.379q.565,4.193,1.045,8.528c-1.429-.753-4.32-.824-9.834-.948-3.369-.076-7.984-.179-13.919-.471l-.05,1c5.949.292,10.571.4,13.946.474,8.215.184,9.86.279,10.074,1.924.187,1.766.363,3.543.529,5.341l1-.09q-.241-2.665-.521-5.28l0,0-.011-.058q-.186-1.753-.384-3.482l.005,0a12.241,12.241,0,0,1,3.227-9.142C91.428,191.181,96.145,189.4,102.057,189.394Z" transform="translate(-44.441 -84.713)" fill="#1d5041"/>
    </g>
    <g id="Group_5867" data-name="Group 5867" transform="translate(72.49 179.984)">
      <path id="Path_15391" data-name="Path 15391" d="M94.006,104.146s-31.042,34.54-35.82,63.916c-1.624,9.971-.637,17.77,1.374,23.724a17.4,17.4,0,0,0,29.115,6.375c4.317-4.57,8.471-11.242,11.163-20.979C107.775,148.5,94.006,104.146,94.006,104.146Z" transform="translate(-57.373 -104.146)" fill="#afddd5"/>
      <path id="Path_15392" data-name="Path 15392" d="M78,181.213q.651-3.013,1.306-6.025,11.04-3.013,22.079-6.028c.034-.24.066-.479.1-.719L79.462,174.45l1.237-5.7q10.514-3.048,21.263-5.159c.016-.229.032-.458.047-.684q-10.684,2.085-21.15,5.1.592-2.736,1.187-5.472l20.158-4.912c0-.229.005-.458.005-.69q-10,2.44-20.005,4.875l1.245-5.736q9.2-3.1,18.636-5.436l-.032-.679q-9.326,2.3-18.439,5.354L84.9,149.41q8.3-2.669,16.807-4.617c-.018-.224-.037-.447-.058-.671q-8.382,1.915-16.586,4.535.521-2.408,1.045-4.812,7.4-2.716,15.02-4.746l-.079-.671q-7.486,1.99-14.772,4.646l1.271-5.867a63.529,63.529,0,0,1,12.714-4.488l-.1-.661a64.133,64.133,0,0,0-12.432,4.333l.432-2a.337.337,0,0,0,.076-.345l.313-1.448a32.893,32.893,0,0,1,11.074-3.8c-.037-.221-.076-.44-.113-.658a33.716,33.716,0,0,0-10.774,3.593l.956-4.4a65.39,65.39,0,0,1,9.044-3.367c-.042-.221-.087-.442-.129-.661a66.017,66.017,0,0,0-8.742,3.219l.887-4.085,6.228-1.75c.342-.095.687-.19,1.029-.287-.045-.218-.092-.434-.137-.65-.508.145-1.019.279-1.524.421q-2.716.762-5.436,1.527l.75-3.456q2.634-1.26,5.362-2.282c-.05-.221-.1-.44-.153-.655q-2.555.959-5.03,2.116l.877-4.035q1.658-.727,3.375-1.29c-.055-.221-.111-.437-.163-.65q-1.544.505-3.038,1.14l.529-2.432,1.948-.866c-.058-.224-.116-.442-.174-.653l-1.6.711.79-3.635c-.295-1.021-.466-1.574-.466-1.574s-.376.419-1.053,1.2l-.879,4.054a14.86,14.86,0,0,0-1.019-1.811c-.142.174-.292.353-.445.537a14.349,14.349,0,0,1,1.219,2.4l-.613,2.83a22.948,22.948,0,0,0-2.027-3.488c-.142.176-.287.355-.434.54a21.924,21.924,0,0,1,2.085,3.727.335.335,0,0,0,.168.176l-1.129,5.2q-1.7-3.04-3.614-5.952c-.145.184-.287.371-.434.561q2.033,3.115,3.835,6.378l-1.016,4.683q-2.409-4.146-5.017-8.16c-.142.19-.282.379-.426.571q2.728,4.209,5.233,8.555L87.1,131.892q-3-5.591-6.425-10.94c-.14.195-.279.392-.419.59q3.538,5.548,6.625,11.363l-.821,3.783q-4.3-5.547-8.6-11.1l-.392.582q4.406,5.686,8.81,11.369l-1.593,7.339a166.023,166.023,0,0,0-9.429-15.333l-.392.613a165.252,165.252,0,0,1,9.6,15.725l-1.461,6.723q-6-8.051-12-16.1l-.363.632q6.088,8.169,12.174,16.336l-.555,2.564-.676,3.117-13.5-17.365-.34.65Q74.174,151.216,81,160l-1.045,4.806L64.44,148.378c-.1.218-.2.437-.3.658L79.7,165.506a.348.348,0,0,0,.092.068l-1.492,6.87L61.99,154.2c-.089.234-.179.469-.266.7l16.4,18.352q-.561,2.574-1.119,5.149-8.856-7.952-17.718-15.907c-.066.245-.126.487-.187.732q8.868,7.964,17.741,15.928l-1.19,5.48a205.147,205.147,0,0,1-17.87-14.414c-.037.271-.071.545-.1.813A205.843,205.843,0,0,0,75.5,185.34q-.963,4.446-1.929,8.892Q65.2,188.254,57.428,181.5c.024.324.053.645.084.961q7.612,6.562,15.807,12.406a.369.369,0,0,0,.1.05l-.813,3.743q-6.886-4.481-13.775-8.963.138.5.284.979l13.34,8.678-.805,3.7q.758.193,1.532.318l.221-1.027,14.061-3.109q.474-.422.927-.887-7.415,1.639-14.833,3.28l.719-3.311,17.515-4.033c.195-.266.387-.54.582-.816q-8.971,2.061-17.939,4.127l1.113-5.133q9.974-2.108,19.95-4.219c.126-.25.255-.5.382-.761L75.706,191.76l.971-4.48.026-.124a210.427,210.427,0,0,1,21.247-4.451c.089-.237.179-.474.266-.716a210.772,210.772,0,0,0-21.353,4.435l.124-.577a.246.246,0,0,0,.026-.121l.816-3.751q11.024-3.794,22.366-6.523c.058-.242.116-.484.171-.729Q89.036,177.433,78,181.213Z" transform="translate(-57.283 -104.146)" fill="#86bec4"/>
    </g>
    <path id="Path_15393" data-name="Path 15393" d="M274.262,163.36c.06-.09.118-.182.176-.274l.026-.042c.055-.087.111-.176.163-.266l.018-.032c.055-.095.108-.187.161-.282l.032-.058.15-.279.026-.05c.047-.1.1-.192.145-.29l0-.008c.047-.1.092-.195.137-.295l.024-.05c.042-.095.084-.19.124-.284l.021-.055q.063-.146.118-.292l.008-.018c.037-.095.074-.192.108-.29l.013-.037c.034-.1.068-.195.1-.29l.016-.053c.032-.095.063-.192.092-.29l.008-.029c.029-.1.058-.195.084-.292l.005-.016c.026-.1.05-.2.074-.295l.01-.042c.024-.1.047-.192.066-.287l.008-.034c.042-.2.079-.395.108-.587l.005-.032c.016-.095.029-.187.039-.282l.005-.032c.024-.192.042-.384.055-.569v-.016c.005-.092.01-.184.013-.274l0-.026c0-.089,0-.179,0-.268v0c0-.184-.005-.361-.018-.534v-.018c-.005-.084-.013-.168-.024-.25v-.008c-.018-.168-.042-.329-.074-.484l0-.01c-.013-.076-.032-.15-.05-.224v-.011a4.363,4.363,0,0,0-.208-.626l0-.011a2.9,2.9,0,0,0-.29-.521l0-.005c-.037-.053-.076-.1-.113-.15h0a1.974,1.974,0,0,0-.255-.258l0,0a1.722,1.722,0,0,0-.139-.1l-.005-.005a2.468,2.468,0,0,0-2.714.255c-5.27,3.1-6.51,10.863-6.791,13.748q-.837-1.639-1.732-3.253-.608-1.1-1.229-2.193l-.582-1.013c-1.542-2.685-3.119-5.351-4.622-8.06l.139-.024c.124-.021.247-.042.371-.066.071-.013.142-.029.213-.045.111-.024.221-.047.329-.074.074-.016.147-.034.221-.053.105-.026.208-.053.308-.082l.221-.063c.1-.029.2-.058.3-.09l.216-.071c.1-.032.192-.066.287-.1.071-.024.139-.05.208-.076.1-.037.192-.074.287-.113.066-.024.132-.05.195-.079.1-.039.195-.084.292-.126.058-.026.118-.053.174-.079.111-.05.216-.105.324-.158l.129-.063q.225-.114.442-.237l.029-.016c.134-.076.266-.153.395-.232l.134-.084c.095-.061.187-.118.279-.179l.153-.1c.082-.055.163-.113.245-.171l.155-.113c.079-.055.155-.113.232-.171l.153-.121c.074-.058.147-.116.218-.176l.15-.124c.071-.061.142-.121.211-.182l.142-.126c.068-.066.14-.129.208-.195l.129-.124c.071-.068.142-.139.213-.211l.111-.113q.122-.126.237-.253l.074-.079c.1-.113.2-.226.3-.342l.037-.042c.082-.1.166-.2.245-.3l.092-.116c.061-.076.121-.155.179-.234l.1-.137c.053-.071.105-.145.155-.218l.1-.145.142-.213.1-.153c.045-.071.089-.139.132-.211l.095-.155.124-.211.087-.155c.039-.074.079-.145.118-.216l.079-.153c.039-.074.076-.15.116-.226l.068-.142c.042-.084.082-.171.121-.255l.05-.111c.055-.121.108-.242.155-.363l.05-.121.095-.245.058-.155c.024-.068.05-.14.074-.208l.055-.168c.021-.063.042-.126.061-.19l.053-.174.053-.184.047-.176.045-.176.042-.176.037-.171.037-.176.029-.163c.011-.061.021-.121.032-.179l.021-.153c.008-.061.018-.124.026-.184l.013-.132c.026-.237.039-.471.047-.695l0-.111c0-.063,0-.124,0-.184l0-.118-.008-.176-.008-.113c-.005-.058-.01-.116-.016-.171l-.013-.111q-.008-.083-.024-.166l-.016-.1c-.011-.055-.021-.111-.032-.163L269,139.2l-.039-.158-.024-.082c-.016-.055-.032-.108-.05-.161l-.024-.063c-.021-.055-.039-.111-.063-.163l0-.008a2.964,2.964,0,0,0-.292-.534l-.024-.034a1.349,1.349,0,0,0-.095-.118l-.039-.05c-.032-.034-.063-.068-.1-.1l-.047-.047c-.034-.032-.068-.061-.1-.09l-.055-.047c-.037-.026-.074-.053-.111-.076l-.061-.04c-.037-.024-.076-.045-.116-.066l-.066-.032c-.039-.018-.082-.039-.124-.055l-.066-.024c-.045-.016-.089-.032-.137-.045l-.058-.013a3.078,3.078,0,0,0-1.761.168c-5.586,2.011-7.868,11.771-8.452,14.822-1.024-1.872-2.008-3.767-2.919-5.7h0l-.037-.076-.082-.174v-.008l-.511-1.119a62.725,62.725,0,0,1-2.782-7.562c.3-.108.692-.255,1.158-.448l.15-.061c.2-.087.416-.179.642-.279l.171-.079c.126-.058.255-.118.39-.179.095-.047.19-.092.287-.139l.226-.111c.25-.126.508-.261.769-.4.132-.071.263-.145.4-.221a20.18,20.18,0,0,0,4.985-3.835l0-.005c.071-.079.142-.158.211-.237l.063-.071.158-.182.053-.066c.068-.079.134-.161.2-.24l.034-.042c.053-.068.105-.134.155-.2l.055-.074c.05-.063.1-.129.145-.192l.037-.053c.058-.079.116-.158.171-.24l.039-.055.126-.19.045-.068c.047-.074.095-.147.14-.221l.013-.018c.05-.082.1-.161.142-.24l.037-.061c.034-.063.071-.126.105-.187l.032-.058c.042-.079.084-.158.124-.237l.005-.008c.039-.076.074-.15.111-.224l.026-.055c.032-.066.06-.132.089-.195l.016-.039c.034-.076.066-.153.1-.229l.008-.026c.026-.066.053-.134.076-.2l.016-.047c.026-.071.05-.139.074-.211v-.005c.024-.076.047-.15.066-.224l.008-.026c.018-.066.034-.126.047-.19l.008-.032a4.181,4.181,0,0,0,.074-.413l0-.024c.008-.063.016-.124.018-.182l0-.016a3.015,3.015,0,0,0,0-.376v-.021a2.427,2.427,0,0,0-.045-.345h0c-.013-.055-.026-.108-.042-.158l0-.013a1.583,1.583,0,0,0-.121-.292l0-.008c-.024-.042-.05-.084-.076-.124l-.005-.008a1.616,1.616,0,0,0-.2-.229l-.01-.008c-.608-.553-1.782-.619-3.6.084-4.333,1.669-7.2,8.818-8.17,11.616a62.235,62.235,0,0,1-1.556-7.118l-.208-1.411q-.095-.7-.174-1.4-.312-2.8-.371-5.625l.3-.074.182-.045c.126-.032.266-.068.413-.108.445-.116.987-.263,1.624-.447.213-.061.434-.126.666-.195l.358-.108c1.213-.366,2.68-.834,4.377-1.427.082-.026.161-.058.24-.087l.079-.032.161-.061.092-.039.145-.061.1-.042.137-.063.1-.045.137-.066.095-.047.137-.068.09-.047.145-.076.082-.045.174-.1.045-.029c.074-.042.147-.084.218-.129l.061-.039.153-.095.082-.053.129-.087.087-.058.118-.084.089-.063.116-.084.087-.066.113-.084.084-.066.113-.092.079-.063.121-.1.068-.058c.061-.053.121-.1.179-.155l.058-.053.121-.111.076-.074.1-.092.079-.079.089-.09.082-.082.084-.087.079-.087.079-.084.079-.087.074-.087.076-.089.071-.084.076-.092.063-.082c.053-.066.105-.132.155-.2l.047-.063.076-.105.053-.074.071-.105.05-.074.068-.105.047-.076.066-.105.045-.074.063-.108.037-.068.063-.116.032-.058.063-.124.016-.034c.076-.153.145-.308.205-.463l.011-.024.05-.132.016-.047.042-.126.018-.053.037-.124.013-.05.034-.126.01-.047.029-.126.008-.039.024-.137,0-.013a3.585,3.585,0,0,0,.047-.621v-.018l0-.132,0-.034-.01-.124-.005-.037-.016-.121-.005-.034-.024-.121-.008-.032c-.008-.042-.018-.084-.029-.124l-.005-.016a2.685,2.685,0,0,0-.224-.55h0c-.021-.039-.045-.079-.068-.116l-.013-.024-.071-.105-.021-.029-.074-.1-.026-.029-.082-.1-.026-.029c-.029-.032-.058-.063-.089-.092l-.024-.024a3.8,3.8,0,0,0-1.348-.816c-5.293-1.987-10.674,7.891-12.393,11.4a62.475,62.475,0,0,1,.632-9.092l.013-.013.163-1.121q.43-2.645,1.1-5.243l.047-.026c.1-.055.2-.113.3-.174l.034-.021c.095-.061.189-.121.284-.184l.029-.018c.095-.066.19-.132.282-.2l.053-.039c.089-.066.182-.137.268-.208l.047-.037c.092-.076.182-.153.271-.229l.01-.011c.087-.076.174-.155.258-.234l.042-.037c.082-.082.166-.161.247-.245l.047-.047c.079-.082.161-.166.24-.253l.032-.037c.079-.084.155-.171.232-.261l.018-.021c.076-.089.153-.184.229-.276l.039-.05c.074-.092.145-.184.216-.279l.039-.053.213-.292.013-.021c.068-.1.134-.195.2-.295l.029-.042c.066-.1.132-.2.195-.3l.037-.061c.063-.1.124-.2.184-.305l.029-.047c.061-.105.121-.211.179-.316l.008-.018c.061-.108.118-.216.176-.326l.029-.058c.055-.105.108-.213.161-.321l.032-.061c.053-.111.105-.221.155-.332l.016-.034c.05-.108.1-.218.145-.326l.018-.042c.047-.113.095-.224.14-.337l.026-.066c.045-.111.09-.224.132-.334l.021-.055c.045-.118.087-.234.129-.35v-.005c.042-.118.082-.237.121-.355l.018-.055c.039-.113.074-.226.111-.34l.018-.066c.037-.116.068-.232.1-.345l.01-.039c.032-.113.063-.226.092-.34l.01-.037c.029-.113.058-.229.087-.345l.016-.063.079-.34.01-.058c.026-.116.05-.234.074-.353l0-.005c.021-.116.045-.232.063-.347l.01-.053c.018-.111.037-.224.055-.334l.011-.061c.016-.111.032-.224.047-.334l.005-.039c.016-.111.029-.221.042-.332l0-.021c.01-.113.024-.224.032-.334l.005-.053c.01-.108.018-.213.026-.321l0-.05c.008-.111.013-.218.018-.326v-.011c.005-.105.008-.211.01-.316l0-.039c0-.1,0-.2,0-.305v-.05c0-.1,0-.2-.005-.3l0-.037c0-.1-.008-.2-.013-.3v-.008c-.005-.1-.013-.195-.021-.292l0-.039c-.008-.095-.018-.184-.029-.274l-.005-.042c-.01-.092-.021-.182-.034-.271l0-.013c-.013-.087-.029-.174-.045-.261l-.005-.024c-.016-.084-.032-.166-.05-.247l-.011-.037c-.018-.079-.037-.158-.058-.237l-.008-.026c-.042-.158-.092-.308-.145-.453l-.011-.026c-.026-.068-.053-.134-.082-.2l-.013-.026c-.029-.066-.06-.129-.092-.19l-.005-.011c-.032-.063-.066-.121-.1-.179l-.005-.011c-.034-.055-.071-.108-.108-.161l-.016-.021c-.037-.05-.074-.1-.113-.145l-.013-.016a1.772,1.772,0,0,0-.258-.25l-.016-.013c-.042-.034-.089-.066-.134-.1l-.021-.013a1.543,1.543,0,0,0-.145-.079l-.013-.005a1.545,1.545,0,0,0-.153-.063l-.008,0a1.609,1.609,0,0,0-.161-.045l-.024-.005a1.667,1.667,0,0,0-.166-.024l-.021,0a1.384,1.384,0,0,0-.182-.005h0a4.132,4.132,0,0,0-2.514,1.356c-5.767,5.407-3.777,13.182-2.856,15.849q-.691,2.661-1.14,5.38l-.161,1.008a64.008,64.008,0,0,0-.7,9.389c-1.464-3.519-5.567-12.045-10.837-11.674a3.346,3.346,0,0,0-2.73,1.248l-.008.013a2.3,2.3,0,0,0-.3.661l0,.011a2.988,2.988,0,0,0-.095.763v.011a4.132,4.132,0,0,0,.089.84l0,.016c.01.055.024.113.037.168v0a6.283,6.283,0,0,0,.219.713l.011.032.063.166.01.021c.071.176.15.355.237.534l.011.021.079.158.026.053.079.153.029.05c.09.166.187.332.287.5l.034.055.089.137.047.076.089.134.055.079.089.132.045.066c.058.082.118.163.179.242l.068.095.09.113.076.1.089.111.087.105.084.105.129.15.108.124.111.126.084.092.108.116.084.092.116.118.079.082c.063.063.126.126.192.19l.05.05.153.147.079.074.132.121.084.074.14.124.074.066c.071.061.142.121.213.179l.032.026c.063.053.126.1.19.153l.074.061.153.116.082.063.158.116.071.053.229.163.018.011c.071.05.142.1.216.145l.074.05.163.1.084.053.166.1.074.045.24.137.008,0,.234.126.074.039.171.084.084.042.171.079.076.034c.082.037.163.074.247.105a33.821,33.821,0,0,0,3.18,1.153c.25.076.487.142.711.2s.432.108.629.153c.295.066.558.116.8.153.082.011.158.024.232.032a7.04,7.04,0,0,0,.753.063c.053,0,.1,0,.15,0,.079,0,.147,0,.213-.008q.067,2.859.387,5.7l.187,1.477a63.411,63.411,0,0,0,1.632,8.039c-2.511-3-10.068-11.277-14.275-7.652-.179.155-.34.311-.484.463l0,0-.105.113-.005.008-.1.111-.008.008-.087.111-.008.011-.082.105-.01.013-.074.105-.008.013-.068.105-.008.013-.063.1-.008.016-.055.1-.008.016-.05.1-.008.013-.045.1-.005.016-.039.1-.005.013-.034.1-.005.016-.029.1,0,.016-.024.1-.005.016-.018.1v.013l-.016.1v.013l-.01.1v.011l0,.1v.121l.008.1v.008l.01.1,0,.005.016.105v0l.024.105v0a4.248,4.248,0,0,0,1.8,2.3h0l.121.087.005.005.121.084.011.005.121.082.01.008.124.076.013.011.124.076.018.011.121.074.021.013.124.071.024.013.124.071.026.013.124.068.029.016.124.066.032.016.126.063.032.016.126.063.034.018.126.061.037.018.126.061.039.016.129.061.037.016.132.058.039.018.132.055.042.018.132.055.042.018.134.055.042.016.134.053.045.018.137.053.042.016.14.053.045.016.139.053.042.016.142.05.045.016.142.05.042.013.147.05.042.013.15.05.039.013.153.047.034.011.158.05.029.008.166.05.018.005.179.053,0,0c.453.132.916.253,1.385.361l0,0,.166.037.037.011.15.032.055.013.139.032.063.013.134.026.074.016.126.026.079.016.121.024.084.016.118.024.087.016.118.021.087.016.118.018.089.016.113.018.092.016.113.018.092.016.111.016.095.013.108.016.1.016.1.013.1.013.105.013.1.013.1.013.1.011.1.013.1.011.1.011.1.01.1.011.1.011.1.01.1.008.1.008.1.008.1.008.1.008.1.005.1.008.1.005.1.005.1.005.1.005.095.005.1,0,.095.005.1,0,.095,0h.1l.09,0,.1,0h.463l.1,0,.084,0,.1,0,.087,0,.092,0,.087,0,.092-.005.084,0,.095-.005.082-.005.092-.008.079-.005.1-.008.074-.005.1-.011.032,0q.833,2.87,1.943,5.654.312.786.645,1.558l.419.95c.9,2.011,1.89,3.975,2.932,5.915-2.672-2.369-8.747-6.628-15.272-3.522a4.629,4.629,0,0,0-2.308,1.856l0,.005a1.788,1.788,0,0,0-.071.168l0,.01c-.018.055-.034.111-.047.168v0a1.259,1.259,0,0,0-.032.342v0a1.172,1.172,0,0,0,.016.166v.008a1.636,1.636,0,0,0,.037.163v.005a1.844,1.844,0,0,0,.229.492l.005.008c.034.053.071.105.111.155l.005.008a3.14,3.14,0,0,0,.442.463l.01.008c.055.05.113.1.176.145l.01.008a5.782,5.782,0,0,0,.634.429l.013.008c.074.045.153.089.232.132l.018.011c.082.045.163.087.247.129l.005,0c.174.087.355.174.545.255l.018.008c.089.037.184.076.279.113l.026.013.29.111.018.008c.2.074.413.147.629.216l.021.008.316.1.039.011c.105.032.213.063.321.092l.034.011c.226.061.458.118.695.176l.024.005c.116.026.229.053.345.076l.05.011.345.071.047.011c.121.021.24.045.361.066l.021,0c.121.024.245.042.369.063l.024.005.369.055.055.008.363.047.058.008c.124.016.247.029.374.042l.039.005c.126.013.253.026.379.037l.021,0,.384.032.058.005.376.024.066,0c.126.008.253.013.382.018l.05,0c.132.005.263.011.395.013h.008c.132,0,.266.005.4.005h.442l.071,0c.126,0,.253,0,.382-.008h.061l.4-.016.013,0c.132-.005.263-.013.395-.021l.053-.005c.126-.008.255-.018.382-.029l.074-.005c.126-.011.25-.024.376-.037l.066-.008c.132-.013.261-.029.39-.045l.029-.005c.126-.016.255-.032.382-.05l.045-.008c.126-.018.253-.039.379-.061l.068-.011c.124-.021.245-.045.369-.068l.066-.013c.126-.024.25-.05.376-.076l.039-.011c.121-.026.245-.055.366-.084l.034-.008c.124-.029.245-.061.369-.095l.061-.016c.118-.032.237-.066.355-.1l.066-.021c.118-.034.234-.071.353-.111l.045-.016c.118-.039.237-.079.353-.121l.018-.005c.118-.042.234-.087.35-.132l.055-.024c.113-.042.224-.09.332-.137l.063-.026.179-.079c1.6,2.89,3.285,5.736,4.925,8.6l.771,1.356c.9,1.593,1.774,3.2,2.609,4.822-3.467-1.2-14.269-4.662-17.389-2.272a2.462,2.462,0,0,0-1.045,2.58l.008.037a3.056,3.056,0,0,0,.153.487l.016.039a4.164,4.164,0,0,0,.24.487l.021.034c.047.082.1.163.153.242l.005.008c.053.079.108.155.166.232l.026.034c.061.079.121.155.187.234l.018.018c.063.074.126.145.195.216l.026.032c.074.074.147.15.224.224l.029.029.221.2.029.026c.082.071.166.139.253.208l.042.034c.082.066.163.129.247.19l.026.018c.089.066.182.132.276.195l.055.037c.092.061.184.118.279.176l.016.011c.1.061.2.118.3.176l.063.034c.208.116.419.224.637.324l.071.032c.108.05.218.1.329.145l.021.008c.105.045.213.084.321.126l.076.026c.113.042.226.082.342.118l.045.013c.1.034.208.066.316.1l.076.021c.116.032.234.063.353.089l.063.016c.105.024.211.045.316.066l.074.016c.121.024.242.042.363.061l.074.011c.108.016.216.029.324.042l.066.005c.121.013.245.024.368.029l.082.005c.113.005.224.011.334.011l.055,0q.186,0,.371-.008l.089,0c.116-.005.232-.013.35-.024l.034,0c.124-.011.25-.026.374-.042l.089-.013c.126-.018.253-.039.379-.066h0a22,22,0,0,0,8.181-3.369c.437-.3.787-.566,1.053-.782a67.636,67.636,0,0,1,3.532,8.281l0,0,.016.05.039.116,0,0,.308.937,0,.005.063.2.013.034h0c.2.629.384,1.261.555,1.9a54.128,54.128,0,0,1,.987,23.622c-.137.755,1.021.863,1.158.113a55,55,0,0,0-.295-20.968c-.332-1.585-.74-3.143-1.213-4.675l-.392-1.216a70.854,70.854,0,0,0-3.719-8.9c.105-.016.208-.034.313-.053l.076-.013c.137-.026.271-.053.4-.082l.037-.008c.126-.029.253-.061.379-.092l.055-.016c.129-.032.253-.068.376-.105l.076-.024c.124-.037.245-.076.366-.118l.053-.018c.118-.042.234-.084.35-.129l.034-.013c.118-.047.234-.095.35-.145l.068-.029c.113-.05.224-.1.334-.153l.06-.029c.113-.055.224-.111.334-.168l.005,0,.329-.182.058-.034c.1-.058.205-.121.305-.182l.061-.039c.1-.063.2-.129.3-.195l.029-.021c.095-.066.187-.129.279-.2l.045-.032c.095-.068.187-.139.279-.211l.058-.045.269-.218.042-.037c.084-.071.166-.142.247-.216l.032-.026c.084-.079.168-.155.25-.237l.053-.05c.082-.076.161-.155.24-.234l.045-.047c.079-.082.155-.166.232-.247l.011-.01c.076-.084.153-.171.226-.258l.045-.05c.071-.084.14-.168.211-.253l.042-.055c.071-.087.14-.174.205-.263l.021-.029c.066-.084.126-.168.19-.255l.032-.045c.063-.09.124-.179.184-.268Z" transform="translate(301.884 47.418)" fill="#eab54e"/>
    <g id="Group_5870" data-name="Group 5870" transform="translate(263.29 158.149)">
      <g id="Group_5868" data-name="Group 5868">
        <rect id="Rectangle_1642" data-name="Rectangle 1642" width="42.443" height="42.443" transform="translate(0 2.574)" fill="#f1f1f2"/>
        <rect id="Rectangle_1643" data-name="Rectangle 1643" width="14.354" height="5.148" transform="translate(14.045)" fill="#2b8d7b"/>
      </g>
      <g id="Group_5869" data-name="Group 5869" transform="translate(9.381 11.469)">
        <rect id="Rectangle_1644" data-name="Rectangle 1644" width="23.682" height="2.887" fill="#b39dac"/>
        <rect id="Rectangle_1645" data-name="Rectangle 1645" width="23.682" height="2.887" transform="translate(0 7.58)" fill="#b39dac"/>
        <rect id="Rectangle_1646" data-name="Rectangle 1646" width="23.682" height="2.887" transform="translate(0 15.16)" fill="#b39dac"/>
        <rect id="Rectangle_1647" data-name="Rectangle 1647" width="23.682" height="2.887" transform="translate(0 22.74)" fill="#b39dac"/>
      </g>
    </g>
    <path id="Path_15394" data-name="Path 15394" d="M136.967,163.346l-.174-.274-.026-.042c-.053-.09-.108-.179-.158-.268l-.018-.032c-.055-.095-.108-.19-.161-.284l-.029-.058c-.05-.092-.1-.187-.147-.282l-.026-.05c-.047-.095-.095-.192-.142-.29l0-.008c-.047-.1-.092-.2-.134-.295l-.024-.05c-.042-.1-.082-.192-.121-.287l-.021-.055c-.042-.1-.079-.195-.116-.292l-.008-.018c-.037-.1-.071-.195-.105-.292l-.013-.037c-.034-.1-.066-.195-.1-.29l-.016-.053c-.032-.1-.061-.195-.089-.292l-.008-.029c-.029-.1-.055-.195-.082-.292l0-.016c-.026-.1-.05-.2-.074-.295l-.011-.042c-.021-.1-.042-.192-.063-.29l-.005-.032c-.042-.2-.076-.395-.105-.59l0-.032c-.016-.095-.026-.187-.039-.282l0-.029c-.024-.195-.039-.387-.05-.574v-.013c-.005-.092-.011-.184-.013-.274v-.026c0-.09,0-.179,0-.268v-.005c0-.182.01-.358.024-.532l0-.018c.005-.084.013-.168.024-.25V155.9c.021-.168.047-.329.079-.484l0-.008c.016-.079.032-.153.05-.226l0-.011a4.123,4.123,0,0,1,.213-.624l0-.008a3.085,3.085,0,0,1,.295-.521l0-.005c.037-.053.076-.1.116-.147h0a1.967,1.967,0,0,1,.258-.255l0,0a1.73,1.73,0,0,1,.139-.1l.005-.005a2.466,2.466,0,0,1,2.711.279c5.243,3.151,6.415,10.921,6.67,13.809q.853-1.635,1.761-3.238.616-1.1,1.25-2.182l.59-1.011c1.566-2.669,3.164-5.322,4.693-8.015l-.139-.026c-.124-.021-.247-.045-.371-.068l-.213-.047c-.111-.024-.218-.05-.329-.076-.074-.016-.145-.037-.218-.055-.105-.026-.208-.055-.308-.084l-.221-.063c-.1-.032-.2-.061-.295-.095l-.216-.071-.287-.1-.208-.079-.284-.113c-.066-.029-.129-.055-.195-.082-.1-.042-.195-.087-.292-.132l-.171-.079c-.111-.053-.216-.105-.321-.161l-.132-.066c-.147-.076-.295-.158-.44-.24l-.026-.016c-.134-.079-.266-.155-.395-.237l-.132-.084c-.095-.061-.187-.121-.279-.182l-.15-.1-.245-.174-.155-.116c-.076-.058-.153-.113-.229-.174l-.153-.121c-.071-.058-.145-.118-.216-.179L147,150c-.071-.061-.142-.124-.211-.187l-.14-.126c-.071-.063-.139-.129-.208-.195l-.126-.124c-.074-.071-.142-.142-.211-.213l-.113-.116c-.079-.084-.155-.168-.234-.255l-.071-.079c-.1-.113-.2-.229-.3-.345l-.034-.042c-.084-.1-.166-.2-.245-.305l-.09-.116c-.061-.079-.118-.155-.176-.234l-.1-.139c-.053-.071-.1-.145-.155-.218l-.1-.147c-.047-.071-.092-.142-.139-.213l-.1-.155c-.042-.068-.087-.14-.129-.211l-.092-.155c-.042-.071-.082-.142-.121-.213l-.087-.155c-.039-.074-.079-.145-.116-.218l-.079-.153c-.039-.074-.076-.15-.113-.226l-.068-.142c-.042-.087-.079-.171-.118-.258l-.05-.111c-.053-.124-.1-.245-.153-.366l-.045-.118c-.034-.084-.066-.166-.095-.247l-.055-.158c-.026-.068-.05-.137-.074-.205l-.053-.168c-.021-.063-.042-.129-.061-.192l-.05-.174-.053-.184-.045-.176-.042-.176-.042-.179-.034-.168-.034-.179-.029-.163c-.011-.061-.021-.121-.029-.179l-.021-.153c-.008-.063-.016-.124-.024-.184l-.013-.132c-.021-.24-.037-.471-.039-.7l0-.108c0-.063,0-.124.005-.187l0-.116c0-.061.005-.118.011-.176l.008-.116c.005-.058.01-.113.018-.171l.013-.108c.005-.058.016-.111.024-.166l.018-.1c.01-.055.021-.111.032-.163l.024-.095.039-.158.026-.082c.016-.053.032-.108.05-.158l.024-.063c.021-.055.042-.111.063-.163l.005-.011a3.027,3.027,0,0,1,.3-.529l.024-.034a1.328,1.328,0,0,1,.095-.118l.039-.047c.032-.037.066-.071.1-.1l.05-.05.1-.087.058-.045c.034-.026.071-.053.108-.076l.063-.039c.037-.024.076-.045.116-.066l.066-.029a1.045,1.045,0,0,1,.124-.055l.066-.021c.045-.016.089-.032.137-.045l.058-.013a3.052,3.052,0,0,1,1.761.184c5.567,2.061,7.762,11.84,8.32,14.9,1.04-1.864,2.043-3.748,2.969-5.675h0l.037-.076.084-.174v-.005l.519-1.113a63.085,63.085,0,0,0,2.851-7.541c-.3-.108-.69-.261-1.153-.455l-.15-.063q-.3-.13-.64-.284l-.171-.079-.387-.184-.287-.142-.224-.113c-.25-.126-.505-.263-.766-.408-.132-.071-.263-.145-.4-.221a20.231,20.231,0,0,1-4.949-3.883l0,0c-.074-.079-.142-.158-.211-.24l-.061-.071c-.053-.061-.105-.124-.155-.184l-.055-.066c-.066-.079-.132-.161-.195-.242l-.032-.042c-.053-.068-.105-.134-.155-.2l-.055-.074-.142-.195-.037-.053c-.058-.079-.113-.161-.168-.24l-.037-.058q-.067-.095-.126-.19l-.045-.071c-.047-.074-.095-.147-.14-.221l-.011-.018c-.05-.082-.095-.161-.142-.24l-.034-.061c-.034-.063-.071-.126-.1-.19l-.032-.058c-.042-.079-.084-.158-.124-.237l-.005-.008c-.037-.076-.074-.153-.108-.226l-.026-.055c-.029-.066-.058-.132-.084-.195l-.018-.039-.095-.232-.008-.024c-.026-.068-.053-.134-.074-.2l-.018-.045c-.024-.071-.047-.142-.068-.213l0-.005c-.024-.076-.045-.15-.063-.224l-.008-.029c-.016-.063-.032-.126-.045-.187l-.008-.034c-.032-.14-.053-.279-.071-.411l0-.026-.016-.182v-.016a2.968,2.968,0,0,1,0-.374l0-.021a2.4,2.4,0,0,1,.047-.347h0c.013-.053.026-.105.042-.155l.005-.013a1.7,1.7,0,0,1,.121-.292l.005-.008c.024-.042.05-.084.076-.124l.005-.005a1.386,1.386,0,0,1,.2-.229l.011-.008c.613-.547,1.785-.6,3.6.116,4.317,1.708,7.118,8.881,8.065,11.687a62.052,62.052,0,0,0,1.619-7.1l.221-1.408q.1-.7.187-1.4c.224-1.866.363-3.743.419-5.62l-.3-.076-.179-.047-.413-.111c-.442-.121-.984-.274-1.619-.463-.213-.063-.434-.129-.666-.2l-.355-.111c-1.211-.376-2.672-.858-4.364-1.466-.082-.029-.161-.058-.242-.09l-.076-.032-.161-.063-.092-.039-.145-.063-.095-.042-.137-.063-.1-.047-.137-.066-.095-.047-.134-.071-.092-.047-.142-.079-.079-.045c-.058-.032-.116-.066-.174-.1l-.047-.026-.216-.134-.061-.037-.15-.1-.082-.055-.129-.087-.084-.058-.121-.087-.087-.063-.113-.084-.089-.066-.111-.087-.084-.066-.113-.092-.079-.066-.118-.1-.068-.058c-.061-.053-.118-.105-.179-.161l-.058-.053-.118-.111-.076-.074-.1-.092-.079-.079-.087-.092-.079-.082-.084-.09-.079-.084-.079-.087-.076-.089-.074-.087-.076-.089-.071-.084-.074-.092-.063-.082c-.053-.066-.1-.134-.153-.2l-.047-.063-.076-.105-.05-.076-.071-.105-.05-.074-.068-.108-.045-.074-.066-.108-.042-.071-.063-.111-.037-.068-.063-.116-.029-.058-.063-.124-.016-.034c-.074-.155-.142-.311-.2-.466l-.011-.026-.05-.132-.016-.047-.039-.126-.018-.05-.034-.126-.016-.05-.032-.126-.011-.047-.026-.126-.008-.039-.024-.137,0-.013a3.9,3.9,0,0,1-.042-.624v-.018l.005-.129,0-.034.01-.124.005-.037.018-.121.005-.037.024-.121.008-.029c.011-.042.021-.084.032-.124l.005-.016a2.62,2.62,0,0,1,.229-.548h0c.021-.039.045-.079.068-.116l.016-.024.068-.1.024-.032.074-.1.026-.032.082-.095.026-.026.092-.095.024-.021a3.839,3.839,0,0,1,1.353-.805c5.312-1.943,10.605,7.986,12.293,11.511a62.187,62.187,0,0,0-.553-9.1l-.011-.013-.153-1.121q-.411-2.649-1.05-5.251l-.047-.029c-.1-.055-.2-.113-.295-.174l-.034-.024c-.095-.061-.19-.121-.282-.184l-.029-.021c-.095-.066-.189-.134-.282-.2l-.053-.039c-.089-.068-.179-.139-.266-.211l-.047-.039c-.09-.074-.182-.15-.268-.229l-.011-.011c-.087-.076-.171-.155-.258-.237l-.039-.04c-.082-.079-.163-.161-.245-.242l-.047-.05c-.079-.084-.158-.168-.237-.255l-.032-.037c-.079-.087-.153-.174-.229-.261l-.018-.024c-.076-.092-.153-.184-.226-.279l-.039-.05c-.074-.092-.142-.184-.213-.279l-.039-.053c-.071-.1-.14-.2-.211-.3l-.013-.021c-.068-.1-.134-.195-.2-.295l-.029-.042c-.066-.1-.129-.2-.19-.305l-.037-.058c-.063-.1-.124-.205-.184-.311l-.026-.047c-.061-.105-.118-.211-.176-.319l-.008-.016c-.061-.108-.116-.218-.174-.329l-.029-.058c-.053-.105-.105-.213-.158-.321l-.029-.063c-.053-.111-.105-.221-.155-.334l-.013-.032c-.05-.108-.1-.218-.142-.329l-.018-.042c-.047-.111-.092-.224-.137-.337l-.026-.066c-.045-.111-.087-.224-.129-.337l-.018-.055c-.045-.118-.087-.234-.126-.353v0q-.063-.178-.118-.355l-.018-.058c-.037-.113-.071-.226-.105-.34l-.021-.066c-.034-.116-.066-.232-.1-.347l-.011-.039c-.032-.113-.061-.226-.09-.34l-.011-.034c-.029-.116-.058-.232-.084-.347l-.013-.063c-.026-.113-.053-.229-.076-.342l-.011-.055c-.026-.118-.05-.237-.071-.353l0-.005c-.021-.118-.042-.234-.061-.35l-.011-.05c-.018-.113-.034-.226-.053-.337l-.008-.061c-.016-.113-.032-.224-.045-.334l-.005-.039c-.013-.111-.026-.221-.037-.332l0-.024q-.02-.166-.032-.332l-.005-.055c-.008-.108-.016-.213-.021-.319l-.005-.053c-.005-.108-.011-.218-.013-.324l0-.011c0-.108-.005-.213-.005-.318l0-.039v-.3l0-.053c0-.1,0-.2.008-.3v-.037c.005-.1.01-.2.016-.3v-.008c.008-.1.016-.195.024-.29l.005-.042c.008-.092.018-.184.029-.274l.005-.039c.013-.092.026-.182.039-.271l0-.013q.02-.134.047-.261l0-.024c.018-.084.034-.166.055-.247l.008-.037c.018-.079.039-.158.061-.234l.008-.026c.045-.161.095-.311.15-.453l.011-.026c.026-.068.055-.134.084-.2l.013-.029c.029-.066.061-.129.092-.19l.005-.011c.034-.061.066-.118.1-.176l.005-.011c.037-.055.071-.108.108-.161l.016-.021c.037-.05.076-.1.116-.142l.013-.018a2.088,2.088,0,0,1,.261-.247l.016-.011c.045-.034.089-.066.137-.1l.021-.011a1.539,1.539,0,0,1,.145-.079l.011-.005c.053-.024.1-.045.155-.063l.008,0a1.588,1.588,0,0,1,.161-.042l.024-.005q.083-.016.166-.024h.024a1.344,1.344,0,0,1,.179-.005h0a4.125,4.125,0,0,1,2.5,1.379c5.717,5.454,3.659,13.214,2.714,15.872q.667,2.669,1.092,5.391l.153,1.008a64.087,64.087,0,0,1,.619,9.4c1.5-3.509,5.675-12,10.94-11.579a3.346,3.346,0,0,1,2.719,1.271l.008.013a2.29,2.29,0,0,1,.292.666v.008a2.9,2.9,0,0,1,.089.766v.008a4.322,4.322,0,0,1-.095.84l-.005.016c-.011.055-.024.113-.039.168v0a6.108,6.108,0,0,1-.224.711l-.01.032-.066.166-.01.021c-.071.176-.153.353-.24.532l-.011.024-.082.155-.026.053-.082.153-.029.05c-.092.163-.19.329-.292.492l-.034.055-.089.139-.05.074-.089.134L177.1,115l-.092.129-.045.066c-.061.082-.118.161-.182.242l-.068.092-.089.113-.079.1-.089.111-.087.1-.087.105-.129.15-.111.121-.111.126-.087.092-.105.113-.087.089-.118.118-.079.082c-.063.063-.126.126-.192.19l-.053.047-.153.147-.082.071-.132.121-.084.074-.142.124-.074.063c-.071.061-.142.118-.213.176l-.032.026c-.063.053-.126.1-.192.153l-.074.058-.153.116-.082.061-.161.116-.071.053c-.076.053-.153.108-.232.161l-.018.01c-.071.047-.142.095-.216.142l-.076.05-.163.1-.082.05-.168.1-.074.042-.242.134-.008.005c-.076.042-.155.082-.234.121l-.076.039-.171.084-.084.039-.171.079-.079.034c-.082.034-.163.071-.245.1a33.624,33.624,0,0,1-3.19,1.124c-.253.074-.49.137-.713.195s-.432.105-.629.145c-.295.063-.561.111-.8.147-.082.011-.158.021-.232.029-.295.037-.545.053-.753.058h-.15c-.079,0-.15-.005-.213-.008q-.095,2.855-.44,5.7l-.2,1.474a63.658,63.658,0,0,1-1.7,8.023c2.535-2.974,10.166-11.184,14.34-7.523q.265.237.482.466l0,.005.1.113.005.008.095.111.008.011.087.108.011.011.079.108.008.013.074.105.01.013.066.105.008.013.061.105.011.013.053.1.008.016.05.1.008.013.042.1.008.016.037.1.005.016.034.1.005.016.026.1.005.013.021.1,0,.016.018.1,0,.016.013.1v.011l.008.1v.013l.005.1v.01c0,.034,0,.068,0,.1v.011l-.008.1v.008l-.013.1v.005l-.018.1v.005l-.024.105h0a4.26,4.26,0,0,1-1.819,2.282h0l-.121.087-.005,0-.124.082-.008.008-.124.079-.011.008-.124.076-.016.011-.121.074-.018.011-.124.074-.021.013-.124.068-.024.013-.124.068-.026.016-.126.066-.029.016-.124.066-.032.013-.126.066-.032.016-.126.061-.034.016-.129.061-.037.018-.126.058-.039.018-.129.058-.039.016-.129.058-.042.016-.132.055-.042.018-.132.055-.042.016-.134.053-.045.018-.134.053-.045.016-.137.053-.042.016-.139.05-.045.016-.14.05-.045.016-.142.05-.045.013-.142.05-.042.013-.147.047-.042.013-.15.05-.039.011-.153.047-.034.01-.161.05-.029.008-.166.047-.018.005-.179.053h0c-.455.126-.921.245-1.39.35h0l-.166.037-.037.008-.15.034-.055.011-.142.029-.063.013-.134.026-.071.016-.129.024-.076.016-.124.024-.084.013-.118.024-.087.013-.118.021-.087.016-.118.018-.09.016-.113.016-.092.016-.113.016-.092.013-.113.016-.095.013-.108.016-.1.013-.105.013-.1.013-.105.013-.1.011-.1.013-.1.011-.1.011-.1.011-.1.011-.1.011-.1.008-.1.008-.1.01-.1.008-.1.008-.1.005-.1.008-.1.005-.1.008-.1.005-.1.005-.1,0-.095.005-.1.005-.095,0-.1,0-.095,0-.1,0h-.092l-.1,0h-.19c-.029,0-.061,0-.089,0h-.187l-.1,0h-.087l-.1,0-.087,0-.095,0-.087,0-.095-.005-.084-.005-.095-.005-.084-.005-.092-.005-.082-.005-.095-.008-.079-.005-.095-.011-.074-.005-.1-.011-.032,0q-.861,2.863-1.993,5.636c-.213.521-.434,1.037-.661,1.553l-.426.948c-.916,2-1.924,3.956-2.982,5.888,2.693-2.348,8.8-6.552,15.3-3.39a4.655,4.655,0,0,1,2.293,1.877l0,.008a1.514,1.514,0,0,1,.068.168l0,.011c.018.055.034.113.047.168v0a1.506,1.506,0,0,1,.029.342v0a1.188,1.188,0,0,1-.018.166v.008a1.644,1.644,0,0,1-.039.163v.005a1.8,1.8,0,0,1-.232.49l-.005.008a1.562,1.562,0,0,1-.113.155l-.005.005a3.328,3.328,0,0,1-.447.461l-.008.008c-.058.05-.116.1-.179.145l-.011.008a6.222,6.222,0,0,1-.637.424l-.013.008c-.076.042-.153.087-.234.129l-.018.011-.247.126-.008,0c-.174.087-.355.168-.545.25l-.018.005c-.092.039-.184.076-.279.113l-.029.013c-.095.037-.192.071-.29.108l-.021.008c-.2.071-.413.142-.629.211l-.021.005c-.105.034-.211.066-.318.095l-.037.013-.324.087-.034.011c-.226.061-.458.116-.695.168l-.026.008c-.113.024-.229.05-.345.074l-.05.011c-.113.021-.229.045-.345.066l-.047.011-.361.063-.021,0c-.121.021-.245.039-.368.061l-.024,0c-.124.018-.245.037-.368.053l-.055.008-.363.045-.061.005c-.124.016-.247.029-.374.042l-.037,0c-.126.013-.255.024-.382.034l-.021,0c-.126.011-.255.018-.384.029l-.058,0c-.126.008-.25.016-.376.021l-.068,0q-.19.012-.379.016l-.05,0-.395.008h-.008c-.134,0-.266,0-.4,0h-.061c-.126,0-.253,0-.382-.005h-.071l-.382-.013-.061,0c-.132-.005-.266-.011-.4-.018h-.013l-.395-.026-.053-.005-.382-.032-.071-.008-.379-.039-.066-.008c-.129-.016-.258-.032-.39-.05l-.029,0c-.126-.018-.253-.037-.379-.058l-.045-.005-.379-.063-.068-.013-.368-.071-.066-.013c-.126-.026-.25-.053-.374-.082l-.039-.008c-.124-.029-.245-.058-.366-.09l-.034-.008c-.124-.032-.245-.063-.366-.1l-.063-.018c-.118-.032-.237-.066-.353-.1l-.066-.021c-.118-.037-.237-.074-.353-.113l-.045-.016c-.118-.039-.237-.082-.353-.124l-.016-.008c-.118-.042-.234-.087-.35-.134l-.055-.021-.332-.139-.061-.029-.182-.082c-1.624,2.874-3.335,5.707-5,8.557l-.782,1.348c-.913,1.585-1.806,3.182-2.653,4.8,3.477-1.171,14.309-4.535,17.41-2.116a2.463,2.463,0,0,1,1.021,2.587l-.008.037a3.5,3.5,0,0,1-.158.487l-.016.037a4.209,4.209,0,0,1-.245.487l-.021.034c-.047.082-.1.161-.153.242L164.3,170c-.055.079-.111.155-.168.232l-.026.034c-.061.076-.124.155-.192.232l-.016.018c-.063.074-.129.145-.2.216l-.029.029c-.071.074-.145.147-.224.221l-.029.029c-.074.066-.147.134-.224.2l-.029.024c-.082.071-.166.14-.253.208l-.045.034c-.082.063-.163.124-.247.187l-.026.018c-.092.063-.184.129-.279.192l-.055.034c-.092.061-.184.118-.282.176l-.013.008c-.1.061-.2.118-.305.174l-.063.037c-.205.111-.419.216-.637.316l-.071.032c-.111.05-.221.1-.334.142l-.018.008c-.105.042-.213.082-.321.121l-.076.029c-.113.039-.229.076-.345.113l-.045.013c-.105.034-.211.063-.316.092l-.076.024c-.118.029-.237.061-.355.087l-.063.013c-.1.024-.211.045-.316.066l-.074.013c-.121.021-.242.039-.363.058l-.074.011c-.108.013-.216.026-.324.037l-.066.005c-.124.013-.247.021-.368.026l-.084.005-.334.008h-.053c-.124,0-.25-.005-.374-.011l-.087,0c-.118-.008-.234-.016-.35-.026l-.034,0c-.124-.013-.25-.029-.374-.047l-.092-.013c-.124-.021-.25-.042-.376-.068h0a22.056,22.056,0,0,1-8.152-3.443c-.432-.3-.779-.574-1.045-.79a67.675,67.675,0,0,0-3.606,8.249h0l-.018.053-.042.113h.005l-.316.932-.005.005-.066.2-.011.034h0q-.3.94-.571,1.9a54.146,54.146,0,0,0-1.2,23.611c.132.758-1.029.855-1.156.105a54.946,54.946,0,0,1,.479-20.966c.345-1.582.769-3.135,1.256-4.664l.4-1.213a70.692,70.692,0,0,1,3.8-8.863c-.105-.016-.211-.034-.313-.055l-.079-.013c-.134-.026-.268-.055-.4-.087l-.037-.008c-.126-.029-.253-.061-.376-.095l-.058-.016c-.126-.034-.25-.071-.374-.111l-.076-.021c-.124-.039-.245-.082-.366-.124l-.053-.018c-.116-.042-.232-.087-.347-.132l-.034-.013c-.118-.047-.234-.1-.35-.15l-.068-.029c-.111-.05-.221-.1-.332-.155l-.061-.032c-.113-.055-.224-.111-.332-.171l-.008,0c-.108-.058-.219-.121-.324-.182l-.061-.034c-.1-.061-.2-.124-.3-.187l-.061-.039q-.15-.095-.3-.2l-.029-.021c-.095-.066-.187-.132-.276-.2l-.047-.032c-.092-.071-.184-.142-.274-.213l-.058-.047c-.09-.071-.179-.145-.266-.218l-.042-.037c-.084-.071-.166-.145-.247-.218l-.029-.029c-.087-.076-.168-.155-.25-.237l-.053-.05c-.079-.079-.158-.158-.234-.237l-.047-.05c-.076-.082-.155-.163-.229-.247l-.008-.011c-.079-.084-.153-.171-.226-.261l-.042-.05c-.071-.084-.142-.168-.211-.255l-.042-.055c-.068-.087-.137-.176-.2-.266l-.021-.026c-.063-.087-.126-.171-.187-.258l-.032-.045-.182-.271Z" transform="translate(141.622 47.687)" fill="#eab54e"/>
    <path id="Path_11236" data-name="Path 11236" d="M249.835,80.008l3.48-2.593a21.557,21.557,0,0,0-6.644-6.641l-2.59,3.48a17.143,17.143,0,0,0-4.846-2.008l.629-4.3a21.051,21.051,0,0,0-9.4,0l.632,4.3a17.112,17.112,0,0,0-4.846,2.008l-2.593-3.48a21.623,21.623,0,0,0-6.644,6.644l3.48,2.593a17.022,17.022,0,0,0-2.008,4.843l-4.3-.626a21.051,21.051,0,0,0,0,9.4l4.3-.632a17.038,17.038,0,0,0,2.008,4.846l-3.48,2.593a21.623,21.623,0,0,0,6.644,6.644l2.593-3.482A17.044,17.044,0,0,0,231.1,105.6l-.632,4.3a21.051,21.051,0,0,0,9.4,0l-.629-4.3a17.074,17.074,0,0,0,4.846-2.011l2.59,3.482a21.594,21.594,0,0,0,6.644-6.644l-3.48-2.593a17.11,17.11,0,0,0,2.008-4.846l4.3.632a21.127,21.127,0,0,0,0-9.4l-4.3.626A17.142,17.142,0,0,0,249.835,80.008ZM235.166,100.34a11.416,11.416,0,1,1,11.413-11.419v0a11.416,11.416,0,0,1-11.411,11.416Z" transform="translate(270.212 15.886)" fill="#eab54e"/>
    <path id="Path_11236-2" data-name="Path 11236" d="M86.981,103.511l2.627-1.958a16.294,16.294,0,0,0-5.017-5.017l-1.956,2.63a12.841,12.841,0,0,0-3.659-1.516L79.45,94.4a15.908,15.908,0,0,0-7.1,0l.476,3.248a12.81,12.81,0,0,0-3.659,1.516l-1.958-2.627a16.266,16.266,0,0,0-5.017,5.017l2.627,1.958a12.87,12.87,0,0,0-1.516,3.656l-3.246-.474a15.832,15.832,0,0,0,0,7.1l3.246-.474a12.917,12.917,0,0,0,1.516,3.659L62.2,118.933a16.3,16.3,0,0,0,5.017,5.02l1.958-2.63a12.809,12.809,0,0,0,3.659,1.516l-.476,3.248a15.985,15.985,0,0,0,7.1,0l-.474-3.248a12.841,12.841,0,0,0,3.659-1.516l1.956,2.63a16.274,16.274,0,0,0,5.017-5.02l-2.627-1.956a12.917,12.917,0,0,0,1.516-3.659l3.248.474a15.908,15.908,0,0,0,0-7.1l-3.248.474A12.917,12.917,0,0,0,86.981,103.511ZM75.9,118.865a8.621,8.621,0,1,1,8.621-8.623v0a8.623,8.623,0,0,1-8.618,8.621Z" transform="translate(18.847 59.277)" fill="#eab54e"/>
    <g id="Group_5871" data-name="Group 5871" transform="translate(444.102 81.733)">
      <path id="Path_15395" data-name="Path 15395" d="M238.252,66.82s-32.45,33.222-38.447,62.374c-2.035,9.895-1.371,17.728.39,23.761a17.4,17.4,0,0,0,28.826,7.578c4.5-4.385,8.931-10.879,12.024-20.495C250.165,111.7,238.252,66.82,238.252,66.82Z" transform="translate(-198.55 -66.82)" fill="#afddd5"/>
      <path id="Path_15396" data-name="Path 15396" d="M219.124,143.158q.778-2.981,1.558-5.962l22.308-5.107c.045-.237.087-.476.129-.713q-11.126,2.543-22.248,5.088l1.471-5.638q10.633-2.61,21.461-4.272c.026-.229.05-.455.074-.684q-10.759,1.643-21.342,4.222l1.414-5.417q10.171-2.037,20.345-4.069c.013-.229.024-.461.034-.69l-20.192,4.041,1.485-5.68q9.322-2.713,18.844-4.656c0-.226,0-.453,0-.682q-9.413,1.915-18.647,4.585l1.527-5.849q8.406-2.326,16.986-3.917c-.01-.224-.018-.45-.029-.674q-8.457,1.564-16.762,3.843.624-2.385,1.245-4.764,7.506-2.4,15.2-4.117c-.018-.226-.034-.45-.053-.674q-7.561,1.678-14.951,4.027l1.514-5.809a63.714,63.714,0,0,1,12.887-3.956c-.024-.221-.047-.442-.074-.663a64.047,64.047,0,0,0-12.6,3.811l.516-1.977a.346.346,0,0,0,.089-.345l.374-1.432a32.866,32.866,0,0,1,11.221-3.335c-.029-.221-.058-.442-.087-.661a33.661,33.661,0,0,0-10.913,3.143l1.137-4.354a65.868,65.868,0,0,1,9.176-2.99c-.034-.221-.066-.442-.1-.663a65.645,65.645,0,0,0-8.868,2.853l1.055-4.046,6.294-1.487c.347-.084.695-.163,1.042-.247-.037-.218-.074-.437-.111-.653-.513.121-1.029.234-1.54.355l-5.493,1.3.892-3.422q2.685-1.145,5.451-2.056c-.042-.224-.084-.445-.124-.663q-2.594.853-5.114,1.906l1.042-4q1.69-.655,3.427-1.148c-.047-.224-.092-.442-.137-.655q-1.564.442-3.082,1.013l.629-2.411,1.982-.784c-.05-.226-.1-.445-.145-.658l-1.629.645.94-3.6c-.25-1.032-.4-1.593-.4-1.593s-.392.4-1.1,1.158l-1.048,4.014a15.308,15.308,0,0,0-.942-1.853c-.153.168-.308.342-.469.521a14.4,14.4,0,0,1,1.119,2.445l-.732,2.8a22.782,22.782,0,0,0-1.879-3.567c-.15.168-.3.342-.455.519a21.929,21.929,0,0,1,1.927,3.811.32.32,0,0,0,.163.182q-.675,2.578-1.345,5.157-1.575-3.111-3.367-6.1l-.455.542q1.9,3.194,3.567,6.531l-1.211,4.635q-2.231-4.237-4.672-8.36c-.147.184-.3.369-.45.555q2.551,4.316,4.872,8.765l-1.482,5.683q-2.768-5.713-5.967-11.2c-.147.19-.295.379-.442.571q3.3,5.69,6.146,11.629-.49,1.872-.977,3.746-4.067-5.725-8.134-11.448c-.14.187-.276.376-.416.566q4.166,5.859,8.328,11.724l-1.9,7.265a165.262,165.262,0,0,0-8.784-15.712c-.139.2-.279.4-.416.6a165.115,165.115,0,0,1,8.939,16.112l-1.737,6.654q-5.658-8.3-11.319-16.588c-.129.205-.261.408-.39.616q5.745,8.414,11.484,16.828l-.661,2.537-.805,3.085-12.769-17.91c-.124.213-.245.424-.366.634l12.914,18.118-1.242,4.759q-7.411-8.528-14.822-17.06c-.108.216-.219.432-.324.645q7.431,8.552,14.859,17.1a.366.366,0,0,0,.089.071l-1.777,6.8L204.257,115.5c-.1.229-.2.461-.3.69q7.814,9.508,15.625,19.015-.663,2.551-1.329,5.1-8.521-8.315-17.044-16.628c-.074.24-.147.482-.218.721q8.532,8.327,17.067,16.652l-1.416,5.428a205.5,205.5,0,0,1-17.26-15.146c-.045.271-.089.542-.134.808a206.176,206.176,0,0,0,17.21,15.038l-2.3,8.8q-8.114-6.325-15.6-13.388c.013.326.029.648.045.963q7.336,6.874,15.28,13.053a.406.406,0,0,0,.1.053l-.969,3.706q-6.7-4.766-13.39-9.526c.079.334.158.666.242.99l12.969,9.226-.958,3.667q.75.221,1.516.379l.263-1.016q7.091-1.26,14.18-2.522.49-.4.963-.848l-14.956,2.661.855-3.277,17.665-3.3c.205-.261.411-.524.616-.795q-9.05,1.69-18.094,3.382l1.327-5.086,20.105-3.385c.14-.245.276-.492.413-.745L216.4,153.6l1.156-4.435.034-.121A209,209,0,0,1,239,145.482c.1-.234.2-.469.295-.705a211.1,211.1,0,0,0-21.521,3.543l.15-.571a.265.265,0,0,0,.032-.118l.969-3.714q11.174-3.332,22.619-5.588c.068-.24.137-.479.2-.721Q230.31,139.841,219.124,143.158Z" transform="translate(-198.532 -66.82)" fill="#86bec4"/>
    </g>
    <g id="Group_5183" data-name="Group 5183" transform="translate(399.688 57.684)">
      <g id="Group_5180" data-name="Group 5180" transform="translate(3.452 111.704)">
        <g id="Group_5179" data-name="Group 5179" transform="translate(4.669 134.579)">
          <path id="Path_11191" data-name="Path 11191" d="M218.818,151.974a64.772,64.772,0,0,0,.711,14.625,1.735,1.735,0,0,1-.005.877,1.7,1.7,0,0,1-.977.816,43.85,43.85,0,0,1-19.35,3.977,11.954,11.954,0,0,1,2.224-1.629,19.8,19.8,0,0,0,8.639-18.655" transform="translate(-161.2 -150.063)" fill="#fdba93"/>
          <path id="Path_11192" data-name="Path 11192" d="M222.824,160.585a9.236,9.236,0,0,1-4.722,1.4c-1.661-.1-3.369-1.313-3.454-2.974-2.6.084-4.6,2.224-6.936,3.369-3.567,1.75-7.826,1.129-11.658,2.158a4.155,4.155,0,0,0-2.4,1.39,1.784,1.784,0,0,0,.311,2.5,2.581,2.581,0,0,0,.871.269,59.911,59.911,0,0,0,25.125-.805,5.429,5.429,0,0,1,2.53-.232c.579.142,1.1.482,1.677.624a5.186,5.186,0,0,0,2.185-.095l4.091-.753a1.817,1.817,0,0,0,1.079-.461,1.714,1.714,0,0,0,.334-.871c.337-1.866-.637-3.4-.834-5.283a7.877,7.877,0,0,0-1.3-3.143c-1.066-1.2-1.456-.366-2.9.326a26.867,26.867,0,0,0-4,2.577" transform="translate(-170.848 -141.743)" fill="#00326a"/>
          <path id="Path_11193" data-name="Path 11193" d="M202.9,151.248a64.907,64.907,0,0,0,5.115,13.719,1.729,1.729,0,0,1,.261.84,1.69,1.69,0,0,1-.682,1.071,43.843,43.843,0,0,1-17.228,9.663,11.812,11.812,0,0,1,1.624-2.224,19.805,19.805,0,0,0,2.569-20.4" transform="translate(-175.61 -151.248)" fill="#fdba93"/>
          <path id="Path_11194" data-name="Path 11194" d="M212.64,160.652a9.068,9.068,0,0,1-4.4,2.027c-1.629.134-3.461-.808-3.777-2.414-2.519.448-4.169,2.809-6.283,4.251-3.227,2.2-7.46,2.193-11.048,3.733a4.083,4.083,0,0,0-2.137,1.69,1.752,1.752,0,0,0,.65,2.385,2.591,2.591,0,0,0,.884.139,58.974,58.974,0,0,0,24.356-4.3,5.3,5.3,0,0,1,2.43-.579c.584.055,1.135.313,1.719.376a5.11,5.11,0,0,0,2.116-.392l3.877-1.306a1.827,1.827,0,0,0,.987-.6,1.718,1.718,0,0,0,.2-.9c.066-1.864-1.095-3.217-1.553-5.028a7.732,7.732,0,0,0-1.708-2.877c-1.206-1.013-1.466-.153-2.777.724a26.682,26.682,0,0,0-3.538,3.067" transform="translate(-184.762 -142.829)" fill="#00326a"/>
        </g>
        <path id="Path_11195" data-name="Path 11195" d="M244.9,110.142c3.8,17.989,1.013,36.628,1.337,55.006.145,8.173.908,16.32,1.345,24.482a305.813,305.813,0,0,1-1.429,50.015,52.042,52.042,0,0,1-12.071.413l-3.5-35.743a193.017,193.017,0,0,0-2.753-20.521c-1.008-4.849-2.39-9.61-3.469-14.443a228.419,228.419,0,0,1-3.625-24.106L202.8,183.956a18.892,18.892,0,0,0-1.977,5.915,18.551,18.551,0,0,0,1.2,7.247q6.886,22.253,15.8,43.808l-9.655,4.206a2.531,2.531,0,0,1-1.669.305c-.711-.205-1.084-.963-1.374-1.642q-9.31-21.878-18.62-43.753c-2-4.706-4.046-9.695-3.4-14.764a78.429,78.429,0,0,1,1.945-11.474c1.129-4.351,3.359-10.1,4.446-14.464,4.406-17.678,10.292-33.119,14.7-50.8a6.16,6.16,0,0,1,1.437-3.106,6.011,6.011,0,0,1,2.745-1.224,136.152,136.152,0,0,1,30.1-4.083c1.579-.037,3.309,0,4.525,1.016" transform="translate(-182.988 -100.121)" fill="#00326a"/>
      </g>
      <path id="Path_11196" data-name="Path 11196" d="M206.477,67.787a28.924,28.924,0,0,0-.124,6.8,8.829,8.829,0,0,0,.821,3.264c1.177,2.237,3.746,3.293,6.117,4.18-1.729,1.382-2.98,3.28-4.651,4.727-4.77,4.133-12.382,3.756-17.586.19a6.916,6.916,0,0,0,1.927-9.589c-.063-.095-.126-.187-.195-.279" transform="translate(-166.37 -41.193)" fill="#fcae82"/>
      <g id="Group_5181" data-name="Group 5181" transform="translate(8.328)">
        <path id="Path_11197" data-name="Path 11197" d="M188.918,69.076a32.042,32.042,0,0,0,5.749,20.263c.94,1.335,2.122,2.68,3.727,2.982a5.558,5.558,0,0,0,3.4-.674c4.938-2.427,7.694-7.881,8.865-13.256,1.353-6.2.7-13.5-4.08-17.678" transform="translate(-178.276 -52.739)" fill="#fdba93"/>
        <path id="Path_11198" data-name="Path 11198" d="M197.087,72.1a6.6,6.6,0,0,0,3.4-6.307,1.513,1.513,0,0,0-.347-.95,1.173,1.173,0,0,0-1.364-.095,3.475,3.475,0,0,0-1.027,1.037" transform="translate(-164.853 -46.433)" fill="#fdba93"/>
        <path id="Path_11199" data-name="Path 11199" d="M219.294,76.313c.761-4.114.805-8.4-1.121-12.119a12.487,12.487,0,0,0-8.555-6.244,16.055,16.055,0,0,0-10.6,1.693c-1.972,1.04-3.783,2.448-5.928,3.061-2.206.632-4.788.453-6.5,1.977a6.2,6.2,0,0,0-1.745,4.4,12.686,12.686,0,0,0,9.666,12.579c.437.092.992.118,1.224-.263a1.076,1.076,0,0,0,.076-.719c-.224-1.624-.777-3.606.49-4.649,4.091,1.84,9.01.708,12.806-1.685,1.566-.987,3.572-2.2,5.083-1.129,1.185.837,1.2,2.535,1.369,3.975s1.034,3.174,2.474,3.011l1.261-3.9" transform="translate(-184.841 -57.684)" fill="#00326a"/>
      </g>
      <g id="Group_5182" data-name="Group 5182" transform="translate(0 40.103)">
        <path id="Path_11200" data-name="Path 11200" d="M213.593,72.919a13.755,13.755,0,0,1-14.133,6.912c-1.922-.282-3.79-.863-4.791-2.527a6.615,6.615,0,0,1-2.461,1.55,6.176,6.176,0,0,0-1.585.811c-1.092.94-.948,2.64-.724,4.064,2.164,13.717,3.127,27.591,4.083,41.447l.787,11.392c.35,5.049.695,10.153-.121,15.151a2.548,2.548,0,0,0,.039,1.471,2.4,2.4,0,0,0,1.753,1.071,35.642,35.642,0,0,0,20.976-1.324,4.786,4.786,0,0,0,3-2.322,5.261,5.261,0,0,0,.026-2.748c-2.1-12.845-1.029-26-2.258-38.957-.258-2.714-.616-5.417-.816-8.136a70.044,70.044,0,0,1,1.561-20.658,7.44,7.44,0,0,0,.258-3.459c-.64-2.49-3.253-3.106-5.594-3.74" transform="translate(-168.511 -72.919)" fill="#ef7935"/>
        <path id="Path_11201" data-name="Path 11201" d="M199.378,74.628c3.435,10.039,2.753,19.971,3.38,30.563.242,4.1.705,8.176.848,12.277.129,3.764-.01,7.536-.153,11.3l-1.274,34.1a2.523,2.523,0,0,1-.324,1.385,2.4,2.4,0,0,1-1.3.779,24.384,24.384,0,0,1-9.942,1.092q.719-15.075,2.43-30.081a60.768,60.768,0,0,0,.537-6.775,57.344,57.344,0,0,0-.734-7.994,250.429,250.429,0,0,0-4.7-26.644c-1.066-4.235-2.319-8.873-.4-12.793,1.571-3.209,4.585-3.8,7.718-5.509,1.158-.632,2.751-1.077,3.909-1.706" transform="translate(-173.392 -70.134)" fill="#4c9ad5"/>
        <path id="Path_11202" data-name="Path 11202" d="M192.109,76.673c1.835,1.6,1.377,4.833,1.5,7.486.245,5.622.44,11.24.166,16.862l-.837,17.2c-.061,1.25-.205,2.669-1.2,3.425-1.042.79-2.514.484-3.777.142a2.9,2.9,0,0,1-1.664-.89,2.8,2.8,0,0,1-.395-1.169c-1.756-9.966-.977-20.195.218-30.244a34.272,34.272,0,0,1,.974-5.507c.705-2.435,2.743-6.689,5.022-7.3" transform="translate(-176.471 -66.792)" fill="#3d95d3"/>
        <path id="Path_11203" data-name="Path 11203" d="M201.369,73.1l-.487,12.872c-.105,2.824-.213,5.646-.592,8.442-.471,3.448-1.35,6.833-1.716,10.295a61.361,61.361,0,0,0,0,10.316c1.045,16.815,3.622,33.561,3.369,50.407a1.842,1.842,0,0,0,.29,1.256,1.728,1.728,0,0,0,1.261.426c4.227.19,8.552-1.335,12.63-.2,1.848.516,3.59,1.569,5.509,1.577a1.671,1.671,0,0,0,1.474-.605,2.015,2.015,0,0,0,.066-1.45c-1.79-8.847-.942-18-1.55-27-.811-12.011-4.2-23.8-4.227-35.835-.008-3.846.332-7.684.669-11.516L219.1,80.376A118.137,118.137,0,0,0,201.369,73.1" transform="translate(-154.452 -72.619)" fill="#4c9ad5"/>
        <path id="Path_11204" data-name="Path 11204" d="M214.035,128.116,209.071,86H181.677l3.451,42.116Z" transform="translate(-181.677 -51.568)" fill="#c0cddc"/>
        <path id="Path_11205" data-name="Path 11205" d="M237.705,94.33A105.954,105.954,0,0,1,207.537,98.1c-1.7-.034-3.585-.19-4.78-1.4-1.024-1.048-1.442-2.785-2.822-3.264-.345,1.021.413,2.308-.258,3.153-.555.7-1.645.524-2.5.258a53.08,53.08,0,0,1-7.378-2.893c-.434-.208-1.129-.305-1.232.163a.781.781,0,0,0,.018.321c.648,2.988,3.093,5.333,5.854,6.644a30.136,30.136,0,0,0,8.876,2.172,152.424,152.424,0,0,0,21.724,1.977c7.278-.034,14.648-1.145,21.253-4.206" transform="translate(-170.441 -39.432)" fill="#fdba93"/>
        <path id="Path_11206" data-name="Path 11206" d="M208.759,75.866c-4.148,6.049-4.851,14.077-3.338,21.255s4.467,13.985,5.988,21.161c.35,1.648.553,3.577-.582,4.825,3.172,3.046,2.582,4.7,4.475,8.673.176.369-.034.458.471,1.137.305.411,2.585-1.045,3-1.342,3.14-2.245,4.893-2.745,5.114-6.6.324-5.638-1.15-11.208-2.7-16.636q-3.913-13.685-8.6-27.131c-.779-2.24-1.706-4.28-3.825-5.341" transform="translate(-144.116 -68.109)" fill="#3d95d3"/>
      </g>
    </g>
    <g id="Group_5875" data-name="Group 5875" transform="translate(162.737 103.264)">
      <g id="Group_5872" data-name="Group 5872" transform="translate(28.074 86.798)">
        <path id="Path_15397" data-name="Path 15397" d="M113.212,107.977c-24.527,0,.05,32.108.05,32.108S137.741,107.977,113.212,107.977Z" transform="translate(-102.324 -107.972)" fill="#f36711"/>
        <path id="Path_15398" data-name="Path 15398" d="M112.332,107.977c-21.326,0,.042,27.915.042,27.915S133.656,107.977,112.332,107.977Z" transform="translate(-101.441 -107.972)" fill="#fcaf00"/>
        <path id="Path_15399" data-name="Path 15399" d="M110.685,107.975c-15.341,0,.029,23.058.029,23.058S126.026,107.975,110.685,107.975Z" transform="translate(-99.792 -107.975)" fill="#f5bd55"/>
      </g>
      <rect id="Rectangle_1648" data-name="Rectangle 1648" width="20.689" height="4.452" transform="translate(28.631 86.156)" fill="#2c8c7a"/>
      <g id="Group_5873" data-name="Group 5873" transform="translate(47.03 60.076)">
        <path id="Path_15400" data-name="Path 15400" d="M139.7,140.671a1.1,1.1,0,0,1-1.979.582c-3.6-4.759-12.545-15.338-22.282-17.341a14.6,14.6,0,0,0-5.909-.061L116.1,97.823a38.709,38.709,0,0,1,3.5,2.364C126.548,105.372,141.262,119.013,139.7,140.671Z" transform="translate(-109.525 -97.823)" fill="#e53819"/>
        <path id="Path_15401" data-name="Path 15401" d="M119.6,100.187c-.437,4.941-1.677,16.5-4.167,23.724a14.6,14.6,0,0,0-5.909-.061L116.1,97.823A38.709,38.709,0,0,1,119.6,100.187Z" transform="translate(-109.525 -97.823)" fill="#d02d1a"/>
      </g>
      <g id="Group_5874" data-name="Group 5874" transform="translate(0 60.076)">
        <path id="Path_15402" data-name="Path 15402" d="M91.774,140.671a1.1,1.1,0,0,0,1.982.582c3.6-4.759,12.545-15.338,22.282-17.341a14.6,14.6,0,0,1,5.909-.061l-6.575-26.028a38.711,38.711,0,0,0-3.5,2.364C104.924,105.372,90.21,119.013,91.774,140.671Z" transform="translate(-91.658 -97.823)" fill="#e53819"/>
        <path id="Path_15403" data-name="Path 15403" d="M99.337,100.187c.437,4.941,1.677,16.5,4.167,23.724a14.6,14.6,0,0,1,5.909-.061l-6.575-26.028A38.711,38.711,0,0,0,99.337,100.187Z" transform="translate(-79.124 -97.823)" fill="#d02d1a"/>
      </g>
      <path id="Path_15404" data-name="Path 15404" d="M128.163,161.156H107.484c-9.7-27.491-9.242-47.2-5.53-60.773C106.947,82.139,117.826,75,117.826,75s10.879,7.139,15.87,25.383C137.41,113.952,137.865,133.67,128.163,161.156Z" transform="translate(-78.854 -75)" fill="#fff"/>
      <path id="Path_15405" data-name="Path 15405" d="M132.176,100.383H100.434a52.013,52.013,0,0,1,9.818-19.539A30.765,30.765,0,0,1,116.306,75a30.764,30.764,0,0,1,6.054,5.844A52.015,52.015,0,0,1,132.176,100.383Z" transform="translate(-77.334 -75)" fill="#df573d"/>
      <path id="Path_15406" data-name="Path 15406" d="M116.272,80.844H104.164A30.765,30.765,0,0,1,110.218,75,30.764,30.764,0,0,1,116.272,80.844Z" transform="translate(-71.246 -75)" fill="#e53819"/>
      <circle id="Ellipse_203" data-name="Ellipse 203" cx="11.589" cy="11.589" r="11.589" transform="translate(23.803 42.275) rotate(-22.735)" fill="#f0f0f0"/>
      <circle id="Ellipse_204" data-name="Ellipse 204" cx="11.589" cy="11.589" r="11.589" transform="translate(27.383 36.013)" fill="#dfdfde"/>
      <circle id="Ellipse_205" data-name="Ellipse 205" cx="8.057" cy="8.057" r="8.057" transform="translate(30.915 39.546)" fill="#2c8c7a"/>
      <path id="Path_15407" data-name="Path 15407" d="M114.577,91.05l-6.828,14.556a8.038,8.038,0,0,1-3.84-3.085l5.838-12.451a8.235,8.235,0,0,1,.887-.047A8.049,8.049,0,0,1,114.577,91.05Z" transform="translate(-71.662 -50.479)" fill="#fff" opacity="0.2"/>
      <path id="Path_15408" data-name="Path 15408" d="M114.245,92.733l-5.7,12.15a8.41,8.41,0,0,1-1.19.087,8.286,8.286,0,0,1-1.435-.126l6.615-14.1A8,8,0,0,1,114.245,92.733Z" transform="translate(-68.381 -49.309)" fill="#fff" opacity="0.2"/>
      <path id="Path_15409" data-name="Path 15409" d="M110.11,143.733a.7.7,0,0,1-1.377,0c-2.214-10.189-8.528-42.592.684-42.787C109.418,100.948,120.571,96.932,110.11,143.733Z" transform="translate(-70.601 -32.787)" fill="#e53819"/>
      <path id="Path_15410" data-name="Path 15410" d="M123.938,100.383C118.945,82.139,108.066,75,108.066,75a22.085,22.085,0,0,0-2.585,2.129c3.532,3.293,9.821,10.6,13.285,23.253,3.711,13.569,4.167,33.287-5.536,60.773H118.4C128.105,133.67,127.65,113.952,123.938,100.383Z" transform="translate(-69.096 -75)" fill="#040505" opacity="0.1"/>
    </g>
    <g id="Group_4884-2" data-name="Group 4884" transform="translate(549.336 151.743)">
      <path id="Path_10384-2" data-name="Path 10384" d="M261.49,221.254c-4.467-9.537-25.938-14.848-22.614-26.667s21.037,8.26,20.25,3.03-23.566-16.246-18.023-27c4.6-8.91,14.859,1.943,17.225,2.4s-13.535-12.387-10.705-17.433,10.134-.547,12.966,2.345-9.692-17.328-4.814-22.8,12.261,12.972,12.869,6.812-7.981-20.863-1.982-23.719,7.594,6.654,10.426,9.552,1.6-12.408,7.841-23.253,18.863-15.733,16.6-5.409-16.486,25.712-13.411,28.239,15.335-10.224,13.161,1.35-20.816,13.606-16.07,18,12.961-.829,12.153,5.375-19.315,7.523-16.81,10.805,5.328,2.856,15.83,2.106c10.1-.719,7.5,13.027-4.238,14.551s-19.084,5.617-13.775,6.4,11.271,1.134,16.473,2.24c11.777,2.5,9.976,12.5-3.83,15.42s-23.632,6.889-16.057,6.241,24.964,1.082,13.161,5.8S261.49,221.254,261.49,221.254Z" transform="translate(-238.529 -93.417)" fill="#297c68"/>
      <path id="Path_15411" data-name="Path 15411" d="M241,189.394l0-1c7.839.013,12.148,2.985,14.385,5.478A13.919,13.919,0,0,1,258.4,199.3q.17-1.342.347-2.669h-.005l.01-.037q.612-4.556,1.313-8.95l-.011,0c.448-2.961-.716-9.26-4.706-13.985a17.087,17.087,0,0,0-13.335-6.094l.016-1a18.284,18.284,0,0,1,14.085,6.449,22.039,22.039,0,0,1,4.709,10.074q.719-4.193,1.506-8.213l-.021,0c.05-.261.105-.513.168-.758q.3-1.528.611-3.032c-.134-.742-3.485-18.363-14.369-21.011l.237-.971c4.862,1.182,9.023,5.349,12.032,12.053a46.4,46.4,0,0,1,2.6,7.549q.908-4.268,1.872-8.32h-.021a10.254,10.254,0,0,1,.808-3.259l.055-.229h-.024c.013-.211,1.063-20.832-10.284-25.127l.355-.937c5.007,1.9,8.484,7.033,10.053,14.862a48.654,48.654,0,0,1,.863,7.394q1.4-5.409,2.838-10.35l-.039-.013c.176-.637.376-1.25.587-1.856.271-.908.54-1.808.808-2.693h-.026c.01-.19,1.008-18.892-7.265-23.882l.519-.858c6.638,4,7.694,15.657,7.794,21.458,7.178-22.727,13.93-35.893,14.056-36.133l.887.461c-.124.242-6.881,13.424-14.054,36.177,3.188-4.733,8.526-8.963,18.012-14.746l.521.855c-13.751,8.381-18.057,13.3-20.229,19.429q-1.8,6.065-3.567,12.885c2.7-3.7,8.123-8.013,19.052-10.3l.205.982c-10.6,2.216-15.728,6.436-18.162,9.584a14.809,14.809,0,0,0-2.056,3.564q-1.528,6.231-2.943,13.011c3.4-4.117,11.205-5.762,25.554-8.781l2.419-.511.208.982-2.422.511c-17.362,3.654-24.89,5.241-26.515,11.516-1.227,6.228-2.351,12.777-3.322,19.615,3.6-4.109,13.925-7.139,32.434-9.613l.134.992c-31.055,4.154-32.566,9.513-32.95,11.379q-.565,4.193-1.045,8.528c1.429-.753,4.32-.824,9.834-.948,3.369-.076,7.984-.179,13.919-.471l.05,1c-5.949.292-10.571.4-13.946.474-8.215.184-9.86.279-10.074,1.924-.187,1.766-.363,3.543-.529,5.341l-1-.09q.241-2.665.521-5.28l0,0,.011-.058q.186-1.753.384-3.482l-.005,0a12.242,12.242,0,0,0-3.227-9.142C251.629,191.181,246.912,189.4,241,189.394Z" transform="translate(-234.495 -84.713)" fill="#1d5041"/>
    </g>
  </g>
</svg>
