<svg xmlns="http://www.w3.org/2000/svg" width="64.024" height="53.354" viewBox="0 0 64.024 53.354">
  <g id="icon-15" transform="translate(-171.183 -200.833)">
    <g id="Group_5841" data-name="Group 5841" transform="translate(176.519 212.571)">
      <g id="Group_5840" data-name="Group 5840">
        <path id="Path_15341" data-name="Path 15341" d="M185.049,208.744a6.353,6.353,0,0,0-4.582-1.934h-.33a6.351,6.351,0,0,0-4.576,1.934,5.871,5.871,0,0,0-1.656,4.352l.124,2.871a6.137,6.137,0,0,0,6.234,5.782h.081a6.135,6.135,0,0,0,6.232-5.782l.13-2.871A5.871,5.871,0,0,0,185.049,208.744Zm-.607,7.135a4,4,0,0,1-4.1,3.735h-.081a4.007,4.007,0,0,1-4.1-3.735l-.037-.872a9.629,9.629,0,0,0,5.579-2.094,4.757,4.757,0,0,0,2.783,1.952Zm-1.337-5.043a1.071,1.071,0,0,0-1.988-.4c-.014.022-1.337,2.117-5.075,2.437a3.755,3.755,0,0,1,1.059-2.651,4.215,4.215,0,0,1,3.036-1.28h.33a4.215,4.215,0,0,1,3.036,1.28,3.755,3.755,0,0,1,1.041,2.4A2.524,2.524,0,0,1,183.1,210.836Z" transform="translate(-173.9 -206.81)" fill="#fff"/>
      </g>
    </g>
    <g id="Group_5843" data-name="Group 5843" transform="translate(171.183 215.521)">
      <g id="Group_5842" data-name="Group 5842">
        <path id="Path_15342" data-name="Path 15342" d="M204.148,209.143a2.953,2.953,0,0,0-4.107,0l-11.913,11.913a1.067,1.067,0,0,1-.756.312H176.519a5.344,5.344,0,0,0-5.336,5.336v14.938a3.2,3.2,0,0,0,4.27,3.019v1.251a1.066,1.066,0,0,0,1.066,1.066h12.8a1.066,1.066,0,0,0,1.066-1.066v-17.3a1.063,1.063,0,0,1,.287-.727l13.539-14.562A2.954,2.954,0,0,0,204.148,209.143Zm-1.455,2.685-.01.012-13.573,14.59a3.2,3.2,0,0,0-.852,2.18v16.234H177.585V228.837a1.066,1.066,0,1,0-2.133,0v12.8a1.067,1.067,0,1,1-2.135,0V226.7a3.2,3.2,0,0,1,3.2-3.2h10.853a3.18,3.18,0,0,0,2.264-.939l11.913-11.913a.841.841,0,0,1,1.159,0A.832.832,0,0,1,202.692,211.827Z" transform="translate(-171.183 -208.312)" fill="#fff"/>
      </g>
    </g>
    <g id="Group_5845" data-name="Group 5845" transform="translate(181.855 231.779)">
      <g id="Group_5844" data-name="Group 5844">
        <path id="Path_15343" data-name="Path 15343" d="M177.683,216.59a1.066,1.066,0,0,0-1.066,1.066v12.8a1.066,1.066,0,1,0,2.133,0v-12.8A1.066,1.066,0,0,0,177.683,216.59Z" transform="translate(-176.617 -216.59)" fill="#fff"/>
      </g>
    </g>
    <g id="Group_5847" data-name="Group 5847" transform="translate(191.459 200.833)">
      <g id="Group_5846" data-name="Group 5846">
        <path id="Path_15344" data-name="Path 15344" d="M222.109,200.833H184.655a3.179,3.179,0,0,0-3.148,3.2V220.04a1.066,1.066,0,1,0,2.133,0v-12.8h39.483v25.61a1.043,1.043,0,0,1-1.013,1.068H185.694a1.066,1.066,0,1,0,0,2.133h36.415a3.175,3.175,0,0,0,3.146-3.2V204.034A3.178,3.178,0,0,0,222.109,200.833Zm1.013,4.27H183.64v-1.068a1.043,1.043,0,0,1,1.015-1.066h37.454a1.043,1.043,0,0,1,1.013,1.066Z" transform="translate(-181.507 -200.833)" fill="#fff"/>
      </g>
    </g>
    <g id="Group_5849" data-name="Group 5849" transform="translate(229.217 217.436)">
      <g id="Group_5848" data-name="Group 5848">
        <path id="Path_15345" data-name="Path 15345" d="M201.6,209.287a.86.86,0,0,0-.862.86v12.275a.861.861,0,0,0,1.722,0V210.147A.86.86,0,0,0,201.6,209.287Z" transform="translate(-200.733 -209.287)" fill="#fff"/>
      </g>
    </g>
    <g id="Group_5851" data-name="Group 5851" transform="translate(225.772 222.819)">
      <g id="Group_5850" data-name="Group 5850">
        <path id="Path_15346" data-name="Path 15346" d="M199.839,212.028a.86.86,0,0,0-.86.86v6.891a.861.861,0,0,0,1.722,0v-6.891A.862.862,0,0,0,199.839,212.028Z" transform="translate(-198.979 -212.028)" fill="#fff"/>
      </g>
    </g>
    <g id="Group_5853" data-name="Group 5853" transform="translate(222.326 221.097)">
      <g id="Group_5852" data-name="Group 5852">
        <path id="Path_15347" data-name="Path 15347" d="M198.086,211.151a.862.862,0,0,0-.862.86v8.614a.862.862,0,0,0,1.724,0v-8.614A.862.862,0,0,0,198.086,211.151Z" transform="translate(-197.224 -211.151)" fill="#fff"/>
      </g>
    </g>
    <g id="Group_5855" data-name="Group 5855" transform="translate(218.881 226.264)">
      <g id="Group_5854" data-name="Group 5854">
        <path id="Path_15348" data-name="Path 15348" d="M196.332,213.782a.862.862,0,0,0-.862.862v3.445a.861.861,0,0,0,1.722,0v-3.445A.86.86,0,0,0,196.332,213.782Z" transform="translate(-195.47 -213.782)" fill="#fff"/>
      </g>
    </g>
    <g id="Group_5857" data-name="Group 5857" transform="translate(215.436 213.344)">
      <g id="Group_5856" data-name="Group 5856">
        <path id="Path_15349" data-name="Path 15349" d="M208.836,207.348a.861.861,0,0,0-1.194.24L204.7,212l-2.716-2.037a.861.861,0,0,0-1.206.167.9.9,0,0,0-.086.137l-3.352,6.709-3.28,2.461a.862.862,0,0,0,1.035,1.379l3.445-2.585a.874.874,0,0,0,.257-.3l2.983-5.966,2.616,1.964a.861.861,0,0,0,1.206-.171l.027-.039,3.445-5.167A.863.863,0,0,0,208.836,207.348Z" transform="translate(-193.716 -207.203)" fill="#fff"/>
      </g>
    </g>
    <g id="Group_5859" data-name="Group 5859" transform="translate(195.726 209.37)">
      <g id="Group_5858" data-name="Group 5858">
        <path id="Path_15350" data-name="Path 15350" d="M197.551,205.18h-12.8a1.067,1.067,0,0,0,0,2.135h12.8a1.067,1.067,0,1,0,0-2.135Z" transform="translate(-183.68 -205.18)" fill="#fff"/>
      </g>
    </g>
    <g id="Group_5861" data-name="Group 5861" transform="translate(212.799 209.37)">
      <g id="Group_5860" data-name="Group 5860">
        <path id="Path_15351" data-name="Path 15351" d="M195.574,205.18h-2.133a1.067,1.067,0,1,0,0,2.135h2.133a1.067,1.067,0,1,0,0-2.135Z" transform="translate(-192.373 -205.18)" fill="#fff"/>
      </g>
    </g>
    <path id="Path_15352" data-name="Path 15352" d="M194.3,207.077a.83.83,0,0,0-.827.829v.831a5.6,5.6,0,1,0,6.365,6.365h.833a.828.828,0,0,0,.827-.827A7.2,7.2,0,0,0,194.3,207.077Zm0,11.143a3.945,3.945,0,0,1-.827-7.8v3.857a.828.828,0,0,0,.827.827h3.857A3.967,3.967,0,0,1,194.3,218.22Zm.829-4.772V208.8a5.563,5.563,0,0,1,4.653,4.653Z" transform="translate(16.884 6.019)" fill="#fff"/>
  </g>
</svg>
