<svg xmlns="http://www.w3.org/2000/svg" width="55.941" height="48.075" viewBox="0 0 55.941 48.075">
  <g id="Group_5788" data-name="Group 5788" transform="translate(-172.483 -73.224)">
    <path id="Path_15252" data-name="Path 15252" d="M189.162,78.924a1.093,1.093,0,1,0-1.093-1.093A1.092,1.092,0,0,0,189.162,78.924Z" transform="translate(13.477 3.039)" fill="#fff"/>
    <path id="Path_15253" data-name="Path 15253" d="M225.148,86.335h-14.86V76.5a3.281,3.281,0,0,0-3.278-3.276H175.761a3.281,3.281,0,0,0-3.278,3.276V98.353a3.282,3.282,0,0,0,3.278,3.278h3.278v5.464a1.093,1.093,0,0,0,1.865.772l6.236-6.236h3.481v9.833a3.282,3.282,0,0,0,3.278,3.278h19.87l6.236,6.236a1.093,1.093,0,0,0,1.865-.772v-5.464h3.278a3.28,3.28,0,0,0,3.276-3.278V89.613A3.28,3.28,0,0,0,225.148,86.335Zm-45.016,2.184h10.677a3.273,3.273,0,0,0-.188,1.093v3.28H180.132a1.092,1.092,0,1,0,0,2.184h10.489v4.371h-3.933a1.094,1.094,0,0,0-.774.321l-4.69,4.69v-3.918a1.092,1.092,0,0,0-1.093-1.093h-4.371a1.094,1.094,0,0,1-1.093-1.093V76.5a1.093,1.093,0,0,1,1.093-1.091H207.01A1.093,1.093,0,0,1,208.1,76.5v9.835H180.132a1.092,1.092,0,1,0,0,2.184Zm46.109,22.945a1.093,1.093,0,0,1-1.093,1.093h-4.371a1.093,1.093,0,0,0-1.093,1.093v3.918l-4.69-4.69a1.094,1.094,0,0,0-.774-.321H193.9a1.094,1.094,0,0,1-1.093-1.093V89.613A1.094,1.094,0,0,1,193.9,88.52h31.249a1.094,1.094,0,0,1,1.093,1.093Z" transform="translate(0 0)" fill="#fff"/>
    <path id="Path_15254" data-name="Path 15254" d="M177.092,78.924H195.23a1.093,1.093,0,1,0,0-2.185H177.092a1.093,1.093,0,1,0,0,2.185Z" transform="translate(3.04 3.039)" fill="#fff"/>
    <path id="Path_15255" data-name="Path 15255" d="M186.545,85.955h13.6c.453,0,.82-.489.82-1.093s-.367-1.091-.82-1.091h-13.6c-.453,0-.819.489-.819,1.091S186.091,85.955,186.545,85.955Z" transform="translate(11.451 9.12)" fill="#fff"/>
    <path id="Path_15256" data-name="Path 15256" d="M209.326,87.286H186.819a1.093,1.093,0,1,0,0,2.185h22.507a1.093,1.093,0,1,0,0-2.185Z" transform="translate(11.451 12.16)" fill="#fff"/>
    <path id="Path_15257" data-name="Path 15257" d="M209.326,90.8H186.819a1.093,1.093,0,1,0,0,2.185h22.507a1.093,1.093,0,1,0,0-2.185Z" transform="translate(11.451 15.2)" fill="#fff"/>
    <path id="Path_15258" data-name="Path 15258" d="M200.615,88.557l-.766-1.917,1.544-1.544a.438.438,0,0,0,0-.619.462.462,0,0,0-.222-.119l-1.975-.4-.778-1.557a.457.457,0,0,0-.625-.157.471.471,0,0,0-.159.157l-.778,1.557-1.977.4a.436.436,0,0,0-.341.515.442.442,0,0,0,.117.224L196.2,86.64l-.768,1.917a.438.438,0,0,0,.569.569l2.021-.809,2.021.809a.438.438,0,0,0,.569-.242.443.443,0,0,0,0-.324Zm-2.428-1.117a.448.448,0,0,0-.326,0l-1.234.5.494-1.238a.435.435,0,0,0-.1-.472l-1.171-1.171,1.385-.278a.438.438,0,0,0,.306-.233l.481-.966.483.966a.434.434,0,0,0,.306.233l1.384.278-1.171,1.171a.438.438,0,0,0-.1.472l.5,1.238Z" transform="translate(19.065 7.748)" fill="#fff"/>
  </g>
</svg>
