<svg xmlns="http://www.w3.org/2000/svg" width="51.859" height="51.858" viewBox="0 0 51.859 51.858">
  <g id="icon-13" transform="translate(-24.822 -196.999)">
    <g id="Group_5795" data-name="Group 5795" transform="translate(24.822 196.999)">
      <g id="Group_5794" data-name="Group 5794">
        <path id="Path_15319" data-name="Path 15319" d="M76.384,205.13c-3.235-3.235-9.2-5.672-13.322-6.777A39.99,39.99,0,0,0,53.16,197a19.715,19.715,0,0,0-5.023.562,1.013,1.013,0,0,0-.717.715c-.3,1.11-.553,2.271-.765,3.458-.007.036-.014.072-.018.107a48.76,48.76,0,0,0-.415,14.2,40.773,40.773,0,0,0-7.781,1.28c-4.125,1.105-10.087,3.542-13.322,6.777a1.015,1.015,0,0,0-.263.978c.324,1.207.719,2.437,1.173,3.671l0,.005a48.575,48.575,0,0,0,6.4,11.954c2.781,3.719,7.16,8.152,12.228,8.152a8.338,8.338,0,0,0,2.155-.283c3.094-.83,5.522-3.412,7.026-7.471a33.831,33.831,0,0,0,1.781-11.3,8.406,8.406,0,0,0,1.22.091c5.068,0,9.445-4.435,12.226-8.154a48.449,48.449,0,0,0,7.578-15.629A1.014,1.014,0,0,0,76.384,205.13ZM46.291,246.617a6.273,6.273,0,0,1-1.631.215c-3.3,0-7.067-2.605-10.6-7.339a46.348,46.348,0,0,1-5.878-10.783c.545-.424,1.418-1.082,2.323-1.692a1.013,1.013,0,1,0-1.132-1.679c-.7.472-1.375.966-1.908,1.37-.175-.529-.34-1.057-.488-1.579,2.523-2.267,7.237-4.58,11.992-5.855a38.71,38.71,0,0,1,7.578-1.228,25.149,25.149,0,0,0,1.305,4.578l.007.018c.054.131.106.259.161.386l.009.021a16.618,16.618,0,0,0,.912,1.82l.013.023,0,.007c.02.032.038.064.057.1.041.068.082.132.123.2l.08.127c.057.091.114.179.173.266l.086.125c.059.088.12.173.181.259l.077.1c.066.089.132.179.2.265l.023.029c.132.168.27.331.408.488a3.243,3.243,0,0,1-5.349-.4,1.013,1.013,0,1,0-1.754,1.012,5.268,5.268,0,0,0,8.594.76,8.672,8.672,0,0,0,1.03.653l.043.023c.093.05.188.1.283.143l.079.038c.091.043.182.084.275.123l.034.016C53.632,236.808,51.742,245.158,46.291,246.617Zm21.155-26.092c-3.539,4.733-7.3,7.341-10.6,7.341a6.35,6.35,0,0,1-1.631-.215q-.148-.04-.29-.086l-.009,0c-4.381-1.409-5.969-7.328-6.527-10.731l0-.021-.029-.182a45.592,45.592,0,0,1,.165-13.768c.683-.093,1.769-.227,2.859-.3a1.013,1.013,0,1,0-.141-2.021c-.84.059-1.665.148-2.328.231.1-.467.206-.93.318-1.384a19.207,19.207,0,0,1,3.934-.356,37.924,37.924,0,0,1,9.377,1.284c4.753,1.273,9.469,3.585,11.992,5.853A46.455,46.455,0,0,1,67.446,220.525Z" transform="translate(-24.822 -196.999)" fill="#fff"/>
      </g>
    </g>
    <g id="Group_5797" data-name="Group 5797" transform="translate(60.741 210.066)">
      <g id="Group_5796" data-name="Group 5796">
        <path id="Path_15320" data-name="Path 15320" d="M54.172,206.942a5.268,5.268,0,0,0-9.127,0,1.013,1.013,0,0,0,1.754,1.012,3.244,3.244,0,0,1,5.619,0,1.013,1.013,0,0,0,.88.506.994.994,0,0,0,.5-.136A1.01,1.01,0,0,0,54.172,206.942Z" transform="translate(-44.909 -204.306)" fill="#fff"/>
      </g>
    </g>
    <g id="Group_5799" data-name="Group 5799" transform="translate(49.191 206.388)">
      <g id="Group_5798" data-name="Group 5798">
        <path id="Path_15321" data-name="Path 15321" d="M44.226,202.953a5.282,5.282,0,0,0-5.27,0,1.013,1.013,0,0,0,1.012,1.754,3.245,3.245,0,0,1,4.868,2.809,1.013,1.013,0,0,0,2.026,0A5.284,5.284,0,0,0,44.226,202.953Z" transform="translate(-38.45 -202.249)" fill="#fff"/>
      </g>
    </g>
    <g id="Group_5801" data-name="Group 5801" transform="translate(52.755 217.776)">
      <g id="Group_5800" data-name="Group 5800">
        <path id="Path_15322" data-name="Path 15322" d="M49.3,210.823a1.014,1.014,0,0,0-1.432,0,3.245,3.245,0,0,1-5.429-1.454,1.013,1.013,0,1,0-1.956.524,5.271,5.271,0,0,0,8.818,2.362A1.013,1.013,0,0,0,49.3,210.823Z" transform="translate(-40.443 -208.618)" fill="#fff"/>
      </g>
    </g>
    <g id="Group_5803" data-name="Group 5803" transform="translate(30.933 227.513)">
      <g id="Group_5802" data-name="Group 5802">
        <path id="Path_15323" data-name="Path 15323" d="M35.638,214.063h0a1.011,1.011,0,0,0-1.012,1.012,3.246,3.246,0,0,1-4.868,2.809,1.013,1.013,0,0,0-1.014,1.754,5.272,5.272,0,0,0,7.908-4.564A1.013,1.013,0,0,0,35.638,214.063Z" transform="translate(-28.239 -214.063)" fill="#fff"/>
      </g>
    </g>
    <g id="Group_5805" data-name="Group 5805" transform="translate(40.148 237.554)">
      <g id="Group_5804" data-name="Group 5804">
        <path id="Path_15324" data-name="Path 15324" d="M42.245,221.219a5.272,5.272,0,0,0-8.818,2.364,1.011,1.011,0,0,0,.717,1.239.95.95,0,0,0,.263.036,1.011,1.011,0,0,0,.976-.751,3.246,3.246,0,0,1,5.429-1.456,1.013,1.013,0,1,0,1.432-1.432Z" transform="translate(-33.393 -219.678)" fill="#fff"/>
      </g>
    </g>
    <g id="Group_5807" data-name="Group 5807" transform="translate(53.16 200.547)">
      <g id="Group_5806" data-name="Group 5806">
        <path id="Path_15325" data-name="Path 15325" d="M41.9,199.006l-.077-.013a1.013,1.013,0,0,0-.293,2l.048.007a1.012,1.012,0,0,0,.322-2Z" transform="translate(-40.669 -198.983)" fill="#fff"/>
      </g>
    </g>
    <g id="Group_5809" data-name="Group 5809" transform="translate(31.412 223.722)">
      <g id="Group_5808" data-name="Group 5808">
        <path id="Path_15326" data-name="Path 15326" d="M30.526,212.6a1.011,1.011,0,0,0-1.305-.59l-.075.029a1.014,1.014,0,0,0,.376,1.955,1,1,0,0,0,.376-.073l.041-.016A1.011,1.011,0,0,0,30.526,212.6Z" transform="translate(-28.507 -211.943)" fill="#fff"/>
      </g>
    </g>
  </g>
</svg>
