<svg xmlns="http://www.w3.org/2000/svg" width="44.385" height="59.823" viewBox="0 0 44.385 59.823">
  <g id="icon-09" transform="translate(-28.322 -133.348)">
    <path id="Path_15263" data-name="Path 15263" d="M72.707,135.277H69.665l.321-1.929H56.129l.321,1.929H32.181v3.859h-3.86v54.035H68.848v-3.859h3.859Zm-5,0-.644,3.859H59.051l-.644-3.859Zm-3.367,10.152a1.9,1.9,0,0,1,.648,1.426,1.93,1.93,0,1,1-3.859,0,1.909,1.909,0,0,1,.646-1.426l.319-.286v-4.075h1.931v4.075Zm2.576,45.812H30.251V141.067h1.931v48.245H66.917Zm3.86-3.859H34.11V137.208H56.773l.644,3.859h2.748v3.252a3.859,3.859,0,1,0,5.788,0v-3.252H68.7l.644-3.859h1.432Z" transform="translate(0)" fill="#fff"/>
    <path id="Path_15264" data-name="Path 15264" d="M63.024,149.609H57.236v17.367H55.3V153.468H49.517v13.507H47.586v-9.648H41.8v9.648H39.867v-5.788H34.079v5.788H32.148v1.931H64.955v-1.931H63.024Zm-3.859,1.929H61.1v15.438H59.165ZM51.445,155.4h1.931v11.578H51.445Zm-7.719,3.86h1.931v7.719H43.726Zm-7.719,3.859h1.931v3.859H36.008Z" transform="translate(3.893 16.546)" fill="#fff"/>
    <path id="Path_15265" data-name="Path 15265" d="M47.586,136.217H32.148v21.228H47.586Zm-1.929,19.3H34.079V138.148H45.657Z" transform="translate(3.893 2.919)" fill="#fff"/>
    <path id="Path_15266" data-name="Path 15266" d="M34.061,138.13H41.78v1.931H34.061Z" transform="translate(5.839 4.866)" fill="#fff"/>
    <path id="Path_15267" data-name="Path 15267" d="M34.061,140.043H41.78v1.931H34.061Z" transform="translate(5.839 6.812)" fill="#fff"/>
    <path id="Path_15268" data-name="Path 15268" d="M34.061,141.957H41.78v1.929H34.061Z" transform="translate(5.839 8.76)" fill="#fff"/>
    <path id="Path_15269" data-name="Path 15269" d="M34.061,143.87H41.78V145.8H34.061Z" transform="translate(5.839 10.706)" fill="#fff"/>
    <path id="Path_15270" data-name="Path 15270" d="M40.757,142.913h1.929v1.931H40.757Z" transform="translate(12.653 9.733)" fill="#fff"/>
    <path id="Path_15271" data-name="Path 15271" d="M42.67,142.913H54.248v1.931H42.67Z" transform="translate(14.599 9.733)" fill="#fff"/>
    <path id="Path_15272" data-name="Path 15272" d="M40.757,144.826h1.929v1.931H40.757Z" transform="translate(12.653 11.679)" fill="#fff"/>
    <path id="Path_15273" data-name="Path 15273" d="M42.67,144.826H54.248v1.931H42.67Z" transform="translate(14.599 11.679)" fill="#fff"/>
    <path id="Path_15274" data-name="Path 15274" d="M40.757,146.739h1.929v1.931H40.757Z" transform="translate(12.653 13.625)" fill="#fff"/>
    <path id="Path_15275" data-name="Path 15275" d="M42.67,146.739H54.248v1.931H42.67Z" transform="translate(14.599 13.625)" fill="#fff"/>
  </g>
</svg>
