<svg xmlns="http://www.w3.org/2000/svg" width="38.135" height="52" viewBox="0 0 38.135 52">
  <g id="icon-14" transform="translate(-101.046 -198.869)">
    <g id="Group_5812" data-name="Group 5812" transform="translate(101.046 198.869)">
      <g id="Group_5811" data-name="Group 5811">
        <path id="Path_15327" data-name="Path 15327" d="M139.03,221.363a2.594,2.594,0,0,0-4.891.01h-5.36v-3.466h3.468a.867.867,0,0,0,.866-.868h0v-3.627a2.6,2.6,0,1,0-1.733,0v2.761h-2.6v-1.733a.867.867,0,0,0-.866-.868h-1.733v-4.494a2.6,2.6,0,1,0-1.733,0v4.494h-3.466V199.735a.867.867,0,0,0-.868-.866h0c-10.691,0-19.067,7.741-19.067,17.622,0,4.694,1.863,10.908,4.864,16.219.538.951,1.241,1.954,1.985,3.016,1.573,2.242,3.323,4.763,3.514,6.958a2.465,2.465,0,0,0-1.041,2.057,2.574,2.574,0,0,0,.574,1.609,2.675,2.675,0,0,0-.8,1.918,2.6,2.6,0,0,0,2.6,2.6h14.735a2.616,2.616,0,0,0,2.6-2.633v-.029a2.588,2.588,0,0,0-.8-1.867,2.678,2.678,0,0,0,.576-1.661,2.485,2.485,0,0,0-2.49-2.481c-.036,0-.072,0-.111,0h-6.277V225.7h1.733v2.6a.868.868,0,0,0,.866.868h2.6V230.2a2.6,2.6,0,1,0,1.733,0v-1.893a.868.868,0,0,0-.866-.868h-2.6V225.7h3.466a.865.865,0,0,0,.866-.866h0v-1.733h5.36a2.6,2.6,0,0,0,4.891-1.743Zm-6.782-11.257a.867.867,0,1,1-.868.866A.865.865,0,0,1,132.248,210.105Zm-22.932,24.626c-.721-1.026-1.4-1.995-1.9-2.875-2.818-4.988-4.639-11.019-4.639-15.365,0-8.643,7.166-15.469,16.469-15.87v6.054c-.231.017-.465.038-.717.069a.868.868,0,0,0-.744.681l-.263,1.257c-.217.052-.435.111-.652.175l-.864-.963a.862.862,0,0,0-.984-.219,13.009,13.009,0,0,0-2.727,1.592.864.864,0,0,0-.3.963l.4,1.211c-.164.154-.322.315-.477.479l-1.211-.4a.874.874,0,0,0-.963.3,13.029,13.029,0,0,0-1.594,2.729.865.865,0,0,0,.219.984l.965.864c-.065.214-.124.429-.175.645l-1.346.269a.866.866,0,0,0-.7.85v2.955a.866.866,0,0,0,.7.849l1.346.269c.051.215.111.431.175.645l-.965.864a.869.869,0,0,0-.219.986,13.017,13.017,0,0,0,1.594,2.727.868.868,0,0,0,.961.3l1.211-.4c.156.162.315.322.479.477l-.4,1.211a.871.871,0,0,0,.3.963,13.023,13.023,0,0,0,2.729,1.592.869.869,0,0,0,.986-.219l.864-.963c.215.067.433.124.65.175l.263,1.255a.865.865,0,0,0,.744.683c.252.03.486.051.717.069v9.6h-6.142C112.752,239.649,110.942,237.05,109.316,234.731Zm3-15.092a7.811,7.811,0,0,0,6.935,7.749v2.98l-.145-.683a.867.867,0,0,0-.694-.675,9.45,9.45,0,0,1-1.51-.408.9.9,0,0,0-.294-.05.866.866,0,0,0-.645.288l-.814.91a11.477,11.477,0,0,1-1.306-.767l.378-1.146a.868.868,0,0,0-.265-.932,9.5,9.5,0,0,1-1.108-1.108.871.871,0,0,0-.932-.263l-1.144.378a11.2,11.2,0,0,1-.766-1.306l.91-.814a.864.864,0,0,0,.236-.938,9.649,9.649,0,0,1-.406-1.51.864.864,0,0,0-.683-.7l-1.213-.242v-1.533l1.213-.242a.869.869,0,0,0,.683-.7,9.614,9.614,0,0,1,.406-1.512.864.864,0,0,0-.236-.938l-.91-.814a11.451,11.451,0,0,1,.766-1.3l1.144.376a.874.874,0,0,0,.932-.261,9.552,9.552,0,0,1,1.11-1.112.869.869,0,0,0,.263-.931l-.378-1.146a11.311,11.311,0,0,1,1.3-.765l.816.908a.867.867,0,0,0,.938.238,9.447,9.447,0,0,1,1.51-.406.867.867,0,0,0,.694-.675l.145-.683v2.98A7.81,7.81,0,0,0,112.313,219.639Zm6.935-6v12a6.059,6.059,0,0,1,0-12Zm9.1,34.628a.867.867,0,0,1-.866.868H112.746a.884.884,0,0,1-.868-.9l0-.031a.866.866,0,0,1,.866-.866h14.735a.883.883,0,0,1,.868.9Zm-1.089-4.332a.794.794,0,0,1,.864.717.67.67,0,0,1,0,.088.868.868,0,0,1-.868.868H112.969a.882.882,0,0,1-.868-.9v-.031a.783.783,0,0,1,.816-.747l.051,0Zm-.212-12.165a.867.867,0,1,1-.866.868A.868.868,0,0,1,127.046,231.772Zm-1.733-26a.867.867,0,1,1-.866.868A.868.868,0,0,1,125.313,205.771Zm1.733,18.2h-6.065v-8.666h6.065Zm9.534-.866a.867.867,0,1,1,.868-.868A.867.867,0,0,1,136.58,223.106Z" transform="translate(-101.046 -198.869)" fill="#fff"/>
      </g>
    </g>
    <g id="Group_5814" data-name="Group 5814" transform="translate(127.662 238.485)">
      <g id="Group_5813" data-name="Group 5813">
        <path id="Path_15328" data-name="Path 15328" d="M115.815,219.646a14.665,14.665,0,0,0-.81,1.693l1.611.639a12.933,12.933,0,0,1,.717-1.493Z" transform="translate(-115.005 -219.646)" fill="#fff"/>
      </g>
    </g>
    <g id="Group_5816" data-name="Group 5816" transform="translate(129.417 235.433)">
      <g id="Group_5815" data-name="Group 5815">
        <path id="Path_15329" data-name="Path 15329" d="M116.93,218.045c-.341.49-.681.986-1,1.489l1.455.942c.315-.486.643-.967.972-1.442Z" transform="translate(-115.925 -218.045)" fill="#fff"/>
      </g>
    </g>
    <g id="Group_5818" data-name="Group 5818" transform="translate(131.434 232.55)">
      <g id="Group_5817" data-name="Group 5817">
        <path id="Path_15330" data-name="Path 15330" d="M117.942,216.533c-.292.463-.618.944-.959,1.436l1.422.988c.358-.513.7-1.016,1-1.5Z" transform="translate(-116.983 -216.533)" fill="#fff"/>
      </g>
    </g>
    <g id="Group_5820" data-name="Group 5820" transform="translate(133.24 229.528)">
      <g id="Group_5819" data-name="Group 5819">
        <path id="Path_15331" data-name="Path 15331" d="M118.71,214.948q-.372.781-.78,1.543l1.529.818q.426-.8.814-1.613Z" transform="translate(-117.93 -214.948)" fill="#fff"/>
      </g>
    </g>
    <g id="Group_5822" data-name="Group 5822" transform="translate(134.731 226.347)">
      <g id="Group_5821" data-name="Group 5821">
        <path id="Path_15332" data-name="Path 15332" d="M119.355,213.28c-.2.536-.416,1.073-.643,1.605l1.6.679c.235-.557.46-1.114.669-1.674Z" transform="translate(-118.712 -213.28)" fill="#fff"/>
      </g>
    </g>
    <g id="Group_5824" data-name="Group 5824" transform="translate(137.381 216.318)">
      <g id="Group_5823" data-name="Group 5823">
        <path id="Path_15333" data-name="Path 15333" d="M121.9,208.02l-1.733.013,0,.16c0,.482-.023,1-.067,1.525l1.726.145c.05-.576.074-1.138.074-1.67Z" transform="translate(-120.102 -208.02)" fill="#fff"/>
      </g>
    </g>
    <g id="Group_5826" data-name="Group 5826" transform="translate(137.051 212.628)">
      <g id="Group_5825" data-name="Group 5825">
        <path id="Path_15334" data-name="Path 15334" d="M121.616,206.085l-1.687.395a14.972,14.972,0,0,1,.288,1.644l1.722-.206A16.594,16.594,0,0,0,121.616,206.085Z" transform="translate(-119.929 -206.085)" fill="#fff"/>
      </g>
    </g>
    <g id="Group_5828" data-name="Group 5828" transform="translate(135.934 209.127)">
      <g id="Group_5827" data-name="Group 5827">
        <path id="Path_15335" data-name="Path 15335" d="M120.9,204.249l-1.56.757a15.088,15.088,0,0,1,.646,1.539l1.634-.58A16.725,16.725,0,0,0,120.9,204.249Z" transform="translate(-119.343 -204.249)" fill="#fff"/>
      </g>
    </g>
    <g id="Group_5830" data-name="Group 5830" transform="translate(134.153 205.989)">
      <g id="Group_5829" data-name="Group 5829">
        <path id="Path_15336" data-name="Path 15336" d="M119.767,202.6l-1.358,1.077a15.875,15.875,0,0,1,.969,1.363l1.464-.927A17.523,17.523,0,0,0,119.767,202.6Z" transform="translate(-118.409 -202.603)" fill="#fff"/>
      </g>
    </g>
    <g id="Group_5832" data-name="Group 5832" transform="translate(131.808 203.344)">
      <g id="Group_5831" data-name="Group 5831">
        <path id="Path_15337" data-name="Path 15337" d="M118.283,201.216l-1.1,1.335a16.527,16.527,0,0,1,1.236,1.133l1.236-1.215A17.692,17.692,0,0,0,118.283,201.216Z" transform="translate(-117.179 -201.216)" fill="#fff"/>
      </g>
    </g>
    <g id="Group_5834" data-name="Group 5834" transform="translate(129.022 201.277)">
      <g id="Group_5833" data-name="Group 5833">
        <path id="Path_15338" data-name="Path 15338" d="M116.542,200.132l-.824,1.525c.5.267.98.561,1.44.869l.969-1.438C117.619,200.748,117.087,200.428,116.542,200.132Z" transform="translate(-115.718 -200.132)" fill="#fff"/>
      </g>
    </g>
    <g id="Group_5836" data-name="Group 5836" transform="translate(125.923 199.84)">
      <g id="Group_5835" data-name="Group 5835">
        <path id="Path_15339" data-name="Path 15339" d="M114.619,199.378l-.526,1.651c.542.172,1.072.368,1.581.583l.677-1.594C115.792,199.78,115.21,199.565,114.619,199.378Z" transform="translate(-114.093 -199.378)" fill="#fff"/>
      </g>
    </g>
    <g id="Group_5838" data-name="Group 5838" transform="translate(122.63 199.044)">
      <g id="Group_5837" data-name="Group 5837">
        <path id="Path_15340" data-name="Path 15340" d="M112.589,198.961l-.223,1.72c.561.071,1.119.168,1.663.29l.376-1.693C113.809,199.146,113.2,199.039,112.589,198.961Z" transform="translate(-112.366 -198.961)" fill="#fff"/>
      </g>
    </g>
  </g>
</svg>
