<svg xmlns="http://www.w3.org/2000/svg" width="45.791" height="52.574" viewBox="0 0 45.791 52.574">
  <g id="icon-10" transform="translate(-98.756 -134.778)">
    <path id="Path_15276" data-name="Path 15276" d="M141.155,151.738v-8.48h-3.392v-8.48H98.756v48.334a4.245,4.245,0,0,0,4.24,4.24h37.311a4.246,4.246,0,0,0,4.24-4.24V151.738ZM103,185.657a2.548,2.548,0,0,1-2.545-2.545V136.473h35.616v46.639a4.214,4.214,0,0,0,.849,2.545Zm39.854-2.545a2.544,2.544,0,1,1-5.088,0V144.953h1.7v35.614h1.7V153.433h1.7Z" transform="translate(0 0)" fill="#fff"/>
    <path id="Path_15277" data-name="Path 15277" d="M120.605,160.269h1.7v1.7h-1.7Z" transform="translate(18.853 21.995)" fill="#fff"/>
    <path id="Path_15278" data-name="Path 15278" d="M120.833,160.607l-2.86-.816v-.227a4.244,4.244,0,0,0,1.7-3.374v-1.55a4.352,4.352,0,0,0-3.826-4.367,4.242,4.242,0,0,0-4.653,4.219v1.7a4.246,4.246,0,0,0,1.7,3.374v.227l-2.861.816a4.26,4.26,0,0,0-3.076,4.078v2.528h16.96v-2.528A4.257,4.257,0,0,0,120.833,160.607Zm1.38,4.911H108.646v-.833a2.554,2.554,0,0,1,1.844-2.446l4.091-1.17v-2.446l-.421-.244a2.52,2.52,0,0,1-1.274-2.189v-1.7a2.543,2.543,0,0,1,2.8-2.532,2.645,2.645,0,0,1,2.291,2.679v1.55a2.52,2.52,0,0,1-1.274,2.189l-.421.244v2.446l4.089,1.17a2.554,2.554,0,0,1,1.846,2.446Z" transform="translate(7.07 13.354)" fill="#fff"/>
    <path id="Path_15279" data-name="Path 15279" d="M105.129,172.176h23.742V148.434H105.129Zm1.7-22.047h20.352v20.352H106.824Z" transform="translate(5.499 11.783)" fill="#fff"/>
    <path id="Path_15280" data-name="Path 15280" d="M110.752,156.949a10.175,10.175,0,1,0-10.175-10.175A10.186,10.186,0,0,0,110.752,156.949Zm0-1.7a8.491,8.491,0,0,1-7.753-5.06,4.2,4.2,0,0,1,2.709,1.213l.175.175a3.845,3.845,0,0,0,6.565-2.718v-.818a2.969,2.969,0,0,0-2.968-2.968,1.275,1.275,0,0,1-1.272-1.272v-1.272a5.947,5.947,0,0,0-1.092-3.409,8.366,8.366,0,0,1,2.843-.79,5.008,5.008,0,0,0-.054.576,4.831,4.831,0,0,0,1.824,3.795l1.444,1.155a2.574,2.574,0,0,1,.972,2.021,4.29,4.29,0,0,0,4.285,4.285c.03,0,.063-.006.093-.007A8.488,8.488,0,0,1,110.752,155.254Zm8.48-8.48a8.492,8.492,0,0,1-.162,1.639,4.174,4.174,0,0,1-.641.056,2.591,2.591,0,0,1-2.589-2.587,4.263,4.263,0,0,0-1.608-3.346l-1.446-1.157a3.143,3.143,0,0,1-1.187-2.468,2.931,2.931,0,0,1,.056-.566A8.49,8.49,0,0,1,119.232,146.774ZM105.67,140a4.265,4.265,0,0,1,.842,2.534v1.272a2.972,2.972,0,0,0,2.968,2.968,1.273,1.273,0,0,1,1.272,1.272v.818a2.15,2.15,0,0,1-3.67,1.52l-.175-.175a5.9,5.9,0,0,0-4.2-1.74,1.936,1.936,0,0,1-.27-.024A8.443,8.443,0,0,1,105.67,140Z" transform="translate(1.571 1.571)" fill="#fff"/>
    <path id="Path_15281" data-name="Path 15281" d="M112.412,136.6h10.175v1.7H112.412Z" transform="translate(11.783 1.571)" fill="#fff"/>
    <path id="Path_15282" data-name="Path 15282" d="M112.412,138.419h1.7v1.7h-1.7Z" transform="translate(11.783 3.142)" fill="#fff"/>
    <path id="Path_15283" data-name="Path 15283" d="M114.233,138.419h6.783v1.7h-6.783Z" transform="translate(13.355 3.142)" fill="#fff"/>
    <path id="Path_15284" data-name="Path 15284" d="M112.412,140.24h10.175v1.7H112.412Z" transform="translate(11.783 4.713)" fill="#fff"/>
    <path id="Path_15285" data-name="Path 15285" d="M112.412,142.061h10.175v1.7H112.412Z" transform="translate(11.783 6.284)" fill="#fff"/>
    <path id="Path_15286" data-name="Path 15286" d="M112.412,143.882h6.783v1.7h-6.783Z" transform="translate(11.783 7.856)" fill="#fff"/>
    <path id="Path_15287" data-name="Path 15287" d="M116.964,143.882h1.7v1.7h-1.7Z" transform="translate(15.711 7.856)" fill="#fff"/>
    <path id="Path_15288" data-name="Path 15288" d="M100.577,159.814h6.783v1.7h-6.783Z" transform="translate(1.571 21.603)" fill="#fff"/>
    <path id="Path_15289" data-name="Path 15289" d="M100.577,157.993h6.783v1.7h-6.783Z" transform="translate(1.571 20.032)" fill="#fff"/>
    <path id="Path_15290" data-name="Path 15290" d="M100.577,156.172h6.783v1.7h-6.783Z" transform="translate(1.571 18.46)" fill="#fff"/>
    <path id="Path_15291" data-name="Path 15291" d="M100.577,154.351h6.783v1.7h-6.783Z" transform="translate(1.571 16.889)" fill="#fff"/>
    <path id="Path_15292" data-name="Path 15292" d="M100.577,152.53h6.783v1.7h-6.783Z" transform="translate(1.571 15.318)" fill="#fff"/>
  </g>
</svg>
