<svg xmlns="http://www.w3.org/2000/svg" width="51.747" height="51.757" viewBox="0 0 51.747 51.757">
  <g id="Outline" transform="translate(-26.822 -76.045)">
    <g id="Group_5772" data-name="Group 5772" transform="translate(26.822 76.045)">
      <circle id="Ellipse_200" data-name="Ellipse 200" cx="0.863" cy="0.863" r="0.863" transform="translate(3.45 3.451)" fill="#fff"/>
      <circle id="Ellipse_201" data-name="Ellipse 201" cx="0.863" cy="0.863" r="0.863" transform="translate(6.9 3.451)" fill="#fff"/>
      <circle id="Ellipse_202" data-name="Ellipse 202" cx="0.863" cy="0.863" r="0.863" transform="translate(10.35 3.451)" fill="#fff"/>
      <path id="Path_15237" data-name="Path 15237" d="M36.019,77.712a.863.863,0,1,0,0,1.726H48.093a.863.863,0,1,0,0-1.726Z" transform="translate(-17.906 -74.262)" fill="#fff"/>
      <path id="Path_15238" data-name="Path 15238" d="M43.936,77.712a.863.863,0,1,0,0,1.726h6.9a.863.863,0,1,0,0-1.726Z" transform="translate(-9.435 -74.262)" fill="#fff"/>
      <path id="Path_15239" data-name="Path 15239" d="M31.435,94.38a.863.863,0,1,0,0,1.726H40.06a.863.863,0,1,0,0-1.726Z" transform="translate(-22.81 -56.429)" fill="#fff"/>
      <path id="Path_15240" data-name="Path 15240" d="M40.06,96.047H31.435a.862.862,0,1,0,0,1.724H40.06a.862.862,0,1,0,0-1.724Z" transform="translate(-22.81 -54.645)" fill="#fff"/>
      <path id="Path_15241" data-name="Path 15241" d="M51.165,81.909a.864.864,0,0,0-.861-.863h-3.45a.865.865,0,0,0-.863.863v3.448a.867.867,0,0,0,.863.863H50.3a.865.865,0,0,0,.861-.863ZM49.44,84.5H47.714V82.77H49.44Z" transform="translate(-6.314 -70.695)" fill="#fff"/>
      <path id="Path_15242" data-name="Path 15242" d="M50.3,84.379h-3.45a.863.863,0,1,0,0,1.726H50.3a.863.863,0,0,0,0-1.726Z" transform="translate(-6.314 -67.129)" fill="#fff"/>
      <path id="Path_15243" data-name="Path 15243" d="M49.412,86.046H47.686a.863.863,0,1,0,0,1.726h1.726a.863.863,0,0,0,0-1.726Z" transform="translate(-5.423 -65.345)" fill="#fff"/>
      <path id="Path_15244" data-name="Path 15244" d="M77.818,120.941l-7.924-7.926a2.575,2.575,0,0,0-2.943-.495l-4.194-4.2a15.462,15.462,0,0,0-.366-18.478H63.91a.863.863,0,0,0,0-1.726H60.826A15.5,15.5,0,0,0,55.2,84.67H70.811a.862.862,0,0,0,0-1.724H42.348V77.771H73.4v36.517a.862.862,0,1,0,1.724,0V76.908a.865.865,0,0,0-.863-.863H27.685a.865.865,0,0,0-.863.863V95.022a.862.862,0,0,0,1.724,0V84.67H45.054a15.349,15.349,0,0,0-4.55,2.48.851.851,0,0,0-.141,1.209h0a.868.868,0,0,0,1.207.141,13.791,13.791,0,0,1,17.791.613L58.433,90.6a12.079,12.079,0,1,0,3.094,12.637.871.871,0,0,0-.54-1.1.86.86,0,0,0-1.1.538,10.291,10.291,0,0,1-9.778,7.009h-.863v-3.451a.862.862,0,1,0-1.724,0v3.115a10.26,10.26,0,0,1-7.429-7.429h.528a.862.862,0,1,0,0-1.724H39.8c0-.279-.043-.571-.043-.863a10.346,10.346,0,0,1,17.673-7.319l.064.085L55.4,95.432a.867.867,0,0,0,.271,1.186h0a.866.866,0,0,0,1.184-.271h0l1.78-2.834a10.4,10.4,0,0,1,1.79,6.036.862.862,0,1,0,1.724,0,12,12,0,0,0-2.534-7.654l.958-1.542a13.791,13.791,0,1,1-21.3.41.863.863,0,0,0-1.347-1.078h0a15.554,15.554,0,0,0-3.343,10.5h-3.45a.863.863,0,0,0-.861.861v19.84H28.546V98.472a.862.862,0,1,0-1.724,0v23.286a.864.864,0,0,0,.863.863H63.339a.862.862,0,1,0,0-1.724H49.247v-6.038h.863A15.454,15.454,0,0,0,59.1,111.98l4.194,4.194a2.6,2.6,0,0,0,.5,2.943l7.924,7.926a2.58,2.58,0,0,0,3.655,0l2.436-2.436a2.6,2.6,0,0,0,.01-3.666ZM28.546,82.946V77.771H40.622v5.175ZM47.523,120.9H32V101.921h2.825a15.5,15.5,0,0,0,1.855,5.177h-1.23a.862.862,0,1,0,0,1.724H37.84a15.5,15.5,0,0,0,1.294,1.488l.259.236H35.447a.863.863,0,1,0,0,1.726h6.038a15.147,15.147,0,0,0,6.038,2.36ZM61.085,110.31c.2-.2.389-.433.584-.638l3.966,3.947-1.227,1.24-3.947-3.968C60.654,110.7,60.88,110.546,61.085,110.31Zm15.526,13.067-2.436,2.436a.857.857,0,0,1-1.219,0h0l-7.924-7.936a.862.862,0,0,1,0-1.217l2.436-2.436a.864.864,0,0,1,.615-.248.839.839,0,0,1,.6.248l7.936,7.934a.848.848,0,0,1-.021,1.219Z" transform="translate(-26.822 -76.045)" fill="#fff"/>
    </g>
  </g>
</svg>
