<svg xmlns="http://www.w3.org/2000/svg" width="45.609" height="52.125" viewBox="0 0 45.609 52.125">
  <g id="icon-11" transform="translate(-174.483 -134.715)">
    <path id="Path_15293" data-name="Path 15293" d="M219.278,176.335H175.3a.814.814,0,0,1-.814-.816V149.457a.814.814,0,0,1,1.628,0v25.248h42.352V149.457a.814.814,0,0,1,1.628,0v26.062A.814.814,0,0,1,219.278,176.335Z" transform="translate(0 10.505)" fill="#fff"/>
    <path id="Path_15294" data-name="Path 15294" d="M197.287,164.933a.822.822,0,0,1-.451-.137l-21.991-14.66a.815.815,0,0,1,.905-1.356l21.989,14.66a.815.815,0,0,1-.453,1.493Z" transform="translate(0 10.504)" fill="#fff"/>
    <path id="Path_15295" data-name="Path 15295" d="M187.835,164.933a.815.815,0,0,1-.453-1.493l21.989-14.66a.815.815,0,0,1,.905,1.356L188.286,164.8A.822.822,0,0,1,187.835,164.933Z" transform="translate(9.454 10.504)" fill="#fff"/>
    <path id="Path_15296" data-name="Path 15296" d="M208.772,170.732a.826.826,0,0,1-.451-.137l-19.547-13.032a.815.815,0,0,1,.905-1.356l19.547,13.032a.815.815,0,0,1-.454,1.493Z" transform="translate(10.504 16.107)" fill="#fff"/>
    <path id="Path_15297" data-name="Path 15297" d="M175.3,170.732a.815.815,0,0,1-.453-1.493l19.547-13.03a.814.814,0,1,1,.9,1.354L175.751,170.6A.828.828,0,0,1,175.3,170.732Z" transform="translate(0 16.107)" fill="#fff"/>
    <path id="Path_15298" data-name="Path 15298" d="M203.169,152.14a.826.826,0,0,1-.451-.137L196.2,147.66a.815.815,0,1,1,.9-1.356l6.517,4.343a.815.815,0,0,1-.454,1.493Z" transform="translate(16.107 8.637)" fill="#fff"/>
    <path id="Path_15299" data-name="Path 15299" d="M175.3,152.14a.815.815,0,0,1-.453-1.493l6.517-4.343a.815.815,0,0,1,.9,1.356L175.751,152A.828.828,0,0,1,175.3,152.14Z" transform="translate(0 8.637)" fill="#fff"/>
    <path id="Path_15300" data-name="Path 15300" d="M179.012,165.121a.815.815,0,0,1-.814-.816V135.529a.814.814,0,1,1,1.628,0V164.3A.814.814,0,0,1,179.012,165.121Z" transform="translate(2.801)" fill="#fff"/>
    <path id="Path_15301" data-name="Path 15301" d="M196.656,165.121a.815.815,0,0,1-.816-.816V135.529a.815.815,0,0,1,1.63,0V164.3A.814.814,0,0,1,196.656,165.121Z" transform="translate(16.107)" fill="#fff"/>
    <path id="Path_15302" data-name="Path 15302" d="M209.961,136.343H179.012a.814.814,0,1,1,0-1.628h30.949a.814.814,0,0,1,0,1.628Z" transform="translate(2.801)" fill="#fff"/>
    <path id="Path_15303" data-name="Path 15303" d="M186.9,150.751a.813.813,0,0,1-.649-1.3l4.885-6.515a.814.814,0,0,1,1.3.975l-4.887,6.517A.813.813,0,0,1,186.9,150.751Z" transform="translate(8.754 5.953)" fill="#fff"/>
    <path id="Path_15304" data-name="Path 15304" d="M194.579,150.751a.813.813,0,0,1-.653-.325l-4.887-6.517a.814.814,0,0,1,1.3-.975l4.885,6.515a.811.811,0,0,1-.163,1.138A.8.8,0,0,1,194.579,150.751Z" transform="translate(10.855 5.953)" fill="#fff"/>
    <path id="Path_15305" data-name="Path 15305" d="M184.119,149.7a.814.814,0,0,1-.635-1.323l3.258-4.073a.815.815,0,1,1,1.272,1.019l-3.258,4.072A.818.818,0,0,1,184.119,149.7Z" transform="translate(6.653 7.003)" fill="#fff"/>
    <path id="Path_15306" data-name="Path 15306" d="M188.393,148.65a.818.818,0,0,1-.637-.305l-2.416-3.021a.815.815,0,1,1,1.272-1.019l2.416,3.021a.815.815,0,0,1-.635,1.324Z" transform="translate(8.054 7.003)" fill="#fff"/>
    <path id="Path_15307" data-name="Path 15307" d="M201.809,154.253H182.262a.813.813,0,0,1-.814-.814v-14.66a.813.813,0,0,1,.814-.814h19.547a.812.812,0,0,1,.814.814v14.66A.812.812,0,0,1,201.809,154.253Zm-18.733-1.628h17.917V139.593H183.076Z" transform="translate(5.253 2.451)" fill="#fff"/>
    <path id="Path_15308" data-name="Path 15308" d="M201.809,150.273H182.262a.815.815,0,0,1,0-1.63h19.547a.815.815,0,0,1,0,1.63Z" transform="translate(5.253 10.505)" fill="#fff"/>
    <path id="Path_15309" data-name="Path 15309" d="M201.809,152.13H182.262a.815.815,0,0,1,0-1.63h19.547a.815.815,0,0,1,0,1.63Z" transform="translate(5.253 11.905)" fill="#fff"/>
    <path id="Path_15310" data-name="Path 15310" d="M195.985,153.987h-11.4a.815.815,0,1,1,0-1.63h11.4a.815.815,0,1,1,0,1.63Z" transform="translate(7.003 13.306)" fill="#fff"/>
    <path id="Path_15311" data-name="Path 15311" d="M185.342,143.893a2.036,2.036,0,1,1,2.035-2.035A2.037,2.037,0,0,1,185.342,143.893Zm0-2.444a.408.408,0,1,0,.407.409A.409.409,0,0,0,185.342,141.45Z" transform="translate(6.653 3.852)" fill="#fff"/>
  </g>
</svg>
