<svg xmlns="http://www.w3.org/2000/svg" xmlns:xlink="http://www.w3.org/1999/xlink" width="54.938" height="51.707" viewBox="0 0 54.938 51.707">
  <defs>
    <clipPath id="clip-path">
      <rect id="Rectangle_1481" data-name="Rectangle 1481" width="54.938" height="51.707" transform="translate(139 1830)" fill="#fff" stroke="#707070" stroke-width="1"/>
    </clipPath>
  </defs>
  <g id="Mask_Group_9" data-name="Mask Group 9" transform="translate(-139 -1830)" clip-path="url(#clip-path)">
    <g id="_005-enterprise" data-name="005-enterprise" transform="translate(140.616 1830)">
      <g id="Group_5284" data-name="Group 5284" transform="translate(18.097 17.236)">
        <g id="Group_5283" data-name="Group 5283">
          <rect id="Rectangle_1454" data-name="Rectangle 1454" width="1.724" height="1.724" fill="#fff"/>
        </g>
      </g>
      <g id="Group_5286" data-name="Group 5286" transform="translate(18.097 20.683)">
        <g id="Group_5285" data-name="Group 5285">
          <rect id="Rectangle_1455" data-name="Rectangle 1455" width="1.724" height="1.724" fill="#fff"/>
        </g>
      </g>
      <g id="Group_5288" data-name="Group 5288" transform="translate(18.097 24.13)">
        <g id="Group_5287" data-name="Group 5287">
          <rect id="Rectangle_1456" data-name="Rectangle 1456" width="1.724" height="1.724" fill="#fff"/>
        </g>
      </g>
      <g id="Group_5290" data-name="Group 5290" transform="translate(18.097 27.577)">
        <g id="Group_5289" data-name="Group 5289">
          <rect id="Rectangle_1457" data-name="Rectangle 1457" width="1.724" height="1.724" fill="#fff"/>
        </g>
      </g>
      <g id="Group_5292" data-name="Group 5292" transform="translate(21.544 17.236)">
        <g id="Group_5291" data-name="Group 5291">
          <rect id="Rectangle_1458" data-name="Rectangle 1458" width="1.724" height="1.724" fill="#fff"/>
        </g>
      </g>
      <g id="Group_5294" data-name="Group 5294" transform="translate(21.544 20.683)">
        <g id="Group_5293" data-name="Group 5293">
          <rect id="Rectangle_1459" data-name="Rectangle 1459" width="1.724" height="1.724" fill="#fff"/>
        </g>
      </g>
      <g id="Group_5296" data-name="Group 5296" transform="translate(21.544 24.13)">
        <g id="Group_5295" data-name="Group 5295">
          <rect id="Rectangle_1460" data-name="Rectangle 1460" width="1.724" height="1.724" fill="#fff"/>
        </g>
      </g>
      <g id="Group_5298" data-name="Group 5298" transform="translate(21.544 27.577)">
        <g id="Group_5297" data-name="Group 5297">
          <rect id="Rectangle_1461" data-name="Rectangle 1461" width="1.724" height="1.724" fill="#fff"/>
        </g>
      </g>
      <g id="Group_5300" data-name="Group 5300" transform="translate(24.992 17.236)">
        <g id="Group_5299" data-name="Group 5299">
          <rect id="Rectangle_1462" data-name="Rectangle 1462" width="1.724" height="1.724" fill="#fff"/>
        </g>
      </g>
      <g id="Group_5302" data-name="Group 5302" transform="translate(24.992 20.683)">
        <g id="Group_5301" data-name="Group 5301">
          <rect id="Rectangle_1463" data-name="Rectangle 1463" width="1.724" height="1.724" fill="#fff"/>
        </g>
      </g>
      <g id="Group_5304" data-name="Group 5304" transform="translate(24.992 24.13)">
        <g id="Group_5303" data-name="Group 5303">
          <rect id="Rectangle_1464" data-name="Rectangle 1464" width="1.724" height="1.724" fill="#fff"/>
        </g>
      </g>
      <g id="Group_5306" data-name="Group 5306" transform="translate(24.992 27.577)">
        <g id="Group_5305" data-name="Group 5305">
          <rect id="Rectangle_1465" data-name="Rectangle 1465" width="1.724" height="1.724" fill="#fff"/>
        </g>
      </g>
      <g id="Group_5308" data-name="Group 5308" transform="translate(28.439 17.236)">
        <g id="Group_5307" data-name="Group 5307">
          <rect id="Rectangle_1466" data-name="Rectangle 1466" width="1.724" height="1.724" fill="#fff"/>
        </g>
      </g>
      <g id="Group_5310" data-name="Group 5310" transform="translate(21.544 13.788)">
        <g id="Group_5309" data-name="Group 5309">
          <rect id="Rectangle_1467" data-name="Rectangle 1467" width="1.724" height="1.724" fill="#fff"/>
        </g>
      </g>
      <g id="Group_5312" data-name="Group 5312" transform="translate(24.992 13.788)">
        <g id="Group_5311" data-name="Group 5311">
          <rect id="Rectangle_1468" data-name="Rectangle 1468" width="1.724" height="1.724" fill="#fff"/>
        </g>
      </g>
      <g id="Group_5314" data-name="Group 5314" transform="translate(28.439 13.788)">
        <g id="Group_5313" data-name="Group 5313">
          <rect id="Rectangle_1469" data-name="Rectangle 1469" width="1.724" height="1.724" fill="#fff"/>
        </g>
      </g>
      <g id="Group_5316" data-name="Group 5316" transform="translate(28.439 20.683)">
        <g id="Group_5315" data-name="Group 5315">
          <rect id="Rectangle_1470" data-name="Rectangle 1470" width="1.724" height="1.724" fill="#fff"/>
        </g>
      </g>
      <g id="Group_5318" data-name="Group 5318" transform="translate(28.439 24.13)">
        <g id="Group_5317" data-name="Group 5317">
          <rect id="Rectangle_1471" data-name="Rectangle 1471" width="1.724" height="1.724" fill="#fff"/>
        </g>
      </g>
      <g id="Group_5320" data-name="Group 5320" transform="translate(28.439 27.577)">
        <g id="Group_5319" data-name="Group 5319">
          <rect id="Rectangle_1472" data-name="Rectangle 1472" width="1.724" height="1.724" fill="#fff"/>
        </g>
      </g>
      <g id="Group_5322" data-name="Group 5322" transform="translate(31.886 17.236)">
        <g id="Group_5321" data-name="Group 5321">
          <rect id="Rectangle_1473" data-name="Rectangle 1473" width="1.724" height="1.724" fill="#fff"/>
        </g>
      </g>
      <g id="Group_5324" data-name="Group 5324" transform="translate(31.886 20.683)">
        <g id="Group_5323" data-name="Group 5323">
          <rect id="Rectangle_1474" data-name="Rectangle 1474" width="1.724" height="1.724" fill="#fff"/>
        </g>
      </g>
      <g id="Group_5326" data-name="Group 5326" transform="translate(31.886 24.13)">
        <g id="Group_5325" data-name="Group 5325">
          <rect id="Rectangle_1475" data-name="Rectangle 1475" width="1.724" height="1.724" fill="#fff"/>
        </g>
      </g>
      <g id="Group_5328" data-name="Group 5328" transform="translate(31.886 27.577)">
        <g id="Group_5327" data-name="Group 5327">
          <rect id="Rectangle_1476" data-name="Rectangle 1476" width="1.724" height="1.724" fill="#fff"/>
        </g>
      </g>
      <g id="Group_5330" data-name="Group 5330" transform="translate(0 0)">
        <g id="Group_5329" data-name="Group 5329">
          <path id="Path_14624" data-name="Path 14624" d="M50.846,12.927H37.918V.862A.861.861,0,0,0,37.057,0H14.65a.861.861,0,0,0-.862.861h0V12.927H.862A.861.861,0,0,0,0,13.787H0V44.812a.861.861,0,0,0,.861.862h1.8a5.172,5.172,0,0,0-.078.862v4.309a.861.861,0,0,0,.861.862H48.26a.861.861,0,0,0,.862-.861h0V46.536a5.149,5.149,0,0,0-.078-.862h1.8a.861.861,0,0,0,.862-.861h0V13.788A.861.861,0,0,0,50.846,12.927ZM37.056,37.056a1.724,1.724,0,1,1-1.724-1.724A1.723,1.723,0,0,1,37.056,37.056ZM16.374,35.333a1.724,1.724,0,1,1-1.724,1.724A1.723,1.723,0,0,1,16.374,35.333ZM11.2,49.983H4.309V46.536a3.447,3.447,0,0,1,6.894,0ZM6.032,39.642a1.724,1.724,0,1,1,1.724,1.724A1.723,1.723,0,0,1,6.032,39.642Zm5.3,3.17a5.2,5.2,0,0,0-1.084-.8,3.447,3.447,0,1,0-4.987,0,5.2,5.2,0,0,0-1.978,1.942H1.724V14.65H13.788V34.8a3.4,3.4,0,0,0,.092,4.623A5.185,5.185,0,0,0,11.334,42.812Zm8.487,7.172H12.927V43.951a3.447,3.447,0,0,1,6.894,0Zm10.341,0H21.544V43.951a4.309,4.309,0,0,1,8.618,0Zm-6.894-14.65a2.585,2.585,0,1,1,2.585,2.585A2.585,2.585,0,0,1,23.268,35.333ZM31.1,40.988A6.07,6.07,0,0,0,28.629,38.6a4.309,4.309,0,1,0-5.552,0A6.07,6.07,0,0,0,20.6,40.988a5.2,5.2,0,0,0-1.738-1.564,3.422,3.422,0,0,0-3.355-5.692V1.724H36.195V33.732a3.432,3.432,0,0,0-3.355,5.692A5.205,5.205,0,0,0,31.1,40.988Zm7.678,5.548v3.447H31.886V43.951a3.447,3.447,0,0,1,6.894,0ZM47.4,49.983H40.5V46.536a3.447,3.447,0,0,1,6.894,0ZM42.227,39.642a1.724,1.724,0,1,1,1.724,1.724A1.723,1.723,0,0,1,42.227,39.642Zm7.756,4.309H48.422a5.2,5.2,0,0,0-1.978-1.942,3.447,3.447,0,1,0-4.987,0,5.192,5.192,0,0,0-1.084.8,5.185,5.185,0,0,0-2.547-3.388,3.4,3.4,0,0,0,.092-4.623V14.65H49.983v29.3Z" transform="translate(0 0)" fill="#fff"/>
        </g>
      </g>
      <g id="Group_5332" data-name="Group 5332" transform="translate(40.504 19.821)">
        <g id="Group_5331" data-name="Group 5331">
          <rect id="Rectangle_1477" data-name="Rectangle 1477" width="1.724" height="13.788" fill="#fff"/>
        </g>
      </g>
      <g id="Group_5334" data-name="Group 5334" transform="translate(45.674 19.821)">
        <g id="Group_5333" data-name="Group 5333">
          <rect id="Rectangle_1478" data-name="Rectangle 1478" width="1.724" height="13.788" fill="#fff"/>
        </g>
      </g>
      <g id="Group_5336" data-name="Group 5336" transform="translate(4.309 19.821)">
        <g id="Group_5335" data-name="Group 5335">
          <rect id="Rectangle_1479" data-name="Rectangle 1479" width="1.724" height="13.788" fill="#fff"/>
        </g>
      </g>
      <g id="Group_5338" data-name="Group 5338" transform="translate(9.48 19.821)">
        <g id="Group_5337" data-name="Group 5337">
          <rect id="Rectangle_1480" data-name="Rectangle 1480" width="1.724" height="13.788" fill="#fff"/>
        </g>
      </g>
      <g id="Group_5340" data-name="Group 5340" transform="translate(19.821 3.447)">
        <g id="Group_5339" data-name="Group 5339">
          <path id="Path_14625" data-name="Path 14625" d="M23.471,2.133H13.128a.861.861,0,0,0-.862.861h0V9.889a.861.861,0,0,0,.861.862H23.47a.861.861,0,0,0,.862-.861h0V3A.861.861,0,0,0,23.471,2.133Zm-.863,6.894H13.99V3.857h8.618Z" transform="translate(-12.267 -2.133)" fill="#fff"/>
        </g>
      </g>
    </g>
  </g>
</svg>
