<svg xmlns="http://www.w3.org/2000/svg" width="49.991" height="49.991" viewBox="0 0 49.991 49.991">
  <g id="Group_5768" data-name="Group 5768" transform="translate(-97.046 -11)">
    <path id="Path_15224" data-name="Path 15224" d="M105.839,49.659a4.069,4.069,0,0,0-1.969.5A23.053,23.053,0,0,1,126.632,13.41a.977.977,0,0,0,.386-1.916A25.192,25.192,0,0,0,122.041,11a24.994,24.994,0,0,0-19.616,40.485,4.1,4.1,0,1,0,3.414-1.826Zm1.519,5.62a2.151,2.151,0,1,1,.628-1.519A2.14,2.14,0,0,1,107.358,55.279Z" transform="translate(0)" fill="#fff"/>
    <path id="Path_15225" data-name="Path 15225" d="M133.175,19.127a4.093,4.093,0,1,0-1.443,1.325,23.054,23.054,0,0,1-22.719,36.761.977.977,0,0,0-.382,1.916,25.27,25.27,0,0,0,4.928.486,25,25,0,0,0,19.616-40.487Zm-4.931-.753a2.149,2.149,0,1,1,1.519.628A2.141,2.141,0,0,1,128.244,18.373Z" transform="translate(8.482 1.377)" fill="#fff"/>
    <path id="Path_15226" data-name="Path 15226" d="M114.836,49.61a.976.976,0,0,0,.975.977h6.106a.977.977,0,0,0,.977-.977V47.718a15.257,15.257,0,0,0,3.664-1.519l1.337,1.337a.976.976,0,0,0,1.38,0l4.315-4.319a.974.974,0,0,0,0-1.38L132.256,40.5a15.252,15.252,0,0,0,1.518-3.664h1.885a.977.977,0,0,0,.977-.977V29.755a.977.977,0,0,0-.977-.977h-1.885a15.355,15.355,0,0,0-1.518-3.664l1.327-1.328a.968.968,0,0,0,.286-.689.98.98,0,0,0-.286-.691l-4.319-4.315a.974.974,0,0,0-1.38,0l-1.327,1.327a15.33,15.33,0,0,0-3.664-1.519V16.024a.977.977,0,0,0-.977-.977h-6.106a.976.976,0,0,0-.975.977V17.9a15.343,15.343,0,0,0-3.665,1.519l-1.327-1.327a.976.976,0,0,0-1.38,0l-4.317,4.315a.974.974,0,0,0,0,1.38l1.328,1.328a15.33,15.33,0,0,0-1.519,3.664h-1.882a.977.977,0,0,0-.977.977l0,6.1a.978.978,0,0,0,.977.978h1.885a15.33,15.33,0,0,0,1.519,3.664l-1.335,1.335a.977.977,0,0,0,0,1.38l4.315,4.319a.983.983,0,0,0,.691.286h0a.983.983,0,0,0,.691-.286l1.335-1.337a15.27,15.27,0,0,0,3.665,1.519Zm-3.282-5.465a.978.978,0,0,0-1.221.13l-1.189,1.189-2.935-2.937,1.187-1.189a.973.973,0,0,0,.13-1.219,13.4,13.4,0,0,1-1.85-4.463.976.976,0,0,0-.953-.771h-1.678l0-4.153h1.675a.976.976,0,0,0,.953-.771,13.4,13.4,0,0,1,1.85-4.463.973.973,0,0,0-.13-1.219l-1.18-1.18,2.939-2.935,1.178,1.18a.978.978,0,0,0,1.221.129,13.376,13.376,0,0,1,4.462-1.85.976.976,0,0,0,.771-.953V17h4.153v1.666a.976.976,0,0,0,.771.955,13.385,13.385,0,0,1,4.463,1.85.973.973,0,0,0,1.219-.13l1.18-1.178,2.937,2.935-1.18,1.18a.973.973,0,0,0-.13,1.219,13.4,13.4,0,0,1,1.85,4.463.977.977,0,0,0,.955.771h1.676v4.153h-1.676a.977.977,0,0,0-.955.771,13.363,13.363,0,0,1-1.85,4.463.976.976,0,0,0,.13,1.219l1.187,1.187-2.935,2.939-1.189-1.189a.973.973,0,0,0-1.219-.13,13.4,13.4,0,0,1-4.463,1.85.976.976,0,0,0-.771.955v1.684h-4.153V46.95a.976.976,0,0,0-.771-.955A13.339,13.339,0,0,1,111.554,44.145Z" transform="translate(3.178 3.178)" fill="#fff"/>
    <path id="Path_15227" data-name="Path 15227" d="M122.663,28.549a8.068,8.068,0,1,0-8.068,8.068A8.077,8.077,0,0,0,122.663,28.549Zm-14.183,0a6.115,6.115,0,1,1,6.115,6.115A6.122,6.122,0,0,1,108.48,28.549Z" transform="translate(7.446 7.446)" fill="#fff"/>
    <path id="Path_15228" data-name="Path 15228" d="M116.512,13.927a.978.978,0,0,0,.977-.977.988.988,0,0,0-.287-.691.977.977,0,1,0-.689,1.668Z" transform="translate(14.521 0.765)" fill="#fff"/>
    <path id="Path_15229" data-name="Path 15229" d="M106.465,36.942a.978.978,0,1,0,.689.286A.983.983,0,0,0,106.465,36.942Z" transform="translate(6.63 20.375)" fill="#fff"/>
  </g>
</svg>
