<svg xmlns="http://www.w3.org/2000/svg" width="58.102" height="46.225" viewBox="0 0 58.102 46.225">
  <g id="Group_5787" data-name="Group 5787" transform="translate(-96.046 -74.803)">
    <g id="Group_5774" data-name="Group 5774" transform="translate(115.109 93.866)">
      <g id="Group_5773" data-name="Group 5773">
        <path id="Path_15245" data-name="Path 15245" d="M109.939,84.646a4.05,4.05,0,1,0,4.05,4.05A4.054,4.054,0,0,0,109.939,84.646Zm0,6.4a2.347,2.347,0,1,1,2.347-2.347A2.349,2.349,0,0,1,109.939,91.043Z" transform="translate(-105.889 -84.646)" fill="#fff"/>
      </g>
    </g>
    <g id="Group_5776" data-name="Group 5776" transform="translate(124.97 87.785)">
      <g id="Group_5775" data-name="Group 5775">
        <path id="Path_15246" data-name="Path 15246" d="M123.458,86.408a6.292,6.292,0,0,0-6.155-4.9,6.324,6.324,0,1,0,6.155,4.9Zm-6.349,6.041a4.611,4.611,0,0,1-2.467-.829,4.675,4.675,0,0,1-.137-7.47,11.934,11.934,0,0,1,2.632,7.487C117.136,91.908,117.126,92.177,117.109,92.448Zm1.716-.258c.008-.184.014-.37.014-.554a13.641,13.641,0,0,0-2.777-8.258c.064-.019.13-.035.2-.05a4.658,4.658,0,0,1,1.046-.12,4.621,4.621,0,0,1,1.522,8.982Z" transform="translate(-110.981 -81.506)" fill="#fff"/>
      </g>
    </g>
    <g id="Group_5778" data-name="Group 5778" transform="translate(120.526 101.692)">
      <g id="Group_5777" data-name="Group 5777">
        <path id="Path_15247" data-name="Path 15247" d="M115.918,88.751l-.076-.01a6.388,6.388,0,0,0-7.145,5.87v.017a6.322,6.322,0,0,0,6.314,6.7,6.323,6.323,0,0,0,.906-12.581Zm-5.508,5.917a4.608,4.608,0,0,1,7.127-3.527,11.946,11.946,0,0,1-6.93,5.279A4.5,4.5,0,0,1,110.41,94.668Zm9.178.961a4.668,4.668,0,0,1-4.576,4,4.584,4.584,0,0,1-3.569-1.685,13.641,13.641,0,0,0,7.344-5.6A4.594,4.594,0,0,1,119.588,95.628Z" transform="translate(-108.686 -88.687)" fill="#fff"/>
      </g>
    </g>
    <g id="Group_5780" data-name="Group 5780" transform="translate(105.15 101.692)">
      <g id="Group_5779" data-name="Group 5779">
        <path id="Path_15248" data-name="Path 15248" d="M113.377,94.627v-.014a6.318,6.318,0,0,0-7.22-5.862,6.268,6.268,0,0,0-4.119,2.425,6.331,6.331,0,0,0,1.2,8.862,6.268,6.268,0,0,0,3.827,1.294A6.383,6.383,0,0,0,113.377,94.627Zm-6.314,5a4.62,4.62,0,0,1-3.775-7.28,13.641,13.641,0,0,0,7.344,5.6A4.584,4.584,0,0,1,107.063,99.63Zm4.621-4.443V95.2a4.579,4.579,0,0,1-.217,1.22,11.952,11.952,0,0,1-6.93-5.279,4.584,4.584,0,0,1,1.846-.7l.031,0A4.709,4.709,0,0,1,111.684,95.187Z" transform="translate(-100.747 -88.687)" fill="#fff"/>
      </g>
    </g>
    <g id="Group_5782" data-name="Group 5782" transform="translate(100.706 87.785)">
      <g id="Group_5781" data-name="Group 5781">
        <path id="Path_15249" data-name="Path 15249" d="M110.035,84.339a6.376,6.376,0,0,0-5.262-2.833,6.324,6.324,0,0,0-5.359,9.674,6.381,6.381,0,0,0,5.369,2.975,6.287,6.287,0,0,0,6.012-4.381A6.4,6.4,0,0,0,110.035,84.339Zm-6.786,7.851a4.62,4.62,0,0,1,2.764-8.812,13.641,13.641,0,0,0-2.777,8.258C103.236,91.821,103.241,92.007,103.249,92.191Zm6.141-4.123a4.655,4.655,0,0,1-4.425,4.381c-.017-.271-.027-.54-.027-.811a11.938,11.938,0,0,1,2.632-7.487l.062.048A4.7,4.7,0,0,1,109.39,88.068Z" transform="translate(-98.452 -81.506)" fill="#fff"/>
      </g>
    </g>
    <g id="Group_5784" data-name="Group 5784" transform="translate(112.835 78.901)">
      <g id="Group_5783" data-name="Group 5783">
        <path id="Path_15250" data-name="Path 15250" d="M111.038,76.919a6.314,6.314,0,0,0-6.2,7.549,6.323,6.323,0,0,0,12.525-1.226A6.331,6.331,0,0,0,111.038,76.919Zm4.255,8.126a4.621,4.621,0,0,1-8.51,0l0-.008c-.006-.014-.1-.248-.1-.25a11.989,11.989,0,0,1,8.711,0Zm-4.255-2.781a13.582,13.582,0,0,0-4.617.8,4.62,4.62,0,0,1,9.234,0A13.582,13.582,0,0,0,111.038,82.264Z" transform="translate(-104.715 -76.919)" fill="#fff"/>
      </g>
    </g>
    <g id="Group_5786" data-name="Group 5786" transform="translate(96.046 74.803)">
      <g id="Group_5785" data-name="Group 5785">
        <path id="Path_15251" data-name="Path 15251" d="M153.3,106.956h-3.552a11.725,11.725,0,0,0-4.137.686.851.851,0,0,0,.591,1.6,10.074,10.074,0,0,1,3.546-.579h2.7V112.3h-2.7a5.845,5.845,0,0,0-2.973.676,12.878,12.878,0,0,0-2.795,2.3,13.727,13.727,0,0,1-9.769,4.046H127.86q.97-.4,1.9-.877a23,23,0,0,0,4.174-2.764h.271a10.105,10.105,0,0,0,7.193-2.979,24.807,24.807,0,0,1,2-1.826.851.851,0,0,0-1.065-1.329,26.465,26.465,0,0,0-2.134,1.95,8.416,8.416,0,0,1-4.274,2.307,23.095,23.095,0,0,0-2.051-33.716.852.852,0,0,0-1.085,1.313,21.412,21.412,0,0,1-12.943,37.909c-.229.008-.457.012-.688.012A21.41,21.41,0,1,1,130.07,79.492a.85.85,0,1,0,.868-1.462,23.113,23.113,0,1,0-11.779,43c.2,0,.4,0,.6-.008a1.056,1.056,0,0,0,.11.008h14.337a15.408,15.408,0,0,0,10.971-4.545c2.065-2.063,2.831-2.481,4.565-2.481H153.3a.85.85,0,0,0,.85-.85v-5.343A.852.852,0,0,0,153.3,106.956Z" transform="translate(-96.046 -74.803)" fill="#fff"/>
      </g>
    </g>
  </g>
</svg>
