<svg xmlns="http://www.w3.org/2000/svg" width="64.825" height="64.825" viewBox="0 0 64.825 64.825">
  <g id="_012-digital-marketing" data-name="012-digital-marketing" transform="translate(-0.001)">
    <g id="Group_5643" data-name="Group 5643" transform="translate(29.666 54.425)">
      <g id="Group_5642" data-name="Group 5642">
        <path id="Path_14977" data-name="Path 14977" d="M236.462,430.23a1.265,1.265,0,1,0,.371.895A1.276,1.276,0,0,0,236.462,430.23Z" transform="translate(-234.301 -429.859)" fill="#fff"/>
      </g>
    </g>
    <g id="Group_5645" data-name="Group 5645" transform="translate(0.001 32.534)">
      <g id="Group_5644" data-name="Group 5644">
        <path id="Path_14978" data-name="Path 14978" d="M37.855,267.54v-9.316a1.266,1.266,0,0,0-1.739-1.174L14.3,265.836H7.273a7.272,7.272,0,0,0,0,14.544H8.11v7.6a1.266,1.266,0,0,0,1.266,1.266h5.169a1.266,1.266,0,0,0,1.266-1.266V280.99l20.306,8.167a1.266,1.266,0,0,0,1.738-1.175v-9.316a5.705,5.705,0,0,0,0-11.127ZM13.278,286.717H10.642v-6.337h2.637v6.337Zm0-8.869H7.273a4.74,4.74,0,1,1,0-9.479h6.006Zm22.045,8.262h0l-19.512-7.848v-10.3l13.855-5.58v12.565a1.266,1.266,0,0,0,2.532,0V261.357l3.125-1.259Zm2.532-10.1v-5.82a3.173,3.173,0,0,1,0,5.82Z" transform="translate(-0.001 -256.958)" fill="#fff"/>
      </g>
    </g>
    <g id="Group_5647" data-name="Group 5647" transform="translate(45.94 47.451)">
      <g id="Group_5646" data-name="Group 5646">
        <path id="Path_14979" data-name="Path 14979" d="M371.27,374.775H364.1a1.266,1.266,0,1,0,0,2.532h7.168a1.266,1.266,0,0,0,0-2.532Z" transform="translate(-362.835 -374.775)" fill="#fff"/>
      </g>
    </g>
    <g id="Group_5649" data-name="Group 5649" transform="translate(43.861 37.802)">
      <g id="Group_5648" data-name="Group 5648">
        <path id="Path_14980" data-name="Path 14980" d="M351.052,298.941a1.267,1.267,0,0,0-1.791,0l-2.473,2.473a1.266,1.266,0,1,0,1.791,1.791l2.473-2.473A1.266,1.266,0,0,0,351.052,298.941Z" transform="translate(-346.418 -298.57)" fill="#fff"/>
      </g>
    </g>
    <g id="Group_5651" data-name="Group 5651" transform="translate(43.872 54.426)">
      <g id="Group_5650" data-name="Group 5650">
        <path id="Path_14981" data-name="Path 14981" d="M351.216,432.79l-2.555-2.555a1.266,1.266,0,1,0-1.791,1.791l2.555,2.556a1.266,1.266,0,0,0,1.791-1.791Z" transform="translate(-346.499 -429.864)" fill="#fff"/>
      </g>
    </g>
    <g id="Group_5653" data-name="Group 5653" transform="translate(6.838)">
      <g id="Group_5652" data-name="Group 5652">
        <path id="Path_14982" data-name="Path 14982" d="M106.924,0H83.375A5.07,5.07,0,0,0,78.31,5.064v.506H57.04A3.042,3.042,0,0,0,54,8.61v20a3.042,3.042,0,0,0,3.039,3.039h1.308v3.883a1.266,1.266,0,0,0,2.161.9l4.778-4.778h25.15a3.042,3.042,0,0,0,3.039-3.039v-3.8h13.449a5.07,5.07,0,0,0,5.064-5.064V5.064A5.07,5.07,0,0,0,106.924,0ZM90.944,28.614a.507.507,0,0,1-.506.506H64.763a1.266,1.266,0,0,0-.9.371L60.88,32.479V30.387a1.266,1.266,0,0,0-1.266-1.266H57.04a.507.507,0,0,1-.506-.506v-20A.507.507,0,0,1,57.04,8.1H78.31V19.751a5.07,5.07,0,0,0,5.064,5.064h7.569Zm18.513-8.863a2.535,2.535,0,0,1-2.532,2.532H83.375a2.535,2.535,0,0,1-2.532-2.532V5.064a2.535,2.535,0,0,1,2.532-2.532h23.55a2.535,2.535,0,0,1,2.532,2.532Z" transform="translate(-54.001)" fill="#fff"/>
      </g>
    </g>
    <g id="Group_5655" data-name="Group 5655" transform="translate(42.509 6.139)">
      <g id="Group_5654" data-name="Group 5654">
        <path id="Path_14983" data-name="Path 14983" d="M346.3,53.658l-8.665-5a1.266,1.266,0,0,0-1.9,1.1V59.758a1.266,1.266,0,0,0,1.9,1.1l8.665-5a1.266,1.266,0,0,0,0-2.193Zm-8.032,3.906v-5.62l4.867,2.81Z" transform="translate(-335.736 -48.486)" fill="#fff"/>
      </g>
    </g>
    <g id="Group_5657" data-name="Group 5657" transform="translate(13.233 13.294)">
      <g id="Group_5656" data-name="Group 5656">
        <path id="Path_14984" data-name="Path 14984" d="M118.439,105H105.778a1.266,1.266,0,1,0,0,2.532h12.661a1.266,1.266,0,1,0,0-2.532Z" transform="translate(-104.512 -105)" fill="#fff"/>
      </g>
    </g>
    <g id="Group_5659" data-name="Group 5659" transform="translate(25.894 20.384)">
      <g id="Group_5658" data-name="Group 5658">
        <path id="Path_14985" data-name="Path 14985" d="M206.672,161.371a1.265,1.265,0,1,0,.371.9A1.275,1.275,0,0,0,206.672,161.371Z" transform="translate(-204.511 -161)" fill="#fff"/>
      </g>
    </g>
    <g id="Group_5661" data-name="Group 5661" transform="translate(13.233 20.384)">
      <g id="Group_5660" data-name="Group 5660">
        <path id="Path_14986" data-name="Path 14986" d="M113.69,161h-7.912a1.266,1.266,0,1,0,0,2.532h7.912a1.266,1.266,0,1,0,0-2.532Z" transform="translate(-104.512 -161)" fill="#fff"/>
      </g>
    </g>
  </g>
</svg>
