<svg xmlns="http://www.w3.org/2000/svg" width="46.66" height="46.66" viewBox="0 0 46.66 46.66">
  <g id="Group_5789" data-name="Group 5789" transform="translate(-246.796 -70)">
    <path id="Path_15259" data-name="Path 15259" d="M292.771,81.118h-1.913V79.432a.683.683,0,0,0-.683-.683H284.38V72a2.008,2.008,0,0,0-2-2h-2.825a2.008,2.008,0,0,0-2.006,2v6.744H266.51a7.967,7.967,0,0,0-12.818,0h-3.616a.684.684,0,0,0-.683.683v1.686h-1.913a.683.683,0,0,0-.683.683V114.61a.683.683,0,0,0,.683.683h20.714a2.051,2.051,0,0,0,3.866,0h3.883a.684.684,0,1,0,0-1.368h-3.766v-1.548h18a.683.683,0,0,0,.683-.683V87.467a.683.683,0,1,0-1.366,0v20.809H270.809V80.115h6.736V93.721a1.131,1.131,0,0,0,.625,1.008,4.783,4.783,0,0,0,.482,2.96h-4.424a.683.683,0,1,0,0,1.366h5.208c.182.267.385.542.615.828a1.163,1.163,0,0,0,.913.435h0a1.163,1.163,0,0,0,.913-.435c.23-.287.433-.562.615-.828h3.583a.683.683,0,1,0,0-1.366h-2.8a4.775,4.775,0,0,0,.483-2.96,1.132,1.132,0,0,0,.623-1.008v-13.6h5.111v4.464a.683.683,0,1,0,1.366,0v-2.1h1.23v31.442H278.875a.683.683,0,1,0,0,1.366h13.9a.685.685,0,0,0,.685-.683V81.8A.685.685,0,0,0,292.771,81.118Zm-42.01,29.891v-1.366h18.681v1.366Zm9.34-34.128a6.607,6.607,0,1,1-6.607,6.607A6.615,6.615,0,0,1,260.1,76.881Zm-.683,14.551c.225.02.453.03.683.03s.458-.01.683-.03v10.373a.683.683,0,0,1-1.367,0Zm-11.255-8.947h1.23v19.549a.684.684,0,0,0,1.368,0V80.115h2.115a7.974,7.974,0,0,0,5.176,11.078v10.612a2.05,2.05,0,1,0,4.1,0V91.193a7.974,7.974,0,0,0,5.176-11.078h2.115v28.161H250.76v-3.281a.684.684,0,0,0-1.368,0v6.7a.684.684,0,0,0,.683.683h18v1.548H248.162Zm22.647,32.125a.684.684,0,0,1-1.368,0v-2.233h1.368Zm18.682-4.968v1.366H270.809v-1.366ZM279.109,93.483h-.2V92.117h4.1v1.366Zm-.2-17.861h4.1v1.366h-4.1Zm0,15.128V78.355h4.1V90.75Zm.638-19.384h2.825a.639.639,0,0,1,.638.638v2.25h-4.1V72A.638.638,0,0,1,279.551,71.366Zm-.008,23.485h.737v1.138a.683.683,0,1,0,1.366,0V94.851h.738c.153.528.238,1.835-1.421,3.983C279.3,96.686,279.388,95.38,279.543,94.851Z" transform="translate(0)" fill="#fff"/>
    <path id="Path_15260" data-name="Path 15260" d="M263.531,86.05h1.761a.683.683,0,1,0,0-1.366h-1.761a.683.683,0,1,0,0,1.366Z" transform="translate(10.696 9.786)" fill="#fff"/>
    <path id="Path_15261" data-name="Path 15261" d="M276.061,89.231a.683.683,0,0,0-.683-.683H263.531a.684.684,0,1,0,0,1.368h11.847A.683.683,0,0,0,276.061,89.231Z" transform="translate(10.696 12.361)" fill="#fff"/>
    <path id="Path_15262" data-name="Path 15262" d="M263.531,90.48a.684.684,0,1,0,0,1.368h4.2a.684.684,0,0,0,0-1.368Z" transform="translate(10.696 13.648)" fill="#fff"/>
  </g>
</svg>
