<svg xmlns="http://www.w3.org/2000/svg" width="50.575" height="52.738" viewBox="0 0 50.575 52.738">
  <g id="Group_5771" data-name="Group 5771" transform="translate(-247.796 -14.503)">
    <g id="Group_5769" data-name="Group 5769" transform="translate(247.796 14.503)">
      <path id="Path_15230" data-name="Path 15230" d="M295.075,20.412H294v-.953a4.968,4.968,0,0,0-4.956-4.956h0l-32.936.045c-.239,0-.48,0-.724,0a12.087,12.087,0,0,0-4.791.58c-1.7.733-2.645,2.26-2.793,4.538l0,.053v43c0,.054,0,.109,0,.161s0,.107,0,.16v0l0,0a4.45,4.45,0,0,0,4.8,4.2h36.486a4.938,4.938,0,0,0,4.9-4.958l0-7.238L294,39.061h1.08a3.3,3.3,0,0,0,3.3-3.3V23.708A3.3,3.3,0,0,0,295.075,20.412ZM255.332,16.1V58.443H252.6a4.975,4.975,0,0,0-3.245,1.074V19.739C249.6,16.242,251.786,16.071,255.332,16.1Zm41.481,19.666a1.74,1.74,0,0,1-1.737,1.737h-15.4a.779.779,0,0,0,0,1.558h12.764l-.008,15.982a3.4,3.4,0,0,1-3.4,3.4H272.653a.778.778,0,1,0,0,1.556h16.378a4.942,4.942,0,0,0,3.4-1.354l0,3.637a3.379,3.379,0,0,1-3.348,3.4H252.6c-2.167,0-3.178-1.319-3.245-2.669v-.284A2.944,2.944,0,0,1,252.6,60h3.254a.787.787,0,0,0,.255.043.8.8,0,0,0,.257-.043H269.09a.778.778,0,0,0,0-1.556h-12.2V16.1l32.156-.043a3.41,3.41,0,0,1,3.4,3.4v.953H264.268a3.3,3.3,0,0,0-3.3,3.3V35.766a3.3,3.3,0,0,0,3.3,3.3h11.838a.779.779,0,0,0,0-1.558H264.268a1.739,1.739,0,0,1-1.737-1.737V23.708a1.739,1.739,0,0,1,1.737-1.739h30.808a1.74,1.74,0,0,1,1.737,1.739Z" transform="translate(-247.796 -14.503)" fill="#fff" fill-rule="evenodd"/>
    </g>
    <g id="Group_5770" data-name="Group 5770" transform="translate(264.503 26.785)">
      <path id="Path_15231" data-name="Path 15231" d="M256.385,23.651v-.016a2.814,2.814,0,0,1,2.92-2.819,3.159,3.159,0,0,1,2.2.79l-.883,1.06a1.912,1.912,0,0,0-1.309-.51,1.424,1.424,0,0,0-1.387,1.486v.016a1.433,1.433,0,0,0,1.473,1.5,1.526,1.526,0,0,0,.868-.226v-.657H259.2v-1.1h2.5V25.62a3.668,3.668,0,0,1-2.356.836A2.788,2.788,0,0,1,256.385,23.651Z" transform="translate(-256.385 -20.817)" fill="#fff"/>
      <path id="Path_15232" data-name="Path 15232" d="M259.559,23.918V20.872h1.525v3.015c0,.782.395,1.153,1,1.153s1-.356,1-1.115V20.872h1.525v3.007a2.266,2.266,0,0,1-2.54,2.517A2.24,2.24,0,0,1,259.559,23.918Z" transform="translate(-253.385 -20.765)" fill="#fff"/>
      <path id="Path_15233" data-name="Path 15233" d="M262.681,20.872h1.511V26.3h-1.511Z" transform="translate(-250.434 -20.765)" fill="#fff"/>
      <path id="Path_15234" data-name="Path 15234" d="M264.019,20.872h2.091c1.937,0,3.06,1.117,3.06,2.68v.016c0,1.566-1.138,2.727-3.091,2.727h-2.06Zm2.114,4.091a1.33,1.33,0,0,0,1.5-1.371v-.016a1.334,1.334,0,0,0-1.5-1.371h-.611v2.758Z" transform="translate(-249.17 -20.765)" fill="#fff"/>
      <path id="Path_15235" data-name="Path 15235" d="M267.117,20.872h4.363v1.28h-2.875v.821h2.6v1.185h-2.6v.86h2.912V26.3h-4.4Z" transform="translate(-246.241 -20.765)" fill="#fff"/>
      <path id="Path_15236" data-name="Path 15236" d="M269.614,25.534l.836-1a2.8,2.8,0,0,0,1.758.652c.4,0,.621-.14.621-.372V24.8c0-.226-.179-.35-.914-.519-1.153-.265-2.044-.589-2.044-1.7V22.56c0-1.008.8-1.735,2.1-1.735a3.413,3.413,0,0,1,2.231.72l-.751,1.062a2.711,2.711,0,0,0-1.519-.535c-.364,0-.543.154-.543.348v.016c0,.247.187.356.938.527,1.247.27,2.023.673,2.023,1.688v.016c0,1.107-.875,1.766-2.192,1.766A3.789,3.789,0,0,1,269.614,25.534Z" transform="translate(-243.881 -20.809)" fill="#fff"/>
    </g>
  </g>
</svg>
