<svg id="Time-2" xmlns="http://www.w3.org/2000/svg" width="16.297" height="16.297" viewBox="0 0 16.297 16.297">
  <g id="Group_4658" data-name="Group 4658">
    <path id="Path_9623" data-name="Path 9623" d="M8.149,0A8.149,8.149,0,1,0,16.3,8.149,8.158,8.158,0,0,0,8.149,0Zm0,14.563a6.415,6.415,0,1,1,6.415-6.415A6.422,6.422,0,0,1,8.149,14.563Z" fill="#ff4e00"/>
    <path id="Path_9624" data-name="Path 9624" d="M49.07,21.9H45.408V17.5a.671.671,0,1,0-1.342,0v5.074a.671.671,0,0,0,.671.671H49.07a.671.671,0,0,0,0-1.342Z" transform="translate(-36.675 -14.007)" fill="#ff4e00"/>
  </g>
</svg>
