<svg xmlns="http://www.w3.org/2000/svg" width="48.83" height="48.83" viewBox="0 0 48.83 48.83">
  <g id="icon-12" transform="translate(-246.417 -134.931)">
    <path id="Path_15312" data-name="Path 15312" d="M294.461,166.576h-3.44v-2.462a5.415,5.415,0,0,0-1.752-3.978l-.056-.051V149.466a8.586,8.586,0,0,0-17.168,0v10.619l-.058.051a5.418,5.418,0,0,0-1.749,3.978v2.462h-2.143a.787.787,0,1,0,0,1.574h4.641v6.32a.788.788,0,0,0,.786.788h3.362a.787.787,0,0,0,0-1.574h-2.576V168.15h12.643v5.534h-2.768a.787.787,0,0,0,0,1.574h3.554a.788.788,0,0,0,.788-.788v-6.32h5.15v9.762H269.5v-3.275a5.946,5.946,0,0,0-4.866-5.848l-2.522-.467a1.257,1.257,0,0,1-.351-.114l-.253-.165a1.343,1.343,0,0,1-.494-1.022l0-.1.092-.051a6.388,6.388,0,0,0,3.211-5.522v-3.708a6.358,6.358,0,0,0-12.716,0v3.708a6.384,6.384,0,0,0,3.211,5.52l.09.049,0,.1a1.31,1.31,0,0,1-.464,1l-.245.166a1.273,1.273,0,0,1-.391.136l-2.52.467a5.946,5.946,0,0,0-4.866,5.848V178.7a.787.787,0,0,0,.786.784h47.258a.787.787,0,0,0,.786-.784V167.364A.788.788,0,0,0,294.461,166.576Zm-20.844-17.11a7.014,7.014,0,0,1,14.023,0v9.639l-.233-.08a4.869,4.869,0,0,0-.8-.214l-2.255-.416a1.12,1.12,0,0,1-.9-.953l-.015-.115.1-.061a5.808,5.808,0,0,0,2.87-4.989v-3.092a.778.778,0,0,0-.385-.676l-3.343-1.968a.789.789,0,0,0-1,.177,4.7,4.7,0,0,1-3.6,1.681h-2.44a.788.788,0,0,0-.788.786v3.092a5.808,5.808,0,0,0,2.87,4.989l.1.061-.015.114a1.116,1.116,0,0,1-.9.953l-2.252.416a5.519,5.519,0,0,0-.8.216l-.234.08Zm9,6.525-.083.032a.665.665,0,0,0-.314.127l-.1.063a4.251,4.251,0,0,1-2.919.025l-.1-.049a.678.678,0,0,0-.306-.151L278.68,156a4.19,4.19,0,0,1-2.26-3.727v-2.3h1.657a6.257,6.257,0,0,0,4.255-1.666l.1-.088,2.411,1.414v2.644A4.192,4.192,0,0,1,282.613,155.991Zm.139,3.3-2.122,2.9-2.124-2.9.105-.105a2.706,2.706,0,0,0,.664-1.124l.046-.155.156.032a5.784,5.784,0,0,0,2.3,0l.156-.032.044.153a2.718,2.718,0,0,0,.669,1.126Zm6.7,7.283H271.81v-2.462a3.821,3.821,0,0,1,3.126-3.758l2.112-.392,2.946,4.019a.773.773,0,0,0,.627.3h.01a.78.78,0,0,0,.632-.294l2.948-4.022,2.111.392a3.821,3.821,0,0,1,3.126,3.758Zm-36.27-5.23v-3.708a4.785,4.785,0,0,1,9.57,0v3.708a4.785,4.785,0,0,1-9.57,0Zm6.595,7-1.81.516-1.81-.516.078-.182a3.112,3.112,0,0,0,.163-.484l.039-.168.168.037a6.416,6.416,0,0,0,2.72,0l.17-.036.037.165a2.8,2.8,0,0,0,.165.481Zm8.16,9.561H247.988v-1.886h6.744a.786.786,0,0,0,0-1.572h-6.743l.017-.19a4.377,4.377,0,0,1,3.562-3.926l2.523-.47a2.874,2.874,0,0,0,.7-.224l.061-.029,3.174.849.034.01,3-.857.059.027a2.982,2.982,0,0,0,.708.228l2.52.467a4.372,4.372,0,0,1,3.578,4.3Z" transform="translate(0 4.279)" fill="#fff"/>
    <path id="Path_15313" data-name="Path 15313" d="M250.037,152.641h.221v3.416a.785.785,0,0,0,1.34.557l3.975-3.973h6.471a3.623,3.623,0,0,0,3.62-3.62v-2.528H267.4l2.875,2.878a.79.79,0,0,0,.852.168.779.779,0,0,0,.491-.727v-2.319h.173a3.648,3.648,0,0,0,3.668-3.62v-4.321a3.623,3.623,0,0,0-3.62-3.62H259.833a3.623,3.623,0,0,0-3.62,3.62v1.567h-6.176a3.623,3.623,0,0,0-3.62,3.62v5.282A3.623,3.623,0,0,0,250.037,152.641Zm7.75-14.09a2.048,2.048,0,0,1,2.046-2.048h12.006a2.049,2.049,0,0,1,2.048,2.048v4.321a2.05,2.05,0,0,1-2.048,2.048h-1.007a.788.788,0,0,0-.786.786v1.207l-1.764-1.766a.8.8,0,0,0-.555-.228h-2.063v-1.182a3.623,3.623,0,0,0-3.62-3.62h-4.257Zm-9.8,5.187a2.05,2.05,0,0,1,2.049-2.046h12.006a2.049,2.049,0,0,1,2.048,2.046v5.282a2.05,2.05,0,0,1-2.048,2.049h-6.8a.8.8,0,0,0-.555.228l-2.861,2.863v-2.306a.788.788,0,0,0-.788-.784h-1.007a2.052,2.052,0,0,1-2.049-2.049Z" transform="translate(0)" fill="#fff"/>
    <path id="Path_15314" data-name="Path 15314" d="M267.421,161.638l.027-.027a.792.792,0,0,0,.228-.554.785.785,0,0,0-1.343-.554.79.79,0,0,0-.231.554.793.793,0,0,0,1.319.581Z" transform="translate(13.739 17.691)" fill="#fff"/>
    <path id="Path_15315" data-name="Path 15315" d="M249.465,141.764h7.493a.786.786,0,1,0,0-1.572h-7.493a.786.786,0,1,0,0,1.572Z" transform="translate(1.579 3.672)" fill="#fff"/>
    <path id="Path_15316" data-name="Path 15316" d="M255.291,143.792a.771.771,0,0,0,.786-.779.785.785,0,0,0-1.345-.555.8.8,0,0,0-.226.555.814.814,0,0,0,.229.559A.8.8,0,0,0,255.291,143.792Z" transform="translate(5.647 5.096)" fill="#fff"/>
    <path id="Path_15317" data-name="Path 15317" d="M249.465,143.8h6.342a.786.786,0,1,0,0-1.572h-6.342a.786.786,0,1,0,0,1.572Z" transform="translate(1.579 5.094)" fill="#fff"/>
    <path id="Path_15318" data-name="Path 15318" d="M253.055,160.951l0,0a.806.806,0,0,0-.228.555.79.79,0,0,0,.231.559.779.779,0,0,0,.554.219.771.771,0,0,0,.79-.778.8.8,0,0,0-.231-.557A.81.81,0,0,0,253.055,160.951Z" transform="translate(4.472 18.008)" fill="#fff"/>
  </g>
</svg>
