<svg xmlns="http://www.w3.org/2000/svg" width="23.066" height="13.749" viewBox="0 0 23.066 13.749">
  <g id="Password-Eye" transform="translate(0 -98.725)" opacity="0.5">
    <path id="Path_15835" data-name="Path 15835" d="M11.533,98.725c-4.407,0-8.4,2.411-11.352,6.327a.913.913,0,0,0,0,1.09c2.949,3.921,6.945,6.332,11.352,6.332s8.4-2.411,11.352-6.327a.913.913,0,0,0,0-1.09C19.936,101.136,15.94,98.725,11.533,98.725Zm.316,11.716a4.851,4.851,0,1,1,4.525-4.525A4.854,4.854,0,0,1,11.849,110.441ZM11.7,108.2a2.612,2.612,0,1,1,2.439-2.439A2.608,2.608,0,0,1,11.7,108.2Z" fill="#fff"/>
  </g>
</svg>
