<svg xmlns="http://www.w3.org/2000/svg" width="809" height="64" viewBox="0 0 809 64"><g transform="translate(0 0)"><g transform="scale(0.9831787061368227)"><g class="nc-icon-wrapper"><g id="Group_5788" data-name="Group 5788" transform="translate(-172.483 -73.224)"><path id="Path_15252" data-name="Path 15252" d="M189.162 78.924a1.093 1.093 0 1 0-1.093-1.093 1.092 1.092 0 0 0 1.093 1.093z" transform="translate(13.477 3.039)" fill="#fff"/><path id="Path_15253" data-name="Path 15253" d="M225.148 86.335h-14.86V76.5a3.281 3.281 0 0 0-3.278-3.276h-31.249a3.281 3.281 0 0 0-3.278 3.276v21.853a3.282 3.282 0 0 0 3.278 3.278h3.278v5.464a1.093 1.093 0 0 0 1.865.772l6.236-6.236h3.481v9.833a3.282 3.282 0 0 0 3.278 3.278h19.87l6.236 6.236a1.093 1.093 0 0 0 1.865-.772v-5.464h3.278a3.28 3.28 0 0 0 3.276-3.278V89.613a3.28 3.28 0 0 0-3.276-3.278zm-45.016 2.184h10.677a3.273 3.273 0 0 0-.188 1.093v3.28h-10.489a1.092 1.092 0 1 0 0 2.184h10.489v4.371h-3.933a1.094 1.094 0 0 0-.774.321l-4.69 4.69v-3.918a1.092 1.092 0 0 0-1.093-1.093h-4.371a1.094 1.094 0 0 1-1.093-1.093V76.5a1.093 1.093 0 0 1 1.093-1.091h31.25a1.093 1.093 0 0 1 1.09 1.091v9.835h-27.968a1.092 1.092 0 1 0 0 2.184zm46.109 22.945a1.093 1.093 0 0 1-1.093 1.093h-4.371a1.093 1.093 0 0 0-1.093 1.093v3.918l-4.69-4.69a1.094 1.094 0 0 0-.774-.321H193.9a1.094 1.094 0 0 1-1.093-1.093V89.613a1.094 1.094 0 0 1 1.093-1.093h31.249a1.094 1.094 0 0 1 1.093 1.093z" fill="#fff"/><path id="Path_15254" data-name="Path 15254" d="M177.092 78.924h18.138a1.093 1.093 0 1 0 0-2.185h-18.138a1.093 1.093 0 1 0 0 2.185z" transform="translate(3.04 3.039)" fill="#fff"/><path id="Path_15255" data-name="Path 15255" d="M186.545 85.955h13.6c.453 0 .82-.489.82-1.093s-.367-1.091-.82-1.091h-13.6c-.453 0-.819.489-.819 1.091s.365 1.093.819 1.093z" transform="translate(11.451 9.12)" fill="#fff"/><path id="Path_15256" data-name="Path 15256" d="M209.326 87.286h-22.507a1.093 1.093 0 1 0 0 2.185h22.507a1.093 1.093 0 1 0 0-2.185z" transform="translate(11.451 12.16)" fill="#fff"/><path id="Path_15257" data-name="Path 15257" d="M209.326 90.8h-22.507a1.093 1.093 0 1 0 0 2.185h22.507a1.093 1.093 0 1 0 0-2.185z" transform="translate(11.451 15.2)" fill="#fff"/><path id="Path_15258" data-name="Path 15258" d="M200.615 88.557l-.766-1.917 1.544-1.544a.438.438 0 0 0 0-.619.462.462 0 0 0-.222-.119l-1.975-.4-.778-1.557a.457.457 0 0 0-.625-.157.471.471 0 0 0-.159.157l-.778 1.557-1.977.4a.436.436 0 0 0-.341.515.442.442 0 0 0 .117.224l1.545 1.543-.768 1.917a.438.438 0 0 0 .569.569l2.021-.809 2.021.809a.438.438 0 0 0 .569-.242.443.443 0 0 0 0-.324zm-2.428-1.117a.448.448 0 0 0-.326 0l-1.234.5.494-1.238a.435.435 0 0 0-.1-.472l-1.171-1.171 1.385-.278a.438.438 0 0 0 .306-.233l.481-.966.483.966a.434.434 0 0 0 .306.233l1.384.278-1.171 1.171a.438.438 0 0 0-.1.472l.5 1.238z" transform="translate(19.065 7.748)" fill="#fff"/></g></g></g></g><g transform="translate(55 0)"><g transform="scale(0.9996251405722854)"><g class="nc-icon-wrapper"><g id="icon-15" transform="translate(-171.183 -200.833)"><g id="Group_5841" data-name="Group 5841" transform="translate(176.519 212.571)"><g id="Group_5840" data-name="Group 5840"><path id="Path_15341" data-name="Path 15341" d="M185.049 208.744a6.353 6.353 0 0 0-4.582-1.934h-.33a6.351 6.351 0 0 0-4.576 1.934 5.871 5.871 0 0 0-1.656 4.352l.124 2.871a6.137 6.137 0 0 0 6.234 5.782h.081a6.135 6.135 0 0 0 6.232-5.782l.13-2.871a5.871 5.871 0 0 0-1.657-4.352zm-.607 7.135a4 4 0 0 1-4.1 3.735h-.081a4.007 4.007 0 0 1-4.1-3.735l-.037-.872a9.629 9.629 0 0 0 5.579-2.094 4.757 4.757 0 0 0 2.783 1.952zm-1.337-5.043a1.071 1.071 0 0 0-1.988-.4c-.014.022-1.337 2.117-5.075 2.437a3.755 3.755 0 0 1 1.059-2.651 4.215 4.215 0 0 1 3.036-1.28h.33a4.215 4.215 0 0 1 3.036 1.28 3.755 3.755 0 0 1 1.041 2.4 2.524 2.524 0 0 1-1.444-1.786z" transform="translate(-173.9 -206.81)" fill="#fff"/></g></g><g id="Group_5843" data-name="Group 5843" transform="translate(171.183 215.521)"><g id="Group_5842" data-name="Group 5842"><path id="Path_15342" data-name="Path 15342" d="M204.148 209.143a2.953 2.953 0 0 0-4.107 0l-11.913 11.913a1.067 1.067 0 0 1-.756.312h-10.853a5.344 5.344 0 0 0-5.336 5.336v14.938a3.2 3.2 0 0 0 4.27 3.019v1.251a1.066 1.066 0 0 0 1.066 1.066h12.8a1.066 1.066 0 0 0 1.066-1.066v-17.3a1.063 1.063 0 0 1 .287-.727l13.539-14.562a2.954 2.954 0 0 0-.063-4.18zm-1.455 2.685l-.01.012-13.573 14.59a3.2 3.2 0 0 0-.852 2.18v16.234h-10.673v-16.007a1.066 1.066 0 1 0-2.133 0v12.8a1.067 1.067 0 1 1-2.135 0V226.7a3.2 3.2 0 0 1 3.2-3.2h10.853a3.18 3.18 0 0 0 2.264-.939l11.913-11.913a.841.841 0 0 1 1.159 0 .832.832 0 0 1-.014 1.179z" transform="translate(-171.183 -208.312)" fill="#fff"/></g></g><g id="Group_5845" data-name="Group 5845" transform="translate(181.855 231.779)"><g id="Group_5844" data-name="Group 5844"><path id="Path_15343" data-name="Path 15343" d="M177.683 216.59a1.066 1.066 0 0 0-1.066 1.066v12.8a1.066 1.066 0 1 0 2.133 0v-12.8a1.066 1.066 0 0 0-1.067-1.066z" transform="translate(-176.617 -216.59)" fill="#fff"/></g></g><g id="Group_5847" data-name="Group 5847" transform="translate(191.459 200.833)"><g id="Group_5846" data-name="Group 5846"><path id="Path_15344" data-name="Path 15344" d="M222.109 200.833h-37.454a3.179 3.179 0 0 0-3.148 3.2v16.007a1.066 1.066 0 1 0 2.133 0v-12.8h39.483v25.61a1.043 1.043 0 0 1-1.013 1.068h-36.416a1.066 1.066 0 1 0 0 2.133h36.415a3.175 3.175 0 0 0 3.146-3.2v-28.817a3.178 3.178 0 0 0-3.146-3.201zm1.013 4.27H183.64v-1.068a1.043 1.043 0 0 1 1.015-1.066h37.454a1.043 1.043 0 0 1 1.013 1.066z" transform="translate(-181.507 -200.833)" fill="#fff"/></g></g><g id="Group_5849" data-name="Group 5849" transform="translate(229.217 217.436)"><g id="Group_5848" data-name="Group 5848"><path id="Path_15345" data-name="Path 15345" d="M201.6 209.287a.86.86 0 0 0-.862.86v12.275a.861.861 0 0 0 1.722 0v-12.275a.86.86 0 0 0-.86-.86z" transform="translate(-200.733 -209.287)" fill="#fff"/></g></g><g id="Group_5851" data-name="Group 5851" transform="translate(225.772 222.819)"><g id="Group_5850" data-name="Group 5850"><path id="Path_15346" data-name="Path 15346" d="M199.839 212.028a.86.86 0 0 0-.86.86v6.891a.861.861 0 0 0 1.722 0v-6.891a.862.862 0 0 0-.862-.86z" transform="translate(-198.979 -212.028)" fill="#fff"/></g></g><g id="Group_5853" data-name="Group 5853" transform="translate(222.326 221.097)"><g id="Group_5852" data-name="Group 5852"><path id="Path_15347" data-name="Path 15347" d="M198.086 211.151a.862.862 0 0 0-.862.86v8.614a.862.862 0 0 0 1.724 0v-8.614a.862.862 0 0 0-.862-.86z" transform="translate(-197.224 -211.151)" fill="#fff"/></g></g><g id="Group_5855" data-name="Group 5855" transform="translate(218.881 226.264)"><g id="Group_5854" data-name="Group 5854"><path id="Path_15348" data-name="Path 15348" d="M196.332 213.782a.862.862 0 0 0-.862.862v3.445a.861.861 0 0 0 1.722 0v-3.445a.86.86 0 0 0-.86-.862z" transform="translate(-195.47 -213.782)" fill="#fff"/></g></g><g id="Group_5857" data-name="Group 5857" transform="translate(215.436 213.344)"><g id="Group_5856" data-name="Group 5856"><path id="Path_15349" data-name="Path 15349" d="M208.836 207.348a.861.861 0 0 0-1.194.24L204.7 212l-2.716-2.037a.861.861 0 0 0-1.206.167.9.9 0 0 0-.086.137l-3.352 6.709-3.28 2.461a.862.862 0 0 0 1.035 1.379l3.445-2.585a.874.874 0 0 0 .257-.3l2.983-5.966 2.616 1.964a.861.861 0 0 0 1.206-.171l.027-.039 3.445-5.167a.863.863 0 0 0-.238-1.204z" transform="translate(-193.716 -207.203)" fill="#fff"/></g></g><g id="Group_5859" data-name="Group 5859" transform="translate(195.726 209.37)"><g id="Group_5858" data-name="Group 5858"><path id="Path_15350" data-name="Path 15350" d="M197.551 205.18h-12.8a1.067 1.067 0 0 0 0 2.135h12.8a1.067 1.067 0 1 0 0-2.135z" transform="translate(-183.68 -205.18)" fill="#fff"/></g></g><g id="Group_5861" data-name="Group 5861" transform="translate(212.799 209.37)"><g id="Group_5860" data-name="Group 5860"><path id="Path_15351" data-name="Path 15351" d="M195.574 205.18h-2.133a1.067 1.067 0 1 0 0 2.135h2.133a1.067 1.067 0 1 0 0-2.135z" transform="translate(-192.373 -205.18)" fill="#fff"/></g></g><path id="Path_15352" data-name="Path 15352" d="M194.3 207.077a.83.83 0 0 0-.827.829v.831a5.6 5.6 0 1 0 6.365 6.365h.833a.828.828 0 0 0 .827-.827 7.2 7.2 0 0 0-7.198-7.198zm0 11.143a3.945 3.945 0 0 1-.827-7.8v3.857a.828.828 0 0 0 .827.827h3.857a3.967 3.967 0 0 1-3.857 3.116zm.829-4.772V208.8a5.563 5.563 0 0 1 4.653 4.653z" transform="translate(16.884 6.019)" fill="#fff"/></g></g></g></g><g transform="translate(119 0)"><g transform="scale(0.9817027320578161)"><g class="nc-icon-wrapper"><g id="icon-16" transform="translate(-246.296 -197)"><path id="Path_15353" data-name="Path 15353" d="M288.394 227.438h-7.429v-15.959a2.489 2.489 0 0 0-.5-1.486l-4.126-5.5a2.486 2.486 0 0 0-1.981-.991h-25.586a2.479 2.479 0 0 0-2.476 2.476v33.842a2.479 2.479 0 0 0 2.476 2.476h39.622a2.479 2.479 0 0 0 2.476-2.476v-9.905a2.479 2.479 0 0 0-2.476-2.477zm-9.08 13.207h-30.542a.826.826 0 0 1-.825-.825v-33.844a.826.826 0 0 1 .825-.825h25.589a.827.827 0 0 1 .66.33l4.127 5.5a.849.849 0 0 1 .165.5zm9.905-.825a.827.827 0 0 1-.825.825h-7.429v-11.556h7.429a.827.827 0 0 1 .825.825z" transform="translate(0 4.231)" fill="#fff"/><path id="Path_15354" data-name="Path 15354" d="M270.772 221.882v-9.905a2.479 2.479 0 0 0-2.472-2.477v1.651a.827.827 0 0 1 .825.825v9.905z" transform="translate(14.32 8.136)" fill="#fff"/><path id="Path_15355" data-name="Path 15355" d="M292.387 206.905l-9.422-9.422A1.664 1.664 0 0 0 281.8 197h-24.424a2.479 2.479 0 0 0-2.476 2.476v2.476h-4.127a2.479 2.479 0 0 0-2.476 2.476v1.651h1.651v-1.651a.826.826 0 0 1 .825-.825h28.891v-1.651h-23.113v-2.476a.826.826 0 0 1 .825-.825h23.938v8.255a1.653 1.653 0 0 0 1.651 1.651h8.255V242.4h1.651v-34.327a1.646 1.646 0 0 0-.484-1.168zm-9.422-7.087l7.087 7.087h-7.087z" transform="translate(1.302)" fill="#fff"/><path id="Path_15356" data-name="Path 15356" d="M270.8 205h1.651v19.811H270.8z" transform="translate(15.947 5.207)" fill="#fff"/><path id="Path_15357" data-name="Path 15357" d="M252.447 213.1h3.3a1.654 1.654 0 0 0 1.651-1.651v-3.3a1.654 1.654 0 0 0-1.651-1.651h-3.3a1.653 1.653 0 0 0-1.651 1.651v3.3a1.653 1.653 0 0 0 1.651 1.651zm0-4.953h3.3v3.3h-3.3z" transform="translate(2.929 6.184)" fill="#fff"/><path id="Path_15358" data-name="Path 15358" d="M255.8 207h1.651v1.651H255.8z" transform="translate(6.184 6.509)" fill="#fff"/><path id="Path_15359" data-name="Path 15359" d="M257.8 207h8.255v1.651H257.8z" transform="translate(7.485 6.509)" fill="#fff"/><path id="Path_15360" data-name="Path 15360" d="M255.8 209h1.651v1.651H255.8z" transform="translate(6.184 7.811)" fill="#fff"/><path id="Path_15361" data-name="Path 15361" d="M257.8 209h8.255v1.651H257.8z" transform="translate(7.485 7.811)" fill="#fff"/><path id="Path_15362" data-name="Path 15362" d="M252.6 221h-1.651a1.653 1.653 0 0 0-1.651 1.651v1.649a1.653 1.653 0 0 0 1.651 1.651h1.651a1.654 1.654 0 0 0 1.651-1.651v-1.651A1.654 1.654 0 0 0 252.6 221zm-1.651 3.3v-1.651h1.651v1.651z" transform="translate(1.953 15.622)" fill="#fff"/><path id="Path_15363" data-name="Path 15363" d="M261.8 213.651v1.649a1.653 1.653 0 0 0 1.651 1.651h1.649a1.654 1.654 0 0 0 1.651-1.651v-1.651A1.654 1.654 0 0 0 265.1 212h-1.651a1.653 1.653 0 0 0-1.649 1.651zm3.3 1.651h-1.651v-1.651h1.651z" transform="translate(10.089 9.764)" fill="#fff"/><path id="Path_15364" data-name="Path 15364" d="M266.749 219.8v-1.651a1.654 1.654 0 0 0-1.649-1.649h-1.651a1.653 1.653 0 0 0-1.651 1.651v1.649a1.653 1.653 0 0 0 1.651 1.651h1.651a1.654 1.654 0 0 0 1.649-1.651zm-3.3 0v-1.651h1.651v1.651z" transform="translate(10.089 12.693)" fill="#fff"/><path id="Path_15365" data-name="Path 15365" d="M253.3 221h1.651v1.651H253.3z" transform="translate(4.556 15.622)" fill="#fff"/><path id="Path_15366" data-name="Path 15366" d="M255.3 221h13.2v1.651h-13.2z" transform="translate(5.858 15.622)" fill="#fff"/><path id="Path_15367" data-name="Path 15367" d="M253.3 223h1.651v1.651H253.3z" transform="translate(4.556 16.924)" fill="#fff"/><path id="Path_15368" data-name="Path 15368" d="M255.3 223h13.2v1.651h-13.2z" transform="translate(5.858 16.924)" fill="#fff"/><path id="Path_15369" data-name="Path 15369" d="M259.8 216.5h1.651v1.651H259.8z" transform="translate(8.787 12.693)" fill="#fff"/><path id="Path_15370" data-name="Path 15370" d="M250.8 216.5H264v1.651h-13.2z" transform="translate(2.929 12.693)" fill="#fff"/><path id="Path_15371" data-name="Path 15371" d="M259.8 218.5h1.651v1.651H259.8z" transform="translate(8.787 13.995)" fill="#fff"/><path id="Path_15372" data-name="Path 15372" d="M250.8 218.5H264v1.651h-13.2z" transform="translate(2.929 13.995)" fill="#fff"/><path id="Path_15373" data-name="Path 15373" d="M259.8 212h1.651v1.651H259.8z" transform="translate(8.787 9.764)" fill="#fff"/><path id="Path_15374" data-name="Path 15374" d="M250.8 212H264v1.651h-13.2z" transform="translate(2.929 9.764)" fill="#fff"/><path id="Path_15375" data-name="Path 15375" d="M259.8 214h1.651v1.651H259.8z" transform="translate(8.787 11.066)" fill="#fff"/><path id="Path_15376" data-name="Path 15376" d="M250.8 214H264v1.651h-13.2z" transform="translate(2.929 11.066)" fill="#fff"/><path id="Path_15377" data-name="Path 15377" d="M248.8 212h1.651v1.651H248.8z" transform="translate(1.627 9.764)" fill="#fff"/><path id="Path_15378" data-name="Path 15378" d="M248.8 214h1.651v1.651H248.8z" transform="translate(1.627 11.066)" fill="#fff"/><path id="Path_15379" data-name="Path 15379" d="M248.8 216.5h1.651v1.651H248.8z" transform="translate(1.627 12.693)" fill="#fff"/><path id="Path_15380" data-name="Path 15380" d="M248.8 218.5h1.651v1.651H248.8z" transform="translate(1.627 13.995)" fill="#fff"/><path id="Path_15381" data-name="Path 15381" d="M264.3 221h1.651v1.651H264.3z" transform="translate(11.716 15.622)" fill="#fff"/><path id="Path_15382" data-name="Path 15382" d="M264.3 223h1.651v1.651H264.3z" transform="translate(11.716 16.924)" fill="#fff"/></g></g></g></g><g transform="translate(166 0)"><g transform="scale(0.9866473722291652)"><g class="nc-icon-wrapper"><g id="icon-11" transform="translate(-174.483 -134.715)"><path id="Path_15293" data-name="Path 15293" d="M219.278 176.335H175.3a.814.814 0 0 1-.814-.816v-26.062a.814.814 0 0 1 1.628 0v25.248h42.352v-25.248a.814.814 0 0 1 1.628 0v26.062a.814.814 0 0 1-.816.816z" transform="translate(0 10.505)" fill="#fff"/><path id="Path_15294" data-name="Path 15294" d="M197.287 164.933a.822.822 0 0 1-.451-.137l-21.991-14.66a.815.815 0 0 1 .905-1.356l21.989 14.66a.815.815 0 0 1-.453 1.493z" transform="translate(0 10.504)" fill="#fff"/><path id="Path_15295" data-name="Path 15295" d="M187.835 164.933a.815.815 0 0 1-.453-1.493l21.989-14.66a.815.815 0 0 1 .905 1.356l-21.99 14.664a.822.822 0 0 1-.451.133z" transform="translate(9.454 10.504)" fill="#fff"/><path id="Path_15296" data-name="Path 15296" d="M208.772 170.732a.826.826 0 0 1-.451-.137l-19.547-13.032a.815.815 0 0 1 .905-1.356l19.547 13.032a.815.815 0 0 1-.454 1.493z" transform="translate(10.504 16.107)" fill="#fff"/><path id="Path_15297" data-name="Path 15297" d="M175.3 170.732a.815.815 0 0 1-.453-1.493l19.547-13.03a.814.814 0 1 1 .9 1.354L175.751 170.6a.828.828 0 0 1-.451.132z" transform="translate(0 16.107)" fill="#fff"/><path id="Path_15298" data-name="Path 15298" d="M203.169 152.14a.826.826 0 0 1-.451-.137l-6.518-4.343a.815.815 0 1 1 .9-1.356l6.517 4.343a.815.815 0 0 1-.454 1.493z" transform="translate(16.107 8.637)" fill="#fff"/><path id="Path_15299" data-name="Path 15299" d="M175.3 152.14a.815.815 0 0 1-.453-1.493l6.517-4.343a.815.815 0 0 1 .9 1.356l-6.513 4.34a.828.828 0 0 1-.451.14z" transform="translate(0 8.637)" fill="#fff"/><path id="Path_15300" data-name="Path 15300" d="M179.012 165.121a.815.815 0 0 1-.814-.816v-28.776a.814.814 0 1 1 1.628 0V164.3a.814.814 0 0 1-.814.821z" transform="translate(2.801)" fill="#fff"/><path id="Path_15301" data-name="Path 15301" d="M196.656 165.121a.815.815 0 0 1-.816-.816v-28.776a.815.815 0 0 1 1.63 0V164.3a.814.814 0 0 1-.814.821z" transform="translate(16.107)" fill="#fff"/><path id="Path_15302" data-name="Path 15302" d="M209.961 136.343h-30.949a.814.814 0 1 1 0-1.628h30.949a.814.814 0 0 1 0 1.628z" transform="translate(2.801)" fill="#fff"/><path id="Path_15303" data-name="Path 15303" d="M186.9 150.751a.813.813 0 0 1-.649-1.3l4.885-6.515a.814.814 0 0 1 1.3.975l-4.887 6.517a.813.813 0 0 1-.649.323z" transform="translate(8.754 5.953)" fill="#fff"/><path id="Path_15304" data-name="Path 15304" d="M194.579 150.751a.813.813 0 0 1-.653-.325l-4.887-6.517a.814.814 0 0 1 1.3-.975l4.885 6.515a.811.811 0 0 1-.163 1.138.8.8 0 0 1-.482.164z" transform="translate(10.855 5.953)" fill="#fff"/><path id="Path_15305" data-name="Path 15305" d="M184.119 149.7a.814.814 0 0 1-.635-1.323l3.258-4.073a.815.815 0 1 1 1.272 1.019l-3.258 4.072a.818.818 0 0 1-.637.305z" transform="translate(6.653 7.003)" fill="#fff"/><path id="Path_15306" data-name="Path 15306" d="M188.393 148.65a.818.818 0 0 1-.637-.305l-2.416-3.021a.815.815 0 1 1 1.272-1.019l2.416 3.021a.815.815 0 0 1-.635 1.324z" transform="translate(8.054 7.003)" fill="#fff"/><path id="Path_15307" data-name="Path 15307" d="M201.809 154.253h-19.547a.813.813 0 0 1-.814-.814v-14.66a.813.813 0 0 1 .814-.814h19.547a.812.812 0 0 1 .814.814v14.66a.812.812 0 0 1-.814.814zm-18.733-1.628h17.917v-13.032h-17.917z" transform="translate(5.253 2.451)" fill="#fff"/><path id="Path_15308" data-name="Path 15308" d="M201.809 150.273h-19.547a.815.815 0 0 1 0-1.63h19.547a.815.815 0 0 1 0 1.63z" transform="translate(5.253 10.505)" fill="#fff"/><path id="Path_15309" data-name="Path 15309" d="M201.809 152.13h-19.547a.815.815 0 0 1 0-1.63h19.547a.815.815 0 0 1 0 1.63z" transform="translate(5.253 11.905)" fill="#fff"/><path id="Path_15310" data-name="Path 15310" d="M195.985 153.987h-11.4a.815.815 0 1 1 0-1.63h11.4a.815.815 0 1 1 0 1.63z" transform="translate(7.003 13.306)" fill="#fff"/><path id="Path_15311" data-name="Path 15311" d="M185.342 143.893a2.036 2.036 0 1 1 2.035-2.035 2.037 2.037 0 0 1-2.035 2.035zm0-2.444a.408.408 0 1 0 .407.409.409.409 0 0 0-.407-.408z" transform="translate(6.653 3.852)" fill="#fff"/></g></g></g></g><g transform="translate(211 0)"><g transform="scale(0.9964599449324768)"><g class="nc-icon-wrapper"><g id="icon-14" transform="translate(-101.046 -198.869)"><g id="Group_5812" data-name="Group 5812" transform="translate(101.046 198.869)"><g id="Group_5811" data-name="Group 5811"><path id="Path_15327" data-name="Path 15327" d="M139.03 221.363a2.594 2.594 0 0 0-4.891.01h-5.36v-3.466h3.468a.867.867 0 0 0 .866-.868v-3.627a2.6 2.6 0 1 0-1.733 0v2.761h-2.6v-1.733a.867.867 0 0 0-.866-.868h-1.733v-4.494a2.6 2.6 0 1 0-1.733 0v4.494h-3.466v-13.837a.867.867 0 0 0-.868-.866c-10.691 0-19.067 7.741-19.067 17.622 0 4.694 1.863 10.908 4.864 16.219.538.951 1.241 1.954 1.985 3.016 1.573 2.242 3.323 4.763 3.514 6.958a2.465 2.465 0 0 0-1.041 2.057 2.574 2.574 0 0 0 .574 1.609 2.675 2.675 0 0 0-.8 1.918 2.6 2.6 0 0 0 2.6 2.6h14.735a2.616 2.616 0 0 0 2.6-2.633v-.029a2.588 2.588 0 0 0-.8-1.867 2.678 2.678 0 0 0 .576-1.661 2.485 2.485 0 0 0-2.49-2.481h-6.388V225.7h1.733v2.6a.868.868 0 0 0 .866.868h2.6v1.032a2.6 2.6 0 1 0 1.733 0v-1.893a.868.868 0 0 0-.866-.868h-2.6V225.7h3.466a.865.865 0 0 0 .866-.866v-1.733h5.36a2.6 2.6 0 0 0 4.891-1.743zm-6.782-11.257a.867.867 0 1 1-.868.866.865.865 0 0 1 .868-.867zm-22.932 24.626c-.721-1.026-1.4-1.995-1.9-2.875-2.818-4.988-4.639-11.019-4.639-15.365 0-8.643 7.166-15.469 16.469-15.87v6.054c-.231.017-.465.038-.717.069a.868.868 0 0 0-.744.681l-.263 1.257a13.11 13.11 0 0 0-.652.175l-.864-.963a.862.862 0 0 0-.984-.219 13.009 13.009 0 0 0-2.727 1.592.864.864 0 0 0-.3.963l.4 1.211c-.164.154-.322.315-.477.479l-1.211-.4a.874.874 0 0 0-.963.3 13.029 13.029 0 0 0-1.594 2.729.865.865 0 0 0 .219.984l.965.864a10.61 10.61 0 0 0-.175.645l-1.346.269a.866.866 0 0 0-.7.85v2.955a.866.866 0 0 0 .7.849l1.346.269c.051.215.111.431.175.645l-.965.864a.869.869 0 0 0-.219.986 13.017 13.017 0 0 0 1.594 2.727.868.868 0 0 0 .961.3l1.211-.4c.156.162.315.322.479.477l-.4 1.211a.871.871 0 0 0 .3.963 13.023 13.023 0 0 0 2.729 1.592.869.869 0 0 0 .986-.219l.864-.963c.215.067.433.124.65.175l.263 1.255a.865.865 0 0 0 .744.683c.252.03.486.051.717.069v9.6h-6.142c-.354-2.551-2.164-5.15-3.79-7.469zm3-15.092a7.811 7.811 0 0 0 6.935 7.749v2.98l-.145-.683a.867.867 0 0 0-.694-.675 9.45 9.45 0 0 1-1.51-.408.9.9 0 0 0-.294-.05.866.866 0 0 0-.645.288l-.814.91a11.477 11.477 0 0 1-1.306-.767l.378-1.146a.868.868 0 0 0-.265-.932 9.5 9.5 0 0 1-1.108-1.108.871.871 0 0 0-.932-.263l-1.144.378a11.2 11.2 0 0 1-.766-1.306l.91-.814a.864.864 0 0 0 .236-.938 9.649 9.649 0 0 1-.406-1.51.864.864 0 0 0-.683-.7l-1.213-.242v-1.533l1.213-.242a.869.869 0 0 0 .683-.7 9.614 9.614 0 0 1 .406-1.512.864.864 0 0 0-.236-.938l-.91-.814a11.451 11.451 0 0 1 .766-1.3l1.144.376a.874.874 0 0 0 .932-.261 9.552 9.552 0 0 1 1.11-1.112.869.869 0 0 0 .263-.931l-.378-1.146a11.311 11.311 0 0 1 1.3-.765l.816.908a.867.867 0 0 0 .938.238 9.447 9.447 0 0 1 1.51-.406.867.867 0 0 0 .694-.675l.145-.683v2.98a7.81 7.81 0 0 0-6.933 7.752zm6.935-6v12a6.059 6.059 0 0 1 0-12zm9.1 34.628a.867.867 0 0 1-.866.868h-14.739a.884.884 0 0 1-.868-.9v-.031a.866.866 0 0 1 .866-.866h14.735a.883.883 0 0 1 .868.9zm-1.089-4.332a.794.794 0 0 1 .864.717.67.67 0 0 1 0 .088.868.868 0 0 1-.868.868h-14.289a.882.882 0 0 1-.868-.9v-.031a.783.783 0 0 1 .816-.747h.051zm-.212-12.165a.867.867 0 1 1-.866.868.868.868 0 0 1 .862-.867zm-1.733-26a.867.867 0 1 1-.866.868.868.868 0 0 1 .862-.868zm1.733 18.2h-6.065v-8.666h6.065zm9.534-.866a.867.867 0 1 1 .868-.868.867.867 0 0 1-.872.869z" transform="translate(-101.046 -198.869)" fill="#fff"/></g></g><g id="Group_5814" data-name="Group 5814" transform="translate(127.662 238.485)"><g id="Group_5813" data-name="Group 5813"><path id="Path_15328" data-name="Path 15328" d="M115.815 219.646a14.665 14.665 0 0 0-.81 1.693l1.611.639a12.933 12.933 0 0 1 .717-1.493z" transform="translate(-115.005 -219.646)" fill="#fff"/></g></g><g id="Group_5816" data-name="Group 5816" transform="translate(129.417 235.433)"><g id="Group_5815" data-name="Group 5815"><path id="Path_15329" data-name="Path 15329" d="M116.93 218.045c-.341.49-.681.986-1 1.489l1.455.942c.315-.486.643-.967.972-1.442z" transform="translate(-115.925 -218.045)" fill="#fff"/></g></g><g id="Group_5818" data-name="Group 5818" transform="translate(131.434 232.55)"><g id="Group_5817" data-name="Group 5817"><path id="Path_15330" data-name="Path 15330" d="M117.942 216.533c-.292.463-.618.944-.959 1.436l1.422.988c.358-.513.7-1.016 1-1.5z" transform="translate(-116.983 -216.533)" fill="#fff"/></g></g><g id="Group_5820" data-name="Group 5820" transform="translate(133.24 229.528)"><g id="Group_5819" data-name="Group 5819"><path id="Path_15331" data-name="Path 15331" d="M118.71 214.948q-.372.781-.78 1.543l1.529.818q.426-.8.814-1.613z" transform="translate(-117.93 -214.948)" fill="#fff"/></g></g><g id="Group_5822" data-name="Group 5822" transform="translate(134.731 226.347)"><g id="Group_5821" data-name="Group 5821"><path id="Path_15332" data-name="Path 15332" d="M119.355 213.28c-.2.536-.416 1.073-.643 1.605l1.6.679c.235-.557.46-1.114.669-1.674z" transform="translate(-118.712 -213.28)" fill="#fff"/></g></g><g id="Group_5824" data-name="Group 5824" transform="translate(137.381 216.318)"><g id="Group_5823" data-name="Group 5823"><path id="Path_15333" data-name="Path 15333" d="M121.9 208.02l-1.733.013v.16c0 .482-.023 1-.067 1.525l1.726.145c.05-.576.074-1.138.074-1.67z" transform="translate(-120.102 -208.02)" fill="#fff"/></g></g><g id="Group_5826" data-name="Group 5826" transform="translate(137.051 212.628)"><g id="Group_5825" data-name="Group 5825"><path id="Path_15334" data-name="Path 15334" d="M121.616 206.085l-1.687.395a14.972 14.972 0 0 1 .288 1.644l1.722-.206a16.594 16.594 0 0 0-.323-1.833z" transform="translate(-119.929 -206.085)" fill="#fff"/></g></g><g id="Group_5828" data-name="Group 5828" transform="translate(135.934 209.127)"><g id="Group_5827" data-name="Group 5827"><path id="Path_15335" data-name="Path 15335" d="M120.9 204.249l-1.56.757a15.088 15.088 0 0 1 .646 1.539l1.634-.58a16.725 16.725 0 0 0-.72-1.716z" transform="translate(-119.343 -204.249)" fill="#fff"/></g></g><g id="Group_5830" data-name="Group 5830" transform="translate(134.153 205.989)"><g id="Group_5829" data-name="Group 5829"><path id="Path_15336" data-name="Path 15336" d="M119.767 202.6l-1.358 1.077a15.875 15.875 0 0 1 .969 1.363l1.464-.927a17.523 17.523 0 0 0-1.075-1.513z" transform="translate(-118.409 -202.603)" fill="#fff"/></g></g><g id="Group_5832" data-name="Group 5832" transform="translate(131.808 203.344)"><g id="Group_5831" data-name="Group 5831"><path id="Path_15337" data-name="Path 15337" d="M118.283 201.216l-1.1 1.335a16.527 16.527 0 0 1 1.236 1.133l1.236-1.215a17.692 17.692 0 0 0-1.372-1.253z" transform="translate(-117.179 -201.216)" fill="#fff"/></g></g><g id="Group_5834" data-name="Group 5834" transform="translate(129.022 201.277)"><g id="Group_5833" data-name="Group 5833"><path id="Path_15338" data-name="Path 15338" d="M116.542 200.132l-.824 1.525c.5.267.98.561 1.44.869l.969-1.438c-.508-.34-1.04-.66-1.585-.956z" transform="translate(-115.718 -200.132)" fill="#fff"/></g></g><g id="Group_5836" data-name="Group 5836" transform="translate(125.923 199.84)"><g id="Group_5835" data-name="Group 5835"><path id="Path_15339" data-name="Path 15339" d="M114.619 199.378l-.526 1.651c.542.172 1.072.368 1.581.583l.677-1.594a19.296 19.296 0 0 0-1.732-.64z" transform="translate(-114.093 -199.378)" fill="#fff"/></g></g><g id="Group_5838" data-name="Group 5838" transform="translate(122.63 199.044)"><g id="Group_5837" data-name="Group 5837"><path id="Path_15340" data-name="Path 15340" d="M112.589 198.961l-.223 1.72c.561.071 1.119.168 1.663.29l.376-1.693a20.32 20.32 0 0 0-1.816-.317z" transform="translate(-112.366 -198.961)" fill="#fff"/></g></g></g></g></g></g><g transform="translate(249 0)"><g transform="scale(0.9834358549142868)"><g class="nc-icon-wrapper"><g id="icon-13" transform="translate(-24.822 -196.999)"><g id="Group_5795" data-name="Group 5795" transform="translate(24.822 196.999)"><g id="Group_5794" data-name="Group 5794"><path id="Path_15319" data-name="Path 15319" d="M76.384 205.13c-3.235-3.235-9.2-5.672-13.322-6.777A39.99 39.99 0 0 0 53.16 197a19.715 19.715 0 0 0-5.023.562 1.013 1.013 0 0 0-.717.715c-.3 1.11-.553 2.271-.765 3.458-.007.036-.014.072-.018.107a48.76 48.76 0 0 0-.415 14.2 40.773 40.773 0 0 0-7.781 1.28c-4.125 1.105-10.087 3.542-13.322 6.777a1.015 1.015 0 0 0-.263.978 42.836 42.836 0 0 0 1.173 3.671v.005a48.575 48.575 0 0 0 6.4 11.954c2.781 3.719 7.16 8.152 12.228 8.152a8.338 8.338 0 0 0 2.155-.283c3.094-.83 5.522-3.412 7.026-7.471a33.831 33.831 0 0 0 1.781-11.3 8.406 8.406 0 0 0 1.22.091c5.068 0 9.445-4.435 12.226-8.154a48.449 48.449 0 0 0 7.578-15.629 1.014 1.014 0 0 0-.259-.983zm-30.093 41.487a6.273 6.273 0 0 1-1.631.215c-3.3 0-7.067-2.605-10.6-7.339a46.348 46.348 0 0 1-5.878-10.783 44.213 44.213 0 0 1 2.323-1.692 1.013 1.013 0 1 0-1.132-1.679c-.7.472-1.375.966-1.908 1.37a38.372 38.372 0 0 1-.488-1.579c2.523-2.267 7.237-4.58 11.992-5.855a38.71 38.71 0 0 1 7.578-1.228 25.149 25.149 0 0 0 1.305 4.578l.007.018c.054.131.106.259.161.386l.009.021a16.618 16.618 0 0 0 .912 1.82l.013.023v.007c.02.032.038.064.057.1l.123.2.08.127c.057.091.114.179.173.266l.086.125c.059.088.12.173.181.259l.077.1c.066.089.132.179.2.265l.023.029c.132.168.27.331.408.488a3.243 3.243 0 0 1-5.349-.4 1.013 1.013 0 1 0-1.754 1.012 5.268 5.268 0 0 0 8.594.76 8.672 8.672 0 0 0 1.03.653l.043.023c.093.05.188.1.283.143l.079.038c.091.043.182.084.275.123l.034.016c.035 7.581-1.855 15.931-7.306 17.39zm21.155-26.092c-3.539 4.733-7.3 7.341-10.6 7.341a6.35 6.35 0 0 1-1.631-.215q-.148-.04-.29-.086h-.009c-4.381-1.409-5.969-7.328-6.527-10.731v-.021l-.029-.182a45.592 45.592 0 0 1 .165-13.768 43.694 43.694 0 0 1 2.859-.3 1.013 1.013 0 1 0-.141-2.021 43.98 43.98 0 0 0-2.328.231c.1-.467.206-.93.318-1.384a19.207 19.207 0 0 1 3.934-.356 37.924 37.924 0 0 1 9.377 1.284c4.753 1.273 9.469 3.585 11.992 5.853a46.455 46.455 0 0 1-7.09 14.355z" transform="translate(-24.822 -196.999)" fill="#fff"/></g></g><g id="Group_5797" data-name="Group 5797" transform="translate(60.741 210.066)"><g id="Group_5796" data-name="Group 5796"><path id="Path_15320" data-name="Path 15320" d="M54.172 206.942a5.268 5.268 0 0 0-9.127 0 1.013 1.013 0 0 0 1.754 1.012 3.244 3.244 0 0 1 5.619 0 1.013 1.013 0 0 0 .88.506.994.994 0 0 0 .5-.136 1.01 1.01 0 0 0 .374-1.382z" transform="translate(-44.909 -204.306)" fill="#fff"/></g></g><g id="Group_5799" data-name="Group 5799" transform="translate(49.191 206.388)"><g id="Group_5798" data-name="Group 5798"><path id="Path_15321" data-name="Path 15321" d="M44.226 202.953a5.282 5.282 0 0 0-5.27 0 1.013 1.013 0 0 0 1.012 1.754 3.245 3.245 0 0 1 4.868 2.809 1.013 1.013 0 0 0 2.026 0 5.284 5.284 0 0 0-2.636-4.563z" transform="translate(-38.45 -202.249)" fill="#fff"/></g></g><g id="Group_5801" data-name="Group 5801" transform="translate(52.755 217.776)"><g id="Group_5800" data-name="Group 5800"><path id="Path_15322" data-name="Path 15322" d="M49.3 210.823a1.014 1.014 0 0 0-1.432 0 3.245 3.245 0 0 1-5.429-1.454 1.013 1.013 0 1 0-1.956.524 5.271 5.271 0 0 0 8.818 2.362 1.013 1.013 0 0 0-.001-1.432z" transform="translate(-40.443 -208.618)" fill="#fff"/></g></g><g id="Group_5803" data-name="Group 5803" transform="translate(30.933 227.513)"><g id="Group_5802" data-name="Group 5802"><path id="Path_15323" data-name="Path 15323" d="M35.638 214.063a1.011 1.011 0 0 0-1.012 1.012 3.246 3.246 0 0 1-4.868 2.809 1.013 1.013 0 0 0-1.014 1.754 5.272 5.272 0 0 0 7.908-4.564 1.013 1.013 0 0 0-1.014-1.011z" transform="translate(-28.239 -214.063)" fill="#fff"/></g></g><g id="Group_5805" data-name="Group 5805" transform="translate(40.148 237.554)"><g id="Group_5804" data-name="Group 5804"><path id="Path_15324" data-name="Path 15324" d="M42.245 221.219a5.272 5.272 0 0 0-8.818 2.364 1.011 1.011 0 0 0 .717 1.239.95.95 0 0 0 .263.036 1.011 1.011 0 0 0 .976-.751 3.246 3.246 0 0 1 5.429-1.456 1.013 1.013 0 1 0 1.432-1.432z" transform="translate(-33.393 -219.678)" fill="#fff"/></g></g><g id="Group_5807" data-name="Group 5807" transform="translate(53.16 200.547)"><g id="Group_5806" data-name="Group 5806"><path id="Path_15325" data-name="Path 15325" d="M41.9 199.006l-.077-.013a1.013 1.013 0 0 0-.293 2l.048.007a1.012 1.012 0 0 0 .322-2z" transform="translate(-40.669 -198.983)" fill="#fff"/></g></g><g id="Group_5809" data-name="Group 5809" transform="translate(31.412 223.722)"><g id="Group_5808" data-name="Group 5808"><path id="Path_15326" data-name="Path 15326" d="M30.526 212.6a1.011 1.011 0 0 0-1.305-.59l-.075.029a1.014 1.014 0 0 0 .376 1.955 1 1 0 0 0 .376-.073l.041-.016a1.011 1.011 0 0 0 .587-1.305z" transform="translate(-28.507 -211.943)" fill="#fff"/></g></g></g></g></g></g><g transform="translate(300 0)"><g transform="scale(0.9830022527134958)"><g class="nc-icon-wrapper"><g id="icon-12" transform="translate(-246.417 -134.931)"><path id="Path_15312" data-name="Path 15312" d="M294.461 166.576h-3.44v-2.462a5.415 5.415 0 0 0-1.752-3.978l-.056-.051v-10.619a8.586 8.586 0 0 0-17.168 0v10.619l-.058.051a5.418 5.418 0 0 0-1.749 3.978v2.462h-2.143a.787.787 0 1 0 0 1.574h4.641v6.32a.788.788 0 0 0 .786.788h3.362a.787.787 0 0 0 0-1.574h-2.576v-5.534h12.643v5.534h-2.768a.787.787 0 0 0 0 1.574h3.554a.788.788 0 0 0 .788-.788v-6.32h5.15v9.762H269.5v-3.275a5.946 5.946 0 0 0-4.866-5.848l-2.522-.467a1.257 1.257 0 0 1-.351-.114l-.253-.165a1.343 1.343 0 0 1-.494-1.022v-.1l.092-.051a6.388 6.388 0 0 0 3.211-5.522v-3.708a6.358 6.358 0 0 0-12.716 0v3.708a6.384 6.384 0 0 0 3.211 5.52l.09.049v.1a1.31 1.31 0 0 1-.464 1l-.245.166a1.273 1.273 0 0 1-.391.136l-2.52.467a5.946 5.946 0 0 0-4.866 5.848v4.066a.787.787 0 0 0 .786.784h47.258a.787.787 0 0 0 .786-.784v-11.336a.788.788 0 0 0-.785-.788zm-20.844-17.11a7.014 7.014 0 0 1 14.023 0v9.639l-.233-.08a4.869 4.869 0 0 0-.8-.214l-2.255-.416a1.12 1.12 0 0 1-.9-.953l-.015-.115.1-.061a5.808 5.808 0 0 0 2.87-4.989v-3.092a.778.778 0 0 0-.385-.676l-3.343-1.968a.789.789 0 0 0-1 .177 4.7 4.7 0 0 1-3.6 1.681h-2.44a.788.788 0 0 0-.788.786v3.092a5.808 5.808 0 0 0 2.87 4.989l.1.061-.015.114a1.116 1.116 0 0 1-.9.953l-2.252.416a5.519 5.519 0 0 0-.8.216l-.234.08zm9 6.525l-.083.032a.665.665 0 0 0-.314.127l-.1.063a4.251 4.251 0 0 1-2.919.025l-.1-.049a.678.678 0 0 0-.306-.151l-.115-.038a4.19 4.19 0 0 1-2.26-3.727v-2.3h1.657a6.257 6.257 0 0 0 4.255-1.666l.1-.088 2.411 1.414v2.644a4.192 4.192 0 0 1-2.23 3.714zm.139 3.3l-2.122 2.9-2.124-2.9.105-.105a2.706 2.706 0 0 0 .664-1.124l.046-.155.156.032a5.784 5.784 0 0 0 2.3 0l.156-.032.044.153a2.718 2.718 0 0 0 .669 1.126zm6.7 7.283H271.81v-2.462a3.821 3.821 0 0 1 3.126-3.758l2.112-.392 2.946 4.019a.773.773 0 0 0 .627.3h.01a.78.78 0 0 0 .632-.294l2.948-4.022 2.111.392a3.821 3.821 0 0 1 3.126 3.758zm-36.27-5.23v-3.708a4.785 4.785 0 0 1 9.57 0v3.708a4.785 4.785 0 0 1-9.57 0zm6.595 7l-1.81.516-1.81-.516.078-.182a3.112 3.112 0 0 0 .163-.484l.039-.168.168.037a6.416 6.416 0 0 0 2.72 0l.17-.036.037.165a2.8 2.8 0 0 0 .165.481zm8.16 9.561h-19.953v-1.886h6.744a.786.786 0 0 0 0-1.572h-6.743l.017-.19a4.377 4.377 0 0 1 3.562-3.926l2.523-.47a2.874 2.874 0 0 0 .7-.224l.061-.029 3.174.849.034.01 3-.857.059.027a2.982 2.982 0 0 0 .708.228l2.52.467a4.372 4.372 0 0 1 3.578 4.3z" transform="translate(0 4.279)" fill="#fff"/><path id="Path_15313" data-name="Path 15313" d="M250.037 152.641h.221v3.416a.785.785 0 0 0 1.34.557l3.975-3.973h6.471a3.623 3.623 0 0 0 3.62-3.62v-2.528h1.736l2.875 2.878a.79.79 0 0 0 .852.168.779.779 0 0 0 .491-.727v-2.319h.173a3.648 3.648 0 0 0 3.668-3.62v-4.321a3.623 3.623 0 0 0-3.62-3.62h-12.006a3.623 3.623 0 0 0-3.62 3.62v1.567h-6.176a3.623 3.623 0 0 0-3.62 3.62v5.282a3.623 3.623 0 0 0 3.62 3.62zm7.75-14.09a2.048 2.048 0 0 1 2.046-2.048h12.006a2.049 2.049 0 0 1 2.048 2.048v4.321a2.05 2.05 0 0 1-2.048 2.048h-1.007a.788.788 0 0 0-.786.786v1.207l-1.764-1.766a.8.8 0 0 0-.555-.228h-2.063v-1.182a3.623 3.623 0 0 0-3.62-3.62h-4.257zm-9.8 5.187a2.05 2.05 0 0 1 2.049-2.046h12.006a2.049 2.049 0 0 1 2.048 2.046v5.282a2.05 2.05 0 0 1-2.048 2.049h-6.8a.8.8 0 0 0-.555.228l-2.861 2.863v-2.306a.788.788 0 0 0-.788-.784h-1.007a2.052 2.052 0 0 1-2.049-2.049z" fill="#fff"/><path id="Path_15314" data-name="Path 15314" d="M267.421 161.638l.027-.027a.792.792 0 0 0 .228-.554.785.785 0 0 0-1.343-.554.79.79 0 0 0-.231.554.793.793 0 0 0 1.319.581z" transform="translate(13.739 17.691)" fill="#fff"/><path id="Path_15315" data-name="Path 15315" d="M249.465 141.764h7.493a.786.786 0 1 0 0-1.572h-7.493a.786.786 0 1 0 0 1.572z" transform="translate(1.579 3.672)" fill="#fff"/><path id="Path_15316" data-name="Path 15316" d="M255.291 143.792a.771.771 0 0 0 .786-.779.785.785 0 0 0-1.345-.555.8.8 0 0 0-.226.555.814.814 0 0 0 .229.559.8.8 0 0 0 .556.22z" transform="translate(5.647 5.096)" fill="#fff"/><path id="Path_15317" data-name="Path 15317" d="M249.465 143.8h6.342a.786.786 0 1 0 0-1.572h-6.342a.786.786 0 1 0 0 1.572z" transform="translate(1.579 5.094)" fill="#fff"/><path id="Path_15318" data-name="Path 15318" d="M253.055 160.951a.806.806 0 0 0-.228.555.79.79 0 0 0 .231.559.779.779 0 0 0 .554.219.771.771 0 0 0 .79-.778.8.8 0 0 0-.231-.557.81.81 0 0 0-1.116.002z" transform="translate(4.472 18.008)" fill="#fff"/></g></g></g></g><g transform="translate(348 0)"><g transform="scale(0.9913258983890955)"><g class="nc-icon-wrapper"><g id="icon-09" transform="translate(-28.322 -133.348)"><path id="Path_15263" data-name="Path 15263" d="M72.707 135.277h-3.042l.321-1.929H56.129l.321 1.929H32.181v3.859h-3.86v54.035h40.527v-3.859h3.859zm-5 0l-.644 3.859h-8.012l-.644-3.859zm-3.367 10.152a1.9 1.9 0 0 1 .648 1.426 1.93 1.93 0 1 1-3.859 0 1.909 1.909 0 0 1 .646-1.426l.319-.286v-4.075h1.931v4.075zm2.576 45.812H30.251v-50.174h1.931v48.245h34.735zm3.86-3.859H34.11v-50.174h22.663l.644 3.859h2.748v3.252a3.859 3.859 0 1 0 5.788 0v-3.252H68.7l.644-3.859h1.432z" fill="#fff"/><path id="Path_15264" data-name="Path 15264" d="M63.024 149.609h-5.788v17.367H55.3v-13.508h-5.783v13.507h-1.931v-9.648H41.8v9.648h-1.933v-5.788h-5.788v5.788h-1.931v1.931h32.807v-1.931h-1.931zm-3.859 1.929H61.1v15.438h-1.935zm-7.72 3.862h1.931v11.578h-1.931zm-7.719 3.86h1.931v7.719h-1.931zm-7.719 3.859h1.931v3.859h-1.93z" transform="translate(3.893 16.546)" fill="#fff"/><path id="Path_15265" data-name="Path 15265" d="M47.586 136.217H32.148v21.228h15.438zm-1.929 19.3H34.079v-17.369h11.578z" transform="translate(3.893 2.919)" fill="#fff"/><path id="Path_15266" data-name="Path 15266" d="M34.061 138.13h7.719v1.931h-7.719z" transform="translate(5.839 4.866)" fill="#fff"/><path id="Path_15267" data-name="Path 15267" d="M34.061 140.043h7.719v1.931h-7.719z" transform="translate(5.839 6.812)" fill="#fff"/><path id="Path_15268" data-name="Path 15268" d="M34.061 141.957h7.719v1.929h-7.719z" transform="translate(5.839 8.76)" fill="#fff"/><path id="Path_15269" data-name="Path 15269" d="M34.061 143.87h7.719v1.93h-7.719z" transform="translate(5.839 10.706)" fill="#fff"/><path id="Path_15270" data-name="Path 15270" d="M40.757 142.913h1.929v1.931h-1.929z" transform="translate(12.653 9.733)" fill="#fff"/><path id="Path_15271" data-name="Path 15271" d="M42.67 142.913h11.578v1.931H42.67z" transform="translate(14.599 9.733)" fill="#fff"/><path id="Path_15272" data-name="Path 15272" d="M40.757 144.826h1.929v1.931h-1.929z" transform="translate(12.653 11.679)" fill="#fff"/><path id="Path_15273" data-name="Path 15273" d="M42.67 144.826h11.578v1.931H42.67z" transform="translate(14.599 11.679)" fill="#fff"/><path id="Path_15274" data-name="Path 15274" d="M40.757 146.739h1.929v1.931h-1.929z" transform="translate(12.653 13.625)" fill="#fff"/><path id="Path_15275" data-name="Path 15275" d="M42.67 146.739h11.578v1.931H42.67z" transform="translate(14.599 13.625)" fill="#fff"/></g></g></g></g><g transform="translate(392 0)"><g transform="scale(0.9886307464162135)"><g class="nc-icon-wrapper"><g id="Group_5771" data-name="Group 5771" transform="translate(-247.796 -14.503)"><g id="Group_5769" data-name="Group 5769" transform="translate(247.796 14.503)"><path id="Path_15230" data-name="Path 15230" d="M295.075 20.412H294v-.953a4.968 4.968 0 0 0-4.956-4.956l-32.936.045h-.724a12.087 12.087 0 0 0-4.791.58c-1.7.733-2.645 2.26-2.793 4.538V63.04a4.45 4.45 0 0 0 4.8 4.2h36.486a4.938 4.938 0 0 0 4.9-4.958v-7.238L294 39.061h1.08a3.3 3.3 0 0 0 3.3-3.3V23.708a3.3 3.3 0 0 0-3.305-3.296zM255.332 16.1v42.343H252.6a4.975 4.975 0 0 0-3.245 1.074V19.739c.245-3.497 2.431-3.668 5.977-3.639zm41.481 19.666a1.74 1.74 0 0 1-1.737 1.737h-15.4a.779.779 0 0 0 0 1.558h12.764l-.008 15.982a3.4 3.4 0 0 1-3.4 3.4h-16.379a.778.778 0 1 0 0 1.556h16.378a4.942 4.942 0 0 0 3.4-1.354v3.637a3.379 3.379 0 0 1-3.348 3.4H252.6c-2.167 0-3.178-1.319-3.245-2.669v-.284A2.944 2.944 0 0 1 252.6 60h3.254a.787.787 0 0 0 .255.043.8.8 0 0 0 .257-.043h12.724a.778.778 0 0 0 0-1.556h-12.2V16.1l32.156-.043a3.41 3.41 0 0 1 3.4 3.4v.953h-28.178a3.3 3.3 0 0 0-3.3 3.3v12.056a3.3 3.3 0 0 0 3.3 3.3h11.838a.779.779 0 0 0 0-1.558h-11.838a1.739 1.739 0 0 1-1.737-1.737V23.708a1.739 1.739 0 0 1 1.737-1.739h30.808a1.74 1.74 0 0 1 1.737 1.739z" transform="translate(-247.796 -14.503)" fill="#fff" fill-rule="evenodd"/></g><g id="Group_5770" data-name="Group 5770" transform="translate(264.503 26.785)"><path id="Path_15231" data-name="Path 15231" d="M256.385 23.651v-.016a2.814 2.814 0 0 1 2.92-2.819 3.159 3.159 0 0 1 2.2.79l-.883 1.06a1.912 1.912 0 0 0-1.309-.51 1.424 1.424 0 0 0-1.387 1.486v.016a1.433 1.433 0 0 0 1.473 1.5 1.526 1.526 0 0 0 .868-.226v-.657H259.2v-1.1h2.5v2.445a3.668 3.668 0 0 1-2.356.836 2.788 2.788 0 0 1-2.959-2.805z" transform="translate(-256.385 -20.817)" fill="#fff"/><path id="Path_15232" data-name="Path 15232" d="M259.559 23.918v-3.046h1.525v3.015c0 .782.395 1.153 1 1.153s1-.356 1-1.115v-3.053h1.525v3.007a2.266 2.266 0 0 1-2.54 2.517 2.24 2.24 0 0 1-2.51-2.478z" transform="translate(-253.385 -20.765)" fill="#fff"/><path id="Path_15233" data-name="Path 15233" d="M262.681 20.872h1.511V26.3h-1.511z" transform="translate(-250.434 -20.765)" fill="#fff"/><path id="Path_15234" data-name="Path 15234" d="M264.019 20.872h2.091c1.937 0 3.06 1.117 3.06 2.68v.016c0 1.566-1.138 2.727-3.091 2.727h-2.06zm2.114 4.091a1.33 1.33 0 0 0 1.5-1.371v-.016a1.334 1.334 0 0 0-1.5-1.371h-.611v2.758z" transform="translate(-249.17 -20.765)" fill="#fff"/><path id="Path_15235" data-name="Path 15235" d="M267.117 20.872h4.363v1.28h-2.875v.821h2.6v1.185h-2.6v.86h2.912V26.3h-4.4z" transform="translate(-246.241 -20.765)" fill="#fff"/><path id="Path_15236" data-name="Path 15236" d="M269.614 25.534l.836-1a2.8 2.8 0 0 0 1.758.652c.4 0 .621-.14.621-.372V24.8c0-.226-.179-.35-.914-.519-1.153-.265-2.044-.589-2.044-1.7v-.021c0-1.008.8-1.735 2.1-1.735a3.413 3.413 0 0 1 2.231.72l-.751 1.062a2.711 2.711 0 0 0-1.519-.535c-.364 0-.543.154-.543.348v.016c0 .247.187.356.938.527 1.247.27 2.023.673 2.023 1.688v.016c0 1.107-.875 1.766-2.192 1.766a3.789 3.789 0 0 1-2.544-.899z" transform="translate(-243.881 -20.809)" fill="#fff"/></g></g></g></g></g><g transform="translate(442 0)"><g transform="scale(0.9827258631608832)"><g class="nc-icon-wrapper"><g id="icon-10" transform="translate(-98.756 -134.778)"><path id="Path_15276" data-name="Path 15276" d="M141.155 151.738v-8.48h-3.392v-8.48H98.756v48.334a4.245 4.245 0 0 0 4.24 4.24h37.311a4.246 4.246 0 0 0 4.24-4.24v-31.374zM103 185.657a2.548 2.548 0 0 1-2.545-2.545v-46.639h35.616v46.639a4.214 4.214 0 0 0 .849 2.545zm39.854-2.545a2.544 2.544 0 1 1-5.088 0v-38.159h1.7v35.614h1.7v-27.134h1.7z" fill="#fff"/><path id="Path_15277" data-name="Path 15277" d="M120.605 160.269h1.7v1.7h-1.7z" transform="translate(18.853 21.995)" fill="#fff"/><path id="Path_15278" data-name="Path 15278" d="M120.833 160.607l-2.86-.816v-.227a4.244 4.244 0 0 0 1.7-3.374v-1.55a4.352 4.352 0 0 0-3.826-4.367 4.242 4.242 0 0 0-4.653 4.219v1.7a4.246 4.246 0 0 0 1.7 3.374v.227l-2.861.816a4.26 4.26 0 0 0-3.076 4.078v2.528h16.96v-2.528a4.257 4.257 0 0 0-3.084-4.08zm1.38 4.911h-13.567v-.833a2.554 2.554 0 0 1 1.844-2.446l4.091-1.17v-2.446l-.421-.244a2.52 2.52 0 0 1-1.274-2.189v-1.7a2.543 2.543 0 0 1 2.8-2.532 2.645 2.645 0 0 1 2.291 2.679v1.55a2.52 2.52 0 0 1-1.274 2.189l-.421.244v2.446l4.089 1.17a2.554 2.554 0 0 1 1.846 2.446z" transform="translate(7.07 13.354)" fill="#fff"/><path id="Path_15279" data-name="Path 15279" d="M105.129 172.176h23.742v-23.742h-23.742zm1.7-22.047h20.352v20.352h-20.357z" transform="translate(5.499 11.783)" fill="#fff"/><path id="Path_15280" data-name="Path 15280" d="M110.752 156.949a10.175 10.175 0 1 0-10.175-10.175 10.186 10.186 0 0 0 10.175 10.175zm0-1.7a8.491 8.491 0 0 1-7.753-5.06 4.2 4.2 0 0 1 2.709 1.213l.175.175a3.845 3.845 0 0 0 6.565-2.718v-.818a2.969 2.969 0 0 0-2.968-2.968 1.275 1.275 0 0 1-1.272-1.272v-1.272a5.947 5.947 0 0 0-1.092-3.409 8.366 8.366 0 0 1 2.843-.79 5.008 5.008 0 0 0-.054.576 4.831 4.831 0 0 0 1.824 3.795l1.444 1.155a2.574 2.574 0 0 1 .972 2.021 4.29 4.29 0 0 0 4.285 4.285c.03 0 .063-.006.093-.007a8.488 8.488 0 0 1-7.771 5.099zm8.48-8.48a8.492 8.492 0 0 1-.162 1.639 4.174 4.174 0 0 1-.641.056 2.591 2.591 0 0 1-2.589-2.587 4.263 4.263 0 0 0-1.608-3.346l-1.446-1.157a3.143 3.143 0 0 1-1.187-2.468 2.931 2.931 0 0 1 .056-.566 8.49 8.49 0 0 1 7.577 8.434zM105.67 140a4.265 4.265 0 0 1 .842 2.534v1.272a2.972 2.972 0 0 0 2.968 2.968 1.273 1.273 0 0 1 1.272 1.272v.818a2.15 2.15 0 0 1-3.67 1.52l-.175-.175a5.9 5.9 0 0 0-4.2-1.74 1.936 1.936 0 0 1-.27-.024A8.443 8.443 0 0 1 105.67 140z" transform="translate(1.571 1.571)" fill="#fff"/><path id="Path_15281" data-name="Path 15281" d="M112.412 136.6h10.175v1.7h-10.175z" transform="translate(11.783 1.571)" fill="#fff"/><path id="Path_15282" data-name="Path 15282" d="M112.412 138.419h1.7v1.7h-1.7z" transform="translate(11.783 3.142)" fill="#fff"/><path id="Path_15283" data-name="Path 15283" d="M114.233 138.419h6.783v1.7h-6.783z" transform="translate(13.355 3.142)" fill="#fff"/><path id="Path_15284" data-name="Path 15284" d="M112.412 140.24h10.175v1.7h-10.175z" transform="translate(11.783 4.713)" fill="#fff"/><path id="Path_15285" data-name="Path 15285" d="M112.412 142.061h10.175v1.7h-10.175z" transform="translate(11.783 6.284)" fill="#fff"/><path id="Path_15286" data-name="Path 15286" d="M112.412 143.882h6.783v1.7h-6.783z" transform="translate(11.783 7.856)" fill="#fff"/><path id="Path_15287" data-name="Path 15287" d="M116.964 143.882h1.7v1.7h-1.7z" transform="translate(15.711 7.856)" fill="#fff"/><path id="Path_15288" data-name="Path 15288" d="M100.577 159.814h6.783v1.7h-6.783z" transform="translate(1.571 21.603)" fill="#fff"/><path id="Path_15289" data-name="Path 15289" d="M100.577 157.993h6.783v1.7h-6.783z" transform="translate(1.571 20.032)" fill="#fff"/><path id="Path_15290" data-name="Path 15290" d="M100.577 156.172h6.783v1.7h-6.783z" transform="translate(1.571 18.46)" fill="#fff"/><path id="Path_15291" data-name="Path 15291" d="M100.577 154.351h6.783v1.7h-6.783z" transform="translate(1.571 16.889)" fill="#fff"/><path id="Path_15292" data-name="Path 15292" d="M100.577 152.53h6.783v1.7h-6.783z" transform="translate(1.571 15.318)" fill="#fff"/></g></g></g></g><g transform="translate(487 0)"><g transform="scale(0.9858551221603087)"><g class="nc-icon-wrapper"><g id="Group_5789" data-name="Group 5789" transform="translate(-246.796 -70)"><path id="Path_15259" data-name="Path 15259" d="M292.771 81.118h-1.913v-1.686a.683.683 0 0 0-.683-.683h-5.795V72a2.008 2.008 0 0 0-2-2h-2.825a2.008 2.008 0 0 0-2.006 2v6.744H266.51a7.967 7.967 0 0 0-12.818 0h-3.616a.684.684 0 0 0-.683.683v1.686h-1.913a.683.683 0 0 0-.683.683v32.814a.683.683 0 0 0 .683.683h20.714a2.051 2.051 0 0 0 3.866 0h3.883a.684.684 0 1 0 0-1.368h-3.766v-1.548h18a.683.683 0 0 0 .683-.683V87.467a.683.683 0 1 0-1.366 0v20.809h-18.685V80.115h6.736v13.606a1.131 1.131 0 0 0 .625 1.008 4.783 4.783 0 0 0 .482 2.96h-4.424a.683.683 0 1 0 0 1.366h5.208c.182.267.385.542.615.828a1.163 1.163 0 0 0 .913.435 1.163 1.163 0 0 0 .913-.435c.23-.287.433-.562.615-.828h3.583a.683.683 0 1 0 0-1.366h-2.8a4.775 4.775 0 0 0 .483-2.96 1.132 1.132 0 0 0 .623-1.008v-13.6h5.111v4.464a.683.683 0 1 0 1.366 0v-2.1h1.23v31.442h-13.213a.683.683 0 1 0 0 1.366h13.9a.685.685 0 0 0 .685-.683V81.8a.685.685 0 0 0-.689-.682zm-42.01 29.891v-1.366h18.681v1.366zm9.34-34.128a6.607 6.607 0 1 1-6.607 6.607 6.615 6.615 0 0 1 6.606-6.607zm-.683 14.551a7.716 7.716 0 0 0 1.366 0v10.373a.683.683 0 0 1-1.367 0zm-11.255-8.947h1.23v19.549a.684.684 0 0 0 1.368 0V80.115h2.115a7.974 7.974 0 0 0 5.176 11.078v10.612a2.05 2.05 0 1 0 4.1 0V91.193a7.974 7.974 0 0 0 5.176-11.078h2.115v28.161H250.76v-3.281a.684.684 0 0 0-1.368 0v6.7a.684.684 0 0 0 .683.683h18v1.548h-19.913zm22.647 32.125a.684.684 0 0 1-1.368 0v-2.233h1.368zm18.682-4.968v1.366h-18.683v-1.366zm-10.383-16.159h-.2v-1.366h4.1v1.366zm-.2-17.861h4.1v1.366h-4.1zm0 15.128V78.355h4.1V90.75zm.638-19.384h2.825a.639.639 0 0 1 .638.638v2.25h-4.1V72a.638.638 0 0 1 .641-.634zm-.008 23.485h.737v1.138a.683.683 0 1 0 1.366 0v-1.138h.738c.153.528.238 1.835-1.421 3.983-1.659-2.148-1.571-3.454-1.416-3.983z" fill="#fff"/><path id="Path_15260" data-name="Path 15260" d="M263.531 86.05h1.761a.683.683 0 1 0 0-1.366h-1.761a.683.683 0 1 0 0 1.366z" transform="translate(10.696 9.786)" fill="#fff"/><path id="Path_15261" data-name="Path 15261" d="M276.061 89.231a.683.683 0 0 0-.683-.683h-11.847a.684.684 0 1 0 0 1.368h11.847a.683.683 0 0 0 .683-.685z" transform="translate(10.696 12.361)" fill="#fff"/><path id="Path_15262" data-name="Path 15262" d="M263.531 90.48a.684.684 0 1 0 0 1.368h4.2a.684.684 0 0 0 0-1.368z" transform="translate(10.696 13.648)" fill="#fff"/></g></g></g></g><g transform="translate(533 0)"><g transform="scale(0.9872734284612418)"><g class="nc-icon-wrapper"><g id="_012-digital-marketing" data-name="012-digital-marketing" transform="translate(-.001)"><g id="Group_5643" data-name="Group 5643" transform="translate(29.666 54.425)"><g id="Group_5642" data-name="Group 5642"><path id="Path_14977" data-name="Path 14977" d="M236.462 430.23a1.265 1.265 0 1 0 .371.895 1.276 1.276 0 0 0-.371-.895z" transform="translate(-234.301 -429.859)" fill="#fff"/></g></g><g id="Group_5645" data-name="Group 5645" transform="translate(.001 32.534)"><g id="Group_5644" data-name="Group 5644"><path id="Path_14978" data-name="Path 14978" d="M37.855 267.54v-9.316a1.266 1.266 0 0 0-1.739-1.174L14.3 265.836H7.273a7.272 7.272 0 0 0 0 14.544h.837v7.6a1.266 1.266 0 0 0 1.266 1.266h5.169a1.266 1.266 0 0 0 1.266-1.266v-6.99l20.306 8.167a1.266 1.266 0 0 0 1.738-1.175v-9.316a5.705 5.705 0 0 0 0-11.127zm-24.577 19.177h-2.636v-6.337h2.637v6.337zm0-8.869H7.273a4.74 4.74 0 1 1 0-9.479h6.006zm22.045 8.262l-19.512-7.848v-10.3l13.855-5.58v12.565a1.266 1.266 0 0 0 2.532 0v-13.59l3.125-1.259zm2.532-10.1v-5.82a3.173 3.173 0 0 1 0 5.82z" transform="translate(-.001 -256.958)" fill="#fff"/></g></g><g id="Group_5647" data-name="Group 5647" transform="translate(45.94 47.451)"><g id="Group_5646" data-name="Group 5646"><path id="Path_14979" data-name="Path 14979" d="M371.27 374.775h-7.17a1.266 1.266 0 1 0 0 2.532h7.168a1.266 1.266 0 0 0 0-2.532z" transform="translate(-362.835 -374.775)" fill="#fff"/></g></g><g id="Group_5649" data-name="Group 5649" transform="translate(43.861 37.802)"><g id="Group_5648" data-name="Group 5648"><path id="Path_14980" data-name="Path 14980" d="M351.052 298.941a1.267 1.267 0 0 0-1.791 0l-2.473 2.473a1.266 1.266 0 1 0 1.791 1.791l2.473-2.473a1.266 1.266 0 0 0 0-1.791z" transform="translate(-346.418 -298.57)" fill="#fff"/></g></g><g id="Group_5651" data-name="Group 5651" transform="translate(43.872 54.426)"><g id="Group_5650" data-name="Group 5650"><path id="Path_14981" data-name="Path 14981" d="M351.216 432.79l-2.555-2.555a1.266 1.266 0 1 0-1.791 1.791l2.555 2.556a1.266 1.266 0 0 0 1.791-1.791z" transform="translate(-346.499 -429.864)" fill="#fff"/></g></g><g id="Group_5653" data-name="Group 5653" transform="translate(6.838)"><g id="Group_5652" data-name="Group 5652"><path id="Path_14982" data-name="Path 14982" d="M106.924 0H83.375a5.07 5.07 0 0 0-5.065 5.064v.506H57.04A3.042 3.042 0 0 0 54 8.61v20a3.042 3.042 0 0 0 3.039 3.039h1.308v3.883a1.266 1.266 0 0 0 2.161.9l4.778-4.778h25.15a3.042 3.042 0 0 0 3.039-3.039v-3.8h13.449a5.07 5.07 0 0 0 5.064-5.064V5.064A5.07 5.07 0 0 0 106.924 0zm-15.98 28.614a.507.507 0 0 1-.506.506H64.763a1.266 1.266 0 0 0-.9.371l-2.983 2.988v-2.092a1.266 1.266 0 0 0-1.266-1.266H57.04a.507.507 0 0 1-.506-.506v-20a.507.507 0 0 1 .506-.515h21.27v11.651a5.07 5.07 0 0 0 5.064 5.064h7.569zm18.513-8.863a2.535 2.535 0 0 1-2.532 2.532h-23.55a2.535 2.535 0 0 1-2.532-2.532V5.064a2.535 2.535 0 0 1 2.532-2.532h23.55a2.535 2.535 0 0 1 2.532 2.532z" transform="translate(-54.001)" fill="#fff"/></g></g><g id="Group_5655" data-name="Group 5655" transform="translate(42.509 6.139)"><g id="Group_5654" data-name="Group 5654"><path id="Path_14983" data-name="Path 14983" d="M346.3 53.658l-8.665-5a1.266 1.266 0 0 0-1.9 1.1v10a1.266 1.266 0 0 0 1.9 1.1l8.665-5a1.266 1.266 0 0 0 0-2.193zm-8.032 3.906v-5.62l4.867 2.81z" transform="translate(-335.736 -48.486)" fill="#fff"/></g></g><g id="Group_5657" data-name="Group 5657" transform="translate(13.233 13.294)"><g id="Group_5656" data-name="Group 5656"><path id="Path_14984" data-name="Path 14984" d="M118.439 105h-12.661a1.266 1.266 0 1 0 0 2.532h12.661a1.266 1.266 0 1 0 0-2.532z" transform="translate(-104.512 -105)" fill="#fff"/></g></g><g id="Group_5659" data-name="Group 5659" transform="translate(25.894 20.384)"><g id="Group_5658" data-name="Group 5658"><path id="Path_14985" data-name="Path 14985" d="M206.672 161.371a1.265 1.265 0 1 0 .371.9 1.275 1.275 0 0 0-.371-.9z" transform="translate(-204.511 -161)" fill="#fff"/></g></g><g id="Group_5661" data-name="Group 5661" transform="translate(13.233 20.384)"><g id="Group_5660" data-name="Group 5660"><path id="Path_14986" data-name="Path 14986" d="M113.69 161h-7.912a1.266 1.266 0 1 0 0 2.532h7.912a1.266 1.266 0 1 0 0-2.532z" transform="translate(-104.512 -161)" fill="#fff"/></g></g></g></g></g></g><g transform="translate(597 0)"><g transform="scale(0.9982444666276549)"><g class="nc-icon-wrapper"><g id="Group_5787" data-name="Group 5787" transform="translate(-96.046 -74.803)"><g id="Group_5774" data-name="Group 5774" transform="translate(115.109 93.866)"><g id="Group_5773" data-name="Group 5773"><path id="Path_15245" data-name="Path 15245" d="M109.939 84.646a4.05 4.05 0 1 0 4.05 4.05 4.054 4.054 0 0 0-4.05-4.05zm0 6.4a2.347 2.347 0 1 1 2.347-2.347 2.349 2.349 0 0 1-2.347 2.344z" transform="translate(-105.889 -84.646)" fill="#fff"/></g></g><g id="Group_5776" data-name="Group 5776" transform="translate(124.97 87.785)"><g id="Group_5775" data-name="Group 5775"><path id="Path_15246" data-name="Path 15246" d="M123.458 86.408a6.292 6.292 0 0 0-6.155-4.9 6.324 6.324 0 1 0 6.155 4.9zm-6.349 6.041a4.611 4.611 0 0 1-2.467-.829 4.675 4.675 0 0 1-.137-7.47 11.934 11.934 0 0 1 2.632 7.487c-.001.271-.011.54-.028.811zm1.716-.258c.008-.184.014-.37.014-.554a13.641 13.641 0 0 0-2.777-8.258c.064-.019.13-.035.2-.05a4.658 4.658 0 0 1 1.046-.12 4.621 4.621 0 0 1 1.522 8.982z" transform="translate(-110.981 -81.506)" fill="#fff"/></g></g><g id="Group_5778" data-name="Group 5778" transform="translate(120.526 101.692)"><g id="Group_5777" data-name="Group 5777"><path id="Path_15247" data-name="Path 15247" d="M115.918 88.751l-.076-.01a6.388 6.388 0 0 0-7.145 5.87v.017a6.322 6.322 0 0 0 6.314 6.7 6.323 6.323 0 0 0 .906-12.581zm-5.508 5.917a4.608 4.608 0 0 1 7.127-3.527 11.946 11.946 0 0 1-6.93 5.279 4.5 4.5 0 0 1-.197-1.752zm9.178.961a4.668 4.668 0 0 1-4.576 4 4.584 4.584 0 0 1-3.569-1.685 13.641 13.641 0 0 0 7.344-5.6 4.594 4.594 0 0 1 .801 3.284z" transform="translate(-108.686 -88.687)" fill="#fff"/></g></g><g id="Group_5780" data-name="Group 5780" transform="translate(105.15 101.692)"><g id="Group_5779" data-name="Group 5779"><path id="Path_15248" data-name="Path 15248" d="M113.377 94.627v-.014a6.318 6.318 0 0 0-7.22-5.862 6.268 6.268 0 0 0-4.119 2.425 6.331 6.331 0 0 0 1.2 8.862 6.268 6.268 0 0 0 3.827 1.294 6.383 6.383 0 0 0 6.312-6.705zm-6.314 5a4.62 4.62 0 0 1-3.775-7.28 13.641 13.641 0 0 0 7.344 5.6 4.584 4.584 0 0 1-3.569 1.683zm4.621-4.443v.016a4.579 4.579 0 0 1-.217 1.22 11.952 11.952 0 0 1-6.93-5.279 4.584 4.584 0 0 1 1.846-.7h.031a4.709 4.709 0 0 1 5.27 4.746z" transform="translate(-100.747 -88.687)" fill="#fff"/></g></g><g id="Group_5782" data-name="Group 5782" transform="translate(100.706 87.785)"><g id="Group_5781" data-name="Group 5781"><path id="Path_15249" data-name="Path 15249" d="M110.035 84.339a6.376 6.376 0 0 0-5.262-2.833 6.324 6.324 0 0 0-5.359 9.674 6.381 6.381 0 0 0 5.369 2.975 6.287 6.287 0 0 0 6.012-4.381 6.4 6.4 0 0 0-.76-5.435zm-6.786 7.851a4.62 4.62 0 0 1 2.764-8.812 13.641 13.641 0 0 0-2.777 8.258c0 .185.005.371.013.555zm6.141-4.123a4.655 4.655 0 0 1-4.425 4.381c-.017-.271-.027-.54-.027-.811a11.938 11.938 0 0 1 2.632-7.487l.062.048a4.7 4.7 0 0 1 1.758 3.87z" transform="translate(-98.452 -81.506)" fill="#fff"/></g></g><g id="Group_5784" data-name="Group 5784" transform="translate(112.835 78.901)"><g id="Group_5783" data-name="Group 5783"><path id="Path_15250" data-name="Path 15250" d="M111.038 76.919a6.314 6.314 0 0 0-6.2 7.549 6.323 6.323 0 0 0 12.525-1.226 6.331 6.331 0 0 0-6.325-6.323zm4.255 8.126a4.621 4.621 0 0 1-8.51 0v-.008a21.66 21.66 0 0 1-.1-.25 11.989 11.989 0 0 1 8.711 0zm-4.255-2.781a13.582 13.582 0 0 0-4.617.8 4.62 4.62 0 0 1 9.234 0 13.582 13.582 0 0 0-4.617-.8z" transform="translate(-104.715 -76.919)" fill="#fff"/></g></g><g id="Group_5786" data-name="Group 5786" transform="translate(96.046 74.803)"><g id="Group_5785" data-name="Group 5785"><path id="Path_15251" data-name="Path 15251" d="M153.3 106.956h-3.552a11.725 11.725 0 0 0-4.137.686.851.851 0 0 0 .591 1.6 10.074 10.074 0 0 1 3.546-.579h2.7v3.637h-2.7a5.845 5.845 0 0 0-2.973.676 12.878 12.878 0 0 0-2.795 2.3 13.727 13.727 0 0 1-9.769 4.046h-6.351q.97-.4 1.9-.877a23 23 0 0 0 4.174-2.764h.271a10.105 10.105 0 0 0 7.193-2.979 24.807 24.807 0 0 1 2-1.826.851.851 0 0 0-1.065-1.329 26.465 26.465 0 0 0-2.134 1.95 8.416 8.416 0 0 1-4.274 2.307 23.095 23.095 0 0 0-2.051-33.716.852.852 0 0 0-1.085 1.313 21.412 21.412 0 0 1-12.943 37.909c-.229.008-.457.012-.688.012a21.41 21.41 0 1 1 10.912-39.83.85.85 0 1 0 .868-1.462 23.113 23.113 0 1 0-11.779 43c.2 0 .4 0 .6-.008a1.056 1.056 0 0 0 .11.008h14.337a15.408 15.408 0 0 0 10.971-4.545c2.065-2.063 2.831-2.481 4.565-2.481h3.558a.85.85 0 0 0 .85-.85v-5.343a.852.852 0 0 0-.85-.855z" transform="translate(-96.046 -74.803)" fill="#fff"/></g></g></g></g></g></g><g transform="translate(655 0)"><g transform="scale(0.9801764317577164)"><g class="nc-icon-wrapper"><g id="Group_5768" data-name="Group 5768" transform="translate(-97.046 -11)"><path id="Path_15224" data-name="Path 15224" d="M105.839 49.659a4.069 4.069 0 0 0-1.969.5 23.053 23.053 0 0 1 22.762-36.749.977.977 0 0 0 .386-1.916 25.192 25.192 0 0 0-4.977-.494 24.994 24.994 0 0 0-19.616 40.485 4.1 4.1 0 1 0 3.414-1.826zm1.519 5.62a2.151 2.151 0 1 1 .628-1.519 2.14 2.14 0 0 1-.628 1.519z" fill="#fff"/><path id="Path_15225" data-name="Path 15225" d="M133.175 19.127a4.093 4.093 0 1 0-1.443 1.325 23.054 23.054 0 0 1-22.719 36.761.977.977 0 0 0-.382 1.916 25.27 25.27 0 0 0 4.928.486 25 25 0 0 0 19.616-40.487zm-4.931-.753a2.149 2.149 0 1 1 1.519.628 2.141 2.141 0 0 1-1.519-.629z" transform="translate(8.482 1.377)" fill="#fff"/><path id="Path_15226" data-name="Path 15226" d="M114.836 49.61a.976.976 0 0 0 .975.977h6.106a.977.977 0 0 0 .977-.977v-1.892a15.257 15.257 0 0 0 3.664-1.519l1.337 1.337a.976.976 0 0 0 1.38 0l4.315-4.319a.974.974 0 0 0 0-1.38l-1.334-1.337a15.252 15.252 0 0 0 1.518-3.664h1.885a.977.977 0 0 0 .977-.977v-6.104a.977.977 0 0 0-.977-.977h-1.885a15.355 15.355 0 0 0-1.518-3.664l1.327-1.328a.968.968 0 0 0 .286-.689.98.98 0 0 0-.286-.691l-4.319-4.315a.974.974 0 0 0-1.38 0l-1.327 1.327a15.33 15.33 0 0 0-3.664-1.519v-1.875a.977.977 0 0 0-.977-.977h-6.106a.976.976 0 0 0-.975.977V17.9a15.343 15.343 0 0 0-3.665 1.519l-1.327-1.327a.976.976 0 0 0-1.38 0l-4.317 4.315a.974.974 0 0 0 0 1.38l1.328 1.328a15.33 15.33 0 0 0-1.519 3.664h-1.882a.977.977 0 0 0-.977.977v6.1a.978.978 0 0 0 .977.978h1.885a15.33 15.33 0 0 0 1.519 3.664l-1.335 1.335a.977.977 0 0 0 0 1.38l4.315 4.319a.983.983 0 0 0 .691.286.983.983 0 0 0 .691-.286l1.335-1.337a15.27 15.27 0 0 0 3.665 1.519zm-3.282-5.465a.978.978 0 0 0-1.221.13l-1.189 1.189-2.935-2.937 1.187-1.189a.973.973 0 0 0 .13-1.219 13.4 13.4 0 0 1-1.85-4.463.976.976 0 0 0-.953-.771h-1.678v-4.153h1.675a.976.976 0 0 0 .953-.771 13.4 13.4 0 0 1 1.85-4.463.973.973 0 0 0-.13-1.219l-1.18-1.18 2.939-2.935 1.178 1.18a.978.978 0 0 0 1.221.129 13.376 13.376 0 0 1 4.462-1.85.976.976 0 0 0 .771-.953V17h4.153v1.666a.976.976 0 0 0 .771.955 13.385 13.385 0 0 1 4.463 1.85.973.973 0 0 0 1.219-.13l1.18-1.178 2.937 2.935-1.18 1.18a.973.973 0 0 0-.13 1.219 13.4 13.4 0 0 1 1.85 4.463.977.977 0 0 0 .955.771h1.676v4.153h-1.676a.977.977 0 0 0-.955.771 13.363 13.363 0 0 1-1.85 4.463.976.976 0 0 0 .13 1.219l1.187 1.187-2.935 2.939-1.189-1.189a.973.973 0 0 0-1.219-.13 13.4 13.4 0 0 1-4.463 1.85.976.976 0 0 0-.771.955v1.684h-4.153V46.95a.976.976 0 0 0-.771-.955 13.339 13.339 0 0 1-4.459-1.85z" transform="translate(3.178 3.178)" fill="#fff"/><path id="Path_15227" data-name="Path 15227" d="M122.663 28.549a8.068 8.068 0 1 0-8.068 8.068 8.077 8.077 0 0 0 8.068-8.068zm-14.183 0a6.115 6.115 0 1 1 6.115 6.115 6.122 6.122 0 0 1-6.115-6.115z" transform="translate(7.446 7.446)" fill="#fff"/><path id="Path_15228" data-name="Path 15228" d="M116.512 13.927a.978.978 0 0 0 .977-.977.988.988 0 0 0-.287-.691.977.977 0 1 0-.689 1.668z" transform="translate(14.521 .765)" fill="#fff"/><path id="Path_15229" data-name="Path 15229" d="M106.465 36.942a.978.978 0 1 0 .689.286.983.983 0 0 0-.689-.286z" transform="translate(6.63 20.375)" fill="#fff"/></g></g></g></g><g transform="translate(704 0)"><g transform="scale(0.9855643805437997)"><g class="nc-icon-wrapper"><g id="Outline" transform="translate(-26.822 -76.045)"><g id="Group_5772" data-name="Group 5772" transform="translate(26.822 76.045)"><circle id="Ellipse_200" data-name="Ellipse 200" cx=".863" cy=".863" r=".863" transform="translate(3.45 3.451)" fill="#fff"/><circle id="Ellipse_201" data-name="Ellipse 201" cx=".863" cy=".863" r=".863" transform="translate(6.9 3.451)" fill="#fff"/><circle id="Ellipse_202" data-name="Ellipse 202" cx=".863" cy=".863" r=".863" transform="translate(10.35 3.451)" fill="#fff"/><path id="Path_15237" data-name="Path 15237" d="M36.019 77.712a.863.863 0 1 0 0 1.726h12.074a.863.863 0 1 0 0-1.726z" transform="translate(-17.906 -74.262)" fill="#fff"/><path id="Path_15238" data-name="Path 15238" d="M43.936 77.712a.863.863 0 1 0 0 1.726h6.9a.863.863 0 1 0 0-1.726z" transform="translate(-9.435 -74.262)" fill="#fff"/><path id="Path_15239" data-name="Path 15239" d="M31.435 94.38a.863.863 0 1 0 0 1.726h8.625a.863.863 0 1 0 0-1.726z" transform="translate(-22.81 -56.429)" fill="#fff"/><path id="Path_15240" data-name="Path 15240" d="M40.06 96.047h-8.625a.862.862 0 1 0 0 1.724h8.625a.862.862 0 1 0 0-1.724z" transform="translate(-22.81 -54.645)" fill="#fff"/><path id="Path_15241" data-name="Path 15241" d="M51.165 81.909a.864.864 0 0 0-.861-.863h-3.45a.865.865 0 0 0-.863.863v3.448a.867.867 0 0 0 .863.863H50.3a.865.865 0 0 0 .861-.863zM49.44 84.5h-1.726v-1.73h1.726z" transform="translate(-6.314 -70.695)" fill="#fff"/><path id="Path_15242" data-name="Path 15242" d="M50.3 84.379h-3.45a.863.863 0 1 0 0 1.726h3.45a.863.863 0 0 0 0-1.726z" transform="translate(-6.314 -67.129)" fill="#fff"/><path id="Path_15243" data-name="Path 15243" d="M49.412 86.046h-1.726a.863.863 0 1 0 0 1.726h1.726a.863.863 0 0 0 0-1.726z" transform="translate(-5.423 -65.345)" fill="#fff"/><path id="Path_15244" data-name="Path 15244" d="M77.818 120.941l-7.924-7.926a2.575 2.575 0 0 0-2.943-.495l-4.194-4.2a15.462 15.462 0 0 0-.366-18.478h1.519a.863.863 0 0 0 0-1.726h-3.084A15.5 15.5 0 0 0 55.2 84.67h15.611a.862.862 0 0 0 0-1.724H42.348v-5.175H73.4v36.517a.862.862 0 1 0 1.724 0v-37.38a.865.865 0 0 0-.863-.863H27.685a.865.865 0 0 0-.863.863v18.114a.862.862 0 0 0 1.724 0V84.67h16.508a15.349 15.349 0 0 0-4.55 2.48.851.851 0 0 0-.141 1.209.868.868 0 0 0 1.207.141 13.791 13.791 0 0 1 17.791.613l-.928 1.487a12.079 12.079 0 1 0 3.094 12.637.871.871 0 0 0-.54-1.1.86.86 0 0 0-1.1.538 10.291 10.291 0 0 1-9.778 7.009h-.863v-3.451a.862.862 0 1 0-1.724 0v3.115a10.26 10.26 0 0 1-7.429-7.429h.528a.862.862 0 1 0 0-1.724H39.8c0-.279-.043-.571-.043-.863a10.346 10.346 0 0 1 17.673-7.319l.064.085-2.094 3.334a.867.867 0 0 0 .271 1.186.866.866 0 0 0 1.184-.271l1.78-2.834a10.4 10.4 0 0 1 1.79 6.036.862.862 0 1 0 1.724 0 12 12 0 0 0-2.534-7.654l.958-1.542a13.791 13.791 0 1 1-21.3.41.863.863 0 0 0-1.347-1.078 15.554 15.554 0 0 0-3.343 10.5h-3.45a.863.863 0 0 0-.861.861v19.84h-1.726V98.472a.862.862 0 1 0-1.724 0v23.286a.864.864 0 0 0 .863.863h35.654a.862.862 0 1 0 0-1.724H49.247v-6.038h.863a15.454 15.454 0 0 0 8.99-2.879l4.194 4.194a2.6 2.6 0 0 0 .5 2.943l7.924 7.926a2.58 2.58 0 0 0 3.655 0l2.436-2.436a2.6 2.6 0 0 0 .01-3.666zM28.546 82.946v-5.175h12.076v5.175zM47.523 120.9H32v-18.979h2.825a15.5 15.5 0 0 0 1.855 5.177h-1.23a.862.862 0 1 0 0 1.724h2.39a15.5 15.5 0 0 0 1.294 1.488l.259.236h-3.946a.863.863 0 1 0 0 1.726h6.038a15.147 15.147 0 0 0 6.038 2.36zm13.562-10.59c.2-.2.389-.433.584-.638l3.966 3.947-1.227 1.24-3.947-3.968c.193-.191.419-.345.624-.581zm15.526 13.067l-2.436 2.436a.857.857 0 0 1-1.219 0l-7.924-7.936a.862.862 0 0 1 0-1.217l2.436-2.436a.864.864 0 0 1 .615-.248.839.839 0 0 1 .6.248l7.936 7.934a.848.848 0 0 1-.021 1.219z" transform="translate(-26.822 -76.045)" fill="#fff"/></g></g></g></g></g><g transform="translate(755 0)"><g transform="scale(0.9829262077250719)"><g class="nc-icon-wrapper"><defs><clipPath id="clip-path"><path id="Rectangle_1481" data-name="Rectangle 1481" fill="#fff" stroke="#707070" stroke-width="1" d="M139 1830h54.938v51.707H139z"/></clipPath></defs><g id="Mask_Group_9" data-name="Mask Group 9" transform="translate(-139 -1830)" clip-path="url(#clip-path)"><g id="_005-enterprise" data-name="005-enterprise" transform="translate(140.616 1830)"><g id="Group_5284" data-name="Group 5284" transform="translate(18.097 17.236)"><g id="Group_5283" data-name="Group 5283"><path id="Rectangle_1454" data-name="Rectangle 1454" fill="#fff" d="M0 0h1.724v1.724H0z"/></g></g><g id="Group_5286" data-name="Group 5286" transform="translate(18.097 20.683)"><g id="Group_5285" data-name="Group 5285"><path id="Rectangle_1455" data-name="Rectangle 1455" fill="#fff" d="M0 0h1.724v1.724H0z"/></g></g><g id="Group_5288" data-name="Group 5288" transform="translate(18.097 24.13)"><g id="Group_5287" data-name="Group 5287"><path id="Rectangle_1456" data-name="Rectangle 1456" fill="#fff" d="M0 0h1.724v1.724H0z"/></g></g><g id="Group_5290" data-name="Group 5290" transform="translate(18.097 27.577)"><g id="Group_5289" data-name="Group 5289"><path id="Rectangle_1457" data-name="Rectangle 1457" fill="#fff" d="M0 0h1.724v1.724H0z"/></g></g><g id="Group_5292" data-name="Group 5292" transform="translate(21.544 17.236)"><g id="Group_5291" data-name="Group 5291"><path id="Rectangle_1458" data-name="Rectangle 1458" fill="#fff" d="M0 0h1.724v1.724H0z"/></g></g><g id="Group_5294" data-name="Group 5294" transform="translate(21.544 20.683)"><g id="Group_5293" data-name="Group 5293"><path id="Rectangle_1459" data-name="Rectangle 1459" fill="#fff" d="M0 0h1.724v1.724H0z"/></g></g><g id="Group_5296" data-name="Group 5296" transform="translate(21.544 24.13)"><g id="Group_5295" data-name="Group 5295"><path id="Rectangle_1460" data-name="Rectangle 1460" fill="#fff" d="M0 0h1.724v1.724H0z"/></g></g><g id="Group_5298" data-name="Group 5298" transform="translate(21.544 27.577)"><g id="Group_5297" data-name="Group 5297"><path id="Rectangle_1461" data-name="Rectangle 1461" fill="#fff" d="M0 0h1.724v1.724H0z"/></g></g><g id="Group_5300" data-name="Group 5300" transform="translate(24.992 17.236)"><g id="Group_5299" data-name="Group 5299"><path id="Rectangle_1462" data-name="Rectangle 1462" fill="#fff" d="M0 0h1.724v1.724H0z"/></g></g><g id="Group_5302" data-name="Group 5302" transform="translate(24.992 20.683)"><g id="Group_5301" data-name="Group 5301"><path id="Rectangle_1463" data-name="Rectangle 1463" fill="#fff" d="M0 0h1.724v1.724H0z"/></g></g><g id="Group_5304" data-name="Group 5304" transform="translate(24.992 24.13)"><g id="Group_5303" data-name="Group 5303"><path id="Rectangle_1464" data-name="Rectangle 1464" fill="#fff" d="M0 0h1.724v1.724H0z"/></g></g><g id="Group_5306" data-name="Group 5306" transform="translate(24.992 27.577)"><g id="Group_5305" data-name="Group 5305"><path id="Rectangle_1465" data-name="Rectangle 1465" fill="#fff" d="M0 0h1.724v1.724H0z"/></g></g><g id="Group_5308" data-name="Group 5308" transform="translate(28.439 17.236)"><g id="Group_5307" data-name="Group 5307"><path id="Rectangle_1466" data-name="Rectangle 1466" fill="#fff" d="M0 0h1.724v1.724H0z"/></g></g><g id="Group_5310" data-name="Group 5310" transform="translate(21.544 13.788)"><g id="Group_5309" data-name="Group 5309"><path id="Rectangle_1467" data-name="Rectangle 1467" fill="#fff" d="M0 0h1.724v1.724H0z"/></g></g><g id="Group_5312" data-name="Group 5312" transform="translate(24.992 13.788)"><g id="Group_5311" data-name="Group 5311"><path id="Rectangle_1468" data-name="Rectangle 1468" fill="#fff" d="M0 0h1.724v1.724H0z"/></g></g><g id="Group_5314" data-name="Group 5314" transform="translate(28.439 13.788)"><g id="Group_5313" data-name="Group 5313"><path id="Rectangle_1469" data-name="Rectangle 1469" fill="#fff" d="M0 0h1.724v1.724H0z"/></g></g><g id="Group_5316" data-name="Group 5316" transform="translate(28.439 20.683)"><g id="Group_5315" data-name="Group 5315"><path id="Rectangle_1470" data-name="Rectangle 1470" fill="#fff" d="M0 0h1.724v1.724H0z"/></g></g><g id="Group_5318" data-name="Group 5318" transform="translate(28.439 24.13)"><g id="Group_5317" data-name="Group 5317"><path id="Rectangle_1471" data-name="Rectangle 1471" fill="#fff" d="M0 0h1.724v1.724H0z"/></g></g><g id="Group_5320" data-name="Group 5320" transform="translate(28.439 27.577)"><g id="Group_5319" data-name="Group 5319"><path id="Rectangle_1472" data-name="Rectangle 1472" fill="#fff" d="M0 0h1.724v1.724H0z"/></g></g><g id="Group_5322" data-name="Group 5322" transform="translate(31.886 17.236)"><g id="Group_5321" data-name="Group 5321"><path id="Rectangle_1473" data-name="Rectangle 1473" fill="#fff" d="M0 0h1.724v1.724H0z"/></g></g><g id="Group_5324" data-name="Group 5324" transform="translate(31.886 20.683)"><g id="Group_5323" data-name="Group 5323"><path id="Rectangle_1474" data-name="Rectangle 1474" fill="#fff" d="M0 0h1.724v1.724H0z"/></g></g><g id="Group_5326" data-name="Group 5326" transform="translate(31.886 24.13)"><g id="Group_5325" data-name="Group 5325"><path id="Rectangle_1475" data-name="Rectangle 1475" fill="#fff" d="M0 0h1.724v1.724H0z"/></g></g><g id="Group_5328" data-name="Group 5328" transform="translate(31.886 27.577)"><g id="Group_5327" data-name="Group 5327"><path id="Rectangle_1476" data-name="Rectangle 1476" fill="#fff" d="M0 0h1.724v1.724H0z"/></g></g><g id="Group_5330" data-name="Group 5330"><g id="Group_5329" data-name="Group 5329"><path id="Path_14624" data-name="Path 14624" d="M50.846 12.927H37.918V.862A.861.861 0 0 0 37.057 0H14.65a.861.861 0 0 0-.862.861v12.066H.862a.861.861 0 0 0-.862.86v31.025a.861.861 0 0 0 .861.862h1.8a5.172 5.172 0 0 0-.078.862v4.309a.861.861 0 0 0 .861.862H48.26a.861.861 0 0 0 .862-.861v-4.31a5.149 5.149 0 0 0-.078-.862h1.8a.861.861 0 0 0 .862-.861V13.788a.861.861 0 0 0-.86-.861zm-13.79 24.129a1.724 1.724 0 1 1-1.724-1.724 1.723 1.723 0 0 1 1.724 1.724zm-20.682-1.723a1.724 1.724 0 1 1-1.724 1.724 1.723 1.723 0 0 1 1.724-1.724zM11.2 49.983H4.309v-3.447a3.447 3.447 0 0 1 6.894 0zM6.032 39.642a1.724 1.724 0 1 1 1.724 1.724 1.723 1.723 0 0 1-1.724-1.724zm5.3 3.17a5.2 5.2 0 0 0-1.084-.8 3.447 3.447 0 1 0-4.987 0 5.2 5.2 0 0 0-1.978 1.942H1.724V14.65h12.064V34.8a3.4 3.4 0 0 0 .092 4.623 5.185 5.185 0 0 0-2.546 3.389zm8.487 7.172h-6.892v-6.033a3.447 3.447 0 0 1 6.894 0zm10.341 0h-8.616v-6.033a4.309 4.309 0 0 1 8.618 0zm-6.894-14.65a2.585 2.585 0 1 1 2.585 2.585 2.585 2.585 0 0 1-2.583-2.586zm7.834 5.654a6.07 6.07 0 0 0-2.471-2.388 4.309 4.309 0 1 0-5.552 0 6.07 6.07 0 0 0-2.477 2.388 5.2 5.2 0 0 0-1.738-1.564 3.422 3.422 0 0 0-3.355-5.692V1.724h20.688v32.008a3.432 3.432 0 0 0-3.355 5.692 5.205 5.205 0 0 0-1.74 1.564zm7.678 5.548v3.447h-6.892v-6.032a3.447 3.447 0 0 1 6.894 0zm8.622 3.447h-6.9v-3.447a3.447 3.447 0 0 1 6.894 0zm-5.173-10.341a1.724 1.724 0 1 1 1.724 1.724 1.723 1.723 0 0 1-1.724-1.724zm7.756 4.309h-1.561a5.2 5.2 0 0 0-1.978-1.942 3.447 3.447 0 1 0-4.987 0 5.192 5.192 0 0 0-1.084.8 5.185 5.185 0 0 0-2.547-3.388 3.4 3.4 0 0 0 .092-4.623V14.65h12.065v29.3z" fill="#fff"/></g></g><g id="Group_5332" data-name="Group 5332" transform="translate(40.504 19.821)"><g id="Group_5331" data-name="Group 5331"><path id="Rectangle_1477" data-name="Rectangle 1477" fill="#fff" d="M0 0h1.724v13.788H0z"/></g></g><g id="Group_5334" data-name="Group 5334" transform="translate(45.674 19.821)"><g id="Group_5333" data-name="Group 5333"><path id="Rectangle_1478" data-name="Rectangle 1478" fill="#fff" d="M0 0h1.724v13.788H0z"/></g></g><g id="Group_5336" data-name="Group 5336" transform="translate(4.309 19.821)"><g id="Group_5335" data-name="Group 5335"><path id="Rectangle_1479" data-name="Rectangle 1479" fill="#fff" d="M0 0h1.724v13.788H0z"/></g></g><g id="Group_5338" data-name="Group 5338" transform="translate(9.48 19.821)"><g id="Group_5337" data-name="Group 5337"><path id="Rectangle_1480" data-name="Rectangle 1480" fill="#fff" d="M0 0h1.724v13.788H0z"/></g></g><g id="Group_5340" data-name="Group 5340" transform="translate(19.821 3.447)"><g id="Group_5339" data-name="Group 5339"><path id="Path_14625" data-name="Path 14625" d="M23.471 2.133H13.128a.861.861 0 0 0-.862.861v6.895a.861.861 0 0 0 .861.862H23.47a.861.861 0 0 0 .862-.861V3a.861.861 0 0 0-.861-.867zm-.863 6.894H13.99v-5.17h8.618z" transform="translate(-12.267 -2.133)" fill="#fff"/></g></g></g></g></g></g></g></svg>