<svg id="addon" xmlns="http://www.w3.org/2000/svg" width="79.117" height="79.117" viewBox="0 0 79.117 79.117">
  <path id="Path_8999" data-name="Path 8999" d="M2234.481,2010.118a39.559,39.559,0,1,1-39.558-39.558A39.561,39.561,0,0,1,2234.481,2010.118Z" transform="translate(-2155.364 -1970.56)" fill="#eef0f7"/>
  <g id="Group_4393" data-name="Group 4393" transform="translate(37.566 23.788)">
    <path id="Path_9000" data-name="Path 9000" d="M2173.54,2012.35a1.992,1.992,0,0,1-1.991-1.989V1982.8a1.993,1.993,0,1,1,3.985,0v27.558A1.992,1.992,0,0,1,2173.54,2012.35Z" transform="translate(-2171.549 -1980.809)" fill="#949494"/>
  </g>
  <g id="Group_4394" data-name="Group 4394" transform="translate(23.786 37.568)">
    <path id="Path_9001" data-name="Path 9001" d="M2195.164,1990.731h-27.558a1.993,1.993,0,1,1,0-3.985h27.558a1.993,1.993,0,1,1,0,3.985Z" transform="translate(-2165.612 -1986.746)" fill="#949494"/>
  </g>
</svg>
