<svg xmlns="http://www.w3.org/2000/svg" viewBox="0 0 319.4 197.56"><defs><style>.cls-1{isolation:isolate;}.cls-2{fill:#efba93;}.cls-3,.cls-4{fill:#035582;}.cls-4,.cls-7{opacity:0.43;}.cls-4,.cls-6,.cls-7{mix-blend-mode:multiply;}.cls-5{fill:#007da3;}</style></defs><title>arm2</title><g class="cls-1"><g id="Layer_2" data-name="Layer 2"><g id="Layer_1-2" data-name="Layer 1"><path class="cls-2" d="M144.17,147c-14,1.25-27.87,6.34-38.67,15.38-10.54,8.83-18.84,20-29.2,29-4.56,4-10.65,7.69-16.31,5.56a9.43,9.43,0,0,1-5.88-7.19c-.59-3.65,3.52-9.07,3.52-9.07s-4.58,1.65-6.85,2.51A26.39,26.39,0,0,1,45,184.9,9.09,9.09,0,0,1,39.2,184a8.35,8.35,0,0,1-3.77-5.92c-.3-1.84.93-8.82.93-8.82s-3.76,1.73-5,2.53a12.62,12.62,0,0,1-8.2,2.14,7.67,7.67,0,0,1-6.42-5,10.08,10.08,0,0,1-.18-4.06c.54-4.51,2.59-10.94,6-14.13-1.85,1.72-3.75,2.58-5.56,4.52a18.32,18.32,0,0,1-6.58,4.92c-8.77,3.41-11.81-4.55-9.85-11.42,2.6-9.1,6-16.58,12.32-23.77S27,111.64,34.07,105c4.84-4.51,9.44-9.31,14.64-13.41,23.79-18.74,60-20.75,88.94-18.06a1.69,1.69,0,0,1,1.64-1,3.11,3.11,0,0,1,2,1.38q2.72.28,5.5.66l-5,.11a.77.77,0,0,1,.09.13,105.87,105.87,0,0,1,10.43,22.46c.13.34.24.68.36,1,.81,2.51,1.51,5,2.13,7.61,2.17,9,8.75,34-2.54,39.5C149.77,146.66,146.92,146.75,144.17,147Z"/><path class="cls-3" d="M319.38,92.4a12.62,12.62,0,0,1-8.9,12.73l-6.85,2.1c-30.38,9.27-60.75,18.64-91.35,27.16-13.54,3.76-27.12,7.42-40.87,10.35-6,1.31-13.15,4.76-17.29.17a14.19,14.19,0,0,1-2-3.28c-2.93-6-5.52-12.07-7.86-18.21-5.78-15.1-10.14-30.55-14.66-46.24-.58-2.06-1.19-4.29-.52-6.33.77-2.44,3.11-4,5.27-5.35s4.57-2.85,6.83-4.27c24.31-15.16,51.55-24.61,77.73-36.09C237.67,16.9,256.5,8.76,275.43.94a12.56,12.56,0,0,1,10.2.29,12.34,12.34,0,0,1,5,4.32A171.26,171.26,0,0,1,319.38,92.4Z"/><path class="cls-4" d="M319.38,92.4a12.62,12.62,0,0,1-8.9,12.73l-6.85,2.1c-30.38,9.27-60.75,18.64-91.35,27.16-13.54,3.76-27.12,7.42-40.87,10.35-6,1.31-13.15,4.76-17.29.17a14.19,14.19,0,0,1-2-3.28c-2.93-6-5.52-12.07-7.86-18.21a42.13,42.13,0,0,1,4.37-4.39c8.19-7.06,18.43-11.2,28.22-15.84a260.52,260.52,0,0,0,88.51-68.91c8.23-10,13-24.57,20.27-33.05a12.34,12.34,0,0,1,5,4.32A171.26,171.26,0,0,1,319.38,92.4Z"/><path class="cls-5" d="M191.83,122.12a6.3,6.3,0,1,1-6.3-6.29A6.3,6.3,0,0,1,191.83,122.12Z"/><path class="cls-5" d="M212,116.8a6.3,6.3,0,1,1-6.3-6.29A6.3,6.3,0,0,1,212,116.8Z"/><circle class="cls-4" cx="205.71" cy="116.83" r="3.86"/><path class="cls-4" d="M189.11,122.18a3.86,3.86,0,1,1-3.86-3.86A3.86,3.86,0,0,1,189.11,122.18Z"/><g class="cls-6"><path class="cls-2" d="M22.55,150.68c1.88-2.46,3.92-4.78,6-7.06s4.28-4.47,6.55-6.58a90.29,90.29,0,0,1,7.11-6,51.68,51.68,0,0,1,7.84-5c-.63.46-1.26.91-1.89,1.34s-1.23.93-1.84,1.4c-1.24.91-2.42,1.9-3.6,2.88-2.35,2-4.64,4-6.9,6.13s-4.46,4.23-6.69,6.36Z"/></g><g class="cls-6"><path class="cls-2" d="M36.08,169.58c1.85-2.83,3.88-5.53,6-8.18s4.31-5.22,6.62-7.69A86.91,86.91,0,0,1,56,146.66a44.19,44.19,0,0,1,8.34-5.78c-.68.51-1.36,1-2,1.48s-1.31,1.06-2,1.58S59,145,58.4,145.58s-1.26,1.11-1.86,1.7c-2.44,2.29-4.79,4.7-7.08,7.16s-4.54,5-6.77,7.48c-1.12,1.26-2.22,2.54-3.31,3.82Z"/></g><g class="cls-6"><path class="cls-2" d="M57.26,180.86a82.94,82.94,0,0,1,5-7.58,88.64,88.64,0,0,1,5.76-7.06,67.72,67.72,0,0,1,6.53-6.37,39.29,39.29,0,0,1,7.54-5.12c-.61.46-1.22.91-1.84,1.34s-1.17,1-1.76,1.41-1.17,1-1.73,1.46-1.14,1-1.66,1.52c-2.19,2.06-4.26,4.25-6.29,6.48s-4,4.53-5.9,6.84c-1,1.16-1.92,2.34-2.85,3.52S58.2,179.67,57.26,180.86Z"/></g><g class="cls-7"><path class="cls-3" d="M150.76,70.77c2.86,20.32,9.55,40.63,20.51,58.07a.31.31,0,0,0,.53-.31c-10.17-18.1-17.55-37.24-20.8-57.83,0-.16-.27-.09-.24.07Z"/></g></g></g></g></svg>