<svg xmlns="http://www.w3.org/2000/svg" viewBox="0 0 309 196.32"><defs><style>.cls-1{isolation:isolate;}.cls-2{fill:#e29266;}.cls-3{fill:#e76f50;}.cls-4,.cls-7{mix-blend-mode:multiply;}.cls-5{fill:#efba93;}.cls-6{fill:#ededed;}.cls-7{fill:#e96246;opacity:0.41;}</style></defs><title>arms</title><g class="cls-1"><g id="Layer_2" data-name="Layer 2"><g id="Layer_1-2" data-name="Layer 1"><path class="cls-2" d="M182.47,84.41c2.5-2.27,5.4-4.55,8.79-4.59a17.31,17.31,0,0,1,6.07,1.61c18.7,7.23,35.34,8.89,55.08,8.23,14-.46,32.75,2.32,43.73,12a20.1,20.1,0,0,1,3.26,3.58,14.26,14.26,0,0,1,1.78,11.34,7.88,7.88,0,0,1-.28,1.06,17.33,17.33,0,0,1-4.22,6.72c-.82.81-2.22,1.46-2.88,2.35-.9,1.23-.78.82.32,1.53,2.15,1.41,4.67,1.75,6.73,3.57a12.48,12.48,0,0,1,3.68,5.56c2.43,8-2.35,14.71-7.23,15.68,5,.25,10.64,4.67,11.58,10.08.74,4.29-1.92,9.6-5.26,12.24-2.52,2-7.05,1.82-7.64,4.28s4,4.88,2.9,8.1c-1.46,4.24-11.22,6.53-14.95,7.45-20.81,5.18-37-8.67-56.43-17.63a135.4,135.4,0,0,1-30.21-18.12C187,151.58,165.2,151,155.07,142.85c-9.26-7.41-3.29-15.16,1.65-24.76.16-.36.34-.71.53-1.07,1.33-2.55,2.76-5,4.28-7.48A116.89,116.89,0,0,1,182.47,84.41Z"/><path class="cls-3" d="M195.35,85a13.67,13.67,0,0,1-.95,3.72c-2.21,6.31-4.72,12.41-7.44,18.38-3.15,6.93-6.59,13.69-10.18,20.38-4,7.54-8.25,15-12.49,22.51-1,1.87-2.21,3.86-4.13,4.82-2.29,1.15-5,.59-7.5,0-2.63-.64-5.25-1.26-7.84-1.87q-3.45-.83-6.88-1.79c-25.27-7-49-18.53-73.4-28.26-19-7.59-38-15.28-56.89-23.29A12.61,12.61,0,0,1,.25,85.53,171.66,171.66,0,0,1,42,4.12,12.63,12.63,0,0,1,57.29,1.51c2.1,1.13,4.19,2.29,6.29,3.42,27.94,15.13,55.91,30.18,83.47,46,10.12,5.84,20.25,11.73,30.11,18,2,1.27,4,2.53,5.93,3.84C188.25,76.18,195.71,78.82,195.35,85Z"/><g class="cls-4"><path class="cls-5" d="M291.78,174.68c-3.07.39-6.16.57-9.25.67s-6.19.09-9.28,0a92.43,92.43,0,0,1-9.25-.86,51.91,51.91,0,0,1-9.05-2.1c.77.13,1.53.26,2.28.41s1.53.22,2.29.33c1.52.24,3.05.39,4.58.54,3.06.29,6.13.47,9.2.61s6.15.21,9.23.3Z"/></g><g class="cls-4"><path class="cls-5" d="M290.85,151.74c-3.36.16-6.72.13-10.07,0s-6.71-.28-10.06-.57-6.69-.67-10-1.26a64.43,64.43,0,0,1-9.8-2.35c.83.15,1.65.3,2.47.47s1.66.26,2.48.39c1.65.26,3.31.49,5,.67,3.32.4,6.64.73,10,1s6.66.55,10,.83Z"/></g><g class="cls-4"><path class="cls-5" d="M288.18,127.83c-3.1.19-6.21.19-9.32.12s-6.21-.23-9.3-.51-6.19-.64-9.25-1.21a61.07,61.07,0,0,1-9.05-2.25c.77.13,1.53.27,2.29.42s1.53.25,2.29.37c1.52.27,3.06.46,4.59.65,3.07.37,6.14.68,9.22,1s6.17.5,9.25.76Z"/></g><path class="cls-6" d="M195.35,85a13.67,13.67,0,0,1-.95,3.72c-2.21,6.31-4.72,12.41-7.44,18.38-3.15,6.93-6.59,13.69-10.18,20.38-4,7.54-8.25,15-12.49,22.51-1,1.87-2.21,3.86-4.13,4.82-2.29,1.15-5,.59-7.5,0-2.63-.64-5.25-1.26-7.84-1.87q-3.45-.83-6.88-1.79C149.86,132.41,169.43,91,177.16,69c2,1.27,4,2.53,5.93,3.84C188.25,76.18,195.71,78.82,195.35,85Z"/><path class="cls-7" d="M176.78,127.48c-4,7.54-8.25,15-12.49,22.51-1,1.87-2.21,3.86-4.13,4.82-2.29,1.15-5,.59-7.5,0-2.63-.64-5.25-1.26-7.84-1.87-27.88-6.69-53.72-19.45-80.28-30-19-7.59-38-15.28-56.89-23.29A12.61,12.61,0,0,1,.25,85.53a171.36,171.36,0,0,1,23-56.93C44.63,52.79,108.74,118.92,176.78,127.48Z"/></g></g></g></svg>