<svg xmlns="http://www.w3.org/2000/svg" width="179.101" height="176.911" viewBox="0 0 179.101 176.911">
  <g id="box-graph" transform="translate(-2139.948 -2020.103)">
    <g id="Group_4400" data-name="Group 4400" transform="translate(2281.808 2020.103)">
      <g id="Group_4396" data-name="Group 4396">
        <rect id="Rectangle_915" data-name="Rectangle 915" width="37.241" height="37.241" rx="3.357" fill="#b5b5b5"/>
      </g>
      <g id="Group_4399" data-name="Group 4399" transform="translate(7.39 10.417)">
        <g id="Group_4398" data-name="Group 4398">
          <g id="Group_4397" data-name="Group 4397">
            <path id="Path_9002" data-name="Path 9002" d="M2135.247,1950.1l-9.415-8.209a1.855,1.855,0,0,1,2.437-2.8l6.659,5.805,9.493-10.589a1.854,1.854,0,1,1,2.762,2.475Z" transform="translate(-2125.198 -1933.697)" fill="#f3f3f3"/>
          </g>
        </g>
      </g>
    </g>
    <g id="Group_4402" data-name="Group 4402" transform="translate(2281.808 2066.76)">
      <g id="Group_4401" data-name="Group 4401">
        <path id="Rectangle_916" data-name="Rectangle 916" d="M3.357,0H33.884a3.357,3.357,0,0,1,3.357,3.357V33.881a3.358,3.358,0,0,1-3.358,3.358H3.357A3.357,3.357,0,0,1,0,33.881V3.357A3.357,3.357,0,0,1,3.357,0Z" fill="#b5b5b5"/>
      </g>
    </g>
    <path id="Path_9004" data-name="Path 9004" d="M2060.894,2045.207,2098.187,2013l20.719,16.1,44.4-42.545L2189.06,2013l50.55-37.681v69.359Z" transform="translate(79.054 151.808)" fill="#ffdc8c"/>
    <rect id="Rectangle_918" data-name="Rectangle 918" width="111.92" height="85.631" rx="5.332" transform="translate(2147.542 2020.103)" fill="#dfe1e8"/>
  </g>
</svg>
