<svg xmlns="http://www.w3.org/2000/svg" xmlns:xlink="http://www.w3.org/1999/xlink" width="308.283" height="328.734" viewBox="0 0 308.283 328.734">
  <defs>
    <linearGradient id="linear-gradient" x1="0.5" y1="1.883" x2="0.5" y2="-0.003" gradientUnits="objectBoundingBox">
      <stop offset="0.005" stop-color="#ffd819"/>
      <stop offset="1" stop-color="#feb744"/>
    </linearGradient>
    <linearGradient id="linear-gradient-2" x1="0" y1="0.5" x2="1" y2="0.5" xlink:href="#linear-gradient"/>
  </defs>
  <g id="bulb-men" transform="translate(-2687.241 -813.475)">
    <g id="Group_4064" data-name="Group 4064" transform="translate(2702.942 882.915)">
      <path id="Path_8600" data-name="Path 8600" d="M2799.779,1069.12c-15.052-7.012-46.389,8.283-54.327-9.369s33.8-11.293,27.554-16.824-44.936,4.2-49.11-14.422c-3.458-15.422,19.933-12.678,23.254-14.525s-28.9-1.285-30.579-10.249,11.694-10.917,18.051-10.284-29.25-11.146-28.891-22.7,27.952,3.285,22.452-4.782-30.761-17.154-26.394-26.675,15.915.363,22.271,1-10.613-16.626-14.041-36.051,6.892-38.11,14.6-23.332,6.078,47.77,12.352,47.717,8.2-27.881,17.282-11.683-11.408,37.512-1.22,38.027,14.832-14.117,20.133-5.8-15.746,28.638-9.4,30.073,9.331-1.938,21.273-13.468c11.482-11.085,22.248,8.163,9.6,21.885s-17.393,26.1-10.18,21.677,14.776-10.031,22.184-13.955c16.772-8.888,24.713,5.026,10.965,22.52s-21.6,32.244-13.092,23.8,31.281-23.945,21.779-6.3S2799.779,1069.12,2799.779,1069.12Z" transform="translate(-2701.284 -875.579)" fill="#2a9d8e"/>
      <path id="Path_8601" data-name="Path 8601" d="M2797.74,1066.338c-62.117-89.682-79.193-167.2-79.193-167.2" transform="translate(-2699.245 -872.797)" fill="none" stroke="#1f7264" stroke-miterlimit="10" stroke-width="1"/>
      <path id="Path_8602" data-name="Path 8602" d="M2707.615,935.643c15.7-2.434,33.7,21.84,33.7,21.84" transform="translate(-2700.536 -868.505)" fill="none" stroke="#1f7264" stroke-miterlimit="10" stroke-width="1"/>
      <path id="Path_8603" data-name="Path 8603" d="M2714.463,962.06c18.833-6.552,38.747,20.256,38.747,20.256" transform="translate(-2699.727 -865.486)" fill="none" stroke="#1f7264" stroke-miterlimit="10" stroke-width="1"/>
      <path id="Path_8604" data-name="Path 8604" d="M2723.078,988.581c16.752-8.257,39.537,11.012,39.537,11.012" transform="translate(-2698.709 -862.475)" fill="none" stroke="#1f7264" stroke-miterlimit="10" stroke-width="1"/>
      <path id="Path_8605" data-name="Path 8605" d="M2731.522,1014.146c18.669-15.051,38.825-1.136,43.308,6.232" transform="translate(-2697.712 -860.005)" fill="none" stroke="#1f7264" stroke-miterlimit="10" stroke-width="1"/>
      <path id="Path_8606" data-name="Path 8606" d="M2750.173,1038.824c17.058-14.236,31.47-6.42,36.012.378" transform="translate(-2695.509 -857.24)" fill="none" stroke="#1f7264" stroke-miterlimit="10" stroke-width="1"/>
      <path id="Path_8607" data-name="Path 8607" d="M2744.322,918.805c-8.734,25.767-8.673,36.215-3.477,47.674" transform="translate(-2697.032 -870.474)" fill="none" stroke="#1f7264" stroke-miterlimit="10" stroke-width="1"/>
      <path id="Path_8608" data-name="Path 8608" d="M2760.908,947.573c-20.865,26.449-9.209,41.388-9.209,41.388" transform="translate(-2695.712 -867.076)" fill="none" stroke="#1f7264" stroke-miterlimit="10" stroke-width="1"/>
      <path id="Path_8609" data-name="Path 8609" d="M2783.728,962.338c-19.723,25.1-28.3,35.216-22.39,45.659" transform="translate(-2694.407 -865.332)" fill="none" stroke="#1f7264" stroke-miterlimit="10" stroke-width="1"/>
      <path id="Path_8610" data-name="Path 8610" d="M2805.469,986.915c-29.409,32.131-31.17,42.973-28.387,48.119" transform="translate(-2692.442 -862.429)" fill="none" stroke="#1f7264" stroke-miterlimit="10" stroke-width="1"/>
      <path id="Path_8611" data-name="Path 8611" d="M2811.906,1017.174c-23.457,21.671-29.465,24.208-26.678,28.316" transform="translate(-2691.443 -858.855)" fill="none" stroke="#1f7264" stroke-miterlimit="10" stroke-width="1"/>
    </g>
    <g id="Group_4067" data-name="Group 4067" transform="translate(2864.36 883.828)">
      <path id="Path_8612" data-name="Path 8612" d="M2905.664,933.252a182.08,182.08,0,0,0-48.358,61.8,178.375,178.375,0,0,0-8.413,20.75,1.663,1.663,0,0,1-1.7,1.308,1.624,1.624,0,0,1-1.533-1.5q0-1.226-.008-2.451c-.006-2.1,3.254-2.334,3.26-.228q0,1.226.008,2.451l-3.235-.2a184.543,184.543,0,0,1,16.905-36.818,183.937,183.937,0,0,1,41.277-47.843,1.647,1.647,0,0,1,2.264.466,1.673,1.673,0,0,1-.466,2.263Z" transform="translate(-2845.65 -870.035)" fill="#2a9d8e"/>
      <path id="Path_8613" data-name="Path 8613" d="M2874.261,906.218c-6.828,15.32-2.464,32.139,21,35.38,0,0-8.747,21.887,12.888,32.285s44.618-19.49,44.618-19.49c-12.868,4.034-31.811-7.561-31.665-10.521s11.4,6.312,25.129,8.85,22.74-20.824,22.74-20.824c-9.983,4.872-26.705-8.845-27.807-10.8s19.653,11.612,27.2,6.511c9.81-6.633,3.839-22.321,1.087-30.848s1.57-16.113,1.57-16.113-24.011-7.853-30.22-.646-6.9,20.087-9.679,16.635,4.292-18.62,7.44-20.2c0,0-11.5-.546-16.754,2.737s-7.756,31.2-10.492,28.978-2.635-20.946,4.725-29.078C2916.038,879.067,2880.318,892.629,2874.261,906.218Zm73.053,29.916c1.673-.06,2.312,1.629,2.8,3.482.348,1.317-.625,2.283-1.945,1.564a18.661,18.661,0,0,1-3.656-3.683C2944.044,936.789,2945.643,936.2,2947.315,936.135Zm-33.865,5.889c1.4-.233,4.77,6.05,8.276,8.074s4.629,3.78,4.293,5.956a2.856,2.856,0,0,1-3.057,1.848c-2.47-.49-8.346-7.424-10.677-10.69S2912.056,942.255,2913.45,942.024Zm23.338-14.13c3.2,1.771,6.326,4.755,5.361,6.664-1.6,3.171-3.708-.729-5.831-2.331-1.48-1.118-6.079-5.591-5.8-7.2S2933.583,926.122,2936.789,927.894Zm3.224-32.714-.009-.037c-.309-1.243,2-4.766,3.664-7.489s2.394.15,2.323,4.361a5.925,5.925,0,0,1-1.539,4.365A2.659,2.659,0,0,1,2940.012,895.18Zm-38.205,15.226c1.776,2.576.664,5.25,3,9.448s.867,6.422.867,6.422c-2.423,4.916-4.263-1.612-7.751-9.634S2900.032,907.832,2901.807,910.407Zm-3.848-10.252a8.5,8.5,0,0,1,1.645,4.673,2.657,2.657,0,0,1-1.427,2.348c-1.481.741-1.781-.987-3.9-3.912C2891.635,899.607,2897.041,898.884,2897.959,900.155Z" transform="translate(-2842.616 -876.396)" fill="#2a9d8e"/>
      <g id="Group_4066" data-name="Group 4066" transform="translate(51.981 4.082)">
        <g id="Group_4065" data-name="Group 4065">
          <path id="Path_8614" data-name="Path 8614" d="M2920.105,948.107c1.314.937,2.633,1.838,3.929,2.71.618.417-.059,1.353-.675.938-1.339-.9-2.7-1.835-4.054-2.805A3.425,3.425,0,0,0,2920.105,948.107Z" transform="translate(-2888.931 -872.007)" fill="#2a9d8e"/>
          <path id="Path_8615" data-name="Path 8615" d="M2905.389,933.395c-.006-.059-.014-.119-.019-.178a.6.6,0,0,1,.017-.2q-1.684-2.824-3.142-5.765a3.638,3.638,0,0,0,.77-1.013q1.6,3.281,3.489,6.42c1.825-1.222,3.619-2.474,5.363-3.781,4.01-3,7.812-6.239,11.5-9.6a37.248,37.248,0,0,1-1.024-29.544.578.578,0,0,1,1.08.411,36.1,36.1,0,0,0,.838,28.314c4.581-4.219,9-8.62,13.441-13a32.117,32.117,0,0,1,1.089-9.091,2.737,2.737,0,0,0,1.093.341,30.316,30.316,0,0,0-1.046,7.633c3.7-3.633,7.42-7.235,11.277-10.687a124.9,124.9,0,0,1,17.911-13.607c.343.106.533.168.533.168s-.248.437-.586,1.211c-10.574,6.6-19.693,15.248-28.591,23.99a32.4,32.4,0,0,0,15.525,1.334.578.578,0,0,1,.171,1.143,33.6,33.6,0,0,1-16.553-1.547c-.021-.008-.039-.019-.059-.028q-2.064,2.033-4.121,4.061c-5.792,5.692-11.654,11.339-17.974,16.449a49.084,49.084,0,0,0,22.324,13.552c.717.2.3,1.282-.412,1.08a50.209,50.209,0,0,1-22.814-13.908l-.132.106c-2.815,2.232-5.743,4.295-8.723,6.281a23,23,0,0,0,2.908,8.406,2.39,2.39,0,0,0-.665,1.139,24.172,24.172,0,0,1-3.309-8.839c-3.917,2.577-7.914,5.04-11.858,7.586q-.779.5-1.553,1.011c.219-.807.418-1.405.54-1.746C2896.9,938.763,2901.21,936.147,2905.389,933.395Z" transform="translate(-2892.14 -880.046)" fill="#1f7264"/>
          <path id="Path_8616" data-name="Path 8616" d="M2895.4,903.96a2.428,2.428,0,0,0,.5-.337c.156.756.328,1.51.505,2.261a2.383,2.383,0,0,0-1.106.329q-.248-1.04-.471-2.084A1.467,1.467,0,0,0,2895.4,903.96Z" transform="translate(-2891.822 -877.261)" fill="#2a9d8e"/>
          <path id="Path_8617" data-name="Path 8617" d="M2940.144,885.049a30.5,30.5,0,0,0-2.113,3.012,7.3,7.3,0,0,0-.34-1.613q.713-1.065,1.515-2.074C2939.668,883.792,2940.607,884.466,2940.144,885.049Z" transform="translate(-2886.76 -879.561)" fill="#2a9d8e"/>
        </g>
      </g>
    </g>
    <g id="Group_4071" data-name="Group 4071" transform="translate(2740.603 827.496)">
      <path id="Path_8618" data-name="Path 8618" d="M2823.272,826.015A88.274,88.274,0,0,0,2760.83,976.73c11.223,11.228,17.582,30.238,17.213,44.213H2868.5c-.368-13.974,5.991-32.984,17.214-44.213a88.274,88.274,0,0,0-62.442-150.715Z" transform="translate(-2734.966 -826.015)" fill="#e9c464"/>
      <path id="Path_8619" data-name="Path 8619" d="M2865.2,999.873h-91.462a7.3,7.3,0,0,0-7.3,7.3v18.85a39.8,39.8,0,0,0,39.8,39.8h26.447a39.8,39.8,0,0,0,39.8-39.8v-18.85A7.3,7.3,0,0,0,2865.2,999.873Z" transform="translate(-2731.248 -805.48)" fill="#264653"/>
      <g id="Group_4070" data-name="Group 4070" transform="translate(36.994 92.677)">
        <g id="Group_4068" data-name="Group 4068" transform="translate(49.824 0)">
          <path id="Path_8620" data-name="Path 8620" d="M2857.866,909.379c-4-1.312-10.735-.553-20.094,10.506a53.526,53.526,0,0,0-7.615,12.448,155.882,155.882,0,0,1-16.227-2.166l-1.318,6.731c.571.114,6.884,1.329,14.877,2.089-10.763,30.265-9.227,73.367-9.138,75.616l6.855-.269c-.02-.549-1.647-45.858,9.378-74.849,8.305.348,17.1-.132,22.729-2.865,6.1-2.971,8.443-10.085,8.055-15.821C2864.983,915.151,2862.11,910.774,2857.866,909.379Zm-3.553,21.071c-3.85,1.87-10.151,2.413-16.76,2.272a43.571,43.571,0,0,1,5.457-8.4c6.148-7.271,10.6-9.113,12.715-8.423,1.513.5,2.612,2.6,2.8,5.366C2858.748,924.593,2857.529,928.887,2854.313,930.45Z" transform="translate(-2812.612 -908.902)" fill="#fff"/>
        </g>
        <g id="Group_4069" data-name="Group 4069">
          <path id="Path_8621" data-name="Path 8621" d="M2819.53,930.168a155.8,155.8,0,0,1-16.227,2.166,53.527,53.527,0,0,0-7.616-12.448c-9.359-11.063-16.1-11.817-20.094-10.506-4.243,1.394-7.12,5.772-7.5,11.419-.388,5.736,1.955,12.85,8.057,15.817,5.625,2.737,14.413,3.226,22.722,2.869,11.018,28.986,9.4,74.3,9.382,74.849l6.853.269c.091-2.249,1.626-45.351-9.136-75.616,7.99-.759,14.306-1.975,14.877-2.089Zm-40.385.283c-3.212-1.563-4.433-5.858-4.208-9.189.187-2.765,1.286-4.867,2.8-5.366a3,3,0,0,1,.923-.132c2.356,0,6.43,2.212,11.792,8.555a43.552,43.552,0,0,1,5.454,8.4C2789.29,932.863,2782.995,932.32,2779.145,930.45Z" transform="translate(-2768.051 -908.902)" fill="#fff"/>
        </g>
      </g>
      <path id="Path_8622" data-name="Path 8622" d="M2865.2,999.873h-91.462a7.3,7.3,0,0,0-7.3,7.3v7.6h60.924a7.553,7.553,0,1,1,0,15.107h-60.718a39.481,39.481,0,0,0,4.594,15.108H2826.2a7.556,7.556,0,0,1,7.556,7.558V1065.8a39.794,39.794,0,0,0,38.736-39.775v-18.85A7.3,7.3,0,0,0,2865.2,999.873Z" transform="translate(-2731.248 -805.48)" fill="#2a9d8e"/>
      <path id="Path_8623" data-name="Path 8623" d="M2768.631,962.033c-6.641-5.923-20.487-11.287-10.14-.576,10.958,11.347,17.493,29.991,17.213,43.939h9.36C2785.064,999.583,2789.119,980.317,2768.631,962.033Z" transform="translate(-2732.626 -810.742)" opacity="0.5" fill="url(#linear-gradient)"/>
      <path id="Path_8624" data-name="Path 8624" d="M2821.653,826.015a88.124,88.124,0,0,0-72.978,38.569c21.556-27.364,62.212-38.975,101.91-14.528a46.632,46.632,0,0,1,15.257,15.309c27.453,44.769,12.142,88.809-23.142,107.165-15.745,8.194-25.41,31.038-18.939,48.138h43.12c-.28-13.947,6.061-32.783,17.215-43.939a88.274,88.274,0,0,0-62.442-150.715Z" transform="translate(-2733.346 -826.015)" opacity="0.5" fill="url(#linear-gradient-2)"/>
    </g>
    <g id="Group_4085" data-name="Group 4085" transform="translate(2858.799 988.488)">
      <g id="Group_4072" data-name="Group 4072" transform="translate(29.191)">
        <path id="Path_8625" data-name="Path 8625" d="M2871.6,971.276s-7.211.207-3.391,8.428S2871.6,971.276,2871.6,971.276Z" transform="translate(-2866.747 -969.849)" fill="#004991"/>
        <path id="Path_8626" data-name="Path 8626" d="M2869.626,974.066s-1.94,1.191-1.912,7.627c0,.223-.788,2.123-.86,2.348-.273.862.271.918,1.008,1.282.3,4.854,1.027,4.766,1.666,5.193.729.489,6.31-.662,9.893-2.437s4.8-7.078,3.286-10.329S2873.817,971.263,2869.626,974.066Z" transform="translate(-2866.783 -969.646)" fill="#ffd3b3"/>
        <path id="Path_8627" data-name="Path 8627" d="M2881.547,974.748s1.431-3.522,5.051-2.628,4.318,8.6-3.534,7.14A5.9,5.9,0,0,0,2881.547,974.748Z" transform="translate(-2865.039 -969.767)" fill="#004991"/>
        <path id="Path_8628" data-name="Path 8628" d="M2881.056,973.485s.865-1.422,2.367.481c1,1.269,2.586,5,.416,5.92Z" transform="translate(-2865.097 -969.649)" fill="#e76f50"/>
        <path id="Path_8629" data-name="Path 8629" d="M2885.542,978.968c.575,3.051-.919,7.712-6.9,9.73,0,0-.531-1.842-.913-3.646s-5.452-3.871-7.651-5.841q-.164-.148-.309-.3a4.559,4.559,0,0,1-.051-5.994c1.232-1.517,3.954-4.03,8.833-2.375C2882.9,972.019,2884.832,975.2,2885.542,978.968Z" transform="translate(-2866.566 -970)" fill="#004991"/>
        <path id="Path_8630" data-name="Path 8630" d="M2870.9,984.156c.94,1.02,1.119,3.08,1.04,5.048-.021.335-.042.67-.063,1a31.157,31.157,0,0,1-.538,3.7l6.9-.171a42.192,42.192,0,0,1,.17-6.642S2868.676,981.743,2870.9,984.156Z" transform="translate(-2866.336 -968.402)" fill="#ffd3b3"/>
        <path id="Path_8631" data-name="Path 8631" d="M2874.36,981.083a1.991,1.991,0,0,1,2.593-.852c1.65.8.626,3.721-.57,4.2a1.567,1.567,0,0,1-1.678-.246Z" transform="translate(-2865.888 -968.818)" fill="#7f7f7f" opacity="0.4"/>
        <path id="Path_8632" data-name="Path 8632" d="M2873.964,981.093a1.99,1.99,0,0,1,2.593-.852c1.652.8.736,3.884-.57,4.2a1.428,1.428,0,0,1-1.561-.579Z" transform="translate(-2865.935 -968.816)" fill="#ffd3b3"/>
        <path id="Path_8633" data-name="Path 8633" d="M2871.737,989.74a20.483,20.483,0,0,0,4.574-2.316c-1.932.627-4.51,1.32-4.51,1.32C2871.779,989.08,2871.758,989.414,2871.737,989.74Z" transform="translate(-2866.198 -967.942)" fill="#f2a181"/>
      </g>
      <g id="Group_4080" data-name="Group 4080" transform="translate(0 23.833)">
        <path id="Path_8634" data-name="Path 8634" d="M2859.916,992.208l5.453,23.953a1.146,1.146,0,0,1-.955,1.389l-16.974,2.438a1.147,1.147,0,0,1-1.281-.88l-5.453-23.953a1.146,1.146,0,0,1,.955-1.389l16.974-2.439A1.147,1.147,0,0,1,2859.916,992.208Z" transform="translate(-2840.676 -991.315)" fill="#132555"/>
        <path id="Path_8635" data-name="Path 8635" d="M2858.713,992.8l5.221,22.935-16.854,2.42-5.221-22.935Z" transform="translate(-2840.536 -991.14)" fill="#fff2ee"/>
        <g id="Group_4079" data-name="Group 4079" transform="translate(2.811 3.422)">
          <g id="Group_4073" data-name="Group 4073">
            <path id="Path_8636" data-name="Path 8636" d="M2843.487,997.026l.042,0,14.323-2.057a.3.3,0,0,0-.085-.588l-14.323,2.056a.3.3,0,0,0,.042.591Z" transform="translate(-2843.19 -994.376)" fill="#cdcdf7" opacity="0.7"/>
          </g>
          <g id="Group_4074" data-name="Group 4074" transform="translate(0.483 2.169)" opacity="0.7">
            <path id="Path_8637" data-name="Path 8637" d="M2843.918,998.964a.261.261,0,0,0,.042,0l14.323-2.056a.3.3,0,0,0,.251-.337.3.3,0,0,0-.336-.252l-14.322,2.056a.3.3,0,0,0,.041.59Z" transform="translate(-2843.622 -996.315)" fill="#cdcdf7"/>
          </g>
          <g id="Group_4075" data-name="Group 4075" transform="translate(6.445 4.736)">
            <path id="Path_8638" data-name="Path 8638" d="M2849.251,1000.49a.277.277,0,0,0,.042,0l8.95-1.285a.3.3,0,0,0,.252-.337.3.3,0,0,0-.335-.253l-8.95,1.286a.3.3,0,0,0,.041.591Z" transform="translate(-2848.954 -998.611)" fill="#cdcdf7" opacity="0.7"/>
          </g>
          <g id="Group_4076" data-name="Group 4076" transform="translate(7.081 6.599)" opacity="0.7">
            <path id="Path_8639" data-name="Path 8639" d="M2849.82,1002.156l.042,0,8.951-1.285a.3.3,0,0,0-.085-.589l-8.951,1.285a.3.3,0,0,0,.042.591Z" transform="translate(-2849.523 -1000.278)" fill="#cdcdf7"/>
          </g>
          <g id="Group_4077" data-name="Group 4077" transform="translate(7.717 8.464)" opacity="0.7">
            <path id="Path_8640" data-name="Path 8640" d="M2850.389,1003.823a.287.287,0,0,0,.043,0l8.95-1.285a.3.3,0,0,0,.251-.337.3.3,0,0,0-.336-.251l-8.95,1.285a.3.3,0,0,0,.042.591Z" transform="translate(-2850.092 -1001.945)" fill="#cdcdf7"/>
          </g>
          <g id="Group_4078" data-name="Group 4078" transform="translate(4.435 18.759)">
            <path id="Path_8641" data-name="Path 8641" d="M2847.453,1013.033l.043,0,8.951-1.286a.3.3,0,0,0,.251-.337.3.3,0,0,0-.336-.253l-8.95,1.286a.3.3,0,0,0,.042.592Z" transform="translate(-2847.157 -1011.153)" fill="#cdcdf7" opacity="0.7"/>
          </g>
        </g>
      </g>
      <path id="Path_8642" data-name="Path 8642" d="M2864.249,1014.933a7.425,7.425,0,0,1-2.36-2.1l-2.023-2.408a2,2,0,0,1-.575-1.076c.958-.078,1.628.966,2.5,1.338a.273.273,0,0,0,.356-.334,23.687,23.687,0,0,0-2.111-4.877,1.64,1.64,0,0,1-.324-1.328,8.619,8.619,0,0,1,3.142,2.294,16.753,16.753,0,0,1,1.7,2.165,23.315,23.315,0,0,1,3.047,7.484Z" transform="translate(-2838.477 -965.967)" fill="#e58d6e"/>
      <g id="Group_4081" data-name="Group 4081" transform="translate(28.84 57.657)">
        <path id="Path_8643" data-name="Path 8643" d="M2866.469,1033.192l10.784-11.626s6.531,6.907,5.32,14.491c-.595,3.73-1.677,5.676-2.033,7.454-.332,1.661-1.181,24.708-.708,26.328s2.985,6,4.324,10.776c1.61,5.738,3.323,14.551,4.636,19.518s-.846,11.6-1.313,9.919c-3.985-14.34-14.5-31.336-16.207-38.54S2868.253,1050.893,2866.469,1033.192Z" transform="translate(-2866.469 -1021.566)" fill="#ffd3b3"/>
        <path id="Path_8644" data-name="Path 8644" d="M2873.4,1074.9c-.244-1.887-.594-3.766-.759-5.662a27.155,27.155,0,0,1,2.105-13.035l-6.7-11.358a2.542,2.542,0,0,0-.262.018c.07.663.14,1.318.21,1.957.061.55.113,1.092.174,1.625.078.726.157,1.433.236,2.132.271,2.42.541,4.683.813,6.771.069.524.131,1.039.2,1.537.167,1.267.341,2.472.524,3.6.167,1.1.341,2.132.515,3.093.105.62.227,1.206.341,1.766.053.245.1.489.157.725s.1.472.157.7c.027.114.053.228.087.35Z" transform="translate(-2866.313 -1018.817)" fill="#ffd3b3"/>
        <path id="Path_8645" data-name="Path 8645" d="M2882.328,1091.5s3.306,9.382,3.041,10.574c-.162.728-.9,3.18-1.063,3.528-.067.14-2.435,2.022-.862,1.981,1.553-.039,5.237-4.935,5.784-5.306a2.331,2.331,0,0,0,1.086-2.411,10.1,10.1,0,0,0-2.008-3.553c-.716-1.009-1.733-5.9-1.733-5.9Z" transform="translate(-2864.595 -1013.433)" fill="#ffd3b3"/>
        <path id="Path_8646" data-name="Path 8646" d="M2881.478,1107.267a9.471,9.471,0,0,1,2.549-2.032h0c.292-.371.528-.609.409-.371-.2.4.848.6,1.364.178,1.806-1.449,2.322-3.61,3.212-4.636,1.271-1.458.381-3.382.246-3.7a8.416,8.416,0,0,1,2.6,1.165,4.869,4.869,0,0,1,1.377,1.536,20.693,20.693,0,0,0,1.236,2.822l-1.713,1.363-1.659-1.5-.457.483a3.928,3.928,0,0,0-.882,1.806,9.729,9.729,0,0,1-.432,1.339,4.146,4.146,0,0,1-1.263,1.755l-.728.6a3.051,3.051,0,0,1-1.933.692h-2.942v0h-.45a.776.776,0,0,1-.79-.854A1.653,1.653,0,0,1,2881.478,1107.267Z" transform="translate(-2864.728 -1012.691)" fill="#264653"/>
      </g>
      <g id="Group_4082" data-name="Group 4082" transform="translate(20.269 56.38)">
        <path id="Path_8647" data-name="Path 8647" d="M2859.181,1114.834c.234-.31,2.989-1.016,4.251-1.683a7.57,7.57,0,0,0,2.8-3.188c.23-.739-.162-4.343-.337-5.854-1.2-10.414-4.955-25.489-5.784-31.572-1.442-10.573-1.051-21.657,1.5-39.069l14.16-13.044s4.973,7.536,4.23,15.237c-.433,4.468-4.015,5.471-4.478,7.234s-7.186,30.121-7.186,30.121a51.992,51.992,0,0,1,3.018,12.3c.59,5.558-.894,12.315-.786,18.753.057,1.255.112,4.267.564,5.186.557,1.126,1.83,2.394,1.906,3.871a2.272,2.272,0,0,1-1.548,2.158c-1.048.432-1.705-.136-2.076-.118-2.153.1-2.615,1.632-6.316,1.964a5.882,5.882,0,0,1-3.814-1.2A.786.786,0,0,1,2859.181,1114.834Z" transform="translate(-2858.78 -1020.424)" fill="#ffd3b3"/>
        <path id="Path_8648" data-name="Path 8648" d="M2859,1106.689a2.769,2.769,0,0,0,.767.848,3.912,3.912,0,0,0,2.383.746h1.812a4.185,4.185,0,0,0,2.093-.561,9.89,9.89,0,0,0,1.176-.761,3.908,3.908,0,0,1,1.831-.839,5.326,5.326,0,0,1,1.17-.026l.127,2.187h2.5a12.376,12.376,0,0,1,.637-3.127,4.253,4.253,0,0,0-.178-1.917,8.906,8.906,0,0,0-1.611-2.534c-.1.339-.626,2.391-2.543,2.713-1.33.228-3.1,1.577-5.416,1.551-.668,0-1.355-.822-.949-1s-.737.026-1.466.288a21.1,21.1,0,0,0-2.356,1.162C2858.725,1105.561,2858.759,1106.231,2859,1106.689Z" transform="translate(-2858.804 -1010.942)" fill="#264653"/>
      </g>
      <path id="Path_8649" data-name="Path 8649" d="M2859.3,1062.719s2.4,1.2,11.152,1.521c.786.041,1.614.063,2.5.073.569.01,1.107.01,1.614.01,4.749-.01,6.982-.445,6.951-.9-.02-.5,2.42-18.775,3.228-21.548a23.2,23.2,0,0,0,1.469-9.351c-.28-5.007-4.262-10.977-5.348-12.062l-18.424-.3s-3.176,7.509-3.487,12.155C2858.313,1042.1,2859.3,1062.719,2859.3,1062.719Z" transform="translate(-2838.543 -964.075)" fill="#004991"/>
      <path id="Path_8650" data-name="Path 8650" d="M2888.636,1007.848s-.729,3.731-1.185,5.269-2.713,11.3-4.851,11.129-13.847-9.946-13.847-9.946l1.658-3.316,10.307,4.914s.931-11.159,1.749-13.817Z" transform="translate(-2837.36 -966.211)" fill="#ffd3b3"/>
      <path id="Path_8651" data-name="Path 8651" d="M2885.067,1007.806c-1.091,3.855-3.193,9.8-4,10.911-.36.5-7.271-1.994-7.288-4.675l7.165-8.12Z" transform="translate(-2836.766 -965.757)" fill="#f2a181"/>
      <path id="Path_8652" data-name="Path 8652" d="M2878.05,991.565a12.46,12.46,0,0,1,6.26,2.123c4.466,3.32,3.406,15.865,3.406,15.865s.217.655-2.749.49a21.368,21.368,0,0,1-5.346-1.011l.857-10.056Z" transform="translate(-2836.261 -967.453)" fill="#e76f50"/>
      <path id="Path_8653" data-name="Path 8653" d="M2885.047,998.356s.375,7.215-.931,10.856a11.8,11.8,0,0,1-2.42-.318Z" transform="translate(-2835.831 -966.651)" fill="#ce4a30" opacity="0.25"/>
      <path id="Path_8654" data-name="Path 8654" d="M2879.966,992.441c-.122-.817-.342-1.77-1.1-2.092a2.356,2.356,0,0,0-.671-.142,22.037,22.037,0,0,0-4.4-.335,6.531,6.531,0,0,0-2.839.5c-1.358.679-2.107,2.145-2.763,3.515Z" transform="translate(-2837.426 -967.654)" fill="#e25337"/>
      <path id="Path_8655" data-name="Path 8655" d="M2862.424,1020.664c.647-1.272,1.213-6.627.99-7.995-.239-1.467-1.536-2.255-2.122-5.519a12.066,12.066,0,0,1,1.933-8.871c1.362-1.979,3.234-6,3.619-6.114,5.692-1.732,6.618-.9,10.445-.737a25.352,25.352,0,0,1,4.966.572c2.057.454,4.528,1.141,4.951,3.932a28.1,28.1,0,0,1-1.209,12.781c-.87,2.715-6.065,12.107-4.778,13.924a6.234,6.234,0,0,1,1.119,1.723c.325,1.9-2.741,2.365-5.8,2.717a48.768,48.768,0,0,1-8.81-.056C2859.088,1026.439,2862.155,1021.194,2862.424,1020.664Z" transform="translate(-2838.263 -967.51)" fill="#e76f50"/>
      <path id="Path_8656" data-name="Path 8656" d="M2861.8,1006.777a7.512,7.512,0,0,0,.564,2.19,6.513,6.513,0,0,0,2.832.418,50.387,50.387,0,0,0,1.688-8.267S2861.8,1006.071,2861.8,1006.777Z" transform="translate(-2838.181 -966.325)" fill="#ce4a30" opacity="0.25"/>
      <g id="Group_4084" data-name="Group 4084" transform="translate(5.024 26.235)">
        <path id="Path_8657" data-name="Path 8657" d="M2866.093,1005.162s-6.994,16.9-10.028,16.9c-2.207,0-7.62-15.6-7.62-15.6l3.419-1.619,3.814,6.535,4.664-11.488Z" transform="translate(-2844.782 -992.705)" fill="#ffd3b3"/>
        <path id="Path_8658" data-name="Path 8658" d="M2852.93,1006.385a6.645,6.645,0,0,1-1.05-3.051,12.972,12.972,0,0,0,.078-3.232,13.5,13.5,0,0,0-1.143-2.217c-.329-.287-1.544-.75-1.842-.544s-.666-.739-1.159-.657a1.046,1.046,0,0,0-.9.945c0,.452-.656.534-.739.863a4.59,4.59,0,0,1-.164.862c-.123.246-.487.124-.616.739-.118.562.042.616,0,.9s-.287.26-.206.808a6.9,6.9,0,0,0,.786,1.874,5.415,5.415,0,0,0,1.908,1.931,3.647,3.647,0,0,1,1.112,1.536Z" transform="translate(-2845.169 -993.084)" fill="#ffd3b3"/>
        <path id="Path_8659" data-name="Path 8659" d="M2850.649,993.7a.418.418,0,0,1,.6-.163.538.538,0,0,1,.133.671l-2.067,4.679s-.168.192-.488-.089c-.348-.305-.236-.458-.236-.458S2850.562,993.839,2850.649,993.7Z" transform="translate(-2844.767 -993.464)" fill="#7a74d1"/>
        <g id="Group_4083" data-name="Group 4083" transform="translate(3.443 4.512)">
          <path id="Path_8660" data-name="Path 8660" d="M2848.508,997.566a4.812,4.812,0,0,0,1.26,1.315c.322.3.283.5.637.808-.622-.047-.515-.414-1.321-1a1.708,1.708,0,0,1-.833-1.02.141.141,0,0,1,.257-.109Z" transform="translate(-2848.249 -997.499)" fill="#f2a181"/>
        </g>
      </g>
      <path id="Path_8661" data-name="Path 8661" d="M2872.491,991.1c-1.821.094-7.544.558-11.136,5.832a45.911,45.911,0,0,0-4.658,9.574c1.227,1.724,5.146,3.365,7.971,3.33a29.32,29.32,0,0,0,2.955-8.18Z" transform="translate(-2838.784 -967.508)" fill="#e76f50"/>
    </g>
    <g id="Group_4116" data-name="Group 4116" transform="translate(2711.697 945.632)">
      <g id="Group_4113" data-name="Group 4113" transform="translate(43.363)">
        <path id="Path_8662" data-name="Path 8662" d="M2748.275,936.878l27.456,15.818a.76.76,0,0,0,1.04-.283l2.179-3.783a.759.759,0,0,0-.276-1.041l-27.458-15.818a.763.763,0,0,0-1.04.283L2748,935.837A.762.762,0,0,0,2748.275,936.878Z" transform="translate(-2747.896 -931.671)" fill="#2a9d8e"/>
        <g id="Group_4112" data-name="Group 4112" transform="translate(3.863 0.773)" opacity="0.55">
          <g id="Group_4086" data-name="Group 4086">
            <path id="Path_8663" data-name="Path 8663" d="M2751.416,933.593a.128.128,0,0,0,.176-.048l.607-1.053-.225-.13-.607,1.054A.129.129,0,0,0,2751.416,933.593Z" transform="translate(-2751.351 -932.362)" fill="#afd4dd"/>
            <path id="Path_8664" data-name="Path 8664" d="M2752.161,933.167a.063.063,0,0,0,.086-.022l.262-.454-.113-.065-.261.454A.065.065,0,0,0,2752.161,933.167Z" transform="translate(-2751.259 -932.331)" fill="#afd4dd"/>
          </g>
          <g id="Group_4087" data-name="Group 4087" transform="translate(0.962 0.555)">
            <path id="Path_8665" data-name="Path 8665" d="M2752.276,934.089a.13.13,0,0,0,.178-.048l.607-1.053-.226-.13-.606,1.053A.129.129,0,0,0,2752.276,934.089Z" transform="translate(-2752.211 -932.858)" fill="#afd4dd"/>
            <path id="Path_8666" data-name="Path 8666" d="M2753.021,933.663a.065.065,0,0,0,.089-.02l.262-.454-.113-.065-.261.454A.063.063,0,0,0,2753.021,933.663Z" transform="translate(-2752.119 -932.827)" fill="#afd4dd"/>
          </g>
          <g id="Group_4088" data-name="Group 4088" transform="translate(1.925 1.108)">
            <path id="Path_8667" data-name="Path 8667" d="M2753.137,934.584a.132.132,0,0,0,.181-.045l.607-1.054-.229-.132-.607,1.054A.132.132,0,0,0,2753.137,934.584Z" transform="translate(-2753.072 -933.353)" fill="#afd4dd"/>
            <path id="Path_8668" data-name="Path 8668" d="M2753.882,934.159a.065.065,0,0,0,.09-.02l.26-.454-.112-.065-.262.454A.063.063,0,0,0,2753.882,934.159Z" transform="translate(-2752.98 -933.321)" fill="#afd4dd"/>
          </g>
          <g id="Group_4089" data-name="Group 4089" transform="translate(2.89 1.665)">
            <path id="Path_8669" data-name="Path 8669" d="M2754,935.082a.128.128,0,0,0,.177-.047l.607-1.054-.225-.13-.607,1.054A.129.129,0,0,0,2754,935.082Z" transform="translate(-2753.936 -933.851)" fill="#afd4dd"/>
            <path id="Path_8670" data-name="Path 8670" d="M2754.747,934.657a.064.064,0,0,0,.085-.023l.261-.454-.113-.065-.261.454A.065.065,0,0,0,2754.747,934.657Z" transform="translate(-2753.844 -933.82)" fill="#afd4dd"/>
          </g>
          <g id="Group_4090" data-name="Group 4090" transform="translate(3.853 2.219)">
            <path id="Path_8671" data-name="Path 8671" d="M2754.861,935.578a.13.13,0,0,0,.177-.048l.607-1.053-.225-.13-.607,1.054A.13.13,0,0,0,2754.861,935.578Z" transform="translate(-2754.796 -934.347)" fill="#afd4dd"/>
            <path id="Path_8672" data-name="Path 8672" d="M2755.607,935.153a.065.065,0,0,0,.086-.023l.262-.454-.113-.065-.261.454A.065.065,0,0,0,2755.607,935.153Z" transform="translate(-2754.705 -934.316)" fill="#afd4dd"/>
          </g>
          <g id="Group_4091" data-name="Group 4091" transform="translate(4.815 2.774)">
            <path id="Path_8673" data-name="Path 8673" d="M2755.722,936.074a.129.129,0,0,0,.177-.048l.607-1.053-.225-.13-.607,1.053A.13.13,0,0,0,2755.722,936.074Z" transform="translate(-2755.656 -934.843)" fill="#afd4dd"/>
            <path id="Path_8674" data-name="Path 8674" d="M2756.467,935.648a.065.065,0,0,0,.089-.02l.262-.454-.113-.065-.261.454A.063.063,0,0,0,2756.467,935.648Z" transform="translate(-2755.564 -934.812)" fill="#afd4dd"/>
          </g>
          <g id="Group_4092" data-name="Group 4092" transform="translate(5.778 3.329)">
            <path id="Path_8675" data-name="Path 8675" d="M2756.583,936.57a.133.133,0,0,0,.181-.046l.607-1.053-.229-.132-.607,1.053A.132.132,0,0,0,2756.583,936.57Z" transform="translate(-2756.518 -935.339)" fill="#afd4dd"/>
            <path id="Path_8676" data-name="Path 8676" d="M2757.327,936.144a.065.065,0,0,0,.09-.02l.261-.454-.112-.065-.262.454A.063.063,0,0,0,2757.327,936.144Z" transform="translate(-2756.426 -935.308)" fill="#afd4dd"/>
          </g>
          <g id="Group_4093" data-name="Group 4093" transform="translate(6.743 3.884)">
            <path id="Path_8677" data-name="Path 8677" d="M2757.447,937.067a.127.127,0,0,0,.177-.047l.607-1.054-.225-.13-.607,1.054A.129.129,0,0,0,2757.447,937.067Z" transform="translate(-2757.382 -935.836)" fill="#afd4dd"/>
            <path id="Path_8678" data-name="Path 8678" d="M2758.193,936.642a.062.062,0,0,0,.085-.024l.262-.454-.113-.065-.261.454A.065.065,0,0,0,2758.193,936.642Z" transform="translate(-2757.29 -935.805)" fill="#afd4dd"/>
          </g>
          <g id="Group_4094" data-name="Group 4094" transform="translate(7.705 4.439)">
            <path id="Path_8679" data-name="Path 8679" d="M2758.307,937.563a.131.131,0,0,0,.178-.047l.607-1.054-.225-.13-.607,1.054A.128.128,0,0,0,2758.307,937.563Z" transform="translate(-2758.242 -936.332)" fill="#afd4dd"/>
            <path id="Path_8680" data-name="Path 8680" d="M2759.053,937.138a.064.064,0,0,0,.085-.024l.261-.454-.112-.065-.262.454A.066.066,0,0,0,2759.053,937.138Z" transform="translate(-2758.15 -936.301)" fill="#afd4dd"/>
          </g>
          <g id="Group_4095" data-name="Group 4095" transform="translate(8.668 4.994)">
            <path id="Path_8681" data-name="Path 8681" d="M2759.168,938.059a.129.129,0,0,0,.177-.048l.607-1.053-.225-.13-.607,1.053A.13.13,0,0,0,2759.168,938.059Z" transform="translate(-2759.102 -936.828)" fill="#afd4dd"/>
            <path id="Path_8682" data-name="Path 8682" d="M2759.913,937.633a.064.064,0,0,0,.089-.02l.262-.454-.113-.065-.262.454A.064.064,0,0,0,2759.913,937.633Z" transform="translate(-2759.01 -936.797)" fill="#afd4dd"/>
          </g>
          <g id="Group_4096" data-name="Group 4096" transform="translate(9.631 5.548)">
            <path id="Path_8683" data-name="Path 8683" d="M2760.028,938.555a.135.135,0,0,0,.182-.046l.607-1.053-.229-.132-.607,1.053A.133.133,0,0,0,2760.028,938.555Z" transform="translate(-2759.964 -937.324)" fill="#afd4dd"/>
            <path id="Path_8684" data-name="Path 8684" d="M2760.773,938.129a.065.065,0,0,0,.089-.02l.262-.454-.112-.065-.261.454A.063.063,0,0,0,2760.773,938.129Z" transform="translate(-2759.872 -937.293)" fill="#afd4dd"/>
          </g>
          <g id="Group_4097" data-name="Group 4097" transform="translate(10.596 6.105)">
            <path id="Path_8685" data-name="Path 8685" d="M2760.893,939.053a.129.129,0,0,0,.176-.048l.607-1.054-.225-.129-.607,1.053A.13.13,0,0,0,2760.893,939.053Z" transform="translate(-2760.828 -937.822)" fill="#afd4dd"/>
            <path id="Path_8686" data-name="Path 8686" d="M2761.638,938.627a.064.064,0,0,0,.086-.022l.262-.455-.113-.064-.261.454A.065.065,0,0,0,2761.638,938.627Z" transform="translate(-2760.736 -937.791)" fill="#afd4dd"/>
          </g>
          <g id="Group_4098" data-name="Group 4098" transform="translate(11.558 6.658)">
            <path id="Path_8687" data-name="Path 8687" d="M2761.753,939.548a.13.13,0,0,0,.178-.047l.607-1.054-.226-.13-.607,1.054A.129.129,0,0,0,2761.753,939.548Z" transform="translate(-2761.688 -938.317)" fill="#afd4dd"/>
            <path id="Path_8688" data-name="Path 8688" d="M2762.5,939.123a.063.063,0,0,0,.085-.023l.261-.454-.112-.065-.262.454A.065.065,0,0,0,2762.5,939.123Z" transform="translate(-2761.596 -938.286)" fill="#afd4dd"/>
          </g>
          <g id="Group_4099" data-name="Group 4099" transform="translate(12.521 7.213)">
            <path id="Path_8689" data-name="Path 8689" d="M2762.614,940.044a.129.129,0,0,0,.177-.048l.607-1.053-.225-.13-.607,1.054A.129.129,0,0,0,2762.614,940.044Z" transform="translate(-2762.549 -938.813)" fill="#afd4dd"/>
            <path id="Path_8690" data-name="Path 8690" d="M2763.359,939.618a.065.065,0,0,0,.09-.02l.26-.454-.112-.065-.262.454A.063.063,0,0,0,2763.359,939.618Z" transform="translate(-2762.457 -938.782)" fill="#afd4dd"/>
          </g>
          <g id="Group_4100" data-name="Group 4100" transform="translate(13.483 7.768)">
            <path id="Path_8691" data-name="Path 8691" d="M2763.474,940.54a.133.133,0,0,0,.181-.046l.607-1.053-.229-.132-.607,1.053A.133.133,0,0,0,2763.474,940.54Z" transform="translate(-2763.409 -939.309)" fill="#afd4dd"/>
            <path id="Path_8692" data-name="Path 8692" d="M2764.219,940.114a.065.065,0,0,0,.089-.02l.262-.454-.113-.065-.261.454A.063.063,0,0,0,2764.219,940.114Z" transform="translate(-2763.317 -939.278)" fill="#afd4dd"/>
          </g>
          <g id="Group_4101" data-name="Group 4101" transform="translate(14.449 8.324)">
            <path id="Path_8693" data-name="Path 8693" d="M2764.338,941.038a.13.13,0,0,0,.177-.048l.607-1.053-.225-.13-.607,1.053A.131.131,0,0,0,2764.338,941.038Z" transform="translate(-2764.273 -939.807)" fill="#afd4dd"/>
            <path id="Path_8694" data-name="Path 8694" d="M2765.084,940.612a.064.064,0,0,0,.086-.022l.26-.454-.112-.065-.262.454A.064.064,0,0,0,2765.084,940.612Z" transform="translate(-2764.182 -939.776)" fill="#afd4dd"/>
          </g>
          <g id="Group_4102" data-name="Group 4102" transform="translate(15.411 8.878)">
            <path id="Path_8695" data-name="Path 8695" d="M2765.2,941.533a.128.128,0,0,0,.177-.047l.607-1.054-.225-.13-.607,1.054A.129.129,0,0,0,2765.2,941.533Z" transform="translate(-2765.133 -940.302)" fill="#afd4dd"/>
            <path id="Path_8696" data-name="Path 8696" d="M2765.945,941.108a.064.064,0,0,0,.085-.023l.261-.454-.113-.065-.26.454A.065.065,0,0,0,2765.945,941.108Z" transform="translate(-2765.042 -940.271)" fill="#afd4dd"/>
          </g>
          <g id="Group_4103" data-name="Group 4103" transform="translate(16.373 9.432)">
            <path id="Path_8697" data-name="Path 8697" d="M2766.059,942.029a.13.13,0,0,0,.178-.048l.607-1.053-.225-.13-.607,1.054A.129.129,0,0,0,2766.059,942.029Z" transform="translate(-2765.995 -940.798)" fill="#afd4dd"/>
            <path id="Path_8698" data-name="Path 8698" d="M2766.8,941.6a.065.065,0,0,0,.09-.021l.261-.454-.112-.065-.261.454A.065.065,0,0,0,2766.8,941.6Z" transform="translate(-2765.903 -940.767)" fill="#afd4dd"/>
          </g>
          <g id="Group_4104" data-name="Group 4104" transform="translate(17.336 9.987)">
            <path id="Path_8699" data-name="Path 8699" d="M2766.92,942.525a.133.133,0,0,0,.181-.046l.607-1.053-.229-.132-.607,1.053A.133.133,0,0,0,2766.92,942.525Z" transform="translate(-2766.855 -941.294)" fill="#afd4dd"/>
            <path id="Path_8700" data-name="Path 8700" d="M2767.666,942.1a.065.065,0,0,0,.089-.02l.262-.454-.113-.065-.261.454A.063.063,0,0,0,2767.666,942.1Z" transform="translate(-2766.763 -941.263)" fill="#afd4dd"/>
          </g>
          <g id="Group_4105" data-name="Group 4105" transform="translate(18.301 10.544)">
            <path id="Path_8701" data-name="Path 8701" d="M2767.784,943.023a.13.13,0,0,0,.178-.048l.607-1.053-.226-.13-.606,1.053A.128.128,0,0,0,2767.784,943.023Z" transform="translate(-2767.719 -941.792)" fill="#afd4dd"/>
            <path id="Path_8702" data-name="Path 8702" d="M2768.53,942.6a.063.063,0,0,0,.085-.022l.261-.454-.112-.065-.262.454A.064.064,0,0,0,2768.53,942.6Z" transform="translate(-2767.627 -941.761)" fill="#afd4dd"/>
          </g>
          <g id="Group_4106" data-name="Group 4106" transform="translate(19.264 11.097)">
            <path id="Path_8703" data-name="Path 8703" d="M2768.645,943.518a.127.127,0,0,0,.177-.047l.607-1.054-.225-.13-.607,1.054A.129.129,0,0,0,2768.645,943.518Z" transform="translate(-2768.579 -942.287)" fill="#afd4dd"/>
            <path id="Path_8704" data-name="Path 8704" d="M2769.391,943.093a.062.062,0,0,0,.085-.023l.262-.454-.113-.065-.261.455A.064.064,0,0,0,2769.391,943.093Z" transform="translate(-2768.488 -942.256)" fill="#afd4dd"/>
          </g>
          <g id="Group_4107" data-name="Group 4107" transform="translate(20.226 11.652)">
            <path id="Path_8705" data-name="Path 8705" d="M2769.5,944.014a.13.13,0,0,0,.178-.047l.607-1.054-.225-.13-.607,1.054A.127.127,0,0,0,2769.5,944.014Z" transform="translate(-2769.44 -942.783)" fill="#afd4dd"/>
            <path id="Path_8706" data-name="Path 8706" d="M2770.25,943.589a.064.064,0,0,0,.089-.021l.262-.454-.113-.065-.26.454A.064.064,0,0,0,2770.25,943.589Z" transform="translate(-2769.348 -942.752)" fill="#afd4dd"/>
          </g>
          <g id="Group_4108" data-name="Group 4108" transform="translate(21.189 12.206)">
            <path id="Path_8707" data-name="Path 8707" d="M2770.366,944.51a.133.133,0,0,0,.181-.046l.607-1.053-.229-.132-.607,1.053A.134.134,0,0,0,2770.366,944.51Z" transform="translate(-2770.301 -943.279)" fill="#afd4dd"/>
            <path id="Path_8708" data-name="Path 8708" d="M2771.111,944.084a.064.064,0,0,0,.09-.02l.262-.454-.113-.065-.262.454A.064.064,0,0,0,2771.111,944.084Z" transform="translate(-2770.209 -943.248)" fill="#afd4dd"/>
          </g>
          <g id="Group_4109" data-name="Group 4109" transform="translate(22.154 12.763)">
            <path id="Path_8709" data-name="Path 8709" d="M2771.23,945.008a.13.13,0,0,0,.178-.048l.607-1.053-.226-.13-.607,1.053A.13.13,0,0,0,2771.23,945.008Z" transform="translate(-2771.165 -943.777)" fill="#afd4dd"/>
            <path id="Path_8710" data-name="Path 8710" d="M2771.976,944.582a.063.063,0,0,0,.085-.022l.261-.454-.112-.065-.261.454A.064.064,0,0,0,2771.976,944.582Z" transform="translate(-2771.073 -943.746)" fill="#afd4dd"/>
          </g>
          <g id="Group_4110" data-name="Group 4110" transform="translate(23.117 13.318)">
            <path id="Path_8711" data-name="Path 8711" d="M2772.091,945.5a.129.129,0,0,0,.177-.048l.607-1.054-.225-.129-.607,1.053A.13.13,0,0,0,2772.091,945.5Z" transform="translate(-2772.026 -944.273)" fill="#afd4dd"/>
            <path id="Path_8712" data-name="Path 8712" d="M2772.836,945.078a.064.064,0,0,0,.086-.024l.262-.454-.113-.064-.261.454A.065.065,0,0,0,2772.836,945.078Z" transform="translate(-2771.934 -944.242)" fill="#afd4dd"/>
          </g>
          <g id="Group_4111" data-name="Group 4111" transform="translate(24.079 13.871)">
            <path id="Path_8713" data-name="Path 8713" d="M2772.951,946a.129.129,0,0,0,.177-.047l.607-1.054-.226-.13-.607,1.054A.128.128,0,0,0,2772.951,946Z" transform="translate(-2772.885 -944.768)" fill="#afd4dd"/>
            <path id="Path_8714" data-name="Path 8714" d="M2773.7,945.574a.065.065,0,0,0,.089-.021l.262-.454-.113-.065-.261.454A.064.064,0,0,0,2773.7,945.574Z" transform="translate(-2772.793 -944.737)" fill="#afd4dd"/>
          </g>
        </g>
      </g>
      <g id="Group_4114" data-name="Group 4114" transform="translate(12.059 160.524)">
        <path id="Path_8715" data-name="Path 8715" d="M2724.242,1075.237s-.091,3.7-.161,4.637-3.069,1.012-3.418.523-.523-4.814-.523-4.814" transform="translate(-2719.87 -1075.237)" fill="#f39f86"/>
        <path id="Path_8716" data-name="Path 8716" d="M2719.9,1080.829a19.974,19.974,0,0,0,.274,2.582h3.456l.17-.577a5.436,5.436,0,0,0,2,.577h2.918c2.135,0,3.347-.273,3.4-.649.226-1.571-2.326-1.5-2.991-1.5-1.908,0-3.973-.892-4.423-1.861-.327-.7-.181-.881-.577-.749a.986.986,0,0,0-.592.511,1.753,1.753,0,0,1-1.8.983,2.079,2.079,0,0,1-1.167-.562A1.259,1.259,0,0,0,2719.9,1080.829Z" transform="translate(-2719.899 -1074.838)" fill="#3a3a3a"/>
      </g>
      <g id="Group_4115" data-name="Group 4115" transform="translate(22.194 157.463)">
        <path id="Path_8717" data-name="Path 8717" d="M2735.127,1074.565a28.231,28.231,0,0,1-1.053,3.38c-.414.849-3.226-.2-3.369-.78s1.3-4.665,1.3-4.665" transform="translate(-2728.759 -1072.5)" fill="#f39f86"/>
        <path id="Path_8718" data-name="Path 8718" d="M2729.865,1077.2c-.363.911-.9,2.679-.9,2.679l2.62,1.563.515-.388a5.1,5.1,0,0,0,1.378,1.44,11.19,11.19,0,0,0,2.594,1.075c2.394.547,4.242.283,4.432-.047.792-1.375-2.381-2.131-3-2.377a4.277,4.277,0,0,1-2.643-3.49c-.044-.774.156-.885-.258-.91a.99.99,0,0,0-.74.256,1.752,1.752,0,0,1-2.038.246,2.092,2.092,0,0,1-.876-.956A1.259,1.259,0,0,0,2729.865,1077.2Z" transform="translate(-2728.963 -1072.053)" fill="#3a3a3a"/>
      </g>
      <path id="Path_8719" data-name="Path 8719" d="M2719.217,1003.918c-1.242-.918-2.595-1.947-3.882-3.021-2.932-2.461-5.55-5.135-5.875-7.083-.716-4.363-.156-17.331.19-23.451.011-.37.033-.717.056-1.041.347-5.785,3.457-8.347,5.012-9.287.795,7.519,2.585,24.493,2.73,25.365C2717.64,986.519,2719.217,1003.918,2719.217,1003.918Z" transform="translate(-2709.114 -928.321)" fill="#c5e6ef"/>
      <path id="Path_8720" data-name="Path 8720" d="M2719.079,1003.012c-1.241-.918-2.6-1.947-3.882-3.021-.111-4.782-1.534-11.46-3.538-19.818-2.377-10.536-.882-12.475-.882-12.475l4.778.728c.795,7.441,1.656,15.475,1.757,16.067C2717.5,985.613,2719.079,1003.012,2719.079,1003.012Z" transform="translate(-2708.972 -927.415)" fill="#afd4dd"/>
      <path id="Path_8721" data-name="Path 8721" d="M2730.185,1038.971a115.1,115.1,0,0,1-1.484,14.7c-.635,3.26-10.885,3.859-9.566,1.346,1.9-3.648-1.416-15.088-3.045-34.592-.236-2.952-1.562-3.292-2.443-9.363a18.622,18.622,0,0,1,2.473-11.353l14.224-1.322.182,17.715.055,5.99S2730.615,1030.309,2730.185,1038.971Z" transform="translate(-2708.595 -923.791)" fill="#023d5f"/>
      <path id="Path_8722" data-name="Path 8722" d="M2719.918,1047.545s-2.782,3.408-2.394,9.659,2.564,24.911,2.564,24.911,3.264.482,4.947-.14c0,0,3.519-34.6,3.532-38.534S2719.918,1047.545,2719.918,1047.545Z" transform="translate(-2708.125 -918.597)" fill="#023d5f"/>
      <path id="Path_8723" data-name="Path 8723" d="M2729.7,1038.392a109.774,109.774,0,0,0-4.131-11.5,22.184,22.184,0,0,0-4.032-6.245c-7.217-7.572-2.254-17.363-2.254-17.363s5.876,4.868,6.286,5.373c.389.471,2.738,4.605,4.472,6.863l.055,5.99S2730.128,1029.73,2729.7,1038.392Z" transform="translate(-2708.109 -923.212)" fill="#062f44"/>
      <path id="Path_8724" data-name="Path 8724" d="M2745.017,1032.6s3.225,10.613,2.713,13.94-12.3,34.446-12.3,34.446a11.876,11.876,0,0,1-4.731-1.171s.254-13.7,2.567-22.272,5-13.819,7.3-14.586S2744.377,1034.382,2745.017,1032.6Z" transform="translate(-2706.565 -919.75)" fill="#023d5f"/>
      <path id="Path_8725" data-name="Path 8725" d="M2734.179,1038.236s3.5,5.57,1.346,10.569,3.6,4.168,3.6,4.168,2.879-8.381,2.239-9.468-3.007-4.734-3.774-4.926A33.606,33.606,0,0,0,2734.179,1038.236Z" transform="translate(-2706.153 -919.084)" fill="#16405a"/>
      <path id="Path_8726" data-name="Path 8726" d="M2739.5,998.693s7.482,34.64,8.461,43.973c.414,3.958-3.745,10.5-7.584,6.917-4.582-4.271-12-23.827-14.3-27.282s-10.92-6.621-5.035-24.15" transform="translate(-2707.944 -923.818)" fill="#023d5f"/>
      <path id="Path_8727" data-name="Path 8727" d="M2720.914,959.409a16.159,16.159,0,0,0,.576-6.027c-.447-2.558-1.984-7.165-1.407-10.619s4.926-6.334,9.532-5.886,5.949,4.862,6.718,7.421a26.4,26.4,0,0,1,.447,8.573,5.926,5.926,0,0,1-2.111,4.222c-.767.447-3.655-.143-4.163.408s-.891,3.814-.891,3.814" transform="translate(-2707.833 -931.061)" fill="#f39f86"/>
      <path id="Path_8728" data-name="Path 8728" d="M2718.868,959.829a5.831,5.831,0,0,1,1.023-2.738c.768-.717,5.886-.717,7.421-.524a23.559,23.559,0,0,1,5.822,2.33c.5.374-.488,2.316-.488,2.316Z" transform="translate(-2707.962 -928.743)" fill="#c5e6ef"/>
      <path id="Path_8729" data-name="Path 8729" d="M2767.345,941.681c-.037-.362-.506-.19-.628.11a1.837,1.837,0,0,0-.067.258c.046-.6.077-1.086.065-1.205-.036-.344-.469-.219-.618.05.011-.24.016-.423.009-.5-.037-.442-.509-.262-.632.1a5.577,5.577,0,0,0-.111.61,3.039,3.039,0,0,0,.006-.335c-.037-.362-.455-.272-.577.027a4.563,4.563,0,0,0-.131.7c-.057.363-.164.755-.215,1.12a7.49,7.49,0,0,1-.235,1.036,4.533,4.533,0,0,1-1.68,1.3l-1-.542a13.167,13.167,0,0,0-.24,2.314c.067.537.458,1.209.414,1.533a7.865,7.865,0,0,1-.414,1.186l2.753,1.141a7,7,0,0,1,.738-2.025,22.312,22.312,0,0,0,1.881-2.26,12.014,12.014,0,0,0,.414-1.365l.194-1.026.088-1S2767.357,941.8,2767.345,941.681Z" transform="translate(-2702.952 -930.671)" fill="#f39f86"/>
      <path id="Path_8730" data-name="Path 8730" d="M2768.291,949.042s-.928,5.382-1.846,9.69a41.919,41.919,0,0,1-3.211,9.924c-.011.023-.011.056-.022.079-.906,1.969-2.6,4.374-3.748,4.621a34.841,34.841,0,0,1-5.192-.023c-2.506.146-8.805-.682-14.166-1.4l-.246-.034c-2.5-.337-4.778-.638-6.344-.806a3.274,3.274,0,0,1-1.936-.861,2.946,2.946,0,0,1-.94-1.622c-.011-.011-.011-.011-.011-.023-.358-1.734.784-3.122,2.261-4.139a2.217,2.217,0,0,1,.212-.134c-1.823-1.812-3.693-3.794-3.693-3.794s5.148.247,8.022.437c1.959.134,15.318,3.7,16.918,4.206.123.045.235.089.346.123,0,0,.2.022.5.089.089.022.2.068.313.1a16.464,16.464,0,0,1,1.947-3.66c2.865-4.027,7.519-13.785,7.519-13.785l2.6.773.034.011.011.011Z" transform="translate(-2706.717 -929.738)" fill="#c5e6ef"/>
      <path id="Path_8731" data-name="Path 8731" d="M2721.32,955.339s6.4.543,7.612,0a4.841,4.841,0,0,0,3.135-3.9c.16-2.175-.288-2.847.543-4.062s1.568-.8,1.7.351.179,3.232.481,3.385c.407.207.892-1.258.734-3.479a13.735,13.735,0,0,0-.927-4.7c-.576-1.279-.888-1.208-1.408-1.439a3.97,3.97,0,0,0,2.271-2.032c1.281-2,.576-5.114-2.814-5.1-5.923.021-12.219,1.183-12.347,5.565,0,0-2.079-.32-2.142,3.679s2.494,8.829,2.687,10.075S2720.68,955.051,2721.32,955.339Z" transform="translate(-2708.046 -931.354)" fill="#004991"/>
      <path id="Path_8732" data-name="Path 8732" d="M2739.984,999.466c.235,2,1.991,5.1.794,5.538a22.708,22.708,0,0,1-4.834-.145h-.067c-.045,0-.078-.01-.112-.01-2.126-.18-4.554-.415-6.59-.571-8.134-.347-12.286,1.276-13.1.817-.391-.236-.4-.94-.279-1.667a18.931,18.931,0,0,0,.134-5.394c-.2-1.51-.481-3.312-.872-5.37-1.343-7.128-3.973-18.015-4.364-24.561-.626-10.261,10.362-9.287,10.362-9.287,13.987-.873,20.554,3.155,21.315,9.164.056.425.089.883.123,1.365.359,6.2-1.533,16.2-2.427,23.676A37.7,37.7,0,0,0,2739.984,999.466Z" transform="translate(-2708.93 -928.479)" fill="#c5e6ef"/>
      <path id="Path_8733" data-name="Path 8733" d="M2737.314,998.433c.235,2,1.991,5.1.794,5.538a22.708,22.708,0,0,1-4.834-.145c2.16.156,2.563-1.5,2.082-2.606a15.806,15.806,0,0,1-1.387-6.624c.1-2.976,1.219-9.691,1.879-16.035a51.658,51.658,0,0,0,.011-11.122c.335.672,1.3,1.611,4.005,2.238.056,6.232-1.645,15.362-2.472,22.311A37.7,37.7,0,0,0,2737.314,998.433Z" transform="translate(-2706.26 -927.446)" fill="#afd4dd"/>
    </g>
    <g id="Group_4120" data-name="Group 4120" transform="translate(2774.255 1009.849)">
      <g id="Group_4119" data-name="Group 4119" transform="translate(0 0.006)">
        <path id="Path_8734" data-name="Path 8734" d="M2776.391,1002.507v68.951l-11.093.017-.235-68.951Z" transform="translate(-2765.063 -987.527)" fill="#e9c464"/>
        <g id="Group_4117" data-name="Group 4117" transform="translate(0.009)">
          <path id="Path_8735" data-name="Path 8735" d="M2770.591,989.11l1.13,1.6,4.669,13.375-11.319.017,4.437-13.444Z" transform="translate(-2765.071 -989.11)" fill="#fcded6"/>
          <path id="Path_8736" data-name="Path 8736" d="M2770.122,989.11l1.13,1.6-.6.372-.532-.425-.574.578-.512-.576Z" transform="translate(-2764.602 -989.11)" fill="#fdd247"/>
        </g>
        <g id="Group_4118" data-name="Group 4118" transform="translate(0.009 14.98)">
          <path id="Path_8737" data-name="Path 8737" d="M2765.071,1002.523l1.623,1.219,1.149-1.223Z" transform="translate(-2765.071 -1002.506)" fill="#fcded6"/>
          <path id="Path_8738" data-name="Path 8738" d="M2767.55,1002.519l1.622,1.219,1.149-1.223Z" transform="translate(-2764.778 -1002.506)" fill="#fcded6"/>
          <path id="Path_8739" data-name="Path 8739" d="M2770.028,1002.515l1.622,1.219,1.149-1.223Z" transform="translate(-2764.485 -1002.507)" fill="#fcded6"/>
          <path id="Path_8740" data-name="Path 8740" d="M2772.507,1002.512l1.622,1.219,1.383-1.223Z" transform="translate(-2764.193 -1002.507)" fill="#fcded6"/>
        </g>
      </g>
      <path id="Path_8741" data-name="Path 8741" d="M2775.978,1073.037l-3.6.005-.235-68.951-3.578-11.835.525-1.6,1.083-1.554,1.13,1.605,4.669,13.381" transform="translate(-2764.648 -989.105)" fill="#71606e" opacity="0.2"/>
      <rect id="Rectangle_853" data-name="Rectangle 853" width="11.097" height="2.039" transform="translate(0.233 83.195)" fill="#e76f50"/>
    </g>
    <g id="Group_4124" data-name="Group 4124" transform="translate(2785.227 997.55)">
      <g id="Group_4123" data-name="Group 4123" transform="translate(0 0.006)">
        <path id="Path_8742" data-name="Path 8742" d="M2786.2,991.507v68.951l-11.093.017-.236-68.951Z" transform="translate(-2774.876 -976.527)" fill="#fc5e49"/>
        <g id="Group_4121" data-name="Group 4121" transform="translate(0.009)">
          <path id="Path_8743" data-name="Path 8743" d="M2780.4,978.11l1.13,1.6,4.669,13.375-11.319.017,4.437-13.444Z" transform="translate(-2774.885 -978.11)" fill="#fcded6"/>
          <path id="Path_8744" data-name="Path 8744" d="M2779.936,978.11l1.13,1.6-.6.372-.532-.425-.574.578-.511-.576Z" transform="translate(-2774.416 -978.11)" fill="#fc5e49"/>
        </g>
        <g id="Group_4122" data-name="Group 4122" transform="translate(0.009 14.98)">
          <path id="Path_8745" data-name="Path 8745" d="M2774.885,991.523l1.622,1.219,1.149-1.223Z" transform="translate(-2774.885 -991.506)" fill="#fcded6"/>
          <path id="Path_8746" data-name="Path 8746" d="M2777.363,991.519l1.622,1.219,1.149-1.223Z" transform="translate(-2774.592 -991.506)" fill="#fcded6"/>
          <path id="Path_8747" data-name="Path 8747" d="M2779.842,991.515l1.622,1.219,1.149-1.223Z" transform="translate(-2774.299 -991.507)" fill="#fcded6"/>
          <path id="Path_8748" data-name="Path 8748" d="M2782.32,991.512l1.622,1.219,1.383-1.223Z" transform="translate(-2774.006 -991.507)" fill="#fcded6"/>
        </g>
      </g>
      <path id="Path_8749" data-name="Path 8749" d="M2779.991,978.1l1.13,1.605,4.669,13.381,0,68.946-3.6.005-.235-68.951-3.578-11.835.525-1.6Z" transform="translate(-2774.462 -978.105)" fill="#71606e" opacity="0.2"/>
      <rect id="Rectangle_854" data-name="Rectangle 854" width="11.097" height="2.039" transform="translate(0.233 83.195)" fill="#e76f50"/>
    </g>
    <g id="Group_4127" data-name="Group 4127" transform="translate(2687.241 912.691)">
      <g id="Group_4125" data-name="Group 4125" transform="translate(0 5.206)">
        <path id="Path_8750" data-name="Path 8750" d="M2690.9,920.225l-3.661-9.7,9.7-3.661,3.661,9.7Zm-2.219-9.048,2.87,7.607,7.608-2.869-2.87-7.608Z" transform="translate(-2687.241 -906.866)" fill="#e76f50"/>
      </g>
      <g id="Group_4126" data-name="Group 4126" transform="translate(4.179)">
        <path id="Path_8751" data-name="Path 8751" d="M2696.772,913.8a5.8,5.8,0,1,1,2.047-.376A5.769,5.769,0,0,1,2696.772,913.8Zm0-10.47a4.675,4.675,0,1,0,4.378,3.024h0A4.682,4.682,0,0,0,2696.769,903.328Z" transform="translate(-2690.979 -902.21)" fill="#e76f50"/>
      </g>
    </g>
    <g id="Group_4130" data-name="Group 4130" transform="translate(2920.971 827.331)">
      <g id="Group_4128" data-name="Group 4128">
        <path id="Path_8752" data-name="Path 8752" d="M2900.871,825.867l9.295,4.59-4.59,9.295-9.3-4.589Zm7.8,5.1-7.29-3.6-3.6,7.29,7.291,3.6Z" transform="translate(-2896.28 -825.867)" fill="#e76f50"/>
      </g>
      <g id="Group_4129" data-name="Group 4129" transform="translate(2.902 7.849)">
        <path id="Path_8753" data-name="Path 8753" d="M2900.713,834.445a5.8,5.8,0,1,1-1.24,1.673A5.787,5.787,0,0,1,2900.713,834.445Zm7.149,7.65a4.675,4.675,0,1,0-5.264.778h0A4.682,4.682,0,0,0,2907.863,842.095Z" transform="translate(-2898.875 -832.886)" fill="#e76f50"/>
      </g>
    </g>
    <g id="Group_4137" data-name="Group 4137" transform="translate(2902.756 941.039)">
      <path id="Path_8754" data-name="Path 8754" d="M2938.355,1003.518c1.271-.939,2.656-1.992,3.973-3.092,3-2.519,5.679-5.255,6.011-7.248.732-4.465.16-17.734-.194-24-.012-.377-.035-.732-.058-1.064-.354-5.919-3.538-8.54-5.129-9.5-.813,7.694-2.644,25.063-2.793,25.955C2939.97,985.714,2938.355,1003.518,2938.355,1003.518Z" transform="translate(-2873.096 -923.895)" fill="#fff"/>
      <path id="Path_8755" data-name="Path 8755" d="M2894.35,947.477c-.262-1.005-2.642-9.631-4-8.493-1.507,1.258-1.307,4.593-.965,5.664.608,1.91,2.646,4.2,3.894,4.229C2894.159,948.9,2894.6,948.433,2894.35,947.477Z" transform="translate(-2878.909 -926.226)" fill="#f39f86"/>
      <g id="Group_4131" data-name="Group 4131" transform="translate(50.738 166.521)">
        <path id="Path_8756" data-name="Path 8756" d="M2932.565,1076.493s.093,3.78.164,4.744,3.141,1.034,3.5.534.535-4.925.535-4.925" transform="translate(-2924.518 -1076.493)" fill="#f39f86"/>
        <path id="Path_8757" data-name="Path 8757" d="M2937.887,1082.215a20.5,20.5,0,0,1-.28,2.641h-3.536l-.174-.59a5.554,5.554,0,0,1-2.047.59h-2.985c-2.186,0-3.427-.278-3.482-.663-.231-1.607,2.38-1.534,3.059-1.534,1.952,0,4.065-.913,4.526-1.905.334-.719.187-.9.59-.766a1.008,1.008,0,0,1,.606.523,1.8,1.8,0,0,0,1.845,1.006,2.136,2.136,0,0,0,1.2-.577A1.291,1.291,0,0,1,2937.887,1082.215Z" transform="translate(-2925.368 -1076.085)" fill="#132555"/>
      </g>
      <g id="Group_4132" data-name="Group 4132" transform="translate(40.953 163.389)">
        <path id="Path_8758" data-name="Path 8758" d="M2921.463,1075.805a29.071,29.071,0,0,0,1.078,3.457c.424.869,3.3-.2,3.447-.8s-1.327-4.773-1.327-4.773" transform="translate(-2916.044 -1073.692)" fill="#f39f86"/>
        <path id="Path_8759" data-name="Path 8759" d="M2927.63,1078.5c.371.934.923,2.742.923,2.742l-2.681,1.6-.527-.4a5.22,5.22,0,0,1-1.41,1.474,11.5,11.5,0,0,1-2.654,1.1c-2.45.559-4.342.288-4.535-.048-.809-1.408,2.436-2.181,3.068-2.433a4.378,4.378,0,0,0,2.7-3.571c.044-.792-.161-.906.264-.93a1.014,1.014,0,0,1,.757.261,1.793,1.793,0,0,0,2.086.252,2.14,2.14,0,0,0,.9-.978A1.29,1.29,0,0,1,2927.63,1078.5Z" transform="translate(-2916.617 -1073.234)" fill="#132555"/>
      </g>
      <path id="Path_8760" data-name="Path 8760" d="M2938.352,1002.591c1.27-.939,2.656-1.992,3.973-3.092.113-4.893,1.57-11.726,3.619-20.277,2.433-10.782.9-12.764.9-12.764l-4.888.744c-.812,7.614-1.694,15.835-1.8,16.441C2939.967,984.787,2938.352,1002.591,2938.352,1002.591Z" transform="translate(-2873.096 -922.969)" fill="#eaeaea"/>
      <path id="Path_8761" data-name="Path 8761" d="M2927.887,1039.385a117.753,117.753,0,0,0,1.517,15.039c.651,3.336,11.139,3.949,9.789,1.379-1.944-3.733,1.448-15.439,3.115-35.4.242-3.019,1.6-3.368,2.5-9.58a19.056,19.056,0,0,0-2.531-11.617l-14.552-1.352-.188,18.126-.056,6.13S2927.448,1030.52,2927.887,1039.385Z" transform="translate(-2874.381 -919.26)" fill="#004991"/>
      <path id="Path_8762" data-name="Path 8762" d="M2937.744,1048.156s2.846,3.487,2.449,9.884-2.624,25.489-2.624,25.489-3.339.493-5.061-.143c0,0-3.6-35.407-3.615-39.428S2937.744,1048.156,2937.744,1048.156Z" transform="translate(-2874.213 -913.946)" fill="#004991"/>
      <path id="Path_8763" data-name="Path 8763" d="M2927.887,1038.793a112.151,112.151,0,0,1,4.228-11.765,22.672,22.672,0,0,1,4.126-6.39c7.383-7.747,2.305-17.766,2.305-17.766s-6.013,4.98-6.432,5.5c-.4.482-2.8,4.712-4.576,7.022l-.056,6.13S2927.448,1029.928,2927.887,1038.793Z" transform="translate(-2874.381 -918.668)" fill="#003f72"/>
      <path id="Path_8764" data-name="Path 8764" d="M2912.712,1032.864s-3.3,10.859-2.777,14.263,12.59,35.246,12.59,35.246a12.159,12.159,0,0,0,4.84-1.2s-.259-14.018-2.626-22.788-5.116-14.14-7.472-14.924S2913.366,1034.689,2912.712,1032.864Z" transform="translate(-2876.459 -915.125)" fill="#004991"/>
      <path id="Path_8765" data-name="Path 8765" d="M2922.741,1038.632s-3.579,5.7-1.378,10.816-3.688,4.264-3.688,4.264-2.945-8.576-2.291-9.688,3.077-4.844,3.862-5.04A34.382,34.382,0,0,1,2922.741,1038.632Z" transform="translate(-2875.82 -914.444)" fill="#2342a7"/>
      <path id="Path_8766" data-name="Path 8766" d="M2919.643,998.172s-7.656,35.444-8.656,44.994c-.425,4.05,3.832,10.738,7.76,7.078,4.688-4.372,12.279-24.382,14.635-27.916s11.175-6.776,5.152-24.71" transform="translate(-2876.332 -919.288)" fill="#004991"/>
      <path id="Path_8767" data-name="Path 8767" d="M2891.253,947.368s.951,5.507,1.89,9.914a42.893,42.893,0,0,0,3.286,10.156c.011.022.011.057.022.079.927,2.015,2.656,4.477,3.835,4.729a35.7,35.7,0,0,0,5.312-.022c2.565.149,9.011-.7,14.5-1.431l.251-.035c2.553-.343,4.889-.653,6.492-.824a3.354,3.354,0,0,0,1.98-.882,3.01,3.01,0,0,0,.961-1.659c.011-.012.011-.012.011-.024.367-1.774-.8-3.194-2.312-4.237a2.169,2.169,0,0,0-.218-.136c1.867-1.855,3.779-3.882,3.779-3.882s-5.268.253-8.209.447c-2,.138-15.673,3.789-17.311,4.3-.126.046-.24.092-.355.125,0,0-.206.023-.514.092-.092.023-.207.069-.321.1a16.808,16.808,0,0,0-1.992-3.745c-2.931-4.121-7.694-14.1-7.694-14.1l-2.656.791-.035.011-.011.011Z" transform="translate(-2878.659 -925.346)" fill="#fff"/>
      <g id="Group_4135" data-name="Group 4135">
        <g id="Group_4133" data-name="Group 4133" transform="translate(5.418 6.113)">
          <path id="Path_8768" data-name="Path 8768" d="M2895.492,945.86a.537.537,0,1,1,.755.085A.536.536,0,0,1,2895.492,945.86Z" transform="translate(-2883.59 -931.617)" fill="none"/>
          <path id="Path_8769" data-name="Path 8769" d="M2898.015,948.013a.506.506,0,0,0,.078-.065c.246-.237.872-1.166-.991-3.429-2.214-2.691-5.652-5.33-5.354-6.047.212-.509,1.081-2.2,1.471-3a.982.982,0,0,0-.116-1.041l-1.117-1.4-6.6,5.263-.557.443,1.117,1.4a.98.98,0,0,0,.988.344c.873-.2,2.712-.673,3.254-.767.766-.133,2.484,3.879,4.616,6.635S2898.015,948.013,2898.015,948.013Zm-.723-.556a.535.535,0,1,1,.2-.1A.534.534,0,0,1,2897.292,947.457Z" transform="translate(-2884.835 -933.03)" fill="#264653"/>
        </g>
        <rect id="Rectangle_855" data-name="Rectangle 855" width="9.15" height="1.781" transform="translate(12.571 6.113) rotate(141.416)" fill="#d7d8da"/>
        <g id="Group_4134" data-name="Group 4134" transform="translate(0.649)">
          <path id="Path_8770" data-name="Path 8770" d="M2883.85,935.634a32.23,32.23,0,0,0-2.934-2.256l.341-.337A8.212,8.212,0,0,1,2883.85,935.634Z" transform="translate(-2880.529 -926.916)" fill="#ccb285"/>
          <path id="Path_8771" data-name="Path 8771" d="M2880.957,934.025a32.23,32.23,0,0,1,2.934,2.256,8.212,8.212,0,0,0-2.593-2.593l.594-.587s1.79,1.237,1.95,1.31a22.99,22.99,0,0,0-1.446-1.812s.582-.608,1.45-1.392a16.3,16.3,0,0,0,2.473,2.083c-.687-.8-1.432-1.578-2.157-2.365.512-.451,1.1-.939,1.719-1.392l1.364,1.71a8.158,8.158,0,0,1-.733-2.179,4.99,4.99,0,0,1,.965-.738,18.806,18.806,0,0,0,1.682,3.9,23.4,23.4,0,0,1-1.115-4.216,9.489,9.489,0,0,1,1.041-.45,16.185,16.185,0,0,0,2.3,4.72l-7.153,5.707a30.8,30.8,0,0,0-3.658-3.582Z" transform="translate(-2880.57 -927.563)" fill="#c6a673"/>
          <path id="Path_8772" data-name="Path 8772" d="M2886.747,928.278c.192-.116.385-.221.567-.313a23.376,23.376,0,0,0,1.115,4.216A18.78,18.78,0,0,1,2886.747,928.278Z" transform="translate(-2879.841 -927.516)" fill="#ccb285"/>
          <path id="Path_8773" data-name="Path 8773" d="M2883.5,930.852c.1-.092.207-.187.316-.282.725.787,1.47,1.57,2.157,2.365A16.3,16.3,0,0,1,2883.5,930.852Z" transform="translate(-2880.224 -927.208)" fill="#ccb285"/>
        </g>
        <path id="Path_8774" data-name="Path 8774" d="M2880.313,935.006a.78.78,0,0,0,.75-.156,1.151,1.151,0,0,1-.236-.5,2.09,2.09,0,0,1,.752-1.692,33.171,33.171,0,0,1,2.99-2.889,5.194,5.194,0,0,1,2.919-1.49c.225-.012.5.038.576.252a.356.356,0,0,1,0,.219.986.986,0,0,0,.255-.461.435.435,0,0,0-.1-.408.6.6,0,0,0-.517-.073c-1.676.315-2.773,1.4-4.054,2.417a13.322,13.322,0,0,0-3.4,3.467,1.581,1.581,0,0,0-.255.69A.636.636,0,0,0,2880.313,935.006Z" transform="translate(-2879.99 -927.536)" fill="#e59e4a"/>
        <path id="Path_8775" data-name="Path 8775" d="M2886.771,931.332a.48.48,0,0,0,.09-.185c.105-.409-.281-.711-.381-1.073a1.01,1.01,0,0,1-.038-.3.973.973,0,0,0-.038.769c.085.2.253.347.33.545A.572.572,0,0,1,2886.771,931.332Z" transform="translate(-2879.24 -927.301)" fill="#e59e4a"/>
        <path id="Path_8776" data-name="Path 8776" d="M2885.844,935.083a.778.778,0,0,0,.26-.734,1.587,1.587,0,0,0-.481-.815,8.373,8.373,0,0,1-.771-.787,5.539,5.539,0,0,0,.58.926A1.746,1.746,0,0,1,2885.844,935.083Z" transform="translate(-2879.416 -926.951)" fill="#e59e4a"/>
        <path id="Path_8777" data-name="Path 8777" d="M2880.977,934.8l.023-.016a4.233,4.233,0,0,1,.575-.4.714.714,0,0,1,.807.083c.577.4.811.4,1.2-.26.108-.187.316-.365.519-.29a.555.555,0,0,1,.231.21l.674.9a2.226,2.226,0,0,0,.5.539.764.764,0,0,0,.7.114.5.5,0,0,0,.121-.07,1.746,1.746,0,0,0-.411-1.411,5.539,5.539,0,0,1-.58-.926v0a2.042,2.042,0,0,1-.116-.177.958.958,0,0,1,.115-1.2,1.626,1.626,0,0,1,1.175-.113,1.074,1.074,0,0,0,.923-.269.572.572,0,0,0-.037-.239c-.077-.2-.245-.349-.33-.545a.973.973,0,0,1,.038-.769,1.3,1.3,0,0,1,.509-.922,4.239,4.239,0,0,0,.361-.338.356.356,0,0,0,0-.219c-.073-.214-.351-.264-.576-.252a5.194,5.194,0,0,0-2.919,1.49,33.171,33.171,0,0,0-2.99,2.889,2.09,2.09,0,0,0-.752,1.692A1.151,1.151,0,0,0,2880.977,934.8Z" transform="translate(-2879.904 -927.484)" fill="#f7b75c"/>
        <path id="Path_8778" data-name="Path 8778" d="M2898.015,947.457a.506.506,0,0,0,.078-.065,5.265,5.265,0,0,1-.8-.491.537.537,0,0,1-.672-.509q-.228-.181-.493-.4c-1.522-1.28-4.347-5.662-5.007-6.911a1.027,1.027,0,0,0-1.13-.522l-2.679.593a1.024,1.024,0,0,1-1.005-.338l-.914-1.072-.557.443,1.117,1.4a.98.98,0,0,0,.988.344c.873-.2,2.712-.673,3.254-.767.766-.133,2.484,3.879,4.616,6.635S2898.015,947.457,2898.015,947.457Z" transform="translate(-2879.417 -926.361)" fill="#557f87"/>
      </g>
      <path id="Path_8779" data-name="Path 8779" d="M2894.225,945.691c.09-.47.613-3.259.1-3.395-.785-.2-1.219,1.6-1.511,2.8-.157.647.064,1.628.6,1.691S2894.08,946.443,2894.225,945.691Z" transform="translate(-2878.481 -925.825)" fill="#f39f86"/>
      <g id="Group_4136" data-name="Group 4136" transform="translate(46.531 3.945)">
        <path id="Path_8780" data-name="Path 8780" d="M2936.842,958.18a15.8,15.8,0,0,1-.293-5.911c.551-2.479,2.256-6.909,1.848-10.308s-4.527-6.4-9.046-6.173-6.028,4.483-6.892,6.947a25.812,25.812,0,0,0-.819,8.352,5.8,5.8,0,0,0,1.873,4.218c.73.472,3.577.023,4.047.585s.7,3.765.7,3.765" transform="translate(-2921.606 -930.538)" fill="#f39f86"/>
        <path id="Path_8781" data-name="Path 8781" d="M2937.735,955.033s-6.686-.123-8.08-.369c-1.913-.339-4.189-1.95-4.253-4.267,1.636.034,1.921-3.363,1.1-4.694s-1.986-.6-2.177.621-.047.836-.374.984c-.443.2-1.049.141-.775-2.209a8.906,8.906,0,0,1,1.075-3.881c.673-1.329,1-1.239,1.563-1.459-.58-.315-1.221-.379-2.311-2.266-1.262-2.184-.985-4.427,1.655-6.4a2.9,2.9,0,0,0,2.189,2.2c2.91.943,8.29.513,10.819,2.151,1.078.7,2,2.187,1.405,3.283,0,0,2.163-.24,2.1,4.007-.134,8.6-3.076,9.249-3.34,10.563S2938.428,954.759,2937.735,955.033Z" transform="translate(-2921.468 -931.091)" fill="#112353"/>
      </g>
      <path id="Path_8782" data-name="Path 8782" d="M2939.178,958.4a5.975,5.975,0,0,0-1.047-2.8c-.786-.732-6.022-.732-7.593-.536a24.086,24.086,0,0,0-5.957,2.384c-.512.382.5,2.369.5,2.369Z" transform="translate(-2874.74 -924.327)" fill="#f2f2f2"/>
      <path id="Path_8783" data-name="Path 8783" d="M2919.459,998.962c-.24,2.05-2.037,5.221-.813,5.667a23.3,23.3,0,0,0,4.947-.149h.068c.046,0,.081-.011.115-.011,2.175-.183,4.659-.424,6.743-.584,8.323-.354,12.571,1.3,13.406.835.4-.24.413-.962.286-1.705a19.387,19.387,0,0,1-.137-5.519c.207-1.545.493-3.389.893-5.5,1.374-7.292,4.064-18.432,4.465-25.13.642-10.5-10.6-9.5-10.6-9.5-14.312-.893-21.032,3.228-21.811,9.377-.057.435-.091.9-.125,1.4-.367,6.343,1.569,16.578,2.485,24.226A38.554,38.554,0,0,1,2919.459,998.962Z" transform="translate(-2875.636 -924.057)" fill="#fff"/>
      <path id="Path_8784" data-name="Path 8784" d="M2919.459,997.905c-.24,2.05-2.037,5.221-.813,5.667a23.3,23.3,0,0,0,4.947-.149c-2.209.161-2.622-1.534-2.13-2.667a16.179,16.179,0,0,0,1.42-6.778c-.1-3.046-1.248-9.915-1.923-16.406a52.788,52.788,0,0,1-.011-11.38c-.344.687-1.328,1.648-4.1,2.29-.057,6.377,1.683,15.718,2.53,22.828A38.554,38.554,0,0,1,2919.459,997.905Z" transform="translate(-2875.636 -923)" fill="#eaeaea"/>
    </g>
    <g id="Group_4139" data-name="Group 4139" transform="translate(2705.189 873.594)">
      <g id="Group_4138" data-name="Group 4138">
        <path id="Path_8785" data-name="Path 8785" d="M2703.3,882.6c.448-2.347.888-4.69,1.295-7.039.3-1.7.695-4.836,2.291-6.066,1.5-1.162,2.8.125,3.125,1.381a34.236,34.236,0,0,1,.657,6.709c.059,1.233.872,4.737-.68,5.526-2.257,1.145-1.986-1.7-2.139-2.947-.071-.585-.39-1.454-1.214-.685-.537.5-.567,1.971-.789,2.628s-.4,1.209-1.1,1.451C2703.924,883.844,2703.248,883.433,2703.3,882.6Zm4.26-8.615c-.11.388-1.047,3.344-.153,3.071C2708.12,876.842,2707.63,874.425,2707.555,873.988Z" transform="translate(-2703.293 -867.03)" fill="#fff"/>
        <path id="Path_8786" data-name="Path 8786" d="M2715.987,877.318c-.637,1.253-.594,3.277-.8,4.6-.142.892-.04,2.579-1.236,2.923-2.839.816-.994-5.227-.806-6.441a36.532,36.532,0,0,1,.8-4.695c.374-1.283.743-3.058,2.34-2.935,2.874.22,1.6,4.664,2.719,6.455.787-.611.645-3.529.725-4.4.123-1.382-.056-3.475.53-4.819a1.277,1.277,0,0,1,2.394.181c.348,1.335-.245,3.522-.335,4.976-.1,1.552-.486,3.083-.631,4.626-.118,1.276.143,3.276-1.182,4.231C2717.48,884.2,2716.957,878.385,2715.987,877.318Z" transform="translate(-2702.219 -867.243)" fill="#fff"/>
        <path id="Path_8787" data-name="Path 8787" d="M2726.347,882.143a1.384,1.384,0,0,1-2.354.569c-.664-.854.108-2.864.346-3.906.393-1.725.879-3.44,1.381-5.153.31-1.06.549-3.379,1.369-4.257a1.323,1.323,0,0,1,1.961.257c.539.838-.377,2.484-.623,3.461C2727.67,876.121,2727,879.128,2726.347,882.143Z" transform="translate(-2700.879 -867.028)" fill="#fff"/>
        <path id="Path_8788" data-name="Path 8788" d="M2740.305,878.134c-.644.269-1.3,1.727-1.668,2.286-.608.924-.95,1.821-2.15,1.8-2.619-.059-1.5-2.773-2.193-4.295a39.992,39.992,0,0,1-1.472,3.893c-.446.986-1.07,1.969-2.327,1.713-1.558-.319-.067-2.446.245-3.462.48-1.57.915-3.1,1.513-4.663s1.865-6.274,4.419-5.309c2.118.8.744,5.461.8,7.261,1.127-.9,1.833-2.581,2.558-3.741.628-1,1.322-2.71,2.73-2.781,2.953-.151,1.168,5.07.746,6.656a26.961,26.961,0,0,0-.95,4.476c-.09,1,.2,2.507-1.228,2.839C2737.724,885.642,2740.31,879.669,2740.305,878.134Z" transform="translate(-2700.162 -866.922)" fill="#fff"/>
        <path id="Path_8789" data-name="Path 8789" d="M2743.386,884c1.2-2.064,2.394-4.131,3.558-6.211.842-1.507,2.257-4.331,4.172-4.962,1.8-.6,2.6,1.047,2.49,2.34a34.219,34.219,0,0,1-1.605,6.545c-.353,1.184-.748,4.76-2.474,4.987-2.511.333-1.312-2.256-1.04-3.487.126-.576.113-1.5-.918-1.051-.673.3-1.188,1.671-1.617,2.217s-.774,1.009-1.517,1.005C2743.568,885.382,2743.068,884.77,2743.386,884Zm6.876-6.714c-.234.33-2.1,2.806-1.164,2.847C2749.85,880.168,2750.189,877.726,2750.262,877.288Z" transform="translate(-2698.569 -866.598)" fill="#fff"/>
        <path id="Path_8790" data-name="Path 8790" d="M2758.424,875.893c-.733-.163-2.186-.384-2.432-1.125-.306-.922.885-1.146,1.637-1.114a12.615,12.615,0,0,1,3.152.737c.9.28,2.369.482,2.913,1.225.485.663.206,1.4-.841,1.484-.9.068-1.206-.607-1.995.16-.719.7-1.134,2.261-1.52,3.112-.506,1.123-.995,2.251-1.521,3.368-.509,1.083-.993,2.16-1.435,3.261-.315.782-.577,2.4-1.3,2.971a1.412,1.412,0,0,1-2.255-1.384c.395-2.044,1.748-4.243,2.66-6.187.554-1.181,1.1-2.363,1.678-3.537C2757.54,878.1,2758.534,876.73,2758.424,875.893Z" transform="translate(-2697.445 -866.486)" fill="#fff"/>
        <path id="Path_8791" data-name="Path 8791" d="M2763.517,890.218a1.384,1.384,0,0,1-2.419-.145c-.383-1.011.944-2.706,1.473-3.629.88-1.535,1.848-3.032,2.829-4.523.606-.925,1.514-3.069,2.555-3.669a1.322,1.322,0,0,1,1.8.821c.271.957-1.088,2.264-1.608,3.124C2766.543,884.85,2765.021,887.527,2763.517,890.218Z" transform="translate(-2696.473 -865.959)" fill="#fff"/>
        <path id="Path_8792" data-name="Path 8792" d="M2778.138,888.664a27.083,27.083,0,0,1-4.117,4.448c-1.1.994-3.031,2.425-4.664,2.153-4.337-.722-1.788-5.906-.434-8.157a24.837,24.837,0,0,1,3.529-4.58c1.512-1.533,2.707-1.992,4.757-1.4a3.779,3.779,0,0,1,2.792,2.794C2780.288,885.526,2778.933,887.213,2778.138,888.664Zm-8.035,3.661a14.476,14.476,0,0,0,4.633-4.112c.751-.961,3.228-3.7,1.98-4.707C2774.646,881.838,2770.243,890.714,2770.1,892.325Z" transform="translate(-2695.775 -865.633)" fill="#fff"/>
        <path id="Path_8793" data-name="Path 8793" d="M2781.8,893.3c-1.2.741-2.21,2.495-3.075,3.515-.585.69-1.374,2.185-2.573,1.857-2.853-.776,1.866-4.986,2.656-5.927a36.31,36.31,0,0,1,3.123-3.6c.986-.9,2.223-2.228,3.524-1.295,2.343,1.68-1.055,4.819-1.027,6.93.99-.113,2.385-2.68,2.9-3.385.824-1.118,1.758-3,2.956-3.846a1.277,1.277,0,0,1,1.952,1.4c-.393,1.323-2.038,2.884-2.87,4.08-.889,1.277-2.018,2.384-2.942,3.627-.763,1.03-1.577,2.876-3.207,3C2779.5,899.953,2782.071,894.713,2781.8,893.3Z" transform="translate(-2694.795 -864.874)" fill="#fff"/>
      </g>
    </g>
    <g id="Group_4141" data-name="Group 4141" transform="translate(2850.575 862.437)">
      <g id="Group_4140" data-name="Group 4140">
        <path id="Path_8794" data-name="Path 8794" d="M2835.885,899.825c-1.057-1.4-4.627-9.421-.92-9.782,1.524-.15.754,2.732,1.049,3.921a12.36,12.36,0,0,0,2.718,5.05c1.128,1.246,1.988,1.433,3.408.747.59-.285,1.371-.692,1.791.169a1.39,1.39,0,0,1-.344,1.579C2841.2,904.387,2837.495,902.558,2835.885,899.825Z" transform="translate(-2833.32 -853.394)" fill="#fff"/>
        <path id="Path_8795" data-name="Path 8795" d="M2848.311,887.165a27.872,27.872,0,0,1,2.048,5.958c.371,1.492.729,3.969-.321,5.328-2.794,3.617-6.288-1.266-7.683-3.612a25.957,25.957,0,0,1-2.458-5.483c-.66-2.14-.492-3.459,1.056-5.047a3.927,3.927,0,0,1,3.931-1.183C2846.494,883.653,2847.372,885.724,2848.311,887.165Zm-.6,9.159a15.072,15.072,0,0,0-1.49-6.266c-.509-1.16-1.8-4.774-3.338-4.126C2840.343,887.006,2846.306,895.4,2847.713,896.323Z" transform="translate(-2832.587 -854.228)" fill="#fff"/>
        <path id="Path_8796" data-name="Path 8796" d="M2855.484,888.081a13.6,13.6,0,0,0,.944,2.6c.25.623.975,1.723.741,2.48a2.039,2.039,0,0,1-1.507,1.177c-.859.153-1.113-.305-1.447-1.072-1.663-3.8-3.208-7.722-4.625-11.669-.633-1.762-.667-2.628.722-3.987a2.543,2.543,0,0,1,3.607.16C2856.065,879.7,2857.887,885.283,2855.484,888.081Zm-2.923-6.931.463.9c-.163.085.389,1.372.469,1.6C2853.523,883.624,2853.062,882.171,2853.024,882.046Z" transform="translate(-2831.448 -854.943)" fill="#fff"/>
        <path id="Path_8797" data-name="Path 8797" d="M2863.133,880.7c-1.521,1.6-3.3,1.853-4.7.292-.778-.863-2.612-4.769-.1-4.8,1.016-.012,1.263,1.013,1.669,1.811.588,1.163,1.068,1.466,1.666-.036.564-1.417,1.543-6.056,3.683-4.6.759.514.548,1.735.54,2.661-.014,1.419.051,2.818.114,4.227.056,1.27.085,2.546.114,3.821a21.574,21.574,0,0,1,.128,3.976,1.5,1.5,0,0,1-1.4,1.332c-.945.064-1.253-.5-1.378-1.427C2863.153,885.6,2863.448,883.07,2863.133,880.7Z" transform="translate(-2830.517 -855.396)" fill="#fff"/>
        <path id="Path_8798" data-name="Path 8798" d="M2875.656,879.006c-.108,2.175-.909,6.028-3.6,4.347-2.255-1.411-2.514-5.331-2.985-7.925-.2-1.095-1.156-3.09-.77-4.224a1.257,1.257,0,0,1,2.195-.363c.712,1.005.76,3.032,1.038,4.295.3,1.376.529,3.449,1.3,4.533.316-.616,0-1.787-.045-2.458q-.08-1.3-.162-2.593c-.066-1.032-.767-3.894-.13-4.883.873-1.36,2.2-.36,2.6.577a51.2,51.2,0,0,1,1.712,4.93c.485-.529-.063-2.82-.129-3.53-.082-.865-.66-2.8.112-3.58,2.34-2.385,2.4,3.395,2.478,4.336.131,1.5.341,2.96.6,4.417a5.334,5.334,0,0,1-.095,3.229,1.966,1.966,0,0,1-2.121,1.038C2876.664,880.97,2876.183,879.827,2875.656,879.006Z" transform="translate(-2829.2 -856.049)" fill="#fff"/>
        <path id="Path_8799" data-name="Path 8799" d="M2886.134,877.742c-.006.931.352,1.866-.467,2.536a1.259,1.259,0,0,1-2.2-.568,30.044,30.044,0,0,1-1.235-7.132c-.225-2.42-.853-5.056-.731-7.532.094-1.907,1.8-2.427,3.273-2.193,1.867.294,2.547,1.836,2.842,3.7a16.562,16.562,0,0,1,.25,3.449,33.611,33.611,0,0,1-.667,3.355c-.219,1.359.248,1.758,1.188,2.434.589.426,1.855.973,2.008,1.82.164.9-.72,1.45-1.466,1.546C2887.794,879.3,2886.991,878.261,2886.134,877.742Zm-1.609-11.313.443,4.516A8.532,8.532,0,0,0,2884.524,866.429Z" transform="translate(-2827.632 -856.611)" fill="#fff"/>
        <path id="Path_8800" data-name="Path 8800" d="M2894.363,875.679a1.438,1.438,0,0,1-2.177,1.263c-.913-.655-.739-2.884-.811-3.99-.121-1.833-.146-3.684-.155-5.539,0-1.147-.453-3.526.1-4.642a1.373,1.373,0,0,1,2.027-.325c.785.675.361,2.586.406,3.629C2893.9,869.292,2894.117,872.486,2894.363,875.679Z" transform="translate(-2826.502 -856.688)" fill="#fff"/>
        <path id="Path_8801" data-name="Path 8801" d="M2898.927,862.159c-.757.19-2.207.663-2.782.091-.715-.714.288-1.478,1-1.8a12.991,12.991,0,0,1,3.268-.784c.964-.161,2.425-.659,3.28-.221.758.388.844,1.206-.089,1.77-.8.481-1.4,0-1.779,1.078-.341.984,0,2.628.042,3.6.05,1.28.123,2.556.157,3.839.031,1.243.086,2.47.188,3.7.073.872.585,2.5.176,3.367a1.467,1.467,0,0,1-2.74-.235c-.589-2.082-.356-4.756-.417-6.986-.036-1.354-.076-2.708-.09-4.065C2899.134,864.618,2899.421,862.886,2898.927,862.159Z" transform="translate(-2825.929 -857.028)" fill="#fff"/>
        <path id="Path_8802" data-name="Path 8802" d="M2910.143,873.107a1.441,1.441,0,0,1-2.316.993c-.827-.759-.386-2.952-.325-4.06.1-1.834.3-3.675.518-5.517.133-1.14-.025-3.554.662-4.6a1.375,1.375,0,0,1,2.053-.078c.7.764.046,2.611-.036,3.651C2910.446,866.709,2910.282,869.907,2910.143,873.107Z" transform="translate(-2824.579 -857.009)" fill="#fff"/>
        <path id="Path_8803" data-name="Path 8803" d="M2917.413,867.838c-.641,1.314-.557,3.416-.748,4.794-.13.93.006,2.681-1.229,3.06-2.936.9-1.13-5.416-.958-6.682a38.086,38.086,0,0,1,.747-4.892c.364-1.343.715-3.2,2.377-3.1,2.992.177,1.749,4.821,2.946,6.659.808-.648.606-3.679.671-4.586.1-1.439-.121-3.612.465-5.02a1.326,1.326,0,0,1,2.49.145c.387,1.381-.191,3.665-.258,5.178-.07,1.615-.447,3.214-.568,4.82-.1,1.329.208,3.4-1.152,4.42C2919.092,874.96,2918.44,868.928,2917.413,867.838Z" transform="translate(-2823.818 -857.265)" fill="#fff"/>
        <path id="Path_8804" data-name="Path 8804" d="M2929.244,871.346a3.066,3.066,0,0,0,1.829-2.441c-.025-.906-.667-.526-1.148-1.045-.895-.96.809-1.65,1.708-1.613a3.035,3.035,0,0,1,2.389,1.047c.58.991-.5,3.163-1.12,4.188a5.067,5.067,0,0,1-2.356,1.911,3.423,3.423,0,0,1-4.857-2.605c-.411-2.491,1.152-5.65,2.6-7.932,1.042-1.645,4.193-5.105,6.033-2.909.882,1.051-.328,1.213-1.172,1.493a5.232,5.232,0,0,0-2.583,2.615C2929.753,865.391,2927.107,870.606,2929.244,871.346Z" transform="translate(-2822.418 -857.031)" fill="#fff"/>
      </g>
    </g>
    <g id="Group_4143" data-name="Group 4143" transform="translate(2831.646 828.207)">
      <g id="Group_4142" data-name="Group 4142">
        <path id="Path_8805" data-name="Path 8805" d="M2827.484,843.371c-.569.68-.458,2.7-.548,3.546-.15,1.393-.012,2.605-1.377,3.272-2.983,1.458-3.3-2.251-4.966-3.559a49.921,49.921,0,0,1,.607,5.237c.073,1.372-.058,2.84-1.623,3.283-1.938.547-1.5-2.716-1.737-4.039-.372-2.048-.776-4.026-1.008-6.13s-1.551-8.149,1.886-8.546c2.851-.331,4.012,5.715,5.129,7.706.748-1.664.561-3.97.7-5.7.125-1.495-.088-3.821,1.457-4.719,3.238-1.886,4.266,5.027,4.712,7.06a33.855,33.855,0,0,0,1.533,5.592c.479,1.176,1.686,2.7.266,3.911C2828.944,853.328,2828.381,845.1,2827.484,843.371Z" transform="translate(-2816.391 -825.854)" fill="#fff"/>
        <path id="Path_8806" data-name="Path 8806" d="M2837.223,844.1c.793-.8.51-2.991.53-3.917.035-1.556-.005-3.076-.05-4.618-.028-.984-.211-2.141.839-2.713a1.8,1.8,0,0,1,2.315.723c.359.925.057,2.777.117,3.879a37.81,37.81,0,0,1-.036,4.309c-.134,2.207-.171,5.841-2.906,6.482-5.188,1.213-5.164-8.184-4.905-11.646.064-.868.041-2.3.987-2.784a1.5,1.5,0,0,1,2.155,1.115C2836.918,837.822,2835.975,841.367,2837.223,844.1Z" transform="translate(-2814.425 -825.939)" fill="#fff"/>
        <path id="Path_8807" data-name="Path 8807" d="M2848.046,840.976c-.023-2.035-1.756-3.3-1.926-5.367a7.612,7.612,0,0,1,2.1-6.192c.964-.873,3.586-1.593,3.271.486-.118.789-1.228,1.49-1.619,2.171a5.526,5.526,0,0,0-.613,3.152c.179,1.994,1.689,3.258,1.981,5.242a7.347,7.347,0,0,1-2.09,6.184c-.878.889-4.555,2.459-3.863-.12.232-.869,1.679-1.707,2.155-2.579A5.456,5.456,0,0,0,2848.046,840.976Z" transform="translate(-2812.988 -826.426)" fill="#fff"/>
        <path id="Path_8808" data-name="Path 8808" d="M2858.8,844.088a1.753,1.753,0,0,1-2.823,1.205c-1.008-.928-.465-3.6-.387-4.949.128-2.237.373-4.482.641-6.729.165-1.39-.023-4.335.816-5.605a1.675,1.675,0,0,1,2.5-.092c.85.934.05,3.183-.051,4.453C2859.189,836.287,2858.981,840.186,2858.8,844.088Z" transform="translate(-2811.786 -826.562)" fill="#fff"/>
        <path id="Path_8809" data-name="Path 8809" d="M2863.148,836.844c.14-2.136,3.229-12.384,6.939-9.769,1.528,1.077-1.478,3.124-2.152,4.457a15.1,15.1,0,0,0-1.512,6.829c.05,2.047.7,2.906,2.552,3.4.773.208,1.818.454,1.519,1.582a1.692,1.692,0,0,1-1.572,1.186C2864.428,845.291,2862.461,840.648,2863.148,836.844Z" transform="translate(-2810.884 -826.651)" fill="#fff"/>
      </g>
    </g>
    <g id="Group_4145" data-name="Group 4145" transform="translate(2848.384 852.41)">
      <g id="Group_4144" data-name="Group 4144">
        <path id="Path_8810" data-name="Path 8810" d="M2833.507,875.389c-.477-2.565-.966-5.125-1.488-7.676-.378-1.849-1.221-5.2-.087-7.083,1.068-1.78,2.9-.99,3.731.159a37.442,37.442,0,0,1,3.341,6.561c.552,1.233,2.777,4.472,1.512,5.894-1.842,2.065-2.7-.932-3.35-2.146-.306-.567-.976-1.323-1.507-.214-.348.726.208,2.232.244,2.988a2.049,2.049,0,0,1-.538,1.913C2834.643,876.4,2833.792,876.251,2833.507,875.389Zm.9-10.462c.043.438.268,3.82,1.07,3.187C2836.12,867.6,2834.658,865.341,2834.407,864.926Z" transform="translate(-2831.361 -846.964)" fill="#fff"/>
        <path id="Path_8811" data-name="Path 8811" d="M2844.41,867.181c.583-.774.077-2.615-.017-3.407-.157-1.333-.374-2.625-.6-3.936-.143-.836-.438-1.8.39-2.416a1.551,1.551,0,0,1,2.063.339c.416.747.381,2.366.566,3.3a32.469,32.469,0,0,1,.484,3.683c.152,1.9.556,5.009-1.7,5.882-4.282,1.657-5.388-6.367-5.584-9.353-.049-.748-.239-1.966.51-2.5a1.3,1.3,0,0,1,1.974.7C2843.4,861.863,2843.017,865,2844.41,867.181Z" transform="translate(-2830.346 -847.249)" fill="#fff"/>
        <path id="Path_8812" data-name="Path 8812" d="M2850.309,860.86c-.271-2.353-2.008-8.837,2.217-8.327,3.38.409,4.685,4.878,4.745,8.115.048,2.507-1,7.295-3.7,8.424C2849.852,870.629,2850.835,860.712,2850.309,860.86Zm2.8-3.915c.129,1.118.117,6.036,1.028,6.333A10.914,10.914,0,0,0,2853.106,856.945Z" transform="translate(-2829.192 -847.8)" fill="#fff"/>
        <path id="Path_8813" data-name="Path 8813" d="M2863.1,864.78a1.513,1.513,0,0,1-2.311,1.293c-.948-.7-.728-3.044-.785-4.21-.094-1.93-.088-3.879-.063-5.828.014-1.208-.416-3.717.189-4.881a1.443,1.443,0,0,1,2.138-.306c.814.72.334,2.724.363,3.821C2862.718,858.057,2862.9,861.42,2863.1,864.78Z" transform="translate(-2828.001 -848.036)" fill="#fff"/>
        <path id="Path_8814" data-name="Path 8814" d="M2875.7,854.895a29.472,29.472,0,0,1-1.169,6.522c-.425,1.562-1.364,4.02-3.025,4.731-4.418,1.892-5.125-4.382-5.206-7.253a27.094,27.094,0,0,1,.55-6.294c.49-2.3,1.318-3.431,3.552-4.1a4.134,4.134,0,0,1,4.218.927C2875.829,850.739,2875.576,853.09,2875.7,854.895Zm-5.24,8.107a15.819,15.819,0,0,0,1.84-6.52c.125-1.325.788-5.308-.954-5.5C2868.461,850.67,2869.638,861.437,2870.461,863Z" transform="translate(-2827.236 -848.297)" fill="#fff"/>
      </g>
    </g>
    <g id="Group_4147" data-name="Group 4147" transform="translate(2716.628 838.655)">
      <g id="Group_4146" data-name="Group 4146">
        <path id="Path_8815" data-name="Path 8815" d="M2718.163,851.552a4.011,4.011,0,0,0,2.563-3.057c.03-1.184-.832-.734-1.428-1.447-1.1-1.319,1.175-2.1,2.346-1.987,1.088.1,2.558.586,3.048,1.537.687,1.336-.882,4.1-1.76,5.392a6.629,6.629,0,0,1-3.214,2.327,4.474,4.474,0,0,1-6.156-3.747c-.361-3.283,1.9-7.3,3.956-10.174,1.479-2.075,5.838-6.37,8.086-3.372,1.077,1.435-.513,1.562-1.638,1.866-1.662.451-2.635,1.885-3.558,3.234C2719.251,843.813,2715.425,850.433,2718.163,851.552Z" transform="translate(-2713.524 -835.995)" fill="#fff"/>
        <path id="Path_8816" data-name="Path 8816" d="M2729.6,855.1c-.569,1.073-.72,2.376-2.076,2.653-1.692.347-2.39-.665-2.207-1.991a39.267,39.267,0,0,1,2.889-9.013c1.205-2.939,2.075-6.375,3.716-9.17,1.263-2.152,3.553-1.722,5.12-.559,1.983,1.473,1.838,3.672,1.053,6.008a21.3,21.3,0,0,1-1.8,4.145,43.333,43.333,0,0,1-2.806,3.485c-1.077,1.44-.776,2.186-.1,3.54.426.85,1.559,2.251,1.224,3.326-.356,1.136-1.713,1.244-2.637.9C2730.586,857.913,2730.285,856.221,2729.6,855.1Zm4.99-14.083q-1.111,2.751-2.222,5.5A11.157,11.157,0,0,0,2734.595,841.019Z" transform="translate(-2712.134 -835.987)" fill="#fff"/>
        <path id="Path_8817" data-name="Path 8817" d="M2737.026,856.269c1.753-2.732,3.494-5.466,5.2-8.22,1.234-2,3.325-5.747,5.961-6.492,2.483-.7,3.469,1.575,3.242,3.326a46.479,46.479,0,0,1-2.568,8.792c-.549,1.587-1.3,6.417-3.655,6.625-3.429.3-1.646-3.143-1.207-4.8.209-.774.245-2.032-1.182-1.479-.931.361-1.714,2.2-2.327,2.914s-1.113,1.323-2.119,1.276C2737.19,858.154,2736.547,857.293,2737.026,856.269Zm9.733-8.709c-.334.435-3.012,3.689-1.749,3.8C2746.029,851.445,2746.633,848.15,2746.759,847.56Z" transform="translate(-2710.767 -835.353)" fill="#fff"/>
        <path id="Path_8818" data-name="Path 8818" d="M2754.907,858.278a17.815,17.815,0,0,0-1.843,3.1c-.422.769-.937,2.411-1.9,2.8a2.667,2.667,0,0,1-2.441-.551c-.863-.742-.61-1.379-.112-2.351,2.473-4.83,5.158-9.635,7.981-14.336,1.258-2.1,2.106-2.848,4.632-2.567,2.013.224,2.91,1.989,2.822,3.781C2763.864,851.934,2759.728,858.395,2754.907,858.278Zm4.072-7.484c-.222-.094-1.066,1.53-1.228,1.8C2757.795,852.607,2758.884,850.938,2758.979,850.795Zm.522-1.21" transform="translate(-2709.433 -835.011)" fill="#fff"/>
        <path id="Path_8819" data-name="Path 8819" d="M2768.845,862.19c-.789-.467-2.057-1.313-2.893-.823-1.287.754-1.451,2.907-2.554,3.86a1.882,1.882,0,0,1-2.647.074c-.841-.836-.39-1.959.125-2.935,1.455-2.745,3.632-5.377,5.379-8.012.945-1.427,3.6-5.975,5.569-3.158,1.433,2.047-3.55,4.575-3.551,6.822,0,.634.965,1.109,1.7,1.239,1,.177,1.084-.1,1.743-.881,1.05-1.242,1.926-2.584,2.9-3.866.775-1.017,1.673-2.647,3.151-2.339a1.635,1.635,0,0,1,1.157,2.553,44.878,44.878,0,0,1-2.831,3.675c-.993,1.409-1.987,2.82-2.968,4.235-1.083,1.565-2.16,3.167-3.154,4.772-.668,1.079-1.181,2.685-2.917,2.366C2763.286,869.081,2768.217,863.8,2768.845,862.19Z" transform="translate(-2708.001 -834.306)" fill="#fff"/>
        <path id="Path_8820" data-name="Path 8820" d="M2776.649,871.851a1.881,1.881,0,0,1-3.239-.588c-.353-1.427,1.711-3.5,2.578-4.659,1.436-1.927,2.981-3.79,4.547-5.642.969-1.147,2.54-3.894,4.043-4.533a1.794,1.794,0,0,1,2.293,1.4c.209,1.336-1.835,2.878-2.676,3.955C2781.6,865.1,2779.114,868.465,2776.649,871.851Z" transform="translate(-2706.455 -833.595)" fill="#fff"/>
        <path id="Path_8821" data-name="Path 8821" d="M2784.669,867.776c1.391-1.823,10.241-9.128,12-4.59.721,1.868-3.179,1.908-4.57,2.7a16.151,16.151,0,0,0-5.409,5.194c-1.172,1.856-1.106,3,.253,4.552.567.644,1.352,1.484.415,2.315a1.815,1.815,0,0,1-2.108.123C2780.787,876.072,2781.792,870.759,2784.669,867.776Z" transform="translate(-2705.411 -832.956)" fill="#fff"/>
        <path id="Path_8822" data-name="Path 8822" d="M2795.844,877.473c1.5-1.587,1.107-3.856,2.516-5.573a8.151,8.151,0,0,1,6.233-3.208c1.393.045,3.953,1.443,2.158,2.813-.679.518-2.054.234-2.866.467a5.911,5.911,0,0,0-2.82,1.974c-1.349,1.669-1.125,3.77-2.377,5.516a7.873,7.873,0,0,1-6.219,3.211c-1.339.034-5.344-1.5-2.89-2.97.826-.5,2.567-.066,3.582-.383A5.84,5.84,0,0,0,2795.844,877.473Z" transform="translate(-2704.632 -832.133)" fill="#fff"/>
      </g>
    </g>
    <g id="Group_4149" data-name="Group 4149" transform="translate(2774.367 813.475)">
      <g id="Group_4148" data-name="Group 4148">
        <path id="Path_8823" data-name="Path 8823" d="M2770.967,836.034c.325-2.083-.265-4.545-.47-6.578-.085-.825-.329-1.846.425-2.515a1.6,1.6,0,0,1,2.3.282c.512.892.292,2.975.414,4.048.149,1.31.38,2.6.425,3.939.073,2.159-.038,5.2-2.5,5.832-2.162.553-3.234-1.719-4.016-3.427-.942-2.058-2.479-5.139-2.384-7.63.084-2.269,2.405-2.214,3.064-.621C2768.984,831.19,2769.368,834.966,2770.967,836.034Z" transform="translate(-2765.163 -811.927)" fill="#fff"/>
        <path id="Path_8824" data-name="Path 8824" d="M2781.831,837.109a1.717,1.717,0,0,1-2.461,1.725c-1.153-.684-1.173-3.354-1.372-4.665-.332-2.168-.55-4.367-.749-6.572-.123-1.365-.9-4.149-.351-5.535a1.64,1.64,0,0,1,2.379-.595c1,.721.693,3.038.853,4.277C2780.622,829.558,2781.211,833.336,2781.831,837.109Z" transform="translate(-2763.8 -812.563)" fill="#fff"/>
        <path id="Path_8825" data-name="Path 8825" d="M2785.08,827.845c-.24-2.68-2.028-10.091,2.754-9.391,3.825.559,5.18,5.67,5.159,9.35-.019,2.847-1.348,8.254-4.447,9.46C2784.284,838.924,2785.682,827.692,2785.08,827.845Zm3.288-4.366c.114,1.275-.038,6.857.987,7.221A12.385,12.385,0,0,0,2788.368,823.479Z" transform="translate(-2762.873 -812.892)" fill="#fff"/>
        <path id="Path_8826" data-name="Path 8826" d="M2798.417,817.807a21.133,21.133,0,0,0,.041,5.276c.237,2.068,1.272.618,2.738.953,1.064.244,1.505,1.176.527,2.107-1.358,1.287-2.734.055-2.656,2.424.037,1.11.167,3.84,1.078,4.5.991.72,2.925-.831,3.916.085,2.323,2.147-4.276,3.171-5.348,2.82-2.646-.867-2.794-4.933-3.114-7.466a74.7,74.7,0,0,1-.438-10.276c.023-1.691.31-2.5,2-3.09a12.966,12.966,0,0,1,4.511-.985c.9.1,1.986.928,1.284,2.043C2802.306,817.227,2799.5,817.3,2798.417,817.807Z" transform="translate(-2761.622 -813.396)" fill="#fff"/>
        <path id="Path_8827" data-name="Path 8827" d="M2817.74,821.078a33.5,33.5,0,0,1-1.52,7.368c-.528,1.759-1.666,4.519-3.572,5.279-5.071,2.015-5.689-5.125-5.695-8.385a30.836,30.836,0,0,1,.81-7.128c.622-2.6,1.6-3.854,4.154-4.543a4.69,4.69,0,0,1,4.756,1.175C2818.01,816.366,2817.652,819.028,2817.74,821.078Zm-6.186,9.044a17.953,17.953,0,0,0,2.281-7.342c.181-1.5,1.051-6-.919-6.269C2809.651,816.07,2810.668,828.323,2811.555,830.123Z" transform="translate(-2760.227 -813.475)" fill="#fff"/>
      </g>
    </g>
  </g>
</svg>
