<svg xmlns="http://www.w3.org/2000/svg" viewBox="0 0 90.49 44.7"><defs><style>.cls-1{isolation:isolate;}.cls-2{fill:#457a9b;opacity:0.45;mix-blend-mode:multiply;}.cls-3{fill:#fff;}.cls-4{fill:#d1d1d1;opacity:0.5;}.cls-5{fill:#e9c464;opacity:0.25;}</style></defs><title>Asset 5</title><g class="cls-1"><g id="Layer_2" data-name="Layer 2"><g id="Layer_1-2" data-name="Layer 1"><path class="cls-2" d="M90.49,40.91l-8.33-2.59a6.62,6.62,0,0,1-6.62,6.38H7.77a6.63,6.63,0,0,1-6.63-6.63V10A6.63,6.63,0,0,1,7.77,3.36H75.54A6.63,6.63,0,0,1,82.18,10v21.8Z"/><rect class="cls-3" width="80.29" height="41.34" rx="3.69"/><polyline class="cls-3" points="77.49 25.37 88.6 37.55 74.64 33.22"/><rect class="cls-4" x="33.14" y="27.52" width="29.8" height="3.94"/><rect class="cls-4" x="33.14" y="21.64" width="40.89" height="3.94"/><rect class="cls-4" x="33.14" y="15.76" width="40.89" height="3.94"/><rect class="cls-4" x="33.14" y="9.88" width="23.94" height="3.94"/><rect class="cls-5" x="5.5" y="9.88" width="23.09" height="21.58" rx="1.33"/></g></g></g></svg>