<svg xmlns="http://www.w3.org/2000/svg" viewBox="0 0 110.94 53.54"><defs><style>.cls-1{fill:#f4a25d;}.cls-2{fill:#ebfaff;}.cls-3{fill:#d1d1d1;opacity:0.5;}</style></defs><title>card3</title><g id="Layer_2" data-name="Layer 2"><g id="Layer_1-2" data-name="Layer 1"><path class="cls-1" d="M4.94,2.48h99.22a4.94,4.94,0,0,1,4.94,4.94V38.75a4.94,4.94,0,0,1-4.94,4.94H21.89C21.48,47,19.15,53.54,7.2,53.54c0,0,4.92-.9,5.94-9.85H4.94A4.94,4.94,0,0,1,0,38.75V7.42A4.94,4.94,0,0,1,4.94,2.48Z"/><path class="cls-2" d="M6.77,0H106a4.94,4.94,0,0,1,4.94,4.94V36.27A4.94,4.94,0,0,1,106,41.2H23.73C23.32,44.52,21,51.05,9,51.05c0,0,4.91-.9,5.94-9.85H6.77a4.93,4.93,0,0,1-4.93-4.93V4.94A4.94,4.94,0,0,1,6.77,0Z"/><rect class="cls-3" x="5.87" y="3.85" width="101.79" height="4.25" rx="0.55" transform="translate(113.54 11.95) rotate(-180)"/><rect class="cls-3" x="5.87" y="11.01" width="101.79" height="4.25" rx="0.55" transform="translate(113.54 26.27) rotate(-180)"/><rect class="cls-3" x="5.87" y="18.17" width="101.79" height="4.25" rx="0.55" transform="translate(113.54 40.59) rotate(-180)"/><rect class="cls-3" x="5.87" y="25.33" width="101.79" height="4.25" rx="0.55" transform="translate(113.54 54.91) rotate(-180)"/><rect class="cls-3" x="5.87" y="32.49" width="101.79" height="4.25" rx="0.55" transform="translate(113.54 69.23) rotate(-180)"/></g></g></svg>