<svg xmlns="http://www.w3.org/2000/svg" viewBox="0 0 190.58 93.4"><defs><style>.cls-1,.cls-3{fill:#e9c464;}.cls-1{opacity:0.21;}.cls-2{fill:#fff;}.cls-4{fill:#d1d1d1;opacity:0.5;}</style></defs><title>Asset 4</title><g id="Layer_2" data-name="Layer 2"><g id="Layer_1-2" data-name="Layer 1"><rect class="cls-1" x="4.11" y="4.11" width="186.47" height="89.3" rx="2.79"/><path class="cls-2" d="M186.47,5.73V83.57a5.73,5.73,0,0,1-5.72,5.73H5.75A5.74,5.74,0,0,1,0,83.57V5.73A5.74,5.74,0,0,1,5.75,0h175A5.73,5.73,0,0,1,186.47,5.73Z"/><path class="cls-3" d="M186.47,5.73V16.94H0V5.73A5.74,5.74,0,0,1,5.75,0h175A5.73,5.73,0,0,1,186.47,5.73Z"/><path class="cls-3" d="M179.13,26.34V80.06H7V62.9C14,53.37,23.46,47,45.17,59.87,66,72.2,66,32.5,89.82,34.56S120,72.2,138.5,45,179.13,26.34,179.13,26.34Z"/><rect class="cls-4" x="7.03" y="26" width="33.91" height="2.31"/><rect class="cls-4" x="7.03" y="30.11" width="57.31" height="2.31"/><rect class="cls-4" x="7.03" y="34.21" width="43.02" height="2.31"/><rect class="cls-4" x="7.03" y="38.32" width="51.92" height="2.31"/><rect class="cls-4" x="7.03" y="42.42" width="33.91" height="2.31"/></g></g></svg>