<svg xmlns="http://www.w3.org/2000/svg" width="165.765" height="204.644" viewBox="0 0 165.765 204.644">
  <g id="computer-man" transform="translate(0)">
    <g id="Group_4413" data-name="Group 4413" transform="translate(16.048 177.386)">
      <path id="Path_9033" data-name="Path 9033" d="M2174.373,2041.057c0,7.522,33.513,13.627,74.86,13.627s74.856-6.1,74.856-13.627-33.516-13.631-74.856-13.631S2174.373,2033.53,2174.373,2041.057Z" transform="translate(-2174.373 -2027.425)" fill="#dae4e5" opacity="0.06"/>
    </g>
    <g id="Group_4414" data-name="Group 4414" transform="translate(0 110.273)">
      <path id="Path_9034" data-name="Path 9034" d="M2204.424,2025.817H2269.8l-32.621-10.638h-66.291l.244.7,31.52,9.658A5.75,5.75,0,0,0,2204.424,2025.817Z" transform="translate(-2162.921 -1976.49)" fill="#0c877e"/>
      <path id="Path_9035" data-name="Path 9035" d="M2204.454,2024.7h63.894l-32.01-9.523h-64.806l31.153,9.243A5.689,5.689,0,0,0,2204.454,2024.7Z" transform="translate(-2162.075 -1976.49)" fill="#c5e6ef"/>
      <path id="Path_9036" data-name="Path 9036" d="M2200.4,2022.189h42.4l-21.242-6.32h-43.008l20.673,6.135A3.8,3.8,0,0,0,2200.4,2022.189Z" transform="translate(-2152.809 -1975.578)" fill="#71c9c4" opacity="0.55"/>
      <path id="Path_9037" data-name="Path 9037" d="M2175.429,2037.2h66.291l-8.357-36.656a3.127,3.127,0,0,0-3.022-2.033h-59.763a2.877,2.877,0,0,0-2.99,3.6Z" transform="translate(-2167.458 -1998.51)" fill="#0c877e"/>
      <path id="Path_9038" data-name="Path 9038" d="M2176.069,2037.2h64.806l-8.357-36.656a3.127,3.127,0,0,0-3.022-2.033h-58.277a2.876,2.876,0,0,0-2.989,3.6Z" transform="translate(-2166.612 -1998.51)" fill="#2a9d8e"/>
      <path id="Path_9039" data-name="Path 9039" d="M2177.051,2033.62h58.469L2228,1999.512a.029.029,0,0,0-.028-.019h-58.449Z" transform="translate(-2164.729 -1997.212)" fill="#c5e6ef"/>
      <line id="Line_24" data-name="Line 24" x1="53.186" transform="translate(36.805 44.878)" fill="none" stroke="#c5e6ef" stroke-miterlimit="10" stroke-width="0.5"/>
      <line id="Line_25" data-name="Line 25" x1="53.186" transform="translate(26.998 42.157)" fill="none" stroke="#c5e6ef" stroke-miterlimit="10" stroke-width="0.25"/>
      <path id="Path_9040" data-name="Path 9040" d="M2219.255,2018.057c-2.226-1.843-6.132-2.277-8.994-2.671a46.969,46.969,0,0,0-8.648-.127c-1.662.079-1.237,2.01.193,2.249a16.661,16.661,0,0,0,4.948.079,7.9,7.9,0,0,0,4.359,2.89,17.807,17.807,0,0,0,5.288.506c.5-.012,1.127-.137,1.23-.624" transform="translate(-2123.757 -1976.564)" fill="#ffd3b3"/>
    </g>
    <path id="Path_9041" data-name="Path 9041" d="M2303.226,2018.38c1.315,4.594,1.025,8.286,1.9,12.986,1.3,7,1.813,15.063-2.9,20.4-3.414,3.86-6.406,5.311-11.559,5.385-4.341.061-8.653-.71-12.993-.826-2.913-.077-11.833.712-14.746.829-13,.515-20.346-2.354-33.2-3.943a306.112,306.112,0,0,1-33.783-6.782c-33.274-9.112-21.224-22.53-13.87-24.673,1.6-.466,8.848-2.88,8.848-2.88l9.721,2.716h34.04s14.2-.659,20.279-2.082" transform="translate(-2159.133 -1861.988)" fill="#004991"/>
    <path id="Path_9042" data-name="Path 9042" d="M2195.721,2010.469a19.515,19.515,0,0,0-2.041,1.386,24.032,24.032,0,0,1-4.63,2.272q-2.336.947-4.667,1.892a1.926,1.926,0,0,0-1.465,1.889c-.968,4.886-1.931,9.958-.636,15.113a19.533,19.533,0,0,0,2.734-5.455,5.942,5.942,0,0,1,1.286-2.665,7.533,7.533,0,0,1,1.488-.94,15.94,15.94,0,0,0,4.12-3.917,2.556,2.556,0,0,0,.675-1.228,1.58,1.58,0,0,1,.1-.5.936.936,0,0,1,.353-.325l5.75-3.693" transform="translate(-2148.703 -1872.439)" fill="#ffd3b3"/>
    <path id="Path_9043" data-name="Path 9043" d="M2227.116,2072.187c2.674-1.978,5.591-4.194,8.363-6.508,6.315-5.3,11.956-11.065,12.657-15.259,1.541-9.4.336-37.338-.411-50.524-.023-.794-.072-1.542-.121-2.242-.747-12.461-7.449-17.981-10.8-20-1.711,16.2-5.568,52.764-5.881,54.644C2230.514,2034.7,2227.116,2072.187,2227.116,2072.187Z" transform="translate(-2088.647 -1915.796)" fill="#264653"/>
    <path id="Path_9044" data-name="Path 9044" d="M2227.112,2061.678c2.676-1.978,5.594-4.194,8.365-6.508.239-10.3,3.987-8.063,8.3-26.07a120.072,120.072,0,0,0,1.219-43.5l-10.292,1.567c-1.713,16.029-3.567,33.337-3.786,34.613C2230.512,2024.2,2227.112,2061.678,2227.112,2061.678Z" transform="translate(-2088.652 -1905.287)" fill="#264653"/>
    <path id="Path_9045" data-name="Path 9045" d="M2243.985,2002.208s-2.2-7.469-1.239-12.982,4.271-15.435,3.031-22.878-10.612-13.643-20.534-12.677-12.817,10.472-14.472,15.985-1.378,13.919-.963,18.469,2.895,8.13,4.547,9.1,7.875-.309,8.968.88,1.92,8.214,1.92,8.214" transform="translate(-2111.93 -1947.605)" fill="#ffd3b3"/>
    <path id="Path_9046" data-name="Path 9046" d="M2244.037,1981.2s-.553-4.354-2.206-5.9-12.68-1.543-15.987-1.13-11.463,4.217-12.541,5.021,1.049,4.988,1.049,4.988Z" transform="translate(-2107.297 -1920.699)" fill="#1c353d"/>
    <path id="Path_9047" data-name="Path 9047" d="M2242.242,1996.2s-13.782,1.169-16.4,0-6.408-3.723-6.751-8.407.62-6.135-1.172-8.753-3.377-1.722-3.653.759-.383,6.961-1.033,7.29c-.877.443-1.922-2.711-1.585-7.5.292-4.153.759-7.374,2-10.129s1.913-2.6,3.033-3.1c-1.207-.587-2.508-.657-4.892-4.377-2.76-4.305-1.242-11.018,6.063-10.99,12.761.048,26.323,2.548,26.6,11.99,0,0,4.479-.689,4.617,7.924s-5.375,19.019-5.789,21.707S2243.621,1995.583,2242.242,1996.2Z" transform="translate(-2110.602 -1951)" fill="#004991"/>
    <path id="Path_9048" data-name="Path 9048" d="M2210.8,2064.09c-.506,4.315-4.289,10.993-1.71,11.933,1.035.362,5.255.121,10.412-.313h.144c.1,0,.169-.025.242-.025,4.582-.385,9.811-.891,14.2-1.228,17.524-.747,26.467,2.748,28.227,1.759.845-.506.868-2.026.6-3.593a40.771,40.771,0,0,1-.29-11.617c.434-3.254,1.038-7.135,1.882-11.571,2.892-15.356,8.556-38.81,9.4-52.91,1.348-22.1-22.322-20.008-22.322-20.008-30.132-1.88-44.281,6.8-45.919,19.743-.121.915-.192,1.9-.265,2.941-.773,13.353,3.3,34.9,5.229,51A81,81,0,0,1,2210.8,2064.09Z" transform="translate(-2117.462 -1917.629)" fill="#264653"/>
    <path id="Path_9049" data-name="Path 9049" d="M2210.8,2052.1c-.506,4.315-4.289,10.993-1.71,11.933,1.035.362,5.255.121,10.412-.313-4.651.336-5.519-3.231-4.481-5.617a34.111,34.111,0,0,0,2.987-14.27c-.215-6.413-2.627-20.875-4.048-34.542a111.349,111.349,0,0,1-.025-23.96c-.722,1.446-2.8,3.47-8.629,4.821-.121,13.425,3.544,33.1,5.326,48.064A81,81,0,0,1,2210.8,2052.1Z" transform="translate(-2117.464 -1905.643)" fill="#264653"/>
    <path id="Path_9050" data-name="Path 9050" d="M2233.441,1977.707s-13.81-1.1-19.886,4c-4.847,4.071-14.175,55.6-14.175,55.6l12.9,5.334s14.052-35.222,17.714-34.676" transform="translate(-2125.287 -1915.853)" fill="#264653"/>
    <path id="Path_9051" data-name="Path 9051" d="M2229.143,2008.334c-4.384,13.87-40.146,19.116-40.146,19.116l-1.994-6.367s21.841-16.263,29.721-18.471" transform="translate(-2141.639 -1882.818)" fill="#264653"/>
    <path id="Path_9052" data-name="Path 9052" d="M2190.7,2019.848q-4.783.261-9.551.705" transform="translate(-2149.375 -1860.049)" fill="none" stroke="#062f44" stroke-miterlimit="10" stroke-width="1"/>
    <path id="Path_9053" data-name="Path 9053" d="M2188.863,2031.561c11.858-.578,23.575,2.247,35.322,3.971s24.19,2.266,35.029-2.579a4.446,4.446,0,0,1,5.854.671,17.3,17.3,0,0,0,6.4,3.108c3.305.694,4.257-.125,7.59-.68a1.456,1.456,0,0,1,.975.067c.083.049.093.132.144.195-3.333,2.458-5.262,3.463-9.47,3.523-4.341.061-8.653-.71-12.993-.826-2.913-.077-11.833.712-14.746.829-13,.515-20.346-2.354-33.2-3.943-5.333-.66-13.288-2.112-20.674-3.682A1.681,1.681,0,0,1,2188.863,2031.561Z" transform="translate(-2139.18 -1844.677)" fill="#062f44"/>
  </g>
</svg>
