<svg xmlns="http://www.w3.org/2000/svg" viewBox="0 0 127.88 126.43"><defs><style>.cls-1{fill:#3d3d3d;opacity:0.21;}.cls-2{fill:#e29266;}</style></defs><title>fingers</title><g id="Layer_2" data-name="Layer 2"><g id="Layer_1-2" data-name="Layer 1"><path class="cls-1" d="M94.05,10.07c2.6.56,5.4,1.31,7,3.42,2.49,3.26.78,8.3-2.49,10.77S91,27.29,87,27.78c-16.86,2-33.81,4-50.81,3.45a150,150,0,0,1-25.52-3.07c-2.57-.53-7.35-1-8.81-3.67-1.6-2.93,1.73-5.95,3.82-7.6A69.32,69.32,0,0,1,33.36,3.19,53.33,53.33,0,0,1,48.84,2c5.16.38,9.7,2.52,14.68,3.29C73.69,6.91,83.89,7.88,94.05,10.07Z"/><path class="cls-2" d="M91.36,4.44c2.64.36,5.49.88,7.27,2.86,2.74,3.05,1.43,8.22-1.63,10.93s-7.29,3.62-11.31,4.43C69.05,26,52.3,29.31,35.31,30.1a151,151,0,0,1-25.68-1c-2.6-.33-7.41-.43-9.07-3C-1.27,23.3,1.81,20,3.77,18.21A69.2,69.2,0,0,1,30.32,2.37,53.21,53.21,0,0,1,45.66,0c5.18,0,9.87,1.75,14.89,2.13C70.82,2.9,81.06,3.06,91.36,4.44Z"/><path class="cls-2" d="M110.12,93.19c1.39,2.7,3,5.44,5.71,7.22s6.7,2.3,9.34.46c3.11-2.16,3-6.32,2.32-9.77a69.21,69.21,0,0,0-6.95-19.38c-1.54-2.86-3.66-5.92-7.14-6.66-6.51-1.4-11.19,5.48-10.5,10.49C103.69,81.23,107.46,88,110.12,93.19Z"/><path class="cls-2" d="M94.85,102c1.39,3,3,6.14,5.72,8.14s6.7,2.6,9.33.53c3.11-2.45,3-7.13,2.32-11a84.66,84.66,0,0,0-7-21.84c-1.54-3.23-3.66-6.67-7.14-7.51-6.51-1.58-11.19,6.18-10.49,11.83C88.42,88.5,92.2,96.15,94.85,102Z"/><path class="cls-2" d="M80.41,109.25c1.25,2.75,2.73,5.54,5.15,7.34s6,2.35,8.43.48c2.8-2.2,2.7-6.44,2.09-9.95a76.38,76.38,0,0,0-6.27-19.71c-1.39-2.91-3.3-6-6.44-6.78-5.88-1.42-10.09,5.58-9.47,10.68C74.6,97.09,78,104,80.41,109.25Z"/><path class="cls-2" d="M70,124.2A5,5,0,0,0,72.28,126a9.66,9.66,0,0,0,3.82.37,10.61,10.61,0,0,0,4.53-1.06,7.47,7.47,0,0,0,3.46-4.62c1.55-5.79-2.28-13.25-4.71-18.35-1.38-2.91-3.3-6-6.44-6.77-5.88-1.43-10.09,5.58-9.47,10.68a41.42,41.42,0,0,0,3.37,11C67.67,119.18,68.49,122.2,70,124.2Z"/></g></g></svg>