<svg xmlns="http://www.w3.org/2000/svg" viewBox="0 0 51.62 51.62"><defs><style>.cls-1{fill:#fff;}</style></defs><title>gear</title><g id="Layer_2" data-name="Layer 2"><g id="Layer_1-2" data-name="Layer 1"><path class="cls-1" d="M43.42,15.11,47.59,12a25.9,25.9,0,0,0-8-8L36.51,8.21A20.05,20.05,0,0,0,30.69,5.8L31.45.64a25.17,25.17,0,0,0-11.28,0l.76,5.16a20.17,20.17,0,0,0-5.82,2.41L12,4a25.9,25.9,0,0,0-8,8l4.18,3.11A20.17,20.17,0,0,0,5.8,20.93L.64,20.17a25.17,25.17,0,0,0,0,11.28l5.16-.76a20.05,20.05,0,0,0,2.41,5.82L4,39.62a25.9,25.9,0,0,0,8,8l3.11-4.17a20.74,20.74,0,0,0,5.82,2.41L20.17,51a25.56,25.56,0,0,0,11.28,0l-.76-5.16a20.62,20.62,0,0,0,5.82-2.41l3.11,4.17a25.9,25.9,0,0,0,8-8l-4.17-3.11a20.62,20.62,0,0,0,2.41-5.82l5.16.76a25.56,25.56,0,0,0,0-11.28l-5.16.76A20.74,20.74,0,0,0,43.42,15.11ZM25.81,39.51a13.7,13.7,0,1,1,13.7-13.7A13.7,13.7,0,0,1,25.81,39.51Z"/></g></g></svg>