<svg xmlns="http://www.w3.org/2000/svg" viewBox="0 0 26.04 26.04"><defs><style>.cls-1{fill:#f4a25d;}</style></defs><title>gear2</title><g id="Layer_2" data-name="Layer 2"><g id="Layer_1-2" data-name="Layer 1"><path class="cls-1" d="M21.9,7.62,24,6.06a13.1,13.1,0,0,0-4-4L18.42,4.14a10.38,10.38,0,0,0-2.93-1.22l.38-2.6A13.38,13.38,0,0,0,13,0a13.22,13.22,0,0,0-2.84.32l.38,2.6A10.44,10.44,0,0,0,7.62,4.14L6.06,2a13.13,13.13,0,0,0-4,4L4.14,7.62a10.44,10.44,0,0,0-1.22,2.94l-2.6-.38A13.22,13.22,0,0,0,0,13a13.38,13.38,0,0,0,.32,2.85l2.6-.38a10.38,10.38,0,0,0,1.22,2.93L2,20a13.1,13.1,0,0,0,4,4L7.62,21.9a10.44,10.44,0,0,0,2.94,1.22l-.38,2.6A12.61,12.61,0,0,0,13,26a12.77,12.77,0,0,0,2.85-.32l-.38-2.6a10.38,10.38,0,0,0,2.93-1.22L20,24a13.07,13.07,0,0,0,4-4L21.9,18.42a10.38,10.38,0,0,0,1.22-2.93l2.6.38A12.77,12.77,0,0,0,26,13a12.61,12.61,0,0,0-.32-2.84l-2.6.38A10.44,10.44,0,0,0,21.9,7.62ZM13,19.93A6.91,6.91,0,1,1,19.93,13,6.91,6.91,0,0,1,13,19.93Z"/></g></g></svg>