<svg xmlns="http://www.w3.org/2000/svg" xmlns:xlink="http://www.w3.org/1999/xlink" width="34.058" height="34.058" viewBox="0 0 34.058 34.058">
  <defs>
    <clipPath id="clip-path">
      <rect id="Rectangle_896" data-name="Rectangle 896" width="34.058" height="34.058" transform="translate(420 1719)" fill="#fff" stroke="#707070" stroke-width="1"/>
    </clipPath>
  </defs>
  <g id="icon10" transform="translate(-420 -1719)" clip-path="url(#clip-path)">
    <g id="_009-type" data-name="009-type" transform="translate(420 1719)">
      <path id="Path_8896" data-name="Path 8896" d="M4.922,5.588a.665.665,0,0,0,.665-.665V3.533H23.814a.665.665,0,0,0,0-1.33H5.588V.665A.665.665,0,0,0,4.922,0H.665A.665.665,0,0,0,0,.665V4.922a.665.665,0,0,0,.665.665H2.257V28.47H.665A.665.665,0,0,0,0,29.136v4.257a.665.665,0,0,0,.665.665H4.922a.665.665,0,0,0,.665-.665V29.136a.665.665,0,0,0-.665-.665H3.588V5.588Zm-.665,27.14H1.33V29.8H4.257ZM1.33,1.33H4.257V4.257H1.33Zm0,0" fill="#fff"/>
      <path id="Path_8897" data-name="Path 8897" d="M34.783,5.588a.665.665,0,0,0,.665-.665V.665A.665.665,0,0,0,34.783,0H30.526a.665.665,0,0,0-.665.665V4.922a.665.665,0,0,0,.665.665h1.518V28.47H30.526a.665.665,0,0,0-.665.665V30.6H11.634a.665.665,0,1,0,0,1.33H29.86v1.463a.665.665,0,0,0,.665.665h4.257a.665.665,0,0,0,.665-.665V29.136a.665.665,0,0,0-.665-.665H33.374V5.588Zm-.665,27.14H31.191V29.8h2.927ZM31.191,1.33h2.927V4.257H31.191Zm0,0" transform="translate(-1.39)" fill="#fff"/>
      <path id="Path_8898" data-name="Path 8898" d="M30.22,3.852a.665.665,0,1,0-.47-.195A.667.667,0,0,0,30.22,3.852Zm0,0" transform="translate(-3.745 -0.32)" fill="#fff"/>
      <path id="Path_8899" data-name="Path 8899" d="M10.491,13.887a.665.665,0,0,0,.665-.665V11.843h4.262v12.7H12.062a.665.665,0,0,0-.665.665V28.4a.665.665,0,0,0,.665.665h11.75a.665.665,0,0,0,.665-.665V25.206a.665.665,0,0,0-.665-.665H20.473v-12.7h4.243v1.378a.665.665,0,0,0,.665.665h2.661a.665.665,0,0,0,.665-.665V7.453a.665.665,0,0,0-.665-.665H7.83a.665.665,0,0,0-.665.665v5.769a.665.665,0,0,0,.665.665Zm-2-5.769H27.377v4.438h-1.33V11.178a.665.665,0,0,0-.665-.665H19.808a.665.665,0,0,0-.665.665V25.206a.665.665,0,0,0,.665.665h3.339v1.863H12.727V25.872h3.356a.665.665,0,0,0,.665-.665V11.178a.665.665,0,0,0-.665-.665H10.491a.665.665,0,0,0-.665.665v1.378H8.5Zm0,0" transform="translate(-0.908 -0.86)" fill="#fff"/>
      <path id="Path_8900" data-name="Path 8900" d="M8.587,35.039a.665.665,0,1,0,.47.195A.67.67,0,0,0,8.587,35.039Zm0,0" transform="translate(-1.004 -4.44)" fill="#fff"/>
    </g>
  </g>
</svg>
