<svg xmlns="http://www.w3.org/2000/svg" xmlns:xlink="http://www.w3.org/1999/xlink" width="34" height="32" viewBox="0 0 34 32">
  <defs>
    <clipPath id="clip-path">
      <rect id="Rectangle_858" data-name="Rectangle 858" width="34" height="32" transform="translate(155 1573)" fill="#fff" stroke="#707070" stroke-width="1"/>
    </clipPath>
  </defs>
  <g id="icon1" transform="translate(-155 -1573)" clip-path="url(#clip-path)">
    <g id="_001-movie-film" data-name="001-movie-film" transform="translate(155 1572)">
      <g id="Group_4228" data-name="Group 4228">
        <g id="Group_4227" data-name="Group 4227">
          <path id="Path_8865" data-name="Path 8865" d="M13.525,14.63A2.37,2.37,0,1,0,15.895,17,2.372,2.372,0,0,0,13.525,14.63Zm0,3.743A1.374,1.374,0,1,1,14.9,17,1.375,1.375,0,0,1,13.525,18.374Z" fill="#fff"/>
        </g>
      </g>
      <g id="Group_4230" data-name="Group 4230">
        <g id="Group_4229" data-name="Group 4229">
          <path id="Path_8866" data-name="Path 8866" d="M24.227,13.939a3.682,3.682,0,0,0-3.6-2.868,3.7,3.7,0,1,0,3.6,2.868Zm-3.715,3.535a2.693,2.693,0,0,1-1.444-.484,2.737,2.737,0,0,1-.081-4.372A6.985,6.985,0,0,1,20.528,17C20.528,17.158,20.522,17.316,20.512,17.474Zm1-.15c0-.108.007-.216.007-.324A7.979,7.979,0,0,0,19.9,12.167c.038-.01.076-.021.115-.029a2.719,2.719,0,0,1,.612-.07,2.7,2.7,0,0,1,.892,5.257Z" fill="#fff"/>
        </g>
      </g>
      <g id="Group_4232" data-name="Group 4232">
        <g id="Group_4231" data-name="Group 4231">
          <path id="Path_8867" data-name="Path 8867" d="M18.557,19.247l-.044-.006a3.738,3.738,0,0,0-4.181,3.436v.009a3.7,3.7,0,0,0,3.7,3.922,3.7,3.7,0,0,0,.53-7.362ZM15.333,22.71A2.7,2.7,0,0,1,19.5,20.645a6.99,6.99,0,0,1-4.056,3.089A2.648,2.648,0,0,1,15.333,22.71Zm5.371.562a2.73,2.73,0,0,1-2.677,2.342,2.684,2.684,0,0,1-2.089-.985,7.983,7.983,0,0,0,4.3-3.274A2.684,2.684,0,0,1,20.7,23.271Z" fill="#fff"/>
        </g>
      </g>
      <g id="Group_4234" data-name="Group 4234">
        <g id="Group_4233" data-name="Group 4233">
          <path id="Path_8868" data-name="Path 8868" d="M12.718,22.686v-.008a3.7,3.7,0,0,0-4.225-3.431,3.7,3.7,0,0,0,.53,7.362A3.736,3.736,0,0,0,12.718,22.686Zm-3.7,2.927a2.679,2.679,0,0,1-1.636-.553,2.707,2.707,0,0,1-.573-3.707,7.983,7.983,0,0,0,4.3,3.274A2.684,2.684,0,0,1,9.023,25.613Zm2.7-2.6s0,.005,0,.008a2.682,2.682,0,0,1-.127.713,6.99,6.99,0,0,1-4.056-3.089,2.7,2.7,0,0,1,1.08-.411l.018,0A2.756,2.756,0,0,1,11.728,23.013Z" fill="#fff"/>
        </g>
      </g>
      <g id="Group_4236" data-name="Group 4236">
        <g id="Group_4235" data-name="Group 4235">
          <path id="Path_8869" data-name="Path 8869" d="M9.505,12.73a3.731,3.731,0,0,0-3.08-1.659A3.7,3.7,0,0,0,3.29,16.733a3.736,3.736,0,0,0,3.142,1.741A3.68,3.68,0,0,0,9.949,15.91,3.745,3.745,0,0,0,9.505,12.73ZM5.533,17.324a2.7,2.7,0,0,1,.892-5.257,2.723,2.723,0,0,1,.726.1A7.98,7.98,0,0,0,5.526,17C5.526,17.108,5.529,17.216,5.533,17.324Zm3.595-2.413a2.724,2.724,0,0,1-2.59,2.563c-.011-.158-.016-.316-.016-.474a6.986,6.986,0,0,1,1.54-4.381l.036.028A2.75,2.75,0,0,1,9.128,14.911Z" fill="#fff"/>
        </g>
      </g>
      <g id="Group_4238" data-name="Group 4238">
        <g id="Group_4237" data-name="Group 4237">
          <path id="Path_8870" data-name="Path 8870" d="M13.525,5.873a3.7,3.7,0,0,0-3.7,3.7,3.644,3.644,0,0,0,.072.717,3.7,3.7,0,1,0,3.628-4.417Zm2.49,4.755a2.705,2.705,0,0,1-4.98,0l0-.005c0-.007-.059-.145-.056-.146a7.027,7.027,0,0,1,5.1,0S16.016,10.626,16.015,10.628ZM13.525,9a7.94,7.94,0,0,0-2.7.468,2.7,2.7,0,0,1,5.4,0A7.94,7.94,0,0,0,13.525,9Z" fill="#fff"/>
        </g>
      </g>
      <g id="Group_4240" data-name="Group 4240">
        <g id="Group_4239" data-name="Group 4239">
          <path id="Path_8871" data-name="Path 8871" d="M33.5,22.291H31.424a6.867,6.867,0,0,0-2.421.4.5.5,0,0,0,.346.934,5.893,5.893,0,0,1,2.075-.339H33v2.131h-1.58a3.421,3.421,0,0,0-1.74.395,7.551,7.551,0,0,0-1.635,1.349,8.031,8.031,0,0,1-5.716,2.368H18.617q.568-.232,1.113-.514A13.475,13.475,0,0,0,22.173,27.4h.159a5.914,5.914,0,0,0,4.21-1.744,14.445,14.445,0,0,1,1.168-1.068.5.5,0,0,0-.623-.777,15.384,15.384,0,0,0-1.249,1.141,4.922,4.922,0,0,1-2.5,1.35,13.514,13.514,0,0,0-1.2-19.731.5.5,0,0,0-.635.768,12.53,12.53,0,0,1-7.573,22.184c-.134,0-.268.007-.4.007A12.529,12.529,0,1,1,19.91,6.219a.5.5,0,1,0,.508-.857,13.525,13.525,0,1,0-6.893,25.163q.177,0,.353,0a.5.5,0,0,0,.064,0h8.39a9.021,9.021,0,0,0,6.421-2.66c1.208-1.208,1.657-1.452,2.671-1.452H33.5a.5.5,0,0,0,.5-.5V22.789A.5.5,0,0,0,33.5,22.291Z" fill="#fff"/>
        </g>
      </g>
    </g>
  </g>
</svg>
