<svg xmlns="http://www.w3.org/2000/svg" xmlns:xlink="http://www.w3.org/1999/xlink" width="39" height="39" viewBox="0 0 39 39">
  <defs>
    <clipPath id="clip-path">
      <rect id="Rectangle_903" data-name="Rectangle 903" width="39" height="39" transform="translate(702 1719)" fill="#fff" stroke="#707070" stroke-width="1"/>
    </clipPath>
  </defs>
  <g id="icon11" transform="translate(-702 -1719)" clip-path="url(#clip-path)">
    <g id="_013-origami-white-page" data-name="013-origami-white-page" transform="translate(702 1719)">
      <path id="Path_8937" data-name="Path 8937" d="M34.146,12.351a.672.672,0,0,0-.035-.175c-.007-.022-.013-.042-.022-.063a.674.674,0,0,0-.132-.2L22.24.2a.658.658,0,0,0-.2-.132.6.6,0,0,0-.066-.023.664.664,0,0,0-.171-.034C21.79.007,21.776,0,21.761,0H5.523a.676.676,0,0,0-.676.676V38.324A.676.676,0,0,0,5.523,39H33.477a.676.676,0,0,0,.676-.676V12.392A.416.416,0,0,0,34.146,12.351Zm-2.3-.634H22.438V2.309ZM6.2,37.647V1.353H21.085v11.04a.676.676,0,0,0,.676.676H32.8V37.647H6.2Z" fill="#fff"/>
    </g>
  </g>
</svg>
