<svg xmlns="http://www.w3.org/2000/svg" xmlns:xlink="http://www.w3.org/1999/xlink" width="34" height="32" viewBox="0 0 34 32">
  <defs>
    <clipPath id="clip-path">
      <rect id="Rectangle_861" data-name="Rectangle 861" width="34" height="32" transform="translate(139 1830)" fill="#fff" stroke="#707070" stroke-width="1"/>
    </clipPath>
  </defs>
  <g id="icon17" transform="translate(-139 -1830)" clip-path="url(#clip-path)">
    <g id="_005-enterprise" data-name="005-enterprise" transform="translate(140 1830)">
      <g id="Group_4242" data-name="Group 4242">
        <g id="Group_4241" data-name="Group 4241">
          <rect id="Rectangle_864" data-name="Rectangle 864" width="1.067" height="1.067" transform="translate(11.2 10.667)" fill="#fff"/>
        </g>
      </g>
      <g id="Group_4244" data-name="Group 4244">
        <g id="Group_4243" data-name="Group 4243">
          <rect id="Rectangle_865" data-name="Rectangle 865" width="1.067" height="1.067" transform="translate(11.2 12.8)" fill="#fff"/>
        </g>
      </g>
      <g id="Group_4246" data-name="Group 4246">
        <g id="Group_4245" data-name="Group 4245">
          <rect id="Rectangle_866" data-name="Rectangle 866" width="1.067" height="1.067" transform="translate(11.2 14.933)" fill="#fff"/>
        </g>
      </g>
      <g id="Group_4248" data-name="Group 4248">
        <g id="Group_4247" data-name="Group 4247">
          <rect id="Rectangle_867" data-name="Rectangle 867" width="1.067" height="1.067" transform="translate(11.2 17.067)" fill="#fff"/>
        </g>
      </g>
      <g id="Group_4250" data-name="Group 4250">
        <g id="Group_4249" data-name="Group 4249">
          <rect id="Rectangle_868" data-name="Rectangle 868" width="1.067" height="1.067" transform="translate(13.333 10.667)" fill="#fff"/>
        </g>
      </g>
      <g id="Group_4252" data-name="Group 4252">
        <g id="Group_4251" data-name="Group 4251">
          <rect id="Rectangle_869" data-name="Rectangle 869" width="1.067" height="1.067" transform="translate(13.333 12.8)" fill="#fff"/>
        </g>
      </g>
      <g id="Group_4254" data-name="Group 4254">
        <g id="Group_4253" data-name="Group 4253">
          <rect id="Rectangle_870" data-name="Rectangle 870" width="1.067" height="1.067" transform="translate(13.333 14.933)" fill="#fff"/>
        </g>
      </g>
      <g id="Group_4256" data-name="Group 4256">
        <g id="Group_4255" data-name="Group 4255">
          <rect id="Rectangle_871" data-name="Rectangle 871" width="1.067" height="1.067" transform="translate(13.333 17.067)" fill="#fff"/>
        </g>
      </g>
      <g id="Group_4258" data-name="Group 4258">
        <g id="Group_4257" data-name="Group 4257">
          <rect id="Rectangle_872" data-name="Rectangle 872" width="1.067" height="1.067" transform="translate(15.467 10.667)" fill="#fff"/>
        </g>
      </g>
      <g id="Group_4260" data-name="Group 4260">
        <g id="Group_4259" data-name="Group 4259">
          <rect id="Rectangle_873" data-name="Rectangle 873" width="1.067" height="1.067" transform="translate(15.467 12.8)" fill="#fff"/>
        </g>
      </g>
      <g id="Group_4262" data-name="Group 4262">
        <g id="Group_4261" data-name="Group 4261">
          <rect id="Rectangle_874" data-name="Rectangle 874" width="1.067" height="1.067" transform="translate(15.467 14.933)" fill="#fff"/>
        </g>
      </g>
      <g id="Group_4264" data-name="Group 4264">
        <g id="Group_4263" data-name="Group 4263">
          <rect id="Rectangle_875" data-name="Rectangle 875" width="1.067" height="1.067" transform="translate(15.467 17.067)" fill="#fff"/>
        </g>
      </g>
      <g id="Group_4266" data-name="Group 4266">
        <g id="Group_4265" data-name="Group 4265">
          <rect id="Rectangle_876" data-name="Rectangle 876" width="1.067" height="1.067" transform="translate(17.6 10.667)" fill="#fff"/>
        </g>
      </g>
      <g id="Group_4268" data-name="Group 4268">
        <g id="Group_4267" data-name="Group 4267">
          <rect id="Rectangle_877" data-name="Rectangle 877" width="1.067" height="1.067" transform="translate(13.333 8.533)" fill="#fff"/>
        </g>
      </g>
      <g id="Group_4270" data-name="Group 4270">
        <g id="Group_4269" data-name="Group 4269">
          <rect id="Rectangle_878" data-name="Rectangle 878" width="1.067" height="1.067" transform="translate(15.467 8.533)" fill="#fff"/>
        </g>
      </g>
      <g id="Group_4272" data-name="Group 4272">
        <g id="Group_4271" data-name="Group 4271">
          <rect id="Rectangle_879" data-name="Rectangle 879" width="1.067" height="1.067" transform="translate(17.6 8.533)" fill="#fff"/>
        </g>
      </g>
      <g id="Group_4274" data-name="Group 4274">
        <g id="Group_4273" data-name="Group 4273">
          <rect id="Rectangle_880" data-name="Rectangle 880" width="1.067" height="1.067" transform="translate(17.6 12.8)" fill="#fff"/>
        </g>
      </g>
      <g id="Group_4276" data-name="Group 4276">
        <g id="Group_4275" data-name="Group 4275">
          <rect id="Rectangle_881" data-name="Rectangle 881" width="1.067" height="1.067" transform="translate(17.6 14.933)" fill="#fff"/>
        </g>
      </g>
      <g id="Group_4278" data-name="Group 4278">
        <g id="Group_4277" data-name="Group 4277">
          <rect id="Rectangle_882" data-name="Rectangle 882" width="1.067" height="1.067" transform="translate(17.6 17.067)" fill="#fff"/>
        </g>
      </g>
      <g id="Group_4280" data-name="Group 4280">
        <g id="Group_4279" data-name="Group 4279">
          <rect id="Rectangle_883" data-name="Rectangle 883" width="1.067" height="1.067" transform="translate(19.733 10.667)" fill="#fff"/>
        </g>
      </g>
      <g id="Group_4282" data-name="Group 4282">
        <g id="Group_4281" data-name="Group 4281">
          <rect id="Rectangle_884" data-name="Rectangle 884" width="1.067" height="1.067" transform="translate(19.733 12.8)" fill="#fff"/>
        </g>
      </g>
      <g id="Group_4284" data-name="Group 4284">
        <g id="Group_4283" data-name="Group 4283">
          <rect id="Rectangle_885" data-name="Rectangle 885" width="1.067" height="1.067" transform="translate(19.733 14.933)" fill="#fff"/>
        </g>
      </g>
      <g id="Group_4286" data-name="Group 4286">
        <g id="Group_4285" data-name="Group 4285">
          <rect id="Rectangle_886" data-name="Rectangle 886" width="1.067" height="1.067" transform="translate(19.733 17.067)" fill="#fff"/>
        </g>
      </g>
      <g id="Group_4288" data-name="Group 4288">
        <g id="Group_4287" data-name="Group 4287">
          <path id="Path_8879" data-name="Path 8879" d="M31.467,8h-8V.533A.533.533,0,0,0,22.934,0H9.067a.533.533,0,0,0-.533.533h0V8h-8A.533.533,0,0,0,0,8.533H0v19.2a.533.533,0,0,0,.533.533H1.648A3.2,3.2,0,0,0,1.6,28.8v2.667A.533.533,0,0,0,2.133,32H29.867a.533.533,0,0,0,.533-.533h0V28.8a3.187,3.187,0,0,0-.048-.533h1.115A.533.533,0,0,0,32,27.734h0V8.533A.533.533,0,0,0,31.467,8ZM22.933,22.933a1.067,1.067,0,1,1-1.067-1.067A1.067,1.067,0,0,1,22.933,22.933Zm-12.8-1.067a1.067,1.067,0,1,1-1.067,1.067A1.067,1.067,0,0,1,10.133,21.867Zm-3.2,9.067H2.667V28.8a2.133,2.133,0,0,1,4.267,0Zm-3.2-6.4A1.067,1.067,0,1,1,4.8,25.6,1.067,1.067,0,0,1,3.733,24.533ZM7.014,26.5a3.215,3.215,0,0,0-.671-.5,2.133,2.133,0,1,0-3.086,0,3.221,3.221,0,0,0-1.224,1.2H1.067V9.067H8.533v12.47A2.1,2.1,0,0,0,8.59,24.4,3.209,3.209,0,0,0,7.014,26.5Zm5.253,4.438H8V27.2a2.133,2.133,0,0,1,4.267,0Zm6.4,0H13.333V27.2a2.667,2.667,0,0,1,5.333,0ZM14.4,21.867a1.6,1.6,0,1,1,1.6,1.6A1.6,1.6,0,0,1,14.4,21.867Zm4.848,3.5a3.757,3.757,0,0,0-1.53-1.477,2.667,2.667,0,1,0-3.436,0,3.757,3.757,0,0,0-1.53,1.477,3.221,3.221,0,0,0-1.075-.968A2.118,2.118,0,0,0,9.6,20.876V1.067H22.4V20.876A2.124,2.124,0,0,0,20.323,24.4,3.221,3.221,0,0,0,19.248,25.366ZM24,28.8v2.133H19.733V27.2A2.133,2.133,0,0,1,24,27.2Zm5.333,2.133H25.067V28.8a2.133,2.133,0,0,1,4.267,0Zm-3.2-6.4A1.067,1.067,0,1,1,27.2,25.6,1.067,1.067,0,0,1,26.133,24.533Zm4.8,2.667h-.966A3.221,3.221,0,0,0,28.743,26a2.133,2.133,0,1,0-3.086,0,3.213,3.213,0,0,0-.671.5,3.209,3.209,0,0,0-1.576-2.1,2.1,2.1,0,0,0,.057-2.861V9.067h7.467V27.2Z" fill="#fff"/>
        </g>
      </g>
      <g id="Group_4290" data-name="Group 4290">
        <g id="Group_4289" data-name="Group 4289">
          <rect id="Rectangle_887" data-name="Rectangle 887" width="1.067" height="8.533" transform="translate(25.067 12.267)" fill="#fff"/>
        </g>
      </g>
      <g id="Group_4292" data-name="Group 4292">
        <g id="Group_4291" data-name="Group 4291">
          <rect id="Rectangle_888" data-name="Rectangle 888" width="1.067" height="8.533" transform="translate(28.267 12.267)" fill="#fff"/>
        </g>
      </g>
      <g id="Group_4294" data-name="Group 4294">
        <g id="Group_4293" data-name="Group 4293">
          <rect id="Rectangle_889" data-name="Rectangle 889" width="1.067" height="8.533" transform="translate(2.667 12.267)" fill="#fff"/>
        </g>
      </g>
      <g id="Group_4296" data-name="Group 4296">
        <g id="Group_4295" data-name="Group 4295">
          <rect id="Rectangle_890" data-name="Rectangle 890" width="1.067" height="8.533" transform="translate(5.867 12.267)" fill="#fff"/>
        </g>
      </g>
      <g id="Group_4298" data-name="Group 4298">
        <g id="Group_4297" data-name="Group 4297">
          <path id="Path_8880" data-name="Path 8880" d="M19.2,2.133H12.8a.533.533,0,0,0-.533.533h0V6.933a.533.533,0,0,0,.533.533h6.4a.533.533,0,0,0,.533-.533h0V2.667A.533.533,0,0,0,19.2,2.133ZM18.667,6.4H13.333V3.2h5.333Z" fill="#fff"/>
        </g>
      </g>
    </g>
  </g>
</svg>
