<svg xmlns="http://www.w3.org/2000/svg" xmlns:xlink="http://www.w3.org/1999/xlink" width="39" height="39" viewBox="0 0 39 39">
  <defs>
    <clipPath id="clip-path">
      <rect id="Rectangle_908" data-name="Rectangle 908" width="39" height="39" transform="translate(983 1719)" fill="#fff" stroke="#707070" stroke-width="1"/>
    </clipPath>
  </defs>
  <g id="icon12" transform="translate(-983 -1719)" clip-path="url(#clip-path)">
    <g id="_022-magazine" data-name="022-magazine" transform="translate(983 1719)">
      <g id="Group_4369" data-name="Group 4369">
        <g id="Group_4368" data-name="Group 4368">
          <path id="Path_8949" data-name="Path 8949" d="M33.47,14.024a.579.579,0,0,0-.579.579V34.439H12.86V28.865a.579.579,0,1,0-1.158,0v3.387a3.948,3.948,0,0,0-5.592,0V3.954c0-.006,0-.011,0-.017a2.8,2.8,0,0,1,5.592.017V26.935a.579.579,0,0,0,1.158,0V4.533H32.89v8.14a.579.579,0,0,0,1.158,0V3.954a.579.579,0,0,0-.579-.579H12.817a3.954,3.954,0,0,0-7.866.579c0,.006,0,.012,0,.019V35.034s0,.008,0,.012A3.959,3.959,0,0,0,8.906,39H32.031a.579.579,0,1,0,0-1.158H8.906a2.8,2.8,0,0,1-2.8-2.792s0,0,0,0v-.012a2.8,2.8,0,0,1,5.592.012.579.579,0,0,0,.756.551H33.47a.579.579,0,0,0,.579-.579V14.6A.579.579,0,0,0,33.47,14.024Z" fill="#fff"/>
        </g>
      </g>
      <g id="Group_4371" data-name="Group 4371">
        <g id="Group_4370" data-name="Group 4370">
          <path id="Path_8950" data-name="Path 8950" d="M32.417,36.129H19.337a.579.579,0,1,0,0,1.158h13.08a.579.579,0,0,0,0-1.158Z" fill="#fff"/>
        </g>
      </g>
      <g id="Group_4373" data-name="Group 4373">
        <g id="Group_4372" data-name="Group 4372">
          <path id="Path_8951" data-name="Path 8951" d="M17.406,36.129h-8.5a1.083,1.083,0,1,1,1.083-1.083.579.579,0,1,0,1.158,0,2.241,2.241,0,1,0-2.241,2.241h8.5a.579.579,0,1,0,0-1.158Z" fill="#fff"/>
        </g>
      </g>
      <g id="Group_4375" data-name="Group 4375">
        <g id="Group_4374" data-name="Group 4374">
          <path id="Path_8952" data-name="Path 8952" d="M22.286,20.464A.579.579,0,0,0,21.613,20a1.576,1.576,0,0,1-.932-.034c-.028-.029-.028-.021-.076-.048l-.084-.048a.579.579,0,1,0-.574,1.006L20,20.9a1.981,1.981,0,0,0,1.145.3,3.763,3.763,0,0,0,.672-.064A.579.579,0,0,0,22.286,20.464Z" fill="#fff"/>
        </g>
      </g>
      <g id="Group_4377" data-name="Group 4377">
        <g id="Group_4376" data-name="Group 4376">
          <path id="Path_8953" data-name="Path 8953" d="M30.478,6.368H15a.579.579,0,0,0-.579.579V32.025A.579.579,0,0,0,15,32.6H30.478a.579.579,0,0,0,.579-.579V6.947A.579.579,0,0,0,30.478,6.368ZM20.841,31.446h-3.7a11.454,11.454,0,0,1,1.312-2.3,4.257,4.257,0,0,0,2.479,1.448A7.014,7.014,0,0,0,20.841,31.446Zm-1.621-3.353c.132-.177.263-.351.391-.52a13.834,13.834,0,0,0,1.643-2.468,4.553,4.553,0,0,0,.469.024.579.579,0,1,0,0-1.158,3.366,3.366,0,0,1-3.315-2.807c.071-.009.144-.02.221-.034a.579.579,0,1,0-.207-1.14h0a3.347,3.347,0,0,1,.266-.821c.41-.059.837-.152,1.26-.245.788-.172,1.98-.433,2.248-.164a3.616,3.616,0,0,1,.508,1.6,7.563,7.563,0,0,0,.865,2.683,12.321,12.321,0,0,0-.8,3.3,11.94,11.94,0,0,0-1.556,3.119C19.735,29.068,19.272,28.457,19.221,28.093Zm10.678.036a4.791,4.791,0,0,1-1.3-2.274,5.946,5.946,0,0,1-.084-2.656.579.579,0,0,0-1.141-.2,7.16,7.16,0,0,0,.1,3.157A5.846,5.846,0,0,0,29.9,29.607v1.839H22a8.007,8.007,0,0,1,.846-2.94,4.356,4.356,0,0,0,.3.954.579.579,0,1,0,1.053-.483c-.616-1.345-.229-3.549.241-4.957a3.77,3.77,0,0,0,.394.265.579.579,0,0,0,.586-1c-1.124-.659-1.356-1.916-1.58-3.131a4.135,4.135,0,0,0-.829-2.212c-.716-.716-1.978-.441-3.315-.149-.816.178-2.049.448-2.348.149a.426.426,0,0,1-.149-.326c0-.637,1.056-1.683,1.754-2.375l.231-.23c.65-.65,2.327-2.147,3.841-2.02a2.313,2.313,0,0,1,1.7,1.1,4.638,4.638,0,0,0,2.83,2.058,1.419,1.419,0,0,1,.629.271,1.91,1.91,0,0,1,.341,1.011,7.685,7.685,0,0,1-.562,3.327c-.051.161-.1.324-.154.487a.579.579,0,0,0,1.106.343c.05-.161.1-.32.151-.479a8.657,8.657,0,0,0,.606-3.837c-.232-1.668-.893-1.979-1.8-2.237a3.491,3.491,0,0,1-2.2-1.615,3.444,3.444,0,0,0-2.552-1.587c-1.929-.161-3.809,1.406-4.758,2.355l-.227.226c-.982.973-2.094,2.077-2.1,3.195a1.6,1.6,0,0,0,1.387,1.581,4.53,4.53,0,0,0-.159.637.579.579,0,0,0-.515,1.035l.055.032a1.506,1.506,0,0,0,.418.2,4.531,4.531,0,0,0,2.88,3.737,20.183,20.183,0,0,1-1.423,2.045,16.408,16.408,0,0,0-2.764,4.57h-.342V7.527H29.9v20.6Z" fill="#fff"/>
        </g>
      </g>
      <g id="Group_4379" data-name="Group 4379">
        <g id="Group_4378" data-name="Group 4378">
          <path id="Path_8954" data-name="Path 8954" d="M27.779,9.1h-1a.579.579,0,0,0,0,1.158h1a.579.579,0,1,0,0-1.158Z" fill="#fff"/>
        </g>
      </g>
      <g id="Group_4381" data-name="Group 4381">
        <g id="Group_4380" data-name="Group 4380">
          <path id="Path_8955" data-name="Path 8955" d="M24.844,9.1H17.276a.579.579,0,1,0,0,1.158h7.568a.579.579,0,0,0,0-1.158Z" fill="#fff"/>
        </g>
      </g>
    </g>
  </g>
</svg>
