<svg xmlns="http://www.w3.org/2000/svg" xmlns:xlink="http://www.w3.org/1999/xlink" width="39" height="39" viewBox="0 0 39 39">
  <defs>
    <clipPath id="clip-path">
      <rect id="Rectangle_895" data-name="Rectangle 895" width="39" height="39" transform="translate(702 1572)" fill="#fff" stroke="#707070" stroke-width="1"/>
    </clipPath>
  </defs>
  <g id="icon3" transform="translate(-702 -1572)" clip-path="url(#clip-path)">
    <g id="_012-digital-marketing" data-name="012-digital-marketing" transform="translate(702 1572)">
      <g id="Group_4330" data-name="Group 4330">
        <g id="Group_4329" data-name="Group 4329">
          <path id="Path_8922" data-name="Path 8922" d="M19.147,32.966a.761.761,0,1,0,.223.538A.768.768,0,0,0,19.147,32.966Z" fill="#fff"/>
        </g>
      </g>
      <g id="Group_4332" data-name="Group 4332">
        <g id="Group_4331" data-name="Group 4331">
          <path id="Path_8923" data-name="Path 8923" d="M22.774,25.939v-5.6a.762.762,0,0,0-1.046-.707L8.6,24.914H4.375a4.375,4.375,0,0,0,0,8.75h.5v4.574A.762.762,0,0,0,5.64,39H8.75a.762.762,0,0,0,.762-.762V34.031l12.217,4.914a.762.762,0,0,0,1.046-.707v-5.6a3.432,3.432,0,0,0,0-6.694ZM7.988,37.476H6.4V33.664H7.988v3.813Zm0-5.336H4.375a2.851,2.851,0,1,1,0-5.7H7.988Zm13.263,4.97h0L9.512,32.389v-6.2l8.335-3.357v7.559a.762.762,0,0,0,1.523,0V22.22l1.88-.757Zm1.523-6.074v-3.5a1.909,1.909,0,0,1,0,3.5Z" fill="#fff"/>
        </g>
      </g>
      <g id="Group_4334" data-name="Group 4334">
        <g id="Group_4333" data-name="Group 4333">
          <path id="Path_8924" data-name="Path 8924" d="M32.712,28.547H28.4a.762.762,0,1,0,0,1.523h4.313a.762.762,0,1,0,0-1.523Z" fill="#fff"/>
        </g>
      </g>
      <g id="Group_4336" data-name="Group 4336">
        <g id="Group_4335" data-name="Group 4335">
          <path id="Path_8925" data-name="Path 8925" d="M29.175,22.966a.762.762,0,0,0-1.077,0L26.61,24.453a.762.762,0,0,0,1.077,1.077l1.488-1.488A.762.762,0,0,0,29.175,22.966Z" fill="#fff"/>
        </g>
      </g>
      <g id="Group_4338" data-name="Group 4338">
        <g id="Group_4337" data-name="Group 4337">
          <path id="Path_8926" data-name="Path 8926" d="M29.231,34.5l-1.537-1.537a.762.762,0,0,0-1.077,1.077l1.537,1.537A.762.762,0,0,0,29.231,34.5Z" fill="#fff"/>
        </g>
      </g>
      <g id="Group_4340" data-name="Group 4340">
        <g id="Group_4339" data-name="Group 4339">
          <path id="Path_8927" data-name="Path 8927" d="M35.953,0H21.785a3.05,3.05,0,0,0-3.047,3.047v.3H5.941A1.83,1.83,0,0,0,4.113,5.18V17.215a1.83,1.83,0,0,0,1.828,1.828h.787v2.336a.762.762,0,0,0,1.3.539L10.9,19.043H26.034a1.83,1.83,0,0,0,1.828-1.828V14.93h8.091A3.05,3.05,0,0,0,39,11.883V3.047A3.05,3.05,0,0,0,35.953,0ZM26.339,17.215a.3.3,0,0,1-.3.3H10.588a.762.762,0,0,0-.539.223l-1.8,1.8V18.281a.762.762,0,0,0-.762-.762H5.941a.3.3,0,0,1-.3-.3V5.18a.3.3,0,0,1,.3-.3h12.8v7.008a3.05,3.05,0,0,0,3.047,3.047h4.554Zm11.138-5.332a1.525,1.525,0,0,1-1.523,1.523H21.785a1.525,1.525,0,0,1-1.523-1.523V3.047a1.525,1.525,0,0,1,1.523-1.523H35.953a1.525,1.525,0,0,1,1.523,1.523Z" fill="#fff"/>
        </g>
      </g>
      <g id="Group_4342" data-name="Group 4342">
        <g id="Group_4341" data-name="Group 4341">
          <path id="Path_8928" data-name="Path 8928" d="M31.929,6.805,26.716,3.8a.762.762,0,0,0-1.143.66v6.02a.762.762,0,0,0,1.143.66l5.213-3.01a.762.762,0,0,0,0-1.319ZM27.1,9.155V5.774l2.928,1.69Z" fill="#fff"/>
        </g>
      </g>
      <g id="Group_4344" data-name="Group 4344">
        <g id="Group_4343" data-name="Group 4343">
          <path id="Path_8929" data-name="Path 8929" d="M16.34,8H8.723a.762.762,0,0,0,0,1.523H16.34A.762.762,0,1,0,16.34,8Z" fill="#fff"/>
        </g>
      </g>
      <g id="Group_4346" data-name="Group 4346">
        <g id="Group_4345" data-name="Group 4345">
          <path id="Path_8930" data-name="Path 8930" d="M16.878,12.487a.761.761,0,1,0,.223.539A.767.767,0,0,0,16.878,12.487Z" fill="#fff"/>
        </g>
      </g>
      <g id="Group_4348" data-name="Group 4348">
        <g id="Group_4347" data-name="Group 4347">
          <path id="Path_8931" data-name="Path 8931" d="M13.482,12.264H8.723a.762.762,0,0,0,0,1.523h4.76a.762.762,0,1,0,0-1.523Z" fill="#fff"/>
        </g>
      </g>
    </g>
  </g>
</svg>
