<svg xmlns="http://www.w3.org/2000/svg" xmlns:xlink="http://www.w3.org/1999/xlink" width="34" height="32" viewBox="0 0 34 32">
  <defs>
    <clipPath id="clip-path">
      <rect id="Rectangle_863" data-name="Rectangle 863" width="34" height="32" transform="translate(139 1966)" fill="#fff" stroke="#707070" stroke-width="1"/>
    </clipPath>
  </defs>
  <g id="icon6" transform="translate(-139 -1966)" clip-path="url(#clip-path)">
    <g id="_008-graphic-tool" data-name="008-graphic-tool" transform="translate(139 1965)">
      <g id="Group_4300" data-name="Group 4300">
        <g id="Group_4299" data-name="Group 4299">
          <path id="Path_8891" data-name="Path 8891" d="M22.938,7.117,19.7,2.619a.664.664,0,0,0-1.078,0l-3.238,4.5a.664.664,0,0,0-.125.388V29.16a2.488,2.488,0,0,0,2.485,2.485h2.835a2.488,2.488,0,0,0,2.485-2.485V7.5A.664.664,0,0,0,22.938,7.117ZM19.161,4.144l2.018,2.8H17.142ZM16.586,8.275h3.153v17.2H18.582V12.791a.664.664,0,1,0-1.328,0V25.475h-.667V8.275ZM21.735,29.16a1.158,1.158,0,0,1-1.157,1.157H17.743a1.158,1.158,0,0,1-1.157-1.157V26.8h5.148Zm0-3.685h-.667V8.275h.667Z" fill="#fff"/>
        </g>
      </g>
      <g id="Group_4302" data-name="Group 4302">
        <g id="Group_4301" data-name="Group 4301">
          <path id="Path_8892" data-name="Path 8892" d="M18.568,9.994a.7.7,0,0,0-.038-.124.674.674,0,0,0-.061-.114.635.635,0,0,0-.082-.1.678.678,0,0,0-.1-.083.652.652,0,0,0-.115-.06.671.671,0,0,0-.124-.039.683.683,0,0,0-.26,0,.7.7,0,0,0-.124.039.669.669,0,0,0-.114.06.665.665,0,0,0-.245.3.7.7,0,0,0-.038.124.665.665,0,0,0,.651.794.654.654,0,0,0,.129-.013.668.668,0,0,0,.124-.038.656.656,0,0,0,.115-.061.645.645,0,0,0,.183-.183.655.655,0,0,0,.061-.115.671.671,0,0,0,.038-.124.654.654,0,0,0,.013-.129A.666.666,0,0,0,18.568,9.994Z" fill="#fff"/>
        </g>
      </g>
      <g id="Group_4304" data-name="Group 4304">
        <g id="Group_4303" data-name="Group 4303">
          <path id="Path_8893" data-name="Path 8893" d="M6.459,14.78v-.1a.95.95,0,0,1,.949-.949h.028l2.023-.086a2.155,2.155,0,0,0-.015-4.31H4.924A.828.828,0,0,1,4.1,8.507a.813.813,0,0,1,.245-.583A.792.792,0,0,1,4.9,7.693H8.878a2.675,2.675,0,0,0,0-5.35H4.38a.664.664,0,1,0,0,1.328h4.5a1.347,1.347,0,0,1,0,2.693H4.929a2.14,2.14,0,0,0-2.16,2.142,2.157,2.157,0,0,0,2.155,2.155H9.443a.827.827,0,0,1,0,1.654H9.415L7.393,12.4A2.28,2.28,0,0,0,5.131,14.68v.1A5.8,5.8,0,0,0,0,20.538V25.86a5.8,5.8,0,1,0,11.593,0V20.538A5.8,5.8,0,0,0,6.459,14.78ZM1.328,20.538a4.475,4.475,0,0,1,3.8-4.419v5.416h-3.8Zm8.936,5.322a4.468,4.468,0,1,1-8.936,0v-3h8.936Zm0-4.325H6.46V16.119a4.475,4.475,0,0,1,3.8,4.419Z" fill="#fff"/>
        </g>
      </g>
      <g id="Group_4306" data-name="Group 4306">
        <g id="Group_4305" data-name="Group 4305">
          <path id="Path_8894" data-name="Path 8894" d="M2.474,2.877a.7.7,0,0,0-.038-.124.674.674,0,0,0-.061-.114.632.632,0,0,0-.082-.1.664.664,0,0,0-.939,0,.674.674,0,0,0-.143.215.664.664,0,0,0-.039.384.63.63,0,0,0,.038.124.618.618,0,0,0,.061.115.644.644,0,0,0,.183.183.674.674,0,0,0,.114.061.693.693,0,0,0,.125.038.654.654,0,0,0,.129.013.669.669,0,0,0,.469-.195.632.632,0,0,0,.082-.1.655.655,0,0,0,.061-.115.671.671,0,0,0,.038-.124.654.654,0,0,0,.013-.129A.666.666,0,0,0,2.474,2.877Z" fill="#fff"/>
        </g>
      </g>
      <g id="Group_4308" data-name="Group 4308">
        <g id="Group_4307" data-name="Group 4307">
          <path id="Path_8895" data-name="Path 8895" d="M33.995,8.969A4.082,4.082,0,0,0,32.5,6a1.948,1.948,0,0,1-.709-2.415.933.933,0,0,0-.228-1.056A.966.966,0,0,0,30.435,2.5a9.5,9.5,0,0,0-2.712,2.6A7.19,7.19,0,0,0,26.076,9.34a4.351,4.351,0,0,0,1.356,2.988,3.222,3.222,0,0,0-.635,1.924,3.262,3.262,0,0,0,.262,1.287V28.517a2.864,2.864,0,0,0,5.729,0V15.969a3.249,3.249,0,0,0-.135-3.621A4.321,4.321,0,0,0,33.995,8.969ZM31.46,28.517a1.536,1.536,0,1,1-3.073,0V17.045a3.255,3.255,0,0,0,1.151.408.663.663,0,0,0,.1.008h.792a.662.662,0,0,0,.1-.008l.131-.023.082-.018.036-.008a3.253,3.253,0,0,0,.678-.24V28.517Zm-.527-12.579-.008,0-.058.029-.028.013-.045.02-.043.018-.035.014-.054.02-.028.01-.061.019-.023.007-.067.017-.019,0-.088.018h-.684l-.1-.02L29.56,16.1l-.056-.015-.047-.014-.035-.012a1.909,1.909,0,0,1-.55-3.323l.053-.039q.046-.033.094-.063l.042-.026q.066-.039.135-.074l.014-.007.081-.037.014-.005q.072-.03.146-.054l.046-.014q.05-.015.1-.027l.079-.017.054-.01c.042-.007.083-.012.126-.016l.034,0c.048,0,.1-.006.144-.006s.1,0,.146.006l.034,0c.042,0,.084.009.126.016l.056.01.08.017q.052.012.1.027l.042.013q.071.023.14.052l.02.008a1.9,1.9,0,0,1,.232.119l.049.031q.045.029.088.06l.06.045a1.908,1.908,0,0,1-.28,3.189Zm.73-4.486-.044-.024-.105-.057-.054-.028a3.222,3.222,0,0,0-.366-.152l-.021-.007c-.063-.021-.127-.041-.191-.059h0a3.212,3.212,0,0,0-.4-.081l-.038,0q-.079-.01-.16-.016l-.048,0c-.065,0-.131-.007-.2-.007s-.131,0-.2.006l-.046,0q-.08.006-.158.016l-.037,0a3.21,3.21,0,0,0-.588.137l-.016.005q-.09.031-.177.066l-.015.006c-.061.025-.121.052-.18.08l-.038.02c-.04.02-.08.041-.12.063l-.035.018A3.009,3.009,0,0,1,27.4,9.278,6.1,6.1,0,0,1,28.934,5.7a10.6,10.6,0,0,1,1.39-1.5,3.2,3.2,0,0,0,1.243,2.748,2.812,2.812,0,0,1,1.1,2.08A2.979,2.979,0,0,1,31.663,11.452Z" fill="#fff"/>
        </g>
      </g>
    </g>
  </g>
</svg>
