<svg xmlns="http://www.w3.org/2000/svg" xmlns:xlink="http://www.w3.org/1999/xlink" width="34" height="32" viewBox="0 0 34 32">
  <defs>
    <clipPath id="clip-path">
      <rect id="Rectangle_860" data-name="Rectangle 860" width="34" height="32" transform="translate(139 1700)" fill="#fff" stroke="#707070" stroke-width="1"/>
    </clipPath>
  </defs>
  <g id="icon9" transform="translate(-139 -1700)" clip-path="url(#clip-path)">
    <path id="_003-meeting-explain" data-name="003-meeting-explain" d="M4.3,16.589c.007-.25.03-1.009.6-1.225s1.116.339,1.22.451a.456.456,0,1,1-.666.623,1.149,1.149,0,0,0-.205-.167,1.626,1.626,0,0,0-.039.345,1.578,1.578,0,0,0,.911,1.56.462.462,0,0,1,.291.387A4.348,4.348,0,0,0,10.4,22.82a4.348,4.348,0,0,0,3.988-4.257.455.455,0,0,1,.294-.389,1.579,1.579,0,0,0,.907-1.559,1.69,1.69,0,0,0-.039-.345,1.162,1.162,0,0,0-.206.169.456.456,0,0,1-.665-.623c.105-.113.658-.664,1.22-.451s.593.975.6,1.225A2.471,2.471,0,0,1,15.264,18.9,5.23,5.23,0,0,1,10.4,23.732,5.23,5.23,0,0,1,5.526,18.9,2.475,2.475,0,0,1,4.3,16.589Zm6.1,9.347A1.489,1.489,0,0,0,11.687,24.5H9.1A1.489,1.489,0,0,0,10.4,25.936Zm.828.168a.465.465,0,0,0-.342.072,1.515,1.515,0,0,1-.487.224,1.52,1.52,0,0,1-.488-.224.461.461,0,0,0-.342-.072.456.456,0,0,0-.292.191c-.185.272-1.077,4.89-1.085,4.935a.455.455,0,0,0,.9.159c.152-.856.63-3.146.864-4.174a1.834,1.834,0,0,0,.4.1.444.444,0,0,0,.1,0,1.774,1.774,0,0,0,.4-.1c.234,1.028.712,3.319.864,4.174a.455.455,0,0,0,.448.376.437.437,0,0,0,.08-.007.455.455,0,0,0,.369-.528c-.008-.045-.9-4.663-1.085-4.935A.454.454,0,0,0,11.224,26.1ZM4.75,29.873a.456.456,0,0,0-.456.456v.98a.456.456,0,0,0,.911,0v-.98A.456.456,0,0,0,4.75,29.873Zm1.659-17.15a3.578,3.578,0,0,0-.777,1.817.456.456,0,0,0,.391.512.463.463,0,0,0,.061,0,.456.456,0,0,0,.451-.395,2.665,2.665,0,0,1,.575-1.356.456.456,0,0,0-.7-.582Zm7.586,2.33a.456.456,0,1,0,.911,0,3.068,3.068,0,0,0-2.99-3.35H7.76a.456.456,0,1,0,0,.911h4.147A2.162,2.162,0,0,1,13.995,15.053Zm1.515-1.016a.431.431,0,0,0,.054,0,.456.456,0,0,0,.4-.505,3.587,3.587,0,0,0-3.7-3.247H8.348a.456.456,0,1,0,0,.911h3.925a2.744,2.744,0,0,1,2.786,2.442A.455.455,0,0,0,15.51,14.037ZM31.02,0H1.067A.456.456,0,0,0,.611.456V24.21a.456.456,0,0,0,.456.456H3.835A7.961,7.961,0,0,0,.525,31.309a.456.456,0,1,0,.911,0,7.327,7.327,0,0,1,4.75-6.959l.061,1.119A.456.456,0,0,0,6.7,25.9a.451.451,0,0,0,.194-.043l1.519-.713a.455.455,0,0,0-.387-.825l-.907.426-.1-1.794a.456.456,0,1,0-.91.05l.022.4c-.2.075-.481.191-.816.357l-.008,0H1.522V.911H30.565V23.755h-8a15.343,15.343,0,0,0,1.131-7,.455.455,0,0,0-.454-.415H21a.456.456,0,0,0-.456.456c0,2.329-.622,4.022-1.849,5.031a5.715,5.715,0,0,1-4.087,1.048.45.45,0,0,0-.412-.356.457.457,0,0,0-.48.43l-.1,1.794-.834-.391a.455.455,0,1,0-.387.825l1.445.678a.458.458,0,0,0,.194.043.456.456,0,0,0,.455-.431l.092-1.676a6.532,6.532,0,0,0,4.685-1.255,6.784,6.784,0,0,0,2.18-5.285H22.8c.044,1.317-.011,5.454-2.221,7.868a5.881,5.881,0,0,1-4.542,1.834.456.456,0,1,0,0,.911,6.756,6.756,0,0,0,5.217-2.132,7.354,7.354,0,0,0,.805-1.069H24.3v6.879a.456.456,0,0,0,.911,0V24.666H26.35v6.879a.456.456,0,0,0,.911,0V24.666h3.758a.456.456,0,0,0,.456-.456V.456A.454.454,0,0,0,31.02,0ZM16.042,28.448a.456.456,0,0,0-.456.456v2.406a.456.456,0,0,0,.911,0V28.9A.456.456,0,0,0,16.042,28.448ZM14.17,3.739a.456.456,0,1,0,0-.911H6.048a.456.456,0,1,0,0,.911ZM3.648,5.087a.456.456,0,0,0,.456.456H14.17a.456.456,0,1,0,0-.911H4.1A.456.456,0,0,0,3.648,5.087ZM4.1,7.346H14.17a.456.456,0,1,0,0-.911H4.1a.456.456,0,0,0,0,.911Zm0,1.8H14.17a.456.456,0,1,0,0-.911H4.1a.456.456,0,1,0,0,.911ZM29.53,4.106a.455.455,0,0,0-.589-.7L24.007,7.586,21.425,4.878a.457.457,0,0,0-.626-.084L17.7,7.4a.456.456,0,1,0,.539.734l2.744-2.342,2.6,2.733a.458.458,0,0,0,.312.17l.045,0a.455.455,0,0,0,.294-.108ZM21.6,8.714l-.146,3.307A4.676,4.676,0,0,1,21.984,12c.493,0,1.993,0,1.993,1.467v.629a1.993,1.993,0,0,1-3.985,0v-.629a1.278,1.278,0,0,1,.539-1.134l.162-3.657a.47.47,0,0,1,.475-.435A.456.456,0,0,1,21.6,8.714Zm.382,4.194c-1.082,0-1.082.3-1.082.556v.629a1.082,1.082,0,0,0,2.163,0v-.629C23.066,13.2,23.066,12.908,21.984,12.908ZM10.448,16.8v2.307H9.888a.456.456,0,0,0,0,.911H10.9a.456.456,0,0,0,.456-.456V16.8a.456.456,0,0,0-.911,0Z" transform="translate(140 1700)" fill="#fff"/>
  </g>
</svg>
