<svg xmlns="http://www.w3.org/2000/svg" xmlns:xlink="http://www.w3.org/1999/xlink" width="32" height="32" viewBox="0 0 32 32">
  <defs>
    <clipPath id="clip-path">
      <rect id="Rectangle_857" data-name="Rectangle 857" width="32" height="32" transform="translate(4569 1557)" fill="#fff" stroke="#707070" stroke-width="1"/>
    </clipPath>
  </defs>
  <g id="icon5" transform="translate(-4569 -1557)" clip-path="url(#clip-path)">
    <g id="_002-presentation" data-name="002-presentation" transform="translate(4569 1557)">
      <g id="Group_4198" data-name="Group 4198" transform="translate(2.666 5.867)">
        <g id="Group_4197" data-name="Group 4197">
          <path id="Path_8850" data-name="Path 8850" d="M11.905,14.9a3.174,3.174,0,0,0-2.29-.967H9.451a3.174,3.174,0,0,0-2.287.967,2.933,2.933,0,0,0-.828,2.175L6.4,18.511A3.066,3.066,0,0,0,9.513,21.4h.041a3.066,3.066,0,0,0,3.115-2.889l.065-1.436A2.933,2.933,0,0,0,11.905,14.9Zm-.3,3.566a2,2,0,0,1-2.049,1.867H9.513a2,2,0,0,1-2.049-1.867l-.019-.436a4.813,4.813,0,0,0,2.788-1.046,2.382,2.382,0,0,0,1.391.975Zm-.669-2.521a.535.535,0,0,0-.993-.2A3.275,3.275,0,0,1,7.4,16.965a1.881,1.881,0,0,1,.529-1.325A2.108,2.108,0,0,1,9.451,15h.164a2.108,2.108,0,0,1,1.518.64,1.879,1.879,0,0,1,.521,1.2A1.262,1.262,0,0,1,10.934,15.946Z" transform="translate(-6.333 -13.933)" fill="#fff"/>
        </g>
      </g>
      <g id="Group_4200" data-name="Group 4200" transform="translate(23.466 18.667)">
        <g id="Group_4199" data-name="Group 4199">
          <path id="Path_8851" data-name="Path 8851" d="M61.305,45.3a3.174,3.174,0,0,0-2.29-.967h-.164a3.174,3.174,0,0,0-2.287.967,2.933,2.933,0,0,0-.828,2.175l.062,1.436A3.066,3.066,0,0,0,58.913,51.8h.041a3.066,3.066,0,0,0,3.115-2.889l.065-1.436A2.933,2.933,0,0,0,61.305,45.3Zm-.239,2.132L61,48.867a2,2,0,0,1-2.049,1.867h-.041a2,2,0,0,1-2.049-1.867L56.8,47.429a1.882,1.882,0,0,1,.533-1.389,2.108,2.108,0,0,1,1.518-.64h.164a2.108,2.108,0,0,1,1.518.64A1.883,1.883,0,0,1,61.066,47.432Z" transform="translate(-55.733 -44.333)" fill="#fff"/>
        </g>
      </g>
      <g id="Group_4202" data-name="Group 4202" transform="translate(0 7.341)">
        <g id="Group_4201" data-name="Group 4201">
          <path id="Path_8852" data-name="Path 8852" d="M16.476,17.85a1.476,1.476,0,0,0-2.053,0L8.469,23.8a.533.533,0,0,1-.378.156H2.667A2.67,2.67,0,0,0,0,26.627v7.467A1.6,1.6,0,0,0,2.133,35.6v.625a.533.533,0,0,0,.533.533h6.4a.533.533,0,0,0,.533-.533V27.58a.534.534,0,0,1,.143-.364l6.767-7.278A1.476,1.476,0,0,0,16.476,17.85Zm-.727,1.342-.006.006L8.96,26.49a1.6,1.6,0,0,0-.427,1.09v8.114H3.2v-8a.533.533,0,1,0-1.067,0v6.4a.533.533,0,1,1-1.067,0V26.627a1.6,1.6,0,0,1,1.6-1.6H8.091a1.588,1.588,0,0,0,1.132-.469L15.177,18.6a.421.421,0,0,1,.579,0A.415.415,0,0,1,15.749,19.192Z" transform="translate(0 -17.435)" fill="#fff"/>
        </g>
      </g>
      <g id="Group_4204" data-name="Group 4204" transform="translate(5.333 15.467)">
        <g id="Group_4203" data-name="Group 4203">
          <path id="Path_8853" data-name="Path 8853" d="M13.2,36.733a.533.533,0,0,0-.533.533v6.4a.533.533,0,0,0,1.067,0v-6.4A.533.533,0,0,0,13.2,36.733Z" transform="translate(-12.667 -36.733)" fill="#fff"/>
        </g>
      </g>
      <g id="Group_4206" data-name="Group 4206" transform="translate(11.733 18.667)">
        <g id="Group_4205" data-name="Group 4205">
          <path id="Path_8854" data-name="Path 8854" d="M33.436,45.3a3.174,3.174,0,0,0-2.287-.967h-.164A3.174,3.174,0,0,0,28.7,45.3a2.933,2.933,0,0,0-.828,2.175l.062,1.436A3.066,3.066,0,0,0,31.046,51.8h.041A3.066,3.066,0,0,0,34.2,48.911l.062-1.436A2.933,2.933,0,0,0,33.436,45.3ZM33.2,47.432l-.064,1.435a2,2,0,0,1-2.049,1.867h-.041A2,2,0,0,1,29,48.867l-.064-1.437a1.882,1.882,0,0,1,.533-1.389,2.108,2.108,0,0,1,1.518-.64h.164a2.108,2.108,0,0,1,1.518.64A1.883,1.883,0,0,1,33.2,47.432Z" transform="translate(-27.866 -44.333)" fill="#fff"/>
        </g>
      </g>
      <g id="Group_4208" data-name="Group 4208" transform="translate(9.6 26.667)">
        <g id="Group_4207" data-name="Group 4207">
          <path id="Path_8855" data-name="Path 8855" d="M30.889,63.333H25.378A2.58,2.58,0,0,0,22.8,65.911v2.222a.533.533,0,0,0,1.067,0V65.911A1.513,1.513,0,0,1,25.378,64.4h5.511A1.512,1.512,0,0,1,32.4,65.911v2.222a.533.533,0,1,0,1.067,0V65.911A2.58,2.58,0,0,0,30.889,63.333Z" transform="translate(-22.8 -63.333)" fill="#fff"/>
        </g>
      </g>
      <g id="Group_4210" data-name="Group 4210" transform="translate(21.333 26.667)">
        <g id="Group_4209" data-name="Group 4209">
          <path id="Path_8856" data-name="Path 8856" d="M58.756,63.333H53.244a2.58,2.58,0,0,0-2.578,2.578v2.222a.533.533,0,1,0,1.067,0V65.911A1.513,1.513,0,0,1,53.244,64.4h5.511a1.512,1.512,0,0,1,1.511,1.511v2.222a.533.533,0,0,0,1.067,0V65.911A2.58,2.58,0,0,0,58.756,63.333Z" transform="translate(-50.667 -63.333)" fill="#fff"/>
        </g>
      </g>
      <g id="Group_4212" data-name="Group 4212" transform="translate(10.133)">
        <g id="Group_4211" data-name="Group 4211">
          <path id="Path_8857" data-name="Path 8857" d="M44.36,0H25.64a1.589,1.589,0,0,0-1.573,1.6v8a.533.533,0,0,0,1.067,0V3.2H44.867V16a.521.521,0,0,1-.507.533H26.16a.533.533,0,0,0,0,1.067h18.2A1.589,1.589,0,0,0,45.933,16V1.6A1.589,1.589,0,0,0,44.36,0Zm.507,2.133H25.133V1.6a.521.521,0,0,1,.507-.533H44.36a.521.521,0,0,1,.507.533Z" transform="translate(-24.067)" fill="#fff"/>
        </g>
      </g>
      <g id="Group_4214" data-name="Group 4214" transform="translate(28.8 6.8)">
        <g id="Group_4213" data-name="Group 4213">
          <path id="Path_8858" data-name="Path 8858" d="M68.933,16.15a.533.533,0,0,0-.533.533v7.6a.533.533,0,0,0,1.067,0v-7.6A.533.533,0,0,0,68.933,16.15Z" transform="translate(-68.4 -16.15)" fill="#fff"/>
        </g>
      </g>
      <g id="Group_4216" data-name="Group 4216" transform="translate(26.667 10.133)">
        <g id="Group_4215" data-name="Group 4215">
          <path id="Path_8859" data-name="Path 8859" d="M63.867,24.067a.533.533,0,0,0-.533.533v4.267a.533.533,0,1,0,1.067,0V24.6A.533.533,0,0,0,63.867,24.067Z" transform="translate(-63.333 -24.067)" fill="#fff"/>
        </g>
      </g>
      <g id="Group_4218" data-name="Group 4218" transform="translate(24.533 9.067)">
        <g id="Group_4217" data-name="Group 4217">
          <path id="Path_8860" data-name="Path 8860" d="M58.8,21.533a.533.533,0,0,0-.533.533V27.4a.533.533,0,1,0,1.067,0V22.067A.533.533,0,0,0,58.8,21.533Z" transform="translate(-58.267 -21.533)" fill="#fff"/>
        </g>
      </g>
      <g id="Group_4220" data-name="Group 4220" transform="translate(22.4 12.267)">
        <g id="Group_4219" data-name="Group 4219">
          <path id="Path_8861" data-name="Path 8861" d="M53.733,29.133a.533.533,0,0,0-.533.533V31.8a.533.533,0,0,0,1.067,0V29.667A.533.533,0,0,0,53.733,29.133Z" transform="translate(-53.2 -29.133)" fill="#fff"/>
        </g>
      </g>
      <g id="Group_4222" data-name="Group 4222" transform="translate(20.267 4.267)">
        <g id="Group_4221" data-name="Group 4221">
          <path id="Path_8862" data-name="Path 8862" d="M57.5,10.223a.533.533,0,0,0-.74.148L54.935,13.1,53.253,11.84a.533.533,0,0,0-.8.188l-2.077,4.154-2.03,1.524a.533.533,0,1,0,.64.853l2.133-1.6a.538.538,0,0,0,.16-.188l1.847-3.695,1.62,1.217a.533.533,0,0,0,.747-.107l.017-.024,2.133-3.2A.533.533,0,0,0,57.5,10.223Z" transform="translate(-48.133 -10.133)" fill="#fff"/>
        </g>
      </g>
      <g id="Group_4224" data-name="Group 4224" transform="translate(12.267 4.267)">
        <g id="Group_4223" data-name="Group 4223">
          <path id="Path_8863" data-name="Path 8863" d="M36.067,10.133h-6.4a.533.533,0,1,0,0,1.067h6.4a.533.533,0,0,0,0-1.067Z" transform="translate(-29.133 -10.133)" fill="#fff"/>
        </g>
      </g>
      <g id="Group_4226" data-name="Group 4226" transform="translate(20.8 4.267)">
        <g id="Group_4225" data-name="Group 4225">
          <path id="Path_8864" data-name="Path 8864" d="M51,10.133H49.933a.533.533,0,1,0,0,1.067H51a.533.533,0,1,0,0-1.067Z" transform="translate(-49.4 -10.133)" fill="#fff"/>
        </g>
      </g>
    </g>
  </g>
</svg>
