<svg xmlns="http://www.w3.org/2000/svg" xmlns:xlink="http://www.w3.org/1999/xlink" width="39" height="39" viewBox="0 0 39 39">
  <defs>
    <clipPath id="clip-path">
      <rect id="Rectangle_907" data-name="Rectangle 907" width="39" height="39" transform="translate(983 1643)" fill="#fff" stroke="#707070" stroke-width="1"/>
    </clipPath>
  </defs>
  <g id="icon8" transform="translate(-983 -1643)" clip-path="url(#clip-path)">
    <g id="_021-fountain-pen" data-name="021-fountain-pen" transform="translate(982.962 1643)">
      <path id="Path_8946" data-name="Path 8946" d="M21.87,16.09a.761.761,0,1,0,1.077,0A.761.761,0,0,0,21.87,16.09Zm0,0" fill="#fff"/>
      <path id="Path_8947" data-name="Path 8947" d="M35.563.393A21.572,21.572,0,0,0,31.53,2.641a73.694,73.694,0,0,0-10.2,8.6,85.844,85.844,0,0,0-10.3,12.246A3.043,3.043,0,0,0,7.39,26.831l-4.25,1.62a.762.762,0,0,0-.461.5L.07,38.019v.014a.762.762,0,0,0,.952.934l9.066-2.609a.761.761,0,0,0,.512-.491l1.415-4.247A3.046,3.046,0,0,0,15.549,28a85.86,85.86,0,0,0,12.245-10.3,73.713,73.713,0,0,0,8.6-10.2,21.554,21.554,0,0,0,2.248-4.032c.2-.522.815-2.11-.078-3s-2.481-.28-3-.079ZM9.279,35.005,3.425,36.69l3.756-3.756A.762.762,0,0,0,6.1,31.856L2.348,35.612l1.69-5.873L7.9,28.267l2.718,2.718Zm4.366-5.3a1.524,1.524,0,0,1-2.155,0L9.335,27.547a1.524,1.524,0,0,1,1.716-2.461c.427.2.423.331,2.593,2.461A1.526,1.526,0,0,1,13.645,29.7ZM34.975,6.887a73.121,73.121,0,0,1-8.258,9.742,85.413,85.413,0,0,1-11.848,10c-.144-.166-.034-.041-2.3-2.314-.051-.051-.1-.1-.159-.148a85.434,85.434,0,0,1,10-11.848A73.12,73.12,0,0,1,32.15,4.062c3.607-2.471,5.086-2.647,5.337-2.512C37.623,1.8,37.446,3.281,34.975,6.887Zm0,0" fill="#fff"/>
      <path id="Path_8948" data-name="Path 8948" d="M29.41,8.55l-5.386,5.386A.762.762,0,0,0,25.1,15.014l5.386-5.386A.762.762,0,0,0,29.41,8.55Zm0,0" fill="#fff"/>
    </g>
  </g>
</svg>
