<svg xmlns="http://www.w3.org/2000/svg" xmlns:xlink="http://www.w3.org/1999/xlink" width="33.504" height="33.504" viewBox="0 0 33.504 33.504">
  <defs>
    <clipPath id="clip-path">
      <rect id="Rectangle_898" data-name="Rectangle 898" width="33.504" height="33.504" transform="translate(420 1865)" fill="#fff" stroke="#707070" stroke-width="1"/>
    </clipPath>
  </defs>
  <g id="icon18" transform="translate(-420 -1865)" clip-path="url(#clip-path)">
    <g id="_011-gif" data-name="011-gif" transform="translate(420 1865)">
      <g id="Group_4310" data-name="Group 4310" transform="translate(4.823 5.799)">
        <g id="Group_4309" data-name="Group 4309">
          <path id="Path_8914" data-name="Path 8914" d="M7.626,8.655v.939H8.27v.6a.656.656,0,0,1-.336.081c-.778,0-1.14-.456-1.14-1.274,0-.791.443-1.261,1.033-1.261a1.011,1.011,0,0,1,.751.3l.63-.711A1.947,1.947,0,0,0,7.814,6.75a2.144,2.144,0,0,0-2.2,2.293A2.055,2.055,0,0,0,7.786,11.27a2.457,2.457,0,0,0,1.5-.537V8.655Z" transform="translate(-5.615 -6.75)" fill="#fff"/>
        </g>
      </g>
      <g id="Group_4312" data-name="Group 4312" transform="translate(9.34 5.882)">
        <g id="Group_4311" data-name="Group 4311">
          <rect id="Rectangle_899" data-name="Rectangle 899" width="1.153" height="4.358" fill="#fff"/>
        </g>
      </g>
      <g id="Group_4314" data-name="Group 4314" transform="translate(11.457 5.88)">
        <g id="Group_4313" data-name="Group 4313">
          <path id="Path_8915" data-name="Path 8915" d="M16.179,7.81V6.845H13.337V11.2H14.49v-1.6h1.448V8.641H14.49V7.81Z" transform="translate(-13.337 -6.845)" fill="#fff"/>
        </g>
      </g>
      <g id="Group_4316" data-name="Group 4316" transform="translate(2.577 9.02)">
        <g id="Group_4315" data-name="Group 4315">
          <rect id="Rectangle_900" data-name="Rectangle 900" width="1.289" height="1.289" fill="#fff"/>
        </g>
      </g>
      <g id="Group_4318" data-name="Group 4318">
        <g id="Group_4317" data-name="Group 4317">
          <path id="Path_8916" data-name="Path 8916" d="M33.315,6.632,26.872.189A.641.641,0,0,0,26.416,0H9.665A3.225,3.225,0,0,0,6.443,3.222H3.222A3.225,3.225,0,0,0,0,6.443V9.665a3.225,3.225,0,0,0,3.222,3.222H6.443V27.705a3.225,3.225,0,0,0,3.222,3.222H11.6a.644.644,0,1,0,0-1.289H9.665a1.935,1.935,0,0,1-1.933-1.933V12.886H19.973a3.225,3.225,0,0,0,3.222-3.222V6.443a3.225,3.225,0,0,0-3.222-3.222H7.732A1.935,1.935,0,0,1,9.665,1.289H25.128V5.154a3.225,3.225,0,0,0,3.222,3.222h3.866V27.705a1.935,1.935,0,0,1-1.933,1.933H28.349a.644.644,0,1,0,0,1.289h1.933A3.225,3.225,0,0,0,33.5,27.705V7.087A.643.643,0,0,0,33.315,6.632ZM19.973,4.51a1.935,1.935,0,0,1,1.933,1.933V9.665A1.935,1.935,0,0,1,19.973,11.6H3.222A1.935,1.935,0,0,1,1.289,9.665V6.443A1.935,1.935,0,0,1,3.222,4.51Zm8.376,2.577a1.935,1.935,0,0,1-1.933-1.933v-3.6l5.532,5.532Z" fill="#fff"/>
        </g>
      </g>
      <g id="Group_4320" data-name="Group 4320" transform="translate(12.886 20.618)">
        <g id="Group_4319" data-name="Group 4319">
          <path id="Path_8917" data-name="Path 8917" d="M25.953,24H18.222A3.225,3.225,0,0,0,15,27.222v6.443a3.225,3.225,0,0,0,3.222,3.222h7.732a3.225,3.225,0,0,0,3.222-3.222V27.222A3.225,3.225,0,0,0,25.953,24Zm1.933,9.665A1.935,1.935,0,0,1,25.953,35.6H18.222a1.935,1.935,0,0,1-1.933-1.933V27.222a1.935,1.935,0,0,1,1.933-1.933h7.732a1.935,1.935,0,0,1,1.933,1.933Z" transform="translate(-15 -24)" fill="#fff"/>
        </g>
      </g>
      <g id="Group_4322" data-name="Group 4322" transform="translate(16.752 23.839)">
        <g id="Group_4321" data-name="Group 4321">
          <path id="Path_8918" data-name="Path 8918" d="M19.5,27.75v2.577h1.289V29.039h1.289V27.75Z" transform="translate(-19.5 -27.75)" fill="#fff"/>
        </g>
      </g>
      <g id="Group_4324" data-name="Group 4324" transform="translate(16.752 27.705)">
        <g id="Group_4323" data-name="Group 4323">
          <path id="Path_8919" data-name="Path 8919" d="M20.789,33.539V32.25H19.5v2.577h2.577V33.539Z" transform="translate(-19.5 -32.25)" fill="#fff"/>
        </g>
      </g>
      <g id="Group_4326" data-name="Group 4326" transform="translate(20.618 23.839)">
        <g id="Group_4325" data-name="Group 4325">
          <path id="Path_8920" data-name="Path 8920" d="M24,27.75v1.289h1.289v1.289h1.289V27.75Z" transform="translate(-24 -27.75)" fill="#fff"/>
        </g>
      </g>
      <g id="Group_4328" data-name="Group 4328" transform="translate(20.618 27.705)">
        <g id="Group_4327" data-name="Group 4327">
          <path id="Path_8921" data-name="Path 8921" d="M25.289,32.25v1.289H24v1.289h2.577V32.25Z" transform="translate(-24 -32.25)" fill="#fff"/>
        </g>
      </g>
    </g>
  </g>
</svg>
