<svg xmlns="http://www.w3.org/2000/svg" xmlns:xlink="http://www.w3.org/1999/xlink" width="34" height="32" viewBox="0 0 34 32">
  <defs>
    <clipPath id="clip-path">
      <rect id="Rectangle_859" data-name="Rectangle 859" width="34" height="32" transform="translate(139 1765)" fill="#fff" stroke="#707070" stroke-width="1"/>
    </clipPath>
  </defs>
  <g id="icon13" transform="translate(-139 -1765)" clip-path="url(#clip-path)">
    <g id="_004-ebook" data-name="004-ebook" transform="translate(140.625 1765)">
      <path id="Path_8872" data-name="Path 8872" d="M28.719,3.585h-.651V3.008A3.014,3.014,0,0,0,25.061,0h0L5.077.027l-.439,0A7.335,7.335,0,0,0,1.731.376,2.923,2.923,0,0,0,.035,3.13c0,.01,0,.021,0,.031v26.09c0,.033,0,.065,0,.1s0,.064,0,.1v0A2.7,2.7,0,0,0,2.947,32H25.086a3,3,0,0,0,2.976-3.009l0-4.392.005-9.7h.655a2,2,0,0,0,2-2V5.584A2,2,0,0,0,28.719,3.585ZM4.6.969V26.661H2.947a3.016,3.016,0,0,0-1.969.652V3.177C1.124,1.055,2.452.951,4.6.969ZM29.774,12.9a1.056,1.056,0,0,1-1.055,1.054H19.374a.472.472,0,0,0,0,.945H27.12l0,9.7a2.065,2.065,0,0,1-2.063,2.063H15.115a.472.472,0,1,0,0,.945h9.937a3,3,0,0,0,2.064-.822v2.207a2.05,2.05,0,0,1-2.031,2.064H2.947A1.752,1.752,0,0,1,.978,29.436v-.173a1.786,1.786,0,0,1,1.969-1.658H4.922a.466.466,0,0,0,.31,0h7.72a.472.472,0,0,0,0-.945h-7.4V.971L25.061.945a2.069,2.069,0,0,1,2.063,2.063v.578h-17.1a2,2,0,0,0-2,2V12.9a2,2,0,0,0,2,2h7.182a.472.472,0,0,0,0-.945H10.027A1.056,1.056,0,0,1,8.972,12.9V5.584A1.056,1.056,0,0,1,10.027,4.53H28.719a1.056,1.056,0,0,1,1.055,1.054Zm0,0" fill="#fff" fill-rule="evenodd"/>
      <path id="Path_8873" data-name="Path 8873" d="M20.1,7.4a1.545,1.545,0,0,0-1.171.482,1.72,1.72,0,0,0-.457,1.229,1.739,1.739,0,0,0,.459,1.244,1.634,1.634,0,0,0,2.333-.005,1.735,1.735,0,0,0,.455-1.228,1.736,1.736,0,0,0-.455-1.235A1.532,1.532,0,0,0,20.1,7.4Zm.535,2.421a.7.7,0,0,1-1.081,0,1.125,1.125,0,0,1-.207-.707,1.061,1.061,0,0,1,.214-.691.7.7,0,0,1,1.075,0,1.1,1.1,0,0,1,.209.7A1.1,1.1,0,0,1,20.637,9.819Zm0,0" fill="#fff" fill-rule="evenodd"/>
      <path id="Path_8874" data-name="Path 8874" d="M12.295,10.166a.393.393,0,0,0-.28-.117h-.753V9.541h.65a.388.388,0,0,0,.287-.115.379.379,0,0,0,0-.542.392.392,0,0,0-.285-.117h-.656V8.28h.737a.372.372,0,0,0,.269-.115l0,0,0,0a.407.407,0,0,0,.108-.276.372.372,0,0,0-.112-.271.361.361,0,0,0-.269-.115H10.838a.4.4,0,0,0-.3.131.416.416,0,0,0-.124.3V10.4a.406.406,0,0,0,.126.3.417.417,0,0,0,.3.122h1.171a.4.4,0,0,0,.281-.11.373.373,0,0,0,.114-.271.368.368,0,0,0-.032-.156A.437.437,0,0,0,12.295,10.166Zm0,0" fill="#fff" fill-rule="evenodd"/>
      <path id="Path_8875" data-name="Path 8875" d="M27.453,9.058l.889-.872a.439.439,0,0,0,.124-.3.409.409,0,0,0-.122-.294.4.4,0,0,0-.3-.122.446.446,0,0,0-.321.156l-.975,1.031V7.885a.405.405,0,0,0-.124-.3.419.419,0,0,0-.6,0,.4.4,0,0,0-.126.292v2.551a.436.436,0,0,0,.427.43.4.4,0,0,0,.3-.131.428.428,0,0,0,.121-.3V9.493l1.1,1.208a.46.46,0,0,0,.333.156.4.4,0,0,0,.3-.122.424.424,0,0,0,0-.59Zm0,0" fill="#fff" fill-rule="evenodd"/>
      <path id="Path_8876" data-name="Path 8876" d="M23.732,7.442a1.546,1.546,0,0,0-1.173.482A1.729,1.729,0,0,0,22.1,9.155a1.744,1.744,0,0,0,.459,1.241,1.538,1.538,0,0,0,1.166.487,1.52,1.52,0,0,0,1.167-.492,1.728,1.728,0,0,0,.457-1.228,1.737,1.737,0,0,0-.457-1.235A1.528,1.528,0,0,0,23.732,7.442Zm.533,2.421a.7.7,0,0,1-1.079,0,1.116,1.116,0,0,1-.209-.707,1.055,1.055,0,0,1,.214-.689.7.7,0,0,1,1.077,0,1.112,1.112,0,0,1,.207.7A1.1,1.1,0,0,1,24.266,9.864Zm0,0" fill="#fff" fill-rule="evenodd"/>
      <path id="Path_8877" data-name="Path 8877" d="M17.56,9a.588.588,0,0,0,.113-.092A.627.627,0,0,0,17.8,8.7a.884.884,0,0,0,.048-.3.833.833,0,0,0-.285-.657,1.11,1.11,0,0,0-.749-.245h-.764a.425.425,0,0,0-.3.121.4.4,0,0,0-.126.306v2.462a.416.416,0,0,0,.126.312.432.432,0,0,0,.313.122h.985a1.076,1.076,0,0,0,.769-.285.966.966,0,0,0,.3-.726A.782.782,0,0,0,17.56,9Zm-1.095-.746h.283a.26.26,0,0,1,.189.074.236.236,0,0,1,.076.174.219.219,0,0,1-.08.17.283.283,0,0,1-.195.073h-.275v-.49Zm.7,1.722a.3.3,0,0,1-.213.083H16.46V9.5h.5a.293.293,0,0,1,.292.292A.257.257,0,0,1,17.165,9.98Zm0,0" fill="#fff" fill-rule="evenodd"/>
      <path id="Path_8878" data-name="Path 8878" d="M14.29,8.856h-.572a.382.382,0,0,0,0,.763h.572a.382.382,0,0,0,0-.763Zm0,0" fill="#fff" fill-rule="evenodd"/>
    </g>
  </g>
</svg>
