<svg xmlns="http://www.w3.org/2000/svg" width="476.773" height="301.196" viewBox="0 0 476.773 301.196">
  <g id="IMG" transform="translate(-139 -847.715)">
    <g id="Group_4062" data-name="Group 4062" transform="translate(-2796.773 503.986)">
      <g id="Group_4031" data-name="Group 4031" transform="translate(2935.773 450.516)">
        <g id="Group_4030" data-name="Group 4030">
          <path id="Path_8471" data-name="Path 8471" d="M2985.842,440.2c4.587,9.886,5.786,20.86,4.487,31.618a60.8,60.8,0,0,1-3.634,15.317c-.321.794-.552.053-.353-.441a57.728,57.728,0,0,0,3.389-14.114,57.052,57.052,0,0,0-4.4-31.395c-.135-.289.321-1.4.514-.985Z" transform="translate(-2928.704 -436.761)" fill="#e76f50"/>
          <path id="Path_8472" data-name="Path 8472" d="M2983.662,441.917a2.4,2.4,0,1,0,1.193-3.182A2.4,2.4,0,0,0,2983.662,441.917Z" transform="translate(-2928.969 -436.989)" fill="#e76f50"/>
          <path id="Path_8473" data-name="Path 8473" d="M2975.189,441.176a2.4,2.4,0,1,0,1.193-3.182A2.4,2.4,0,0,0,2975.189,441.176Z" transform="translate(-2930.178 -437.094)" fill="#e76f50"/>
          <path id="Path_8474" data-name="Path 8474" d="M2968.366,440.578a2.4,2.4,0,1,0,1.192-3.182A2.4,2.4,0,0,0,2968.366,440.578Z" transform="translate(-2931.152 -437.18)" fill="#e76f50"/>
          <path id="Path_8475" data-name="Path 8475" d="M2959.668,452.833a2.4,2.4,0,1,0,1.193-3.184A2.4,2.4,0,0,0,2959.668,452.833Z" transform="translate(-2932.393 -435.431)" fill="#e76f50"/>
          <path id="Path_8476" data-name="Path 8476" d="M2935.989,463.6a2.4,2.4,0,1,0,1.193-3.182A2.4,2.4,0,0,0,2935.989,463.6Z" transform="translate(-2935.773 -433.893)" fill="#e76f50"/>
          <path id="Path_8477" data-name="Path 8477" d="M2943.587,460.148a2.4,2.4,0,1,0,1.192-3.182A2.4,2.4,0,0,0,2943.587,460.148Z" transform="translate(-2934.689 -434.387)" fill="#e76f50"/>
          <path id="Path_8478" data-name="Path 8478" d="M2967.757,447.8a2.4,2.4,0,1,0,1.193-3.184A2.4,2.4,0,0,0,2967.757,447.8Z" transform="translate(-2931.239 -436.15)" fill="#e76f50"/>
          <path id="Path_8479" data-name="Path 8479" d="M2965.607,453.4a2.4,2.4,0,1,0,1.192-3.182A2.4,2.4,0,0,0,2965.607,453.4Z" transform="translate(-2931.546 -435.35)" fill="#e76f50"/>
          <path id="Path_8480" data-name="Path 8480" d="M2952.225,458.53a2.4,2.4,0,1,0,1.192-3.184A2.4,2.4,0,0,0,2952.225,458.53Z" transform="translate(-2933.455 -434.618)" fill="#e76f50"/>
          <path id="Path_8481" data-name="Path 8481" d="M2977.548,439.608a89.32,89.32,0,0,1,9,33.047,72.433,72.433,0,0,1-.12,15.125c-.09.673-1.008.928-.9.1a71.043,71.043,0,0,0,.126-14.812,88.509,88.509,0,0,0-8.931-32.766c-.253-.5.481-1.388.826-.7Z" transform="translate(-2929.936 -436.869)" fill="#e76f50"/>
          <path id="Path_8482" data-name="Path 8482" d="M2970,445.97c6.023,9.077,10.972,18.983,13.581,29.6a43.186,43.186,0,0,1,1.626,12.035c-.018.407-.659,1.3-.62.489a41.574,41.574,0,0,0-1.507-11.344c-2.55-10.632-7.518-20.579-13.537-29.649-.218-.329.272-1.412.457-1.132Z" transform="translate(-2930.961 -435.932)" fill="#e76f50"/>
          <path id="Path_8483" data-name="Path 8483" d="M2967.939,453.936a268.807,268.807,0,0,0,13.123,26,99.426,99.426,0,0,0,5.329,8.447l-.37.528a29.891,29.891,0,0,0,.274-7.749,72.251,72.251,0,0,0-5.978-22.782,129.517,129.517,0,0,0-9.8-18.477c-.177-.28.323-1.275.406-1.146,6.051,9.615,11.27,19.947,14.078,31.006a50.474,50.474,0,0,1,1.764,16.484,17.17,17.17,0,0,1-.406,2.754c-.01.041-.233.717-.37.528a98.878,98.878,0,0,1-5.329-8.448,268.629,268.629,0,0,1-13.124-26,1.587,1.587,0,0,1,.407-1.145Z" transform="translate(-2931.243 -436.956)" fill="#e76f50"/>
          <path id="Path_8484" data-name="Path 8484" d="M2954.355,457.533c4.847,10.247,11.66,20.77,22.022,26.144,3.178,1.649,7.232,3.19,10.908,2.823l-.328,1.214c-1.819.171-3.844-.865-5.324-1.775-5.443-3.346-9.149-9.223-12.017-14.759a113.276,113.276,0,0,1-7.455-18.978c-.088-.286.374-1.362.487-.993,2.983,9.726,6.677,19.9,13.183,27.889,2.483,3.05,5.715,6.2,9.66,7.181a5.51,5.51,0,0,0,1.794.222c.182-.016.048,1.176-.328,1.214a17.488,17.488,0,0,1-7.153-1.2c-6.25-2.162-11.531-6.572-15.753-11.563a73.9,73.9,0,0,1-10.121-16.276c-.154-.326.348-1.3.424-1.142Z" transform="translate(-2933.186 -435.188)" fill="#e76f50"/>
          <path id="Path_8485" data-name="Path 8485" d="M2945.845,458.456c8.478,13.973,22.325,27.968,39.836,28.106a16.962,16.962,0,0,0,3.017-.181.257.257,0,0,1,.26.136c4.443,7.634,9.907,14.72,15.239,21.745q5.121,6.748,10.406,13.374c.288.36-.241,1.456-.647.95-8.228-10.273-16.46-20.716-23.594-31.786q-.661-1.025-1.3-2.067a8.222,8.222,0,0,1-.523-1.126c-.133-.071-.661.082-.809.1a25.408,25.408,0,0,1-4.149,0,38.438,38.438,0,0,1-15.759-4.93c-9.65-5.363-16.967-14.042-22.626-23.369-.24-.394.318-1.49.647-.948Z" transform="translate(-2934.436 -434.164)" fill="#e76f50"/>
          <path id="Path_8486" data-name="Path 8486" d="M2938.527,461.769c5.249,9.249,12.848,16.964,22.63,21.337a49.674,49.674,0,0,0,20.382,4.247,37.242,37.242,0,0,0,6.019-.447c.489-.082.287,1.143-.148,1.216-12.98,2.185-27.324-2.169-37.333-10.5a53.582,53.582,0,0,1-12.158-14.9c-.2-.361.316-1.473.608-.96Z" transform="translate(-2935.473 -433.689)" fill="#e76f50"/>
        </g>
        <path id="Path_8487" data-name="Path 8487" d="M2987.289,488.158c7.2-14.222,9.361-24.171-10.362-12.291s-4.852,13.579,1.817,12.677S2987.289,488.158,2987.289,488.158Z" transform="translate(-2931.305 -432.412)" fill="#e76f50"/>
      </g>
      <path id="Path_8488" data-name="Path 8488" d="M3093.376,490.365a159.868,159.868,0,0,1,20.561,85.289c-.219,5.37.435,11.022-3.837,15a27.257,27.257,0,0,1-7.132,4.381,174.49,174.49,0,0,1-22.563,8.757c-6.93,2.151-13.822,2.647-21.034,3.452-8.536.952-17.156.661-25.738.367-10.743-.367-21.579-.746-32.006-3.356s-20.551-7.656-27.413-15.928c-4.779-5.762-7.852-13.561-5.88-20.783a24.2,24.2,0,0,1,6.182-10.08,41.956,41.956,0,0,1,14.459-9.83c8.077-3.288,18.573-5.342,21.094-13.691,2.1-6.958-2.928-13.785-6.624-20.043s-5.552-15.728.568-19.65c4.779-3.061,11.531-.5,16.516-3.218,6.737-3.67,5.681-13.477,3.967-20.955q-3.195-13.944-5.018-28.154c-.978-7.638-.513-17.384,6.57-20.407,7.325-3.124,14.913,3.925,18.905,10.816a79.456,79.456,0,0,1,8.674,22.026c1.347,5.879,2.1,12.1,5.372,17.164,5.992,9.267,12.156,3.795,20.1,5.488C3085.678,478.409,3090.049,484.524,3093.376,490.365Z" transform="translate(4.561 10.992)" fill="#2a9d8e"/>
      <g id="Group_4033" data-name="Group 4033" transform="translate(3056.877 404.744)">
        <path id="Path_8489" data-name="Path 8489" d="M3102.77,468.053a170.964,170.964,0,0,1,21.21,45.03,174.544,174.544,0,0,1,7.541,48.876,168.107,168.107,0,0,1-2.031,27.927c-.316,2.01,2.775,2.717,3.092.7a173.954,173.954,0,0,0,.5-50.609,177.579,177.579,0,0,0-13.892-48.7,173.08,173.08,0,0,0-13.76-24.952c-1.129-1.7-3.795.021-2.66,1.726Z" transform="translate(-3033.083 -387.347)" fill="#264653"/>
        <path id="Path_8490" data-name="Path 8490" d="M3059.148,493.247s17.888,19.607,29.808,21.97c17.815,3.531,35.447-7.914,26.215-36.712,0,0,9.648,6.88,21.656-1.669,12.172-8.666,12.55-24.04,2.357-39.621-10.408-15.909-21-20.763-21-20.763,8.435,14.978-5.353,32.539-6.879,30.868s4.977-27.114-.962-34.843-17.713-9.042-17.713-9.042c4.744,7.361,4.7,28.1,1.7,27.969s1.912-11.129-4.453-24.11-19.64-7.021-24.25-6.135-9.738-4.034-9.738-4.034-15.507,27.367-7.677,34.439,23.08,12.449,20.987,14.385-23.589-6.925-25.774-12.753c0,0-4.321,18.4.912,23.033s28.61,7.6,29.138,10.3-22.861.581-29.551-4.644c0,0,5.968,23.47,15.448,26.867s31.9-8.816,31.27-6.293S3070.7,496.372,3059.148,493.247Zm15.957-17.833c1.051,2.146-2.081,4.635-4.641,4.233s-1.951-3.4.193-4.262C3070.657,475.384,3074.053,473.267,3075.1,475.414Zm44.092-21.539c-.96-1.642,1.577-3.817,2.8-7.446,1.184-3.515,2.615-6.744,5.346-7.157a4.185,4.185,0,0,1,3.429,4c.439,4.609-2.741,6.577-5.238,10.07S3120.554,456.193,3119.2,453.875Zm-14.322-7.412c-2.229,2.892-3.9,1.3-4.578-1.177-.662-2.42,2.075-12.074,2.3-13.983s2.641-1.615,3.819,1.833S3106.858,443.891,3104.875,446.463Zm7.253,13.435c.2-1.846,1.827-2.3,3.018-2.856,1.474-.691,3.134.484,3.356,2.487.219,1.975-3.793,3.7-5.452,3.971S3111.927,461.745,3112.127,459.9ZM3069,455.573c-4.728-.266-12.1-1.9-9.651-3.066a10.374,10.374,0,0,1,3.881-1.179s8.741-1.01,10.482.814S3073.727,455.839,3069,455.573Zm14.154,20.186c-3.657,1.015-5.966-2.279-4.2-3.123,0,0,11.91-6,13.038-3.316S3086.812,474.744,3083.155,475.759Z" transform="translate(-3041.752 -397.124)" fill="#264653"/>
        <g id="Group_4032" data-name="Group 4032" transform="translate(5.398)">
          <path id="Path_8491" data-name="Path 8491" d="M3058.676,446.127a.866.866,0,0,0-.455.378,66.978,66.978,0,0,1-11.377-3.482c-.747-.3-.244-1.448.5-1.145a65.888,65.888,0,0,0,12.605,3.7C3059.562,445.728,3059.137,445.906,3058.676,446.127Z" transform="translate(-3046.476 -390.744)" fill="#325e6b"/>
          <path id="Path_8492" data-name="Path 8492" d="M3074.944,465.351q-1.87.593-3.767,1.1a2.017,2.017,0,0,0-.191-.62,1.75,1.75,0,0,0-.378-.52q1.843-.489,3.66-1.057A2.254,2.254,0,0,0,3074.944,465.351Z" transform="translate(-3043.032 -387.543)" fill="#325e6b"/>
          <path id="Path_8493" data-name="Path 8493" d="M3058.5,467.537a87.623,87.623,0,0,0,8.789-1.31,2.817,2.817,0,0,0-.777,1.425q-3.906.739-7.886,1.128A.625.625,0,0,1,3058.5,467.537Z" transform="translate(-3044.837 -387.262)" fill="#325e6b"/>
          <path id="Path_8494" data-name="Path 8494" d="M3116.653,434.639l-.01,0c.406-1.5.744-3.012,1-4.547a.625.625,0,0,1,1.234.194c-.272,1.6-.626,3.189-1.052,4.754A3.918,3.918,0,0,0,3116.653,434.639Z" transform="translate(-3036.462 -392.491)" fill="#325e6b"/>
          <path id="Path_8495" data-name="Path 8495" d="M3114.053,480.431c-2.088-2.258-4.289-4.638-6.524-7.054a36.2,36.2,0,0,1-19.506,23.493c-.727.341-1.167-.83-.441-1.17a34.855,34.855,0,0,0,18.935-23.417c-2.414-2.608-4.852-5.24-7.222-7.8a88.68,88.68,0,0,1-8.9,5.143,1.585,1.585,0,0,0-.095-.311,1.105,1.105,0,0,0-.834-.615,87.39,87.39,0,0,0,8.973-5.146c-1.209-1.3-2.4-2.583-3.548-3.822a.608.608,0,0,1-.271-.291c-2.284-2.459-4.425-4.759-6.322-6.791a73.965,73.965,0,0,1-16,1.787,1.333,1.333,0,0,0,.346-1.255,73.41,73.41,0,0,0,14.672-1.587c-1.027-1.1-1.972-2.108-2.81-3a86.8,86.8,0,0,1-8.224-10.858c-6.852.519-12.661-3.772-17.81-7.8a.625.625,0,0,1,.778-.978c4.716,3.69,10.014,7.714,16.233,7.565-8.523-13.038-17.81-30.629-21.825-38.418.342-.632.542-.986.542-.986l.077.071,0,0,.093.083,0,0c.188.169.521.458.97.81,4.142,7.989,13.066,24.779,21.218,37.322a25.344,25.344,0,0,0,.113-18.336.626.626,0,0,1,1.17-.441,26.657,26.657,0,0,1-.31,19.719.605.605,0,0,1-.191.253,86.5,86.5,0,0,0,8.253,10.963c2.459,2.616,5.821,6.222,9.6,10.29a72.275,72.275,0,0,0,4.168-10.83,2.254,2.254,0,0,0,1.039.89,73.128,73.128,0,0,1-4.3,10.919c2.72,2.928,5.629,6.066,8.556,9.226a49.024,49.024,0,0,0,6.036-4.617,1.174,1.174,0,0,0,.657.047,8.674,8.674,0,0,0,1.644-.48,49.887,49.887,0,0,1-7.477,5.979c3.306,3.57,6.614,7.147,9.678,10.462h0a12.246,12.246,0,0,1-1.712-.946l-.012-.009c.113.352.218.7.323,1.047C3113.883,479.846,3113.97,480.14,3114.053,480.431Z" transform="translate(-3045.451 -397.124)" fill="#325e6b"/>
          <path id="Path_8496" data-name="Path 8496" d="M3108.31,450.564q1.141-1.4,2.178-2.878a3.184,3.184,0,0,0,1.036.7q-1.236,1.764-2.617,3.419A3.267,3.267,0,0,0,3108.31,450.564Z" transform="translate(-3037.651 -389.908)" fill="#1f7264"/>
          <path id="Path_8497" data-name="Path 8497" d="M3097.437,428.357a2.364,2.364,0,0,0-1.21-.746,72.183,72.183,0,0,0-.372-11.973.625.625,0,0,1,1.244-.126A73.254,73.254,0,0,1,3097.437,428.357Z" transform="translate(-3039.429 -394.577)" fill="#325e6b"/>
        </g>
      </g>
      <g id="Group_4035" data-name="Group 4035" transform="translate(3225.999 357.893)">
        <path id="Path_8498" data-name="Path 8498" d="M3224.354,427.053a171.005,171.005,0,0,0-21.211,45.03,174.5,174.5,0,0,0-7.54,48.876,168.026,168.026,0,0,0,2.029,27.927c.318,2.01-2.774,2.717-3.092.7a173.955,173.955,0,0,1-.5-50.609,177.51,177.51,0,0,1,13.892-48.7,172.891,172.891,0,0,1,13.76-24.952c1.128-1.7,3.795.021,2.66,1.726Z" transform="translate(-3189.369 -346.347)" fill="#264653"/>
        <path id="Path_8499" data-name="Path 8499" d="M3245.529,441.46c-.635-2.523,21.789,9.69,31.269,6.293s15.449-26.868,15.449-26.868c-6.691,5.224-30.08,7.35-29.552,4.644s23.907-5.664,29.139-10.3.911-23.033.911-23.033c-2.184,5.828-23.681,14.69-25.773,12.753s13.156-7.312,20.986-14.385-7.677-34.439-7.677-34.439-5.129,4.918-9.738,4.034-17.885-6.846-24.25,6.135-1.448,23.981-4.452,24.11-3.044-20.608,1.7-27.969c0,0-11.774,1.313-17.713,9.042s.563,33.172-.962,34.843-15.315-15.891-6.878-30.868c0,0-10.589,4.854-21,20.763-10.193,15.581-9.816,30.955,2.356,39.621,12.008,8.55,21.657,1.67,21.657,1.67-9.233,28.8,8.4,40.243,26.214,36.712,11.92-2.363,29.809-21.97,29.809-21.97C3265.479,455.372,3246.163,443.983,3245.529,441.46Zm19.989-7.076c2.144.863,2.752,3.86.193,4.262s-5.693-2.087-4.642-4.233S3265.518,434.384,3265.518,434.384Zm-54.876-22.045c-2.5-3.492-5.677-5.461-5.238-10.07a4.186,4.186,0,0,1,3.429-4c2.73.413,4.162,3.642,5.345,7.157,1.224,3.629,3.761,5.8,2.8,7.446C3215.621,415.193,3213.139,415.831,3210.642,412.339Zm19.114-20.2c1.179-3.448,3.593-3.741,3.819-1.833s2.965,11.563,2.3,13.983c-.677,2.48-2.347,4.069-4.577,1.177C3229.317,402.891,3228.578,395.584,3229.756,392.136Zm-6.631,30.364c-1.659-.267-5.67-2-5.452-3.971.221-2,1.882-3.178,3.356-2.487,1.191.558,2.818,1.01,3.018,2.856S3224.785,422.768,3223.125,422.5Zm39.337-11.359c1.74-1.824,10.482-.814,10.482-.814a10.381,10.381,0,0,1,3.882,1.179c2.448,1.164-4.925,2.8-9.652,3.066S3260.721,412.964,3262.462,411.141Zm-18.282,17.178c1.129-2.681,13.038,3.316,13.038,3.316,1.769.844-.542,4.138-4.2,3.123S3243.051,431,3244.179,428.32Z" transform="translate(-3189.752 -356.124)" fill="#264653"/>
        <g id="Group_4034" data-name="Group 4034" transform="translate(16.844)">
          <path id="Path_8500" data-name="Path 8500" d="M3266.11,405.127a.857.857,0,0,1,.454.378,66.989,66.989,0,0,0,11.378-3.482c.746-.3.244-1.448-.5-1.145a65.923,65.923,0,0,1-12.606,3.7C3265.223,404.728,3265.647,404.906,3266.11,405.127Z" transform="translate(-3195.88 -349.744)" fill="#325e6b"/>
          <path id="Path_8501" data-name="Path 8501" d="M3248.7,424.351q1.871.593,3.768,1.1a1.987,1.987,0,0,1,.189-.62,1.775,1.775,0,0,1,.378-.52q-1.841-.489-3.659-1.057A2.266,2.266,0,0,1,3248.7,424.351Z" transform="translate(-3198.183 -346.543)" fill="#325e6b"/>
          <path id="Path_8502" data-name="Path 8502" d="M3265.77,426.537a87.651,87.651,0,0,1-8.789-1.31,2.807,2.807,0,0,1,.776,1.425q3.906.739,7.887,1.128A.625.625,0,0,0,3265.77,426.537Z" transform="translate(-3197.001 -346.262)" fill="#325e6b"/>
          <path id="Path_8503" data-name="Path 8503" d="M3206.729,393.639l.01,0c-.4-1.5-.743-3.012-1-4.547a.625.625,0,0,0-1.234.194c.272,1.6.626,3.189,1.054,4.754A3.918,3.918,0,0,1,3206.729,393.639Z" transform="translate(-3204.492 -351.491)" fill="#325e6b"/>
          <path id="Path_8504" data-name="Path 8504" d="M3216.736,439.431c2.086-2.258,4.287-4.638,6.522-7.054a36.2,36.2,0,0,0,19.508,23.493c.727.341,1.166-.83.44-1.17a34.858,34.858,0,0,1-18.935-23.417c2.414-2.608,4.853-5.241,7.223-7.8a88.711,88.711,0,0,0,8.9,5.143,1.767,1.767,0,0,1,.095-.311,1.108,1.108,0,0,1,.835-.615,87.267,87.267,0,0,1-8.973-5.146c1.208-1.3,2.4-2.582,3.547-3.822a.61.61,0,0,0,.271-.291c2.284-2.459,4.426-4.759,6.321-6.791a73.978,73.978,0,0,0,16,1.787,1.337,1.337,0,0,1-.346-1.255,73.419,73.419,0,0,1-14.672-1.587c1.028-1.1,1.972-2.108,2.81-3a86.822,86.822,0,0,0,8.224-10.858c6.853.519,12.662-3.772,17.81-7.8a.625.625,0,0,0-.778-.978c-4.715,3.69-10.014,7.714-16.232,7.565,8.522-13.038,17.809-30.629,21.823-38.418-.342-.632-.542-.986-.542-.986l-.077.071,0,0-.092.083,0,0c-.187.169-.521.458-.971.81-4.142,7.989-13.066,24.779-21.218,37.322a25.358,25.358,0,0,1-.113-18.336.625.625,0,0,0-1.169-.441,26.646,26.646,0,0,0,.31,19.719.6.6,0,0,0,.191.253,86.5,86.5,0,0,1-8.254,10.963c-2.458,2.616-5.821,6.222-9.6,10.29a72.461,72.461,0,0,1-4.167-10.83,2.248,2.248,0,0,1-1.039.89,73.235,73.235,0,0,0,4.3,10.919c-2.718,2.928-5.628,6.065-8.556,9.226a49.09,49.09,0,0,1-6.036-4.617,1.173,1.173,0,0,1-.657.047,8.7,8.7,0,0,1-1.644-.48A49.958,49.958,0,0,0,3225.27,428c-3.306,3.57-6.614,7.147-9.677,10.462h0a12.145,12.145,0,0,0,1.712-.946l.014-.009c-.113.352-.219.7-.323,1.047Q3216.86,438.994,3216.736,439.431Z" transform="translate(-3202.908 -356.124)" fill="#325e6b"/>
          <path id="Path_8505" data-name="Path 8505" d="M3215.193,409.564q-1.14-1.4-2.177-2.878a3.188,3.188,0,0,1-1.037.7q1.236,1.764,2.618,3.419A3.28,3.28,0,0,1,3215.193,409.564Z" transform="translate(-3203.423 -348.908)" fill="#1f7264"/>
          <path id="Path_8506" data-name="Path 8506" d="M3225.88,387.357a2.362,2.362,0,0,1,1.21-.746,72.13,72.13,0,0,1,.371-11.973.625.625,0,0,0-1.243-.126A73.325,73.325,0,0,0,3225.88,387.357Z" transform="translate(-3201.459 -353.577)" fill="#325e6b"/>
        </g>
      </g>
      <g id="Group_4036" data-name="Group 4036" transform="translate(2990.426 467.765)">
        <path id="Path_8507" data-name="Path 8507" d="M3092.875,595.93c-.185.168-.381.333-.584.5-9.344,7.462-22.691-1.675-31.828-5.7-12.272-5.406-26.723-10.2-37.32-18.367-1.908-1.471-3.907-3.36-3.906-5.768,0-2.282,1.94-4.222,4.129-4.869a12.178,12.178,0,0,1,6.742.374,3.955,3.955,0,0,0,2.532.183,2.526,2.526,0,0,0,1.054-3.278,6.689,6.689,0,0,0-2.609-2.728c-8.292-5.7-18.124-8.713-26.854-13.716-7.768-4.451-16.395-12.323-17.974-21.688-1.527-9.058,7.589-15.158,8.31-24.176.554-6.928-3.657-13.2-6.987-19.3s-5.848-13.85-2.148-19.734c4.494-7.146,15.737-6.684,22.425-1.531s10.166,13.3,14.112,20.767c3.147,5.951,8.33,15.278,13.763,19.408,2.891,2.2,7.162,3.017,10.142.94,1.876-1.307,2.923-3.488,4.484-5.159,5.741-6.151,16.984-3.142,21.525,3.942s3.994,16.271,2.125,24.475c-.808,3.546-1.837,7.2-1.1,10.761s3.972,6.927,7.562,6.344c2.236-.363,4.1-2.139,6.365-2.272,2.684-.156,5,2.147,5.826,4.707s.518,5.324.288,8a111.817,111.817,0,0,0,1.027,27.173C3095.1,582.272,3099.052,590.348,3092.875,595.93Z" transform="translate(-2983.6 -452.274)" fill="#264653"/>
        <path id="Path_8508" data-name="Path 8508" d="M2994.47,463.334a242.89,242.89,0,0,0,27.518,58.49c.145.751.292,1.5.435,2.25a.863.863,0,0,0,1.383.449c.658.985,1.313,1.972,1.987,2.949-10.131-7.2-20.266-13.794-28.664-23.317a.6.6,0,0,0-.919.782c8.877,10.344,19.239,21,32.108,26.244.021.008.035-.007.055,0,13.845,19.376,30.955,38.762,51.014,51.685.859.554,2.089-.655,1.263-1.4-9.21-8.362-18.246-16.566-26.809-25.221a119.393,119.393,0,0,0-11.563-51.539c-.2-.424-.955-.213-.807.264a291.246,291.246,0,0,1,10.583,49.42,228.334,228.334,0,0,1-21.715-25.461c-2.256-3.117-4.418-6.306-6.534-9.525-1.088-14.267-6.628-28.342-13.658-40.561-.29-.505-1.085-.143-.825.393,5.5,11.327,8.615,22.948,11.138,34.972a259.667,259.667,0,0,1-24.67-51.3C2995.529,462.159,2994.227,462.576,2994.47,463.334Z" transform="translate(-2982.053 -450.813)" fill="#7970e5" opacity="0.382"/>
      </g>
      <path id="Path_8509" data-name="Path 8509" d="M3220.843,439.763c3.692-4.726,7.523-9.575,12.746-12.525s12.243-3.558,16.96.146c2.526,1.984,4.093,4.917,5.538,7.786a276.267,276.267,0,0,1,12.5,28.8c4.278,11.639,9.163,25.068,20.823,29.283,8.753,3.163,19.056-.011,27.437,4.035,9.88,4.771,12.9,17.352,13.187,28.32s-.794,22.753,4.951,32.1c6.062,9.859,19.42,16.935,18.05,28.427-.936,7.855-8.777,12.961-16.281,15.462-30.5,10.167-63.7-4.318-95.739-1.643-11.391.952-24.628,3.5-32.806-4.481-3.871-3.78-5.615-9.187-7-14.419a192.571,192.571,0,0,1,13.964-134.3" transform="translate(36.995 11.572)" fill="#2a9d8e"/>
      <g id="Group_4037" data-name="Group 4037" transform="translate(3244.52 434.552)">
        <path id="Path_8510" data-name="Path 8510" d="M3205.96,577.048c.856-2.271,18.465-6.192,21.358-7.267q10.576-3.925,20.927-8.428c12.3-5.349,26.78-10.073,37.418-18.191,1.915-1.462,3.923-3.34,3.933-5.749.009-2.282-1.92-4.232-4.105-4.89a12.175,12.175,0,0,0-6.743.342,3.964,3.964,0,0,1-2.533.17,2.527,2.527,0,0,1-1.038-3.284,6.687,6.687,0,0,1,2.623-2.715c8.318-5.661,18.165-8.625,26.919-13.586,7.789-4.413,16.454-12.243,18.078-21.6,1.571-9.05-7.516-15.195-8.192-24.216-.521-6.931,3.721-13.178,7.079-19.263s5.915-13.821,2.243-19.723c-4.46-7.168-15.7-6.759-22.417-1.64s-10.229,13.254-14.212,20.7c-3.174,5.935-8.4,15.237-13.855,19.34-2.9,2.184-7.176,2.984-10.146.892-1.871-1.316-2.906-3.5-4.459-5.181-5.711-6.18-16.969-3.224-21.545,3.838s-4.072,16.252-2.243,24.464c.791,3.549,1.8,7.208,1.047,10.766s-4.006,6.909-7.592,6.308c-2.235-.374-4.093-2.159-6.354-2.3-2.683-.17-5.012,2.123-5.848,4.678s-.543,5.32-.327,8C3217.671,539.51,3213.246,557.7,3205.96,577.048Z" transform="translate(-3205.96 -423.209)" fill="#264653"/>
        <path id="Path_8511" data-name="Path 8511" d="M3310.769,434.271a242.867,242.867,0,0,1-27.8,58.355c-.148.751-.3,1.495-.447,2.248a.864.864,0,0,1-1.385.443c-.663.982-1.322,1.967-2,2.94,10.166-7.155,20.332-13.7,28.776-23.179a.6.6,0,0,1,.914.785c-8.926,10.3-19.339,20.907-32.234,26.089-.02.008-.034-.008-.055,0-13.939,19.31-31.141,38.612-51.262,51.438-.863.551-2.085-.665-1.256-1.411,9.25-8.318,18.324-16.477,26.93-25.091a119.39,119.39,0,0,1,11.811-51.483c.2-.422.957-.208.806.268a291.335,291.335,0,0,0-10.822,49.369,228.532,228.532,0,0,0,21.839-25.356c2.27-3.107,4.447-6.284,6.58-9.494,1.156-14.261,6.765-28.308,13.853-40.494.293-.5,1.087-.137.824.4-5.556,11.3-8.727,22.907-11.307,34.918a259.67,259.67,0,0,0,24.917-51.181C3309.715,433.091,3311.014,433.515,3310.769,434.271Z" transform="translate(-3203.422 -421.748)" fill="#7970e5" opacity="0.382"/>
      </g>
      <g id="Group_4039" data-name="Group 4039" transform="translate(3241.696 383.978)">
        <g id="Group_4038" data-name="Group 4038" transform="translate(0 9.322)">
          <path id="Path_8512" data-name="Path 8512" d="M3203.8,557.441c20.113-15.656,37.693-33.816,51.809-55.1a244.136,244.136,0,0,0,31.365-68.721c4.082-14.5,8.017-29.965,5.87-45.1-.2-1.41,1.84-2.035,2.2-.575,3.2,12.88-.247,26.725-3.41,39.289a252.7,252.7,0,0,1-12.5,37.136,234.614,234.614,0,0,1-41.789,65.859A188.578,188.578,0,0,1,3205.005,559c-.909.626-2.089-.866-1.2-1.555Z" transform="translate(-3203.488 -387.11)" fill="#e9c464"/>
        </g>
        <path id="Path_8513" data-name="Path 8513" d="M3283.924,412.72q-1.785-8.959-3.571-17.92c-1.006-5.045-1.9-10.7.945-14.984a1.741,1.741,0,0,1,1-.844c.641-.131,1.214.407,1.614.926,3.207,4.153,3.754,9.845,2.888,15.02s-1.613,12.869-3.3,17.838" transform="translate(-3192.657 -378.951)" fill="#e9c464"/>
        <path id="Path_8514" data-name="Path 8514" d="M3278.808,431.729a43.667,43.667,0,0,0,20.582-16.4c.72-1.076,1.414-2.424.89-3.609-.635-1.438-2.637-1.636-4.139-1.174-2.571.791-4.578,2.774-6.4,4.755a109.381,109.381,0,0,0-11.241,14.5" transform="translate(-3192.782 -374.475)" fill="#e9c464"/>
        <path id="Path_8515" data-name="Path 8515" d="M3271.539,452.643a45.714,45.714,0,0,0,21.544-17.17c.754-1.128,1.481-2.537.932-3.778-.665-1.5-2.761-1.713-4.333-1.228-2.692.827-4.791,2.9-6.7,4.978a114.525,114.525,0,0,0-11.768,15.182" transform="translate(-3193.822 -371.633)" fill="#e9c464"/>
        <path id="Path_8516" data-name="Path 8516" d="M3259.784,474.98a45.718,45.718,0,0,0,25.888-9.425c1.073-.828,2.21-1.933,2.085-3.284-.152-1.639-2.073-2.5-3.717-2.544-2.815-.072-5.467,1.228-7.933,2.588a114.631,114.631,0,0,0-15.987,10.65" transform="translate(-3195.454 -367.424)" fill="#e9c464"/>
        <path id="Path_8517" data-name="Path 8517" d="M3281.5,419.649a38.818,38.818,0,0,1-8.729-21.714c-.086-1.15-.032-2.495.893-3.182,1.122-.833,2.759-.109,3.717.907,1.642,1.739,2.324,4.154,2.865,6.484a97.215,97.215,0,0,1,2.337,16.149" transform="translate(-3193.604 -376.748)" fill="#e9c464"/>
        <path id="Path_8518" data-name="Path 8518" d="M3275.493,440.713a46.361,46.361,0,0,1-10.42-25.923c-.1-1.371-.038-2.979,1.066-3.8,1.339-1,3.292-.131,4.438,1.082,1.96,2.076,2.775,4.958,3.419,7.741a116.126,116.126,0,0,1,2.79,19.279" transform="translate(-3194.704 -374.441)" fill="#e9c464"/>
        <path id="Path_8519" data-name="Path 8519" d="M3266.527,462.728a46.361,46.361,0,0,1-10.42-25.922c-.1-1.371-.038-2.978,1.066-3.8,1.339-1,3.292-.131,4.438,1.082,1.96,2.076,2.774,4.958,3.419,7.741a116.1,116.1,0,0,1,2.79,19.279" transform="translate(-3195.984 -371.299)" fill="#e9c464"/>
        <path id="Path_8520" data-name="Path 8520" d="M3254.9,485.588a46.357,46.357,0,0,1-10.422-25.923c-.1-1.372-.038-2.979,1.067-3.8,1.339-1,3.291-.131,4.437,1.082,1.961,2.076,2.774,4.958,3.419,7.741a116.128,116.128,0,0,1,2.79,19.279" transform="translate(-3197.644 -368.036)" fill="#e9c464"/>
      </g>
      <g id="Group_4041" data-name="Group 4041" transform="translate(2957.067 506.837)">
        <g id="Group_4040" data-name="Group 4040" transform="translate(4.989 7.958)">
          <path id="Path_8521" data-name="Path 8521" d="M3075.8,571.843c-17.373-5.81-34.186-12.457-50.173-21.487a248.239,248.239,0,0,1-43.972-31.623c-8.156-7.341-15.431-15.056-20.708-24.756-.592-1.089-2.559-.414-2.1.819,3.252,8.767,9.9,15.8,16.6,22.11a249.258,249.258,0,0,0,21.233,17.818A244.735,244.735,0,0,0,3044.844,563a185.874,185.874,0,0,0,30.381,10.743.993.993,0,0,0,.57-1.9Z" transform="translate(-2958.774 -493.43)" fill="#e9c464"/>
        </g>
        <path id="Path_8522" data-name="Path 8522" d="M2973.433,515q-3.738-8.337-7.478-16.673c-2.106-4.693-4.654-9.82-9.457-11.661a1.743,1.743,0,0,0-1.3-.11c-.6.264-.752,1.034-.778,1.689-.2,5.243,2.649,10.2,6.355,13.913s8.774,9.552,13.028,12.622" transform="translate(-2954.408 -486.467)" fill="#e9c464"/>
        <path id="Path_8523" data-name="Path 8523" d="M2990.348,526.482a43.676,43.676,0,0,1-26.279-1.435c-1.211-.461-2.557-1.155-2.818-2.424-.315-1.54,1.2-2.863,2.693-3.357,2.553-.846,5.338-.392,7.969.166a109.5,109.5,0,0,1,17.567,5.3" transform="translate(-2953.437 -481.852)" fill="#e9c464"/>
        <path id="Path_8524" data-name="Path 8524" d="M3008.5,539.25a45.713,45.713,0,0,1-27.509-1.5c-1.269-.481-2.677-1.209-2.949-2.537-.33-1.612,1.256-3,2.818-3.514,2.673-.886,5.588-.411,8.343.174a114.5,114.5,0,0,1,18.39,5.549" transform="translate(-2951.042 -480.081)" fill="#e9c464"/>
        <path id="Path_8525" data-name="Path 8525" d="M3031.5,550.585a45.714,45.714,0,0,1-26.558,7.327c-1.355-.054-2.923-.295-3.6-1.467-.826-1.424.239-3.241,1.554-4.228,2.252-1.69,5.167-2.168,7.965-2.49a114.657,114.657,0,0,1,19.2-.589" transform="translate(-2947.751 -477.545)" fill="#e9c464"/>
        <path id="Path_8526" data-name="Path 8526" d="M2979.418,519.339a38.841,38.841,0,0,0-5.475-22.754c-.6-.986-1.422-2.051-2.573-2.075-1.4-.029-2.311,1.51-2.5,2.893-.329,2.37.514,4.732,1.425,6.944a97.264,97.264,0,0,0,7.459,14.513" transform="translate(-2952.355 -485.319)" fill="#e9c464"/>
        <path id="Path_8527" data-name="Path 8527" d="M2996.6,533a46.359,46.359,0,0,0-6.538-27.164c-.712-1.176-1.7-2.449-3.07-2.477-1.669-.034-2.759,1.8-2.988,3.456-.395,2.828.614,5.648,1.7,8.289a116.311,116.311,0,0,0,8.9,17.326" transform="translate(-2950.196 -484.056)" fill="#e9c464"/>
        <path id="Path_8528" data-name="Path 8528" d="M3016.671,545.738a46.363,46.363,0,0,0-6.536-27.164c-.713-1.177-1.7-2.449-3.072-2.477-1.668-.034-2.758,1.8-2.988,3.454-.394,2.828.614,5.65,1.7,8.289a116.276,116.276,0,0,0,8.9,17.327" transform="translate(-2947.332 -482.238)" fill="#e9c464"/>
        <path id="Path_8529" data-name="Path 8529" d="M3039.4,557.622a46.367,46.367,0,0,0-6.536-27.164c-.713-1.176-1.7-2.448-3.072-2.476-1.668-.034-2.758,1.8-2.988,3.454-.394,2.828.614,5.65,1.7,8.289a116.209,116.209,0,0,0,8.9,17.326" transform="translate(-2944.089 -480.542)" fill="#e9c464"/>
      </g>
      <g id="Group_4043" data-name="Group 4043" transform="translate(3013.674 415.115)">
        <g id="Group_4042" data-name="Group 4042" transform="translate(14.734 9.315)">
          <path id="Path_8530" data-name="Path 8530" d="M3069.55,545.322c-10.881-14.735-20.823-29.836-28.721-46.411a248.226,248.226,0,0,1-17.821-51.148c-2.458-10.695-3.98-21.188-2.725-32.159.141-1.232-1.857-1.809-2.191-.536-2.375,9.043-.975,18.621.883,27.634a249.415,249.415,0,0,0,7.142,26.783A244.7,244.7,0,0,0,3049.3,520.3a185.954,185.954,0,0,0,18.694,26.248.993.993,0,0,0,1.559-1.228Z" transform="translate(-3016.839 -414.351)" fill="#e9c464"/>
        </g>
        <path id="Path_8531" data-name="Path 8531" d="M3018.705,439.976q1.73-8.971,3.458-17.943c.973-5.051,1.834-10.712-1.039-14.978a1.74,1.74,0,0,0-1-.838c-.642-.128-1.21.414-1.607.935-3.18,4.173-3.692,9.868-2.792,15.038s1.693,12.859,3.411,17.817" transform="translate(-3002.321 -406.199)" fill="#e9c464"/>
        <path id="Path_8532" data-name="Path 8532" d="M3025.721,458.94a43.672,43.672,0,0,1-20.686-16.273c-.727-1.072-1.429-2.415-.913-3.6.626-1.441,2.627-1.652,4.132-1.2,2.576.775,4.595,2.746,6.428,4.715a109.492,109.492,0,0,1,11.333,14.431" transform="translate(-3003.945 -401.711)" fill="#e9c464"/>
        <path id="Path_8533" data-name="Path 8533" d="M3033.251,479.806a45.7,45.7,0,0,1-21.652-17.033c-.761-1.123-1.5-2.528-.957-3.772.656-1.508,2.749-1.73,4.325-1.256,2.7.81,4.81,2.874,6.728,4.934a114.493,114.493,0,0,1,11.864,15.108" transform="translate(-3003.015 -398.875)" fill="#e9c464"/>
        <path id="Path_8534" data-name="Path 8534" d="M3045.769,502.066a45.723,45.723,0,0,1-25.946-9.262c-1.079-.822-2.223-1.92-2.106-3.272.142-1.639,2.057-2.515,3.7-2.567,2.814-.089,5.475,1.194,7.948,2.538a114.5,114.5,0,0,1,16.053,10.548" transform="translate(-3001.98 -394.673)" fill="#e9c464"/>
        <path id="Path_8535" data-name="Path 8535" d="M3021.417,446.89a38.83,38.83,0,0,0,8.591-21.769c.078-1.15.016-2.495-.913-3.177-1.128-.826-2.759-.091-3.711.931-1.632,1.75-2.3,4.167-2.824,6.5a97.389,97.389,0,0,0-2.234,16.164" transform="translate(-3001.607 -404.003)" fill="#e9c464"/>
        <path id="Path_8536" data-name="Path 8536" d="M3027.8,467.915a46.353,46.353,0,0,0,10.256-25.988c.093-1.372.02-2.979-1.09-3.793-1.346-.986-3.293-.11-4.431,1.112-1.947,2.088-2.743,4.975-3.37,7.761a116.149,116.149,0,0,0-2.667,19.3" transform="translate(-3000.726 -401.702)" fill="#e9c464"/>
        <path id="Path_8537" data-name="Path 8537" d="M3036.9,489.874a46.366,46.366,0,0,0,10.257-25.988c.092-1.372.018-2.979-1.091-3.793-1.345-.986-3.292-.11-4.43,1.111-1.947,2.089-2.744,4.977-3.371,7.762a116.2,116.2,0,0,0-2.667,19.3" transform="translate(-2999.427 -398.569)" fill="#e9c464"/>
        <path id="Path_8538" data-name="Path 8538" d="M3048.676,512.66a46.363,46.363,0,0,0,10.257-25.989c.093-1.372.018-2.978-1.091-3.792-1.345-.987-3.292-.11-4.43,1.111-1.947,2.089-2.744,4.977-3.37,7.761a116.13,116.13,0,0,0-2.668,19.3" transform="translate(-2997.747 -395.317)" fill="#e9c464"/>
      </g>
      <g id="Group_4045" data-name="Group 4045" transform="translate(3293.948 515.485)">
        <g id="Group_4044" data-name="Group 4044" transform="translate(0 4.539)">
          <path id="Path_8539" data-name="Path 8539" d="M3249.8,527.723c13.963,1.185,28.306-.168,42.037-2.78a190.418,190.418,0,0,0,40.779-12.618c7.162-3.137,14.816-6.7,19.842-12.91a.862.862,0,0,0-1.283-1.151c-10.36,9.6-24.4,14.74-37.654,19.007a187.225,187.225,0,0,1-40.554,8.253c-7.687.693-15.365.737-23.073.713-.839,0-.948,1.415-.094,1.487Z" transform="translate(-3249.215 -498.006)" fill="#e9c464"/>
        </g>
        <path id="Path_8540" data-name="Path 8540" d="M3326.827,510.262l9.406-10.15c2.648-2.857,5.718-5.918,9.61-6.075a1.317,1.317,0,0,1,.96.237,1.373,1.373,0,0,1,.15,1.4c-1.124,3.811-4.371,6.676-7.931,8.442s-8.609,4.726-12.405,5.9" transform="translate(-3238.168 -494.034)" fill="#e9c464"/>
        <path id="Path_8541" data-name="Path 8541" d="M3312.159,514.693a33.065,33.065,0,0,0,19.2,5.338,3,3,0,0,0,2.609-1.056c.6-1.029-.168-2.344-1.119-3.06a11.627,11.627,0,0,0-5.758-1.812,82.927,82.927,0,0,0-13.887-.454" transform="translate(-3240.231 -491.25)" fill="#e9c464"/>
        <path id="Path_8542" data-name="Path 8542" d="M3296.178,519.472a34.624,34.624,0,0,0,20.1,5.589c1.026-.039,2.213-.219,2.73-1.106.629-1.076-.175-2.455-1.17-3.2a12.174,12.174,0,0,0-6.027-1.9,86.8,86.8,0,0,0-14.539-.474" transform="translate(-3242.512 -490.576)" fill="#e9c464"/>
        <path id="Path_8543" data-name="Path 8543" d="M3276.727,522.539A34.616,34.616,0,0,0,3294,534.231c.985.29,2.168.5,2.941-.179.937-.82.614-2.383-.091-3.41a12.175,12.175,0,0,0-5.11-3.716,86.771,86.771,0,0,0-13.631-5.075" transform="translate(-3245.288 -490.064)" fill="#e9c464"/>
        <path id="Path_8544" data-name="Path 8544" d="M3320.993,512.239a30.6,30.6,0,0,1,9.957-15.772,2.817,2.817,0,0,1,2.49-.9c1.074.341,1.382,1.74,1.177,2.835a10.756,10.756,0,0,1-2.85,4.877,76.884,76.884,0,0,1-9.378,9.032" transform="translate(-3238.971 -493.826)" fill="#e9c464"/>
        <path id="Path_8545" data-name="Path 8545" d="M3305.283,517.618a35.1,35.1,0,0,1,11.272-17.9c.8-.672,1.81-1.346,2.8-1.033,1.206.379,1.542,1.961,1.307,3.2a12.35,12.35,0,0,1-3.229,5.534,87.877,87.877,0,0,1-10.586,10.273" transform="translate(-3241.213 -493.382)" fill="#e9c464"/>
        <path id="Path_8546" data-name="Path 8546" d="M3287.8,521.895a35.11,35.11,0,0,1,11.272-17.9c.8-.671,1.81-1.345,2.8-1.032,1.205.379,1.543,1.961,1.307,3.2a12.344,12.344,0,0,1-3.229,5.535,88.083,88.083,0,0,1-10.585,10.273" transform="translate(-3243.708 -492.772)" fill="#e9c464"/>
        <path id="Path_8547" data-name="Path 8547" d="M3268.613,524.914a35.094,35.094,0,0,1,11.271-17.9c.8-.672,1.81-1.346,2.8-1.033,1.206.379,1.543,1.961,1.307,3.2a12.367,12.367,0,0,1-3.229,5.535,87.9,87.9,0,0,1-10.586,10.273" transform="translate(-3246.446 -492.341)" fill="#e9c464"/>
      </g>
      <g id="Group_4047" data-name="Group 4047" transform="translate(3332.295 459.658)">
        <g id="Group_4046" data-name="Group 4046">
          <path id="Path_8548" data-name="Path 8548" d="M3303.62,448.2c-4.587,9.886-5.786,20.86-4.486,31.618a60.715,60.715,0,0,0,3.634,15.317c.32.794.551.053.352-.441a57.729,57.729,0,0,1-3.389-14.114,57.052,57.052,0,0,1,4.4-31.395c.135-.289-.321-1.4-.514-.985Z" transform="translate(-3280.508 -444.761)" fill="#e76f50"/>
          <path id="Path_8549" data-name="Path 8549" d="M3305.711,449.916a2.4,2.4,0,1,1-1.193-3.182A2.4,2.4,0,0,1,3305.711,449.916Z" transform="translate(-3280.155 -444.989)" fill="#e76f50"/>
          <path id="Path_8550" data-name="Path 8550" d="M3314.185,449.176a2.4,2.4,0,1,1-1.192-3.182A2.4,2.4,0,0,1,3314.185,449.176Z" transform="translate(-3278.945 -445.094)" fill="#e76f50"/>
          <path id="Path_8551" data-name="Path 8551" d="M3321.007,448.578a2.4,2.4,0,1,1-1.192-3.182A2.4,2.4,0,0,1,3321.007,448.578Z" transform="translate(-3277.971 -445.18)" fill="#e76f50"/>
          <path id="Path_8552" data-name="Path 8552" d="M3329.706,460.833a2.4,2.4,0,1,1-1.193-3.184A2.4,2.4,0,0,1,3329.706,460.833Z" transform="translate(-3276.73 -443.431)" fill="#e76f50"/>
          <path id="Path_8553" data-name="Path 8553" d="M3353.385,471.6a2.4,2.4,0,1,1-1.193-3.182A2.4,2.4,0,0,1,3353.385,471.6Z" transform="translate(-3273.351 -441.893)" fill="#e76f50"/>
          <path id="Path_8554" data-name="Path 8554" d="M3345.788,468.148a2.4,2.4,0,1,1-1.193-3.182A2.4,2.4,0,0,1,3345.788,468.148Z" transform="translate(-3274.435 -442.387)" fill="#e76f50"/>
          <path id="Path_8555" data-name="Path 8555" d="M3321.616,455.8a2.4,2.4,0,1,1-1.193-3.184A2.4,2.4,0,0,1,3321.616,455.8Z" transform="translate(-3277.885 -444.15)" fill="#e76f50"/>
          <path id="Path_8556" data-name="Path 8556" d="M3323.768,461.4a2.4,2.4,0,1,1-1.193-3.182A2.4,2.4,0,0,1,3323.768,461.4Z" transform="translate(-3277.577 -443.35)" fill="#e76f50"/>
          <path id="Path_8557" data-name="Path 8557" d="M3337.148,466.53a2.4,2.4,0,1,1-1.192-3.184A2.4,2.4,0,0,1,3337.148,466.53Z" transform="translate(-3275.668 -442.618)" fill="#e76f50"/>
          <path id="Path_8558" data-name="Path 8558" d="M3312.5,447.608a89.33,89.33,0,0,0-9,33.047,72.416,72.416,0,0,0,.12,15.125c.09.673,1.008.928.9.1a70.927,70.927,0,0,1-.126-14.812,88.48,88.48,0,0,1,8.93-32.766c.252-.5-.481-1.388-.826-.7Z" transform="translate(-3279.862 -444.869)" fill="#e76f50"/>
          <path id="Path_8559" data-name="Path 8559" d="M3320.739,453.97c-6.023,9.077-10.972,18.983-13.581,29.6a43.186,43.186,0,0,0-1.626,12.035c.018.407.659,1.3.622.489a41.5,41.5,0,0,1,1.507-11.344c2.548-10.632,7.517-20.579,13.535-29.649.218-.329-.271-1.412-.457-1.132Z" transform="translate(-3279.529 -443.932)" fill="#e76f50"/>
          <path id="Path_8560" data-name="Path 8560" d="M3323.254,461.936a268.752,268.752,0,0,1-13.123,26,99.121,99.121,0,0,1-5.329,8.447l.37.528a29.891,29.891,0,0,1-.274-7.749,72.251,72.251,0,0,1,5.978-22.782,129.638,129.638,0,0,1,9.8-18.477c.177-.28-.323-1.275-.406-1.146-6.051,9.615-11.269,19.947-14.078,31.006a50.481,50.481,0,0,0-1.764,16.484,17.226,17.226,0,0,0,.406,2.754c.01.041.233.717.37.528a98.826,98.826,0,0,0,5.329-8.448,268.637,268.637,0,0,0,13.124-26,1.588,1.588,0,0,0-.407-1.145Z" transform="translate(-3279.699 -444.956)" fill="#e76f50"/>
          <path id="Path_8561" data-name="Path 8561" d="M3338.6,465.533c-4.847,10.247-11.66,20.77-22.022,26.144-3.178,1.649-7.232,3.19-10.908,2.823l.329,1.214c1.818.171,3.843-.865,5.324-1.775,5.442-3.346,9.149-9.223,12.016-14.759a113.255,113.255,0,0,0,7.455-18.978c.088-.286-.374-1.362-.487-.993-2.983,9.726-6.676,19.9-13.183,27.889-2.483,3.05-5.715,6.2-9.66,7.181a5.511,5.511,0,0,1-1.794.222c-.182-.016-.048,1.176.329,1.214a17.488,17.488,0,0,0,7.152-1.2c6.25-2.162,11.531-6.572,15.753-11.563a73.933,73.933,0,0,0,10.12-16.276c.154-.326-.348-1.3-.424-1.142Z" transform="translate(-3279.517 -443.188)" fill="#e76f50"/>
          <path id="Path_8562" data-name="Path 8562" d="M3351.615,466.456c-8.479,13.973-22.327,27.968-39.837,28.106a16.969,16.969,0,0,1-3.017-.181.257.257,0,0,0-.26.136c-4.443,7.634-9.907,14.72-15.24,21.745q-5.121,6.748-10.406,13.374c-.288.36.241,1.456.647.95,8.229-10.273,16.46-20.716,23.594-31.786q.661-1.025,1.3-2.067a8.282,8.282,0,0,0,.523-1.126c.133-.071.66.082.809.1a25.405,25.405,0,0,0,4.149,0,38.436,38.436,0,0,0,15.759-4.93c9.65-5.363,16.967-14.042,22.626-23.369.24-.394-.318-1.49-.646-.948Z" transform="translate(-3282.773 -442.164)" fill="#e76f50"/>
          <path id="Path_8563" data-name="Path 8563" d="M3356.487,469.769c-5.248,9.249-12.848,16.964-22.629,21.337a49.676,49.676,0,0,1-20.381,4.247,37.247,37.247,0,0,1-6.02-.447c-.489-.082-.287,1.143.148,1.216,12.98,2.185,27.324-2.169,37.333-10.5a53.587,53.587,0,0,0,12.158-14.9c.2-.361-.317-1.473-.608-.96Z" transform="translate(-3279.291 -441.689)" fill="#e76f50"/>
        </g>
        <path id="Path_8564" data-name="Path 8564" d="M3304.653,496.158c-7.2-14.222-9.361-24.171,10.362-12.291s4.852,13.579-1.817,12.677S3304.653,496.158,3304.653,496.158Z" transform="translate(-3280.386 -440.412)" fill="#e76f50"/>
      </g>
      <g id="Group_4052" data-name="Group 4052" transform="translate(3019.062 510.314)">
        <g id="Group_4051" data-name="Group 4051">
          <g id="Group_4048" data-name="Group 4048">
            <path id="Path_8565" data-name="Path 8565" d="M3114.69,537.721c1.624-1.467,3.5-2.942,5.7-2.973a11.174,11.174,0,0,1,3.931,1.048c12.109,4.681,22.886,5.752,35.671,5.328,9.071-.3,21.215,1.5,28.326,7.768a12.977,12.977,0,0,1,2.113,2.315,9.255,9.255,0,0,1,1.151,7.342,5.633,5.633,0,0,1-.185.687,11.158,11.158,0,0,1-2.728,4.353,18.817,18.817,0,0,0-1.868,1.522c-.582.8-.5.534.209.992,1.387.915,3.026,1.135,4.356,2.314a8.041,8.041,0,0,1,2.385,3.6c1.574,5.167-1.523,9.527-4.685,10.154,3.212.166,6.9,3.031,7.5,6.532.481,2.78-1.24,6.219-3.4,7.926-1.636,1.29-4.57,1.183-4.948,2.77-.37,1.552,2.6,3.162,1.879,5.248-.945,2.745-7.27,4.228-9.683,4.829-13.479,3.355-23.934-5.615-36.552-11.419a87.82,87.82,0,0,1-19.566-11.739c-6.685-5.093-20.784-5.494-27.345-10.745-6-4.8-2.127-9.819,1.068-16.035.1-.234.219-.459.344-.695.86-1.652,1.787-3.257,2.77-4.843A75.911,75.911,0,0,1,3114.69,537.721Z" transform="translate(-2996.509 -483.052)" fill="#e29266"/>
            <path id="Path_8566" data-name="Path 8566" d="M3135.183,544.56a8.8,8.8,0,0,1-.612,2.41c-1.43,4.086-3.058,8.038-4.82,11.9-2.043,4.49-4.269,8.87-6.595,13.2-2.605,4.88-5.345,9.713-8.086,14.582a7.119,7.119,0,0,1-2.68,3.12c-1.48.746-3.255.379-4.856,0-1.7-.416-3.4-.819-5.077-1.211-1.492-.354-2.973-.746-4.453-1.162-16.369-4.526-31.759-12-47.54-18.3-12.32-4.918-24.639-9.9-36.849-15.084a8.173,8.173,0,0,1-4.8-9.114,111.27,111.27,0,0,1,27.025-52.728,8.181,8.181,0,0,1,9.921-1.689c1.359.735,2.716,1.481,4.074,2.215,18.095,9.8,36.213,19.55,54.062,29.8,6.558,3.78,13.115,7.6,19.5,11.672,1.3.819,2.569,1.639,3.841,2.483C3130.583,538.847,3135.416,540.56,3135.183,544.56Z" transform="translate(-3008.66 -489.509)" fill="#e76f50"/>
            <path id="Path_8567" data-name="Path 8567" d="M3177.02,588.705s-15.007.93-23.855-1.515" transform="translate(-2988.037 -475.568)" fill="none" stroke="#efba93" stroke-miterlimit="10" stroke-width="1.071"/>
            <path id="Path_8568" data-name="Path 8568" d="M3176.738,575.851s-17.01-.237-25.858-2.682" transform="translate(-2988.363 -477.569)" fill="none" stroke="#efba93" stroke-miterlimit="10" stroke-width="1.071"/>
            <path id="Path_8569" data-name="Path 8569" d="M3174.985,562.27s-15.064-.046-23.914-2.491" transform="translate(-2988.336 -479.48)" fill="none" stroke="#efba93" stroke-miterlimit="10" stroke-width="1.071"/>
            <path id="Path_8570" data-name="Path 8570" d="M3124.024,538.982a8.8,8.8,0,0,1-.612,2.41c-1.43,4.086-3.058,8.038-4.82,11.9-2.043,4.49-4.269,8.87-6.595,13.2-2.605,4.88-5.345,9.713-8.085,14.582a7.122,7.122,0,0,1-2.68,3.12c-1.48.746-3.255.379-4.856,0-1.7-.416-3.4-.819-5.078-1.211-1.492-.354-2.973-.746-4.453-1.162,7.719-12.136,20.395-38.94,25.4-53.229,1.3.819,2.569,1.639,3.841,2.483C3119.425,533.269,3124.257,534.982,3124.024,538.982Z" transform="translate(-2997.501 -483.93)" fill="#ededed"/>
            <path id="Path_8571" data-name="Path 8571" d="M3123.156,569.762c-2.605,4.88-5.345,9.713-8.086,14.582a7.119,7.119,0,0,1-2.68,3.12c-1.48.746-3.255.379-4.856,0-1.7-.416-3.4-.819-5.077-1.211-18.057-4.33-34.793-12.6-51.993-19.464-12.32-4.918-24.639-9.9-36.849-15.084a8.173,8.173,0,0,1-4.8-9.114,110.965,110.965,0,0,1,14.89-36.873C3037.568,521.388,3079.09,564.219,3123.156,569.762Z" transform="translate(-3008.66 -487.196)" fill="#e96246" opacity="0.407"/>
          </g>
          <g id="Group_4050" data-name="Group 4050" transform="translate(121.869 6.656)">
            <path id="Path_8572" data-name="Path 8572" d="M3208.683,584.671a45.409,45.409,0,0,0-25.042,9.967c-6.829,5.717-12.2,12.934-18.914,18.778-2.952,2.569-6.9,4.979-10.562,3.6a6.119,6.119,0,0,1-3.813-4.66c-.38-2.362,2.281-5.876,2.281-5.876s-2.962,1.071-4.434,1.631a17.476,17.476,0,0,1-3.725,1.107,5.872,5.872,0,0,1-3.774-.6,5.411,5.411,0,0,1-2.446-3.834,34.1,34.1,0,0,1,.6-5.715s-2.431,1.124-3.25,1.642a8.172,8.172,0,0,1-5.309,1.386,4.973,4.973,0,0,1-4.16-3.273,6.56,6.56,0,0,1-.114-2.627c.347-2.925,1.674-7.091,3.9-9.152-1.2,1.112-2.432,1.668-3.6,2.922a11.9,11.9,0,0,1-4.26,3.189c-5.682,2.207-7.651-2.946-6.381-7.4,1.682-5.89,3.867-10.736,7.979-15.393,4.153-4.7,9.122-8.6,13.716-12.875,3.138-2.921,6.113-6.03,9.48-8.683,15.41-12.14,38.85-13.444,57.608-11.7a1.109,1.109,0,0,1,1.064-.648,2.028,2.028,0,0,1,1.273.892c1.174.122,2.361.27,3.56.429l-3.218.073a.341.341,0,0,1,.062.086,68.686,68.686,0,0,1,6.753,14.546c.085.221.159.441.232.673.525,1.627.978,3.267,1.383,4.931,1.4,5.8,5.667,22.046-1.648,25.578A14.922,14.922,0,0,1,3208.683,584.671Z" transform="translate(-3115.308 -489.464)" fill="#efba93"/>
            <path id="Path_8573" data-name="Path 8573" d="M3311.747,555.18a8.18,8.18,0,0,1-5.761,8.246l-4.442,1.357c-19.672,6.007-39.344,12.075-59.163,17.592-8.771,2.435-17.568,4.809-26.474,6.7-3.9.844-8.514,3.083-11.194.11a9.232,9.232,0,0,1-1.3-2.128c-1.9-3.891-3.572-7.818-5.089-11.794-3.743-9.775-6.569-19.782-9.493-29.948a7.163,7.163,0,0,1-.343-4.1c.5-1.578,2.019-2.581,3.414-3.462,1.481-.918,2.96-1.847,4.429-2.764,15.744-9.824,33.385-15.941,50.342-23.379,12.148-5.334,24.345-10.607,36.6-15.672a8.161,8.161,0,0,1,6.606.184,8.04,8.04,0,0,1,3.254,2.8A110.953,110.953,0,0,1,3311.747,555.18Z" transform="translate(-3104.891 -495.334)" fill="#035582"/>
            <path id="Path_8574" data-name="Path 8574" d="M3310.5,555.081a8.18,8.18,0,0,1-5.761,8.246l-4.442,1.357c-19.672,6.007-39.344,12.075-59.163,17.592-8.771,2.435-17.568,4.809-26.474,6.7-3.9.844-8.514,3.083-11.194.11a9.232,9.232,0,0,1-1.3-2.128c-1.9-3.891-3.572-7.818-5.089-11.794a26.936,26.936,0,0,1,2.826-2.839c5.309-4.575,11.94-7.254,18.278-10.264a168.631,168.631,0,0,0,57.328-44.629c5.334-6.46,8.417-15.917,13.126-21.41a8.04,8.04,0,0,1,3.254,2.8A110.953,110.953,0,0,1,3310.5,555.081Z" transform="translate(-3103.639 -495.234)" fill="#035582" opacity="0.434"/>
            <g id="Group_4049" data-name="Group 4049" transform="translate(116.088 71.574)">
              <path id="Path_8575" data-name="Path 8575" d="M3225.053,565.061a4.078,4.078,0,1,1-4.078-4.077A4.078,4.078,0,0,1,3225.053,565.061Z" transform="translate(-3216.898 -557.539)" fill="#007da3"/>
              <path id="Path_8576" data-name="Path 8576" d="M3236.49,562.046a4.078,4.078,0,1,1-4.078-4.077A4.078,4.078,0,0,1,3236.49,562.046Z" transform="translate(-3215.266 -557.969)" fill="#007da3"/>
              <circle id="Ellipse_50" data-name="Ellipse 50" cx="2.502" cy="2.502" r="2.502" transform="translate(14.645 1.591)" fill="#035582" opacity="0.434"/>
              <path id="Path_8577" data-name="Path 8577" d="M3223.12,564.9a2.5,2.5,0,1,1-2.5-2.5A2.5,2.5,0,0,1,3223.12,564.9Z" transform="translate(-3216.724 -557.337)" fill="#035582" opacity="0.434"/>
            </g>
            <path id="Path_8578" data-name="Path 8578" d="M3128.091,582.729s9.868-11.345,17.821-15.932" transform="translate(-3113.484 -485.135)" fill="none" stroke="#efba93" stroke-miterlimit="10" stroke-width="1.071"/>
            <path id="Path_8579" data-name="Path 8579" d="M3135.757,593.773s10.347-14,18.3-18.589" transform="translate(-3112.39 -483.938)" fill="none" stroke="#efba93" stroke-miterlimit="10" stroke-width="1.071"/>
            <path id="Path_8580" data-name="Path 8580" d="M3147.763,599.956s8.148-12.333,16.1-16.92" transform="translate(-3110.676 -482.817)" fill="none" stroke="#efba93" stroke-miterlimit="10" stroke-width="1.071"/>
            <path id="Path_8581" data-name="Path 8581" d="M3200.824,535.426a102.042,102.042,0,0,0,13.381,37.534" transform="translate(-3103.104 -489.612)" fill="none" stroke="#035582" stroke-miterlimit="10" stroke-width="1.071" opacity="0.434"/>
          </g>
          <path id="Path_8582" data-name="Path 8582" d="M3184.386,540.5c1.686.363,3.5.849,4.548,2.218,1.613,2.107.506,5.375-1.614,6.972s-4.892,1.967-7.528,2.282c-10.914,1.31-21.895,2.591-32.908,2.234a97.191,97.191,0,0,1-16.526-1.987c-1.665-.343-4.763-.651-5.706-2.377-1.038-1.9,1.119-3.853,2.475-4.927a44.918,44.918,0,0,1,17.954-8.871,34.485,34.485,0,0,1,10.025-.745c3.344.249,6.282,1.633,9.5,2.132C3171.2,538.453,3177.807,539.081,3184.386,540.5Z" transform="translate(-2992.145 -482.987)" fill="#3d3d3d" opacity="0.208"/>
          <path id="Path_8583" data-name="Path 8583" d="M3182.758,537.012c1.71.23,3.556.569,4.709,1.851,1.775,1.975.929,5.319-1.059,7.079s-4.722,2.345-7.325,2.868c-10.777,2.164-21.623,4.307-32.629,4.819a97.11,97.11,0,0,1-16.631-.678c-1.687-.211-4.8-.274-5.876-1.92-1.184-1.81.811-3.93,2.078-5.108a44.936,44.936,0,0,1,17.2-10.258,34.549,34.549,0,0,1,9.935-1.534c3.353-.014,6.391,1.134,9.643,1.378C3169.454,536.01,3176.088,536.114,3182.758,537.012Z" transform="translate(-2992.258 -483.14)" fill="#e29266"/>
          <path id="Path_8584" data-name="Path 8584" d="M3186.591,589.241a11.665,11.665,0,0,0,3.7,4.677c1.741,1.15,4.34,1.49,6.047.3,2.012-1.4,1.939-4.1,1.5-6.333a44.8,44.8,0,0,0-4.5-12.551c-1-1.855-2.372-3.831-4.623-4.315-4.22-.906-7.246,3.553-6.8,6.8C3182.423,581.5,3184.87,585.893,3186.591,589.241Z" transform="translate(-2983.939 -477.893)" fill="#e29266"/>
          <path id="Path_8585" data-name="Path 8585" d="M3177.937,594.516a13.026,13.026,0,0,0,3.7,5.272c1.741,1.3,4.34,1.68,6.047.339,2.012-1.581,1.939-4.618,1.5-7.14a54.817,54.817,0,0,0-4.5-14.149c-1-2.091-2.372-4.32-4.623-4.865-4.22-1.022-7.246,4.005-6.8,7.664C3173.769,585.785,3176.216,590.741,3177.937,594.516Z" transform="translate(-2985.175 -477.473)" fill="#e29266"/>
          <path id="Path_8586" data-name="Path 8586" d="M3169.694,598.385a11.768,11.768,0,0,0,3.338,4.756c1.571,1.17,3.916,1.516,5.456.306,1.816-1.426,1.75-4.166,1.354-6.441a49.427,49.427,0,0,0-4.061-12.766c-.9-1.887-2.14-3.9-4.171-4.389-3.808-.922-6.538,3.614-6.134,6.916C3165.933,590.506,3168.141,594.977,3169.694,598.385Z" transform="translate(-2986.285 -476.633)" fill="#e29266"/>
          <path id="Path_8587" data-name="Path 8587" d="M3163.786,606.858a3.249,3.249,0,0,0,1.487,1.179,6.312,6.312,0,0,0,2.475.24,6.849,6.849,0,0,0,2.934-.69,4.821,4.821,0,0,0,2.24-2.989c1-3.749-1.48-8.582-3.05-11.883-.9-1.887-2.14-3.9-4.171-4.388-3.809-.922-6.539,3.613-6.135,6.915a26.793,26.793,0,0,0,2.181,7.1A21.331,21.331,0,0,0,3163.786,606.858Z" transform="translate(-2987.129 -475.423)" fill="#e29266"/>
        </g>
      </g>
      <g id="Group_4054" data-name="Group 4054" transform="translate(3123.185 449.778)">
        <path id="Path_8588" data-name="Path 8588" d="M3171.961,446.867l-52.178-10.132a10.835,10.835,0,0,0-12.7,8.57l-7.1,36.578a10.836,10.836,0,0,0,8.57,12.7l18.289,3.552,5.654,12.564,9.7-9.583,18.533,3.6a10.836,10.836,0,0,0,12.7-8.571l7.1-36.577A10.836,10.836,0,0,0,3171.961,446.867Z" transform="translate(-3099.779 -436.533)" fill="#2eafff"/>
        <g id="Group_4053" data-name="Group 4053" transform="translate(17.722 13.801)">
          <rect id="Rectangle_846" data-name="Rectangle 846" width="10.819" height="21.167" rx="0.496" transform="translate(4.035 8.815) rotate(10.99)" fill="#fcfeff"/>
          <path id="Path_8589" data-name="Path 8589" d="M3131.476,463.1a3.688,3.688,0,0,1,1.953-2.563c2.107-1.1,5.492-1.883,8.522-10.1,1.589-4.307,6.254-.305,5.595,4.58-.537,3.99-1.343,7.249-1.343,7.249l7.941,1.542a3.889,3.889,0,0,1,3.076,4.558l-2.969,15.284a3.888,3.888,0,0,1-4.558,3.076l-15.841-3.076a3.648,3.648,0,0,1-1.9-1.016l-2.215-2.237a3.652,3.652,0,0,1-.99-3.264Z" transform="translate(-3113.375 -448.611)" fill="#fcfeff"/>
        </g>
      </g>
      <g id="Group_4056" data-name="Group 4056" transform="translate(3340.057 343.729)">
        <path id="Path_8590" data-name="Path 8590" d="M3322.753,343.754l-27.986,2.591a5.728,5.728,0,0,0-5.177,6.232L3291.4,372.2a5.73,5.73,0,0,0,6.233,5.177l9.809-.907,4.732,5.54,3.5-6.3,9.94-.92a5.729,5.729,0,0,0,5.176-6.232l-1.814-19.619A5.731,5.731,0,0,0,3322.753,343.754Z" transform="translate(-3289.565 -343.729)" fill="#2eafff"/>
        <g id="Group_4055" data-name="Group 4055" transform="translate(9.413 5.281)">
          <rect id="Rectangle_847" data-name="Rectangle 847" width="5.721" height="11.193" rx="0.496" transform="translate(0 8.452) rotate(-5.287)" fill="#fcfeff"/>
          <path id="Path_8591" data-name="Path 8591" d="M3304.787,357.6a1.951,1.951,0,0,1,.612-1.59c.906-.873,2.51-1.77,2.831-6.389.168-2.421,3.128-1.082,3.518,1.5.319,2.106.392,3.878.392,3.878l4.26-.394a2.057,2.057,0,0,1,2.236,1.858l.759,8.2a2.056,2.056,0,0,1-1.858,2.237l-8.5.786a1.931,1.931,0,0,1-1.114-.234l-1.456-.808a1.927,1.927,0,0,1-.986-1.51Z" transform="translate(-3296.807 -348.351)" fill="#fcfeff"/>
        </g>
      </g>
      <g id="Group_4058" data-name="Group 4058" transform="translate(2971.56 397.829)">
        <path id="Path_8592" data-name="Path 8592" d="M2998.213,391.5l-27.341,10.873a6,6,0,0,0-3.356,7.79l7.623,19.166a6,6,0,0,0,7.79,3.357l9.583-3.812,6.389,4.164,1.657-7.364,9.711-3.862a6,6,0,0,0,3.356-7.79L3006,394.855A6,6,0,0,0,2998.213,391.5Z" transform="translate(-2967.09 -391.073)" fill="#2eafff"/>
        <g id="Group_4057" data-name="Group 4057" transform="translate(11.299 8.989)">
          <rect id="Rectangle_848" data-name="Rectangle 848" width="5.989" height="11.717" rx="0.496" transform="translate(0 12.231) rotate(-21.689)" fill="#fcfeff"/>
          <path id="Path_8593" data-name="Path 8593" d="M2984.216,409.612a2.038,2.038,0,0,1,.143-1.777c.653-1.145,2-2.52.954-7.252-.547-2.482,2.823-2.012,3.976.462.942,2.02,1.541,3.779,1.541,3.779l4.162-1.656a2.153,2.153,0,0,1,2.8,1.2l3.185,8.009a2.151,2.151,0,0,1-1.2,2.8l-8.3,3.3a2.023,2.023,0,0,1-1.188.095l-1.7-.381a2.021,2.021,0,0,1-1.436-1.226Z" transform="translate(-2975.965 -398.939)" fill="#fcfeff"/>
        </g>
      </g>
      <g id="Group_4059" data-name="Group 4059" transform="translate(3221.851 423.485)">
        <path id="Path_8594" data-name="Path 8594" d="M3236.557,413.612l-42.845,6.043a8.819,8.819,0,0,0-7.5,9.964l4.236,30.036a8.821,8.821,0,0,0,9.965,7.5l15.018-2.119,7.683,8.17,4.925-9.948,15.218-2.146a8.82,8.82,0,0,0,7.5-9.966l-4.235-30.035A8.821,8.821,0,0,0,3236.557,413.612Z" transform="translate(-3186.123 -413.524)" fill="#ff3131"/>
        <path id="Path_8595" data-name="Path 8595" d="M3227.546,427.386h0a8.839,8.839,0,0,0-12.379,1.746h0l-.257-.193a8.84,8.84,0,0,0-12.379,1.746h0a8.841,8.841,0,0,0,1.745,12.38l14.381,10.826h0l10.633-14.125A8.84,8.84,0,0,0,3227.546,427.386Z" transform="translate(-3184.035 -411.8)" fill="#fff"/>
      </g>
      <g id="Group_4060" data-name="Group 4060" transform="translate(3368.431 402.952)">
        <path id="Path_8596" data-name="Path 8596" d="M3345.322,402.263l-20.633-6.5a4.41,4.41,0,0,0-5.531,2.881L3314.6,413.1a4.412,4.412,0,0,0,2.881,5.532l7.232,2.279,1.707,5.341,4.365-3.428,7.328,2.309a4.408,4.408,0,0,0,5.531-2.881l4.558-14.463A4.41,4.41,0,0,0,3345.322,402.263Z" transform="translate(-3314.396 -395.556)" fill="#ff3131"/>
        <path id="Path_8597" data-name="Path 8597" d="M3337.6,406.789h0a4.421,4.421,0,0,0-5.961-1.879h0l-.074-.142a4.421,4.421,0,0,0-5.963-1.879h0a4.42,4.42,0,0,0-1.877,5.962l4.156,7.982h0l7.84-4.083A4.422,4.422,0,0,0,3337.6,406.789Z" transform="translate(-3313.136 -394.581)" fill="#fff"/>
      </g>
      <g id="Group_4061" data-name="Group 4061" transform="translate(3027.902 358.386)">
        <path id="Path_8598" data-name="Path 8598" d="M3047.323,363.263l-20.633-6.5a4.41,4.41,0,0,0-5.531,2.881L3016.6,374.1a4.412,4.412,0,0,0,2.881,5.532l7.232,2.279,1.707,5.341,4.365-3.428,7.328,2.309a4.408,4.408,0,0,0,5.531-2.881l4.558-14.463A4.41,4.41,0,0,0,3047.323,363.263Z" transform="translate(-3016.396 -356.556)" fill="#ff3131"/>
        <path id="Path_8599" data-name="Path 8599" d="M3039.6,367.789h0a4.421,4.421,0,0,0-5.961-1.879h0l-.074-.142a4.421,4.421,0,0,0-5.963-1.879h0a4.42,4.42,0,0,0-1.877,5.962l4.156,7.982h0l7.84-4.083A4.422,4.422,0,0,0,3039.6,367.789Z" transform="translate(-3015.136 -355.581)" fill="#fff"/>
      </g>
    </g>
  </g>
</svg>
