<svg xmlns="http://www.w3.org/2000/svg" width="413.908" height="324.182" viewBox="0 0 413.908 324.182">
  <g id="Group_4029" data-name="Group 4029" transform="translate(-2293.203 -702.489)">
    <g id="Group_4020" data-name="Group 4020" transform="translate(2390.284 702.489)">
      <path id="Path_8434" data-name="Path 8434" d="M2648.251,702.489H2355.991a12.284,12.284,0,0,0-12.283,12.285V970.83h316.827V714.774A12.283,12.283,0,0,0,2648.251,702.489Z" transform="translate(-2343.708 -702.489)" fill="#fff"/>
      <path id="Path_8435" data-name="Path 8435" d="M2648.251,702.489H2355.991c-6.783,0-12.283,2.649-12.283,5.915v14.29h316.827V708.4C2660.534,705.138,2655.035,702.489,2648.251,702.489Z" transform="translate(-2343.708 -702.489)" fill="#2a9d8e"/>
      <rect id="Rectangle_826" data-name="Rectangle 826" width="73.062" height="39.868" rx="1.631" transform="translate(155.091 155.733)" fill="#e9c464"/>
      <g id="Group_4016" data-name="Group 4016" transform="translate(155.091 41.994)">
        <rect id="Rectangle_827" data-name="Rectangle 827" width="148.228" height="80.885" rx="3.31" fill="#e76f50"/>
        <path id="Path_8436" data-name="Path 8436" d="M2486.32,750.683,2459.9,737.816a2.066,2.066,0,0,0-2.969,1.859v25.732a2.067,2.067,0,0,0,2.969,1.859L2486.32,754.4A2.067,2.067,0,0,0,2486.32,750.683Z" transform="translate(-2394.389 -712.098)" fill="#f4a25d"/>
      </g>
      <path id="Rectangle_828" data-name="Rectangle 828" d="M1.06,0H64.619A1.061,1.061,0,0,1,65.68,1.061V8.788a1.061,1.061,0,0,1-1.061,1.061H1.06A1.06,1.06,0,0,1,0,8.789V1.06A1.06,1.06,0,0,1,1.06,0Z" transform="translate(237.639 155.733)" fill="#ceebf0"/>
      <path id="Rectangle_829" data-name="Rectangle 829" d="M1.06,0H48.006a1.061,1.061,0,0,1,1.061,1.061V8.789a1.061,1.061,0,0,1-1.061,1.061H1.061A1.061,1.061,0,0,1,0,8.789V1.06A1.06,1.06,0,0,1,1.06,0Z" transform="translate(237.639 172.631)" fill="#ceebf0"/>
      <rect id="Rectangle_830" data-name="Rectangle 830" width="73.062" height="39.868" rx="1.631" transform="translate(155.091 213.078)" fill="#e9c464"/>
      <path id="Rectangle_831" data-name="Rectangle 831" d="M1.06,0H64.619A1.061,1.061,0,0,1,65.68,1.061V8.788a1.061,1.061,0,0,1-1.061,1.061H1.06A1.06,1.06,0,0,1,0,8.789V1.06A1.06,1.06,0,0,1,1.06,0Z" transform="translate(237.639 213.078)" fill="#ceebf0"/>
      <path id="Rectangle_832" data-name="Rectangle 832" d="M1.06,0H48.006a1.061,1.061,0,0,1,1.061,1.061V8.789a1.06,1.06,0,0,1-1.06,1.06H1.06A1.06,1.06,0,0,1,0,8.789V1.06A1.06,1.06,0,0,1,1.06,0Z" transform="translate(237.639 229.976)" fill="#ceebf0"/>
      <g id="Group_4017" data-name="Group 4017" transform="translate(4.319 31.673)">
        <path id="Rectangle_833" data-name="Rectangle 833" d="M1.06,0H54.652a1.06,1.06,0,0,1,1.06,1.06V8.788a1.061,1.061,0,0,1-1.061,1.061H1.06A1.06,1.06,0,0,1,0,8.788V1.06A1.06,1.06,0,0,1,1.06,0Z" transform="translate(71.773 20.999)" fill="#ceebf0"/>
        <path id="Rectangle_834" data-name="Rectangle 834" d="M1.06,0H38.038A1.06,1.06,0,0,1,39.1,1.06V8.789a1.061,1.061,0,0,1-1.061,1.061H1.061A1.061,1.061,0,0,1,0,8.789V1.06A1.06,1.06,0,0,1,1.06,0Z" transform="translate(71.773 37.897)" fill="#ceebf0"/>
        <circle id="Ellipse_47" data-name="Ellipse 47" cx="25.974" cy="25.974" r="25.974" transform="translate(0 21.418) rotate(-24.35)" fill="#e9c464"/>
      </g>
      <g id="Group_4018" data-name="Group 4018" transform="translate(12.718 121.109)">
        <path id="Rectangle_835" data-name="Rectangle 835" d="M1.061,0H54.652a1.06,1.06,0,0,1,1.06,1.06V8.788a1.061,1.061,0,0,1-1.061,1.061H1.06A1.06,1.06,0,0,1,0,8.789V1.061A1.061,1.061,0,0,1,1.061,0Z" transform="translate(63.374 12.6)" fill="#ceebf0"/>
        <path id="Rectangle_836" data-name="Rectangle 836" d="M1.061,0H38.038A1.06,1.06,0,0,1,39.1,1.06V8.789a1.06,1.06,0,0,1-1.06,1.06H1.06A1.06,1.06,0,0,1,0,8.789V1.061A1.061,1.061,0,0,1,1.061,0Z" transform="translate(63.374 29.498)" fill="#ceebf0"/>
        <circle id="Ellipse_48" data-name="Ellipse 48" cx="25.974" cy="25.974" r="25.974" fill="#e9c464"/>
      </g>
      <g id="Group_4019" data-name="Group 4019" transform="translate(9.02 198.448)">
        <path id="Rectangle_837" data-name="Rectangle 837" d="M1.06,0H54.652a1.06,1.06,0,0,1,1.06,1.06V8.789a1.061,1.061,0,0,1-1.061,1.061H1.06A1.06,1.06,0,0,1,0,8.789V1.06A1.06,1.06,0,0,1,1.06,0Z" transform="translate(67.072 16.298)" fill="#ceebf0"/>
        <path id="Rectangle_838" data-name="Rectangle 838" d="M1.06,0H38.038A1.06,1.06,0,0,1,39.1,1.06V8.788a1.061,1.061,0,0,1-1.061,1.061H1.06A1.06,1.06,0,0,1,0,8.788V1.06A1.06,1.06,0,0,1,1.06,0Z" transform="translate(67.072 33.197)" fill="#ceebf0"/>
        <circle id="Ellipse_49" data-name="Ellipse 49" cx="25.974" cy="25.974" r="25.974" transform="matrix(0.154, -0.988, 0.988, 0.154, 0, 51.325)" fill="#e9c464"/>
      </g>
    </g>
    <g id="Group_4022" data-name="Group 4022" transform="translate(2293.203 817.623)">
      <path id="Path_8437" data-name="Path 8437" d="M2415.422,937.277H2305.1a11.893,11.893,0,0,1-11.893-11.895v-151.1a11.894,11.894,0,0,1,11.893-11.895h110.326a11.894,11.894,0,0,1,11.893,11.895v151.1A11.893,11.893,0,0,1,2415.422,937.277Z" transform="translate(-2293.203 -762.386)" fill="#f04aea"/>
      <path id="Path_8438" data-name="Path 8438" d="M2415.422,937.277H2305.1a11.893,11.893,0,0,1-11.893-11.895v-151.1a11.894,11.894,0,0,1,11.893-11.895h110.326a11.894,11.894,0,0,1,11.893,11.895v151.1A11.893,11.893,0,0,1,2415.422,937.277Z" transform="translate(-2293.203 -762.386)" fill="#2a9d8e"/>
      <path id="Path_8439" data-name="Path 8439" d="M2427.315,785.279V773.86c0-6.336-3.539-11.474-7.9-11.474h-118.3c-4.365,0-7.9,5.138-7.9,11.474v11.42Z" transform="translate(-2293.203 -762.386)" fill="#264653"/>
      <path id="Path_8440" data-name="Path 8440" d="M2360.6,769.714a2.713,2.713,0,1,0-2.712,2.712A2.714,2.714,0,0,0,2360.6,769.714Z" transform="translate(-2236.05 -758.131)" fill="#f7f7f7"/>
      <path id="Path_8441" data-name="Path 8441" d="M2355.973,769.714a2.713,2.713,0,1,0-2.712,2.712A2.713,2.713,0,0,0,2355.973,769.714Z" transform="translate(-2240.32 -758.131)" fill="#f7f7f7"/>
      <path id="Path_8442" data-name="Path 8442" d="M2351.343,769.714a2.713,2.713,0,1,0-2.712,2.712A2.713,2.713,0,0,0,2351.343,769.714Z" transform="translate(-2244.59 -758.131)" fill="#f7f7f7"/>
      <g id="Group_4021" data-name="Group 4021" transform="translate(11.572 36.11)">
        <path id="Path_8443" data-name="Path 8443" d="M2303.907,799.974l-.889,5.561h-3.795l4.1-24.2h5.032l4.046,24.2h-3.821l-.863-5.561Zm1.911-13.1-1.355,9.54h2.707Z" transform="translate(-2299.223 -781.025)" fill="#f7f7f7"/>
        <path id="Path_8444" data-name="Path 8444" d="M2307.68,805.535v-24.2h5.455a6.954,6.954,0,0,1,3.9,1.142,5.294,5.294,0,0,1,2.12,2.985,8.464,8.464,0,0,1,.346,2.574,5.711,5.711,0,0,1-1.288,3.9,3.731,3.731,0,0,1-1.272.942,4.246,4.246,0,0,1,2.057,1.832,6.907,6.907,0,0,1,.838,2.387,9.992,9.992,0,0,1,.131,1.686,8.14,8.14,0,0,1-.863,3.9,5.611,5.611,0,0,1-4.671,2.854Zm3.927-14.318h1.528a2.245,2.245,0,0,0,2.282-1.659,4.868,4.868,0,0,0,.209-1.526,3.208,3.208,0,0,0-.726-2.282,2.316,2.316,0,0,0-1.765-.717h-1.528Zm0,10.708h1.528a2.589,2.589,0,0,0,2.57-1.911,4.1,4.1,0,0,0,.256-1.5,4.557,4.557,0,0,0-.784-2.96,2.477,2.477,0,0,0-2.042-.848h-1.528Z" transform="translate(-2291.424 -781.025)" fill="#f7f7f7"/>
        <path id="Path_8445" data-name="Path 8445" d="M2321.481,805.988a5.749,5.749,0,0,1-5.786-5.772V786.958a5.778,5.778,0,1,1,11.556,0v2.76h-3.781V786.89a2.1,2.1,0,1,0-4.192,0v13.284a2.1,2.1,0,0,0,4.192,0v-3.331h3.781v3.371a5.762,5.762,0,0,1-5.77,5.772Z" transform="translate(-2284.032 -781.172)" fill="#f7f7f7"/>
      </g>
      <rect id="Rectangle_839" data-name="Rectangle 839" width="115.332" height="7.689" transform="translate(11.143 68.457)" fill="#f7f7f7"/>
      <rect id="Rectangle_840" data-name="Rectangle 840" width="115.332" height="7.689" transform="translate(11.143 83.835)" fill="#f7f7f7"/>
      <rect id="Rectangle_841" data-name="Rectangle 841" width="115.332" height="7.689" transform="translate(11.143 99.212)" fill="#f7f7f7"/>
      <rect id="Rectangle_842" data-name="Rectangle 842" width="48.055" height="49.977" rx="3.855" transform="translate(11.143 114.59)" fill="#e76f50"/>
      <rect id="Rectangle_843" data-name="Rectangle 843" width="61.51" height="49.977" rx="3.855" transform="translate(64.965 114.59)" fill="#e9c464"/>
    </g>
    <g id="Group_4028" data-name="Group 4028" transform="translate(2438.058 800.547)">
      <g id="Group_4023" data-name="Group 4023" transform="translate(39.057 212.594)">
        <path id="Path_8446" data-name="Path 8446" d="M2394.67,864.1s-.275,7.083.094,8.7c.292,1.278,4.259,1.4,4.741.727s1.1-8.9,1.1-8.9" transform="translate(-2383.633 -864.102)" fill="#ffd3b3"/>
        <path id="Path_8447" data-name="Path 8447" d="M2405.854,870.612a27.788,27.788,0,0,1-.379,3.581h-4.794l-.237-.8a7.544,7.544,0,0,1-2.778.8h-4.046c-2.964,0-4.646-.377-4.721-.9-.313-2.178,3.228-2.08,4.148-2.08,2.647,0,5.513-1.238,6.136-2.582.454-.975.254-1.222.8-1.04a1.376,1.376,0,0,1,.821.709,2.432,2.432,0,0,0,2.5,1.365,2.889,2.889,0,0,0,1.62-.78A1.745,1.745,0,0,1,2405.854,870.612Z" transform="translate(-2388.881 -860.934)" fill="#004991"/>
      </g>
      <g id="Group_4024" data-name="Group 4024" transform="translate(93.033 210.219)">
        <path id="Path_8448" data-name="Path 8448" d="M2420.563,866.116s1.311,3.527,1.885,4.706,4.475-.273,4.673-1.082-2.968-6.874-2.968-6.874" transform="translate(-2413.64 -862.866)" fill="#ffd3b3"/>
        <path id="Path_8449" data-name="Path 8449" d="M2431.892,866.923c.5,1.265,1.251,3.716,1.251,3.716l-3.634,2.168-.713-.538a7.1,7.1,0,0,1-1.912,2,15.547,15.547,0,0,1-3.6,1.49c-3.32.759-5.886.392-6.149-.063-1.1-1.909,3.3-2.958,4.16-3.3a5.934,5.934,0,0,0,3.667-4.842c.06-1.073-.217-1.228.36-1.261,0,0,1.118-.19,1.784,1.482.044-.012,2.622-.469,3.285-2.114A1.751,1.751,0,0,1,2431.892,866.923Z" transform="translate(-2416.961 -860.289)" fill="#004991"/>
      </g>
      <g id="Group_4026" data-name="Group 4026" transform="translate(47.159 95.157)">
        <path id="Path_8450" data-name="Path 8450" d="M2424.434,830.1s.377-2.432.685-4.016c.976-5.027,2.5-15.12-5.728-23.076,0,0-9.7,4.342-17.463,4.867-6.117.411-7.52-.006-7.52-.006s-.4,8.254,2.07,28.944Z" transform="translate(-2391.907 -803.007)" fill="#004991"/>
        <g id="Group_4025" data-name="Group 4025" transform="translate(6.746 7.867)">
          <path id="Path_8451" data-name="Path 8451" d="M2441.563,888.585a33.508,33.508,0,0,1-6.24,3.027l-.575-1.009q-.6-1.119-1.257-2.281l-.015-.015a.8.8,0,0,0-.062-.125c-1.382-2.422-2.9-4.982-4.5-7.622l-.016-.015a.115.115,0,0,0-.031-.061c-8.631-14.142-19.635-30.067-23.547-36.337-.016-.031-.048-.046-.048-.079a9.758,9.758,0,0,1-.76-1.49c-.031-.092-.079-.186-.11-.263a4.09,4.09,0,0,1-.247-.792c-.031-.156-.062-.311-.093-.481a.654.654,0,0,1-.017-.079,3.309,3.309,0,0,1,.792-2.808,2.811,2.811,0,0,1,.5-.452c2.11-1.52,6.347-1.178,9.84,1.29.171.123.357.263.544.4.092.061.186.138.279.2a33.7,33.7,0,0,1,8.383,8.411C2432.359,860.056,2437.094,878.263,2441.563,888.585Z" transform="translate(-2389.779 -779.721)" fill="#004991"/>
          <path id="Path_8452" data-name="Path 8452" d="M2422.856,868.2c.138,6.628-2.3,8.148-4.985,7.481a7.6,7.6,0,0,1-1.38-.513,12.1,12.1,0,0,1-4.517-4.019c-.015-.031-.047-.046-.031-.077a8.348,8.348,0,0,1-.605-1.119c-.031-.092-.079-.186-.11-.263a4.093,4.093,0,0,1-.247-.792c-.031-.156-.062-.311-.093-.481a.662.662,0,0,1-.017-.079c-.652-3.306-2.2-8.971-4.081-15.583-1.073-3.741-2.236-7.777-3.4-11.845-3.539-12.216-6.875-24.2-6.783-27.707.342-12.6,14.979-2.576,22,2.361,2.949,2.1,3.71,5.7,3.755,9.017.062,3.12.342,33.838.466,42.392.015.217.015.419.015.605C2422.856,867.815,2422.856,868.017,2422.856,868.2Z" transform="translate(-2396.605 -807.1)" fill="#004991"/>
          <path id="Path_8453" data-name="Path 8453" d="M2413.132,834.363s.307,6.532,6.988,13.9c0,0-9.655-2.924-10.182-3.479s-3-6.724-2.919-7.427S2413.132,834.363,2413.132,834.363Z" transform="translate(-2387.004 -781.958)" fill="#004991"/>
        </g>
        <path id="Path_8454" data-name="Path 8454" d="M2435.354,907.857c-1.382-2.422-2.9-4.982-4.5-7.622l-.016-.015a.115.115,0,0,0-.031-.061c-8.631-14.142-19.635-30.067-23.547-36.337-.016-.031-.048-.046-.048-.079a9.758,9.758,0,0,1-.76-1.49c-.031-.092-.079-.186-.11-.263a4.093,4.093,0,0,1-.247-.792c-.031-.156-.062-.311-.093-.481a.654.654,0,0,1-.017-.079c-.652-3.306-2.2-8.971-4.081-15.583l11.035-29.6h4.021s-4.533,13.676-6.38,19.837-2.356,15.773-2.518,19.3c-.357,7.744,9.15,20.873,11.868,25.659C2422.852,885.4,2434.36,905.9,2435.354,907.857Z" transform="translate(-2384.973 -791.529)" fill="#003f72"/>
        <path id="Path_8455" data-name="Path 8455" d="M2402.049,899.789c-.2.014-.394.012-.576.012a32.952,32.952,0,0,1-6.345-.473l.008-1.165c.328-17.861-1.663-47.069-2.03-56.3-.026-.648.008-6.191,0-6.73-.172-7.95,7.784-.865,10.683,5.359a24.7,24.7,0,0,1,1.63,4.784c.506,2.08.523,4.392,1.042,6.747C2409.517,865.949,2403.31,888.281,2402.049,899.789Z" transform="translate(-2393.095 -776.635)" fill="#004991"/>
        <path id="Path_8456" data-name="Path 8456" d="M2420.976,825.063c-.032.181-13.16,32.752-15.722,39.824v.015a4.3,4.3,0,0,1-3.131,2.168c-3.533.869-8.736-.567-9.013-7.583a16.91,16.91,0,0,1,.092-2.526c.6-5.674,2.632-37.062,2.96-40.088.313-3.027.971-7.435,2.585-7.956C2406.8,806.351,2423.35,813.744,2420.976,825.063Z" transform="translate(-2393.095 -798.026)" fill="#004991"/>
        <path id="Path_8457" data-name="Path 8457" d="M2401.917,834.876c-1.79,8.339-1.784,6.318-1.036,12.54.726,6.053-1.953-5.3-1.953-5.3l1.676-4.235Z" transform="translate(-2387.717 -773.618)" fill="#004991"/>
      </g>
      <path id="Path_8458" data-name="Path 8458" d="M2384.3,790.287a8.309,8.309,0,0,0-1.978-.146,6.413,6.413,0,0,1-.689.438v.348a.831.831,0,0,0-.132.019c-.083.042-1.319.834-1.444.932s-1.638,1.814-1.638,1.814.248.227.817.06,1.459-1.25,1.876-1.555c.19-.14.656-.438,1.1-.719a2.175,2.175,0,0,1,1.9.31C2384.817,792.538,2384.3,790.287,2384.3,790.287Z" transform="translate(-2359.474 -719.753)" fill="#ffc7a1"/>
      <path id="Path_8459" data-name="Path 8459" d="M2393.051,788.806s-3.21,1.032-4.208,1.217-3.764-.146-5.238,0c-.759.077-2.322,1.534-3.81,2.731-1.2,1.359-2.27,2.587-1.945,2.789.669.415,2.359-1.713,3.743-2.7a2.12,2.12,0,0,1,2.408-.388c.479.333.267.821-.139,1.078s-1.328.369-1.4.627,0,.759,1.329.509a7.02,7.02,0,0,0,2.766-1.136,3.417,3.417,0,0,1,1.882-.59c1-.111,5.905-.98,5.905-.98" transform="translate(-2360.05 -720.946)" fill="#ffd3b3"/>
      <path id="Path_8460" data-name="Path 8460" d="M2409.083,786.229l-1.009,8.475-.108.853c-.279.016-.544.016-.823.031-1.272.048-2.593.079-3.911.125-9.484.217-19.574.125-19.574.125l-.581-3.768a226.315,226.315,0,0,1,22.577-5.267C2407.81,786.431,2409.083,786.229,2409.083,786.229Z" transform="translate(-2355.175 -723.322)" fill="#f4a25d"/>
      <g id="Group_4027" data-name="Group 4027" transform="translate(0 44.831)">
        <rect id="Rectangle_844" data-name="Rectangle 844" width="2.414" height="32.733" rx="0.628" transform="matrix(0.941, -0.338, 0.338, 0.941, 0, 0.817)" fill="#004991"/>
        <rect id="Rectangle_845" data-name="Rectangle 845" width="35.171" height="2.492" rx="0.648" transform="translate(10.898 29.819)" fill="#004991"/>
      </g>
      <path id="Path_8461" data-name="Path 8461" d="M2399.413,786.229,2398.4,794.7c-.279.263-.589.575-.93.884-1.272.048-2.593.079-3.912.125a75.991,75.991,0,0,1,2.422-8.909C2398.141,786.431,2399.413,786.229,2399.413,786.229Z" transform="translate(-2345.507 -723.322)" fill="#f29127"/>
      <path id="Path_8462" data-name="Path 8462" d="M2430.106,843.925c-4.3-1.753-10.741.186-22.862,3.152-12.139,2.979-14.717.248-14.717.248.435-.917.327-11.72,1.676-25.085.281-2.872.654-5.867,1.089-8.909,1.816-12.371,5.074-25.519,11.16-34.584,3.01-4.484,11.564-6.674,11.564-6.674,4.671,5.713,9.282,12.512,9.267,22.772s-2.716,20.3-2.33,26.217C2425.374,826.99,2430.106,843.925,2430.106,843.925Z" transform="translate(-2346.459 -736.377)" fill="#f4a25d"/>
      <path id="Path_8463" data-name="Path 8463" d="M2403.817,816.989a62.993,62.993,0,0,1-10.417.123c.281-2.872.654-5.867,1.089-8.909l.4-.015a5.055,5.055,0,0,0,4.765-3.771c.807-3.043,2.171-7.885,4.221-14.265,3.648-11.395,7.45-11.845,7.45-11.845s5.572-2.856,5.8,3.2C2417.353,787.466,2410.94,816.12,2403.817,816.989Z" transform="translate(-2345.656 -731.249)" fill="#f29127"/>
      <path id="Path_8464" data-name="Path 8464" d="M2408.327,824.243s4.131-1.492,6.493-8.581l-2.556-4.5-5.432,2.524s-.921,4.9-.726,5.14S2408.327,824.243,2408.327,824.243Z" transform="translate(-2333.964 -700.332)" fill="#004991"/>
      <path id="Path_8465" data-name="Path 8465" d="M2388.023,796.812l-.375-3.024a23.251,23.251,0,0,1-4.006.194c-1.29-.154-2.825-.838-4.688-1.194-1.878-.358-2.281.4-1.988.854.358.527,2.469.792,2.469.792s.3.263-.854.263h-1.188a4.933,4.933,0,0,1-1.405-.63c-.208-.206-.419-.417-.659-.673-1.23-1.3-2.006-1.713-1.876-.832a6.958,6.958,0,0,0,3.687,4.229,21.448,21.448,0,0,0,4.133,1.153,3.726,3.726,0,0,0,1.628-.04,16.07,16.07,0,0,1,3.531-.419c1.036.046,1.68.05,1.68.05C2390.423,797.721,2389.2,797.206,2388.023,796.812Z" transform="translate(-2364.064 -717.913)" fill="#ffd3b3"/>
      <path id="Path_8466" data-name="Path 8466" d="M2423.176,776.905s-3.8.444-7.452,11.845c-2.042,6.372-3.406,11.224-4.214,14.265a5.071,5.071,0,0,1-4.772,3.773l-26.682.7-.173,5.315s10.415,1.126,17.636,2.155a77.876,77.876,0,0,0,18.142.621c7.127-.873,14.118-32.17,13.776-35.367C2428.9,775.219,2423.176,776.905,2423.176,776.905Z" transform="translate(-2358.121 -732.173)" fill="#f4a25d"/>
      <path id="Path_8467" data-name="Path 8467" d="M2393.323,766.927s-.682,1.357.832,3.716c.141.221.729.531.8.8a8.861,8.861,0,0,1-.026,2.824c1.163,4.069,2.864,7.85,5.378,10.5,2.582,1.14,7.619-.65,11.879-2.9.909-.081,5.939-2.553,5.213-9.7s-6.312-13.7-6.691-13.853-11.416,1.878-11.858,1.974S2393.323,766.927,2393.323,766.927Z" transform="translate(-2345.869 -749.069)" fill="#ffd3b3"/>
      <path id="Path_8468" data-name="Path 8468" d="M2413.662,774.082s-2.92-.648-3.043-4.444-.611-3.923-2.935-1.8-18,10.4-19.349-7.151c1.74.554,6.153-.344,10.282-2.328,2.147-1.032,11.412-9.219,17.544-1.732,3.014-.534,7.185,2.161,8.308,8.986s-1.359,16.293-3.787,17.313c-1.563.655-2.3-.938-2.885-4.173-.247-1.686,4.15-4.95-.468-9.169A2.961,2.961,0,0,0,2413.662,774.082Z" transform="translate(-2350.327 -753.502)" fill="#004991"/>
      <path id="Path_8469" data-name="Path 8469" d="M2409.973,769.422s-.433,4.915,1.389,6.455c-2.8,3.385-9.1,3.892-9.1,3.892s1.434-2.309-1.787-8.3S2409.973,769.422,2409.973,769.422Z" transform="translate(-2339.617 -739.998)" fill="#ffd1ab"/>
      <path id="Path_8470" data-name="Path 8470" d="M2394.54,766.069s-1.021,4.523-.625,5.615,3.091.386,3.091.386Z" transform="translate(-2345.265 -741.914)" fill="#ffd3b3"/>
    </g>
  </g>
</svg>
