<svg xmlns="http://www.w3.org/2000/svg" width="503" height="282.672" viewBox="0 0 503 282.672">
  <g id="Group_4015" data-name="Group 4015" transform="translate(0 0)">
    <rect id="Rectangle_803" data-name="Rectangle 803" width="408.682" height="243.506" rx="16.227" transform="translate(45.497 39.165)" fill="#e9c464"/>
    <rect id="Rectangle_804" data-name="Rectangle 804" width="162.621" height="107.279" rx="6.617" transform="translate(61.674 54.491)" fill="#fff" opacity="0.3"/>
    <rect id="Rectangle_805" data-name="Rectangle 805" width="195.827" height="12.639" rx="6.319" transform="translate(239.621 54.491)" fill="#fff" opacity="0.3"/>
    <rect id="Rectangle_806" data-name="Rectangle 806" width="195.827" height="12.639" rx="6.319" transform="translate(239.621 78.151)" fill="#fff" opacity="0.3"/>
    <rect id="Rectangle_807" data-name="Rectangle 807" width="195.827" height="12.639" rx="6.319" transform="translate(239.621 125.472)" fill="#fff" opacity="0.3"/>
    <rect id="Rectangle_808" data-name="Rectangle 808" width="195.827" height="12.639" rx="6.319" transform="translate(239.621 101.811)" fill="#fff" opacity="0.3"/>
    <rect id="Rectangle_809" data-name="Rectangle 809" width="195.827" height="12.639" rx="6.319" transform="translate(239.621 149.132)" fill="#fff" opacity="0.3"/>
    <rect id="Rectangle_810" data-name="Rectangle 810" width="373.774" height="87.989" rx="7.422" transform="translate(59.546 177.654)" fill="#fff" opacity="0.3"/>
    <g id="Group_3995" data-name="Group 3995" transform="translate(426.153 16.348)">
      <path id="Path_8397" data-name="Path 8397" d="M2642.809,262.2a28.1,28.1,0,0,0-26.818,36.42l-12.909,11.114,17.949-1.746a28.075,28.075,0,1,0,21.778-45.788Z" transform="translate(-2603.082 -262.201)" fill="#2a9d8e"/>
      <g id="Group_3994" data-name="Group 3994" transform="translate(22.51 13.927)">
        <path id="Path_8398" data-name="Path 8398" d="M2650.45,305.742a2.579,2.579,0,1,0,2.579,2.579A2.581,2.581,0,0,0,2650.45,305.742Z" transform="translate(-2632.247 -282.597)" fill="#fff"/>
        <g id="Group_3993" data-name="Group 3993">
          <path id="Path_8399" data-name="Path 8399" d="M2649.715,298.138a8.98,8.98,0,0,0-6.313,2.6,1.661,1.661,0,0,0-.014,2.311h0a1.637,1.637,0,0,0,2.337.076,5.641,5.641,0,0,1,7.98,0,1.638,1.638,0,0,0,2.337-.076h0a1.661,1.661,0,0,0-.014-2.311A8.982,8.982,0,0,0,2649.715,298.138Z" transform="translate(-2631.512 -281.467)" fill="#fff"/>
          <path id="Path_8400" data-name="Path 8400" d="M2647.723,278.558a25.584,25.584,0,0,0-17.716,7.128,1.651,1.651,0,0,0-.027,2.315l.161.171a1.646,1.646,0,0,0,2.325.093,22.029,22.029,0,0,1,30.514,0,1.644,1.644,0,0,0,2.325-.092l.161-.172a1.65,1.65,0,0,0-.026-2.315A25.588,25.588,0,0,0,2647.723,278.558Z" transform="translate(-2629.52 -278.558)" fill="#fff"/>
          <path id="Path_8401" data-name="Path 8401" d="M2648.816,289.211a16.566,16.566,0,0,0-11.363,4.507,1.8,1.8,0,0,0-.094,2.547h0a1.773,1.773,0,0,0,2.514.061,13.045,13.045,0,0,1,17.886,0,1.773,1.773,0,0,0,2.514-.061h0a1.8,1.8,0,0,0-.094-2.548A16.57,16.57,0,0,0,2648.816,289.211Z" transform="translate(-2630.613 -280.141)" fill="#fff"/>
        </g>
      </g>
    </g>
    <g id="Group_3996" data-name="Group 3996" transform="translate(0 119.942)">
      <path id="Path_8402" data-name="Path 8402" d="M2214.3,386.935H2110.019a5.189,5.189,0,0,0-5.188,5.189v32.928a5.189,5.189,0,0,0,5.188,5.189h86.464c.434,3.48,2.879,10.352,15.442,10.352,0,0-5.169-.946-6.248-10.352h8.625a5.189,5.189,0,0,0,5.188-5.189V392.124A5.189,5.189,0,0,0,2214.3,386.935Z" transform="translate(-2102.9 -384.328)" fill="#f4a25d"/>
      <path id="Path_8403" data-name="Path 8403" d="M2212.034,383.873H2107.752a5.189,5.189,0,0,0-5.189,5.189v32.927a5.189,5.189,0,0,0,5.189,5.189h86.464c.434,3.481,2.879,10.352,15.442,10.352,0,0-5.17-.946-6.249-10.352h8.625a5.189,5.189,0,0,0,5.189-5.189V389.062A5.189,5.189,0,0,0,2212.034,383.873Z" transform="translate(-2102.563 -383.873)" fill="#ebfaff"/>
      <rect id="Rectangle_811" data-name="Rectangle 811" width="106.978" height="4.471" rx="0.551" transform="translate(3.439 4.042)" fill="#d1d1d1" opacity="0.5"/>
      <rect id="Rectangle_812" data-name="Rectangle 812" width="106.978" height="4.471" rx="0.551" transform="translate(3.439 11.568)" fill="#d1d1d1" opacity="0.5"/>
      <rect id="Rectangle_813" data-name="Rectangle 813" width="106.978" height="4.471" rx="0.551" transform="translate(3.439 19.094)" fill="#d1d1d1" opacity="0.5"/>
      <rect id="Rectangle_814" data-name="Rectangle 814" width="106.978" height="4.471" rx="0.551" transform="translate(3.439 26.62)" fill="#d1d1d1" opacity="0.5"/>
      <rect id="Rectangle_815" data-name="Rectangle 815" width="106.978" height="4.471" rx="0.551" transform="translate(3.439 34.146)" fill="#d1d1d1" opacity="0.5"/>
    </g>
    <g id="Group_3998" data-name="Group 3998" transform="translate(342.643 23.84)">
      <path id="Path_8404" data-name="Path 8404" d="M2559.908,271h-51.92a3.139,3.139,0,0,0-2.989,3.27v27.862a3.139,3.139,0,0,0,2.989,3.27h5.141c-.258,3.47-.461,9.229-.461,9.229l10.243-9.229h37a3.139,3.139,0,0,0,2.989-3.27V274.27A3.139,3.139,0,0,0,2559.908,271Z" transform="translate(-2505 -271)" fill="#e76f50"/>
      <g id="Group_3997" data-name="Group 3997" transform="translate(3.356 3.356)">
        <rect id="Rectangle_816" data-name="Rectangle 816" width="5.874" height="5.874" transform="translate(0 21.397)" fill="#f4a25d"/>
        <rect id="Rectangle_817" data-name="Rectangle 817" width="5.874" height="10.069" transform="translate(9.062 17.201)" fill="#f4a25d"/>
        <rect id="Rectangle_818" data-name="Rectangle 818" width="5.874" height="15.103" transform="translate(18.124 12.167)" fill="#f4a25d"/>
        <rect id="Rectangle_819" data-name="Rectangle 819" width="5.874" height="19.299" transform="translate(27.186 7.971)" fill="#f4a25d"/>
        <rect id="Rectangle_820" data-name="Rectangle 820" width="5.874" height="23.075" transform="translate(36.248 4.195)" fill="#f4a25d"/>
        <rect id="Rectangle_821" data-name="Rectangle 821" width="5.874" height="27.27" transform="translate(45.31)" fill="#f4a25d"/>
      </g>
    </g>
    <g id="Group_4000" data-name="Group 4000" transform="translate(143.856 171.736)">
      <path id="Path_8405" data-name="Path 8405" d="M2295.039,444.7h-19.533a3.982,3.982,0,0,0-3.982,3.982V462.38a3.981,3.981,0,0,0,3.982,3.981h6.846l2.92,4.137,2.828-4.137h6.938a3.981,3.981,0,0,0,3.982-3.981V448.687A3.982,3.982,0,0,0,2295.039,444.7Z" transform="translate(-2271.523 -444.705)" fill="#2eafff"/>
      <g id="Group_3999" data-name="Group 3999" transform="translate(6.184 2.91)">
        <rect id="Rectangle_822" data-name="Rectangle 822" width="3.976" height="7.779" rx="0.496" transform="translate(0 5.054)" fill="#fcfeff"/>
        <path id="Path_8406" data-name="Path 8406" d="M2285.213,454.24a1.353,1.353,0,0,1,.526-1.061c.683-.546,1.849-1.064,2.367-4.24.271-1.665,2.235-.548,2.339,1.261.085,1.477.023,2.708.023,2.708h2.973a1.429,1.429,0,0,1,1.428,1.43v5.722a1.429,1.429,0,0,1-1.428,1.43h-5.93a1.347,1.347,0,0,1-.757-.233l-.956-.652a1.344,1.344,0,0,1-.586-1.109Z" transform="translate(-2279.741 -448.123)" fill="#fcfeff"/>
      </g>
    </g>
    <g id="Group_4002" data-name="Group 4002" transform="translate(52.754 74.674)">
      <path id="Path_8407" data-name="Path 8407" d="M2184.157,330.705h-16.31a3.324,3.324,0,0,0-3.325,3.325v11.434a3.324,3.324,0,0,0,3.325,3.324h5.717l2.438,3.454,2.362-3.454h5.793a3.324,3.324,0,0,0,3.324-3.324V334.03A3.324,3.324,0,0,0,2184.157,330.705Z" transform="translate(-2164.523 -330.705)" fill="#2eafff"/>
      <g id="Group_4001" data-name="Group 4001" transform="translate(5.164 2.43)">
        <rect id="Rectangle_823" data-name="Rectangle 823" width="3.32" height="6.495" rx="0.496" transform="translate(0 4.22)" fill="#fcfeff"/>
        <path id="Path_8408" data-name="Path 8408" d="M2175.954,338.667a1.132,1.132,0,0,1,.438-.886c.571-.456,1.544-.889,1.977-3.54.226-1.39,1.866-.458,1.953,1.052.072,1.234.02,2.262.02,2.262h2.482a1.193,1.193,0,0,1,1.194,1.193v4.777a1.194,1.194,0,0,1-1.194,1.194h-4.951a1.122,1.122,0,0,1-.632-.195l-.8-.545a1.121,1.121,0,0,1-.489-.925Z" transform="translate(-2171.385 -333.559)" fill="#fcfeff"/>
      </g>
    </g>
    <g id="Group_4004" data-name="Group 4004" transform="translate(383.106 79.783)">
      <path id="Path_8409" data-name="Path 8409" d="M2572.157,336.7h-16.31a3.324,3.324,0,0,0-3.325,3.325v11.434a3.324,3.324,0,0,0,3.325,3.324h5.717l2.438,3.454,2.362-3.454h5.793a3.324,3.324,0,0,0,3.324-3.324V340.03A3.324,3.324,0,0,0,2572.157,336.7Z" transform="translate(-2552.523 -336.705)" fill="#2eafff"/>
      <g id="Group_4003" data-name="Group 4003" transform="translate(5.164 2.43)">
        <rect id="Rectangle_824" data-name="Rectangle 824" width="3.32" height="6.495" rx="0.496" transform="translate(0 4.22)" fill="#fcfeff"/>
        <path id="Path_8410" data-name="Path 8410" d="M2563.954,344.667a1.133,1.133,0,0,1,.438-.886c.57-.456,1.544-.889,1.977-3.54.226-1.39,1.866-.458,1.953,1.052.072,1.234.02,2.262.02,2.262h2.482a1.193,1.193,0,0,1,1.194,1.193v4.777a1.194,1.194,0,0,1-1.194,1.194h-4.951a1.122,1.122,0,0,1-.632-.195l-.8-.545a1.121,1.121,0,0,1-.489-.926Z" transform="translate(-2559.385 -339.559)" fill="#fcfeff"/>
      </g>
    </g>
    <g id="Group_4005" data-name="Group 4005" transform="translate(132.641 63.6)">
      <path id="Path_8411" data-name="Path 8411" d="M2277.99,317.7h-16.313a3.326,3.326,0,0,0-3.326,3.326v11.436a3.325,3.325,0,0,0,3.326,3.325h5.718l2.438,3.455,2.363-3.455h5.794a3.324,3.324,0,0,0,3.325-3.325V321.025A3.325,3.325,0,0,0,2277.99,317.7Z" transform="translate(-2258.351 -317.699)" fill="#ff3131"/>
      <path id="Path_8412" data-name="Path 8412" d="M2275.593,323.882h0a3.332,3.332,0,0,0-4.713,0h0l-.085-.085a3.334,3.334,0,0,0-4.714,0h0a3.334,3.334,0,0,0,0,4.713l4.8,4.8h0l4.713-4.713A3.332,3.332,0,0,0,2275.593,323.882Z" transform="translate(-2259.354 -318.46)" fill="#fff"/>
    </g>
    <g id="Group_4006" data-name="Group 4006" transform="translate(412.759 107.874)">
      <path id="Path_8413" data-name="Path 8413" d="M2606.99,369.7h-16.313a3.326,3.326,0,0,0-3.325,3.326v11.436a3.325,3.325,0,0,0,3.325,3.325h5.718l2.438,3.455,2.363-3.455h5.794a3.325,3.325,0,0,0,3.325-3.325V373.025A3.325,3.325,0,0,0,2606.99,369.7Z" transform="translate(-2587.351 -369.699)" fill="#ff3131"/>
      <path id="Path_8414" data-name="Path 8414" d="M2604.593,375.882h0a3.332,3.332,0,0,0-4.713,0h0l-.085-.085a3.334,3.334,0,0,0-4.714,0h0a3.334,3.334,0,0,0,0,4.713l4.8,4.8h0l4.713-4.713A3.332,3.332,0,0,0,2604.593,375.882Z" transform="translate(-2588.354 -370.46)" fill="#fff"/>
    </g>
    <g id="Group_4007" data-name="Group 4007" transform="translate(466.746 90.05)">
      <circle id="Ellipse_44" data-name="Ellipse 44" cx="12.818" cy="12.818" r="12.818" transform="translate(0 18.127) rotate(-45)" fill="#e76f50"/>
      <path id="Path_8415" data-name="Path 8415" d="M2670.641,360.3l2.493,5.052,5.574.81-4.034,3.932.952,5.552-4.986-2.621-4.986,2.621.952-5.552-4.034-3.932,5.575-.81Z" transform="translate(-2652.514 -350.478)" fill="#fff"/>
    </g>
    <g id="Group_4008" data-name="Group 4008" transform="translate(349.25 148.798)">
      <circle id="Ellipse_45" data-name="Ellipse 45" cx="12.818" cy="12.818" r="12.818" transform="translate(0 18.127) rotate(-45)" fill="#fff"/>
      <path id="Path_8416" data-name="Path 8416" d="M2532.642,429.3l2.493,5.052,5.575.81-4.034,3.932.952,5.552-4.986-2.621-4.986,2.621.952-5.552-4.034-3.932,5.575-.81Z" transform="translate(-2514.514 -419.478)" fill="#e9c464"/>
    </g>
    <g id="Group_4009" data-name="Group 4009" transform="translate(53.684 167.403)">
      <circle id="Ellipse_46" data-name="Ellipse 46" cx="11.068" cy="11.068" r="11.068" transform="translate(0 15.653) rotate(-45)" fill="#264653"/>
      <path id="Path_8417" data-name="Path 8417" d="M2182.784,449.575l2.153,4.362,4.814.7-3.483,3.4.823,4.794-4.306-2.264-4.306,2.264.822-4.794-3.483-3.4,4.814-.7Z" transform="translate(-2167.131 -441.095)" fill="#fff"/>
    </g>
    <g id="Group_4010" data-name="Group 4010" transform="translate(279.625 62.637)">
      <rect id="Rectangle_825" data-name="Rectangle 825" width="47.693" height="26.025" rx="2.404" fill="#2a9d8e"/>
      <path id="Path_8418" data-name="Path 8418" d="M2464.075,330.415l-8.5-4.14a.665.665,0,0,0-.956.6v8.28a.665.665,0,0,0,.956.6l8.5-4.14A.664.664,0,0,0,2464.075,330.415Z" transform="translate(-2434.496 -318)" fill="#fff"/>
    </g>
    <path id="Path_8419" data-name="Path 8419" d="M2292.18,366.047l3.556-2.649a22.063,22.063,0,0,0-6.788-6.788l-2.648,3.556a17.418,17.418,0,0,0-4.951-2.053l.643-4.392a21.517,21.517,0,0,0-9.6,0l.643,4.392a17.414,17.414,0,0,0-4.95,2.053l-2.649-3.556a22.046,22.046,0,0,0-6.787,6.788l3.556,2.649a17.4,17.4,0,0,0-2.053,4.95l-4.393-.642a21.551,21.551,0,0,0,0,9.6l4.393-.643a17.4,17.4,0,0,0,2.053,4.95l-3.556,2.649a22.046,22.046,0,0,0,6.787,6.788l2.649-3.556a17.389,17.389,0,0,0,4.95,2.053l-.643,4.392a21.52,21.52,0,0,0,9.6,0l-.643-4.392a17.394,17.394,0,0,0,4.951-2.053l2.648,3.556a22.054,22.054,0,0,0,6.788-6.788l-3.556-2.649a17.447,17.447,0,0,0,2.053-4.95l4.392.643a21.527,21.527,0,0,0,0-9.6l-4.392.643A17.447,17.447,0,0,0,2292.18,366.047Zm-14.988,20.773a11.664,11.664,0,1,1,11.664-11.664A11.665,11.665,0,0,1,2277.192,386.82Z" transform="translate(-2125.244 -259.37)" fill="#fff"/>
    <path id="Path_8420" data-name="Path 8420" d="M2648.18,411.047l3.557-2.649a22.067,22.067,0,0,0-6.789-6.788l-2.648,3.556a17.413,17.413,0,0,0-4.951-2.053l.643-4.392a21.519,21.519,0,0,0-9.6,0l.643,4.392a17.421,17.421,0,0,0-4.95,2.053l-2.649-3.556a22.042,22.042,0,0,0-6.787,6.788l3.556,2.649a17.39,17.39,0,0,0-2.053,4.95l-4.393-.642a21.551,21.551,0,0,0,0,9.6l4.393-.643a17.39,17.39,0,0,0,2.053,4.95l-3.556,2.649a22.042,22.042,0,0,0,6.787,6.788l2.649-3.556a17.4,17.4,0,0,0,4.95,2.053l-.643,4.392a21.519,21.519,0,0,0,9.6,0l-.643-4.392a17.39,17.39,0,0,0,4.951-2.053l2.648,3.556a22.059,22.059,0,0,0,6.789-6.788l-3.557-2.649a17.446,17.446,0,0,0,2.053-4.95l4.392.643a21.517,21.517,0,0,0,0-9.6l-4.392.643A17.446,17.446,0,0,0,2648.18,411.047Zm-14.988,20.773a11.664,11.664,0,1,1,11.664-11.664A11.665,11.665,0,0,1,2633.192,431.819Z" transform="translate(-2178.138 -266.056)" fill="#264653"/>
    <path id="Path_8421" data-name="Path 8421" d="M2236.706,350.615l1.779-1.325a11.034,11.034,0,0,0-3.4-3.395l-1.324,1.779a8.751,8.751,0,0,0-2.477-1.027l.322-2.2a10.753,10.753,0,0,0-4.8,0l.322,2.2a8.752,8.752,0,0,0-2.477,1.027l-1.325-1.779a11.031,11.031,0,0,0-3.4,3.4l1.779,1.324a8.7,8.7,0,0,0-1.027,2.477l-2.2-.322a10.795,10.795,0,0,0,0,4.8l2.2-.322a8.7,8.7,0,0,0,1.027,2.477l-1.779,1.325a11.037,11.037,0,0,0,3.4,3.395l1.325-1.779a8.7,8.7,0,0,0,2.477,1.027l-.322,2.2a10.786,10.786,0,0,0,4.8,0l-.322-2.2a8.7,8.7,0,0,0,2.477-1.027l1.324,1.779a11.035,11.035,0,0,0,3.4-3.395l-1.779-1.325a8.755,8.755,0,0,0,1.027-2.477l2.2.322a10.747,10.747,0,0,0,0-4.8l-2.2.322A8.754,8.754,0,0,0,2236.706,350.615Zm-7.5,10.391a5.834,5.834,0,1,1,5.835-5.834A5.834,5.834,0,0,1,2229.208,361.006Z" transform="translate(-2119.747 -258.033)" fill="#264653"/>
    <g id="Group_4012" data-name="Group 4012" transform="translate(68.066)">
      <g id="Group_4011" data-name="Group 4011">
        <path id="Path_8422" data-name="Path 8422" d="M2263.9,268.289a8.092,8.092,0,1,1-10.455-4.656A8.093,8.093,0,0,1,2263.9,268.289Z" transform="translate(-2192.276 -245.985)" fill="#2a9d8e"/>
        <path id="Path_8423" data-name="Path 8423" d="M2225.28,321.648a5.017,5.017,0,0,1-2.886,6.481h0a5.017,5.017,0,0,1-6.482-2.887l-11.057-28.823a5.016,5.016,0,0,1,2.887-6.481h0a5.017,5.017,0,0,1,6.481,2.887Z" transform="translate(-2185.778 -249.924)" fill="#258272"/>
        <path id="Path_8424" data-name="Path 8424" d="M2242.127,245.848l16.91,44.08a2.449,2.449,0,0,1-2.5,3.57l-33.156-.458-37.043-.506L2213.2,267.69l.336-.317,24.341-22.516A2.453,2.453,0,0,1,2242.127,245.848Z" transform="translate(-2183.077 -243.148)" fill="#dedede"/>
        <path id="Path_8425" data-name="Path 8425" d="M2199.927,305.161a1.943,1.943,0,0,1-2.509-1.118l-8.354-21.773a1.944,1.944,0,0,1,1.118-2.509l23.454-9,9.745,25.4Z" transform="translate(-2183.462 -247.125)" fill="#2a9d8e"/>
        <path id="Path_8426" data-name="Path 8426" d="M2192.2,306.225l3.684-1.413-7.2-18.772L2185,287.453a3.885,3.885,0,0,0-2.236,5.018l4.419,11.518A3.884,3.884,0,0,0,2192.2,306.225Z" transform="translate(-2182.508 -249.395)" fill="#258272"/>
        <path id="Path_8427" data-name="Path 8427" d="M2246.815,244.848l8.454,22.04-32.52,12.476-4.862-12.674.336-.317,24.341-22.516A2.453,2.453,0,0,1,2246.815,244.848Z" transform="translate(-2187.764 -243)" fill="#dedede"/>
      </g>
    </g>
    <g id="Group_4014" data-name="Group 4014" transform="translate(332.675 91.674)">
      <g id="Group_4013" data-name="Group 4013">
        <path id="Path_8428" data-name="Path 8428" d="M2550.1,403.96a3.3,3.3,0,0,1,0,4.659h0a3.3,3.3,0,0,1-4.659,0l-15.957-15.957a3.3,3.3,0,0,1,0-4.659h0a3.294,3.294,0,0,1,4.659,0Z" transform="translate(-2498.526 -356.075)" fill="#f28f46"/>
        <path id="Path_8429" data-name="Path 8429" d="M2513.03,350.672a19.738,19.738,0,1,0,19.738,19.738A19.738,19.738,0,0,0,2513.03,350.672Zm0,34.792a15.054,15.054,0,1,1,15.054-15.054A15.055,15.055,0,0,1,2513.03,385.464Z" transform="translate(-2493.292 -350.672)" fill="#f4a25d"/>
        <path id="Path_8430" data-name="Path 8430" d="M2527.86,371.447a13.78,13.78,0,0,1-25,8.014,13.632,13.632,0,0,1-2.588-8.014,13.812,13.812,0,0,1,13.793-13.793,13.835,13.835,0,0,1,13.793,13.793Z" transform="translate(-2494.329 -351.709)" fill="#e0e0e0" opacity="0.5"/>
        <path id="Path_8431" data-name="Path 8431" d="M2524.669,368.256a13.811,13.811,0,0,1-13.793,13.793,9.242,9.242,0,0,1-10.6-10.6,13.812,13.812,0,0,1,13.793-13.793,9.241,9.241,0,0,1,10.6,10.6Z" transform="translate(-2494.329 -351.709)" fill="#ebebeb" opacity="0.6"/>
        <path id="Path_8432" data-name="Path 8432" d="M2513.847,356.173a15.054,15.054,0,1,0,15.054,15.054A15.055,15.055,0,0,0,2513.847,356.173Zm0,28.847a13.793,13.793,0,1,1,13.793-13.793A13.812,13.812,0,0,1,2513.847,385.02Z" transform="translate(-2494.109 -351.489)" fill="#f28f46"/>
      </g>
      <path id="Path_8433" data-name="Path 8433" d="M2504.029,373.417a1.658,1.658,0,0,1-1.659-1.659,12.023,12.023,0,0,1,12.008-12.009,1.659,1.659,0,0,1,0,3.318,8.7,8.7,0,0,0-8.691,8.691A1.659,1.659,0,0,1,2504.029,373.417Z" transform="translate(-2494.641 -352.021)" fill="#fff"/>
    </g>
  </g>
</svg>
