<svg xmlns="http://www.w3.org/2000/svg" viewBox="0 0 173.94 226.95"><defs><style>.cls-1{isolation:isolate;}.cls-2{fill:#264653;}.cls-3{fill:#7970e5;opacity:0.38;mix-blend-mode:screen;}</style></defs><title>leaf3</title><g class="cls-1"><g id="Layer_2" data-name="Layer 2"><g id="Layer_1-2" data-name="Layer 1"><path class="cls-2" d="M168.72,221.8c-.29.26-.59.52-.91.77-14.42,11.52-35-2.59-49.14-8.8C99.73,205.42,77.41,198,61.05,185.41c-2.95-2.27-6-5.19-6-8.91C55,173,58,170,61.4,169s7-.39,10.4.58c1.29.37,2.68.78,3.91.28,1.83-.74,2.38-3.24,1.63-5.06a10.32,10.32,0,0,0-4-4.21c-12.8-8.8-28-13.45-41.46-21.18-12-6.87-25.31-19-27.75-33.48-2.36-14,11.72-23.41,12.83-37.33.86-10.7-5.65-20.37-10.79-29.79s-9-21.39-3.31-30.47C9.77-2.72,27.12-2,37.45,6S53.15,26.49,59.24,38C64.1,47.2,72.1,61.6,80.49,68c4.46,3.39,11.05,4.66,15.66,1.45,2.89-2,4.51-5.38,6.92-8,8.86-9.5,26.22-4.85,33.23,6.08s6.17,25.13,3.28,37.79c-1.24,5.48-2.83,11.12-1.69,16.62s6.13,10.69,11.67,9.79c3.46-.56,6.34-3.3,9.83-3.5,4.15-.25,7.73,3.31,9,7.26s.8,8.22.44,12.36a172.3,172.3,0,0,0,1.59,41.95C172.16,200.71,178.25,213.18,168.72,221.8Z"/><path class="cls-3" d="M19.17,19.33a375,375,0,0,0,42.49,90.31c.22,1.16.45,2.31.67,3.47a1.33,1.33,0,0,0,2.13.7c1,1.52,2,3,3.07,4.55-15.64-11.12-31.29-21.3-44.25-36a.93.93,0,0,0-1.42,1.2c13.7,16,29.7,32.43,49.57,40.52,0,0,.06,0,.09,0,21.37,29.92,47.79,59.85,78.76,79.8,1.33.86,3.22-1,1.95-2.17-14.22-12.91-28.17-25.57-41.39-38.94.32-26.83-6.3-55.42-17.86-79.57-.31-.65-1.47-.33-1.24.41a450.53,450.53,0,0,1,16.34,76.3A353,353,0,0,1,74.55,120.6c-3.48-4.81-6.82-9.73-10.09-14.71-1.68-22-10.23-43.75-21.09-62.62a.7.7,0,0,0-1.27.61c8.49,17.48,13.3,35.43,17.2,54A400.4,400.4,0,0,1,21.21,18.66C20.81,17.52,18.8,18.16,19.17,19.33Z"/></g></g></g></svg>