<svg xmlns="http://www.w3.org/2000/svg" viewBox="0 0 123.9 136.72"><defs><style>.cls-1{fill:#e76f50;}</style></defs><title>leaves2</title><g id="Layer_2" data-name="Layer 2"><g id="Layer_1-2" data-name="Layer 1"><path class="cls-1" d="M35.68,5.31c-7.08,15.26-8.93,32.21-6.92,48.82a93.93,93.93,0,0,0,5.61,23.65c.49,1.22.85.08.54-.68a88.91,88.91,0,0,1-5.23-21.8C27.55,38.82,29.45,22,36.48,6.83c.2-.44-.5-2.16-.8-1.52Z"/><path class="cls-1" d="M39.46,7.61a3.71,3.71,0,1,1-1.84-4.92A3.72,3.72,0,0,1,39.46,7.61Z"/><path class="cls-1" d="M54.41,6.3a3.71,3.71,0,1,1-1.84-4.91A3.71,3.71,0,0,1,54.41,6.3Z"/><path class="cls-1" d="M66.45,5.25A3.71,3.71,0,1,1,64.61.33,3.72,3.72,0,0,1,66.45,5.25Z"/><path class="cls-1" d="M81.79,26.87A3.71,3.71,0,1,1,80,22,3.71,3.71,0,0,1,81.79,26.87Z"/><path class="cls-1" d="M123.57,45.87A3.71,3.71,0,1,1,121.73,41,3.71,3.71,0,0,1,123.57,45.87Z"/><path class="cls-1" d="M110.17,39.78a3.71,3.71,0,1,1-1.85-4.92A3.73,3.73,0,0,1,110.17,39.78Z"/><path class="cls-1" d="M67.52,18a3.71,3.71,0,1,1-1.84-4.91A3.7,3.7,0,0,1,67.52,18Z"/><path class="cls-1" d="M71.31,27.86A3.71,3.71,0,1,1,69.47,23,3.7,3.7,0,0,1,71.31,27.86Z"/><path class="cls-1" d="M94.92,36.92A3.71,3.71,0,1,1,93.08,32,3.7,3.7,0,0,1,94.92,36.92Z"/><path class="cls-1" d="M50.39,4.23a137.85,137.85,0,0,0-13.89,51,112.48,112.48,0,0,0,.19,23.35c.14,1,1.55,1.44,1.38.16a110,110,0,0,1-.19-22.87A136.68,136.68,0,0,1,51.67,5.3c.39-.77-.74-2.14-1.28-1.07Z"/><path class="cls-1" d="M63.63,15.5c-9.3,14-16.94,29.31-21,45.7-1.46,6-2.8,12.4-2.51,18.58,0,.63,1,2,1,.76-.27-5.82,1-11.9,2.32-17.52C47.37,46.61,55,31.25,64.33,17.25c.34-.51-.41-2.18-.7-1.75Z"/><path class="cls-1" d="M67.25,26.22A415.42,415.42,0,0,1,47,66.36a153.64,153.64,0,0,1-8.23,13l.57.81c-.75-3-.68-8.29-.42-12,.86-12.13,4.51-24,9.23-35.18A200,200,0,0,1,63.27,4.55c.28-.44-.5-2-.62-1.77-9.34,14.84-17.4,30.8-21.74,47.87-2.09,8.24-3.44,16.93-2.72,25.45a26.39,26.39,0,0,0,.62,4.25c0,.07.36,1.11.57.82a153.64,153.64,0,0,0,8.23-13A414.44,414.44,0,0,0,67.87,28c.22-.48-.56-1.91-.62-1.76Z"/><path class="cls-1" d="M91.22,34.5c-7.49,15.82-18,32.07-34,40.37-4.91,2.54-11.17,4.92-16.85,4.35l.51,1.88c2.81.26,5.94-1.34,8.22-2.74,8.4-5.17,14.13-14.24,18.56-22.79a175.61,175.61,0,0,0,11.51-29.3c.13-.44-.58-2.11-.76-1.54-4.6,15-10.3,30.73-20.35,43.06-3.83,4.71-8.82,9.57-14.92,11.09a8.36,8.36,0,0,1-2.77.34c-.28,0-.07,1.82.51,1.88,3.66.36,7.64-.67,11-1.85,9.65-3.34,17.8-10.15,24.32-17.86A113.83,113.83,0,0,0,91.87,36.26c.24-.5-.53-2-.65-1.76Z"/><path class="cls-1" d="M106.29,37.51C93.2,59.08,71.82,80.69,44.78,80.9a26,26,0,0,1-4.66-.28.4.4,0,0,0-.4.21c-6.86,11.79-15.3,22.73-23.53,33.58Q8.29,124.82.13,135.06c-.45.55.37,2.24,1,1.46,12.7-15.86,25.41-32,36.42-49.07.68-1.06,1.36-2.12,2-3.2a14.12,14.12,0,0,0,.81-1.73c.2-.11,1,.12,1.24.14a38.11,38.11,0,0,0,6.41,0,59.33,59.33,0,0,0,24.33-7.61c14.9-8.28,26.2-21.68,34.94-36.08.37-.61-.49-2.3-1-1.46Z"/><path class="cls-1" d="M119.19,43.35c-8.1,14.28-19.84,26.2-34.94,32.95a76.58,76.58,0,0,1-31.47,6.55,56.64,56.64,0,0,1-9.29-.69c-.76-.12-.45,1.77.22,1.88,20,3.38,42.19-3.35,57.64-16.21a82.59,82.59,0,0,0,18.78-23c.31-.55-.49-2.27-.94-1.48Z"/><path class="cls-1" d="M37.47,86.07c-11.12-22-14.46-37.32,16-19s7.49,21-2.81,19.58S37.47,86.07,37.47,86.07Z"/></g></g></svg>