<svg xmlns="http://www.w3.org/2000/svg" viewBox="0 0 95.48 213.31"><defs><style>.cls-1{fill:#305966;}.cls-2{fill:#264653;}.cls-3{fill:none;stroke:#1f7264;stroke-miterlimit:10;}</style></defs><title>leaf4</title><g id="Layer_2" data-name="Layer 2"><g id="Layer_1-2" data-name="Layer 1"><g id="Group_3986" data-name="Group 3986"><path id="Path_8378" data-name="Path 8378" class="cls-1" d="M9.32,27.39l9.76,24.09L7.69,36.32c-.07.72-.13,1.44-.17,2.17C6.18,60,20.64,84,20.64,84L1.45,61.71a82.88,82.88,0,0,0,.67,34.07L28.84,118.2,5.54,107.58c7.77,23.32,18.55,32.85,18.55,32.85L11.43,139.1s2.8,14.15,8.79,25.91,18.49,19.23,18.49,19.23l-7.73,1s6.49,22.22,32.34,28.09L22.32,2.09A66.32,66.32,0,0,0,9.32,27.39Z"/><path id="Path_8379" data-name="Path 8379" class="cls-2" d="M22.32,2.09l41,211.22s16.6-9.46,23.34-20.54,3-18.48,3-18.48l-9.91,6.84S90.2,163,94.14,147.42s-2-31.57-2-31.57l-16,13.2S85.83,104.3,86.5,87.54,77.71,52.6,77.71,52.6L64.82,65.89s3.65-18.39.94-33.21-7-20.6-7-20.6L51,25.08S47.36,12.18,42,4.19,22.32,2.09,22.32,2.09Z"/><g id="Group_3984" data-name="Group 3984"><line id="Line_1" data-name="Line 1" class="cls-3" x1="16.91" y1="26.97" x2="26.25" y2="48.13"/><line id="Line_2" data-name="Line 2" class="cls-3" x1="22.48" y1="58.51" x2="31.42" y2="70.41"/><line id="Line_3" data-name="Line 3" class="cls-3" x1="17.33" y1="62.38" x2="34.48" y2="85.22"/><line id="Line_4" data-name="Line 4" class="cls-3" x1="23.54" y1="87.39" x2="35.46" y2="100.58"/><line id="Line_5" data-name="Line 5" class="cls-3" x1="9.82" y1="85.87" x2="38.85" y2="117.16"/><line id="Line_6" data-name="Line 6" class="cls-3" x1="28.84" y1="118.19" x2="41.83" y2="130.51"/><line id="Line_7" data-name="Line 7" class="cls-3" x1="15.03" y1="118.94" x2="46.34" y2="146.74"/><line id="Line_8" data-name="Line 8" class="cls-3" x1="28.16" y1="145.81" x2="48.13" y2="163.01"/><line id="Line_9" data-name="Line 9" class="cls-3" x1="22.38" y1="154.18" x2="48.62" y2="175.73"/><line id="Line_10" data-name="Line 10" class="cls-3" x1="34.79" y1="173.16" x2="51.58" y2="186.37"/><line id="Line_11" data-name="Line 11" class="cls-3" x1="41.8" y1="188.16" x2="56.92" y2="198.06"/><line id="Line_12" data-name="Line 12" class="cls-3" x1="43.14" y1="197.78" x2="56.83" y2="204.66"/></g><g id="Group_3985" data-name="Group 3985"><line id="Line_13" data-name="Line 13" class="cls-3" x1="44.18" y1="42.86" x2="40.18" y2="57.2"/><line id="Line_14" data-name="Line 14" class="cls-3" x1="50.38" y1="44.59" x2="42.7" y2="72.1"/><line id="Line_15" data-name="Line 15" class="cls-3" x1="53.69" y1="70.15" x2="47.38" y2="86.77"/><line id="Line_16" data-name="Line 16" class="cls-3" x1="65.92" y1="63.75" x2="50.25" y2="103.44"/><line id="Line_17" data-name="Line 17" class="cls-3" x1="59.95" y1="100.77" x2="52.33" y2="116.97"/><line id="Line_18" data-name="Line 18" class="cls-3" x1="73.09" y1="96.44" x2="54.03" y2="133.73"/><line id="Line_19" data-name="Line 19" class="cls-3" x1="70.62" y1="126.25" x2="58.28" y2="149.53"/><line id="Line_20" data-name="Line 20" class="cls-3" x1="79.06" y1="131.94" x2="62.45" y2="161.56"/><line id="Line_21" data-name="Line 21" class="cls-3" x1="74.4" y1="154.13" x2="63.56" y2="172.55"/><line id="Line_22" data-name="Line 22" class="cls-3" x1="73.32" y1="170.66" x2="62.83" y2="185.37"/><line id="Line_23" data-name="Line 23" class="cls-3" x1="75.57" y1="180.1" x2="65.32" y2="191.5"/></g></g></g></g></svg>