<svg xmlns="http://www.w3.org/2000/svg" viewBox="0 0 94.84 122.78"><defs><style>.cls-1{fill:#e9c464;}</style></defs><title>leaf5</title><g id="Layer_2" data-name="Layer 2"><g id="Layer_1-2" data-name="Layer 1"><g id="Group_3979" data-name="Group 3979"><path id="Path_8338" data-name="Path 8338" class="cls-1" d="M25.34,20.59a49.79,49.79,0,0,0,.2,8.37,90.07,90.07,0,0,0,4.33,20.55A98.4,98.4,0,0,0,44.11,76.8a72.92,72.92,0,0,0,11.72,13A74.08,74.08,0,0,0,70.48,99.1a96.33,96.33,0,0,0,20.83,7.68c.25.06.73-.77.42-.84a94.31,94.31,0,0,1-17.34-6.06,83.6,83.6,0,0,1-14.56-8.24A64.76,64.76,0,0,1,47.24,79.37C35.93,65.27,28.28,48.05,26.32,30A53.39,53.39,0,0,1,26,20c0-.33-.6.34-.62.6Z"/><path id="Path_8339" data-name="Path 8339" class="cls-1" d="M26.36,34.22C14.46,38.86,0,24.32,0,24.32s12.48-2.4,18.62,1.93S26.36,34.22,26.36,34.22Z"/><path id="Path_8340" data-name="Path 8340" class="cls-1" d="M26,21.46C19.06,14.58,24.77,0,24.77,0s5.51,8,4.38,13.6S26,21.46,26,21.46Z"/><path id="Path_8341" data-name="Path 8341" class="cls-1" d="M28.79,43.81c-13.29,4-26.25-7.56-26.25-7.56s10.56-2,16-.1S28.79,43.81,28.79,43.81Z"/><path id="Path_8342" data-name="Path 8342" class="cls-1" d="M32,54.36C18.66,58.37,5.7,46.8,5.7,46.8s10.56-2,16-.1S32,54.36,32,54.36Z"/><path id="Path_8343" data-name="Path 8343" class="cls-1" d="M34.52,59.91C24,67.91,9.69,61.05,9.69,61.05s8.68-5.2,13.92-5.16S34.52,59.91,34.52,59.91Z"/><path id="Path_8344" data-name="Path 8344" class="cls-1" d="M39,69.36c-10.47,7.73-24.81,1-24.81,1s8.65-5,13.89-5S39,69.36,39,69.36Z"/><path id="Path_8345" data-name="Path 8345" class="cls-1" d="M45.48,77.78c-8.73,9.67-24.12,5.93-24.12,5.93S28.84,77.07,34,76.09,45.48,77.78,45.48,77.78Z"/><path id="Path_8346" data-name="Path 8346" class="cls-1" d="M51.86,87C43.14,96.71,27.74,93,27.74,93s7.48-6.64,12.62-7.62S51.86,87,51.86,87Z"/><path id="Path_8347" data-name="Path 8347" class="cls-1" d="M61,95.67c-6.64,11.19-22.47,10.58-22.47,10.58s6-8,10.87-10S61,95.67,61,95.67Z"/><path id="Path_8348" data-name="Path 8348" class="cls-1" d="M72,101.65c-5,12-20.71,13.7-20.71,13.7s4.8-8.77,9.32-11.42S72,101.65,72,101.65Z"/><path id="Path_8349" data-name="Path 8349" class="cls-1" d="M81,106.14c-3.11,12.64-18.44,16.64-18.44,16.64S66,113.39,70,110.09,81,106.14,81,106.14Z"/><path id="Path_8350" data-name="Path 8350" class="cls-1" d="M25.22,26.57c-12.31-2-16.32-18-16.32-18s8.18,3.5,11.81,8.07A24.07,24.07,0,0,1,25.22,26.57Z"/><path id="Path_8351" data-name="Path 8351" class="cls-1" d="M26.14,31C25.21,18.56,39.9,11,39.9,11s-1.5,8.76-5.12,13.36A24.15,24.15,0,0,1,26.14,31Z"/><path id="Path_8352" data-name="Path 8352" class="cls-1" d="M28.68,43.62c-1-13.9,15.38-22.4,15.38-22.4S42.38,31,38.34,36.15A27,27,0,0,1,28.68,43.62Z"/><path id="Path_8353" data-name="Path 8353" class="cls-1" d="M32,53.83c-1-13.9,15.38-22.4,15.38-22.4s-1.68,9.79-5.72,14.93A27,27,0,0,1,32,53.83Z"/><path id="Path_8354" data-name="Path 8354" class="cls-1" d="M36.63,65.3C35.22,51.44,51.41,42.5,51.41,42.5S50,52.34,46.08,57.58A26.9,26.9,0,0,1,36.63,65.3Z"/><path id="Path_8355" data-name="Path 8355" class="cls-1" d="M44.48,75.32c-1.4-13.86,14.78-22.81,14.78-22.81s-1.42,9.84-5.32,15.08A27,27,0,0,1,44.48,75.32Z"/><path id="Path_8356" data-name="Path 8356" class="cls-1" d="M52,83.58c-1.4-13.86,14.78-22.8,14.78-22.8s-1.42,9.83-5.32,15.07A27,27,0,0,1,52,83.58Z"/><path id="Path_8357" data-name="Path 8357" class="cls-1" d="M61.31,90c-1.4-13.86,14.78-22.8,14.78-22.8s-1.42,9.84-5.33,15.08A26.81,26.81,0,0,1,61.31,90Z"/><path id="Path_8358" data-name="Path 8358" class="cls-1" d="M71.13,95.33c-1.4-13.86,14.78-22.8,14.78-22.8s-1.42,9.84-5.33,15.08A26.81,26.81,0,0,1,71.13,95.33Z"/><path id="Path_8359" data-name="Path 8359" class="cls-1" d="M80.06,99.94c-1.4-13.87,14.78-22.81,14.78-22.81S93.42,87,89.51,92.21A27,27,0,0,1,80.06,99.94Z"/></g></g></g></svg>