<svg xmlns="http://www.w3.org/2000/svg" viewBox="0 0 140.73 267.19"><defs><style>.cls-1{fill:#2a9d8e;}.cls-2{fill:none;stroke:#1f7264;stroke-miterlimit:10;}</style></defs><title>leaf6</title><g id="Layer_2" data-name="Layer 2"><g id="Layer_1-2" data-name="Layer 1"><g id="Group_3980" data-name="Group 3980"><path id="Path_8360" data-name="Path 8360" class="cls-1" d="M89.12,267c-16.81-13.25-60.66-3.34-65.39-27.84S69.48,235,63.29,226.21s-57.62-8-57.35-32.63c.23-20.38,28.76-10,33.48-11.34S3.54,172.07,4.09,160.33,22,150.09,29.78,152.77s-33.4-22.65-29.52-37,34.1,12.4,29.58.65S-3.67,85.75,4.63,75.09s19.86,5.17,27.64,7.85-8.39-24-6.93-49.39S45.27-12.22,50.56,8.6,44,70.34,51.92,72.13s18.55-32.56,25.14-9.54-25.42,43.68-12.79,47.34,22.79-13.31,27-1.31S63,139.89,70.55,143.57s12.28.33,30.68-10.6c17.69-10.5,25.49,16.83,5.56,30.3s-29.56,27.59-19.2,24.18,21.51-8.21,32-10.94c23.67-6.18,29.51,13.63,7.09,31.5S90,242.07,103.17,234s46.34-20.78,29.19-1.46S89.12,267,89.12,267Z"/><path id="Path_8361" data-name="Path 8361" class="cls-2" d="M89.12,267C37.75,136.09,39.28,33.77,39.28,33.77"/><path id="Path_8362" data-name="Path 8362" class="cls-2" d="M11.86,81.35c20.41,1.59,35.81,37.38,35.81,37.38"/><path id="Path_8363" data-name="Path 8363" class="cls-2" d="M12.75,120.54c25.57-2.64,42.61,36.89,42.61,36.89"/><path id="Path_8364" data-name="Path 8364" class="cls-2" d="M16.09,160.45C39.56,155.05,62.43,186,62.43,186"/><path id="Path_8365" data-name="Path 8365" class="cls-2" d="M19.63,198.42c27.88-13.36,49.05,10.07,52.49,20.64"/><path id="Path_8366" data-name="Path 8366" class="cls-2" d="M37.67,239c25.62-12.81,41.38,1.27,45.07,11.14"/><path id="Path_8367" data-name="Path 8367" class="cls-2" d="M67.88,69.66C49.29,99.4,46.27,112.53,49.4,128.44"/><path id="Path_8368" data-name="Path 8368" class="cls-2" d="M80.82,115.32c-34,27-23.81,49.2-23.81,49.2"/><path id="Path_8369" data-name="Path 8369" class="cls-2" d="M106.2,143.17C74,168.82,60.26,179,64.58,193.83"/><path id="Path_8370" data-name="Path 8370" class="cls-2" d="M127.8,184.67c-46.41,31.6-51.83,44.68-49.86,52"/><path id="Path_8371" data-name="Path 8371" class="cls-2" d="M127.11,229.32C91.26,249.56,83,251,85.25,257"/></g></g></g></svg>