<svg xmlns="http://www.w3.org/2000/svg" viewBox="0 0 161.61 315.66"><defs><style>.cls-1{fill:#264653;}.cls-2{fill:#325e6b;}.cls-3{fill:#1f7264;}</style></defs><title>leaf</title><g id="Layer_2" data-name="Layer 2"><g id="Layer_1-2" data-name="Layer 1"><path class="cls-1" d="M107.59,124.61a263.66,263.66,0,0,1,32.75,69.52A269.26,269.26,0,0,1,152,269.6a259.28,259.28,0,0,1-3.13,43.11c-.49,3.11,4.28,4.2,4.77,1.08a268.12,268.12,0,0,0,.77-78.13,273.87,273.87,0,0,0-21.45-75.19,266.92,266.92,0,0,0-21.24-38.53c-1.74-2.61-5.86,0-4.11,2.67Z"/><path class="cls-1" d="M26.86,148.41s27.62,30.27,46,33.92c27.51,5.45,54.73-12.22,40.48-56.68,0,0,14.89,10.62,33.43-2.58,18.8-13.38,19.38-37.11,3.64-61.17C134.36,37.34,118,29.84,118,29.84,131,53,109.75,80.08,107.39,77.5s7.69-41.86-1.48-53.8-27.35-14-27.35-14c7.32,11.37,7.26,43.39,2.62,43.19s3-17.19-6.87-37.23S44,4.86,36.87,6.23,21.83,0,21.83,0-2.11,42.25,10,53.17s35.63,19.22,32.4,22.21S6,64.69,2.59,55.69c0,0-6.67,28.41,1.41,35.56S48.17,103,49,107.16s-35.29.9-45.62-7.17c0,0,9.21,36.24,23.85,41.48s49.26-13.61,48.28-9.71S44.69,153.24,26.86,148.41ZM51.5,120.88c1.62,3.31-3.22,7.15-7.17,6.53s-3-5.25.3-6.58C44.63,120.83,49.87,117.56,51.5,120.88Zm68.07-33.26c-1.48-2.53,2.44-5.89,4.32-11.49,1.83-5.43,4-10.42,8.26-11a6.45,6.45,0,0,1,5.29,6.17c.68,7.11-4.23,10.15-8.09,15.54S121.67,91.2,119.57,87.62ZM97.46,76.18c-3.44,4.46-6,2-7.07-1.82S93.6,55.72,94,52.77,98,50.28,99.84,55.6,100.52,72.21,97.46,76.18Zm11.2,20.74c.31-2.85,2.82-3.55,4.66-4.41,2.27-1.07,4.84.75,5.18,3.84s-5.86,5.72-8.42,6.13S108.35,99.77,108.66,96.92ZM42.07,90.24c-7.3-.41-18.68-2.93-14.9-4.73a16,16,0,0,1,6-1.82s13.5-1.56,16.19,1.25S49.37,90.65,42.07,90.24Zm21.86,31.17c-5.65,1.57-9.22-3.52-6.49-4.82,0,0,18.39-9.26,20.13-5.12S69.57,119.84,63.93,121.41Z"/><path class="cls-2" d="M27.17,85.51a1.29,1.29,0,0,0-.7.58A103.61,103.61,0,0,1,8.9,80.72c-1.15-.47-.37-2.24.77-1.77a101.6,101.6,0,0,0,19.47,5.72C28.54,84.89,27.88,85.17,27.17,85.51Z"/><path class="cls-2" d="M57.61,120.13q-2.89.91-5.82,1.71a3,3,0,0,0-.29-1,2.64,2.64,0,0,0-.59-.8c1.9-.51,3.78-1,5.65-1.64A3.43,3.43,0,0,0,57.61,120.13Z"/><path class="cls-2" d="M29.43,123.94a134.51,134.51,0,0,0,13.57-2,4.23,4.23,0,0,0-1.2,2.2c-4,.76-8.09,1.34-12.18,1.74A1,1,0,0,1,29.43,123.94Z"/><path class="cls-2" d="M132.15,65.08h0q.94-3.46,1.55-7a1,1,0,0,1,1.91.3c-.42,2.47-1,4.92-1.63,7.34A5.84,5.84,0,0,0,132.15,65.08Z"/><path class="cls-2" d="M114.25,128.62l-10.07-10.89A55.92,55.92,0,0,1,74.06,154c-1.12.52-1.8-1.28-.68-1.81A53.84,53.84,0,0,0,102.62,116L91.47,104A138.41,138.41,0,0,1,77.72,112a2.21,2.21,0,0,0-.15-.48,1.69,1.69,0,0,0-1.29-1,135.19,135.19,0,0,0,13.86-8l-5.48-5.9a.92.92,0,0,1-.42-.45c-3.52-3.79-6.83-7.35-9.76-10.48A114.47,114.47,0,0,1,49.77,88.5a2.09,2.09,0,0,0,.54-1.94A113.25,113.25,0,0,0,73,84.11c-1.59-1.7-3-3.26-4.34-4.63A134.78,134.78,0,0,1,55.93,62.71c-10.58.8-19.55-5.82-27.5-12a1,1,0,0,1,1.2-1.51c7.28,5.7,15.46,11.91,25.06,11.68C41.53,40.71,27.19,13.55,21,1.52c.52-1,.83-1.52.83-1.52L22,.11h0a.92.92,0,0,0,.14.13h0c.29.26.81.71,1.5,1.25C30,13.83,43.77,39.76,56.36,59.12a39.16,39.16,0,0,0,.17-28.31,1,1,0,0,1,1.81-.68,41.14,41.14,0,0,1-.48,30.45.91.91,0,0,1-.29.39A132.94,132.94,0,0,0,70.31,77.89c3.8,4,9,9.61,14.82,15.89a111.16,111.16,0,0,0,6.44-16.72,3.47,3.47,0,0,0,1.6,1.38,113.13,113.13,0,0,1-6.63,16.85c4.2,4.52,8.69,9.37,13.21,14.25a77.09,77.09,0,0,0,9.32-7.13,1.79,1.79,0,0,0,1,.07,12.7,12.7,0,0,0,2.54-.74A77.21,77.21,0,0,1,101.08,111L116,127.12h0a17.12,17.12,0,0,1-2.64-1.46h0c.17.54.33,1.08.49,1.62S114.12,128.17,114.25,128.62Z"/><path class="cls-3" d="M117.43,93.65q1.75-2.16,3.36-4.44a4.94,4.94,0,0,0,1.6,1.07q-1.9,2.73-4,5.28A5.15,5.15,0,0,0,117.43,93.65Z"/><path class="cls-2" d="M97.9,52.15A3.7,3.7,0,0,0,96,51a112,112,0,0,0-.57-18.48,1,1,0,0,1,1.91-.2A113.36,113.36,0,0,1,97.9,52.15Z"/></g></g></svg>