<svg xmlns="http://www.w3.org/2000/svg" viewBox="0 0 118.49 222.12"><defs><style>.cls-1{fill:#2a9d8e;}.cls-2{fill:#1f7264;}</style></defs><title>leaf7</title><g id="Layer_2" data-name="Layer 2"><g id="Layer_1-2" data-name="Layer 1"><g id="Group_3983" data-name="Group 3983"><path id="Path_8372" data-name="Path 8372" class="cls-1" d="M48.13,99.53a222.23,222.23,0,0,0-23.65,92.84,218.57,218.57,0,0,0,.81,27.32A2,2,0,0,1,24,222a2,2,0,0,1-2.45-.93l-1.22-2.73c-1-2.34,2.49-4.21,3.53-1.86l1.22,2.74-3.71,1.37A225.15,225.15,0,0,1,44.77,97.36a2,2,0,0,1,2.76-.6,2,2,0,0,1,.6,2.76Z"/><path id="Path_8373" data-name="Path 8373" class="cls-1" d="M0,76.16c-.09,20.48,13.05,37.13,40.86,29.21,0,0,1,28.76,30.28,29.74s40.28-43.72,40.28-43.72C99,102.22,72.15,98.58,70.86,95.2s15.84,1.45,32.43-2.47,15.17-34.45,15.17-34.45c-8.76,10.36-34.19,3.25-36.38,1.61s27.67,3.31,33.59-6.1c7.7-12.24-6.68-26.83-14-35S95.54,0,95.54,0,64.85,3,61.46,14.14,63.62,40,58.82,37.49,54.46,14.57,57.2,11.25c0,0-13.12,5.05-17.38,11.3s6.68,38.68,2.53,37.54S29.11,38,33.33,25.28C33.33,25.28.09,58,0,76.16Zm96.35-2.5c1.84-.89,3.38.69,4.84,2.52,1,1.3.42,2.86-1.41,2.7a22.52,22.52,0,0,1-5.9-2.32C93,76,94.51,74.55,96.35,73.66ZM61.4,96.9c1.45-1,8.31,4.41,13.22,4.95s7,2,7.73,4.54A3.49,3.49,0,0,1,79.84,110c-3,.67-13-4.19-17.19-6.69S60,97.84,61.4,96.9ZM80.53,69.63c4.45.4,9.41,2.2,9.27,4.81-.23,4.33-4.5,1-7.66.26-2.21-.52-9.54-3.25-10-5.19s4-.28,8.41.12ZM68.05,31.49l0,0c-1-1.23-.11-6.3.41-10.17s2.75-1,4.74,3.73c1,2.44,1,4.21.43,5.64a3.24,3.24,0,0,1-5.55.84ZM32.84,67.3c3.25,2,3.33,5.54,8,9.08S45,83.13,45,83.13c-.29,6.68-5.56.29-13.4-7S29.59,65.29,32.84,67.3ZM23.5,57.73a10.42,10.42,0,0,1,4.14,4.41,3.26,3.26,0,0,1-.44,3.33C25.91,67,24.72,65.24,20.92,63c-4.76-2.78.93-6.25,2.58-5.28Z"/><g id="Group_3982" data-name="Group 3982"><g id="Group_3981" data-name="Group 3981"><path id="Path_8374" data-name="Path 8374" class="cls-1" d="M82.33,107.1c1.93.4,3.84.76,5.72,1.1.9.16.6,1.54-.29,1.38-1.94-.35-3.92-.72-5.91-1.14A4.57,4.57,0,0,0,82.33,107.1Z"/><path id="Path_8375" data-name="Path 8375" class="cls-2" d="M51.11,90.49a1.74,1.74,0,0,1-.11-.18.75.75,0,0,1-.08-.24c-2.18-1.55-4.3-3.19-6.35-4.9a4.39,4.39,0,0,0,.36-1.51q3.41,2.88,7.06,5.45c1.44-2.26,2.83-4.54,4.13-6.86,3-5.33,5.66-10.81,8.14-16.38A45.48,45.48,0,0,1,48.58,33.36a.7.7,0,0,1,.69-.72.73.73,0,0,1,.72.65A44.07,44.07,0,0,0,64.85,64.52c3-7,5.81-14.06,8.63-21.14a38.91,38.91,0,0,1-3.26-10.69,3.28,3.28,0,0,0,1.39-.16,36.89,36.89,0,0,0,2.58,9c2.35-5.88,4.74-11.74,7.35-17.49A153,153,0,0,1,94.86.07L95.54,0s-.06.61-.06,1.64C86.91,14.21,81,28.36,75.33,42.51a39.52,39.52,0,0,0,18-6.14.69.69,0,0,1,1,.26.71.71,0,0,1-.21.93A41.08,41.08,0,0,1,74.83,44h-.08l-2.61,6.56c-3.67,9.21-7.44,18.4-12,27.22a59.92,59.92,0,0,0,31.61,4.17c.9-.13,1,1.28.07,1.41A61.39,61.39,0,0,1,59.5,79l-.09.18c-2,3.87-4.31,7.62-6.66,11.31a28.16,28.16,0,0,0,7.38,8,2.92,2.92,0,0,0-.18,1.6,29.55,29.55,0,0,1-8.05-8.25c-3.11,4.81-6.36,9.53-9.52,14.31L41.15,108c-.15-1-.22-1.77-.26-2.21C44.26,100.67,47.79,95.62,51.11,90.49Z"/><path id="Path_8376" data-name="Path 8376" class="cls-1" d="M27.19,65.47a2.73,2.73,0,0,0,.4-.62c.55.76,1.11,1.52,1.68,2.27A3.13,3.13,0,0,0,28.2,68c-.53-.69-1.05-1.39-1.56-2.09A1.68,1.68,0,0,0,27.19,65.47Z"/><path id="Path_8377" data-name="Path 8377" class="cls-1" d="M72.42,17.27a34.76,34.76,0,0,0-.88,4.41A9.1,9.1,0,0,0,70.36,20c.19-1,.41-2.05.68-3.06S72.65,16.4,72.42,17.27Z"/></g></g></g></g></g></svg>