<svg xmlns="http://www.w3.org/2000/svg" viewBox="0 0 39.86 37.39"><defs><style>.cls-1{fill:#2eafff;}.cls-2{fill:#fcfeff;}</style></defs><title>like</title><g id="Layer_2" data-name="Layer 2"><g id="Layer_1-2" data-name="Layer 1"><path class="cls-1" d="M34.09,0H5.77A5.77,5.77,0,0,0,0,5.77V25.62a5.77,5.77,0,0,0,5.77,5.77H15.7l4.23,6,4.1-6H34.09a5.77,5.77,0,0,0,5.77-5.77V5.77A5.77,5.77,0,0,0,34.09,0Z"/><rect class="cls-2" x="8.96" y="11.54" width="5.76" height="11.28" rx="0.5"/><path class="cls-2" d="M16.9,13.09a2,2,0,0,1,.76-1.54c1-.79,2.68-1.55,3.43-6.15.39-2.41,3.24-.79,3.39,1.83.12,2.14,0,3.93,0,3.93h4.31a2.06,2.06,0,0,1,2.07,2.07v8.29a2.07,2.07,0,0,1-2.07,2.07H20.23a2,2,0,0,1-1.1-.34l-1.39-.94a1.93,1.93,0,0,1-.84-1.61Z"/></g></g></svg>