<svg xmlns="http://www.w3.org/2000/svg" viewBox="0 0 76.16 77.56"><defs><style>.cls-1{fill:#f28f46;}.cls-2{fill:#f4a25d;}.cls-3{fill:#e0e0e0;opacity:0.5;}.cls-4{fill:#ebebeb;opacity:0.6;}.cls-5{fill:#fff;}</style></defs><title>magnifying</title><g id="Layer_2" data-name="Layer 2"><g id="Layer_1-2" data-name="Layer 1"><path class="cls-1" d="M74.76,69.41a4.77,4.77,0,0,1,0,6.76h0a4.78,4.78,0,0,1-6.75,0L44.88,53a4.76,4.76,0,0,1,0-6.75h0a4.78,4.78,0,0,1,6.75,0Z"/><path class="cls-2" d="M28.61,0A28.61,28.61,0,1,0,57.22,28.61,28.61,28.61,0,0,0,28.61,0Zm0,50.43A21.82,21.82,0,1,1,50.43,28.61,21.82,21.82,0,0,1,28.61,50.43Z"/><path class="cls-3" d="M48.61,28.61A20,20,0,0,1,12.37,40.23,19.73,19.73,0,0,1,8.62,28.61a20,20,0,0,1,20-20,20.06,20.06,0,0,1,20,20Z"/><path class="cls-4" d="M44,24A20,20,0,0,1,24,44a19.8,19.8,0,0,1-11.62-3.75A19.73,19.73,0,0,1,8.62,28.61a20,20,0,0,1,20-20,19.73,19.73,0,0,1,11.62,3.75A19.8,19.8,0,0,1,44,24Z"/><path class="cls-1" d="M28.61,6.79A21.82,21.82,0,1,0,50.43,28.61,21.82,21.82,0,0,0,28.61,6.79Zm0,41.82a20,20,0,1,1,20-20A20,20,0,0,1,28.61,48.61Z"/><path class="cls-5" d="M13.61,31a2.41,2.41,0,0,1-2.41-2.41A17.43,17.43,0,0,1,28.61,11.2a2.41,2.41,0,1,1,0,4.81A12.61,12.61,0,0,0,16,28.61,2.4,2.4,0,0,1,13.61,31Z"/></g></g></svg>