<svg xmlns="http://www.w3.org/2000/svg" viewBox="0 0 110.46 113.85"><defs><style>.cls-1{fill:#2a9d8e;}.cls-2{fill:#258272;}.cls-3{fill:#dedede;}</style></defs><title>megaphone</title><g id="Layer_2" data-name="Layer 2"><g id="Layer_1-2" data-name="Layer 1"><path class="cls-1" d="M103.83,32.33a11.73,11.73,0,1,1-15.16-6.75A11.72,11.72,0,0,1,103.83,32.33Z"/><path class="cls-2" d="M57.26,104a7.26,7.26,0,0,1-4.18,9.39h0a7.28,7.28,0,0,1-9.4-4.18l-16-41.78A7.28,7.28,0,0,1,31.84,58h0a7.27,7.27,0,0,1,9.39,4.19Z"/><path class="cls-3" d="M85.6,3.91l24.51,63.9c1.11,2.9-.52,5.22-3.62,5.17l-48.06-.66-53.7-.73,38.94-36,.48-.45L79.44,2.48C81.72.37,84.48,1,85.6,3.91Z"/><path class="cls-1" d="M23.87,84.13a2.83,2.83,0,0,1-3.64-1.62L8.12,50.94a2.8,2.8,0,0,1,1.62-3.63l34-13.05L57.86,71.08Z"/><path class="cls-2" d="M14.05,82.38l5.34-2L9,53.12,3.62,55.17A5.62,5.62,0,0,0,.38,62.44l6.4,16.7A5.63,5.63,0,0,0,14.05,82.38Z"/><path class="cls-3" d="M85.6,2.68l12.25,32L50.71,52.71l-7-18.37.48-.46L79.44,1.24C81.72-.87,84.48-.22,85.6,2.68Z"/></g></g></svg>