<svg xmlns="http://www.w3.org/2000/svg" viewBox="0 0 621.99 469.26"><defs><style>.cls-1{fill:#2a9d8e;}.cls-2{fill:#258272;}.cls-3{fill:#60f4df;}.cls-3,.cls-5{opacity:0.2;}.cls-4,.cls-5{fill:#fff;}.cls-4{opacity:0.3;}</style></defs><title>monitor</title><g id="Layer_2" data-name="Layer 2"><g id="Layer_1-2" data-name="Layer 1"><path class="cls-1" d="M622,15.41V373a15.43,15.43,0,0,1-15.41,15.42h-590A15.41,15.41,0,0,1,1.17,373V15.41A15.41,15.41,0,0,1,16.58,0h590A15.42,15.42,0,0,1,622,15.41Z"/><polygon class="cls-1" points="374.73 454.35 248.41 454.35 262.13 400.41 265.24 388.18 271.28 364.48 351.86 364.48 357.9 388.18 361.01 400.41 374.73 454.35"/><polygon class="cls-2" points="361.01 400.41 262.13 400.41 265.24 388.18 357.9 388.18 361.01 400.41"/><path class="cls-2" d="M423.21,469.26H199.93a9.7,9.7,0,0,1-9.7-9.7h0a9.7,9.7,0,0,1,9.7-9.7H423.21a9.7,9.7,0,0,1,9.7,9.7h0A9.7,9.7,0,0,1,423.21,469.26Z"/><rect class="cls-3" y="55.21" width="621.98" height="271.37"/><path class="cls-2" d="M311.54,370.83h0a14.35,14.35,0,0,1-14.31-14.31h0a14.35,14.35,0,0,1,14.31-14.32h0a14.35,14.35,0,0,1,14.31,14.32h0A14.35,14.35,0,0,1,311.54,370.83Z"/><rect class="cls-4" x="400.32" y="231.4" width="207.78" height="36.77" rx="2.79"/><rect class="cls-5" x="400.32" y="275.84" width="207.78" height="36.77" rx="2.79"/><rect class="cls-5" x="400.32" y="187.81" width="207.78" height="36.77" rx="2.79"/><rect class="cls-5" x="400.22" y="65.62" width="207.71" height="114.94" rx="3.28"/><rect class="cls-4" x="408.06" y="82.28" width="190.35" height="10.71" rx="4.5"/><rect class="cls-4" x="408.06" y="104.88" width="190.35" height="10.71" rx="4.5"/><rect class="cls-4" x="408.06" y="127.48" width="171.89" height="10.71" rx="4.5"/><rect class="cls-4" x="408.06" y="150.09" width="150.24" height="10.71" rx="4.5"/><rect class="cls-5" x="15.83" y="65.92" width="374.27" height="246.26" rx="3.28"/><rect class="cls-4" x="25.1" y="81.98" width="355.71" height="10.71" rx="4.5"/><rect class="cls-4" x="25.1" y="104.58" width="321.21" height="10.71" rx="4.5"/><rect class="cls-4" x="25.1" y="127.19" width="280.76" height="10.71" rx="4.5"/><rect class="cls-4" x="25.1" y="149.79" width="355.71" height="10.71" rx="4.5"/><rect class="cls-4" x="25.1" y="172.39" width="321.21" height="10.71" rx="4.5"/><rect class="cls-4" x="25.1" y="195" width="280.76" height="10.71" rx="4.5"/><rect class="cls-4" x="25.1" y="217.6" width="355.71" height="10.71" rx="4.5"/><rect class="cls-4" x="25.1" y="240.21" width="321.21" height="10.71" rx="4.5"/><rect class="cls-4" x="25.1" y="285.41" width="321.21" height="10.71" rx="4.5"/><rect class="cls-4" x="25.1" y="262.81" width="280.76" height="10.71" rx="4.5"/></g></g></svg>