<svg xmlns="http://www.w3.org/2000/svg" viewBox="0 0 126.41 323.6"><defs><style>.cls-1{isolation:isolate;}.cls-2{fill:#ffd3b3;}.cls-3{fill:#ffe1bd;}.cls-4{fill:#004991;}.cls-5{fill:#594a5f;}.cls-6{fill:#003f72;}.cls-7{fill:#f4a25d;}.cls-8{fill:#5f52dd;}.cls-11,.cls-8{opacity:0.5;mix-blend-mode:multiply;}.cls-11,.cls-9{fill:#ffb127;}.cls-10{fill:#264653;}.cls-12{fill:#192e35;}.cls-13{fill:#feaf84;}.cls-14{fill:#d88d56;}</style></defs><title>Asset 2</title><g class="cls-1"><g id="Layer_2" data-name="Layer 2"><g id="Layer_1-2" data-name="Layer 1"><path class="cls-2" d="M126.34,3.35c-.09-.8-1.11-.41-1.37.25a3.29,3.29,0,0,0-.14.57c.08-1.31.13-2.38.1-2.64-.08-.75-1-.47-1.35.13,0-.53,0-.93,0-1.1-.1-1-1.13-.55-1.38.25A11.11,11.11,0,0,0,122,2.15a5.76,5.76,0,0,0,0-.74c-.09-.79-1-.58-1.26.08A9.58,9.58,0,0,0,120.45,3c-.11.8-.33,1.66-.43,2.46s-1,4.17-2.65,4.54c-2.62.56-1-4-2.8-5-.58-.32-1.2,3.2-1.24,5.2a23.06,23.06,0,0,0,.13,4.16c.17,1.18.82,2.84.72,3.55a14.43,14.43,0,0,1-1.48,3.5l6.6,1.5a26.34,26.34,0,0,1,2.36-4.47,15.18,15.18,0,0,0,4-7.07A29.21,29.21,0,0,0,126.41,6S126.37,3.61,126.34,3.35Z"/><path class="cls-2" d="M64.26,58.53s20.94-.18,32.31-12.92c9.06-12.71,17.82-26.76,18.48-28.07,1.78.68,5.62,2.44,5.62,2.44s-12,26.8-16.65,32.92S90.18,69.05,70.77,74C61.48,63.36,64.26,58.53,64.26,58.53Z"/><path class="cls-3" d="M77.91,308.46a13.8,13.8,0,0,1,1.14,4.59c-.06,1.85-5.91,2.22-6.63,1.3S71,305,71,305"/><path class="cls-4" d="M70.94,316a39.36,39.36,0,0,0,.74,5l6.75-.28.29-1.14a10.57,10.57,0,0,0,4,1l5.7-.24c4.17-.17,6.51-.8,6.59-1.53.31-3.09-4.66-2.74-6-2.69-3.73.15-7.83-1.43-8.79-3.28-.69-1.35-.42-1.71-1.18-1.42a2,2,0,0,0-1.12,1.05,3.42,3.42,0,0,1-3.44,2.06,4.08,4.08,0,0,1-2.33-1A2.46,2.46,0,0,0,70.94,316Z"/><path class="cls-3" d="M12,304.8a54.74,54.74,0,0,1-1.78,6.68c-.74,1.69-6.32-.13-6.64-1.25S5.7,301,5.7,301"/><path class="cls-4" d="M1.55,311.25c-.64,1.81-1.55,5.3-1.55,5.3l5.24,2.84,1-.8A10,10,0,0,0,9,321.29a21.67,21.67,0,0,0,5.15,1.89c4.72.88,8.31.21,8.66-.44,1.43-2.75-4.83-4-6-4.41a8.33,8.33,0,0,1-5.44-6.6c-.15-1.5.23-1.74-.58-1.75a1.91,1.91,0,0,0-1.42.56,3.44,3.44,0,0,1-4,.64,4.08,4.08,0,0,1-1.78-1.8A2.47,2.47,0,0,0,1.55,311.25Z"/><path class="cls-4" d="M30.27,172.16S20.2,150.58,35.54,134c0,0,13.9,5.55,24.86,5.84,8.63.23,13-.85,13-.85s2.59,15.91,2.56,41Z"/><path class="cls-4" d="M70.45,310.89c.28,0,.55,0,.81,0a45.76,45.76,0,0,0,8.91-1l-.07-1.64c-1.35-25.13,0-66.35.06-79.36A14.71,14.71,0,0,0,80,226.4c-1.38-9.46-11.15-7.81-14.92,1.09A34.4,34.4,0,0,0,63,234.31a62,62,0,0,0-1.13,9.55C60.84,265.64,68.1,294.75,70.45,310.89Z"/><path class="cls-4" d="M48.06,181.58c0,.26.12.53.19.81,2.64,11.35,11,42,14.75,51.9v0c.55,1.38,2.28,2.5,4.46,3,5,1.15,12.29-1,12.52-10.89a23.45,23.45,0,0,0-.19-3.55c-1-8-4.56-52.15-5.09-56.4S73.16,156,70.87,155.3C59.47,151.87,44.45,165.69,48.06,181.58Z"/><path class="cls-5" d="M60.43,226.69a55.18,55.18,0,0,1,1.44,17.17c-.85,8.55,3.76-7.65,3.76-7.65l-3-5.65Z"/><path class="cls-6" d="M71.26,310.87s-2.46-25.61-5.49-43.31a70.67,70.67,0,0,1,1.69-30.27c.4-1.4.68-2.16.68-2.16l-3.08-7.64c-3.5-10-4.55-33.47-4.55-33.47,6.83-16.87,7-37.77,7-37.77l-6.39,1.15L50.2,171.67l-2,10.72c2.14,9.2,8,31.07,12.18,44.3h0a55.18,55.18,0,0,1,1.44,17.17,9.45,9.45,0,0,0-.06,2.27c-.45,21.5,6.37,49.17,8.64,64.76C70.73,310.9,71,310.88,71.26,310.87Z"/><path class="cls-4" d="M27.54,228.4c7.32-7.48,18.05-4.53,13.56,6.79C36.3,247.3,21.3,281,13.4,304.86l-.55,1.55a48.44,48.44,0,0,1-9.41-2.62C7,288.34,9,261.9,17,243.21,19.62,237.2,23.75,232.27,27.54,228.4Z"/><path class="cls-4" d="M67.54,156.25c.75-17.74-20.81-5.09-31.14,1.19-4.35,2.64-5.77,7.62-6.18,12.27S26.06,222.25,25.27,231c-1.78,19.7,14.9,8.28,16.3,2.78C45.08,219.9,67.13,165.92,67.54,156.25Z"/><path class="cls-4" d="M26.29,218.79s-.31,9.4-7.72,21.29c0,0,12.65-6.48,13.24-7.38s2.47-10.08,2.18-11S26.29,218.79,26.29,218.79Z"/><path class="cls-2" d="M64.6,44.36c.05,1.34.1,6.56-2.68,7.81S57.37,54,57.45,54.4c0,.19.3,1.11.6,2a4.2,4.2,0,0,0,1.6,2.52l.4,6.68-5,5-1.63,1.62L51,70,43,62.7s3.29-4.05,1-8.39c-.32-.62-4-4.64-6.86-8.7-1.69-2.38-3.12-4.76-3.5-6.46-1-4.64-1.92-9.53.74-12.44S55.33,11.81,59,25.87c0,0,4.19,7.72,5.55,8.94a2.12,2.12,0,0,1-.19,3.59C63.14,39.08,64.56,43,64.6,44.36Z"/><path class="cls-2" d="M60.05,65.61l-5,5-1.52.73L51,70,43,62.7s3.29-4.05,1-8.39c-.32-.62-4-4.64-6.86-8.7l-.34-2.8s5.67-1.56,5.9-1.57a20.08,20.08,0,0,1,2.81,3c0,.17-.43,3.46-.43,3.46s.75,4.31,1.65,7.57a4.58,4.58,0,0,0,4.09,3.14,15,15,0,0,0,3.47-.1,6.62,6.62,0,0,0,3.73-1.93,4.2,4.2,0,0,0,1.6,2.52Z"/><path class="cls-4" d="M43,40.3s-.44,9.52,6.29,13.45,16-.43,17.13-1.75,4.13-9.7-.92-12.48-9.88,2-9.88,2-2.8,3.16-3.94,3.18-4.29-2.82-4.74-8.78a.72.72,0,0,1,.55-.72c1.28-.38,4.12-1.88,2.67-7.63a.85.85,0,0,1,.77-1c1.87-.25,5.72-.75,6.57-.68a8.27,8.27,0,0,1,1.25.11.64.64,0,0,1,.48.32l1.14,2,1.81,3.08a1.93,1.93,0,0,0,.66-1.75c-.21-1-1.17-3.22-1.06-3.77s1.67-1.2,1.68-2.43c0-2.8-1.06-13.49-9.55-6.92a14.85,14.85,0,0,1-3.07,2.26c-1.29.47-2.74-.44-5.53-.24-3.9.27-20.67,4.19-15.3,19.1s14.2,17,14.2,17S41.31,42.2,43,40.3Z"/><path class="cls-2" d="M43,40.3s-.83-2.56-3-1.82c-2.88,1-2.62,8.22,3.64,7.27A19.4,19.4,0,0,1,43,40.3Z"/><path class="cls-7" d="M78.72,143.15s-22.68,5.57-51.18.29c1.38-8.81,2.05-22.76,2.42-32.81l0-1c.22-6.41.34-11,.48-11.18.29-.39-.72-20.85,1-28.87a5.45,5.45,0,0,1,1.23-3A60.82,60.82,0,0,1,44.3,58.76s10.2,11,15.4-1.17c5.73-.52,8.64.64,10.3,6.37C79.16,95.79,78.72,143.15,78.72,143.15Z"/><path class="cls-7" d="M64,57.66a50.49,50.49,0,0,0,19.16-4.12c5.4,6.34,8.66,17.91,8.66,17.91s-13.05,8.3-22.59,9.09A132.75,132.75,0,0,0,64,57.66Z"/><path class="cls-8" d="M65.81,59.66s5.88,7.44,7.81,20.08c6.58-1.28,16.87-7,18.17-8.29-2.9.94-15.26,5.53-17,1.73A58.84,58.84,0,0,0,65.81,59.66Z"/><path class="cls-9" d="M63.37,66.78,105,71.11l-7.6,16.75-36-16.69a1.75,1.75,0,0,1-1-2.4l.46-.86A2.54,2.54,0,0,1,63.37,66.78Z"/><path class="cls-10" d="M63.37,66.78,105,71.11l-7.6,16.75-36-16.69a1.75,1.75,0,0,1-1-2.4l.46-.86A2.54,2.54,0,0,1,63.37,66.78Z"/><path class="cls-9" d="M104.38,80.48c-2.22,4.58-5.46,7.85-7.25,7.29s-1.43-4.72.79-9.31,5.46-7.84,7.25-7.29S106.6,75.9,104.38,80.48Z"/><path class="cls-11" d="M104.38,80.48c-2.22,4.58-5.46,7.85-7.25,7.29s-1.43-4.72.79-9.31,5.46-7.84,7.25-7.29S106.6,75.9,104.38,80.48Z"/><path class="cls-12" d="M104.38,80.48c-2.22,4.58-5.46,7.85-7.25,7.29s-1.43-4.72.79-9.31,5.46-7.84,7.25-7.29S106.6,75.9,104.38,80.48Z"/><path class="cls-2" d="M26.41,98.36s4.39,15.14,15.8,22.27c3.32,2.08,7.49.92,10.11-2,7.81-8.74,15.62-28.43,18.12-35.86-4.58-2.43-6-2-6-2S53.31,96.1,47,106.4l-4.75-8.28"/><path class="cls-13" d="M64.07,81.29s2-3.29,2.13-5.78-1.08-6.81,1.34-9.05c.9-.84,4.06-2.12,7.61-1.53,5.28.88,6.72,2.44,6.43,3.55s-3.94,1.51-4.9,3.4S76.25,75,76,77.05c-.36,3.13-4.72,4.45-5.67,6C69.67,84.17,64.07,81.29,64.07,81.29Z"/><path class="cls-14" d="M32.09,136.36c1.31-4.56,1.94-20.59,2.08-24.57a21,21,0,0,0,14.48-9.44C47.16,99.8,43.45,91,36.57,83.44l-4-14.9a15.16,15.16,0,0,0-1.16,1c-1.68,8-.67,28.48-1,28.87-.14.19-.26,4.77-.48,11.18l0,1h0c-.38,10.05-1,24-2.42,32.81,28.5,5.28,51.18-.29,51.18-.29C50.28,145.6,30.61,141.54,32.09,136.36Z"/><path class="cls-7" d="M35.28,64.52S23.52,72.22,23,85.33c-.39,10.14,6.32,24.94,6.32,24.94S41,111.55,47.08,102a72.6,72.6,0,0,0-6.87-14.17"/></g></g></g></svg>