<svg xmlns="http://www.w3.org/2000/svg" viewBox="0 0 81.5 154.26"><defs><style>.cls-1{fill:#e76f50;}.cls-2{fill:#ffd3b3;}.cls-3{fill:#004991;}</style></defs><title>Asset 1</title><g id="Layer_2" data-name="Layer 2"><g id="Layer_1-2" data-name="Layer 1"><path class="cls-1" d="M81.49,66.41H8.29A8.3,8.3,0,0,1,9,63.86c1.87-4.4,8.65-13.28,33.08-17.25l12.06-2.48S82.11,44.11,81.49,66.41Z"/><path class="cls-1" d="M57.22,66.41H8.29A8.3,8.3,0,0,1,9,63.86a11,11,0,0,1,5.81,0l3,.79H49.63C55.84,64.6,57.22,66.41,57.22,66.41Z"/><path class="cls-2" d="M39.26,45.2A11.72,11.72,0,0,1,41,49.35a4.08,4.08,0,0,0,4.19,3.13c10.69-.6,10-7.28,10-7.28-2.2-3.37-3.54-13.36-3.54-13.36"/><path class="cls-3" d="M14.23,14.46s-.44,13.42,5.56,13.23,0-14.8,0-14.8Z"/><path class="cls-2" d="M50.11,29.27a26.27,26.27,0,0,1,.11,5.08,2.86,2.86,0,0,1-.09.55,4.22,4.22,0,0,1-.12.55C48.56,41.2,41.29,49.31,36.17,50a14.5,14.5,0,0,1-2,0c-7.12-.33-11.28-6.16-13.69-12.37L20.27,37a57.24,57.24,0,0,1-3-13.77c0-.49-.37-5.78.66-7.35,1.14-1.72,15.21-3.35,15.5-3.38s13.81.95,13.81.95A144.94,144.94,0,0,1,50.11,29.27Z"/><path class="cls-3" d="M52.3,29.05a22,22,0,0,1-.17,5c0,.18-.05.36-.09.55-.93,5.75-8,14.68-15.87,15.39-.61.08-1.2.14-1.76.16-8.56.34-11.53-6.11-13.9-12.49L20.27,37s3,4.75,4.46,4.89-.36-1.71,3.67-3.29a19.83,19.83,0,0,1,8.27-.68c1.68.22,4.68,1.08,5.75,1.23a1.24,1.24,0,0,0,.61,0c1.43-.74,4.88-6.16,5.39-9.23C48.62,28.68,51.19,28.86,52.3,29.05Z"/><path class="cls-3" d="M11.46,10.32s.43,10.32,17.38,6.19c4.65-1.13,8.75-2.19,11.06-.94,3.46,10.89,3.57,16.12,4.8,15.69,1.53-.53-2.62-9.59,2.68-8.61,4,.75-.18,10.74-.18,10.74s4.93.64,5.07-1.64c.09-1.37.24-20.89-3.12-25.53S41.79,1.8,41.79,1.8s-4.24-3.57-14.23-.65S12.31.38,12.33.67,10.75,3.85,11.46,10.32Z"/><path class="cls-2" d="M26.49,133.11s-2.46,4.26-4.1,5.52-2.31,1.27-4.63,1.87-4.29,3-5,3.81,0,1.19,1.42.89,3.24-1.42,3.84-1.42.6.73,0,2.05a14.76,14.76,0,0,1-3.21,4.22c-1,.75-3.66,2.24-3.95,3.14s-.08,1.34,1.34.89A37.76,37.76,0,0,0,17,151.55a8.79,8.79,0,0,0,1.8-1.4,12,12,0,0,0,4,.4,4.45,4.45,0,0,0,1.86-.81,5.09,5.09,0,0,0,.59-.14c1.26-.52,1.94-4.92,2.61-6.11s5.56-5.64,5.56-5.64Z"/><path class="cls-1" d="M71.79,95.28v0C79,84,81.5,66.4,81.5,66.4l-9.26-6.3-4.73,2.27c-3-1.3-8.05-3.22-8.05-3.22L57.23,66.4a4,4,0,0,1,2,1.89c.05,4.08-.6,14.5-7.11,27.64-.26.35-.52.66-.78,1-11.5,16.56-26.88,38-26.88,38L31,140.75s9.85-8.86,18.41-16.68c7.76-7.1,19.83-25,22-28.23a2.75,2.75,0,0,0,.19-.28Z"/><path class="cls-2" d="M19.75,70.78l-.26-.07c.28.31.48.55.55.65.26.28.09.47.09.47a1.15,1.15,0,0,1-1.12.31,1.72,1.72,0,0,1-.84-.4,1.29,1.29,0,0,1-1.05.24c-.43,0-.95-.48-1.64-1.17a.35.35,0,0,1,0,.33,1.31,1.31,0,0,1-1.15.31,3.72,3.72,0,0,1-1.77-1.29c-.24-.24-.57-.64-.93-1.07-.33-.24-.64-.46-.91-.62A2.47,2.47,0,0,0,9.34,68H9.27v0c-3.47-.07-5-1.58-9.27-1.58,0,0,9.94-4.78,15.93-1.38a21.18,21.18,0,0,0,2.53.26c1.74,0,1.24.91.69,1.19A8,8,0,0,1,18,66.7l.1.09c.26.29.5.58.72.84.76.93,1.79,2.15,2,2.34s.09.5.09.5A1.21,1.21,0,0,1,19.75,70.78Z"/><path class="cls-2" d="M19.15,66.48A8,8,0,0,1,18,66.7,16.25,16.25,0,0,0,15.93,65a21.18,21.18,0,0,0,2.53.26C20.2,65.31,19.7,66.2,19.15,66.48Z"/></g></g></svg>