<svg xmlns="http://www.w3.org/2000/svg" viewBox="0 0 150.28 296.55"><defs><style>.cls-1{fill:#ffd3b3;}.cls-2{fill:#e2bba1;}.cls-3{fill:#e9c464;}.cls-4{fill:#2a9d8e;}.cls-5{fill:#258272;}.cls-6{fill:#fff;opacity:0.3;}.cls-7{fill:#4c4199;}.cls-8{fill:#262626;}.cls-9{fill:#e5b54c;}.cls-10{fill:#004991;}</style></defs><title>Asset 3</title><g id="Layer_2" data-name="Layer 2"><g id="Layer_1-2" data-name="Layer 1"><path class="cls-1" d="M87.15,126.83l22.33-18s5.24,12.63,1.09,25.87c-2,6.51.13,11.14-1,14.23-1,2.88-8.6,43.86-8.18,46.88s3.76,11.52,4.9,20.4c1.37,10.69.26,45.36,1.3,54.58s-7.49,10.58-7.88,7.46c-3.35-26.68-12.91-68.37-14.06-81.7S85.69,159,87.15,126.83Z"/><path class="cls-2" d="M86.46,153l9,22.08a48.86,48.86,0,0,0-7.19,22.74c-.26,4.21,0,8.44-.21,12.66a3.53,3.53,0,0,1-.15.91c-1.12-6.28-2-11.45-2.24-14.82-.82-9.41-.47-24.34.32-43.6A3.71,3.71,0,0,1,86.46,153Z"/><path class="cls-1" d="M98.46,269.73s1.81,9.69,1.23,10.91-2.63,4.74-4.69,6-6.88,2.8-7.27,3.38a1.47,1.47,0,0,0,.22,2,9.72,9.72,0,0,0,6.66,1.85c6.38-.9,7.11-3.7,10.83-4.06.64-.06,1.8.91,3.6.05a4.2,4.2,0,0,0,2.57-4c-.2-2.67-1.64-4.89-2.65-6.88s-1.55-11-1.55-11"/><path class="cls-3" d="M87.45,292.44c-.45-.81-.54-2-.1-2.29a34.69,34.69,0,0,1,4-2.29c1.25-.54,3.22-1,2.52-.64s.54,1.78,1.69,1.74c4-.15,7-2.73,9.29-3.25,3.3-.74,4.77-4.58,4.92-5.2.62.4,2,3.56,2.25,4.54a7.83,7.83,0,0,1,.41,3.44,7.92,7.92,0,0,0-.44,3.27,6.28,6.28,0,0,1-2.38.79,9.29,9.29,0,0,1-2.54,0l-.24-2.07a9.06,9.06,0,0,0-2,.15,11,11,0,0,0-3.13,1.37c-.47.54-.86,1.52-1.47,1.81A12.79,12.79,0,0,1,95,295C90.67,295.12,88.21,293.81,87.45,292.44Z"/><path class="cls-1" d="M55,290.38c.48-.51,5.56-1.28,7.95-2.25a13.76,13.76,0,0,0,5.6-5.23c.55-1.29.49-7.84.45-10.59-.28-18.94-3.31-65.25-3.71-76.34-.68-19.27,2-39.13,9.74-70l27.81-20.9s7.59,14.45,4.86,28.16c-1.58,8-8.2,9.11-9.35,12.2S80,198.31,80,198.31A94.29,94.29,0,0,1,83.22,221c.06,10.1-4.83,40.52-5.79,52.11-.12,2.27-.57,7.69.08,9.43.8,2.12,2.86,4.63,2.73,7.3a4.1,4.1,0,0,1-3.17,3.6c-2,.59-3-.55-3.72-.59-3.89-.2-5,2.47-11.71,2.4A10.65,10.65,0,0,1,55,292.38,1.43,1.43,0,0,1,55,290.38Z"/><path class="cls-3" d="M54.45,292.92c-.37-.86-.32-2.07.17-2.29A38.2,38.2,0,0,1,59,288.91c1.35-.36,3.44-.55,2.68-.29s.35,1.84,1.55,2c4.16.4,7.56-1.75,10-1.95,3.5-.28,4.77-3.89,5-4.49A16,16,0,0,1,80.76,289a7.68,7.68,0,0,1,0,3.47,7.49,7.49,0,0,0-.83,3.18,6.81,6.81,0,0,1-2.55.46,10.11,10.11,0,0,1-2.63-.37v-2.09a10.43,10.43,0,0,0-2.12-.12,7,7,0,0,0-3.42,1.22c-.57.43-1.17,1.15-1.84,1.32a13.93,13.93,0,0,1-5.45.43C57.49,296,55.08,294.39,54.45,292.92Z"/><path class="cls-1" d="M10.63,46.38c-1.38.4-5.9-1.16-7.06-3a3.12,3.12,0,0,1-.53-2c-.68-.8-1.85-3.63.18-3C1.13,36.9.59,34.77,0,32.38c-.2-.8.73-1,1.7.55A9,9,0,0,0,7.82,37c.17-.44-.42-.58-.86-1.51s-.16-1.75.3-1.92,1.14,1,1.41,1.28l3.08,2.61a6.38,6.38,0,0,1,2.23,3c.09.23.62,2.6-.39,2.27"/><path class="cls-1" d="M77.59,68.24c-10.36-.12-28.91-1.9-31.46-2.4-10.05-2-35.72-19.57-35.72-19.57S9.93,42.16,13.84,41c6.51,5.28,29.82,12,32.92,13.86,2,1.23,34.61-.11,34.61-.11"/><path class="cls-3" d="M112.1,55.51s4.4,11.86,5.84,21.25l-10.65,1.67V63.35"/><rect class="cls-4" x="57.11" y="71.22" width="89.75" height="49.89" rx="0.8" transform="translate(186.43 208.05) rotate(-170.36)"/><path class="cls-5" d="M58.15,110.61l80.39,14a1.48,1.48,0,0,0,1.71-1.21l6.79-40a1.49,1.49,0,0,0-1.21-1.7l-80.4-14a1.47,1.47,0,0,0-1.7,1.21l-6.79,40A1.48,1.48,0,0,0,58.15,110.61Z"/><path class="cls-6" d="M134.33,120.87l1.35.23a1.26,1.26,0,0,0,1.46-1L143,85.63a1.28,1.28,0,0,0-1-1.47l-1.34-.22a1.28,1.28,0,0,0-1.47,1l-5.85,34.43A1.26,1.26,0,0,0,134.33,120.87Z"/><path class="cls-6" d="M127.11,119.49l1.35.23a1.27,1.27,0,0,0,1.46-1l5.85-34.43a1.28,1.28,0,0,0-1-1.47l-1.34-.22a1.27,1.27,0,0,0-1.47,1L126.07,118A1.27,1.27,0,0,0,127.11,119.49Z"/><path class="cls-6" d="M119.89,118.11l1.35.22a1.25,1.25,0,0,0,1.46-1l5.85-34.42a1.26,1.26,0,0,0-1-1.47l-1.34-.23a1.28,1.28,0,0,0-1.47,1l-5.85,34.43A1.28,1.28,0,0,0,119.89,118.11Z"/><path class="cls-6" d="M112.67,116.73,114,117a1.26,1.26,0,0,0,1.46-1l5.85-34.43a1.25,1.25,0,0,0-1-1.46L119,79.79a1.28,1.28,0,0,0-1.47,1l-5.85,34.43A1.28,1.28,0,0,0,112.67,116.73Z"/><path class="cls-6" d="M105.45,115.34l1.35.23a1.26,1.26,0,0,0,1.46-1l5.85-34.43a1.27,1.27,0,0,0-1-1.47l-1.34-.22a1.28,1.28,0,0,0-1.47,1l-5.85,34.43A1.27,1.27,0,0,0,105.45,115.34Z"/><path class="cls-7" d="M98.23,114l1.35.23a1.28,1.28,0,0,0,1.47-1l5.84-34.42a1.26,1.26,0,0,0-1-1.47L104.51,77a1.28,1.28,0,0,0-1.47,1l-5.85,34.42A1.28,1.28,0,0,0,98.23,114Z"/><path class="cls-7" d="M91,112.58l1.35.22a1.28,1.28,0,0,0,1.47-1l5.85-34.43a1.27,1.27,0,0,0-1.05-1.46l-1.34-.23a1.28,1.28,0,0,0-1.47,1L90,111.11A1.28,1.28,0,0,0,91,112.58Z"/><path class="cls-7" d="M83.8,111.19l1.34.23a1.28,1.28,0,0,0,1.47-1L92.46,76a1.28,1.28,0,0,0-1-1.47l-1.34-.22a1.28,1.28,0,0,0-1.47,1l-5.85,34.43A1.27,1.27,0,0,0,83.8,111.19Z"/><path class="cls-7" d="M76.58,109.81l1.34.23a1.28,1.28,0,0,0,1.47-1l5.85-34.43a1.28,1.28,0,0,0-1-1.47l-1.35-.22a1.27,1.27,0,0,0-1.47,1l-5.85,34.42A1.28,1.28,0,0,0,76.58,109.81Z"/><path class="cls-6" d="M69.36,108.43l1.34.22a1.27,1.27,0,0,0,1.47-1L78,73.19a1.28,1.28,0,0,0-1-1.47l-1.35-.23a1.27,1.27,0,0,0-1.46,1L68.32,107A1.27,1.27,0,0,0,69.36,108.43Z"/><path class="cls-6" d="M62.14,107.05l1.34.22a1.28,1.28,0,0,0,1.47-1L70.8,71.8a1.26,1.26,0,0,0-1-1.46l-1.35-.23a1.26,1.26,0,0,0-1.46,1L61.1,105.58A1.27,1.27,0,0,0,62.14,107.05Z"/><path class="cls-8" d="M104.7,105c7.68,6.62,10.63,17.62,9.08,29.35-.41,3.1-3.54,11.63-4,14.74-1.1,7.06-3.36,17.45-3.23,25.5-10.3,7.47-31.22,6.82-40.69,1.24-1-9.73-.86-17.47-.11-31,1.12-20.35,10.2-39.32,10.38-41"/><path class="cls-3" d="M76.38,85.58c.39,3.63,0,9.21-.5,15.42a31.43,31.43,0,0,0-.51,4.07,2.33,2.33,0,0,0,.81,1.59c1.1,1.08,3.24,1.74,5.58,2.16,7.63,1.38,19.7.46,23.11,1.12,3.19.65,6.48-.43,6.48-2.39,0-1.35-1.24-2.11-1.36-4.78-.25-5.84-.07-19.13,1-25.06,2.26-12.43,2.88-19.81,1.31-33.72L89,37.37c-1.79.3-1,5.77-2.8,6.07-1.31.21-8.69,7.22-10.78,15.49a32.14,32.14,0,0,0-2.69,5.38,9.48,9.48,0,0,0,0,7.36C74.55,76.56,75.81,80.08,76.38,85.58Z"/><path class="cls-9" d="M76.38,85.58c.39,3.63,0,9.21-.5,15.42a31.43,31.43,0,0,0-.51,4.07,2.33,2.33,0,0,0,.81,1.59v0c-.69-1.54,1-9.19,1.68-13.49a48.81,48.81,0,0,0-1-17.91c-1.51-5.26-2.09-7.77-2.09-7.77s-1.19-1.79-2-3.15a9.48,9.48,0,0,0,0,7.36C74.55,76.56,75.81,80.08,76.38,85.58Z"/><path class="cls-3" d="M78.87,48.85A10.19,10.19,0,0,0,72,50c-4.5,2.66-13.88,4.22-13.88,4.22S57.4,65,58.56,69.08c0,0,3.11-.49,12.35.51,9.56,1,22.31,7.37,22.31,7.37"/><path class="cls-1" d="M78.8,12.62c2.29-4.38,5.91-10.57,14.57-9.71s16.08,6.32,16,12.81-4.5,14.31-6.2,18.8-1,11.17-1,11.17L83,45s.5-5.87-.68-8.09c-.65-1.24-3.22-3.57-6.21-6-1.3-1.06-2.35-3.25-1.57-6.68,1.16-5.13,1.58-7.38,2.33-8.88C77.39,14.3,78.31,13.57,78.8,12.62Z"/><path class="cls-10" d="M79.15,47.57c1.17-1.38,2.95-2.06,4-3.55a8,8,0,0,0,1.37-5.19,9.68,9.68,0,0,0-1.15-2.95c-2.08-4.21-2.22-6.93.77-10.33a11.85,11.85,0,0,0,2.43-3.68c.45-1.26.8-2.64-.42-3.4a1.64,1.64,0,0,0-2.21,0c-.48.43-1.85,4.45-2.09,1.69s-1.23-3.31,1.09-8c.27-.56,1.55-2.77,1.36-3.27-3,.56-4,1.35-5.21,3.25C77.74,10.62,81.63-.29,93.61,0c3,.07,6.15.27,8.84,1.64s5.69,3.77,5.51,6.19c4.24.82,4.84,5.15,5.17,6.76a21.14,21.14,0,0,1,.25,7c-.45,3.44-1.73,6.73-2.41,10.13a15,15,0,0,0,.39,8.49c1,2.54,3.57,3.92,4.85,6.39a11.15,11.15,0,0,1-.15,10.18c-1.65,3.13-3.72,5.19-3.18,9a12.32,12.32,0,0,1-4,11.75,12.71,12.71,0,0,1-9.16,2.48,21.43,21.43,0,0,1-7.5-2.37c-4.48-2.43-8.47-4-11.36-10.46-1.64-3.65.76-4.16-.7-7.91-.82-2.1-2.57-3.84-2.79-6.17A7.79,7.79,0,0,1,79,47.74Z"/></g></g></svg>