<svg id="Group_4412" data-name="Group 4412" xmlns="http://www.w3.org/2000/svg" width="225.424" height="289.45" viewBox="0 0 225.424 289.45">
  <path id="Path_9005" data-name="Path 9005" d="M2049.073,1954.694c5.083,5.461,8.667,40.449,8.8,41.749s25.731,15.7,25.731,15.7l-3.6,4.123s-27.277-6.871-32.182-12.8c-4.162-5.032-13.778-46.166-13.778-46.166S2040.638,1945.635,2049.073,1954.694Z" transform="translate(-1957.475 -1897.97)" fill="#e76f50"/>
  <g id="Group_4406" data-name="Group 4406" transform="translate(0 260.017)">
    <path id="Path_9006" data-name="Path 9006" d="M2011.823,2045.04a47.346,47.346,0,0,1-3.136,5.294c-1.049,1.27-5.61-1.608-5.642-2.648s4.052-7.367,4.052-7.367" transform="translate(-1998.42 -2040.319)" fill="#ffd3b3"/>
    <path id="Path_9007" data-name="Path 9007" d="M2003.659,2044.309c-.986,1.4-2.606,4.168-2.606,4.168l4.027,3.674,1.054-.453a9,9,0,0,0,1.885,2.978,20.706,20.706,0,0,0,4.164,2.841c4.011,1.868,7.372,2.152,7.829,1.671,1.915-2.012-3.389-4.542-4.384-5.2a7.434,7.434,0,0,1-3.338-6.937c.219-1.323.613-1.435-.111-1.639a1.839,1.839,0,0,0-1.4.139,3.268,3.268,0,0,1-3.686-.39,3.669,3.669,0,0,1-1.184-1.961A2.273,2.273,0,0,0,2003.659,2044.309Z" transform="translate(-2001.052 -2036.547)" fill="#004991"/>
  </g>
  <g id="Group_4407" data-name="Group 4407" transform="translate(81.696 275.213)">
    <path id="Path_9008" data-name="Path 9008" d="M2042.7,2050.185a11.715,11.715,0,0,1,.88,4.106c-.125,1.632-5.543,1.752-6.172.905s-.945-8.331-.945-8.331" transform="translate(-2035.973 -2046.866)" fill="#ffd3b3"/>
    <path id="Path_9009" data-name="Path 9009" d="M2036.25,2053.259a33.371,33.371,0,0,0,.492,4.468h6.244l.309-1a10.129,10.129,0,0,0,3.614,1h5.269c3.857,0,6.049-.471,6.146-1.121.406-2.721-4.2-2.6-5.4-2.6-3.445,0-7.177-1.546-7.989-3.224-.589-1.216-.33-1.523-1.042-1.3a1.779,1.779,0,0,0-1.07.884,3.2,3.2,0,0,1-3.254,1.7,3.851,3.851,0,0,1-2.11-.977A2.184,2.184,0,0,0,2036.25,2053.259Z" transform="translate(-2036.25 -2043.489)" fill="#004991"/>
  </g>
  <path id="Path_9010" data-name="Path 9010" d="M2025.76,2021.568c.037.228,5.1-5.573,5.153-5.327,2.012,10.146,11.373,44.075,14.481,52.976v.016c.455,1.244,2.857,3.93,4.849,4.438,4.572,1.193,11.867-.371,12.452-9.115.072-.965-.146-2.017-.037-3.154,1.3-13.469-11.578-72.841-11.907-76.627-.309-3.786-7.757-1.054-9.841-1.755C2030.507,1979.569,2023.037,2007.375,2025.76,2021.568Z" transform="translate(-1969.157 -1856.398)" fill="#264653"/>
  <path id="Path_9011" data-name="Path 9011" d="M2034.261,2034.478c2.115-6.318-1.093-13.722-1.093-13.722s17.958-13.808,18.873-5.38c.093.666.759,6.376.756,9.6-.007,11.526-4.011,48.025-3.718,70.312v1.455a44.512,44.512,0,0,1-8.265.543c-.237,0-.492,0-.75-.019-1.5-13.878-4.747-32.752-6.288-51.741A43.652,43.652,0,0,1,2034.261,2034.478Z" transform="translate(-1958.626 -1816.854)" fill="#264653"/>
  <path id="Path_9012" data-name="Path 9012" d="M2028.261,2073.305c3.6-4.466,7.388-6.464,8.509-9.865,2.611-7.908,1.9-39.984,2.154-48.89-.743-1.822-7.662-20.028,6.381-33.444,0,0,12.626,5.417,22.737,6.072,7.961.515,12-.276,12-.276s-7.518,11.343-7.957,16.37c-.745,8.542-16.714,60.127-17.932,62.954a33.715,33.715,0,0,1-6.852,10.292c-7.079,9.212-23.646,28.583-36.21,47.136l-.847,1.2a34.707,34.707,0,0,1-7.223-4.09C2009.79,2108.411,2016.872,2087.457,2028.261,2073.305Z" transform="translate(-1998.45 -1858.525)" fill="#264653"/>
  <path id="Path_9013" data-name="Path 9013" d="M2073.434,1956.741c-2.521-2.892-13.342-7.362-24.039-7.026-7.369.234-30.8,2.646-33.04,7.576-1.146,2.521-1.035,26.444.643,35.345,1.262,6.691,5.073,23.888,5.073,27.887s-2.149,5.717-1.146,6.877c2.247,2.6,19.035,3.767,26.247,3.767,6.417,0,17.34-1.71,17.9-3.767.821-3.052-1.254-2.937-1.535-6.137s-1.792-24.3.086-27.365c2.983-4.867,7.514-18.664,7.743-22.331S2075.955,1959.635,2073.434,1956.741Z" transform="translate(-1981.836 -1900.017)" fill="#e76f50"/>
  <path id="Path_9014" data-name="Path 9014" d="M2041.626,1948.979s.072,8.9.432,9.261a14.033,14.033,0,0,0,2.117,1.191s-1.253,7.736-3.191,7.16-14.741-7.04-14.741-7.04,1.817-.738,1.817-1.456-1.725-14.718-1.725-14.718" transform="translate(-1967.775 -1908.364)" fill="#ffd3b3"/>
  <path id="Path_9015" data-name="Path 9015" d="M2032.066,1933.722a5.419,5.419,0,0,1,5.521-.366,8.054,8.054,0,0,1,3.77,4.268,6.352,6.352,0,0,1,.007,5.436,3.325,3.325,0,0,1,2.089,3.175,7.972,7.972,0,0,1-1.643,4.085,3.721,3.721,0,0,1-3.69,1.536,4.179,4.179,0,0,1-2.349-1.646,10.863,10.863,0,0,1-1.325-2.6,71.944,71.944,0,0,1-3.582-13.084" transform="translate(-1961.67 -1922.373)" fill="#004991"/>
  <path id="Path_9016" data-name="Path 9016" d="M2037.341,1931.861c1.866.508,6.782-.508,8.14,1.527s2.544,6.952,3.052,8.31c1.012,2.7,1.673,5.586,2.409,8.37.958,3.627,3.424,10.463-.127,13.5a7.2,7.2,0,0,1-3.621,1.2c-1.68.3-3.354.647-5.034.949-2.6.469-5.489,1.014-8.075.174-3.456-1.123-5.352-5.875-6.239-9.1l-5.088-18.482Z" transform="translate(-1972.379 -1923.58)" fill="#ffd3b3"/>
  <path id="Path_9017" data-name="Path 9017" d="M2028.862,1947.182a1.57,1.57,0,0,1-2.539,1.5,5.422,5.422,0,0,1-2.915-4.563c-.153-2.191,1.249-4.206,3.147-3.419a2.916,2.916,0,0,1,1.527,3.038" transform="translate(-1971.535 -1912.13)" fill="#ffd3b3"/>
  <path id="Path_9018" data-name="Path 9018" d="M2028.334,1953.23c.6,1.836,2.172,6.007,3.841,5.6s-.678-6.935-2.121-9.558c2.1-.007,4.688-.33,5.445-2.289.169-.441.3-1.01.766-1.109.378-.083.713.223,1.038.434,1.474.954,3.484.021,4.658-1.284.27-.3.583-.647.982-.62a1.346,1.346,0,0,1,.659.32c2.421,1.717,8.85,1.632,8.829-1.39,2.117,1.077,3.489-1.546,3.363-3.34s-1.469-4.789-4.389-4.714c.146-2.2-1.585-3.585-3.337-4.932a11,11,0,0,0-6.2-2.044c-3.486-.158-7.453,1.279-8.641,4.561a1.108,1.108,0,0,1-.39.629,1.065,1.065,0,0,1-.814-.007,8.44,8.44,0,0,0-7.734,1.534c-2.04,1.829-2.727,5.186-1.156,7.43-2.042.483-3.138,2.911-2.818,4.986a10.83,10.83,0,0,0,3.094,5.378c-2.212.706-3.1,3.734-1.975,5.77s4,3.138,6.3,2.8c-.529-2.1.381-4.514,2.412-4.891" transform="translate(-1975.678 -1928.293)" fill="#004991"/>
  <path id="Path_9019" data-name="Path 9019" d="M2036.379,1954.3s.708,32.762,2.041,52.69l-4.816,6.646-3.312-8.321a253.293,253.293,0,0,1,3.133-50.787Z" transform="translate(-1962.695 -1893.942)" fill="#004991"/>
  <path id="Path_9020" data-name="Path 9020" d="M2036.9,1954.232l-.114.45a9.084,9.084,0,0,1-1,2.428h0l-2.955.228s-2.01-1.051-2.277-2.184,3.3-2.987,3.3-2.987l.432.172a6.405,6.405,0,0,1,2.574,1.852Z" transform="translate(-1962.1 -1896.756)" fill="#004991"/>
  <path id="Path_9021" data-name="Path 9021" d="M2029.179,1948.386a18.373,18.373,0,0,0-4.032,4.069,37.881,37.881,0,0,0,9.828,12.206,17.091,17.091,0,0,1,6-7.5S2030.239,1954.938,2029.179,1948.386Z" transform="translate(-1969.221 -1901.749)" fill="#eaeaea"/>
  <path id="Path_9022" data-name="Path 9022" d="M2031.966,1956.825a12.725,12.725,0,0,1,5.879,5.589,28.122,28.122,0,0,0-.8-10.373s-1.989-3.337-2.827-3.4C2034.568,1952.587,2031.966,1956.825,2031.966,1956.825Z" transform="translate(-1960.213 -1901.415)" fill="#eaeaea"/>
  <path id="Path_9023" data-name="Path 9023" d="M2039.339,2057.243a14.843,14.843,0,0,0,.713-4.557c-.035-.076-.089-.162-.112-.232v-.016c-2.091-5.988-7.007-23.292-10.616-37.069l5.6-19.952s3.4,40.609,4.508,43.524,4.577,12.292,4.24,14.314-2.527,5.726-2.188,8.925.285,31.886.285,32.04c-1.107-8.293-2.193-17.1-2.91-25.931A43.652,43.652,0,0,1,2039.339,2057.243Z" transform="translate(-1963.704 -1839.619)" fill="#5ab5e2" opacity="0.45"/>
  <g id="Group_4410" data-name="Group 4410" transform="translate(85.19 7.187)">
    <g id="Group_4408" data-name="Group 4408" transform="translate(47.192)">
      <path id="Path_9024" data-name="Path 9024" d="M2104.709,2024.456a47.073,47.073,0,0,1-8.23-.727,46.349,46.349,0,1,1,8.23.727Zm-.151-80.812a34.268,34.268,0,1,0,28.15,14.639A34.071,34.071,0,0,0,2104.558,1943.644Z" transform="translate(-2058.088 -1931.39)" fill="#004991"/>
    </g>
    <g id="Group_4409" data-name="Group 4409" transform="translate(0 71.712)">
      <path id="Path_9025" data-name="Path 9025" d="M2043.884,2047.23a6.131,6.131,0,0,1-4.721-10.039l60.175-72.686a6.13,6.13,0,1,1,9.442,7.819l-60.173,72.686A6.12,6.12,0,0,1,2043.884,2047.23Z" transform="translate(-2037.755 -1962.286)" fill="#004991"/>
    </g>
  </g>
  <g id="Group_4411" data-name="Group 4411" transform="translate(31.044 56.652)">
    <path id="Path_9026" data-name="Path 9026" d="M2042.739,1984.637s3.321,1.038,5.037,1.534c1.119.323,6.432-.246,9.556.469a7.075,7.075,0,0,1,4.053,2.078c.975,1.2,1.038,3.247-.237,4.122-.364.248-.856.462-.9.9a1.7,1.7,0,0,0,.155.648,1.718,1.718,0,0,1-2.5,2,2.9,2.9,0,0,1-2.693,2.778,2.307,2.307,0,0,0-.842-2.084,4.607,4.607,0,0,0-2.2-.453,5.915,5.915,0,0,1-3.544-1.685c-.671-.673-1.17-1.5-1.785-2.224a8.983,8.983,0,0,0-4.93-2.957" transform="translate(-1978.119 -1910.513)" fill="#ffbe9d"/>
    <path id="Path_9027" data-name="Path 9027" d="M2016.442,1953.316a2.692,2.692,0,0,1,.408-.61l15.451,15.112c3.682,9.8,11.023,35.6,11.023,35.6s6.954,3.261,11.621,5.684c1.182.615,4.522,2.862,8.477,5.6.083,1.179.155,2.1.2,2.588.281,3.2.722,3.18-.1,6.232,0,2.024.78,5.064,1.3,8.07-11.609-2.969-35.57-10.479-36.479-10.972-1.36-.738-8.414-29.113-12.5-46.342C2015.214,1963.785,2015.6,1955.162,2016.442,1953.316Z" transform="translate(-2012.967 -1952.694)" fill="#5ab5e2" opacity="0.45"/>
    <path id="Path_9028" data-name="Path 9028" d="M2033.845,1966.175c1.43,4.092,9.015,40.11,9.015,40.11a68.916,68.916,0,0,1,12.086,4.285c3.618,1.877,28.834,17.54,28.834,17.54l-2.509,5.905s-44.885-15.909-46.853-16.976-19.991-46.546-19.991-54.661c0-4.779,3.869-9.676,3.869-9.676" transform="translate(-2014.427 -1952.701)" fill="#e76f50"/>
  </g>
  <path id="Path_9029" data-name="Path 9029" d="M2056.07,1988.525a3.007,3.007,0,0,0,3.22-2.356,2.327,2.327,0,0,1,.221-.842c.271-.437.854-.524,1.349-.668,1.891-.555,3.1-2.47,3.553-4.389a5.884,5.884,0,0,0,.009-3.108,3.244,3.244,0,0,0-2.08-2.189.976.976,0,0,0-.608-.014,1.1,1.1,0,0,0-.461.4,7.8,7.8,0,0,0-1.289,2.581,3.223,3.223,0,0,1-.9,1.859,8.2,8.2,0,0,1-1.3.543,3.743,3.743,0,0,0-1.6,2.272c-.48,1.367.161,4.484-.107,5.907" transform="translate(-1928.474 -1866.703)" fill="#ffbe9d"/>
  <path id="Path_9030" data-name="Path 9030" d="M2053.735,1979.665a3.873,3.873,0,0,1,.968-3.256,7.009,7.009,0,0,1,2.834-1.762c.281-.1.657-.172.822.077a.58.58,0,0,1-.059.6c-.4.678-1.239.994-1.671,1.655a7.2,7.2,0,0,0-.388.8,3.5,3.5,0,0,1-2.506,1.887" transform="translate(-1931.552 -1867.182)" fill="#ffbe9d"/>
  <path id="Path_9031" data-name="Path 9031" d="M2037.3,1974.944s4.259-10.531,5.027-14.878c2.033,10.333,1.36,28.428,3.075,29.972s18.852,11.311,18.852,11.311h0c-8.094-2.542-17.984-6.188-20.75-9.535-1.564-1.892-3.9-8.88-6.2-16.867Z" transform="translate(-1953.164 -1886.319)" fill="#5ab5e2" opacity="0.45"/>
  <path id="Path_9032" data-name="Path 9032" d="M2037.868,1946.114s-7.244,1.578-8.525,1.372,2.785,2.208,3.544,2.3a49.955,49.955,0,0,0,4.981-.492Z" transform="translate(-1964.007 -1904.751)" fill="#f2a181"/>
</svg>
