<svg xmlns="http://www.w3.org/2000/svg" viewBox="0 0 244.16 278.62"><defs><style>.cls-1{fill:#2a9d8e;}</style></defs><title>shape</title><g id="Layer_2" data-name="Layer 2"><g id="Layer_1-2" data-name="Layer 1"><path class="cls-1" d="M39.92,23.08C45.62,15.79,51.53,8.3,59.6,3.75S78.5-1.75,85.78,4c3.9,3.06,6.32,7.59,8.55,12a423.85,423.85,0,0,1,19.29,44.48c6.61,18,14.15,38.7,32.16,45.21,13.51,4.88,29.42,0,42.36,6.23,15.25,7.36,19.91,26.79,20.36,43.72s-1.23,35.13,7.64,49.56c9.36,15.23,30,26.15,27.87,43.89-1.44,12.13-13.55,20-25.14,23.88-47.08,15.69-98.35-6.67-147.81-2.54-17.59,1.47-38,5.41-50.66-6.92-6-5.83-8.67-14.18-10.8-22.26C-8.56,172.57-.73,97.36,31.16,33.89"/></g></g></svg>