<svg xmlns="http://www.w3.org/2000/svg" viewBox="0 0 98.29 81.4"><defs><style>.cls-1{fill:#2a9d8e;}.cls-2{fill:#fff;}</style></defs><title>wifi</title><g id="Layer_2" data-name="Layer 2"><g id="Layer_1-2" data-name="Layer 1"><path class="cls-1" d="M57.59,0A40.75,40.75,0,0,0,18.71,52.79L0,68.9l26-2.53A40.7,40.7,0,1,0,57.59,0Z"/><path class="cls-2" d="M59,53.74a3.74,3.74,0,1,0,3.74,3.74A3.75,3.75,0,0,0,59,53.74Z"/><path class="cls-2" d="M59,44.35a13,13,0,0,0-9.15,3.77,2.38,2.38,0,0,0,0,3.34h0a2.36,2.36,0,0,0,3.38.1,8.2,8.2,0,0,1,11.57,0,2.37,2.37,0,0,0,3.39-.1h0a2.41,2.41,0,0,0,0-3.35A13,13,0,0,0,59,44.35Z"/><path class="cls-2" d="M59,20.19A37.06,37.06,0,0,0,33.34,30.52a2.4,2.4,0,0,0,0,3.36l.23.24a2.38,2.38,0,0,0,3.37.14,31.93,31.93,0,0,1,44.23,0,2.39,2.39,0,0,0,3.37-.13l.24-.25a2.4,2.4,0,0,0,0-3.36A37.07,37.07,0,0,0,59,20.19Z"/><path class="cls-2" d="M59,33.34a24,24,0,0,0-16.47,6.53,2.6,2.6,0,0,0-.14,3.69h0a2.57,2.57,0,0,0,3.64.09,18.92,18.92,0,0,1,25.93,0,2.58,2.58,0,0,0,3.65-.09h0a2.61,2.61,0,0,0-.14-3.69A24,24,0,0,0,59,33.34Z"/></g></g></svg>